%TF.GenerationSoftware,KiCad,Pcbnew,9.0.7*%
%TF.CreationDate,2026-04-25T22:42:26-07:00*%
%TF.ProjectId,Secondary_Board,5365636f-6e64-4617-9279-5f426f617264,rev?*%
%TF.SameCoordinates,Original*%
%TF.FileFunction,Copper,L3,Inr*%
%TF.FilePolarity,Positive*%
%FSLAX46Y46*%
G04 Gerber Fmt 4.6, Leading zero omitted, Abs format (unit mm)*
G04 Created by KiCad (PCBNEW 9.0.7) date 2026-04-25 22:42:26*
%MOMM*%
%LPD*%
G01*
G04 APERTURE LIST*
%TA.AperFunction,ComponentPad*%
%ADD10C,3.800000*%
%TD*%
%TA.AperFunction,ComponentPad*%
%ADD11R,1.700000X1.700000*%
%TD*%
%TA.AperFunction,ComponentPad*%
%ADD12C,1.700000*%
%TD*%
%TA.AperFunction,ComponentPad*%
%ADD13O,3.500000X2.500000*%
%TD*%
%TA.AperFunction,ViaPad*%
%ADD14C,0.600000*%
%TD*%
G04 APERTURE END LIST*
D10*
%TO.N,GND*%
%TO.C,H1*%
X144225000Y-48105000D03*
%TD*%
D11*
%TO.N,+3.7V*%
%TO.C,J4*%
X109670000Y-93750000D03*
D12*
%TO.N,+3V3*%
X109670000Y-91210000D03*
%TO.N,+5V*%
X109670000Y-88670000D03*
%TO.N,GND*%
X109670000Y-86130000D03*
%TO.N,/PWM_Red*%
X109670000Y-83590000D03*
%TO.N,/PWM_IR*%
X109670000Y-81050000D03*
%TO.N,/OP_CTRL*%
X109670000Y-78510000D03*
%TO.N,GND*%
X109670000Y-75970000D03*
%TO.N,/V_ptat*%
X109670000Y-73430000D03*
%TO.N,/V_bandgap*%
X109670000Y-70890000D03*
%TD*%
D10*
%TO.N,GND*%
%TO.C,H2*%
X110985000Y-48165012D03*
%TD*%
%TO.N,GND*%
%TO.C,H3*%
X144550000Y-97775000D03*
%TD*%
%TO.N,GND*%
%TO.C,H4*%
X110585000Y-97765012D03*
%TD*%
D13*
%TO.N,+3.7V*%
%TO.C,BT2*%
X121620000Y-96590000D03*
%TO.N,GND*%
X131620000Y-96590000D03*
%TD*%
D14*
%TO.N,+3V3*%
X138950000Y-72500000D03*
X115520000Y-62710000D03*
X128075000Y-73875000D03*
X115075000Y-67925000D03*
X137025000Y-63075000D03*
X140770000Y-60540000D03*
X142125000Y-74700000D03*
X125525000Y-71425000D03*
X115550000Y-74270000D03*
X125525000Y-73875000D03*
X128025000Y-71475000D03*
X109930000Y-62523008D03*
%TO.N,GND*%
X116400000Y-86825000D03*
X139560000Y-61560000D03*
X125950000Y-87100000D03*
X124150000Y-87100000D03*
X114054658Y-82021900D03*
X114054658Y-81221900D03*
X115025000Y-69575000D03*
X125250000Y-87100000D03*
X123450000Y-86400000D03*
X125475000Y-65375000D03*
X142800000Y-70250000D03*
X134420000Y-96870000D03*
X126775000Y-59975000D03*
X129950000Y-89000000D03*
X136000000Y-49000000D03*
X118175000Y-75825000D03*
X120375000Y-62975000D03*
X112230130Y-65723299D03*
X133775000Y-67775000D03*
X128075000Y-65425000D03*
X126775000Y-65475000D03*
X136325000Y-90825000D03*
X116493800Y-85153100D03*
X126650000Y-87100000D03*
X126775000Y-73875000D03*
X121575000Y-71975000D03*
X134450000Y-92200000D03*
X125250000Y-86400000D03*
X125950000Y-86400000D03*
X128025000Y-59925000D03*
X132000000Y-55000000D03*
X130850000Y-45680000D03*
X126650000Y-86400000D03*
X125475000Y-59975000D03*
X116900000Y-50850000D03*
X126775000Y-71475000D03*
X138075000Y-90825000D03*
X116600000Y-46500000D03*
X126300000Y-96400000D03*
X124150000Y-86400000D03*
X139225000Y-75575000D03*
X109820000Y-63860000D03*
%TO.N,/PTAT_Bandgap/Pnp_In+*%
X130225000Y-71925000D03*
X132460000Y-62560000D03*
%TO.N,/PTAT_Bandgap/Pnp_base*%
X132525000Y-67075000D03*
X130350000Y-73550000D03*
%TO.N,/V_ptat*%
X118940000Y-67320000D03*
X115110000Y-66510000D03*
%TO.N,+3.7V*%
X108720000Y-62140000D03*
%TO.N,+5V*%
X125200000Y-82600000D03*
X108800000Y-55700000D03*
X124500000Y-52000000D03*
X124680000Y-45330000D03*
X138300000Y-84950000D03*
X133500000Y-49500000D03*
X108880000Y-63460000D03*
X109070000Y-51520000D03*
X123500000Y-82600000D03*
%TO.N,/PTAT_Bandgap/Vbg*%
X137325000Y-71050000D03*
X121475000Y-75625000D03*
%TO.N,/LED_Driver/Current Sink*%
X127000000Y-49500000D03*
X127000000Y-52000000D03*
%TO.N,Net-(U8--IN)*%
X130850000Y-47080000D03*
X130900000Y-49400000D03*
%TO.N,/OP_CTRL*%
X113390000Y-64800000D03*
X112860000Y-58660000D03*
X112650000Y-67050000D03*
X115290000Y-58710000D03*
%TO.N,/V_bandgap*%
X114980000Y-65190000D03*
%TO.N,Net-(U8-+IN)*%
X135150000Y-46550000D03*
X135550000Y-51900000D03*
%TD*%
%TA.AperFunction,Conductor*%
%TO.N,+3V3*%
G36*
X145020048Y-57592670D02*
G01*
X145065951Y-57645345D01*
X145077301Y-57696674D01*
X145156307Y-77320134D01*
X145136892Y-77387252D01*
X145084273Y-77433219D01*
X145032612Y-77444633D01*
X114261509Y-77519971D01*
X114194421Y-77500450D01*
X114148537Y-77447758D01*
X114137207Y-77396645D01*
X114136791Y-77320134D01*
X114128312Y-75759108D01*
X117674500Y-75759108D01*
X117674500Y-75890892D01*
X117691554Y-75954539D01*
X117708608Y-76018187D01*
X117722005Y-76041391D01*
X117774500Y-76132314D01*
X117867686Y-76225500D01*
X117981814Y-76291392D01*
X118109108Y-76325500D01*
X118109110Y-76325500D01*
X118240890Y-76325500D01*
X118240892Y-76325500D01*
X118368186Y-76291392D01*
X118482314Y-76225500D01*
X118575500Y-76132314D01*
X118641392Y-76018186D01*
X118675500Y-75890892D01*
X118675500Y-75759108D01*
X118641392Y-75631814D01*
X118641389Y-75631808D01*
X118630520Y-75612982D01*
X118630519Y-75612981D01*
X118599415Y-75559108D01*
X120974500Y-75559108D01*
X120974500Y-75690891D01*
X121008608Y-75818187D01*
X121041554Y-75875250D01*
X121074500Y-75932314D01*
X121167686Y-76025500D01*
X121281814Y-76091392D01*
X121409108Y-76125500D01*
X121409110Y-76125500D01*
X121540890Y-76125500D01*
X121540892Y-76125500D01*
X121668186Y-76091392D01*
X121782314Y-76025500D01*
X121875500Y-75932314D01*
X121941392Y-75818186D01*
X121975500Y-75690892D01*
X121975500Y-75559108D01*
X121962103Y-75509108D01*
X138724500Y-75509108D01*
X138724500Y-75640891D01*
X138758608Y-75768187D01*
X138787476Y-75818186D01*
X138824500Y-75882314D01*
X138917686Y-75975500D01*
X139031814Y-76041392D01*
X139159108Y-76075500D01*
X139159110Y-76075500D01*
X139290890Y-76075500D01*
X139290892Y-76075500D01*
X139418186Y-76041392D01*
X139532314Y-75975500D01*
X139625500Y-75882314D01*
X139691392Y-75768186D01*
X139725500Y-75640892D01*
X139725500Y-75509108D01*
X139691392Y-75381814D01*
X139625500Y-75267686D01*
X139532314Y-75174500D01*
X139445712Y-75124500D01*
X139418187Y-75108608D01*
X139354539Y-75091554D01*
X139290892Y-75074500D01*
X139159108Y-75074500D01*
X139031812Y-75108608D01*
X138917686Y-75174500D01*
X138917683Y-75174502D01*
X138824502Y-75267683D01*
X138824500Y-75267686D01*
X138758608Y-75381812D01*
X138724500Y-75509108D01*
X121962103Y-75509108D01*
X121941392Y-75431814D01*
X121875500Y-75317686D01*
X121782314Y-75224500D01*
X121725250Y-75191554D01*
X121668187Y-75158608D01*
X121604539Y-75141554D01*
X121540892Y-75124500D01*
X121409108Y-75124500D01*
X121281812Y-75158608D01*
X121167686Y-75224500D01*
X121167683Y-75224502D01*
X121074502Y-75317683D01*
X121074500Y-75317686D01*
X121008608Y-75431812D01*
X120974500Y-75559108D01*
X118599415Y-75559108D01*
X118584384Y-75533074D01*
X118575500Y-75517686D01*
X118482314Y-75424500D01*
X118408380Y-75381814D01*
X118368187Y-75358608D01*
X118304539Y-75341554D01*
X118240892Y-75324500D01*
X118109108Y-75324500D01*
X117981812Y-75358608D01*
X117867686Y-75424500D01*
X117867683Y-75424502D01*
X117774502Y-75517683D01*
X117774500Y-75517686D01*
X117708608Y-75631812D01*
X117692778Y-75690892D01*
X117674500Y-75759108D01*
X114128312Y-75759108D01*
X114117720Y-73809108D01*
X126274500Y-73809108D01*
X126274500Y-73940892D01*
X126291554Y-74004539D01*
X126308608Y-74068187D01*
X126341554Y-74125250D01*
X126374500Y-74182314D01*
X126467686Y-74275500D01*
X126581814Y-74341392D01*
X126709108Y-74375500D01*
X126709110Y-74375500D01*
X126840890Y-74375500D01*
X126840892Y-74375500D01*
X126968186Y-74341392D01*
X127082314Y-74275500D01*
X127175500Y-74182314D01*
X127241392Y-74068186D01*
X127275500Y-73940892D01*
X127275500Y-73809108D01*
X127241392Y-73681814D01*
X127175500Y-73567686D01*
X127091922Y-73484108D01*
X129849500Y-73484108D01*
X129849500Y-73615891D01*
X129883608Y-73743187D01*
X129916554Y-73800250D01*
X129949500Y-73857314D01*
X130042686Y-73950500D01*
X130156814Y-74016392D01*
X130284108Y-74050500D01*
X130284110Y-74050500D01*
X130415890Y-74050500D01*
X130415892Y-74050500D01*
X130543186Y-74016392D01*
X130657314Y-73950500D01*
X130750500Y-73857314D01*
X130816392Y-73743186D01*
X130850500Y-73615892D01*
X130850500Y-73484108D01*
X130816392Y-73356814D01*
X130750500Y-73242686D01*
X130657314Y-73149500D01*
X130600250Y-73116554D01*
X130543187Y-73083608D01*
X130479539Y-73066554D01*
X130415892Y-73049500D01*
X130284108Y-73049500D01*
X130156812Y-73083608D01*
X130042686Y-73149500D01*
X130042683Y-73149502D01*
X129949502Y-73242683D01*
X129949500Y-73242686D01*
X129883608Y-73356812D01*
X129849500Y-73484108D01*
X127091922Y-73484108D01*
X127082314Y-73474500D01*
X127025250Y-73441554D01*
X126968187Y-73408608D01*
X126904539Y-73391554D01*
X126840892Y-73374500D01*
X126709108Y-73374500D01*
X126581812Y-73408608D01*
X126467686Y-73474500D01*
X126467683Y-73474502D01*
X126374502Y-73567683D01*
X126374500Y-73567686D01*
X126308608Y-73681812D01*
X126292163Y-73743187D01*
X126274500Y-73809108D01*
X114117720Y-73809108D01*
X114115263Y-73356812D01*
X114109933Y-72375497D01*
X114107400Y-71909108D01*
X121074500Y-71909108D01*
X121074500Y-72040891D01*
X121108608Y-72168187D01*
X121141554Y-72225250D01*
X121174500Y-72282314D01*
X121267686Y-72375500D01*
X121381814Y-72441392D01*
X121509108Y-72475500D01*
X121509110Y-72475500D01*
X121640890Y-72475500D01*
X121640892Y-72475500D01*
X121768186Y-72441392D01*
X121882314Y-72375500D01*
X121975500Y-72282314D01*
X122041392Y-72168186D01*
X122075500Y-72040892D01*
X122075500Y-71909108D01*
X122041392Y-71781814D01*
X121975500Y-71667686D01*
X121882314Y-71574500D01*
X121768186Y-71508608D01*
X121640892Y-71474500D01*
X121509108Y-71474500D01*
X121381812Y-71508608D01*
X121267686Y-71574500D01*
X121267683Y-71574502D01*
X121174502Y-71667683D01*
X121174500Y-71667686D01*
X121108608Y-71781812D01*
X121074500Y-71909108D01*
X114107400Y-71909108D01*
X114104684Y-71409108D01*
X126274500Y-71409108D01*
X126274500Y-71540892D01*
X126283505Y-71574498D01*
X126308608Y-71668187D01*
X126341554Y-71725250D01*
X126374500Y-71782314D01*
X126467686Y-71875500D01*
X126581814Y-71941392D01*
X126709108Y-71975500D01*
X126709110Y-71975500D01*
X126840890Y-71975500D01*
X126840892Y-71975500D01*
X126968186Y-71941392D01*
X127082314Y-71875500D01*
X127098706Y-71859108D01*
X129724500Y-71859108D01*
X129724500Y-71990891D01*
X129758608Y-72118187D01*
X129787476Y-72168186D01*
X129824500Y-72232314D01*
X129917686Y-72325500D01*
X130031814Y-72391392D01*
X130159108Y-72425500D01*
X130159110Y-72425500D01*
X130290890Y-72425500D01*
X130290892Y-72425500D01*
X130418186Y-72391392D01*
X130532314Y-72325500D01*
X130625500Y-72232314D01*
X130691392Y-72118186D01*
X130725500Y-71990892D01*
X130725500Y-71859108D01*
X130691392Y-71731814D01*
X130625500Y-71617686D01*
X130532314Y-71524500D01*
X130445712Y-71474500D01*
X130418187Y-71458608D01*
X130354539Y-71441554D01*
X130290892Y-71424500D01*
X130159108Y-71424500D01*
X130031812Y-71458608D01*
X129917686Y-71524500D01*
X129917683Y-71524502D01*
X129824502Y-71617683D01*
X129824500Y-71617686D01*
X129758608Y-71731812D01*
X129724500Y-71859108D01*
X127098706Y-71859108D01*
X127175500Y-71782314D01*
X127241392Y-71668186D01*
X127275500Y-71540892D01*
X127275500Y-71409108D01*
X127241392Y-71281814D01*
X127175500Y-71167686D01*
X127082314Y-71074500D01*
X127034079Y-71046651D01*
X126968187Y-71008608D01*
X126876757Y-70984110D01*
X126876750Y-70984108D01*
X136824500Y-70984108D01*
X136824500Y-71115891D01*
X136858608Y-71243187D01*
X136880909Y-71281812D01*
X136924500Y-71357314D01*
X137017686Y-71450500D01*
X137131814Y-71516392D01*
X137259108Y-71550500D01*
X137259110Y-71550500D01*
X137390890Y-71550500D01*
X137390892Y-71550500D01*
X137518186Y-71516392D01*
X137632314Y-71450500D01*
X137725500Y-71357314D01*
X137791392Y-71243186D01*
X137825500Y-71115892D01*
X137825500Y-70984108D01*
X137791392Y-70856814D01*
X137725500Y-70742686D01*
X137632314Y-70649500D01*
X137575250Y-70616554D01*
X137518187Y-70583608D01*
X137454539Y-70566554D01*
X137390892Y-70549500D01*
X137259108Y-70549500D01*
X137131812Y-70583608D01*
X137017686Y-70649500D01*
X137017683Y-70649502D01*
X136924502Y-70742683D01*
X136924500Y-70742686D01*
X136858608Y-70856812D01*
X136824500Y-70984108D01*
X126876750Y-70984108D01*
X126840892Y-70974500D01*
X126709108Y-70974500D01*
X126581812Y-71008608D01*
X126467686Y-71074500D01*
X126467683Y-71074502D01*
X126374502Y-71167683D01*
X126374500Y-71167686D01*
X126308608Y-71281812D01*
X126288378Y-71357313D01*
X126274500Y-71409108D01*
X114104684Y-71409108D01*
X114098030Y-70184108D01*
X142299500Y-70184108D01*
X142299500Y-70315891D01*
X142333608Y-70443187D01*
X142366554Y-70500250D01*
X142399500Y-70557314D01*
X142492686Y-70650500D01*
X142606814Y-70716392D01*
X142734108Y-70750500D01*
X142734110Y-70750500D01*
X142865890Y-70750500D01*
X142865892Y-70750500D01*
X142993186Y-70716392D01*
X143107314Y-70650500D01*
X143200500Y-70557314D01*
X143266392Y-70443186D01*
X143300500Y-70315892D01*
X143300500Y-70184108D01*
X143266392Y-70056814D01*
X143200500Y-69942686D01*
X143107314Y-69849500D01*
X143050250Y-69816554D01*
X142993187Y-69783608D01*
X142929539Y-69766554D01*
X142865892Y-69749500D01*
X142734108Y-69749500D01*
X142606812Y-69783608D01*
X142492686Y-69849500D01*
X142492683Y-69849502D01*
X142399502Y-69942683D01*
X142399500Y-69942686D01*
X142333608Y-70056812D01*
X142299500Y-70184108D01*
X114098030Y-70184108D01*
X114094363Y-69509108D01*
X114524500Y-69509108D01*
X114524500Y-69640891D01*
X114558608Y-69768187D01*
X114591554Y-69825250D01*
X114624500Y-69882314D01*
X114717686Y-69975500D01*
X114831814Y-70041392D01*
X114959108Y-70075500D01*
X114959110Y-70075500D01*
X115090890Y-70075500D01*
X115090892Y-70075500D01*
X115218186Y-70041392D01*
X115332314Y-69975500D01*
X115425500Y-69882314D01*
X115491392Y-69768186D01*
X115525500Y-69640892D01*
X115525500Y-69509108D01*
X115491392Y-69381814D01*
X115425500Y-69267686D01*
X115332314Y-69174500D01*
X115275250Y-69141554D01*
X115218187Y-69108608D01*
X115154539Y-69091554D01*
X115090892Y-69074500D01*
X114959108Y-69074500D01*
X114831812Y-69108608D01*
X114717686Y-69174500D01*
X114717683Y-69174502D01*
X114624502Y-69267683D01*
X114624500Y-69267686D01*
X114558608Y-69381812D01*
X114524500Y-69509108D01*
X114094363Y-69509108D01*
X114082114Y-67254108D01*
X118439500Y-67254108D01*
X118439500Y-67385891D01*
X118473608Y-67513187D01*
X118506554Y-67570250D01*
X118539500Y-67627314D01*
X118632686Y-67720500D01*
X118746814Y-67786392D01*
X118874108Y-67820500D01*
X118874110Y-67820500D01*
X119005890Y-67820500D01*
X119005892Y-67820500D01*
X119133186Y-67786392D01*
X119247314Y-67720500D01*
X119258706Y-67709108D01*
X133274500Y-67709108D01*
X133274500Y-67840891D01*
X133308608Y-67968187D01*
X133341554Y-68025250D01*
X133374500Y-68082314D01*
X133467686Y-68175500D01*
X133581814Y-68241392D01*
X133709108Y-68275500D01*
X133709110Y-68275500D01*
X133840890Y-68275500D01*
X133840892Y-68275500D01*
X133968186Y-68241392D01*
X134082314Y-68175500D01*
X134175500Y-68082314D01*
X134241392Y-67968186D01*
X134275500Y-67840892D01*
X134275500Y-67709108D01*
X134241392Y-67581814D01*
X134175500Y-67467686D01*
X134082314Y-67374500D01*
X134025250Y-67341554D01*
X133968187Y-67308608D01*
X133904539Y-67291554D01*
X133840892Y-67274500D01*
X133709108Y-67274500D01*
X133581812Y-67308608D01*
X133467686Y-67374500D01*
X133467683Y-67374502D01*
X133374502Y-67467683D01*
X133374500Y-67467686D01*
X133308608Y-67581812D01*
X133274500Y-67709108D01*
X119258706Y-67709108D01*
X119340500Y-67627314D01*
X119406392Y-67513186D01*
X119440500Y-67385892D01*
X119440500Y-67254108D01*
X119406392Y-67126814D01*
X119340500Y-67012686D01*
X119336922Y-67009108D01*
X132024500Y-67009108D01*
X132024500Y-67140891D01*
X132058608Y-67268187D01*
X132062253Y-67274500D01*
X132124500Y-67382314D01*
X132217686Y-67475500D01*
X132331814Y-67541392D01*
X132459108Y-67575500D01*
X132459110Y-67575500D01*
X132590890Y-67575500D01*
X132590892Y-67575500D01*
X132718186Y-67541392D01*
X132832314Y-67475500D01*
X132925500Y-67382314D01*
X132991392Y-67268186D01*
X133025500Y-67140892D01*
X133025500Y-67009108D01*
X132991392Y-66881814D01*
X132925500Y-66767686D01*
X132832314Y-66674500D01*
X132775250Y-66641554D01*
X132718187Y-66608608D01*
X132654539Y-66591554D01*
X132590892Y-66574500D01*
X132459108Y-66574500D01*
X132331812Y-66608608D01*
X132217686Y-66674500D01*
X132217683Y-66674502D01*
X132124502Y-66767683D01*
X132124500Y-66767686D01*
X132058608Y-66881812D01*
X132024500Y-67009108D01*
X119336922Y-67009108D01*
X119247314Y-66919500D01*
X119182037Y-66881812D01*
X119133187Y-66853608D01*
X119069539Y-66836554D01*
X119005892Y-66819500D01*
X118874108Y-66819500D01*
X118746812Y-66853608D01*
X118632686Y-66919500D01*
X118632683Y-66919502D01*
X118539502Y-67012683D01*
X118539500Y-67012686D01*
X118473608Y-67126812D01*
X118439500Y-67254108D01*
X114082114Y-67254108D01*
X114077714Y-66444108D01*
X114609500Y-66444108D01*
X114609500Y-66575891D01*
X114643608Y-66703187D01*
X114676554Y-66760250D01*
X114709500Y-66817314D01*
X114802686Y-66910500D01*
X114916814Y-66976392D01*
X115044108Y-67010500D01*
X115044110Y-67010500D01*
X115175890Y-67010500D01*
X115175892Y-67010500D01*
X115303186Y-66976392D01*
X115417314Y-66910500D01*
X115510500Y-66817314D01*
X115576392Y-66703186D01*
X115610500Y-66575892D01*
X115610500Y-66444108D01*
X115576392Y-66316814D01*
X115510500Y-66202686D01*
X115417314Y-66109500D01*
X115360250Y-66076554D01*
X115303187Y-66043608D01*
X115239539Y-66026554D01*
X115175892Y-66009500D01*
X115044108Y-66009500D01*
X114916812Y-66043608D01*
X114802686Y-66109500D01*
X114802683Y-66109502D01*
X114709502Y-66202683D01*
X114709500Y-66202686D01*
X114643608Y-66316812D01*
X114609500Y-66444108D01*
X114077714Y-66444108D01*
X114070544Y-65124108D01*
X114479500Y-65124108D01*
X114479500Y-65255892D01*
X114482982Y-65268886D01*
X114513608Y-65383187D01*
X114528574Y-65409108D01*
X114579500Y-65497314D01*
X114672686Y-65590500D01*
X114786814Y-65656392D01*
X114914108Y-65690500D01*
X114914110Y-65690500D01*
X115045890Y-65690500D01*
X115045892Y-65690500D01*
X115173186Y-65656392D01*
X115287314Y-65590500D01*
X115380500Y-65497314D01*
X115446392Y-65383186D01*
X115466241Y-65309108D01*
X124974500Y-65309108D01*
X124974500Y-65440891D01*
X125008608Y-65568187D01*
X125021489Y-65590497D01*
X125074500Y-65682314D01*
X125167686Y-65775500D01*
X125281814Y-65841392D01*
X125409108Y-65875500D01*
X125409110Y-65875500D01*
X125540890Y-65875500D01*
X125540892Y-65875500D01*
X125668186Y-65841392D01*
X125782314Y-65775500D01*
X125875500Y-65682314D01*
X125941392Y-65568186D01*
X125975500Y-65440892D01*
X125975500Y-65409108D01*
X126274500Y-65409108D01*
X126274500Y-65540892D01*
X126287792Y-65590499D01*
X126308608Y-65668187D01*
X126316766Y-65682316D01*
X126374500Y-65782314D01*
X126467686Y-65875500D01*
X126581814Y-65941392D01*
X126709108Y-65975500D01*
X126709110Y-65975500D01*
X126840890Y-65975500D01*
X126840892Y-65975500D01*
X126968186Y-65941392D01*
X127082314Y-65875500D01*
X127175500Y-65782314D01*
X127241392Y-65668186D01*
X127275500Y-65540892D01*
X127275500Y-65409108D01*
X127262103Y-65359108D01*
X127574500Y-65359108D01*
X127574500Y-65490892D01*
X127587897Y-65540890D01*
X127608608Y-65618187D01*
X127630666Y-65656391D01*
X127674500Y-65732314D01*
X127767686Y-65825500D01*
X127881814Y-65891392D01*
X128009108Y-65925500D01*
X128009110Y-65925500D01*
X128140890Y-65925500D01*
X128140892Y-65925500D01*
X128268186Y-65891392D01*
X128382314Y-65825500D01*
X128475500Y-65732314D01*
X128541392Y-65618186D01*
X128575500Y-65490892D01*
X128575500Y-65359108D01*
X128541392Y-65231814D01*
X128475500Y-65117686D01*
X128382314Y-65024500D01*
X128325250Y-64991554D01*
X128268187Y-64958608D01*
X128204539Y-64941554D01*
X128140892Y-64924500D01*
X128009108Y-64924500D01*
X127881812Y-64958608D01*
X127767686Y-65024500D01*
X127767683Y-65024502D01*
X127674502Y-65117683D01*
X127674500Y-65117686D01*
X127608608Y-65231812D01*
X127590204Y-65300500D01*
X127574500Y-65359108D01*
X127262103Y-65359108D01*
X127241392Y-65281814D01*
X127175500Y-65167686D01*
X127082314Y-65074500D01*
X127025250Y-65041554D01*
X126968187Y-65008608D01*
X126904539Y-64991554D01*
X126840892Y-64974500D01*
X126709108Y-64974500D01*
X126581812Y-65008608D01*
X126467686Y-65074500D01*
X126467683Y-65074502D01*
X126374502Y-65167683D01*
X126374500Y-65167686D01*
X126308608Y-65281812D01*
X126301294Y-65309110D01*
X126274500Y-65409108D01*
X125975500Y-65409108D01*
X125975500Y-65309108D01*
X125941392Y-65181814D01*
X125875500Y-65067686D01*
X125782314Y-64974500D01*
X125695712Y-64924500D01*
X125668187Y-64908608D01*
X125604539Y-64891554D01*
X125540892Y-64874500D01*
X125409108Y-64874500D01*
X125281812Y-64908608D01*
X125167686Y-64974500D01*
X125167683Y-64974502D01*
X125074502Y-65067683D01*
X125074500Y-65067686D01*
X125008608Y-65181812D01*
X124974500Y-65309108D01*
X115466241Y-65309108D01*
X115480500Y-65255892D01*
X115480500Y-65124108D01*
X115446392Y-64996814D01*
X115380500Y-64882686D01*
X115287314Y-64789500D01*
X115230250Y-64756554D01*
X115173187Y-64723608D01*
X115109539Y-64706554D01*
X115045892Y-64689500D01*
X114914108Y-64689500D01*
X114786812Y-64723608D01*
X114672686Y-64789500D01*
X114672683Y-64789502D01*
X114579502Y-64882683D01*
X114579500Y-64882686D01*
X114513608Y-64996812D01*
X114506189Y-65024502D01*
X114479500Y-65124108D01*
X114070544Y-65124108D01*
X114058512Y-62909108D01*
X119874500Y-62909108D01*
X119874500Y-63040891D01*
X119908608Y-63168187D01*
X119941554Y-63225250D01*
X119974500Y-63282314D01*
X120067686Y-63375500D01*
X120181814Y-63441392D01*
X120309108Y-63475500D01*
X120309110Y-63475500D01*
X120440890Y-63475500D01*
X120440892Y-63475500D01*
X120568186Y-63441392D01*
X120682314Y-63375500D01*
X120775500Y-63282314D01*
X120841392Y-63168186D01*
X120875500Y-63040892D01*
X120875500Y-62909108D01*
X120841392Y-62781814D01*
X120775500Y-62667686D01*
X120682314Y-62574500D01*
X120625250Y-62541554D01*
X120568187Y-62508608D01*
X120514071Y-62494108D01*
X131959500Y-62494108D01*
X131959500Y-62625891D01*
X131993608Y-62753187D01*
X132010135Y-62781812D01*
X132059500Y-62867314D01*
X132152686Y-62960500D01*
X132266814Y-63026392D01*
X132394108Y-63060500D01*
X132394110Y-63060500D01*
X132525890Y-63060500D01*
X132525892Y-63060500D01*
X132653186Y-63026392D01*
X132767314Y-62960500D01*
X132860500Y-62867314D01*
X132926392Y-62753186D01*
X132960500Y-62625892D01*
X132960500Y-62494108D01*
X132926392Y-62366814D01*
X132860500Y-62252686D01*
X132767314Y-62159500D01*
X132710250Y-62126554D01*
X132653187Y-62093608D01*
X132589539Y-62076554D01*
X132525892Y-62059500D01*
X132394108Y-62059500D01*
X132266812Y-62093608D01*
X132152686Y-62159500D01*
X132152683Y-62159502D01*
X132059502Y-62252683D01*
X132059500Y-62252686D01*
X131993608Y-62366812D01*
X131959500Y-62494108D01*
X120514071Y-62494108D01*
X120504539Y-62491554D01*
X120440892Y-62474500D01*
X120309108Y-62474500D01*
X120181812Y-62508608D01*
X120067686Y-62574500D01*
X120067683Y-62574502D01*
X119974502Y-62667683D01*
X119974500Y-62667686D01*
X119908608Y-62781812D01*
X119874500Y-62909108D01*
X114058512Y-62909108D01*
X114050826Y-61494108D01*
X139059500Y-61494108D01*
X139059500Y-61625891D01*
X139093608Y-61753187D01*
X139126554Y-61810250D01*
X139159500Y-61867314D01*
X139252686Y-61960500D01*
X139366814Y-62026392D01*
X139494108Y-62060500D01*
X139494110Y-62060500D01*
X139625890Y-62060500D01*
X139625892Y-62060500D01*
X139753186Y-62026392D01*
X139867314Y-61960500D01*
X139960500Y-61867314D01*
X140026392Y-61753186D01*
X140060500Y-61625892D01*
X140060500Y-61494108D01*
X140026392Y-61366814D01*
X139960500Y-61252686D01*
X139867314Y-61159500D01*
X139810250Y-61126554D01*
X139753187Y-61093608D01*
X139689539Y-61076554D01*
X139625892Y-61059500D01*
X139494108Y-61059500D01*
X139366812Y-61093608D01*
X139252686Y-61159500D01*
X139252683Y-61159502D01*
X139159502Y-61252683D01*
X139159500Y-61252686D01*
X139093608Y-61366812D01*
X139059500Y-61494108D01*
X114050826Y-61494108D01*
X114042216Y-59909108D01*
X124974500Y-59909108D01*
X124974500Y-60040891D01*
X125008608Y-60168187D01*
X125041554Y-60225250D01*
X125074500Y-60282314D01*
X125167686Y-60375500D01*
X125281814Y-60441392D01*
X125409108Y-60475500D01*
X125409110Y-60475500D01*
X125540890Y-60475500D01*
X125540892Y-60475500D01*
X125668186Y-60441392D01*
X125782314Y-60375500D01*
X125875500Y-60282314D01*
X125941392Y-60168186D01*
X125975500Y-60040892D01*
X125975500Y-59909108D01*
X126274500Y-59909108D01*
X126274500Y-60040891D01*
X126308608Y-60168187D01*
X126341554Y-60225250D01*
X126374500Y-60282314D01*
X126467686Y-60375500D01*
X126581814Y-60441392D01*
X126709108Y-60475500D01*
X126709110Y-60475500D01*
X126840890Y-60475500D01*
X126840892Y-60475500D01*
X126968186Y-60441392D01*
X127082314Y-60375500D01*
X127175500Y-60282314D01*
X127241392Y-60168186D01*
X127275500Y-60040892D01*
X127275500Y-59909108D01*
X127262103Y-59859108D01*
X127524500Y-59859108D01*
X127524500Y-59990891D01*
X127558608Y-60118187D01*
X127587476Y-60168186D01*
X127624500Y-60232314D01*
X127717686Y-60325500D01*
X127831814Y-60391392D01*
X127959108Y-60425500D01*
X127959110Y-60425500D01*
X128090890Y-60425500D01*
X128090892Y-60425500D01*
X128218186Y-60391392D01*
X128332314Y-60325500D01*
X128425500Y-60232314D01*
X128491392Y-60118186D01*
X128525500Y-59990892D01*
X128525500Y-59859108D01*
X128491392Y-59731814D01*
X128425500Y-59617686D01*
X128332314Y-59524500D01*
X128245712Y-59474500D01*
X128218187Y-59458608D01*
X128154539Y-59441554D01*
X128090892Y-59424500D01*
X127959108Y-59424500D01*
X127831812Y-59458608D01*
X127717686Y-59524500D01*
X127717683Y-59524502D01*
X127624502Y-59617683D01*
X127624500Y-59617686D01*
X127558608Y-59731812D01*
X127524500Y-59859108D01*
X127262103Y-59859108D01*
X127241392Y-59781814D01*
X127175500Y-59667686D01*
X127082314Y-59574500D01*
X127025250Y-59541554D01*
X126968187Y-59508608D01*
X126904539Y-59491554D01*
X126840892Y-59474500D01*
X126709108Y-59474500D01*
X126581812Y-59508608D01*
X126467686Y-59574500D01*
X126467683Y-59574502D01*
X126374502Y-59667683D01*
X126374500Y-59667686D01*
X126308608Y-59781812D01*
X126274500Y-59909108D01*
X125975500Y-59909108D01*
X125941392Y-59781814D01*
X125875500Y-59667686D01*
X125782314Y-59574500D01*
X125725250Y-59541554D01*
X125668187Y-59508608D01*
X125604539Y-59491554D01*
X125540892Y-59474500D01*
X125409108Y-59474500D01*
X125281812Y-59508608D01*
X125167686Y-59574500D01*
X125167683Y-59574502D01*
X125074502Y-59667683D01*
X125074500Y-59667686D01*
X125008608Y-59781812D01*
X124974500Y-59909108D01*
X114042216Y-59909108D01*
X114035345Y-58644108D01*
X114789500Y-58644108D01*
X114789500Y-58775891D01*
X114823608Y-58903187D01*
X114856554Y-58960250D01*
X114889500Y-59017314D01*
X114982686Y-59110500D01*
X115096814Y-59176392D01*
X115224108Y-59210500D01*
X115224110Y-59210500D01*
X115355890Y-59210500D01*
X115355892Y-59210500D01*
X115483186Y-59176392D01*
X115597314Y-59110500D01*
X115690500Y-59017314D01*
X115756392Y-58903186D01*
X115790500Y-58775892D01*
X115790500Y-58644108D01*
X115756392Y-58516814D01*
X115690500Y-58402686D01*
X115597314Y-58309500D01*
X115540250Y-58276554D01*
X115483187Y-58243608D01*
X115419539Y-58226554D01*
X115355892Y-58209500D01*
X115224108Y-58209500D01*
X115096812Y-58243608D01*
X114982686Y-58309500D01*
X114982683Y-58309502D01*
X114889502Y-58402683D01*
X114889500Y-58402686D01*
X114823608Y-58516812D01*
X114789500Y-58644108D01*
X114035345Y-58644108D01*
X114030675Y-57784322D01*
X114049995Y-57717178D01*
X114102550Y-57671137D01*
X114154320Y-57659650D01*
X144952956Y-57573173D01*
X145020048Y-57592670D01*
G37*
%TD.AperFunction*%
%TD*%
%TA.AperFunction,Conductor*%
%TO.N,+5V*%
G36*
X142867702Y-44791151D02*
G01*
X143269201Y-44808681D01*
X143279936Y-44809621D01*
X143675690Y-44861723D01*
X143686328Y-44863598D01*
X144076044Y-44949997D01*
X144086469Y-44952791D01*
X144467173Y-45072826D01*
X144477308Y-45076515D01*
X144846095Y-45229273D01*
X144855886Y-45233839D01*
X145209946Y-45418151D01*
X145219297Y-45423550D01*
X145555948Y-45638022D01*
X145564797Y-45644217D01*
X145881488Y-45887224D01*
X145889751Y-45894158D01*
X146184040Y-46163825D01*
X146191687Y-46171472D01*
X146461356Y-46465767D01*
X146468309Y-46474054D01*
X146711289Y-46790714D01*
X146717494Y-46799575D01*
X146931959Y-47136219D01*
X146937368Y-47145588D01*
X147121675Y-47499644D01*
X147126246Y-47509448D01*
X147278988Y-47878206D01*
X147282688Y-47888371D01*
X147389475Y-48227062D01*
X147394395Y-48242667D01*
X147402713Y-48269047D01*
X147405513Y-48279496D01*
X147491904Y-48669192D01*
X147493782Y-48679845D01*
X147507182Y-48781630D01*
X147527255Y-48934110D01*
X147545879Y-49075574D01*
X147546822Y-49086351D01*
X147564381Y-49488611D01*
X147564499Y-49494017D01*
X147564499Y-49518347D01*
X147564499Y-49538127D01*
X147564499Y-49538128D01*
X147564500Y-49552563D01*
X147564500Y-96602293D01*
X147564382Y-96607702D01*
X147546853Y-97009181D01*
X147545910Y-97019957D01*
X147493811Y-97415685D01*
X147491933Y-97426339D01*
X147405538Y-97816039D01*
X147402738Y-97826487D01*
X147282713Y-98207159D01*
X147279013Y-98217325D01*
X147126263Y-98586096D01*
X147121691Y-98595900D01*
X146937388Y-98949942D01*
X146931980Y-98959310D01*
X146717511Y-99295959D01*
X146711306Y-99304820D01*
X146468319Y-99621487D01*
X146461365Y-99629774D01*
X146191705Y-99924056D01*
X146184056Y-99931705D01*
X145889774Y-100201365D01*
X145881487Y-100208319D01*
X145564820Y-100451306D01*
X145555959Y-100457511D01*
X145219310Y-100671980D01*
X145209942Y-100677388D01*
X144855900Y-100861691D01*
X144846096Y-100866263D01*
X144477325Y-101019013D01*
X144467159Y-101022713D01*
X144086487Y-101142738D01*
X144076039Y-101145538D01*
X143686339Y-101231933D01*
X143675685Y-101233811D01*
X143279957Y-101285910D01*
X143269181Y-101286853D01*
X142867703Y-101304382D01*
X142862294Y-101304500D01*
X112577706Y-101304500D01*
X112572297Y-101304382D01*
X112170818Y-101286853D01*
X112160042Y-101285910D01*
X111764314Y-101233811D01*
X111753660Y-101231933D01*
X111363960Y-101145538D01*
X111353512Y-101142738D01*
X110972840Y-101022713D01*
X110962674Y-101019013D01*
X110593903Y-100866263D01*
X110584099Y-100861691D01*
X110230057Y-100677388D01*
X110220689Y-100671980D01*
X109884040Y-100457511D01*
X109875179Y-100451306D01*
X109558512Y-100208319D01*
X109550225Y-100201365D01*
X109255943Y-99931705D01*
X109248294Y-99924056D01*
X108978634Y-99629774D01*
X108971680Y-99621487D01*
X108728693Y-99304820D01*
X108722488Y-99295959D01*
X108508019Y-98959310D01*
X108502611Y-98949942D01*
X108375637Y-98706028D01*
X108318305Y-98595893D01*
X108313736Y-98586096D01*
X108160982Y-98217315D01*
X108157286Y-98207159D01*
X108150509Y-98185666D01*
X108037260Y-97826483D01*
X108034461Y-97816039D01*
X108007932Y-97696377D01*
X107992628Y-97627344D01*
X108484500Y-97627344D01*
X108484500Y-97902679D01*
X108484501Y-97902696D01*
X108520438Y-98175667D01*
X108520439Y-98175672D01*
X108520440Y-98175678D01*
X108556072Y-98308661D01*
X108591704Y-98441642D01*
X108697075Y-98696029D01*
X108697080Y-98696040D01*
X108779861Y-98839419D01*
X108834751Y-98934491D01*
X108834753Y-98934494D01*
X108834754Y-98934495D01*
X109002370Y-99152938D01*
X109002376Y-99152945D01*
X109197066Y-99347635D01*
X109197073Y-99347641D01*
X109210090Y-99357629D01*
X109415521Y-99515261D01*
X109568778Y-99603744D01*
X109653971Y-99652931D01*
X109653976Y-99652933D01*
X109653979Y-99652935D01*
X109908368Y-99758307D01*
X110174334Y-99829572D01*
X110447326Y-99865512D01*
X110447333Y-99865512D01*
X110722667Y-99865512D01*
X110722674Y-99865512D01*
X110995666Y-99829572D01*
X111261632Y-99758307D01*
X111516021Y-99652935D01*
X111754479Y-99515261D01*
X111972928Y-99347640D01*
X112167628Y-99152940D01*
X112335249Y-98934491D01*
X112472923Y-98696033D01*
X112578295Y-98441644D01*
X112649560Y-98175678D01*
X112685500Y-97902686D01*
X112685500Y-97627338D01*
X112649560Y-97354346D01*
X112578295Y-97088380D01*
X112472923Y-96833991D01*
X112472921Y-96833988D01*
X112472919Y-96833983D01*
X112399785Y-96707313D01*
X112335249Y-96595533D01*
X112310042Y-96562683D01*
X112297592Y-96546457D01*
X112243404Y-96475837D01*
X119669500Y-96475837D01*
X119669500Y-96704162D01*
X119705215Y-96929660D01*
X119775770Y-97146803D01*
X119872371Y-97336391D01*
X119879421Y-97350228D01*
X120013621Y-97534937D01*
X120175063Y-97696379D01*
X120359772Y-97830579D01*
X120455884Y-97879550D01*
X120563196Y-97934229D01*
X120563198Y-97934229D01*
X120563201Y-97934231D01*
X120679592Y-97972049D01*
X120780339Y-98004784D01*
X121005838Y-98040500D01*
X121005843Y-98040500D01*
X122234162Y-98040500D01*
X122459660Y-98004784D01*
X122676799Y-97934231D01*
X122880228Y-97830579D01*
X123064937Y-97696379D01*
X123226379Y-97534937D01*
X123360579Y-97350228D01*
X123464231Y-97146799D01*
X123534784Y-96929660D01*
X123570500Y-96704162D01*
X123570500Y-96475837D01*
X123549837Y-96345379D01*
X123548052Y-96334108D01*
X125799500Y-96334108D01*
X125799500Y-96465892D01*
X125816554Y-96529539D01*
X125833608Y-96593187D01*
X125866554Y-96650250D01*
X125899500Y-96707314D01*
X125992686Y-96800500D01*
X126106814Y-96866392D01*
X126234108Y-96900500D01*
X126234110Y-96900500D01*
X126365890Y-96900500D01*
X126365892Y-96900500D01*
X126493186Y-96866392D01*
X126607314Y-96800500D01*
X126700500Y-96707314D01*
X126766392Y-96593186D01*
X126797835Y-96475837D01*
X129669500Y-96475837D01*
X129669500Y-96704162D01*
X129705215Y-96929660D01*
X129775770Y-97146803D01*
X129872371Y-97336391D01*
X129879421Y-97350228D01*
X130013621Y-97534937D01*
X130175063Y-97696379D01*
X130359772Y-97830579D01*
X130455884Y-97879550D01*
X130563196Y-97934229D01*
X130563198Y-97934229D01*
X130563201Y-97934231D01*
X130679592Y-97972049D01*
X130780339Y-98004784D01*
X131005838Y-98040500D01*
X131005843Y-98040500D01*
X132234162Y-98040500D01*
X132459660Y-98004784D01*
X132676799Y-97934231D01*
X132880228Y-97830579D01*
X133064937Y-97696379D01*
X133123984Y-97637332D01*
X142449500Y-97637332D01*
X142449500Y-97912667D01*
X142449501Y-97912684D01*
X142485438Y-98185655D01*
X142485439Y-98185660D01*
X142485440Y-98185666D01*
X142485441Y-98185668D01*
X142556704Y-98451630D01*
X142662075Y-98706017D01*
X142662080Y-98706028D01*
X142744861Y-98849407D01*
X142799751Y-98944479D01*
X142799753Y-98944482D01*
X142799754Y-98944483D01*
X142967370Y-99162926D01*
X142967376Y-99162933D01*
X143162066Y-99357623D01*
X143162072Y-99357628D01*
X143380521Y-99525249D01*
X143533778Y-99613732D01*
X143618971Y-99662919D01*
X143618976Y-99662921D01*
X143618979Y-99662923D01*
X143873368Y-99768295D01*
X144139334Y-99839560D01*
X144412326Y-99875500D01*
X144412333Y-99875500D01*
X144687667Y-99875500D01*
X144687674Y-99875500D01*
X144960666Y-99839560D01*
X145226632Y-99768295D01*
X145481021Y-99662923D01*
X145719479Y-99525249D01*
X145937928Y-99357628D01*
X146132628Y-99162928D01*
X146300249Y-98944479D01*
X146437923Y-98706021D01*
X146543295Y-98451632D01*
X146614560Y-98185666D01*
X146650500Y-97912674D01*
X146650500Y-97637326D01*
X146614560Y-97364334D01*
X146543295Y-97098368D01*
X146437923Y-96843979D01*
X146437921Y-96843976D01*
X146437919Y-96843971D01*
X146359019Y-96707314D01*
X146300249Y-96605521D01*
X146200744Y-96475843D01*
X146132629Y-96387073D01*
X146132623Y-96387066D01*
X145937933Y-96192376D01*
X145937926Y-96192370D01*
X145719483Y-96024754D01*
X145719482Y-96024753D01*
X145719479Y-96024751D01*
X145624407Y-95969861D01*
X145481028Y-95887080D01*
X145481017Y-95887075D01*
X145226630Y-95781704D01*
X145093649Y-95746072D01*
X144960666Y-95710440D01*
X144960660Y-95710439D01*
X144960655Y-95710438D01*
X144687684Y-95674501D01*
X144687679Y-95674500D01*
X144687674Y-95674500D01*
X144412326Y-95674500D01*
X144412320Y-95674500D01*
X144412315Y-95674501D01*
X144139344Y-95710438D01*
X144139337Y-95710439D01*
X144139334Y-95710440D01*
X144083125Y-95725500D01*
X143873369Y-95781704D01*
X143618982Y-95887075D01*
X143618971Y-95887080D01*
X143380516Y-96024754D01*
X143162073Y-96192370D01*
X143162066Y-96192376D01*
X142967376Y-96387066D01*
X142967370Y-96387073D01*
X142799754Y-96605516D01*
X142662080Y-96843971D01*
X142662075Y-96843982D01*
X142556704Y-97098369D01*
X142485441Y-97364331D01*
X142485438Y-97364344D01*
X142449501Y-97637315D01*
X142449500Y-97637332D01*
X133123984Y-97637332D01*
X133226379Y-97534937D01*
X133360579Y-97350228D01*
X133464231Y-97146799D01*
X133534784Y-96929660D01*
X133548354Y-96843982D01*
X133554670Y-96804108D01*
X133919500Y-96804108D01*
X133919500Y-96935891D01*
X133953608Y-97063187D01*
X133968154Y-97088381D01*
X134019500Y-97177314D01*
X134112686Y-97270500D01*
X134226814Y-97336392D01*
X134354108Y-97370500D01*
X134354110Y-97370500D01*
X134485890Y-97370500D01*
X134485892Y-97370500D01*
X134613186Y-97336392D01*
X134727314Y-97270500D01*
X134820500Y-97177314D01*
X134886392Y-97063186D01*
X134920500Y-96935892D01*
X134920500Y-96804108D01*
X134886392Y-96676814D01*
X134820500Y-96562686D01*
X134727314Y-96469500D01*
X134670250Y-96436554D01*
X134613187Y-96403608D01*
X134549539Y-96386554D01*
X134485892Y-96369500D01*
X134354108Y-96369500D01*
X134226812Y-96403608D01*
X134112686Y-96469500D01*
X134112683Y-96469502D01*
X134019502Y-96562683D01*
X134019500Y-96562686D01*
X133953608Y-96676812D01*
X133919500Y-96804108D01*
X133554670Y-96804108D01*
X133559030Y-96776582D01*
X133559030Y-96776580D01*
X133570500Y-96704163D01*
X133570500Y-96475837D01*
X133534784Y-96250339D01*
X133464229Y-96033196D01*
X133389776Y-95887075D01*
X133360579Y-95829772D01*
X133226379Y-95645063D01*
X133064937Y-95483621D01*
X132880228Y-95349421D01*
X132676803Y-95245770D01*
X132459660Y-95175215D01*
X132234162Y-95139500D01*
X132234157Y-95139500D01*
X131005843Y-95139500D01*
X131005838Y-95139500D01*
X130780339Y-95175215D01*
X130563196Y-95245770D01*
X130359771Y-95349421D01*
X130175061Y-95483622D01*
X130013622Y-95645061D01*
X129879421Y-95829771D01*
X129775770Y-96033196D01*
X129705215Y-96250339D01*
X129669500Y-96475837D01*
X126797835Y-96475837D01*
X126800500Y-96465892D01*
X126800500Y-96334108D01*
X126766392Y-96206814D01*
X126700500Y-96092686D01*
X126607314Y-95999500D01*
X126550250Y-95966554D01*
X126493187Y-95933608D01*
X126429539Y-95916554D01*
X126365892Y-95899500D01*
X126234108Y-95899500D01*
X126106812Y-95933608D01*
X125992686Y-95999500D01*
X125992683Y-95999502D01*
X125899502Y-96092683D01*
X125899500Y-96092686D01*
X125833608Y-96206812D01*
X125821945Y-96250340D01*
X125799500Y-96334108D01*
X123548052Y-96334108D01*
X123534784Y-96250339D01*
X123464229Y-96033196D01*
X123389776Y-95887075D01*
X123360579Y-95829772D01*
X123226379Y-95645063D01*
X123064937Y-95483621D01*
X122880228Y-95349421D01*
X122676803Y-95245770D01*
X122459660Y-95175215D01*
X122234162Y-95139500D01*
X122234157Y-95139500D01*
X121005843Y-95139500D01*
X121005838Y-95139500D01*
X120780339Y-95175215D01*
X120563196Y-95245770D01*
X120359771Y-95349421D01*
X120175061Y-95483622D01*
X120013622Y-95645061D01*
X119879421Y-95829771D01*
X119775770Y-96033196D01*
X119705215Y-96250339D01*
X119669500Y-96475837D01*
X112243404Y-96475837D01*
X112167629Y-96377085D01*
X112167623Y-96377078D01*
X111972933Y-96182388D01*
X111972926Y-96182382D01*
X111754483Y-96014766D01*
X111754482Y-96014765D01*
X111754479Y-96014763D01*
X111613915Y-95933608D01*
X111516028Y-95877092D01*
X111516017Y-95877087D01*
X111261630Y-95771716D01*
X111128649Y-95736084D01*
X110995666Y-95700452D01*
X110995660Y-95700451D01*
X110995655Y-95700450D01*
X110722684Y-95664513D01*
X110722679Y-95664512D01*
X110722674Y-95664512D01*
X110447326Y-95664512D01*
X110447320Y-95664512D01*
X110447315Y-95664513D01*
X110174344Y-95700450D01*
X110174337Y-95700451D01*
X110174334Y-95700452D01*
X110118125Y-95715512D01*
X109908369Y-95771716D01*
X109653982Y-95877087D01*
X109653971Y-95877092D01*
X109415516Y-96014766D01*
X109197073Y-96182382D01*
X109197066Y-96182388D01*
X109002376Y-96377078D01*
X109002370Y-96377085D01*
X108834754Y-96595528D01*
X108697080Y-96833983D01*
X108697075Y-96833994D01*
X108591704Y-97088381D01*
X108545400Y-97261193D01*
X108521544Y-97350228D01*
X108520441Y-97354343D01*
X108520438Y-97354356D01*
X108484501Y-97627327D01*
X108484500Y-97627344D01*
X107992628Y-97627344D01*
X107948064Y-97426331D01*
X107946188Y-97415685D01*
X107894087Y-97019937D01*
X107893147Y-97009202D01*
X107875618Y-96607702D01*
X107875500Y-96602293D01*
X107875500Y-92880247D01*
X108619500Y-92880247D01*
X108619500Y-94619752D01*
X108631131Y-94678229D01*
X108631132Y-94678230D01*
X108675447Y-94744552D01*
X108741769Y-94788867D01*
X108741770Y-94788868D01*
X108800247Y-94800499D01*
X108800250Y-94800500D01*
X108800252Y-94800500D01*
X110539750Y-94800500D01*
X110539751Y-94800499D01*
X110554568Y-94797552D01*
X110598229Y-94788868D01*
X110598229Y-94788867D01*
X110598231Y-94788867D01*
X110664552Y-94744552D01*
X110708867Y-94678231D01*
X110708867Y-94678229D01*
X110708868Y-94678229D01*
X110720499Y-94619752D01*
X110720500Y-94619750D01*
X110720500Y-92880249D01*
X110720499Y-92880247D01*
X110708868Y-92821770D01*
X110708867Y-92821769D01*
X110664552Y-92755447D01*
X110598230Y-92711132D01*
X110598229Y-92711131D01*
X110539752Y-92699500D01*
X110539748Y-92699500D01*
X108800252Y-92699500D01*
X108800247Y-92699500D01*
X108741770Y-92711131D01*
X108741769Y-92711132D01*
X108675447Y-92755447D01*
X108631132Y-92821769D01*
X108631131Y-92821770D01*
X108619500Y-92880247D01*
X107875500Y-92880247D01*
X107875500Y-88563753D01*
X108320000Y-88563753D01*
X108320000Y-88776246D01*
X108353242Y-88986127D01*
X108353242Y-88986130D01*
X108418904Y-89188217D01*
X108515375Y-89377550D01*
X108554728Y-89431716D01*
X109187037Y-88799408D01*
X109204075Y-88862993D01*
X109269901Y-88977007D01*
X109362993Y-89070099D01*
X109477007Y-89135925D01*
X109540590Y-89152962D01*
X108908282Y-89785269D01*
X108908282Y-89785270D01*
X108962449Y-89824624D01*
X109151782Y-89921095D01*
X109327973Y-89978343D01*
X109385648Y-90017780D01*
X109412847Y-90082139D01*
X109400932Y-90150985D01*
X109353688Y-90202461D01*
X109337108Y-90210835D01*
X109172403Y-90279057D01*
X109000342Y-90394024D01*
X108854024Y-90540342D01*
X108739058Y-90712403D01*
X108659870Y-90903579D01*
X108659868Y-90903587D01*
X108619500Y-91106530D01*
X108619500Y-91313469D01*
X108659868Y-91516412D01*
X108659870Y-91516420D01*
X108739058Y-91707596D01*
X108854024Y-91879657D01*
X109000342Y-92025975D01*
X109000345Y-92025977D01*
X109172402Y-92140941D01*
X109363580Y-92220130D01*
X109566530Y-92260499D01*
X109566534Y-92260500D01*
X109566535Y-92260500D01*
X109773466Y-92260500D01*
X109773467Y-92260499D01*
X109976420Y-92220130D01*
X110167598Y-92140941D01*
X110177824Y-92134108D01*
X133949500Y-92134108D01*
X133949500Y-92265891D01*
X133983608Y-92393187D01*
X134016554Y-92450250D01*
X134049500Y-92507314D01*
X134142686Y-92600500D01*
X134256814Y-92666392D01*
X134384108Y-92700500D01*
X134384110Y-92700500D01*
X134515890Y-92700500D01*
X134515892Y-92700500D01*
X134643186Y-92666392D01*
X134757314Y-92600500D01*
X134850500Y-92507314D01*
X134916392Y-92393186D01*
X134950500Y-92265892D01*
X134950500Y-92134108D01*
X134916392Y-92006814D01*
X134850500Y-91892686D01*
X134757314Y-91799500D01*
X134700250Y-91766554D01*
X134643187Y-91733608D01*
X134546114Y-91707598D01*
X134515892Y-91699500D01*
X134384108Y-91699500D01*
X134256812Y-91733608D01*
X134142686Y-91799500D01*
X134142683Y-91799502D01*
X134049502Y-91892683D01*
X134049500Y-91892686D01*
X133983608Y-92006812D01*
X133949500Y-92134108D01*
X110177824Y-92134108D01*
X110339655Y-92025977D01*
X110485977Y-91879655D01*
X110600941Y-91707598D01*
X110680130Y-91516420D01*
X110720500Y-91313465D01*
X110720500Y-91106535D01*
X110680130Y-90903580D01*
X110636577Y-90798434D01*
X110620288Y-90759108D01*
X135824500Y-90759108D01*
X135824500Y-90890892D01*
X135827900Y-90903580D01*
X135858608Y-91018187D01*
X135891554Y-91075250D01*
X135924500Y-91132314D01*
X136017686Y-91225500D01*
X136131814Y-91291392D01*
X136259108Y-91325500D01*
X136259110Y-91325500D01*
X136390890Y-91325500D01*
X136390892Y-91325500D01*
X136518186Y-91291392D01*
X136632314Y-91225500D01*
X136725500Y-91132314D01*
X136791392Y-91018186D01*
X136825500Y-90890892D01*
X136825500Y-90759108D01*
X137574500Y-90759108D01*
X137574500Y-90890892D01*
X137577900Y-90903580D01*
X137608608Y-91018187D01*
X137641554Y-91075250D01*
X137674500Y-91132314D01*
X137767686Y-91225500D01*
X137881814Y-91291392D01*
X138009108Y-91325500D01*
X138009110Y-91325500D01*
X138140890Y-91325500D01*
X138140892Y-91325500D01*
X138268186Y-91291392D01*
X138382314Y-91225500D01*
X138475500Y-91132314D01*
X138541392Y-91018186D01*
X138575500Y-90890892D01*
X138575500Y-90759108D01*
X138541392Y-90631814D01*
X138475500Y-90517686D01*
X138382314Y-90424500D01*
X138325250Y-90391554D01*
X138268187Y-90358608D01*
X138204539Y-90341554D01*
X138140892Y-90324500D01*
X138009108Y-90324500D01*
X137881812Y-90358608D01*
X137767686Y-90424500D01*
X137767683Y-90424502D01*
X137674502Y-90517683D01*
X137674500Y-90517686D01*
X137608608Y-90631812D01*
X137587015Y-90712402D01*
X137574500Y-90759108D01*
X136825500Y-90759108D01*
X136791392Y-90631814D01*
X136725500Y-90517686D01*
X136632314Y-90424500D01*
X136575250Y-90391554D01*
X136518187Y-90358608D01*
X136454539Y-90341554D01*
X136390892Y-90324500D01*
X136259108Y-90324500D01*
X136131812Y-90358608D01*
X136017686Y-90424500D01*
X136017683Y-90424502D01*
X135924502Y-90517683D01*
X135924500Y-90517686D01*
X135858608Y-90631812D01*
X135837015Y-90712402D01*
X135824500Y-90759108D01*
X110620288Y-90759108D01*
X110600942Y-90712403D01*
X110485975Y-90540342D01*
X110339657Y-90394024D01*
X110235606Y-90324500D01*
X110167598Y-90279059D01*
X110167593Y-90279057D01*
X110105891Y-90253499D01*
X110002890Y-90210834D01*
X109948488Y-90166994D01*
X109926423Y-90100700D01*
X109943702Y-90033001D01*
X109994839Y-89985390D01*
X110012026Y-89978343D01*
X110188217Y-89921095D01*
X110377554Y-89824622D01*
X110431716Y-89785270D01*
X110431717Y-89785270D01*
X109799408Y-89152962D01*
X109862993Y-89135925D01*
X109977007Y-89070099D01*
X110070099Y-88977007D01*
X110135925Y-88862993D01*
X110152962Y-88799408D01*
X110785270Y-89431717D01*
X110785270Y-89431716D01*
X110824622Y-89377554D01*
X110921095Y-89188217D01*
X110986757Y-88986130D01*
X110986757Y-88986129D01*
X110994997Y-88934108D01*
X129449500Y-88934108D01*
X129449500Y-89065892D01*
X129466554Y-89129539D01*
X129483608Y-89193187D01*
X129516554Y-89250250D01*
X129549500Y-89307314D01*
X129642686Y-89400500D01*
X129756814Y-89466392D01*
X129884108Y-89500500D01*
X129884110Y-89500500D01*
X130015890Y-89500500D01*
X130015892Y-89500500D01*
X130143186Y-89466392D01*
X130257314Y-89400500D01*
X130350500Y-89307314D01*
X130416392Y-89193186D01*
X130450500Y-89065892D01*
X130450500Y-88934108D01*
X130416392Y-88806814D01*
X130350500Y-88692686D01*
X130257314Y-88599500D01*
X130195399Y-88563753D01*
X130143187Y-88533608D01*
X130079539Y-88516554D01*
X130015892Y-88499500D01*
X129884108Y-88499500D01*
X129756812Y-88533608D01*
X129642686Y-88599500D01*
X129642683Y-88599502D01*
X129549502Y-88692683D01*
X129549500Y-88692686D01*
X129483608Y-88806812D01*
X129468555Y-88862993D01*
X129449500Y-88934108D01*
X110994997Y-88934108D01*
X110999357Y-88906582D01*
X110999357Y-88906581D01*
X111020000Y-88776246D01*
X111020000Y-88563753D01*
X110986757Y-88353872D01*
X110986757Y-88353869D01*
X110921095Y-88151782D01*
X110824624Y-87962449D01*
X110785270Y-87908282D01*
X110785269Y-87908282D01*
X110152962Y-88540590D01*
X110135925Y-88477007D01*
X110070099Y-88362993D01*
X109977007Y-88269901D01*
X109862993Y-88204075D01*
X109799409Y-88187037D01*
X110431716Y-87554728D01*
X110377550Y-87515375D01*
X110188216Y-87418904D01*
X110012026Y-87361656D01*
X109954350Y-87322218D01*
X109927152Y-87257860D01*
X109939067Y-87189013D01*
X109986311Y-87137538D01*
X110002882Y-87129168D01*
X110167598Y-87060941D01*
X110339655Y-86945977D01*
X110485977Y-86799655D01*
X110513069Y-86759108D01*
X115899500Y-86759108D01*
X115899500Y-86890892D01*
X115902905Y-86903600D01*
X115933608Y-87018187D01*
X115958293Y-87060941D01*
X115999500Y-87132314D01*
X116092686Y-87225500D01*
X116206814Y-87291392D01*
X116334108Y-87325500D01*
X116334110Y-87325500D01*
X116465890Y-87325500D01*
X116465892Y-87325500D01*
X116593186Y-87291392D01*
X116707314Y-87225500D01*
X116800500Y-87132314D01*
X116866392Y-87018186D01*
X116900500Y-86890892D01*
X116900500Y-86759108D01*
X116866392Y-86631814D01*
X116800500Y-86517686D01*
X116707314Y-86424500D01*
X116659079Y-86396651D01*
X116593187Y-86358608D01*
X116501757Y-86334110D01*
X116501750Y-86334108D01*
X122949500Y-86334108D01*
X122949500Y-86465891D01*
X122983608Y-86593187D01*
X123003476Y-86627598D01*
X123049500Y-86707314D01*
X123142686Y-86800500D01*
X123256814Y-86866392D01*
X123384108Y-86900500D01*
X123384110Y-86900500D01*
X123524019Y-86900500D01*
X123524019Y-86903600D01*
X123578540Y-86912085D01*
X123630810Y-86958449D01*
X123649716Y-87025712D01*
X123649500Y-87028745D01*
X123649500Y-87034108D01*
X123649500Y-87165892D01*
X123665472Y-87225500D01*
X123683608Y-87293187D01*
X123707387Y-87334372D01*
X123749500Y-87407314D01*
X123842686Y-87500500D01*
X123956814Y-87566392D01*
X124084108Y-87600500D01*
X124084110Y-87600500D01*
X124215890Y-87600500D01*
X124215892Y-87600500D01*
X124343186Y-87566392D01*
X124457314Y-87500500D01*
X124550500Y-87407314D01*
X124592613Y-87334371D01*
X124643180Y-87286156D01*
X124711787Y-87272933D01*
X124776652Y-87298901D01*
X124807386Y-87334371D01*
X124849500Y-87407314D01*
X124942686Y-87500500D01*
X125056814Y-87566392D01*
X125184108Y-87600500D01*
X125184110Y-87600500D01*
X125315890Y-87600500D01*
X125315892Y-87600500D01*
X125443186Y-87566392D01*
X125538000Y-87511650D01*
X125605900Y-87495178D01*
X125661999Y-87511650D01*
X125756814Y-87566392D01*
X125884108Y-87600500D01*
X125884110Y-87600500D01*
X126015890Y-87600500D01*
X126015892Y-87600500D01*
X126143186Y-87566392D01*
X126238000Y-87511650D01*
X126305900Y-87495178D01*
X126361999Y-87511650D01*
X126456814Y-87566392D01*
X126584108Y-87600500D01*
X126584110Y-87600500D01*
X126715890Y-87600500D01*
X126715892Y-87600500D01*
X126843186Y-87566392D01*
X126957314Y-87500500D01*
X127050500Y-87407314D01*
X127116392Y-87293186D01*
X127150500Y-87165892D01*
X127150500Y-87034108D01*
X127116392Y-86906814D01*
X127114536Y-86903600D01*
X127093054Y-86866391D01*
X127061650Y-86811999D01*
X127045178Y-86744100D01*
X127061650Y-86688000D01*
X127116392Y-86593186D01*
X127150500Y-86465892D01*
X127150500Y-86334108D01*
X127116392Y-86206814D01*
X127050500Y-86092686D01*
X126957314Y-85999500D01*
X126900250Y-85966554D01*
X126843187Y-85933608D01*
X126779539Y-85916554D01*
X126715892Y-85899500D01*
X126584108Y-85899500D01*
X126456814Y-85933608D01*
X126456813Y-85933608D01*
X126456811Y-85933609D01*
X126456810Y-85933609D01*
X126362000Y-85988348D01*
X126294100Y-86004821D01*
X126238000Y-85988348D01*
X126143189Y-85933609D01*
X126143186Y-85933608D01*
X126015892Y-85899500D01*
X125884108Y-85899500D01*
X125756814Y-85933608D01*
X125756813Y-85933608D01*
X125756811Y-85933609D01*
X125756810Y-85933609D01*
X125662000Y-85988348D01*
X125594100Y-86004821D01*
X125538000Y-85988348D01*
X125443189Y-85933609D01*
X125443186Y-85933608D01*
X125315892Y-85899500D01*
X125184108Y-85899500D01*
X125056812Y-85933608D01*
X124942686Y-85999500D01*
X124942683Y-85999502D01*
X124849502Y-86092683D01*
X124849500Y-86092686D01*
X124807387Y-86165628D01*
X124756820Y-86213843D01*
X124688212Y-86227065D01*
X124623348Y-86201097D01*
X124592613Y-86165628D01*
X124550500Y-86092686D01*
X124457314Y-85999500D01*
X124400250Y-85966554D01*
X124343187Y-85933608D01*
X124279539Y-85916554D01*
X124215892Y-85899500D01*
X124084108Y-85899500D01*
X123956814Y-85933608D01*
X123956813Y-85933608D01*
X123956811Y-85933609D01*
X123956810Y-85933609D01*
X123862000Y-85988348D01*
X123794100Y-86004821D01*
X123738000Y-85988348D01*
X123643189Y-85933609D01*
X123643186Y-85933608D01*
X123515892Y-85899500D01*
X123384108Y-85899500D01*
X123256812Y-85933608D01*
X123142686Y-85999500D01*
X123142683Y-85999502D01*
X123049502Y-86092683D01*
X123049500Y-86092686D01*
X122983608Y-86206812D01*
X122949500Y-86334108D01*
X116501750Y-86334108D01*
X116465892Y-86324500D01*
X116334108Y-86324500D01*
X116206812Y-86358608D01*
X116092686Y-86424500D01*
X116092683Y-86424502D01*
X115999502Y-86517683D01*
X115999500Y-86517686D01*
X115933608Y-86631812D01*
X115920136Y-86682091D01*
X115899500Y-86759108D01*
X110513069Y-86759108D01*
X110600941Y-86627598D01*
X110680130Y-86436420D01*
X110720500Y-86233465D01*
X110720500Y-86026535D01*
X110680130Y-85823580D01*
X110600941Y-85632402D01*
X110485977Y-85460345D01*
X110485975Y-85460342D01*
X110339657Y-85314024D01*
X110167595Y-85199057D01*
X110154521Y-85193642D01*
X109976420Y-85119870D01*
X109976412Y-85119868D01*
X109812220Y-85087208D01*
X115993300Y-85087208D01*
X115993300Y-85218991D01*
X116027408Y-85346287D01*
X116060354Y-85403350D01*
X116093300Y-85460414D01*
X116186486Y-85553600D01*
X116300614Y-85619492D01*
X116427908Y-85653600D01*
X116427910Y-85653600D01*
X116559690Y-85653600D01*
X116559692Y-85653600D01*
X116686986Y-85619492D01*
X116801114Y-85553600D01*
X116894300Y-85460414D01*
X116960192Y-85346286D01*
X116994300Y-85218992D01*
X116994300Y-85087208D01*
X116960192Y-84959914D01*
X116894300Y-84845786D01*
X116801114Y-84752600D01*
X116744050Y-84719654D01*
X116686987Y-84686708D01*
X116623339Y-84669654D01*
X116559692Y-84652600D01*
X116427908Y-84652600D01*
X116300612Y-84686708D01*
X116186486Y-84752600D01*
X116186483Y-84752602D01*
X116093302Y-84845783D01*
X116093300Y-84845786D01*
X116027408Y-84959912D01*
X115993300Y-85087208D01*
X109812220Y-85087208D01*
X109773469Y-85079500D01*
X109773465Y-85079500D01*
X109566535Y-85079500D01*
X109566530Y-85079500D01*
X109363587Y-85119868D01*
X109363579Y-85119870D01*
X109172403Y-85199058D01*
X109000342Y-85314024D01*
X108854024Y-85460342D01*
X108739058Y-85632403D01*
X108659870Y-85823579D01*
X108659868Y-85823587D01*
X108619500Y-86026530D01*
X108619500Y-86233469D01*
X108639519Y-86334110D01*
X108659870Y-86436420D01*
X108739059Y-86627598D01*
X108796541Y-86713626D01*
X108854024Y-86799657D01*
X109000342Y-86945975D01*
X109172405Y-87060943D01*
X109275043Y-87103456D01*
X109337108Y-87129164D01*
X109391511Y-87173005D01*
X109413576Y-87239299D01*
X109396297Y-87306998D01*
X109345160Y-87354609D01*
X109327974Y-87361656D01*
X109151781Y-87418905D01*
X108962439Y-87515380D01*
X108908282Y-87554727D01*
X108908282Y-87554728D01*
X109540591Y-88187037D01*
X109477007Y-88204075D01*
X109362993Y-88269901D01*
X109269901Y-88362993D01*
X109204075Y-88477007D01*
X109187037Y-88540591D01*
X108554728Y-87908282D01*
X108554727Y-87908282D01*
X108515380Y-87962439D01*
X108418904Y-88151782D01*
X108353242Y-88353869D01*
X108353242Y-88353872D01*
X108320000Y-88563753D01*
X107875500Y-88563753D01*
X107875500Y-83486530D01*
X108619500Y-83486530D01*
X108619500Y-83693469D01*
X108659868Y-83896412D01*
X108659870Y-83896420D01*
X108739058Y-84087596D01*
X108854024Y-84259657D01*
X109000342Y-84405975D01*
X109000345Y-84405977D01*
X109172402Y-84520941D01*
X109363580Y-84600130D01*
X109566530Y-84640499D01*
X109566534Y-84640500D01*
X109566535Y-84640500D01*
X109773466Y-84640500D01*
X109773467Y-84640499D01*
X109976420Y-84600130D01*
X110167598Y-84520941D01*
X110339655Y-84405977D01*
X110485977Y-84259655D01*
X110600941Y-84087598D01*
X110680130Y-83896420D01*
X110720500Y-83693465D01*
X110720500Y-83486535D01*
X110680130Y-83283580D01*
X110600941Y-83092402D01*
X110485977Y-82920345D01*
X110485975Y-82920342D01*
X110339657Y-82774024D01*
X110253626Y-82716541D01*
X110167598Y-82659059D01*
X109976420Y-82579870D01*
X109976412Y-82579868D01*
X109773469Y-82539500D01*
X109773465Y-82539500D01*
X109566535Y-82539500D01*
X109566530Y-82539500D01*
X109363587Y-82579868D01*
X109363579Y-82579870D01*
X109172403Y-82659058D01*
X109000342Y-82774024D01*
X108854024Y-82920342D01*
X108739058Y-83092403D01*
X108659870Y-83283579D01*
X108659868Y-83283587D01*
X108619500Y-83486530D01*
X107875500Y-83486530D01*
X107875500Y-80946530D01*
X108619500Y-80946530D01*
X108619500Y-81153469D01*
X108659868Y-81356412D01*
X108659870Y-81356420D01*
X108739058Y-81547596D01*
X108854024Y-81719657D01*
X109000342Y-81865975D01*
X109000345Y-81865977D01*
X109172402Y-81980941D01*
X109363580Y-82060130D01*
X109566530Y-82100499D01*
X109566534Y-82100500D01*
X109566535Y-82100500D01*
X109773466Y-82100500D01*
X109773467Y-82100499D01*
X109976420Y-82060130D01*
X110167598Y-81980941D01*
X110339655Y-81865977D01*
X110485977Y-81719655D01*
X110600941Y-81547598D01*
X110680130Y-81356420D01*
X110719994Y-81156008D01*
X113554158Y-81156008D01*
X113554158Y-81287791D01*
X113588266Y-81415087D01*
X113621212Y-81472150D01*
X113654158Y-81529214D01*
X113654160Y-81529216D01*
X113659163Y-81534219D01*
X113692648Y-81595542D01*
X113687664Y-81665234D01*
X113659163Y-81709581D01*
X113654160Y-81714583D01*
X113654158Y-81714586D01*
X113588266Y-81828712D01*
X113554158Y-81956008D01*
X113554158Y-82087791D01*
X113588266Y-82215087D01*
X113621212Y-82272150D01*
X113654158Y-82329214D01*
X113747344Y-82422400D01*
X113861472Y-82488292D01*
X113988766Y-82522400D01*
X113988768Y-82522400D01*
X114120548Y-82522400D01*
X114120550Y-82522400D01*
X114247844Y-82488292D01*
X114361972Y-82422400D01*
X114455158Y-82329214D01*
X114521050Y-82215086D01*
X114555158Y-82087792D01*
X114555158Y-81956008D01*
X114521050Y-81828714D01*
X114455158Y-81714586D01*
X114450153Y-81709581D01*
X114416668Y-81648258D01*
X114421652Y-81578566D01*
X114450153Y-81534219D01*
X114455158Y-81529214D01*
X114521050Y-81415086D01*
X114555158Y-81287792D01*
X114555158Y-81156008D01*
X114521050Y-81028714D01*
X114455158Y-80914586D01*
X114361972Y-80821400D01*
X114304908Y-80788454D01*
X114247845Y-80755508D01*
X114184197Y-80738454D01*
X114120550Y-80721400D01*
X113988766Y-80721400D01*
X113861470Y-80755508D01*
X113747344Y-80821400D01*
X113747341Y-80821402D01*
X113654160Y-80914583D01*
X113654158Y-80914586D01*
X113588266Y-81028712D01*
X113554158Y-81156008D01*
X110719994Y-81156008D01*
X110720500Y-81153465D01*
X110720500Y-80946535D01*
X110680130Y-80743580D01*
X110600941Y-80552402D01*
X110485977Y-80380345D01*
X110485975Y-80380342D01*
X110339657Y-80234024D01*
X110253626Y-80176541D01*
X110167598Y-80119059D01*
X109976420Y-80039870D01*
X109976412Y-80039868D01*
X109773469Y-79999500D01*
X109773465Y-79999500D01*
X109566535Y-79999500D01*
X109566530Y-79999500D01*
X109363587Y-80039868D01*
X109363579Y-80039870D01*
X109172403Y-80119058D01*
X109000342Y-80234024D01*
X108854024Y-80380342D01*
X108739058Y-80552403D01*
X108659870Y-80743579D01*
X108659868Y-80743587D01*
X108619500Y-80946530D01*
X107875500Y-80946530D01*
X107875500Y-78406530D01*
X108619500Y-78406530D01*
X108619500Y-78613469D01*
X108659868Y-78816412D01*
X108659870Y-78816420D01*
X108739058Y-79007596D01*
X108854024Y-79179657D01*
X109000342Y-79325975D01*
X109000345Y-79325977D01*
X109172402Y-79440941D01*
X109363580Y-79520130D01*
X109566530Y-79560499D01*
X109566534Y-79560500D01*
X109566535Y-79560500D01*
X109773466Y-79560500D01*
X109773467Y-79560499D01*
X109976420Y-79520130D01*
X110167598Y-79440941D01*
X110339655Y-79325977D01*
X110485977Y-79179655D01*
X110600941Y-79007598D01*
X110680130Y-78816420D01*
X110720500Y-78613465D01*
X110720500Y-78406535D01*
X110680130Y-78203580D01*
X110600941Y-78012402D01*
X110485977Y-77840345D01*
X110485975Y-77840342D01*
X110339657Y-77694024D01*
X110249644Y-77633880D01*
X110167598Y-77579059D01*
X110078166Y-77542015D01*
X109976420Y-77499870D01*
X109976412Y-77499868D01*
X109773469Y-77459500D01*
X109773465Y-77459500D01*
X109566535Y-77459500D01*
X109566530Y-77459500D01*
X109363587Y-77499868D01*
X109363579Y-77499870D01*
X109172403Y-77579058D01*
X109000342Y-77694024D01*
X108854024Y-77840342D01*
X108739058Y-78012403D01*
X108659870Y-78203579D01*
X108659868Y-78203587D01*
X108619500Y-78406530D01*
X107875500Y-78406530D01*
X107875500Y-75866530D01*
X108619500Y-75866530D01*
X108619500Y-76073469D01*
X108659868Y-76276412D01*
X108659870Y-76276420D01*
X108739058Y-76467596D01*
X108854024Y-76639657D01*
X109000342Y-76785975D01*
X109000345Y-76785977D01*
X109172402Y-76900941D01*
X109363580Y-76980130D01*
X109566530Y-77020499D01*
X109566534Y-77020500D01*
X109566535Y-77020500D01*
X109773466Y-77020500D01*
X109773467Y-77020499D01*
X109976420Y-76980130D01*
X110167598Y-76900941D01*
X110339655Y-76785977D01*
X110485977Y-76639655D01*
X110600941Y-76467598D01*
X110680130Y-76276420D01*
X110720500Y-76073465D01*
X110720500Y-75866535D01*
X110680130Y-75663580D01*
X110600941Y-75472402D01*
X110485977Y-75300345D01*
X110485975Y-75300342D01*
X110339657Y-75154024D01*
X110253626Y-75096541D01*
X110167598Y-75039059D01*
X109976420Y-74959870D01*
X109976412Y-74959868D01*
X109773469Y-74919500D01*
X109773465Y-74919500D01*
X109566535Y-74919500D01*
X109566530Y-74919500D01*
X109363587Y-74959868D01*
X109363579Y-74959870D01*
X109172403Y-75039058D01*
X109000342Y-75154024D01*
X108854024Y-75300342D01*
X108739058Y-75472403D01*
X108659870Y-75663579D01*
X108659868Y-75663587D01*
X108619500Y-75866530D01*
X107875500Y-75866530D01*
X107875500Y-73326530D01*
X108619500Y-73326530D01*
X108619500Y-73533469D01*
X108659868Y-73736412D01*
X108659870Y-73736420D01*
X108739058Y-73927596D01*
X108854024Y-74099657D01*
X109000342Y-74245975D01*
X109000345Y-74245977D01*
X109172402Y-74360941D01*
X109363580Y-74440130D01*
X109566530Y-74480499D01*
X109566534Y-74480500D01*
X109566535Y-74480500D01*
X109773466Y-74480500D01*
X109773467Y-74480499D01*
X109976420Y-74440130D01*
X110167598Y-74360941D01*
X110339655Y-74245977D01*
X110485977Y-74099655D01*
X110600941Y-73927598D01*
X110680130Y-73736420D01*
X110720500Y-73533465D01*
X110720500Y-73326535D01*
X110680130Y-73123580D01*
X110600941Y-72932402D01*
X110485977Y-72760345D01*
X110485975Y-72760342D01*
X110339657Y-72614024D01*
X110253626Y-72556541D01*
X110167598Y-72499059D01*
X109976420Y-72419870D01*
X109976412Y-72419868D01*
X109773469Y-72379500D01*
X109773465Y-72379500D01*
X109566535Y-72379500D01*
X109566530Y-72379500D01*
X109363587Y-72419868D01*
X109363579Y-72419870D01*
X109172403Y-72499058D01*
X109000342Y-72614024D01*
X108854024Y-72760342D01*
X108739058Y-72932403D01*
X108659870Y-73123579D01*
X108659868Y-73123587D01*
X108619500Y-73326530D01*
X107875500Y-73326530D01*
X107875500Y-70786530D01*
X108619500Y-70786530D01*
X108619500Y-70993469D01*
X108659868Y-71196412D01*
X108659870Y-71196420D01*
X108739058Y-71387596D01*
X108854024Y-71559657D01*
X109000342Y-71705975D01*
X109000345Y-71705977D01*
X109172402Y-71820941D01*
X109363580Y-71900130D01*
X109544721Y-71936161D01*
X109566530Y-71940499D01*
X109566534Y-71940500D01*
X109566535Y-71940500D01*
X109773466Y-71940500D01*
X109773467Y-71940499D01*
X109976420Y-71900130D01*
X110167598Y-71820941D01*
X110339655Y-71705977D01*
X110485977Y-71559655D01*
X110600941Y-71387598D01*
X110680130Y-71196420D01*
X110720500Y-70993465D01*
X110720500Y-70786535D01*
X110680130Y-70583580D01*
X110600941Y-70392402D01*
X110485977Y-70220345D01*
X110485975Y-70220342D01*
X110339657Y-70074024D01*
X110253626Y-70016541D01*
X110167598Y-69959059D01*
X109976420Y-69879870D01*
X109976412Y-69879868D01*
X109773469Y-69839500D01*
X109773465Y-69839500D01*
X109566535Y-69839500D01*
X109566530Y-69839500D01*
X109363587Y-69879868D01*
X109363579Y-69879870D01*
X109172403Y-69959058D01*
X109000342Y-70074024D01*
X108854024Y-70220342D01*
X108739058Y-70392403D01*
X108659870Y-70583579D01*
X108659868Y-70583587D01*
X108619500Y-70786530D01*
X107875500Y-70786530D01*
X107875500Y-66984108D01*
X112149500Y-66984108D01*
X112149500Y-67115891D01*
X112183608Y-67243187D01*
X112190558Y-67255224D01*
X112249500Y-67357314D01*
X112342686Y-67450500D01*
X112456814Y-67516392D01*
X112584108Y-67550500D01*
X112584110Y-67550500D01*
X112715890Y-67550500D01*
X112715892Y-67550500D01*
X112843186Y-67516392D01*
X112957314Y-67450500D01*
X113050500Y-67357314D01*
X113116392Y-67243186D01*
X113150500Y-67115892D01*
X113150500Y-66984108D01*
X113116392Y-66856814D01*
X113050500Y-66742686D01*
X112957314Y-66649500D01*
X112900250Y-66616554D01*
X112843187Y-66583608D01*
X112779539Y-66566554D01*
X112715892Y-66549500D01*
X112584108Y-66549500D01*
X112456812Y-66583608D01*
X112342686Y-66649500D01*
X112342683Y-66649502D01*
X112249502Y-66742683D01*
X112249500Y-66742686D01*
X112183608Y-66856812D01*
X112149500Y-66984108D01*
X107875500Y-66984108D01*
X107875500Y-65657407D01*
X111729630Y-65657407D01*
X111729630Y-65789190D01*
X111763738Y-65916486D01*
X111796684Y-65973549D01*
X111829630Y-66030613D01*
X111922816Y-66123799D01*
X112036944Y-66189691D01*
X112164238Y-66223799D01*
X112164240Y-66223799D01*
X112296020Y-66223799D01*
X112296022Y-66223799D01*
X112423316Y-66189691D01*
X112537444Y-66123799D01*
X112630630Y-66030613D01*
X112696522Y-65916485D01*
X112730630Y-65789191D01*
X112730630Y-65657407D01*
X112696522Y-65530113D01*
X112630630Y-65415985D01*
X112537444Y-65322799D01*
X112449013Y-65271743D01*
X112423317Y-65256907D01*
X112359669Y-65239853D01*
X112296022Y-65222799D01*
X112164238Y-65222799D01*
X112036942Y-65256907D01*
X111922816Y-65322799D01*
X111922813Y-65322801D01*
X111829632Y-65415982D01*
X111829630Y-65415985D01*
X111763738Y-65530111D01*
X111729630Y-65657407D01*
X107875500Y-65657407D01*
X107875500Y-64734108D01*
X112889500Y-64734108D01*
X112889500Y-64865891D01*
X112923608Y-64993187D01*
X112956554Y-65050250D01*
X112989500Y-65107314D01*
X113082686Y-65200500D01*
X113180386Y-65256907D01*
X113196810Y-65266390D01*
X113196814Y-65266392D01*
X113324108Y-65300500D01*
X113324110Y-65300500D01*
X113455890Y-65300500D01*
X113455892Y-65300500D01*
X113583186Y-65266392D01*
X113680090Y-65210443D01*
X113747990Y-65193970D01*
X113814017Y-65216822D01*
X113857208Y-65271743D01*
X113866089Y-65317156D01*
X113872217Y-66445224D01*
X113872358Y-66471161D01*
X113876617Y-67255224D01*
X113876758Y-67281161D01*
X113879230Y-67736161D01*
X113888866Y-69510224D01*
X113889007Y-69536161D01*
X113892533Y-70185224D01*
X113892674Y-70211161D01*
X113892674Y-70211162D01*
X113897019Y-71011161D01*
X113899187Y-71410224D01*
X113899328Y-71436161D01*
X113901903Y-71910224D01*
X113902044Y-71936161D01*
X113910599Y-73511161D01*
X113910599Y-73511162D01*
X113912223Y-73810224D01*
X113912364Y-73836161D01*
X113922815Y-75760224D01*
X113922956Y-75786161D01*
X113931710Y-77397762D01*
X113936576Y-77441114D01*
X113947907Y-77492231D01*
X113950354Y-77502106D01*
X113988440Y-77573160D01*
X113993560Y-77582711D01*
X114039444Y-77635403D01*
X114057080Y-77653315D01*
X114137007Y-77697767D01*
X114196533Y-77715087D01*
X114204091Y-77717287D01*
X114204092Y-77717287D01*
X114204095Y-77717288D01*
X114262012Y-77725470D01*
X145033115Y-77650132D01*
X145076946Y-77645294D01*
X145128607Y-77633880D01*
X145138933Y-77631316D01*
X145219471Y-77587982D01*
X145272090Y-77542015D01*
X145289973Y-77524352D01*
X145334299Y-77444355D01*
X145353714Y-77377237D01*
X145361805Y-77319307D01*
X145282799Y-57695847D01*
X145277954Y-57652305D01*
X145266604Y-57600976D01*
X145266602Y-57600970D01*
X145266597Y-57600945D01*
X145264116Y-57590929D01*
X145264115Y-57590926D01*
X145258411Y-57580294D01*
X145220879Y-57510335D01*
X145174976Y-57457660D01*
X145157336Y-57439758D01*
X145077394Y-57395334D01*
X145077390Y-57395332D01*
X145077388Y-57395332D01*
X145010301Y-57375836D01*
X144952381Y-57367674D01*
X144952379Y-57367674D01*
X138108237Y-57386891D01*
X114153736Y-57454151D01*
X114109801Y-57459029D01*
X114058025Y-57470518D01*
X114047612Y-57473116D01*
X113967135Y-57516562D01*
X113914573Y-57562609D01*
X113896721Y-57580293D01*
X113852509Y-57660348D01*
X113833189Y-57727492D01*
X113833188Y-57727493D01*
X113825178Y-57785440D01*
X113829848Y-58645224D01*
X113829989Y-58671161D01*
X113829989Y-58671162D01*
X113836719Y-59910224D01*
X113836860Y-59936161D01*
X113845329Y-61495224D01*
X113845470Y-61521161D01*
X113850902Y-62521161D01*
X113850902Y-62521162D01*
X113853015Y-62910224D01*
X113853156Y-62936161D01*
X113853156Y-62936162D01*
X113860445Y-64278237D01*
X113841125Y-64345382D01*
X113788570Y-64391423D01*
X113719467Y-64401742D01*
X113674447Y-64386297D01*
X113583189Y-64333609D01*
X113583186Y-64333608D01*
X113455892Y-64299500D01*
X113324108Y-64299500D01*
X113196812Y-64333608D01*
X113082686Y-64399500D01*
X113082683Y-64399502D01*
X112989502Y-64492683D01*
X112989500Y-64492686D01*
X112923608Y-64606812D01*
X112889500Y-64734108D01*
X107875500Y-64734108D01*
X107875500Y-63794108D01*
X109319500Y-63794108D01*
X109319500Y-63925891D01*
X109353608Y-64053187D01*
X109386554Y-64110250D01*
X109419500Y-64167314D01*
X109512686Y-64260500D01*
X109626814Y-64326392D01*
X109754108Y-64360500D01*
X109754110Y-64360500D01*
X109885890Y-64360500D01*
X109885892Y-64360500D01*
X110013186Y-64326392D01*
X110127314Y-64260500D01*
X110220500Y-64167314D01*
X110286392Y-64053186D01*
X110320500Y-63925892D01*
X110320500Y-63794108D01*
X110286392Y-63666814D01*
X110220500Y-63552686D01*
X110127314Y-63459500D01*
X110070250Y-63426554D01*
X110013187Y-63393608D01*
X109949539Y-63376554D01*
X109885892Y-63359500D01*
X109754108Y-63359500D01*
X109626812Y-63393608D01*
X109512686Y-63459500D01*
X109512683Y-63459502D01*
X109419502Y-63552683D01*
X109419500Y-63552686D01*
X109353608Y-63666812D01*
X109319500Y-63794108D01*
X107875500Y-63794108D01*
X107875500Y-62074108D01*
X108219500Y-62074108D01*
X108219500Y-62205892D01*
X108236554Y-62269539D01*
X108253608Y-62333187D01*
X108284671Y-62386988D01*
X108319500Y-62447314D01*
X108412686Y-62540500D01*
X108526814Y-62606392D01*
X108654108Y-62640500D01*
X108654110Y-62640500D01*
X108785890Y-62640500D01*
X108785892Y-62640500D01*
X108913186Y-62606392D01*
X109027314Y-62540500D01*
X109110698Y-62457116D01*
X109429500Y-62457116D01*
X109429500Y-62588899D01*
X109463608Y-62716195D01*
X109496554Y-62773258D01*
X109529500Y-62830322D01*
X109622686Y-62923508D01*
X109736814Y-62989400D01*
X109864108Y-63023508D01*
X109864110Y-63023508D01*
X109995890Y-63023508D01*
X109995892Y-63023508D01*
X110123186Y-62989400D01*
X110237314Y-62923508D01*
X110330500Y-62830322D01*
X110396392Y-62716194D01*
X110430500Y-62588900D01*
X110430500Y-62457116D01*
X110396392Y-62329822D01*
X110330500Y-62215694D01*
X110237314Y-62122508D01*
X110180250Y-62089562D01*
X110123187Y-62056616D01*
X110059539Y-62039562D01*
X109995892Y-62022508D01*
X109864108Y-62022508D01*
X109736812Y-62056616D01*
X109622686Y-62122508D01*
X109622683Y-62122510D01*
X109529502Y-62215691D01*
X109529500Y-62215694D01*
X109463608Y-62329820D01*
X109429500Y-62457116D01*
X109110698Y-62457116D01*
X109120500Y-62447314D01*
X109186392Y-62333186D01*
X109220500Y-62205892D01*
X109220500Y-62074108D01*
X109186392Y-61946814D01*
X109120500Y-61832686D01*
X109027314Y-61739500D01*
X108970250Y-61706554D01*
X108913187Y-61673608D01*
X108849539Y-61656554D01*
X108785892Y-61639500D01*
X108654108Y-61639500D01*
X108526812Y-61673608D01*
X108412686Y-61739500D01*
X108412683Y-61739502D01*
X108319502Y-61832683D01*
X108319500Y-61832686D01*
X108253608Y-61946812D01*
X108233326Y-62022508D01*
X108219500Y-62074108D01*
X107875500Y-62074108D01*
X107875500Y-58594108D01*
X112359500Y-58594108D01*
X112359500Y-58725891D01*
X112393608Y-58853187D01*
X112426554Y-58910250D01*
X112459500Y-58967314D01*
X112552686Y-59060500D01*
X112666814Y-59126392D01*
X112794108Y-59160500D01*
X112794110Y-59160500D01*
X112925890Y-59160500D01*
X112925892Y-59160500D01*
X113053186Y-59126392D01*
X113167314Y-59060500D01*
X113260500Y-58967314D01*
X113326392Y-58853186D01*
X113360500Y-58725892D01*
X113360500Y-58594108D01*
X113326392Y-58466814D01*
X113260500Y-58352686D01*
X113167314Y-58259500D01*
X113110250Y-58226554D01*
X113053187Y-58193608D01*
X112989539Y-58176554D01*
X112925892Y-58159500D01*
X112794108Y-58159500D01*
X112666812Y-58193608D01*
X112552686Y-58259500D01*
X112552683Y-58259502D01*
X112459502Y-58352683D01*
X112459500Y-58352686D01*
X112393608Y-58466812D01*
X112359500Y-58594108D01*
X107875500Y-58594108D01*
X107875500Y-54934108D01*
X131499500Y-54934108D01*
X131499500Y-55065891D01*
X131533608Y-55193187D01*
X131566554Y-55250250D01*
X131599500Y-55307314D01*
X131692686Y-55400500D01*
X131806814Y-55466392D01*
X131934108Y-55500500D01*
X131934110Y-55500500D01*
X132065890Y-55500500D01*
X132065892Y-55500500D01*
X132193186Y-55466392D01*
X132307314Y-55400500D01*
X132400500Y-55307314D01*
X132466392Y-55193186D01*
X132500500Y-55065892D01*
X132500500Y-54934108D01*
X132466392Y-54806814D01*
X132400500Y-54692686D01*
X132307314Y-54599500D01*
X132250250Y-54566554D01*
X132193187Y-54533608D01*
X132129539Y-54516554D01*
X132065892Y-54499500D01*
X131934108Y-54499500D01*
X131806812Y-54533608D01*
X131692686Y-54599500D01*
X131692683Y-54599502D01*
X131599502Y-54692683D01*
X131599500Y-54692686D01*
X131533608Y-54806812D01*
X131499500Y-54934108D01*
X107875500Y-54934108D01*
X107875500Y-51934108D01*
X126499500Y-51934108D01*
X126499500Y-52065891D01*
X126533608Y-52193187D01*
X126541766Y-52207316D01*
X126599500Y-52307314D01*
X126692686Y-52400500D01*
X126806814Y-52466392D01*
X126934108Y-52500500D01*
X126934110Y-52500500D01*
X127065890Y-52500500D01*
X127065892Y-52500500D01*
X127193186Y-52466392D01*
X127307314Y-52400500D01*
X127400500Y-52307314D01*
X127466392Y-52193186D01*
X127500500Y-52065892D01*
X127500500Y-51934108D01*
X127473705Y-51834108D01*
X135049500Y-51834108D01*
X135049500Y-51965891D01*
X135083608Y-52093187D01*
X135116554Y-52150250D01*
X135149500Y-52207314D01*
X135242686Y-52300500D01*
X135356814Y-52366392D01*
X135484108Y-52400500D01*
X135484110Y-52400500D01*
X135615890Y-52400500D01*
X135615892Y-52400500D01*
X135743186Y-52366392D01*
X135857314Y-52300500D01*
X135950500Y-52207314D01*
X136016392Y-52093186D01*
X136050500Y-51965892D01*
X136050500Y-51834108D01*
X136016392Y-51706814D01*
X135950500Y-51592686D01*
X135857314Y-51499500D01*
X135800250Y-51466554D01*
X135743187Y-51433608D01*
X135679539Y-51416554D01*
X135615892Y-51399500D01*
X135484108Y-51399500D01*
X135356812Y-51433608D01*
X135242686Y-51499500D01*
X135242683Y-51499502D01*
X135149502Y-51592683D01*
X135149500Y-51592686D01*
X135083608Y-51706812D01*
X135049500Y-51834108D01*
X127473705Y-51834108D01*
X127466392Y-51806814D01*
X127400500Y-51692686D01*
X127307314Y-51599500D01*
X127250250Y-51566554D01*
X127193187Y-51533608D01*
X127129539Y-51516554D01*
X127065892Y-51499500D01*
X126934108Y-51499500D01*
X126806812Y-51533608D01*
X126692686Y-51599500D01*
X126692683Y-51599502D01*
X126599502Y-51692683D01*
X126599500Y-51692686D01*
X126533608Y-51806812D01*
X126499500Y-51934108D01*
X107875500Y-51934108D01*
X107875500Y-50784108D01*
X116399500Y-50784108D01*
X116399500Y-50915891D01*
X116433608Y-51043187D01*
X116466554Y-51100250D01*
X116499500Y-51157314D01*
X116592686Y-51250500D01*
X116706814Y-51316392D01*
X116834108Y-51350500D01*
X116834110Y-51350500D01*
X116965890Y-51350500D01*
X116965892Y-51350500D01*
X117093186Y-51316392D01*
X117207314Y-51250500D01*
X117300500Y-51157314D01*
X117366392Y-51043186D01*
X117400500Y-50915892D01*
X117400500Y-50784108D01*
X117366392Y-50656814D01*
X117300500Y-50542686D01*
X117207314Y-50449500D01*
X117150250Y-50416554D01*
X117093187Y-50383608D01*
X117029539Y-50366554D01*
X116965892Y-50349500D01*
X116834108Y-50349500D01*
X116706812Y-50383608D01*
X116592686Y-50449500D01*
X116592683Y-50449502D01*
X116499502Y-50542683D01*
X116499500Y-50542686D01*
X116433608Y-50656812D01*
X116399500Y-50784108D01*
X107875500Y-50784108D01*
X107875500Y-49493238D01*
X107875618Y-49487829D01*
X107877963Y-49434110D01*
X107893148Y-49086326D01*
X107894086Y-49075598D01*
X107946189Y-48679836D01*
X107948062Y-48669206D01*
X108034462Y-48279483D01*
X108037257Y-48269054D01*
X108113468Y-48027344D01*
X108884500Y-48027344D01*
X108884500Y-48302679D01*
X108884501Y-48302696D01*
X108920438Y-48575667D01*
X108920439Y-48575672D01*
X108920440Y-48575678D01*
X108946912Y-48674474D01*
X108991704Y-48841642D01*
X109097075Y-49096029D01*
X109097080Y-49096040D01*
X109179861Y-49239419D01*
X109234751Y-49334491D01*
X109234753Y-49334494D01*
X109234754Y-49334495D01*
X109402370Y-49552938D01*
X109402376Y-49552945D01*
X109597066Y-49747635D01*
X109597073Y-49747641D01*
X109665961Y-49800500D01*
X109815521Y-49915261D01*
X109950037Y-49992924D01*
X110053971Y-50052931D01*
X110053976Y-50052933D01*
X110053979Y-50052935D01*
X110308368Y-50158307D01*
X110574334Y-50229572D01*
X110847326Y-50265512D01*
X110847333Y-50265512D01*
X111122667Y-50265512D01*
X111122674Y-50265512D01*
X111395666Y-50229572D01*
X111661632Y-50158307D01*
X111916021Y-50052935D01*
X112154479Y-49915261D01*
X112372928Y-49747640D01*
X112567628Y-49552940D01*
X112658811Y-49434108D01*
X126499500Y-49434108D01*
X126499500Y-49565891D01*
X126533608Y-49693187D01*
X126541766Y-49707316D01*
X126599500Y-49807314D01*
X126692686Y-49900500D01*
X126806814Y-49966392D01*
X126934108Y-50000500D01*
X126934110Y-50000500D01*
X127065890Y-50000500D01*
X127065892Y-50000500D01*
X127193186Y-49966392D01*
X127307314Y-49900500D01*
X127400500Y-49807314D01*
X127466392Y-49693186D01*
X127500500Y-49565892D01*
X127500500Y-49434108D01*
X127473705Y-49334108D01*
X130399500Y-49334108D01*
X130399500Y-49465892D01*
X130406102Y-49490532D01*
X130433608Y-49593187D01*
X130466554Y-49650250D01*
X130499500Y-49707314D01*
X130592686Y-49800500D01*
X130706814Y-49866392D01*
X130834108Y-49900500D01*
X130834110Y-49900500D01*
X130965890Y-49900500D01*
X130965892Y-49900500D01*
X131093186Y-49866392D01*
X131207314Y-49800500D01*
X131300500Y-49707314D01*
X131366392Y-49593186D01*
X131400500Y-49465892D01*
X131400500Y-49334108D01*
X131366392Y-49206814D01*
X131300500Y-49092686D01*
X131207314Y-48999500D01*
X131150250Y-48966554D01*
X131094053Y-48934108D01*
X135499500Y-48934108D01*
X135499500Y-49065892D01*
X135507575Y-49096029D01*
X135533608Y-49193187D01*
X135541475Y-49206812D01*
X135599500Y-49307314D01*
X135692686Y-49400500D01*
X135779888Y-49450846D01*
X135805944Y-49465890D01*
X135806814Y-49466392D01*
X135934108Y-49500500D01*
X135934110Y-49500500D01*
X136065890Y-49500500D01*
X136065892Y-49500500D01*
X136193186Y-49466392D01*
X136307314Y-49400500D01*
X136400500Y-49307314D01*
X136466392Y-49193186D01*
X136500500Y-49065892D01*
X136500500Y-48934108D01*
X136466392Y-48806814D01*
X136400500Y-48692686D01*
X136307314Y-48599500D01*
X136250250Y-48566554D01*
X136193187Y-48533608D01*
X136126184Y-48515655D01*
X136065892Y-48499500D01*
X135934108Y-48499500D01*
X135806812Y-48533608D01*
X135692686Y-48599500D01*
X135692683Y-48599502D01*
X135599502Y-48692683D01*
X135599500Y-48692686D01*
X135533608Y-48806812D01*
X135526232Y-48834341D01*
X135499500Y-48934108D01*
X131094053Y-48934108D01*
X131093187Y-48933608D01*
X131029539Y-48916554D01*
X130965892Y-48899500D01*
X130834108Y-48899500D01*
X130706812Y-48933608D01*
X130592686Y-48999500D01*
X130592683Y-48999502D01*
X130499502Y-49092683D01*
X130499500Y-49092686D01*
X130433608Y-49206812D01*
X130415477Y-49274479D01*
X130399500Y-49334108D01*
X127473705Y-49334108D01*
X127466392Y-49306814D01*
X127400500Y-49192686D01*
X127307314Y-49099500D01*
X127197378Y-49036028D01*
X127193187Y-49033608D01*
X127129539Y-49016554D01*
X127065892Y-48999500D01*
X126934108Y-48999500D01*
X126806812Y-49033608D01*
X126692686Y-49099500D01*
X126692683Y-49099502D01*
X126599502Y-49192683D01*
X126599500Y-49192686D01*
X126533608Y-49306812D01*
X126499500Y-49434108D01*
X112658811Y-49434108D01*
X112735249Y-49334491D01*
X112872923Y-49096033D01*
X112978295Y-48841644D01*
X113049560Y-48575678D01*
X113085500Y-48302686D01*
X113085500Y-48027338D01*
X113077600Y-47967332D01*
X142124500Y-47967332D01*
X142124500Y-48242667D01*
X142124501Y-48242684D01*
X142160438Y-48515655D01*
X142160439Y-48515660D01*
X142160440Y-48515666D01*
X142160441Y-48515668D01*
X142231704Y-48781630D01*
X142337075Y-49036017D01*
X142337080Y-49036028D01*
X142419861Y-49179407D01*
X142474751Y-49274479D01*
X142474753Y-49274482D01*
X142474754Y-49274483D01*
X142642370Y-49492926D01*
X142642376Y-49492933D01*
X142837066Y-49687623D01*
X142837073Y-49687629D01*
X142915283Y-49747641D01*
X143055521Y-49855249D01*
X143159458Y-49915257D01*
X143293971Y-49992919D01*
X143293976Y-49992921D01*
X143293979Y-49992923D01*
X143548368Y-50098295D01*
X143814334Y-50169560D01*
X144087326Y-50205500D01*
X144087333Y-50205500D01*
X144362667Y-50205500D01*
X144362674Y-50205500D01*
X144635666Y-50169560D01*
X144901632Y-50098295D01*
X145156021Y-49992923D01*
X145394479Y-49855249D01*
X145612928Y-49687628D01*
X145807628Y-49492928D01*
X145975249Y-49274479D01*
X146112923Y-49036021D01*
X146218295Y-48781632D01*
X146289560Y-48515666D01*
X146325500Y-48242674D01*
X146325500Y-47967326D01*
X146289560Y-47694334D01*
X146218295Y-47428368D01*
X146112923Y-47173979D01*
X146112921Y-47173976D01*
X146112919Y-47173971D01*
X146041632Y-47050500D01*
X145975249Y-46935521D01*
X145870938Y-46799579D01*
X145807629Y-46717073D01*
X145807623Y-46717066D01*
X145612933Y-46522376D01*
X145612926Y-46522370D01*
X145394483Y-46354754D01*
X145394482Y-46354753D01*
X145394479Y-46354751D01*
X145259965Y-46277089D01*
X145156028Y-46217080D01*
X145156017Y-46217075D01*
X144901630Y-46111704D01*
X144715752Y-46061899D01*
X144635666Y-46040440D01*
X144635660Y-46040439D01*
X144635655Y-46040438D01*
X144362684Y-46004501D01*
X144362679Y-46004500D01*
X144362674Y-46004500D01*
X144087326Y-46004500D01*
X144087320Y-46004500D01*
X144087315Y-46004501D01*
X143814344Y-46040438D01*
X143814337Y-46040439D01*
X143814334Y-46040440D01*
X143758125Y-46055500D01*
X143548369Y-46111704D01*
X143293982Y-46217075D01*
X143293971Y-46217080D01*
X143055516Y-46354754D01*
X142837073Y-46522370D01*
X142837066Y-46522376D01*
X142642376Y-46717066D01*
X142642370Y-46717073D01*
X142474754Y-46935516D01*
X142337080Y-47173971D01*
X142337075Y-47173982D01*
X142231704Y-47428369D01*
X142160441Y-47694331D01*
X142160438Y-47694344D01*
X142124501Y-47967315D01*
X142124500Y-47967332D01*
X113077600Y-47967332D01*
X113077599Y-47967326D01*
X113049561Y-47754356D01*
X113049560Y-47754346D01*
X112978295Y-47488380D01*
X112872923Y-47233991D01*
X112872921Y-47233988D01*
X112872919Y-47233983D01*
X112766984Y-47050500D01*
X112745973Y-47014108D01*
X130349500Y-47014108D01*
X130349500Y-47145891D01*
X130383608Y-47273187D01*
X130416554Y-47330250D01*
X130449500Y-47387314D01*
X130542686Y-47480500D01*
X130656814Y-47546392D01*
X130784108Y-47580500D01*
X130784110Y-47580500D01*
X130915890Y-47580500D01*
X130915892Y-47580500D01*
X131043186Y-47546392D01*
X131157314Y-47480500D01*
X131250500Y-47387314D01*
X131316392Y-47273186D01*
X131350500Y-47145892D01*
X131350500Y-47014108D01*
X131316392Y-46886814D01*
X131250500Y-46772686D01*
X131157314Y-46679500D01*
X131100250Y-46646554D01*
X131043187Y-46613608D01*
X131019349Y-46607221D01*
X130915892Y-46579500D01*
X130784108Y-46579500D01*
X130656812Y-46613608D01*
X130542686Y-46679500D01*
X130542683Y-46679502D01*
X130449502Y-46772683D01*
X130449500Y-46772686D01*
X130383608Y-46886812D01*
X130349500Y-47014108D01*
X112745973Y-47014108D01*
X112735249Y-46995533D01*
X112590824Y-46807314D01*
X112567629Y-46777085D01*
X112567623Y-46777078D01*
X112372933Y-46582388D01*
X112372926Y-46582382D01*
X112297306Y-46524357D01*
X112179690Y-46434108D01*
X116099500Y-46434108D01*
X116099500Y-46565892D01*
X116103919Y-46582384D01*
X116133608Y-46693187D01*
X116147399Y-46717073D01*
X116199500Y-46807314D01*
X116292686Y-46900500D01*
X116406814Y-46966392D01*
X116534108Y-47000500D01*
X116534110Y-47000500D01*
X116665890Y-47000500D01*
X116665892Y-47000500D01*
X116793186Y-46966392D01*
X116907314Y-46900500D01*
X117000500Y-46807314D01*
X117066392Y-46693186D01*
X117100500Y-46565892D01*
X117100500Y-46484108D01*
X134649500Y-46484108D01*
X134649500Y-46615891D01*
X134683608Y-46743187D01*
X134711048Y-46790714D01*
X134749500Y-46857314D01*
X134842686Y-46950500D01*
X134956814Y-47016392D01*
X135084108Y-47050500D01*
X135084110Y-47050500D01*
X135215890Y-47050500D01*
X135215892Y-47050500D01*
X135343186Y-47016392D01*
X135457314Y-46950500D01*
X135550500Y-46857314D01*
X135616392Y-46743186D01*
X135650500Y-46615892D01*
X135650500Y-46484108D01*
X135616392Y-46356814D01*
X135550500Y-46242686D01*
X135457314Y-46149500D01*
X135391850Y-46111704D01*
X135343187Y-46083608D01*
X135262147Y-46061894D01*
X135215892Y-46049500D01*
X135084108Y-46049500D01*
X134956812Y-46083608D01*
X134842686Y-46149500D01*
X134842683Y-46149502D01*
X134749502Y-46242683D01*
X134749500Y-46242686D01*
X134683608Y-46356812D01*
X134649500Y-46484108D01*
X117100500Y-46484108D01*
X117100500Y-46434108D01*
X117066392Y-46306814D01*
X117000500Y-46192686D01*
X116907314Y-46099500D01*
X116820712Y-46049500D01*
X116793187Y-46033608D01*
X116729539Y-46016554D01*
X116665892Y-45999500D01*
X116534108Y-45999500D01*
X116406812Y-46033608D01*
X116292686Y-46099500D01*
X116292683Y-46099502D01*
X116199502Y-46192683D01*
X116199500Y-46192686D01*
X116133608Y-46306812D01*
X116106522Y-46407901D01*
X116099500Y-46434108D01*
X112179690Y-46434108D01*
X112154483Y-46414766D01*
X112154482Y-46414765D01*
X112154479Y-46414763D01*
X112050535Y-46354751D01*
X111916028Y-46277092D01*
X111916017Y-46277087D01*
X111661630Y-46171716D01*
X111528649Y-46136084D01*
X111395666Y-46100452D01*
X111395660Y-46100451D01*
X111395655Y-46100450D01*
X111122684Y-46064513D01*
X111122679Y-46064512D01*
X111122674Y-46064512D01*
X110847326Y-46064512D01*
X110847320Y-46064512D01*
X110847315Y-46064513D01*
X110574344Y-46100450D01*
X110574337Y-46100451D01*
X110574334Y-46100452D01*
X110532341Y-46111704D01*
X110308369Y-46171716D01*
X110053982Y-46277087D01*
X110053971Y-46277092D01*
X109815516Y-46414766D01*
X109597073Y-46582382D01*
X109597066Y-46582388D01*
X109402376Y-46777078D01*
X109402370Y-46777085D01*
X109234754Y-46995528D01*
X109097080Y-47233983D01*
X109097075Y-47233994D01*
X108991704Y-47488381D01*
X108920441Y-47754343D01*
X108920438Y-47754356D01*
X108884501Y-48027327D01*
X108884500Y-48027344D01*
X108113468Y-48027344D01*
X108157293Y-47888347D01*
X108160974Y-47878233D01*
X108313742Y-47509418D01*
X108318297Y-47499649D01*
X108502626Y-47145556D01*
X108508008Y-47136235D01*
X108722488Y-46799569D01*
X108728679Y-46790726D01*
X108971686Y-46474034D01*
X108978613Y-46465778D01*
X109248314Y-46171450D01*
X109255930Y-46163835D01*
X109550232Y-45894156D01*
X109558501Y-45887218D01*
X109875193Y-45644211D01*
X109884036Y-45638020D01*
X109921570Y-45614108D01*
X130349500Y-45614108D01*
X130349500Y-45745891D01*
X130383608Y-45873187D01*
X130391705Y-45887211D01*
X130449500Y-45987314D01*
X130542686Y-46080500D01*
X130656814Y-46146392D01*
X130784108Y-46180500D01*
X130784110Y-46180500D01*
X130915890Y-46180500D01*
X130915892Y-46180500D01*
X131043186Y-46146392D01*
X131157314Y-46080500D01*
X131250500Y-45987314D01*
X131316392Y-45873186D01*
X131350500Y-45745892D01*
X131350500Y-45614108D01*
X131316392Y-45486814D01*
X131250500Y-45372686D01*
X131157314Y-45279500D01*
X131100250Y-45246554D01*
X131043187Y-45213608D01*
X130979539Y-45196554D01*
X130915892Y-45179500D01*
X130784108Y-45179500D01*
X130656812Y-45213608D01*
X130542686Y-45279500D01*
X130542683Y-45279502D01*
X130449502Y-45372683D01*
X130449500Y-45372686D01*
X130383608Y-45486812D01*
X130349500Y-45614108D01*
X109921570Y-45614108D01*
X110220702Y-45423540D01*
X110230023Y-45418158D01*
X110584114Y-45233830D01*
X110593888Y-45229272D01*
X110962693Y-45076508D01*
X110972814Y-45072824D01*
X111353530Y-44952785D01*
X111363945Y-44949994D01*
X111753672Y-44863593D01*
X111764302Y-44861719D01*
X112160063Y-44809617D01*
X112170794Y-44808677D01*
X112572205Y-44791151D01*
X112577614Y-44791034D01*
X112622595Y-44791034D01*
X142817405Y-44791034D01*
X142862294Y-44791034D01*
X142867702Y-44791151D01*
G37*
%TD.AperFunction*%
%TD*%
M02*
