%TF.GenerationSoftware,KiCad,Pcbnew,9.0.7*%
%TF.CreationDate,2026-04-27T03:30:11-07:00*%
%TF.ProjectId,Secondary_Board,5365636f-6e64-4617-9279-5f426f617264,rev?*%
%TF.SameCoordinates,Original*%
%TF.FileFunction,Copper,L1,Top*%
%TF.FilePolarity,Positive*%
%FSLAX46Y46*%
G04 Gerber Fmt 4.6, Leading zero omitted, Abs format (unit mm)*
G04 Created by KiCad (PCBNEW 9.0.7) date 2026-04-27 03:30:11*
%MOMM*%
%LPD*%
G01*
G04 APERTURE LIST*
G04 Aperture macros list*
%AMRoundRect*
0 Rectangle with rounded corners*
0 $1 Rounding radius*
0 $2 $3 $4 $5 $6 $7 $8 $9 X,Y pos of 4 corners*
0 Add a 4 corners polygon primitive as box body*
4,1,4,$2,$3,$4,$5,$6,$7,$8,$9,$2,$3,0*
0 Add four circle primitives for the rounded corners*
1,1,$1+$1,$2,$3*
1,1,$1+$1,$4,$5*
1,1,$1+$1,$6,$7*
1,1,$1+$1,$8,$9*
0 Add four rect primitives between the rounded corners*
20,1,$1+$1,$2,$3,$4,$5,0*
20,1,$1+$1,$4,$5,$6,$7,0*
20,1,$1+$1,$6,$7,$8,$9,0*
20,1,$1+$1,$8,$9,$2,$3,0*%
G04 Aperture macros list end*
%TA.AperFunction,Conductor*%
%ADD10C,0.200000*%
%TD*%
%TA.AperFunction,SMDPad,CuDef*%
%ADD11R,0.558000X0.997699*%
%TD*%
%TA.AperFunction,SMDPad,CuDef*%
%ADD12R,0.762000X1.219200*%
%TD*%
%TA.AperFunction,SMDPad,CuDef*%
%ADD13R,1.000000X1.400000*%
%TD*%
%TA.AperFunction,SMDPad,CuDef*%
%ADD14RoundRect,0.075000X-0.540000X-0.225000X0.540000X-0.225000X0.540000X0.225000X-0.540000X0.225000X0*%
%TD*%
%TA.AperFunction,SMDPad,CuDef*%
%ADD15R,0.807999X0.989800*%
%TD*%
%TA.AperFunction,SMDPad,CuDef*%
%ADD16RoundRect,0.237500X-0.250000X-0.237500X0.250000X-0.237500X0.250000X0.237500X-0.250000X0.237500X0*%
%TD*%
%TA.AperFunction,ComponentPad*%
%ADD17C,3.800000*%
%TD*%
%TA.AperFunction,SMDPad,CuDef*%
%ADD18R,0.989800X0.807999*%
%TD*%
%TA.AperFunction,SMDPad,CuDef*%
%ADD19R,0.650000X1.545000*%
%TD*%
%TA.AperFunction,SMDPad,CuDef*%
%ADD20RoundRect,0.150000X-0.587500X-0.150000X0.587500X-0.150000X0.587500X0.150000X-0.587500X0.150000X0*%
%TD*%
%TA.AperFunction,SMDPad,CuDef*%
%ADD21R,1.200000X3.800000*%
%TD*%
%TA.AperFunction,ComponentPad*%
%ADD22R,1.700000X1.700000*%
%TD*%
%TA.AperFunction,ComponentPad*%
%ADD23C,1.700000*%
%TD*%
%TA.AperFunction,SMDPad,CuDef*%
%ADD24RoundRect,0.225000X-0.250000X0.225000X-0.250000X-0.225000X0.250000X-0.225000X0.250000X0.225000X0*%
%TD*%
%TA.AperFunction,SMDPad,CuDef*%
%ADD25R,0.450000X1.400000*%
%TD*%
%TA.AperFunction,SMDPad,CuDef*%
%ADD26RoundRect,0.225000X0.225000X0.250000X-0.225000X0.250000X-0.225000X-0.250000X0.225000X-0.250000X0*%
%TD*%
%TA.AperFunction,SMDPad,CuDef*%
%ADD27R,0.960000X0.850000*%
%TD*%
%TA.AperFunction,SMDPad,CuDef*%
%ADD28R,0.670001X0.299999*%
%TD*%
%TA.AperFunction,SMDPad,CuDef*%
%ADD29RoundRect,0.075000X0.540000X0.225000X-0.540000X0.225000X-0.540000X-0.225000X0.540000X-0.225000X0*%
%TD*%
%TA.AperFunction,SMDPad,CuDef*%
%ADD30R,1.003300X0.457200*%
%TD*%
%TA.AperFunction,SMDPad,CuDef*%
%ADD31R,0.700000X0.300000*%
%TD*%
%TA.AperFunction,SMDPad,CuDef*%
%ADD32R,1.000000X0.300000*%
%TD*%
%TA.AperFunction,SMDPad,CuDef*%
%ADD33RoundRect,0.237500X0.250000X0.237500X-0.250000X0.237500X-0.250000X-0.237500X0.250000X-0.237500X0*%
%TD*%
%TA.AperFunction,SMDPad,CuDef*%
%ADD34R,1.320800X0.558800*%
%TD*%
%TA.AperFunction,SMDPad,CuDef*%
%ADD35R,0.550000X0.500000*%
%TD*%
%TA.AperFunction,SMDPad,CuDef*%
%ADD36R,0.304800X0.850900*%
%TD*%
%TA.AperFunction,SMDPad,CuDef*%
%ADD37R,0.997699X0.558000*%
%TD*%
%TA.AperFunction,SMDPad,CuDef*%
%ADD38RoundRect,0.050000X-0.150000X0.545000X-0.150000X-0.545000X0.150000X-0.545000X0.150000X0.545000X0*%
%TD*%
%TA.AperFunction,SMDPad,CuDef*%
%ADD39RoundRect,0.237500X-0.237500X0.250000X-0.237500X-0.250000X0.237500X-0.250000X0.237500X0.250000X0*%
%TD*%
%TA.AperFunction,ComponentPad*%
%ADD40O,3.500000X2.500000*%
%TD*%
%TA.AperFunction,ViaPad*%
%ADD41C,0.600000*%
%TD*%
%TA.AperFunction,Conductor*%
%ADD42C,0.500000*%
%TD*%
%TA.AperFunction,Conductor*%
%ADD43C,0.152000*%
%TD*%
%TA.AperFunction,Conductor*%
%ADD44C,1.000000*%
%TD*%
%TA.AperFunction,Conductor*%
%ADD45C,0.300000*%
%TD*%
G04 APERTURE END LIST*
D10*
%TO.N,Net-(U6-OUT)*%
X130450000Y-82825000D02*
X130450000Y-84775000D01*
%TO.N,GND*%
X137975000Y-90025000D02*
X137975000Y-88525000D01*
X134350000Y-91400000D02*
X132850000Y-91400000D01*
X136225000Y-90025000D02*
X136225000Y-88525000D01*
%TO.N,Net-(U2-ANODE)*%
X129250000Y-87000000D02*
X129250000Y-88200000D01*
%TO.N,Net-(U6-IN-)*%
X130500000Y-87150000D02*
X130500000Y-87650000D01*
%TO.N,GND*%
X129850000Y-87100000D02*
X129850000Y-88200000D01*
%TD*%
D11*
%TO.P,U4,1,C1*%
%TO.N,/PTAT_Bandgap/Vbg*%
X138524998Y-69924502D03*
%TO.P,U4,2,B1*%
%TO.N,Net-(IC1-OUT_A)*%
X139474999Y-69924502D03*
%TO.P,U4,3,B2*%
X140425000Y-69924502D03*
%TO.P,U4,4,C2*%
%TO.N,Net-(IC1-+IN_A)*%
X140425000Y-67225000D03*
%TO.P,U4,5,E2*%
%TO.N,Net-(U4-E2)*%
X139474999Y-67225000D03*
%TO.P,U4,6,E1*%
%TO.N,Net-(U4-E1)*%
X138524998Y-67225000D03*
%TD*%
D12*
%TO.P,U2,1,CATHODE*%
%TO.N,GND*%
X128025000Y-95476400D03*
%TO.P,U2,2,ANODE*%
%TO.N,Net-(U2-ANODE)*%
X128025000Y-92123600D03*
%TD*%
D13*
%TO.P,Q6,1,G*%
%TO.N,+5V*%
X124450000Y-46730000D03*
%TO.P,Q6,2,S*%
%TO.N,Net-(Q1-C)*%
X122550000Y-46730000D03*
%TO.P,Q6,3,D*%
%TO.N,Net-(Q6-D)*%
X123500000Y-48930000D03*
%TD*%
D14*
%TO.P,Q7,1*%
%TO.N,Net-(Q7-Pad1)*%
X131940000Y-52050000D03*
%TO.P,Q7,2*%
%TO.N,GND*%
X131940000Y-53950000D03*
%TO.P,Q7,3*%
%TO.N,Net-(U8-+IN)*%
X134060000Y-53000000D03*
%TD*%
D15*
%TO.P,R10,1*%
%TO.N,+3.7V*%
X126503100Y-89900000D03*
%TO.P,R10,2*%
%TO.N,Net-(U2-ANODE)*%
X127996900Y-89900000D03*
%TD*%
D16*
%TO.P,R18,1*%
%TO.N,GND*%
X137000000Y-49000000D03*
%TO.P,R18,2*%
%TO.N,Net-(U8--IN)*%
X138825000Y-49000000D03*
%TD*%
D17*
%TO.P,H1,1,1*%
%TO.N,GND*%
X144225000Y-48105000D03*
%TD*%
D18*
%TO.P,R21,1*%
%TO.N,Net-(J2-Pin_3)*%
X142400000Y-90053100D03*
%TO.P,R21,2*%
%TO.N,GND*%
X142400000Y-91546900D03*
%TD*%
D19*
%TO.P,IC2,1,C1*%
%TO.N,/PTAT_Bandgap/Vbg*%
X122965000Y-75453000D03*
%TO.P,IC2,2,B1*%
%TO.N,/PTAT_Bandgap/Pnp_base*%
X124235000Y-75453000D03*
%TO.P,IC2,3,E1*%
%TO.N,+3V3*%
X125505000Y-75453000D03*
%TO.P,IC2,4,NC_1*%
%TO.N,GND*%
X126775000Y-75453000D03*
%TO.P,IC2,5,E3*%
%TO.N,+3V3*%
X128045000Y-75453000D03*
%TO.P,IC2,6,B3*%
%TO.N,/PTAT_Bandgap/Pnp_base*%
X129315000Y-75453000D03*
%TO.P,IC2,7,C3*%
%TO.N,/PTAT_Bandgap/Pnp_In-*%
X130585000Y-75453000D03*
%TO.P,IC2,8,C4*%
%TO.N,/PTAT_Bandgap/Pnp_In+*%
X130585000Y-69997000D03*
%TO.P,IC2,9,B4*%
%TO.N,/PTAT_Bandgap/Pnp_base*%
X129315000Y-69997000D03*
%TO.P,IC2,10,E4*%
%TO.N,+3V3*%
X128045000Y-69997000D03*
%TO.P,IC2,11,NC_2*%
%TO.N,GND*%
X126775000Y-69997000D03*
%TO.P,IC2,12,E2*%
%TO.N,+3V3*%
X125505000Y-69997000D03*
%TO.P,IC2,13,B2*%
%TO.N,/PTAT_Bandgap/Pnp_base*%
X124235000Y-69997000D03*
%TO.P,IC2,14,C2*%
%TO.N,/PTAT_Bandgap/Vptat*%
X122965000Y-69997000D03*
%TD*%
D16*
%TO.P,R19,1*%
%TO.N,Net-(Q7-Pad1)*%
X136997500Y-50790000D03*
%TO.P,R19,2*%
%TO.N,/OP_CTRL*%
X138822500Y-50790000D03*
%TD*%
D15*
%TO.P,R8,1*%
%TO.N,/PTAT_Bandgap/Pnp_In+*%
X135521900Y-61625000D03*
%TO.P,R8,2*%
%TO.N,Net-(Q9-B2)*%
X134028100Y-61625000D03*
%TD*%
D16*
%TO.P,R14,1*%
%TO.N,/PWM_Red*%
X109887500Y-54200000D03*
%TO.P,R14,2*%
%TO.N,Net-(Q1-B)*%
X111712500Y-54200000D03*
%TD*%
D15*
%TO.P,R12,1*%
%TO.N,Net-(U6-IN-)*%
X131400000Y-89100000D03*
%TO.P,R12,2*%
%TO.N,+3V3*%
X132893800Y-89100000D03*
%TD*%
D18*
%TO.P,R4,1*%
%TO.N,/PTAT_Bandgap/Vbg*%
X119975000Y-74078100D03*
%TO.P,R4,2*%
%TO.N,GND*%
X119975000Y-75571900D03*
%TD*%
D20*
%TO.P,Q1,1,E*%
%TO.N,GND*%
X118012500Y-46600000D03*
%TO.P,Q1,2,B*%
%TO.N,Net-(Q1-B)*%
X118012500Y-48500000D03*
%TO.P,Q1,3,C*%
%TO.N,Net-(Q1-C)*%
X119887500Y-47550000D03*
%TD*%
D21*
%TO.P,L1,1*%
%TO.N,+3.7V*%
X118575000Y-89830000D03*
%TO.P,L1,2*%
%TO.N,Net-(U5-SW)*%
X121025000Y-89830000D03*
%TD*%
D22*
%TO.P,J4,1,Pin_1*%
%TO.N,+3.7V*%
X109670000Y-93750000D03*
D23*
%TO.P,J4,2,Pin_2*%
%TO.N,+3V3*%
X109670000Y-91210000D03*
%TO.P,J4,3,Pin_3*%
%TO.N,+5V*%
X109670000Y-88670000D03*
%TO.P,J4,4,Pin_4*%
%TO.N,GND*%
X109670000Y-86130000D03*
%TO.P,J4,5,Pin_5*%
%TO.N,/PWM_Red*%
X109670000Y-83590000D03*
%TO.P,J4,6,Pin_6*%
%TO.N,/PWM_IR*%
X109670000Y-81050000D03*
%TO.P,J4,7,Pin_7*%
%TO.N,/OP_CTRL*%
X109670000Y-78510000D03*
%TO.P,J4,8,Pin_8*%
%TO.N,GND*%
X109670000Y-75970000D03*
%TO.P,J4,9,Pin_9*%
%TO.N,/V_ptat*%
X109670000Y-73430000D03*
%TO.P,J4,10,Pin_10*%
%TO.N,/V_bandgap*%
X109670000Y-70890000D03*
%TD*%
D24*
%TO.P,C7,1*%
%TO.N,+3V3*%
X137975000Y-87000000D03*
%TO.P,C7,2*%
%TO.N,GND*%
X137975000Y-88550000D03*
%TD*%
%TO.P,C5,1*%
%TO.N,+5V*%
X125150000Y-82900000D03*
%TO.P,C5,2*%
%TO.N,GND*%
X125150000Y-84450000D03*
%TD*%
D25*
%TO.P,IC1,1,OUT_A*%
%TO.N,Net-(IC1-OUT_A)*%
X135750000Y-69222369D03*
%TO.P,IC1,2,-IN_A*%
%TO.N,/PTAT_Bandgap/Pnp_In-*%
X135100000Y-69222369D03*
%TO.P,IC1,3,+IN_A*%
%TO.N,Net-(IC1-+IN_A)*%
X134450000Y-69222369D03*
%TO.P,IC1,4,V-*%
%TO.N,GND*%
X133800000Y-69222369D03*
%TO.P,IC1,5,+IN_B*%
%TO.N,/PTAT_Bandgap/Pnp_In+*%
X133800000Y-73622369D03*
%TO.P,IC1,6,-IN_B*%
%TO.N,/PTAT_Bandgap/Pnp_In-*%
X134450000Y-73622369D03*
%TO.P,IC1,7,OUT_B*%
%TO.N,/PTAT_Bandgap/Pnp_base*%
X135100000Y-73622369D03*
%TO.P,IC1,8,V+*%
%TO.N,+3V3*%
X135750000Y-73622369D03*
%TD*%
D26*
%TO.P,C3,1*%
%TO.N,+3.7V*%
X119068800Y-86523100D03*
%TO.P,C3,2*%
%TO.N,GND*%
X117518800Y-86523100D03*
%TD*%
D27*
%TO.P,C8,1*%
%TO.N,GND*%
X116825000Y-69525000D03*
%TO.P,C8,2*%
%TO.N,+3V3*%
X116825000Y-67925000D03*
%TD*%
D28*
%TO.P,U5,1,FB*%
%TO.N,/Power Management/Vfb*%
X120559999Y-83049998D03*
%TO.P,U5,2,EN*%
%TO.N,Net-(J2-Pin_2)*%
X120559999Y-83549997D03*
%TO.P,U5,3,VIN*%
%TO.N,+3.7V*%
X120559999Y-84049999D03*
%TO.P,U5,4,GND*%
%TO.N,GND*%
X122040001Y-84049999D03*
%TO.P,U5,5,SW*%
%TO.N,Net-(U5-SW)*%
X122040001Y-83549997D03*
%TO.P,U5,6,VOUT*%
%TO.N,+5V*%
X122040001Y-83049998D03*
%TD*%
D24*
%TO.P,C9,1*%
%TO.N,Net-(U6-OUT)*%
X132200000Y-85525000D03*
%TO.P,C9,2*%
%TO.N,Net-(U6-IN-)*%
X132200000Y-87075000D03*
%TD*%
D20*
%TO.P,Q2,1,E*%
%TO.N,GND*%
X117175000Y-52050000D03*
%TO.P,Q2,2,B*%
%TO.N,Net-(Q2-B)*%
X117175000Y-53950000D03*
%TO.P,Q2,3,C*%
%TO.N,Net-(Q2-C)*%
X119050000Y-53000000D03*
%TD*%
D24*
%TO.P,C6,1*%
%TO.N,+3V3*%
X136225000Y-87000000D03*
%TO.P,C6,2*%
%TO.N,GND*%
X136225000Y-88550000D03*
%TD*%
D18*
%TO.P,R1,1*%
%TO.N,+5V*%
X118580000Y-80736200D03*
%TO.P,R1,2*%
%TO.N,/Power Management/Vfb*%
X118580000Y-82230000D03*
%TD*%
D29*
%TO.P,Q5,1*%
%TO.N,Net-(U8-OUT)*%
X129060000Y-48450000D03*
%TO.P,Q5,2*%
%TO.N,Net-(U8--IN)*%
X129060000Y-46550000D03*
%TO.P,Q5,3*%
%TO.N,/LED_Driver/Current Sink*%
X126940000Y-47500000D03*
%TD*%
D18*
%TO.P,R5,1*%
%TO.N,/PTAT_Bandgap/Vptat*%
X119975000Y-70025000D03*
%TO.P,R5,2*%
%TO.N,GND*%
X119975000Y-71518800D03*
%TD*%
D17*
%TO.P,H2,1,1*%
%TO.N,GND*%
X110985000Y-48165012D03*
%TD*%
D18*
%TO.P,R7,1*%
%TO.N,+3V3*%
X144325000Y-63131200D03*
%TO.P,R7,2*%
%TO.N,Net-(U4-E2)*%
X144325000Y-64625000D03*
%TD*%
D30*
%TO.P,U7,1,OUT1*%
%TO.N,/V_ptat*%
X119552150Y-66125000D03*
%TO.P,U7,2,IN1-*%
X119552150Y-65475014D03*
%TO.P,U7,3,IN1+*%
%TO.N,/PTAT_Bandgap/Vptat*%
X119552150Y-64825028D03*
%TO.P,U7,4,V-*%
%TO.N,GND*%
X119552150Y-64175042D03*
%TO.P,U7,5,IN2+*%
%TO.N,/PTAT_Bandgap/Vbg*%
X116897850Y-64175042D03*
%TO.P,U7,6,IN2-*%
%TO.N,/V_bandgap*%
X116897850Y-64825028D03*
%TO.P,U7,7,OUT2*%
X116897850Y-65475014D03*
%TO.P,U7,8,V+*%
%TO.N,+3V3*%
X116897850Y-66125000D03*
%TD*%
D27*
%TO.P,C1,1*%
%TO.N,GND*%
X137714109Y-75125000D03*
%TO.P,C1,2*%
%TO.N,+3V3*%
X137714109Y-73525000D03*
%TD*%
D31*
%TO.P,J1,1,1*%
%TO.N,+3.7V*%
X111110000Y-62250013D03*
%TO.P,J1,2,2*%
%TO.N,+3V3*%
X111110000Y-62750012D03*
%TO.P,J1,3,3*%
%TO.N,+5V*%
X111110000Y-63250014D03*
%TO.P,J1,4,4*%
%TO.N,GND*%
X111110000Y-63750013D03*
%TO.P,J1,5,5*%
%TO.N,/PWM_Red*%
X111110000Y-64250012D03*
%TO.P,J1,6,6*%
%TO.N,/PWM_IR*%
X111110000Y-64750013D03*
%TO.P,J1,7,7*%
%TO.N,/OP_CTRL*%
X111110000Y-65250012D03*
%TO.P,J1,8,8*%
%TO.N,GND*%
X111110000Y-65750014D03*
%TO.P,J1,9,9*%
%TO.N,/V_ptat*%
X111110000Y-66250013D03*
%TO.P,J1,10,10*%
%TO.N,/V_bandgap*%
X111110000Y-66750012D03*
D32*
%TO.P,J1,P1,P1*%
%TO.N,unconnected-(J1-PadP1)*%
X108460000Y-61460013D03*
%TO.P,J1,P2,P2*%
%TO.N,unconnected-(J1-PadP2)*%
X108460000Y-67540000D03*
%TD*%
D24*
%TO.P,C4,1*%
%TO.N,+5V*%
X123450000Y-82925000D03*
%TO.P,C4,2*%
%TO.N,GND*%
X123450000Y-84475000D03*
%TD*%
D19*
%TO.P,Q9,1,C1*%
%TO.N,/PTAT_Bandgap/Pnp_In-*%
X122965000Y-67053000D03*
%TO.P,Q9,2,B1*%
X124235000Y-67053000D03*
%TO.P,Q9,3,E1*%
%TO.N,GND*%
X125505000Y-67053000D03*
%TO.P,Q9,4,SUB_1*%
X126775000Y-67053000D03*
%TO.P,Q9,5,E3*%
X128045000Y-67053000D03*
%TO.P,Q9,6,B3*%
%TO.N,Net-(Q9-B2)*%
X129315000Y-67053000D03*
%TO.P,Q9,7,C3*%
X130585000Y-67053000D03*
%TO.P,Q9,8,C4*%
X130585000Y-61597000D03*
%TO.P,Q9,9,B4*%
X129315000Y-61597000D03*
%TO.P,Q9,10,E4*%
%TO.N,GND*%
X128045000Y-61597000D03*
%TO.P,Q9,11,SUB_2*%
X126775000Y-61597000D03*
%TO.P,Q9,12,E2*%
X125505000Y-61597000D03*
%TO.P,Q9,13,B2*%
%TO.N,Net-(Q9-B2)*%
X124235000Y-61597000D03*
%TO.P,Q9,14,C2*%
X122965000Y-61597000D03*
%TD*%
D18*
%TO.P,R9,1*%
%TO.N,Net-(IC1-+IN_A)*%
X142821898Y-67227602D03*
%TO.P,R9,2*%
%TO.N,GND*%
X142821898Y-68721402D03*
%TD*%
D15*
%TO.P,R11,1*%
%TO.N,Net-(U6-OUT)*%
X130553100Y-82700000D03*
%TO.P,R11,2*%
%TO.N,Net-(Q3-B)*%
X132046900Y-82700000D03*
%TD*%
D33*
%TO.P,R17,1*%
%TO.N,Net-(Q2-C)*%
X111700000Y-55700000D03*
%TO.P,R17,2*%
%TO.N,+5V*%
X109875000Y-55700000D03*
%TD*%
D13*
%TO.P,Q8,1,G*%
%TO.N,+5V*%
X124430000Y-53400000D03*
%TO.P,Q8,2,S*%
%TO.N,Net-(Q2-C)*%
X122530000Y-53400000D03*
%TO.P,Q8,3,D*%
%TO.N,Net-(Q8-D)*%
X123480000Y-55600000D03*
%TD*%
D22*
%TO.P,J2,1,Pin_1*%
%TO.N,+3.7V*%
X145840000Y-83700000D03*
D23*
%TO.P,J2,2,Pin_2*%
%TO.N,Net-(J2-Pin_2)*%
X145840000Y-86240000D03*
%TO.P,J2,3,Pin_3*%
%TO.N,Net-(J2-Pin_3)*%
X145840000Y-88780000D03*
%TD*%
D26*
%TO.P,C2,1*%
%TO.N,+3.7V*%
X119068800Y-84853100D03*
%TO.P,C2,2*%
%TO.N,GND*%
X117518800Y-84853100D03*
%TD*%
D34*
%TO.P,Q3,1,B*%
%TO.N,Net-(Q3-B)*%
X134254800Y-83197500D03*
%TO.P,Q3,2,E*%
%TO.N,+3V3*%
X134254800Y-85102500D03*
%TO.P,Q3,3,C*%
%TO.N,+5V*%
X136047250Y-84150000D03*
%TD*%
D15*
%TO.P,R13,1*%
%TO.N,GND*%
X132946900Y-91400000D03*
%TO.P,R13,2*%
%TO.N,Net-(U6-IN-)*%
X131453100Y-91400000D03*
%TD*%
D35*
%TO.P,D1,1*%
%TO.N,/LED_Driver/Current Sink*%
X128875000Y-54000000D03*
%TO.P,D1,2*%
%TO.N,Net-(Q6-D)*%
X128875000Y-53000000D03*
%TO.P,D1,3*%
%TO.N,/LED_Driver/Current Sink*%
X127125000Y-53000000D03*
%TO.P,D1,4*%
%TO.N,Net-(Q8-D)*%
X127125000Y-54000000D03*
%TD*%
D17*
%TO.P,H3,1,1*%
%TO.N,GND*%
X144550000Y-97775000D03*
%TD*%
D18*
%TO.P,R6,1*%
%TO.N,+3V3*%
X141675000Y-63128100D03*
%TO.P,R6,2*%
%TO.N,Net-(U4-E1)*%
X141675000Y-64621900D03*
%TD*%
D33*
%TO.P,R15,1*%
%TO.N,Net-(Q1-C)*%
X111700000Y-52700000D03*
%TO.P,R15,2*%
%TO.N,+5V*%
X109875000Y-52700000D03*
%TD*%
D18*
%TO.P,R3,1*%
%TO.N,Net-(U1-B1)*%
X138925000Y-64671900D03*
%TO.P,R3,2*%
%TO.N,GND*%
X138925000Y-63178100D03*
%TD*%
D36*
%TO.P,U6,1,IN+*%
%TO.N,Net-(U2-ANODE)*%
X129200001Y-87023950D03*
%TO.P,U6,2,V-*%
%TO.N,GND*%
X129850000Y-87023950D03*
%TO.P,U6,3,IN-*%
%TO.N,Net-(U6-IN-)*%
X130499999Y-87023950D03*
%TO.P,U6,4,OUT*%
%TO.N,Net-(U6-OUT)*%
X130499999Y-84776050D03*
%TO.P,U6,5,V+*%
%TO.N,+5V*%
X129200001Y-84776050D03*
%TD*%
D18*
%TO.P,R2,1*%
%TO.N,/Power Management/Vfb*%
X116280000Y-82230000D03*
%TO.P,R2,2*%
%TO.N,GND*%
X116280000Y-80736200D03*
%TD*%
D16*
%TO.P,R16,1*%
%TO.N,/PWM_IR*%
X109887500Y-57200000D03*
%TO.P,R16,2*%
%TO.N,Net-(Q2-B)*%
X111712500Y-57200000D03*
%TD*%
D37*
%TO.P,U1,1,C1*%
%TO.N,/PTAT_Bandgap/Pnp_In-*%
X133425249Y-64174999D03*
%TO.P,U1,2,B1*%
%TO.N,Net-(U1-B1)*%
X133425249Y-65125000D03*
%TO.P,U1,3,B2*%
%TO.N,/PTAT_Bandgap/Pnp_base*%
X133425249Y-66075001D03*
%TO.P,U1,4,C2*%
%TO.N,Net-(U1-B1)*%
X136124751Y-66075001D03*
%TO.P,U1,5,E2*%
%TO.N,+3V3*%
X136124751Y-65125000D03*
%TO.P,U1,6,E1*%
X136124751Y-64174999D03*
%TD*%
D38*
%TO.P,U8,1,+IN*%
%TO.N,Net-(U8-+IN)*%
X133650000Y-46540000D03*
%TO.P,U8,2,V-*%
%TO.N,GND*%
X133000000Y-46540000D03*
%TO.P,U8,3,-IN*%
%TO.N,Net-(U8--IN)*%
X132350000Y-46540000D03*
%TO.P,U8,4,OUT*%
%TO.N,Net-(U8-OUT)*%
X132350000Y-48460000D03*
%TO.P,U8,5,V+*%
%TO.N,+5V*%
X133650000Y-48460000D03*
%TD*%
D39*
%TO.P,R20,1*%
%TO.N,/V_bandgap*%
X137000000Y-52535000D03*
%TO.P,R20,2*%
%TO.N,Net-(U8-+IN)*%
X137000000Y-54360000D03*
%TD*%
D17*
%TO.P,H4,1,1*%
%TO.N,GND*%
X110585000Y-97765012D03*
%TD*%
D40*
%TO.P,BT2,1,+*%
%TO.N,+3.7V*%
X122403800Y-95776550D03*
%TO.P,BT2,2,-*%
%TO.N,GND*%
X132403800Y-95776550D03*
%TD*%
D41*
%TO.N,+3V3*%
X138950000Y-72500000D03*
X115520000Y-62710000D03*
X128075000Y-73875000D03*
X115075000Y-67925000D03*
X137025000Y-63075000D03*
X140770000Y-60540000D03*
X142125000Y-74700000D03*
X125525000Y-71425000D03*
X115550000Y-74270000D03*
X125525000Y-73875000D03*
X128025000Y-71475000D03*
X109930000Y-62523008D03*
%TO.N,GND*%
X116300000Y-86555000D03*
X139560000Y-61560000D03*
X125850000Y-86300000D03*
X124050000Y-86300000D03*
X113809658Y-80930000D03*
X113809658Y-80130000D03*
X115025000Y-69575000D03*
X125150000Y-86300000D03*
X123350000Y-85600000D03*
X125475000Y-65375000D03*
X142800000Y-70250000D03*
X126775000Y-59975000D03*
X129850000Y-88200000D03*
X136000000Y-49000000D03*
X118175000Y-75825000D03*
X120375000Y-62975000D03*
X112230130Y-65723299D03*
X133775000Y-67775000D03*
X128075000Y-65425000D03*
X126775000Y-65475000D03*
X136225000Y-90025000D03*
X116393800Y-84883100D03*
X126550000Y-86300000D03*
X126775000Y-73875000D03*
X143000000Y-93100000D03*
X121575000Y-71975000D03*
X134350000Y-91400000D03*
X125150000Y-85600000D03*
X125850000Y-85600000D03*
X128025000Y-59925000D03*
X132000000Y-55000000D03*
X130850000Y-45680000D03*
X126550000Y-85600000D03*
X125475000Y-59975000D03*
X116900000Y-50850000D03*
X126775000Y-71475000D03*
X137975000Y-90025000D03*
X116600000Y-46500000D03*
X126200000Y-95600000D03*
X124050000Y-85600000D03*
X139225000Y-75575000D03*
X109820000Y-63860000D03*
%TO.N,/PTAT_Bandgap/Pnp_In+*%
X130225000Y-71925000D03*
X132460000Y-62560000D03*
%TO.N,/PTAT_Bandgap/Pnp_base*%
X132525000Y-67075000D03*
X130350000Y-73550000D03*
%TO.N,/V_ptat*%
X118940000Y-67320000D03*
X115110000Y-66510000D03*
%TO.N,+3.7V*%
X108720000Y-62140000D03*
%TO.N,+5V*%
X125100000Y-81800000D03*
X108800000Y-55700000D03*
X124500000Y-52000000D03*
X124680000Y-45330000D03*
X138200000Y-84150000D03*
X133500000Y-49500000D03*
X108880000Y-63460000D03*
X109070000Y-51520000D03*
X123400000Y-81800000D03*
%TO.N,/PTAT_Bandgap/Vbg*%
X137325000Y-71050000D03*
X121475000Y-75625000D03*
%TO.N,/LED_Driver/Current Sink*%
X127000000Y-49500000D03*
X127000000Y-52000000D03*
%TO.N,Net-(U8--IN)*%
X130850000Y-47080000D03*
X130900000Y-49400000D03*
%TO.N,/OP_CTRL*%
X113390000Y-64800000D03*
X112860000Y-58660000D03*
X112650000Y-67050000D03*
X115290000Y-58710000D03*
%TO.N,/V_bandgap*%
X114980000Y-65190000D03*
%TO.N,Net-(U8-+IN)*%
X135150000Y-46550000D03*
X135550000Y-51900000D03*
%TD*%
D42*
%TO.N,+3V3*%
X138910000Y-87000000D02*
X140303800Y-85606200D01*
X134525000Y-87000000D02*
X134225000Y-86700000D01*
X134225000Y-88475000D02*
X134225000Y-86700000D01*
X128045000Y-71455000D02*
X128025000Y-71475000D01*
X136225000Y-87000000D02*
X134525000Y-87000000D01*
X125505000Y-71405000D02*
X125525000Y-71425000D01*
X137975000Y-87000000D02*
X138910000Y-87000000D01*
X116825000Y-67925000D02*
X115075000Y-67925000D01*
X136225000Y-87000000D02*
X137975000Y-87000000D01*
D10*
X110146998Y-62740006D02*
X111150000Y-62740006D01*
D42*
X141675000Y-63128100D02*
X144321900Y-63128100D01*
X128045000Y-75453000D02*
X128045000Y-73905000D01*
X136124751Y-64174999D02*
X136124751Y-63975249D01*
D10*
X109930000Y-62523008D02*
X110146998Y-62740006D01*
D42*
X140300000Y-76525000D02*
X142125000Y-74700000D01*
X138950000Y-72500000D02*
X138493335Y-72500000D01*
X134225000Y-86700000D02*
X134225000Y-85132300D01*
X144321900Y-63128100D02*
X144325000Y-63131200D01*
X125505000Y-69997000D02*
X125505000Y-71405000D01*
X133600000Y-89100000D02*
X134225000Y-88475000D01*
X125505000Y-75453000D02*
X125505000Y-73895000D01*
X125505000Y-73895000D02*
X125525000Y-73875000D01*
X128045000Y-73905000D02*
X128075000Y-73875000D01*
X128045000Y-69997000D02*
X128045000Y-71455000D01*
X140303800Y-85606200D02*
X140303800Y-76528800D01*
X136196900Y-87028100D02*
X136225000Y-87000000D01*
X140303800Y-76528800D02*
X140300000Y-76525000D01*
X136124751Y-63975249D02*
X137025000Y-63075000D01*
X140830000Y-62260000D02*
X140830000Y-60600000D01*
X140830000Y-60600000D02*
X140770000Y-60540000D01*
X134225000Y-85132300D02*
X134254800Y-85102500D01*
X142200000Y-74700000D02*
X142125000Y-74700000D01*
X141675000Y-63128100D02*
X141675000Y-63105000D01*
X136124751Y-65125000D02*
X136124751Y-64174999D01*
X138493335Y-72500000D02*
X137664122Y-73329213D01*
X141675000Y-63105000D02*
X140830000Y-62260000D01*
X132893800Y-89100000D02*
X133600000Y-89100000D01*
D10*
%TO.N,GND*%
X109820000Y-63860000D02*
X110010000Y-63860000D01*
X125505000Y-60105000D02*
X125505000Y-61597000D01*
X119552150Y-63797850D02*
X120375000Y-62975000D01*
X119552150Y-64175042D02*
X119552150Y-63797850D01*
X117175000Y-52050000D02*
X117175000Y-51125000D01*
X110010000Y-63860000D02*
X110170000Y-63700000D01*
X142800000Y-70250000D02*
X142800000Y-68743300D01*
X139225000Y-75575000D02*
X138629200Y-74979200D01*
X119975000Y-71518800D02*
X121118800Y-71518800D01*
X117175000Y-51125000D02*
X116900000Y-50850000D01*
X116423800Y-84853100D02*
X116393800Y-84883100D01*
X139560000Y-61560000D02*
X139560000Y-62290000D01*
X121118800Y-71518800D02*
X121575000Y-71975000D01*
X125505000Y-61597000D02*
X126775000Y-61597000D01*
X125475000Y-60075000D02*
X125505000Y-60105000D01*
X125475000Y-59975000D02*
X125475000Y-60075000D01*
X126775000Y-69997000D02*
X126775000Y-71475000D01*
X126200000Y-95600000D02*
X126220000Y-95580000D01*
X138629200Y-74979200D02*
X137714109Y-74979200D01*
X125505000Y-67053000D02*
X125505000Y-65405000D01*
X117518800Y-86523100D02*
X117193800Y-86523100D01*
X116700000Y-46600000D02*
X116600000Y-46500000D01*
X128045000Y-65455000D02*
X128075000Y-65425000D01*
X117161900Y-86555000D02*
X116300000Y-86555000D01*
X130850000Y-45500000D02*
X131000000Y-45350000D01*
X138925000Y-62925000D02*
X138925000Y-63178100D01*
X128003600Y-95580000D02*
X128020000Y-95563600D01*
X128045000Y-67053000D02*
X128045000Y-65455000D01*
X139560000Y-62290000D02*
X138925000Y-62925000D01*
D42*
X142400000Y-92500000D02*
X143000000Y-93100000D01*
D10*
X126775000Y-61597000D02*
X126775000Y-59975000D01*
X126775000Y-67053000D02*
X126775000Y-65475000D01*
X109385000Y-76115012D02*
X110015012Y-76115012D01*
X132750000Y-45350000D02*
X133000000Y-45600000D01*
X118428100Y-75571900D02*
X118175000Y-75825000D01*
X126775000Y-75453000D02*
X126775000Y-73875000D01*
X128025000Y-59925000D02*
X128025000Y-60075000D01*
X131000000Y-45350000D02*
X132750000Y-45350000D01*
X126220000Y-95580000D02*
X128003600Y-95580000D01*
D43*
X112213421Y-65740008D02*
X112230130Y-65723299D01*
D10*
X131940000Y-53950000D02*
X131940000Y-54940000D01*
D42*
X142400000Y-91546900D02*
X142400000Y-92500000D01*
D10*
X133000000Y-45600000D02*
X133000000Y-46540000D01*
X126775000Y-61597000D02*
X128045000Y-61597000D01*
X133775000Y-67775000D02*
X133775000Y-68622369D01*
X117193800Y-86523100D02*
X117161900Y-86555000D01*
X133775000Y-68622369D02*
X133800000Y-68647369D01*
X111109993Y-63700000D02*
X111150000Y-63740007D01*
X116825000Y-69525000D02*
X115075000Y-69525000D01*
X133800000Y-68647369D02*
X133800000Y-69222369D01*
X118012500Y-46600000D02*
X116700000Y-46600000D01*
X117518800Y-84853100D02*
X116423800Y-84853100D01*
X115075000Y-69525000D02*
X115025000Y-69575000D01*
X128045000Y-60095000D02*
X128045000Y-61597000D01*
X128025000Y-60075000D02*
X128045000Y-60095000D01*
X125505000Y-65405000D02*
X125475000Y-65375000D01*
X137000000Y-49000000D02*
X136000000Y-49000000D01*
D43*
X111150000Y-65740008D02*
X112213421Y-65740008D01*
D10*
X110170000Y-63700000D02*
X111109993Y-63700000D01*
X131940000Y-54940000D02*
X132000000Y-55000000D01*
X126775000Y-67053000D02*
X125505000Y-67053000D01*
X142800000Y-68743300D02*
X142821898Y-68721402D01*
X119975000Y-75571900D02*
X118428100Y-75571900D01*
X130850000Y-45680000D02*
X130850000Y-45500000D01*
X128045000Y-67053000D02*
X126775000Y-67053000D01*
%TO.N,/PTAT_Bandgap/Pnp_In+*%
X135281800Y-62560000D02*
X135521900Y-62319900D01*
X132460000Y-62560000D02*
X135281800Y-62560000D01*
X130585000Y-71565000D02*
X130585000Y-69997000D01*
X135521900Y-62319900D02*
X135521900Y-61625000D01*
X133800000Y-74147369D02*
X133800000Y-73622369D01*
X133800000Y-73622369D02*
X133800000Y-73509369D01*
X133800000Y-73312000D02*
X130585000Y-70097000D01*
X130225000Y-71925000D02*
X130585000Y-71565000D01*
%TO.N,/PTAT_Bandgap/Pnp_In-*%
X133425249Y-64174999D02*
X132325001Y-64174999D01*
X124235000Y-68035000D02*
X124775000Y-68575000D01*
X134450000Y-74950000D02*
X133925000Y-75475000D01*
X133925000Y-75475000D02*
X130607000Y-75475000D01*
X130607000Y-75475000D02*
X130585000Y-75453000D01*
X131225000Y-68575000D02*
X131525000Y-68875000D01*
X135100000Y-71150000D02*
X134450000Y-71800000D01*
X135100000Y-69222369D02*
X135100000Y-71150000D01*
X131525000Y-68875000D02*
X134450000Y-71800000D01*
X134450000Y-74272000D02*
X134450000Y-74950000D01*
X132325001Y-64174999D02*
X131575000Y-64925000D01*
X124775000Y-68575000D02*
X131225000Y-68575000D01*
X134450000Y-71800000D02*
X134450000Y-73622369D01*
X131575000Y-64925000D02*
X131575000Y-68875000D01*
X124235000Y-67053000D02*
X124235000Y-68035000D01*
X122965000Y-67053000D02*
X124235000Y-67053000D01*
X131575000Y-68875000D02*
X131525000Y-68875000D01*
X130585000Y-75453000D02*
X130597000Y-75453000D01*
%TO.N,Net-(IC1-+IN_A)*%
X134700000Y-68075000D02*
X140175000Y-68075000D01*
X134450000Y-69222369D02*
X134450000Y-68325000D01*
X140425000Y-67825000D02*
X140425000Y-67225000D01*
X134450000Y-68325000D02*
X134700000Y-68075000D01*
X140425000Y-67225000D02*
X142819296Y-67225000D01*
X142819296Y-67225000D02*
X142821898Y-67227602D01*
X140175000Y-68075000D02*
X140425000Y-67825000D01*
%TO.N,/PTAT_Bandgap/Pnp_base*%
X129315000Y-75453000D02*
X129315000Y-69997000D01*
X135100000Y-73425000D02*
X135100000Y-75250000D01*
X129725000Y-76625000D02*
X129315000Y-76215000D01*
X135100000Y-73622369D02*
X135075000Y-73597369D01*
X124235000Y-75453000D02*
X124235000Y-69997000D01*
X132525000Y-66475000D02*
X132924999Y-66075001D01*
X130350000Y-73550000D02*
X129315000Y-74585000D01*
X129315000Y-74585000D02*
X129315000Y-75453000D01*
X132924999Y-66075001D02*
X133425249Y-66075001D01*
X135100000Y-75250000D02*
X133725000Y-76625000D01*
X128975000Y-76625000D02*
X129315000Y-76285000D01*
X132525000Y-67075000D02*
X132525000Y-66475000D01*
X124235000Y-75453000D02*
X124235000Y-76185000D01*
X129315000Y-76285000D02*
X129315000Y-75453000D01*
X133725000Y-76625000D02*
X129725000Y-76625000D01*
X124235000Y-76185000D02*
X124675000Y-76625000D01*
X129315000Y-76215000D02*
X129315000Y-75453000D01*
X124675000Y-76625000D02*
X128975000Y-76625000D01*
%TO.N,Net-(IC1-OUT_A)*%
X140075000Y-69025000D02*
X140425000Y-69375000D01*
X135750000Y-69025000D02*
X140075000Y-69025000D01*
X135750000Y-68677631D02*
X135750000Y-69222369D01*
X139474999Y-69924502D02*
X140425000Y-69924502D01*
X140425000Y-69375000D02*
X140425000Y-69924502D01*
%TO.N,Net-(Q9-B2)*%
X130853000Y-61597000D02*
X130881000Y-61625000D01*
X130585000Y-61597000D02*
X130853000Y-61597000D01*
X124235000Y-62185000D02*
X124925000Y-62875000D01*
X130585000Y-67053000D02*
X130585000Y-61597000D01*
X128875000Y-62875000D02*
X129315000Y-62435000D01*
X124235000Y-61597000D02*
X124235000Y-62185000D01*
X129315000Y-62435000D02*
X129315000Y-61597000D01*
X122965000Y-61597000D02*
X124235000Y-61597000D01*
X129315000Y-67053000D02*
X130585000Y-67053000D01*
X124925000Y-62875000D02*
X128875000Y-62875000D01*
X130585000Y-61597000D02*
X129315000Y-61597000D01*
X130881000Y-61625000D02*
X134028100Y-61625000D01*
%TO.N,Net-(U1-B1)*%
X136124751Y-66075001D02*
X135125001Y-66075001D01*
X136124751Y-66075001D02*
X137521899Y-66075001D01*
X134175000Y-65125000D02*
X133425249Y-65125000D01*
X135125001Y-66075001D02*
X134175000Y-65125000D01*
X137521899Y-66075001D02*
X138925000Y-64671900D01*
%TO.N,/PWM_IR*%
X112250000Y-64310000D02*
X112250000Y-61500000D01*
X108750000Y-59550000D02*
X108750000Y-58230000D01*
X108750000Y-58230000D02*
X109780000Y-57200000D01*
X108410000Y-79790000D02*
X108410000Y-69900000D01*
X111750000Y-61000000D02*
X110200000Y-61000000D01*
X111810000Y-64750000D02*
X112250000Y-64310000D01*
X111159993Y-64750000D02*
X111810000Y-64750000D01*
X110200000Y-61000000D02*
X108750000Y-59550000D01*
X112250000Y-61500000D02*
X111750000Y-61000000D01*
X109670000Y-81050000D02*
X108410000Y-79790000D01*
X110190000Y-65270000D02*
X110719993Y-64740007D01*
X110190000Y-68120000D02*
X110190000Y-65270000D01*
X108410000Y-69900000D02*
X110190000Y-68120000D01*
X111150000Y-64740007D02*
X111159993Y-64750000D01*
X109780000Y-57200000D02*
X109887500Y-57200000D01*
X110719993Y-64740007D02*
X111150000Y-64740007D01*
%TO.N,Net-(U4-E1)*%
X140728100Y-64621900D02*
X138524998Y-66825002D01*
X138524998Y-66825002D02*
X138524998Y-67225000D01*
X141675000Y-64621900D02*
X140728100Y-64621900D01*
%TO.N,Net-(U4-E2)*%
X140275000Y-66075000D02*
X139474999Y-66875001D01*
X144325000Y-64625000D02*
X142875000Y-66075000D01*
X142875000Y-66075000D02*
X140275000Y-66075000D01*
X139474999Y-66875001D02*
X139474999Y-67225000D01*
%TO.N,/V_ptat*%
X109670000Y-73430000D02*
X111890000Y-71210000D01*
X119552150Y-66707850D02*
X118940000Y-67320000D01*
X115110000Y-66510000D02*
X114910000Y-66310000D01*
X114910000Y-66310000D02*
X111910000Y-66310000D01*
X111910000Y-66310000D02*
X111890000Y-66290000D01*
X115110000Y-66510000D02*
X115110000Y-66610000D01*
X115110000Y-66610000D02*
X115070000Y-66650000D01*
X111199993Y-66290000D02*
X111150000Y-66240007D01*
X111890000Y-71210000D02*
X111890000Y-66290000D01*
X119552150Y-66125000D02*
X119552150Y-66707850D01*
X119552150Y-65475014D02*
X119552150Y-66125000D01*
X111890000Y-66290000D02*
X111199993Y-66290000D01*
D44*
%TO.N,+3.7V*%
X109710000Y-93790000D02*
X109670000Y-93750000D01*
D42*
X121520000Y-95790000D02*
X121520000Y-95660000D01*
D10*
X108720000Y-62140000D02*
X108960000Y-61900000D01*
D42*
X124675000Y-89975000D02*
X124675000Y-89900000D01*
D10*
X108960000Y-61900000D02*
X110809993Y-61900000D01*
X119068800Y-85023100D02*
X119293800Y-85023100D01*
D42*
X121510000Y-93140000D02*
X124675000Y-89975000D01*
X121520000Y-95790000D02*
X121510000Y-95780000D01*
X121510000Y-95780000D02*
X121510000Y-93510000D01*
X121510000Y-95780000D02*
X121510000Y-93140000D01*
X119068800Y-84853100D02*
X119068800Y-86523100D01*
X124675000Y-89900000D02*
X126503100Y-89900000D01*
X118357600Y-91336900D02*
X118357600Y-87234300D01*
X121520000Y-95660000D02*
X121600000Y-95580000D01*
D10*
X110809993Y-61900000D02*
X111150000Y-62240007D01*
D44*
X121520000Y-95790000D02*
X121520000Y-95680000D01*
D42*
X118357600Y-87234300D02*
X119068800Y-86523100D01*
X120640000Y-93140000D02*
X118575000Y-91075000D01*
X121510000Y-93140000D02*
X120640000Y-93140000D01*
D10*
X120559999Y-84079997D02*
X120559999Y-84579999D01*
D42*
X118575000Y-91605000D02*
X118575000Y-89830000D01*
%TO.N,Net-(U5-SW)*%
X121300000Y-86530000D02*
X121293800Y-86523800D01*
D45*
X121293800Y-84291198D02*
X121293800Y-83761198D01*
D42*
X121025000Y-89830000D02*
X121025000Y-86805000D01*
D45*
X121303800Y-88403100D02*
X121050000Y-88656900D01*
D42*
X121293800Y-86523800D02*
X121293800Y-85523100D01*
D45*
X121293800Y-83761198D02*
X121505001Y-83549997D01*
D42*
X121025000Y-86805000D02*
X121300000Y-86530000D01*
D45*
X121050000Y-88656900D02*
X121050000Y-90053100D01*
X121505001Y-83549997D02*
X122040001Y-83549997D01*
X121293800Y-85523100D02*
X121293800Y-84291198D01*
D10*
%TO.N,Net-(Q3-B)*%
X132900000Y-82700000D02*
X133397500Y-83197500D01*
X133397500Y-83197500D02*
X134254800Y-83197500D01*
X132046900Y-82700000D02*
X132900000Y-82700000D01*
%TO.N,/Power Management/Vfb*%
X118580000Y-82230000D02*
X116280000Y-82230000D01*
X120299998Y-83049998D02*
X120559999Y-83049998D01*
X118580000Y-82230000D02*
X119480000Y-82230000D01*
X118980000Y-82230000D02*
X118580000Y-82230000D01*
X119480000Y-82230000D02*
X120299998Y-83049998D01*
%TO.N,Net-(U6-OUT)*%
X132200000Y-85525000D02*
X132200000Y-84900000D01*
X132200000Y-84900000D02*
X132000000Y-84700000D01*
X130576049Y-84700000D02*
X130499999Y-84776050D01*
X132000000Y-84700000D02*
X130576049Y-84700000D01*
X130548949Y-84825000D02*
X130499999Y-84776050D01*
%TO.N,Net-(U6-IN-)*%
X131453100Y-91400000D02*
X131453100Y-89153100D01*
X130500000Y-88200000D02*
X130500000Y-87650000D01*
X131400000Y-89100000D02*
X130500000Y-88200000D01*
X131453100Y-89153100D02*
X131400000Y-89100000D01*
X131725000Y-87075000D02*
X131500000Y-87300000D01*
X130551049Y-87075000D02*
X130499999Y-87023950D01*
X132200000Y-87075000D02*
X131725000Y-87075000D01*
X130650000Y-87300000D02*
X130500000Y-87150000D01*
X131500000Y-87300000D02*
X130650000Y-87300000D01*
%TO.N,/PTAT_Bandgap/Vptat*%
X122893000Y-69925000D02*
X122965000Y-69997000D01*
X120675000Y-65075000D02*
X120675000Y-69325000D01*
X120675000Y-69325000D02*
X119975000Y-70025000D01*
X119975000Y-70025000D02*
X122893000Y-70025000D01*
X120425028Y-64825028D02*
X120675000Y-65075000D01*
X119552150Y-64825028D02*
X120425028Y-64825028D01*
%TO.N,+5V*%
X124430000Y-53400000D02*
X124430000Y-52070000D01*
X109875000Y-55700000D02*
X108800000Y-55700000D01*
X108890016Y-63460000D02*
X109110008Y-63240008D01*
D42*
X124450000Y-46950000D02*
X124500000Y-47000000D01*
X136327250Y-84150000D02*
X136322250Y-84145000D01*
X124450000Y-46730000D02*
X124450000Y-45560000D01*
D10*
X109070000Y-51520000D02*
X109070000Y-51895000D01*
X133650000Y-48460000D02*
X133650000Y-49350000D01*
D42*
X138200000Y-84150000D02*
X136327250Y-84150000D01*
D10*
X108750000Y-55750000D02*
X108800000Y-55700000D01*
X124430000Y-52070000D02*
X124500000Y-52000000D01*
X133650000Y-49350000D02*
X133500000Y-49500000D01*
X109070000Y-51895000D02*
X109875000Y-52700000D01*
X109110008Y-63240008D02*
X111150000Y-63240008D01*
X108880000Y-63460000D02*
X108890016Y-63460000D01*
D42*
X124450000Y-46730000D02*
X124450000Y-46950000D01*
X124450000Y-45560000D02*
X124680000Y-45330000D01*
D10*
%TO.N,/PTAT_Bandgap/Vbg*%
X137325000Y-71050000D02*
X137600000Y-71050000D01*
X118025000Y-72225000D02*
X118025000Y-64600542D01*
X121490100Y-74078100D02*
X119975000Y-74078100D01*
X117599500Y-64175042D02*
X116897850Y-64175042D01*
X138524998Y-70125002D02*
X138524998Y-69924502D01*
X121475000Y-75625000D02*
X122793000Y-75625000D01*
X137600000Y-71050000D02*
X138524998Y-70125002D01*
X119975000Y-74078100D02*
X119878100Y-74078100D01*
X122793000Y-75625000D02*
X122965000Y-75453000D01*
X119878100Y-74078100D02*
X118025000Y-72225000D01*
X118025000Y-64600542D02*
X117599500Y-64175042D01*
X122965000Y-75553000D02*
X121490100Y-74078100D01*
%TO.N,Net-(Q8-D)*%
X127125000Y-54000000D02*
X127125000Y-54375000D01*
X127125000Y-54375000D02*
X125900000Y-55600000D01*
X125900000Y-55600000D02*
X123480000Y-55600000D01*
%TO.N,Net-(Q6-D)*%
X124000000Y-50500000D02*
X128000000Y-50500000D01*
X128000000Y-50500000D02*
X128875000Y-51375000D01*
X123500000Y-50000000D02*
X124000000Y-50500000D01*
X128875000Y-51375000D02*
X128875000Y-53000000D01*
X123500000Y-48930000D02*
X123500000Y-50000000D01*
%TO.N,/LED_Driver/Current Sink*%
X127000000Y-52875000D02*
X127125000Y-53000000D01*
X126940000Y-49440000D02*
X127000000Y-49500000D01*
X127125000Y-53000000D02*
X127875000Y-53000000D01*
X127875000Y-53000000D02*
X128875000Y-54000000D01*
X126940000Y-47500000D02*
X126940000Y-49440000D01*
X127000000Y-52000000D02*
X127000000Y-52875000D01*
%TO.N,Net-(Q1-B)*%
X115000000Y-51000000D02*
X115000000Y-49000000D01*
X111800000Y-54200000D02*
X115000000Y-51000000D01*
X115000000Y-49000000D02*
X115500000Y-48500000D01*
X111712500Y-54200000D02*
X111800000Y-54200000D01*
X115500000Y-48500000D02*
X118012500Y-48500000D01*
%TO.N,Net-(Q1-C)*%
X113870000Y-51130000D02*
X113870000Y-48570000D01*
X114890000Y-47550000D02*
X113870000Y-48570000D01*
X119887500Y-47550000D02*
X114890000Y-47550000D01*
X119887500Y-47550000D02*
X121730000Y-47550000D01*
X112300000Y-52700000D02*
X113870000Y-51130000D01*
X121980000Y-47260000D02*
X122510000Y-46730000D01*
X111700000Y-52700000D02*
X112300000Y-52700000D01*
X121730000Y-47550000D02*
X122550000Y-46730000D01*
%TO.N,Net-(Q2-C)*%
X119050000Y-53000000D02*
X122130000Y-53000000D01*
X119050000Y-53000000D02*
X114400000Y-53000000D01*
X114400000Y-53000000D02*
X111700000Y-55700000D01*
X122130000Y-53000000D02*
X122530000Y-53400000D01*
%TO.N,Net-(Q2-B)*%
X117175000Y-53950000D02*
X114962500Y-53950000D01*
X114962500Y-53950000D02*
X111712500Y-57200000D01*
%TO.N,Net-(U8--IN)*%
X130850000Y-46960000D02*
X130850000Y-47080000D01*
X131528000Y-50028000D02*
X137797000Y-50028000D01*
X130900000Y-49400000D02*
X131528000Y-50028000D01*
X129590000Y-47080000D02*
X129060000Y-46550000D01*
X132350000Y-46540000D02*
X132130000Y-46760000D01*
X130850000Y-47080000D02*
X129590000Y-47080000D01*
X132130000Y-46760000D02*
X131050000Y-46760000D01*
X131050000Y-46760000D02*
X130850000Y-46960000D01*
X137797000Y-50028000D02*
X138825000Y-49000000D01*
%TO.N,Net-(U8-OUT)*%
X129070000Y-48460000D02*
X129060000Y-48450000D01*
X132350000Y-48460000D02*
X129070000Y-48460000D01*
%TO.N,Net-(Q7-Pad1)*%
X131940000Y-52050000D02*
X131940000Y-51160000D01*
X131940000Y-51160000D02*
X132310000Y-50790000D01*
X132310000Y-50790000D02*
X136997500Y-50790000D01*
%TO.N,Net-(U2-ANODE)*%
X127996900Y-91895500D02*
X128025000Y-91923600D01*
X129250000Y-88200000D02*
X129250000Y-88673600D01*
X127996900Y-89900000D02*
X127996900Y-91895500D01*
X128023600Y-89900000D02*
X129250000Y-88673600D01*
X127996900Y-89900000D02*
X128023600Y-89900000D01*
D43*
%TO.N,/OP_CTRL*%
X138825000Y-56055000D02*
X137340000Y-57540000D01*
X138825000Y-50500000D02*
X138825000Y-56055000D01*
D10*
X113390000Y-64800000D02*
X112440000Y-64800000D01*
X112650000Y-67075000D02*
X112650000Y-76250000D01*
X112650000Y-67075000D02*
X112650000Y-67050000D01*
X112440000Y-64800000D02*
X112070000Y-65170000D01*
D43*
X113400000Y-59200000D02*
X113400000Y-64790000D01*
D10*
X111220006Y-65170000D02*
X111150000Y-65240006D01*
X112650000Y-76250000D02*
X110244988Y-78655012D01*
D43*
X112860000Y-58660000D02*
X113400000Y-59200000D01*
D10*
X112070000Y-65170000D02*
X111220006Y-65170000D01*
D43*
X116460000Y-57540000D02*
X115290000Y-58710000D01*
D10*
X110225000Y-78655012D02*
X109385000Y-78655012D01*
D43*
X137340000Y-57540000D02*
X116460000Y-57540000D01*
D10*
X110244988Y-78655012D02*
X109935000Y-78655012D01*
D43*
X113400000Y-64790000D02*
X113390000Y-64800000D01*
D10*
%TO.N,/V_bandgap*%
X138170000Y-53260000D02*
X138170000Y-55230000D01*
X116897850Y-64825028D02*
X116897850Y-65475014D01*
X115374986Y-65475014D02*
X116897850Y-65475014D01*
X109670000Y-70890000D02*
X111150000Y-69410000D01*
X136500000Y-56900000D02*
X115400000Y-56900000D01*
X137000000Y-52535000D02*
X137445000Y-52535000D01*
X115625028Y-64825028D02*
X116897850Y-64825028D01*
X114250000Y-63450000D02*
X115625028Y-64825028D01*
X115400000Y-56900000D02*
X114250000Y-58050000D01*
X111150000Y-69410000D02*
X111150000Y-66740006D01*
X138170000Y-55230000D02*
X136500000Y-56900000D01*
X115260000Y-65470000D02*
X115369972Y-65470000D01*
X114980000Y-65190000D02*
X115260000Y-65470000D01*
X114250000Y-58050000D02*
X114250000Y-63450000D01*
X137445000Y-52535000D02*
X138170000Y-53260000D01*
X115369972Y-65470000D02*
X115374986Y-65475014D01*
%TO.N,/PWM_Red*%
X110399994Y-64240006D02*
X111150000Y-64240006D01*
X108090000Y-59760000D02*
X109830000Y-61500000D01*
X109887500Y-54200000D02*
X109050000Y-54200000D01*
X109835000Y-83735012D02*
X108000000Y-81900012D01*
X109830000Y-61500000D02*
X111500000Y-61500000D01*
X111606001Y-64240006D02*
X111150000Y-64240006D01*
X108000000Y-81900012D02*
X108000000Y-69360000D01*
X111500000Y-61500000D02*
X111750000Y-61750000D01*
X108090000Y-55160000D02*
X108090000Y-59760000D01*
X111750000Y-61750000D02*
X111750000Y-64096007D01*
X111750000Y-64096007D02*
X111606001Y-64240006D01*
X108000000Y-69360000D02*
X109600000Y-67760000D01*
X109600000Y-65040000D02*
X110399994Y-64240006D01*
X109600000Y-67760000D02*
X109600000Y-65040000D01*
X109050000Y-54200000D02*
X108090000Y-55160000D01*
%TO.N,Net-(U8-+IN)*%
X137000000Y-54360000D02*
X135420000Y-54360000D01*
X135160000Y-51900000D02*
X134060000Y-53000000D01*
X135420000Y-54360000D02*
X134060000Y-53000000D01*
X135550000Y-51900000D02*
X135160000Y-51900000D01*
X135150000Y-46550000D02*
X135140000Y-46540000D01*
X135140000Y-46540000D02*
X133650000Y-46540000D01*
%TO.N,Net-(J2-Pin_2)*%
X116150003Y-83549997D02*
X120559999Y-83549997D01*
X143360000Y-86240000D02*
X140500000Y-89100000D01*
X118600000Y-99100000D02*
X114300000Y-94800000D01*
X114300000Y-85400000D02*
X116150003Y-83549997D01*
X140500000Y-95300000D02*
X136700000Y-99100000D01*
X114300000Y-94800000D02*
X114300000Y-85400000D01*
X140500000Y-89100000D02*
X140500000Y-95300000D01*
X145840000Y-86240000D02*
X143360000Y-86240000D01*
X136700000Y-99100000D02*
X118600000Y-99100000D01*
D42*
%TO.N,Net-(J2-Pin_3)*%
X143673100Y-88780000D02*
X142400000Y-90053100D01*
X145840000Y-88780000D02*
X143673100Y-88780000D01*
%TD*%
%TA.AperFunction,Conductor*%
%TO.N,GND*%
G36*
X127543039Y-83819685D02*
G01*
X127588794Y-83872489D01*
X127600000Y-83924000D01*
X127600000Y-87176000D01*
X127580315Y-87243039D01*
X127527511Y-87288794D01*
X127476000Y-87300000D01*
X124499444Y-87300000D01*
X124432405Y-87280315D01*
X124414121Y-87265977D01*
X121609977Y-84606874D01*
X121574876Y-84546461D01*
X121571300Y-84516897D01*
X121571300Y-84024497D01*
X121590985Y-83957458D01*
X121643789Y-83911703D01*
X121695300Y-83900497D01*
X122394752Y-83900497D01*
X122394753Y-83900496D01*
X122409570Y-83897549D01*
X122453231Y-83888865D01*
X122453231Y-83888864D01*
X122453233Y-83888864D01*
X122519554Y-83844549D01*
X122519555Y-83844548D01*
X122527785Y-83836319D01*
X122589108Y-83802834D01*
X122615466Y-83800000D01*
X127476000Y-83800000D01*
X127543039Y-83819685D01*
G37*
%TD.AperFunction*%
%TD*%
%TA.AperFunction,Conductor*%
%TO.N,+3.7V*%
G36*
X118293800Y-87323100D02*
G01*
X119660000Y-87323100D01*
X119660000Y-91700000D01*
X120112840Y-91700000D01*
X120179879Y-91719685D01*
X120225634Y-91772489D01*
X120234457Y-91799809D01*
X120236131Y-91808229D01*
X120236132Y-91808230D01*
X120280447Y-91874552D01*
X120346769Y-91918867D01*
X120346770Y-91918868D01*
X120405247Y-91930499D01*
X120405250Y-91930500D01*
X120405252Y-91930500D01*
X121644750Y-91930500D01*
X121644751Y-91930499D01*
X121659568Y-91927552D01*
X121703229Y-91918868D01*
X121703229Y-91918867D01*
X121703231Y-91918867D01*
X121769552Y-91874552D01*
X121813867Y-91808231D01*
X121813867Y-91808229D01*
X121818542Y-91796946D01*
X121822050Y-91798399D01*
X121844376Y-91755705D01*
X121905087Y-91721122D01*
X121935487Y-91717810D01*
X122449416Y-91725597D01*
X124364791Y-89764069D01*
X124425708Y-89729858D01*
X124495454Y-89734013D01*
X124551882Y-89775215D01*
X124566820Y-89800341D01*
X124759305Y-90233432D01*
X124768544Y-90302688D01*
X124738874Y-90365945D01*
X124737393Y-90367590D01*
X124325030Y-90817369D01*
X124403389Y-97295949D01*
X124384517Y-97363222D01*
X124332270Y-97409612D01*
X124275916Y-97421400D01*
X119640518Y-97291192D01*
X119574058Y-97269633D01*
X119529804Y-97215565D01*
X119520000Y-97167241D01*
X119520000Y-93351903D01*
X118348957Y-91799809D01*
X117767147Y-91028680D01*
X117742484Y-90963310D01*
X117742282Y-90947954D01*
X117924192Y-87228736D01*
X117947128Y-87162741D01*
X117991752Y-87124311D01*
X117997020Y-87121628D01*
X118092328Y-87026320D01*
X118153519Y-86906226D01*
X118153520Y-86906221D01*
X118169300Y-86806593D01*
X118169300Y-86540341D01*
X118188985Y-86473302D01*
X118241789Y-86427547D01*
X118242201Y-86427359D01*
X118293800Y-86404178D01*
X118293800Y-87323100D01*
G37*
%TD.AperFunction*%
%TD*%
%TA.AperFunction,Conductor*%
%TO.N,+3.7V*%
G36*
X120077769Y-83842785D02*
G01*
X120079621Y-83843998D01*
X120146767Y-83888864D01*
X120146768Y-83888865D01*
X120205245Y-83900496D01*
X120205248Y-83900497D01*
X120869800Y-83900497D01*
X120936839Y-83920182D01*
X120982594Y-83972986D01*
X120993800Y-84024497D01*
X120993800Y-85254490D01*
X120977187Y-85316490D01*
X120942027Y-85377387D01*
X120942026Y-85377391D01*
X120916300Y-85473401D01*
X120916300Y-85473403D01*
X120916300Y-85952177D01*
X120910655Y-85989163D01*
X120738293Y-86540719D01*
X120725533Y-86565334D01*
X120726987Y-86566174D01*
X120673228Y-86659284D01*
X120673227Y-86659287D01*
X120647500Y-86755301D01*
X120647500Y-86812334D01*
X120641856Y-86849320D01*
X120520992Y-87236086D01*
X120482207Y-87294202D01*
X120418159Y-87322125D01*
X120402636Y-87323100D01*
X118293800Y-87323100D01*
X118293800Y-83947100D01*
X118313485Y-83880061D01*
X118366289Y-83834306D01*
X118417800Y-83823100D01*
X120010730Y-83823100D01*
X120077769Y-83842785D01*
G37*
%TD.AperFunction*%
%TD*%
%TA.AperFunction,Conductor*%
%TO.N,GND*%
G36*
X117152697Y-79749685D02*
G01*
X117198452Y-79802489D01*
X117209658Y-79854000D01*
X117209658Y-80124100D01*
X117189973Y-80191139D01*
X117137169Y-80236894D01*
X117068011Y-80246838D01*
X117004455Y-80217813D01*
X116982556Y-80192991D01*
X116955139Y-80151960D01*
X116872444Y-80096705D01*
X116872440Y-80096703D01*
X116799527Y-80082200D01*
X116430000Y-80082200D01*
X116430000Y-80612200D01*
X116427449Y-80620885D01*
X116428738Y-80629847D01*
X116417759Y-80653887D01*
X116410315Y-80679239D01*
X116403474Y-80685166D01*
X116399713Y-80693403D01*
X116377478Y-80707692D01*
X116357511Y-80724994D01*
X116346996Y-80727281D01*
X116340935Y-80731177D01*
X116306000Y-80736200D01*
X116280000Y-80736200D01*
X116280000Y-80762200D01*
X116260315Y-80829239D01*
X116207511Y-80874994D01*
X116156000Y-80886200D01*
X115535100Y-80886200D01*
X115535100Y-81164828D01*
X115549603Y-81237740D01*
X115549603Y-81237741D01*
X115551447Y-81240500D01*
X115553615Y-81247426D01*
X115554278Y-81249025D01*
X115554134Y-81249084D01*
X115572325Y-81307178D01*
X115553841Y-81374558D01*
X115501862Y-81421249D01*
X115448584Y-81433392D01*
X113233897Y-81437660D01*
X113166820Y-81418104D01*
X113120963Y-81365389D01*
X113109658Y-81313660D01*
X113109658Y-80307571D01*
X115535100Y-80307571D01*
X115535100Y-80586200D01*
X116130000Y-80586200D01*
X116130000Y-80082200D01*
X115760473Y-80082200D01*
X115687559Y-80096703D01*
X115687555Y-80096705D01*
X115604860Y-80151960D01*
X115549605Y-80234655D01*
X115549603Y-80234659D01*
X115535100Y-80307571D01*
X113109658Y-80307571D01*
X113109658Y-79854000D01*
X113129343Y-79786961D01*
X113182147Y-79741206D01*
X113233658Y-79730000D01*
X117085658Y-79730000D01*
X117152697Y-79749685D01*
G37*
%TD.AperFunction*%
%TD*%
%TA.AperFunction,Conductor*%
%TO.N,+3V3*%
G36*
X135983053Y-72931810D02*
G01*
X137123860Y-73075000D01*
X138099860Y-73075000D01*
X138166899Y-73094685D01*
X138212654Y-73147489D01*
X138223860Y-73199000D01*
X138223860Y-73876800D01*
X138204175Y-73943839D01*
X138151371Y-73989594D01*
X138099860Y-74000800D01*
X137284908Y-74000800D01*
X137274027Y-74011681D01*
X137214230Y-74044823D01*
X136512333Y-74206800D01*
X135988758Y-74327625D01*
X135960875Y-74330800D01*
X135649500Y-74330800D01*
X135582461Y-74311115D01*
X135536706Y-74258311D01*
X135525500Y-74206800D01*
X135525500Y-73056733D01*
X135545185Y-72989694D01*
X135597989Y-72943939D01*
X135648760Y-72932735D01*
X135966880Y-72930848D01*
X135983053Y-72931810D01*
G37*
%TD.AperFunction*%
%TD*%
%TA.AperFunction,Conductor*%
%TO.N,+3V3*%
G36*
X117368039Y-65923799D02*
G01*
X117413794Y-65976603D01*
X117425000Y-66028114D01*
X117425000Y-66369616D01*
X117424534Y-66380358D01*
X117325000Y-67524992D01*
X117325000Y-68276800D01*
X117305315Y-68343839D01*
X117252511Y-68389594D01*
X117201000Y-68400800D01*
X116449000Y-68400800D01*
X116381961Y-68381115D01*
X116336206Y-68328311D01*
X116325000Y-68276800D01*
X116325000Y-67477694D01*
X116325117Y-67472308D01*
X116375000Y-66324999D01*
X116375000Y-66028114D01*
X116394685Y-65961075D01*
X116447489Y-65915320D01*
X116499000Y-65904114D01*
X117301000Y-65904114D01*
X117368039Y-65923799D01*
G37*
%TD.AperFunction*%
%TD*%
%TA.AperFunction,Conductor*%
%TO.N,+5V*%
G36*
X128435690Y-79861570D02*
G01*
X128502520Y-79881952D01*
X128542925Y-79925580D01*
X129384527Y-81448285D01*
X129400000Y-81508268D01*
X129400000Y-85176000D01*
X129380315Y-85243039D01*
X129327511Y-85288794D01*
X129276000Y-85300000D01*
X128412000Y-85300000D01*
X128344961Y-85280315D01*
X128312800Y-85250400D01*
X127830300Y-84607066D01*
X127805824Y-84541624D01*
X127805500Y-84532666D01*
X127805500Y-83924008D01*
X127805499Y-83923992D01*
X127800803Y-83880316D01*
X127796897Y-83862364D01*
X127789602Y-83828825D01*
X127789348Y-83827789D01*
X127787110Y-83818627D01*
X127744100Y-83737915D01*
X127698345Y-83685111D01*
X127698339Y-83685104D01*
X127680757Y-83667160D01*
X127680756Y-83667159D01*
X127680754Y-83667157D01*
X127680752Y-83667156D01*
X127680750Y-83667154D01*
X127600940Y-83622511D01*
X127600935Y-83622509D01*
X127533903Y-83602826D01*
X127533899Y-83602825D01*
X127533898Y-83602825D01*
X127476000Y-83594500D01*
X127132875Y-83594500D01*
X127065836Y-83574815D01*
X127033675Y-83544900D01*
X126925000Y-83400000D01*
X122679129Y-83400000D01*
X122612090Y-83380315D01*
X122566335Y-83327511D01*
X122564569Y-83323455D01*
X122563869Y-83321766D01*
X122519554Y-83255444D01*
X122453232Y-83211129D01*
X122453231Y-83211128D01*
X122394754Y-83199497D01*
X122394750Y-83199497D01*
X121685252Y-83199497D01*
X121685247Y-83199497D01*
X121626767Y-83211129D01*
X121621450Y-83213332D01*
X121551980Y-83220799D01*
X121489502Y-83189523D01*
X121453851Y-83129433D01*
X121450000Y-83098770D01*
X121450000Y-81639056D01*
X119147836Y-81633707D01*
X119123936Y-81631325D01*
X119098912Y-81626348D01*
X119037000Y-81593964D01*
X119002424Y-81533249D01*
X118999100Y-81504730D01*
X118999100Y-81191000D01*
X118200909Y-81191000D01*
X118133870Y-81171315D01*
X118088115Y-81118511D01*
X118076957Y-81070443D01*
X118043946Y-79882062D01*
X118061761Y-79814502D01*
X118113274Y-79767298D01*
X118169186Y-79754626D01*
X128435690Y-79861570D01*
G37*
%TD.AperFunction*%
%TD*%
M02*
