%TF.GenerationSoftware,KiCad,Pcbnew,9.0.7*%
%TF.CreationDate,2026-04-27T03:30:11-07:00*%
%TF.ProjectId,Secondary_Board,5365636f-6e64-4617-9279-5f426f617264,rev?*%
%TF.SameCoordinates,Original*%
%TF.FileFunction,Legend,Top*%
%TF.FilePolarity,Positive*%
%FSLAX46Y46*%
G04 Gerber Fmt 4.6, Leading zero omitted, Abs format (unit mm)*
G04 Created by KiCad (PCBNEW 9.0.7) date 2026-04-27 03:30:11*
%MOMM*%
%LPD*%
G01*
G04 APERTURE LIST*
%ADD10C,0.200000*%
%ADD11C,0.160000*%
%ADD12C,0.150000*%
%ADD13C,0.254000*%
%ADD14C,0.152400*%
%ADD15C,0.127000*%
%ADD16C,0.100000*%
%ADD17C,0.120000*%
G04 APERTURE END LIST*
D10*
X121925000Y-57875000D02*
X124125000Y-57875000D01*
X124925000Y-57875000D02*
X127125000Y-57875000D01*
X127925000Y-57875000D02*
X130125000Y-57875000D01*
X130925000Y-57875000D02*
X131875000Y-57875000D01*
X131875000Y-57875000D02*
X131875000Y-60075000D01*
X131875000Y-60875000D02*
X131875000Y-63075000D01*
X131875000Y-63875000D02*
X131875000Y-66075000D01*
X131875000Y-66875000D02*
X131875000Y-69075000D01*
X131875000Y-69875000D02*
X131875000Y-72075000D01*
X131875000Y-72875000D02*
X131875000Y-75075000D01*
X131875000Y-75875000D02*
X131875000Y-77250000D01*
X131875000Y-77250000D02*
X129675000Y-77250000D01*
X128875000Y-77250000D02*
X126675000Y-77250000D01*
X125875000Y-77250000D02*
X123675000Y-77250000D01*
X122875000Y-77250000D02*
X121925000Y-77250000D01*
X121925000Y-77250000D02*
X121925000Y-75050000D01*
X121925000Y-74250000D02*
X121925000Y-72050000D01*
X121925000Y-71250000D02*
X121925000Y-69050000D01*
X121925000Y-68250000D02*
X121925000Y-66050000D01*
X121925000Y-65250000D02*
X121925000Y-63050000D01*
X121925000Y-62250000D02*
X121925000Y-60050000D01*
X121925000Y-59250000D02*
X121925000Y-57875000D01*
X122782768Y-58266695D02*
X123239911Y-58266695D01*
X123011339Y-59066695D02*
X123011339Y-58266695D01*
X123811340Y-59028600D02*
X123735149Y-59066695D01*
X123735149Y-59066695D02*
X123582768Y-59066695D01*
X123582768Y-59066695D02*
X123506578Y-59028600D01*
X123506578Y-59028600D02*
X123468482Y-58952409D01*
X123468482Y-58952409D02*
X123468482Y-58647647D01*
X123468482Y-58647647D02*
X123506578Y-58571457D01*
X123506578Y-58571457D02*
X123582768Y-58533361D01*
X123582768Y-58533361D02*
X123735149Y-58533361D01*
X123735149Y-58533361D02*
X123811340Y-58571457D01*
X123811340Y-58571457D02*
X123849435Y-58647647D01*
X123849435Y-58647647D02*
X123849435Y-58723838D01*
X123849435Y-58723838D02*
X123468482Y-58800028D01*
X124192292Y-59066695D02*
X124192292Y-58533361D01*
X124192292Y-58609552D02*
X124230387Y-58571457D01*
X124230387Y-58571457D02*
X124306577Y-58533361D01*
X124306577Y-58533361D02*
X124420863Y-58533361D01*
X124420863Y-58533361D02*
X124497054Y-58571457D01*
X124497054Y-58571457D02*
X124535149Y-58647647D01*
X124535149Y-58647647D02*
X124535149Y-59066695D01*
X124535149Y-58647647D02*
X124573244Y-58571457D01*
X124573244Y-58571457D02*
X124649435Y-58533361D01*
X124649435Y-58533361D02*
X124763720Y-58533361D01*
X124763720Y-58533361D02*
X124839911Y-58571457D01*
X124839911Y-58571457D02*
X124878006Y-58647647D01*
X124878006Y-58647647D02*
X124878006Y-59066695D01*
X125258959Y-58533361D02*
X125258959Y-59333361D01*
X125258959Y-58571457D02*
X125335149Y-58533361D01*
X125335149Y-58533361D02*
X125487530Y-58533361D01*
X125487530Y-58533361D02*
X125563721Y-58571457D01*
X125563721Y-58571457D02*
X125601816Y-58609552D01*
X125601816Y-58609552D02*
X125639911Y-58685742D01*
X125639911Y-58685742D02*
X125639911Y-58914314D01*
X125639911Y-58914314D02*
X125601816Y-58990504D01*
X125601816Y-58990504D02*
X125563721Y-59028600D01*
X125563721Y-59028600D02*
X125487530Y-59066695D01*
X125487530Y-59066695D02*
X125335149Y-59066695D01*
X125335149Y-59066695D02*
X125258959Y-59028600D01*
X127049436Y-58990504D02*
X127011340Y-59028600D01*
X127011340Y-59028600D02*
X126897055Y-59066695D01*
X126897055Y-59066695D02*
X126820864Y-59066695D01*
X126820864Y-59066695D02*
X126706578Y-59028600D01*
X126706578Y-59028600D02*
X126630388Y-58952409D01*
X126630388Y-58952409D02*
X126592293Y-58876219D01*
X126592293Y-58876219D02*
X126554197Y-58723838D01*
X126554197Y-58723838D02*
X126554197Y-58609552D01*
X126554197Y-58609552D02*
X126592293Y-58457171D01*
X126592293Y-58457171D02*
X126630388Y-58380980D01*
X126630388Y-58380980D02*
X126706578Y-58304790D01*
X126706578Y-58304790D02*
X126820864Y-58266695D01*
X126820864Y-58266695D02*
X126897055Y-58266695D01*
X126897055Y-58266695D02*
X127011340Y-58304790D01*
X127011340Y-58304790D02*
X127049436Y-58342885D01*
X127506578Y-59066695D02*
X127430388Y-59028600D01*
X127430388Y-59028600D02*
X127392293Y-58990504D01*
X127392293Y-58990504D02*
X127354197Y-58914314D01*
X127354197Y-58914314D02*
X127354197Y-58685742D01*
X127354197Y-58685742D02*
X127392293Y-58609552D01*
X127392293Y-58609552D02*
X127430388Y-58571457D01*
X127430388Y-58571457D02*
X127506578Y-58533361D01*
X127506578Y-58533361D02*
X127620864Y-58533361D01*
X127620864Y-58533361D02*
X127697055Y-58571457D01*
X127697055Y-58571457D02*
X127735150Y-58609552D01*
X127735150Y-58609552D02*
X127773245Y-58685742D01*
X127773245Y-58685742D02*
X127773245Y-58914314D01*
X127773245Y-58914314D02*
X127735150Y-58990504D01*
X127735150Y-58990504D02*
X127697055Y-59028600D01*
X127697055Y-59028600D02*
X127620864Y-59066695D01*
X127620864Y-59066695D02*
X127506578Y-59066695D01*
X128116103Y-58533361D02*
X128116103Y-59066695D01*
X128116103Y-58609552D02*
X128154198Y-58571457D01*
X128154198Y-58571457D02*
X128230388Y-58533361D01*
X128230388Y-58533361D02*
X128344674Y-58533361D01*
X128344674Y-58533361D02*
X128420865Y-58571457D01*
X128420865Y-58571457D02*
X128458960Y-58647647D01*
X128458960Y-58647647D02*
X128458960Y-59066695D01*
X128725627Y-58533361D02*
X129030389Y-58533361D01*
X128839913Y-58266695D02*
X128839913Y-58952409D01*
X128839913Y-58952409D02*
X128878008Y-59028600D01*
X128878008Y-59028600D02*
X128954198Y-59066695D01*
X128954198Y-59066695D02*
X129030389Y-59066695D01*
X129639913Y-59066695D02*
X129639913Y-58647647D01*
X129639913Y-58647647D02*
X129601818Y-58571457D01*
X129601818Y-58571457D02*
X129525627Y-58533361D01*
X129525627Y-58533361D02*
X129373246Y-58533361D01*
X129373246Y-58533361D02*
X129297056Y-58571457D01*
X129639913Y-59028600D02*
X129563722Y-59066695D01*
X129563722Y-59066695D02*
X129373246Y-59066695D01*
X129373246Y-59066695D02*
X129297056Y-59028600D01*
X129297056Y-59028600D02*
X129258960Y-58952409D01*
X129258960Y-58952409D02*
X129258960Y-58876219D01*
X129258960Y-58876219D02*
X129297056Y-58800028D01*
X129297056Y-58800028D02*
X129373246Y-58761933D01*
X129373246Y-58761933D02*
X129563722Y-58761933D01*
X129563722Y-58761933D02*
X129639913Y-58723838D01*
X130363723Y-59028600D02*
X130287532Y-59066695D01*
X130287532Y-59066695D02*
X130135151Y-59066695D01*
X130135151Y-59066695D02*
X130058961Y-59028600D01*
X130058961Y-59028600D02*
X130020866Y-58990504D01*
X130020866Y-58990504D02*
X129982770Y-58914314D01*
X129982770Y-58914314D02*
X129982770Y-58685742D01*
X129982770Y-58685742D02*
X130020866Y-58609552D01*
X130020866Y-58609552D02*
X130058961Y-58571457D01*
X130058961Y-58571457D02*
X130135151Y-58533361D01*
X130135151Y-58533361D02*
X130287532Y-58533361D01*
X130287532Y-58533361D02*
X130363723Y-58571457D01*
X130592294Y-58533361D02*
X130897056Y-58533361D01*
X130706580Y-58266695D02*
X130706580Y-58952409D01*
X130706580Y-58952409D02*
X130744675Y-59028600D01*
X130744675Y-59028600D02*
X130820865Y-59066695D01*
X130820865Y-59066695D02*
X130897056Y-59066695D01*
D11*
X111231453Y-70350585D02*
X111498120Y-71150585D01*
X111498120Y-71150585D02*
X111764786Y-70350585D01*
X112031453Y-71150585D02*
X112031453Y-70350585D01*
X112031453Y-70655347D02*
X112107643Y-70617251D01*
X112107643Y-70617251D02*
X112260024Y-70617251D01*
X112260024Y-70617251D02*
X112336215Y-70655347D01*
X112336215Y-70655347D02*
X112374310Y-70693442D01*
X112374310Y-70693442D02*
X112412405Y-70769632D01*
X112412405Y-70769632D02*
X112412405Y-70998204D01*
X112412405Y-70998204D02*
X112374310Y-71074394D01*
X112374310Y-71074394D02*
X112336215Y-71112490D01*
X112336215Y-71112490D02*
X112260024Y-71150585D01*
X112260024Y-71150585D02*
X112107643Y-71150585D01*
X112107643Y-71150585D02*
X112031453Y-71112490D01*
X113098120Y-70617251D02*
X113098120Y-71264870D01*
X113098120Y-71264870D02*
X113060025Y-71341061D01*
X113060025Y-71341061D02*
X113021929Y-71379156D01*
X113021929Y-71379156D02*
X112945739Y-71417251D01*
X112945739Y-71417251D02*
X112831453Y-71417251D01*
X112831453Y-71417251D02*
X112755263Y-71379156D01*
X113098120Y-71112490D02*
X113021929Y-71150585D01*
X113021929Y-71150585D02*
X112869548Y-71150585D01*
X112869548Y-71150585D02*
X112793358Y-71112490D01*
X112793358Y-71112490D02*
X112755263Y-71074394D01*
X112755263Y-71074394D02*
X112717167Y-70998204D01*
X112717167Y-70998204D02*
X112717167Y-70769632D01*
X112717167Y-70769632D02*
X112755263Y-70693442D01*
X112755263Y-70693442D02*
X112793358Y-70655347D01*
X112793358Y-70655347D02*
X112869548Y-70617251D01*
X112869548Y-70617251D02*
X113021929Y-70617251D01*
X113021929Y-70617251D02*
X113098120Y-70655347D01*
X111231453Y-72926495D02*
X111498120Y-73726495D01*
X111498120Y-73726495D02*
X111764786Y-72926495D01*
X112031453Y-73193161D02*
X112031453Y-73993161D01*
X112031453Y-73231257D02*
X112107643Y-73193161D01*
X112107643Y-73193161D02*
X112260024Y-73193161D01*
X112260024Y-73193161D02*
X112336215Y-73231257D01*
X112336215Y-73231257D02*
X112374310Y-73269352D01*
X112374310Y-73269352D02*
X112412405Y-73345542D01*
X112412405Y-73345542D02*
X112412405Y-73574114D01*
X112412405Y-73574114D02*
X112374310Y-73650304D01*
X112374310Y-73650304D02*
X112336215Y-73688400D01*
X112336215Y-73688400D02*
X112260024Y-73726495D01*
X112260024Y-73726495D02*
X112107643Y-73726495D01*
X112107643Y-73726495D02*
X112031453Y-73688400D01*
X112640977Y-73193161D02*
X112945739Y-73193161D01*
X112755263Y-72926495D02*
X112755263Y-73612209D01*
X112755263Y-73612209D02*
X112793358Y-73688400D01*
X112793358Y-73688400D02*
X112869548Y-73726495D01*
X112869548Y-73726495D02*
X112945739Y-73726495D01*
X113555263Y-73726495D02*
X113555263Y-73307447D01*
X113555263Y-73307447D02*
X113517168Y-73231257D01*
X113517168Y-73231257D02*
X113440977Y-73193161D01*
X113440977Y-73193161D02*
X113288596Y-73193161D01*
X113288596Y-73193161D02*
X113212406Y-73231257D01*
X113555263Y-73688400D02*
X113479072Y-73726495D01*
X113479072Y-73726495D02*
X113288596Y-73726495D01*
X113288596Y-73726495D02*
X113212406Y-73688400D01*
X113212406Y-73688400D02*
X113174310Y-73612209D01*
X113174310Y-73612209D02*
X113174310Y-73536019D01*
X113174310Y-73536019D02*
X113212406Y-73459828D01*
X113212406Y-73459828D02*
X113288596Y-73421733D01*
X113288596Y-73421733D02*
X113479072Y-73421733D01*
X113479072Y-73421733D02*
X113555263Y-73383638D01*
X113821930Y-73193161D02*
X114126692Y-73193161D01*
X113936216Y-72926495D02*
X113936216Y-73612209D01*
X113936216Y-73612209D02*
X113974311Y-73688400D01*
X113974311Y-73688400D02*
X114050501Y-73726495D01*
X114050501Y-73726495D02*
X114126692Y-73726495D01*
X111764786Y-75540500D02*
X111688596Y-75502405D01*
X111688596Y-75502405D02*
X111574310Y-75502405D01*
X111574310Y-75502405D02*
X111460024Y-75540500D01*
X111460024Y-75540500D02*
X111383834Y-75616690D01*
X111383834Y-75616690D02*
X111345739Y-75692881D01*
X111345739Y-75692881D02*
X111307643Y-75845262D01*
X111307643Y-75845262D02*
X111307643Y-75959548D01*
X111307643Y-75959548D02*
X111345739Y-76111929D01*
X111345739Y-76111929D02*
X111383834Y-76188119D01*
X111383834Y-76188119D02*
X111460024Y-76264310D01*
X111460024Y-76264310D02*
X111574310Y-76302405D01*
X111574310Y-76302405D02*
X111650501Y-76302405D01*
X111650501Y-76302405D02*
X111764786Y-76264310D01*
X111764786Y-76264310D02*
X111802882Y-76226214D01*
X111802882Y-76226214D02*
X111802882Y-75959548D01*
X111802882Y-75959548D02*
X111650501Y-75959548D01*
X112145739Y-75769071D02*
X112145739Y-76302405D01*
X112145739Y-75845262D02*
X112183834Y-75807167D01*
X112183834Y-75807167D02*
X112260024Y-75769071D01*
X112260024Y-75769071D02*
X112374310Y-75769071D01*
X112374310Y-75769071D02*
X112450501Y-75807167D01*
X112450501Y-75807167D02*
X112488596Y-75883357D01*
X112488596Y-75883357D02*
X112488596Y-76302405D01*
X113212406Y-76302405D02*
X113212406Y-75502405D01*
X113212406Y-76264310D02*
X113136215Y-76302405D01*
X113136215Y-76302405D02*
X112983834Y-76302405D01*
X112983834Y-76302405D02*
X112907644Y-76264310D01*
X112907644Y-76264310D02*
X112869549Y-76226214D01*
X112869549Y-76226214D02*
X112831453Y-76150024D01*
X112831453Y-76150024D02*
X112831453Y-75921452D01*
X112831453Y-75921452D02*
X112869549Y-75845262D01*
X112869549Y-75845262D02*
X112907644Y-75807167D01*
X112907644Y-75807167D02*
X112983834Y-75769071D01*
X112983834Y-75769071D02*
X113136215Y-75769071D01*
X113136215Y-75769071D02*
X113212406Y-75807167D01*
X111802882Y-78802124D02*
X111764786Y-78840220D01*
X111764786Y-78840220D02*
X111650501Y-78878315D01*
X111650501Y-78878315D02*
X111574310Y-78878315D01*
X111574310Y-78878315D02*
X111460024Y-78840220D01*
X111460024Y-78840220D02*
X111383834Y-78764029D01*
X111383834Y-78764029D02*
X111345739Y-78687839D01*
X111345739Y-78687839D02*
X111307643Y-78535458D01*
X111307643Y-78535458D02*
X111307643Y-78421172D01*
X111307643Y-78421172D02*
X111345739Y-78268791D01*
X111345739Y-78268791D02*
X111383834Y-78192600D01*
X111383834Y-78192600D02*
X111460024Y-78116410D01*
X111460024Y-78116410D02*
X111574310Y-78078315D01*
X111574310Y-78078315D02*
X111650501Y-78078315D01*
X111650501Y-78078315D02*
X111764786Y-78116410D01*
X111764786Y-78116410D02*
X111802882Y-78154505D01*
X112031453Y-78078315D02*
X112488596Y-78078315D01*
X112260024Y-78878315D02*
X112260024Y-78078315D01*
X113212406Y-78878315D02*
X112945739Y-78497362D01*
X112755263Y-78878315D02*
X112755263Y-78078315D01*
X112755263Y-78078315D02*
X113060025Y-78078315D01*
X113060025Y-78078315D02*
X113136215Y-78116410D01*
X113136215Y-78116410D02*
X113174310Y-78154505D01*
X113174310Y-78154505D02*
X113212406Y-78230696D01*
X113212406Y-78230696D02*
X113212406Y-78344981D01*
X113212406Y-78344981D02*
X113174310Y-78421172D01*
X113174310Y-78421172D02*
X113136215Y-78459267D01*
X113136215Y-78459267D02*
X113060025Y-78497362D01*
X113060025Y-78497362D02*
X112755263Y-78497362D01*
X113936215Y-78878315D02*
X113555263Y-78878315D01*
X113555263Y-78878315D02*
X113555263Y-78078315D01*
X111345739Y-81454225D02*
X111345739Y-80654225D01*
X111345739Y-80654225D02*
X111650501Y-80654225D01*
X111650501Y-80654225D02*
X111726691Y-80692320D01*
X111726691Y-80692320D02*
X111764786Y-80730415D01*
X111764786Y-80730415D02*
X111802882Y-80806606D01*
X111802882Y-80806606D02*
X111802882Y-80920891D01*
X111802882Y-80920891D02*
X111764786Y-80997082D01*
X111764786Y-80997082D02*
X111726691Y-81035177D01*
X111726691Y-81035177D02*
X111650501Y-81073272D01*
X111650501Y-81073272D02*
X111345739Y-81073272D01*
X112069548Y-80920891D02*
X112221929Y-81454225D01*
X112221929Y-81454225D02*
X112374310Y-81073272D01*
X112374310Y-81073272D02*
X112526691Y-81454225D01*
X112526691Y-81454225D02*
X112679072Y-80920891D01*
X112983834Y-81454225D02*
X112983834Y-80920891D01*
X112983834Y-80997082D02*
X113021929Y-80958987D01*
X113021929Y-80958987D02*
X113098119Y-80920891D01*
X113098119Y-80920891D02*
X113212405Y-80920891D01*
X113212405Y-80920891D02*
X113288596Y-80958987D01*
X113288596Y-80958987D02*
X113326691Y-81035177D01*
X113326691Y-81035177D02*
X113326691Y-81454225D01*
X113326691Y-81035177D02*
X113364786Y-80958987D01*
X113364786Y-80958987D02*
X113440977Y-80920891D01*
X113440977Y-80920891D02*
X113555262Y-80920891D01*
X113555262Y-80920891D02*
X113631453Y-80958987D01*
X113631453Y-80958987D02*
X113669548Y-81035177D01*
X113669548Y-81035177D02*
X113669548Y-81454225D01*
X114050501Y-81454225D02*
X114050501Y-80654225D01*
X114888596Y-81454225D02*
X114621929Y-81073272D01*
X114431453Y-81454225D02*
X114431453Y-80654225D01*
X114431453Y-80654225D02*
X114736215Y-80654225D01*
X114736215Y-80654225D02*
X114812405Y-80692320D01*
X114812405Y-80692320D02*
X114850500Y-80730415D01*
X114850500Y-80730415D02*
X114888596Y-80806606D01*
X114888596Y-80806606D02*
X114888596Y-80920891D01*
X114888596Y-80920891D02*
X114850500Y-80997082D01*
X114850500Y-80997082D02*
X114812405Y-81035177D01*
X114812405Y-81035177D02*
X114736215Y-81073272D01*
X114736215Y-81073272D02*
X114431453Y-81073272D01*
X111345739Y-84030135D02*
X111345739Y-83230135D01*
X111345739Y-83230135D02*
X111650501Y-83230135D01*
X111650501Y-83230135D02*
X111726691Y-83268230D01*
X111726691Y-83268230D02*
X111764786Y-83306325D01*
X111764786Y-83306325D02*
X111802882Y-83382516D01*
X111802882Y-83382516D02*
X111802882Y-83496801D01*
X111802882Y-83496801D02*
X111764786Y-83572992D01*
X111764786Y-83572992D02*
X111726691Y-83611087D01*
X111726691Y-83611087D02*
X111650501Y-83649182D01*
X111650501Y-83649182D02*
X111345739Y-83649182D01*
X112069548Y-83496801D02*
X112221929Y-84030135D01*
X112221929Y-84030135D02*
X112374310Y-83649182D01*
X112374310Y-83649182D02*
X112526691Y-84030135D01*
X112526691Y-84030135D02*
X112679072Y-83496801D01*
X112983834Y-84030135D02*
X112983834Y-83496801D01*
X112983834Y-83572992D02*
X113021929Y-83534897D01*
X113021929Y-83534897D02*
X113098119Y-83496801D01*
X113098119Y-83496801D02*
X113212405Y-83496801D01*
X113212405Y-83496801D02*
X113288596Y-83534897D01*
X113288596Y-83534897D02*
X113326691Y-83611087D01*
X113326691Y-83611087D02*
X113326691Y-84030135D01*
X113326691Y-83611087D02*
X113364786Y-83534897D01*
X113364786Y-83534897D02*
X113440977Y-83496801D01*
X113440977Y-83496801D02*
X113555262Y-83496801D01*
X113555262Y-83496801D02*
X113631453Y-83534897D01*
X113631453Y-83534897D02*
X113669548Y-83611087D01*
X113669548Y-83611087D02*
X113669548Y-84030135D01*
X114507644Y-84030135D02*
X114240977Y-83649182D01*
X114050501Y-84030135D02*
X114050501Y-83230135D01*
X114050501Y-83230135D02*
X114355263Y-83230135D01*
X114355263Y-83230135D02*
X114431453Y-83268230D01*
X114431453Y-83268230D02*
X114469548Y-83306325D01*
X114469548Y-83306325D02*
X114507644Y-83382516D01*
X114507644Y-83382516D02*
X114507644Y-83496801D01*
X114507644Y-83496801D02*
X114469548Y-83572992D01*
X114469548Y-83572992D02*
X114431453Y-83611087D01*
X114431453Y-83611087D02*
X114355263Y-83649182D01*
X114355263Y-83649182D02*
X114050501Y-83649182D01*
X115155263Y-83992040D02*
X115079072Y-84030135D01*
X115079072Y-84030135D02*
X114926691Y-84030135D01*
X114926691Y-84030135D02*
X114850501Y-83992040D01*
X114850501Y-83992040D02*
X114812405Y-83915849D01*
X114812405Y-83915849D02*
X114812405Y-83611087D01*
X114812405Y-83611087D02*
X114850501Y-83534897D01*
X114850501Y-83534897D02*
X114926691Y-83496801D01*
X114926691Y-83496801D02*
X115079072Y-83496801D01*
X115079072Y-83496801D02*
X115155263Y-83534897D01*
X115155263Y-83534897D02*
X115193358Y-83611087D01*
X115193358Y-83611087D02*
X115193358Y-83687278D01*
X115193358Y-83687278D02*
X114812405Y-83763468D01*
X115879072Y-84030135D02*
X115879072Y-83230135D01*
X115879072Y-83992040D02*
X115802881Y-84030135D01*
X115802881Y-84030135D02*
X115650500Y-84030135D01*
X115650500Y-84030135D02*
X115574310Y-83992040D01*
X115574310Y-83992040D02*
X115536215Y-83953944D01*
X115536215Y-83953944D02*
X115498119Y-83877754D01*
X115498119Y-83877754D02*
X115498119Y-83649182D01*
X115498119Y-83649182D02*
X115536215Y-83572992D01*
X115536215Y-83572992D02*
X115574310Y-83534897D01*
X115574310Y-83534897D02*
X115650500Y-83496801D01*
X115650500Y-83496801D02*
X115802881Y-83496801D01*
X115802881Y-83496801D02*
X115879072Y-83534897D01*
X111764786Y-85844140D02*
X111688596Y-85806045D01*
X111688596Y-85806045D02*
X111574310Y-85806045D01*
X111574310Y-85806045D02*
X111460024Y-85844140D01*
X111460024Y-85844140D02*
X111383834Y-85920330D01*
X111383834Y-85920330D02*
X111345739Y-85996521D01*
X111345739Y-85996521D02*
X111307643Y-86148902D01*
X111307643Y-86148902D02*
X111307643Y-86263188D01*
X111307643Y-86263188D02*
X111345739Y-86415569D01*
X111345739Y-86415569D02*
X111383834Y-86491759D01*
X111383834Y-86491759D02*
X111460024Y-86567950D01*
X111460024Y-86567950D02*
X111574310Y-86606045D01*
X111574310Y-86606045D02*
X111650501Y-86606045D01*
X111650501Y-86606045D02*
X111764786Y-86567950D01*
X111764786Y-86567950D02*
X111802882Y-86529854D01*
X111802882Y-86529854D02*
X111802882Y-86263188D01*
X111802882Y-86263188D02*
X111650501Y-86263188D01*
X112145739Y-86606045D02*
X112145739Y-85806045D01*
X112145739Y-85806045D02*
X112602882Y-86606045D01*
X112602882Y-86606045D02*
X112602882Y-85806045D01*
X112983834Y-86606045D02*
X112983834Y-85806045D01*
X112983834Y-85806045D02*
X113174310Y-85806045D01*
X113174310Y-85806045D02*
X113288596Y-85844140D01*
X113288596Y-85844140D02*
X113364786Y-85920330D01*
X113364786Y-85920330D02*
X113402881Y-85996521D01*
X113402881Y-85996521D02*
X113440977Y-86148902D01*
X113440977Y-86148902D02*
X113440977Y-86263188D01*
X113440977Y-86263188D02*
X113402881Y-86415569D01*
X113402881Y-86415569D02*
X113364786Y-86491759D01*
X113364786Y-86491759D02*
X113288596Y-86567950D01*
X113288596Y-86567950D02*
X113174310Y-86606045D01*
X113174310Y-86606045D02*
X112983834Y-86606045D01*
X111726691Y-88381955D02*
X111345739Y-88381955D01*
X111345739Y-88381955D02*
X111307643Y-88762907D01*
X111307643Y-88762907D02*
X111345739Y-88724812D01*
X111345739Y-88724812D02*
X111421929Y-88686717D01*
X111421929Y-88686717D02*
X111612405Y-88686717D01*
X111612405Y-88686717D02*
X111688596Y-88724812D01*
X111688596Y-88724812D02*
X111726691Y-88762907D01*
X111726691Y-88762907D02*
X111764786Y-88839098D01*
X111764786Y-88839098D02*
X111764786Y-89029574D01*
X111764786Y-89029574D02*
X111726691Y-89105764D01*
X111726691Y-89105764D02*
X111688596Y-89143860D01*
X111688596Y-89143860D02*
X111612405Y-89181955D01*
X111612405Y-89181955D02*
X111421929Y-89181955D01*
X111421929Y-89181955D02*
X111345739Y-89143860D01*
X111345739Y-89143860D02*
X111307643Y-89105764D01*
X111993358Y-88381955D02*
X112260025Y-89181955D01*
X112260025Y-89181955D02*
X112526691Y-88381955D01*
X111269548Y-90957865D02*
X111764786Y-90957865D01*
X111764786Y-90957865D02*
X111498120Y-91262627D01*
X111498120Y-91262627D02*
X111612405Y-91262627D01*
X111612405Y-91262627D02*
X111688596Y-91300722D01*
X111688596Y-91300722D02*
X111726691Y-91338817D01*
X111726691Y-91338817D02*
X111764786Y-91415008D01*
X111764786Y-91415008D02*
X111764786Y-91605484D01*
X111764786Y-91605484D02*
X111726691Y-91681674D01*
X111726691Y-91681674D02*
X111688596Y-91719770D01*
X111688596Y-91719770D02*
X111612405Y-91757865D01*
X111612405Y-91757865D02*
X111383834Y-91757865D01*
X111383834Y-91757865D02*
X111307643Y-91719770D01*
X111307643Y-91719770D02*
X111269548Y-91681674D01*
X112031453Y-91224531D02*
X112221929Y-91757865D01*
X112221929Y-91757865D02*
X112412406Y-91224531D01*
X112640977Y-90957865D02*
X113136215Y-90957865D01*
X113136215Y-90957865D02*
X112869549Y-91262627D01*
X112869549Y-91262627D02*
X112983834Y-91262627D01*
X112983834Y-91262627D02*
X113060025Y-91300722D01*
X113060025Y-91300722D02*
X113098120Y-91338817D01*
X113098120Y-91338817D02*
X113136215Y-91415008D01*
X113136215Y-91415008D02*
X113136215Y-91605484D01*
X113136215Y-91605484D02*
X113098120Y-91681674D01*
X113098120Y-91681674D02*
X113060025Y-91719770D01*
X113060025Y-91719770D02*
X112983834Y-91757865D01*
X112983834Y-91757865D02*
X112755263Y-91757865D01*
X112755263Y-91757865D02*
X112679072Y-91719770D01*
X112679072Y-91719770D02*
X112640977Y-91681674D01*
X111269548Y-93533775D02*
X111764786Y-93533775D01*
X111764786Y-93533775D02*
X111498120Y-93838537D01*
X111498120Y-93838537D02*
X111612405Y-93838537D01*
X111612405Y-93838537D02*
X111688596Y-93876632D01*
X111688596Y-93876632D02*
X111726691Y-93914727D01*
X111726691Y-93914727D02*
X111764786Y-93990918D01*
X111764786Y-93990918D02*
X111764786Y-94181394D01*
X111764786Y-94181394D02*
X111726691Y-94257584D01*
X111726691Y-94257584D02*
X111688596Y-94295680D01*
X111688596Y-94295680D02*
X111612405Y-94333775D01*
X111612405Y-94333775D02*
X111383834Y-94333775D01*
X111383834Y-94333775D02*
X111307643Y-94295680D01*
X111307643Y-94295680D02*
X111269548Y-94257584D01*
X112031453Y-93800441D02*
X112221929Y-94333775D01*
X112221929Y-94333775D02*
X112412406Y-93800441D01*
X112640977Y-93533775D02*
X113174311Y-93533775D01*
X113174311Y-93533775D02*
X112831453Y-94333775D01*
D12*
X138865475Y-68137046D02*
X138865475Y-68784665D01*
X138865475Y-68784665D02*
X138903570Y-68860855D01*
X138903570Y-68860855D02*
X138941665Y-68898951D01*
X138941665Y-68898951D02*
X139017856Y-68937046D01*
X139017856Y-68937046D02*
X139170237Y-68937046D01*
X139170237Y-68937046D02*
X139246427Y-68898951D01*
X139246427Y-68898951D02*
X139284522Y-68860855D01*
X139284522Y-68860855D02*
X139322618Y-68784665D01*
X139322618Y-68784665D02*
X139322618Y-68137046D01*
X140046427Y-68403712D02*
X140046427Y-68937046D01*
X139855951Y-68098951D02*
X139665474Y-68670379D01*
X139665474Y-68670379D02*
X140160713Y-68670379D01*
X137404819Y-70099999D02*
X137642914Y-70099999D01*
X137547676Y-70338094D02*
X137642914Y-70099999D01*
X137642914Y-70099999D02*
X137547676Y-69861904D01*
X137833390Y-70242856D02*
X137642914Y-70099999D01*
X137642914Y-70099999D02*
X137833390Y-69957142D01*
X136278818Y-70178500D02*
X136516913Y-70178500D01*
X136421675Y-70416595D02*
X136516913Y-70178500D01*
X136516913Y-70178500D02*
X136421675Y-69940405D01*
X136707389Y-70321357D02*
X136516913Y-70178500D01*
X136516913Y-70178500D02*
X136707389Y-70035643D01*
X125138095Y-93854819D02*
X125138095Y-94664342D01*
X125138095Y-94664342D02*
X125185714Y-94759580D01*
X125185714Y-94759580D02*
X125233333Y-94807200D01*
X125233333Y-94807200D02*
X125328571Y-94854819D01*
X125328571Y-94854819D02*
X125519047Y-94854819D01*
X125519047Y-94854819D02*
X125614285Y-94807200D01*
X125614285Y-94807200D02*
X125661904Y-94759580D01*
X125661904Y-94759580D02*
X125709523Y-94664342D01*
X125709523Y-94664342D02*
X125709523Y-93854819D01*
X126138095Y-93950057D02*
X126185714Y-93902438D01*
X126185714Y-93902438D02*
X126280952Y-93854819D01*
X126280952Y-93854819D02*
X126519047Y-93854819D01*
X126519047Y-93854819D02*
X126614285Y-93902438D01*
X126614285Y-93902438D02*
X126661904Y-93950057D01*
X126661904Y-93950057D02*
X126709523Y-94045295D01*
X126709523Y-94045295D02*
X126709523Y-94140533D01*
X126709523Y-94140533D02*
X126661904Y-94283390D01*
X126661904Y-94283390D02*
X126090476Y-94854819D01*
X126090476Y-94854819D02*
X126709523Y-94854819D01*
X127479819Y-96466999D02*
X127717914Y-96466999D01*
X127622676Y-96705094D02*
X127717914Y-96466999D01*
X127717914Y-96466999D02*
X127622676Y-96228904D01*
X127908390Y-96609856D02*
X127717914Y-96466999D01*
X127717914Y-96466999D02*
X127908390Y-96324142D01*
X126379819Y-96299999D02*
X126617914Y-96299999D01*
X126522676Y-96538094D02*
X126617914Y-96299999D01*
X126617914Y-96299999D02*
X126522676Y-96061904D01*
X126808390Y-96442856D02*
X126617914Y-96299999D01*
X126617914Y-96299999D02*
X126808390Y-96157142D01*
X123596939Y-50981897D02*
X123520749Y-50943802D01*
X123520749Y-50943802D02*
X123444558Y-50867612D01*
X123444558Y-50867612D02*
X123330272Y-50753326D01*
X123330272Y-50753326D02*
X123254082Y-50715231D01*
X123254082Y-50715231D02*
X123177891Y-50715231D01*
X123215987Y-50905707D02*
X123139796Y-50867612D01*
X123139796Y-50867612D02*
X123063606Y-50791421D01*
X123063606Y-50791421D02*
X123025510Y-50639040D01*
X123025510Y-50639040D02*
X123025510Y-50372373D01*
X123025510Y-50372373D02*
X123063606Y-50219992D01*
X123063606Y-50219992D02*
X123139796Y-50143802D01*
X123139796Y-50143802D02*
X123215987Y-50105707D01*
X123215987Y-50105707D02*
X123368368Y-50105707D01*
X123368368Y-50105707D02*
X123444558Y-50143802D01*
X123444558Y-50143802D02*
X123520749Y-50219992D01*
X123520749Y-50219992D02*
X123558844Y-50372373D01*
X123558844Y-50372373D02*
X123558844Y-50639040D01*
X123558844Y-50639040D02*
X123520749Y-50791421D01*
X123520749Y-50791421D02*
X123444558Y-50867612D01*
X123444558Y-50867612D02*
X123368368Y-50905707D01*
X123368368Y-50905707D02*
X123215987Y-50905707D01*
X124244558Y-50105707D02*
X124092177Y-50105707D01*
X124092177Y-50105707D02*
X124015986Y-50143802D01*
X124015986Y-50143802D02*
X123977891Y-50181897D01*
X123977891Y-50181897D02*
X123901701Y-50296183D01*
X123901701Y-50296183D02*
X123863605Y-50448564D01*
X123863605Y-50448564D02*
X123863605Y-50753326D01*
X123863605Y-50753326D02*
X123901701Y-50829516D01*
X123901701Y-50829516D02*
X123939796Y-50867612D01*
X123939796Y-50867612D02*
X124015986Y-50905707D01*
X124015986Y-50905707D02*
X124168367Y-50905707D01*
X124168367Y-50905707D02*
X124244558Y-50867612D01*
X124244558Y-50867612D02*
X124282653Y-50829516D01*
X124282653Y-50829516D02*
X124320748Y-50753326D01*
X124320748Y-50753326D02*
X124320748Y-50562850D01*
X124320748Y-50562850D02*
X124282653Y-50486659D01*
X124282653Y-50486659D02*
X124244558Y-50448564D01*
X124244558Y-50448564D02*
X124168367Y-50410469D01*
X124168367Y-50410469D02*
X124015986Y-50410469D01*
X124015986Y-50410469D02*
X123939796Y-50448564D01*
X123939796Y-50448564D02*
X123901701Y-50486659D01*
X123901701Y-50486659D02*
X123863605Y-50562850D01*
X133598809Y-50803485D02*
X133522619Y-50765390D01*
X133522619Y-50765390D02*
X133446428Y-50689200D01*
X133446428Y-50689200D02*
X133332142Y-50574914D01*
X133332142Y-50574914D02*
X133255952Y-50536819D01*
X133255952Y-50536819D02*
X133179761Y-50536819D01*
X133217857Y-50727295D02*
X133141666Y-50689200D01*
X133141666Y-50689200D02*
X133065476Y-50613009D01*
X133065476Y-50613009D02*
X133027380Y-50460628D01*
X133027380Y-50460628D02*
X133027380Y-50193961D01*
X133027380Y-50193961D02*
X133065476Y-50041580D01*
X133065476Y-50041580D02*
X133141666Y-49965390D01*
X133141666Y-49965390D02*
X133217857Y-49927295D01*
X133217857Y-49927295D02*
X133370238Y-49927295D01*
X133370238Y-49927295D02*
X133446428Y-49965390D01*
X133446428Y-49965390D02*
X133522619Y-50041580D01*
X133522619Y-50041580D02*
X133560714Y-50193961D01*
X133560714Y-50193961D02*
X133560714Y-50460628D01*
X133560714Y-50460628D02*
X133522619Y-50613009D01*
X133522619Y-50613009D02*
X133446428Y-50689200D01*
X133446428Y-50689200D02*
X133370238Y-50727295D01*
X133370238Y-50727295D02*
X133217857Y-50727295D01*
X133827380Y-49927295D02*
X134360714Y-49927295D01*
X134360714Y-49927295D02*
X134017856Y-50727295D01*
X126935714Y-88562295D02*
X126669047Y-88181342D01*
X126478571Y-88562295D02*
X126478571Y-87762295D01*
X126478571Y-87762295D02*
X126783333Y-87762295D01*
X126783333Y-87762295D02*
X126859523Y-87800390D01*
X126859523Y-87800390D02*
X126897618Y-87838485D01*
X126897618Y-87838485D02*
X126935714Y-87914676D01*
X126935714Y-87914676D02*
X126935714Y-88028961D01*
X126935714Y-88028961D02*
X126897618Y-88105152D01*
X126897618Y-88105152D02*
X126859523Y-88143247D01*
X126859523Y-88143247D02*
X126783333Y-88181342D01*
X126783333Y-88181342D02*
X126478571Y-88181342D01*
X127697618Y-88562295D02*
X127240475Y-88562295D01*
X127469047Y-88562295D02*
X127469047Y-87762295D01*
X127469047Y-87762295D02*
X127392856Y-87876580D01*
X127392856Y-87876580D02*
X127316666Y-87952771D01*
X127316666Y-87952771D02*
X127240475Y-87990866D01*
X128192857Y-87762295D02*
X128269047Y-87762295D01*
X128269047Y-87762295D02*
X128345238Y-87800390D01*
X128345238Y-87800390D02*
X128383333Y-87838485D01*
X128383333Y-87838485D02*
X128421428Y-87914676D01*
X128421428Y-87914676D02*
X128459523Y-88067057D01*
X128459523Y-88067057D02*
X128459523Y-88257533D01*
X128459523Y-88257533D02*
X128421428Y-88409914D01*
X128421428Y-88409914D02*
X128383333Y-88486104D01*
X128383333Y-88486104D02*
X128345238Y-88524200D01*
X128345238Y-88524200D02*
X128269047Y-88562295D01*
X128269047Y-88562295D02*
X128192857Y-88562295D01*
X128192857Y-88562295D02*
X128116666Y-88524200D01*
X128116666Y-88524200D02*
X128078571Y-88486104D01*
X128078571Y-88486104D02*
X128040476Y-88409914D01*
X128040476Y-88409914D02*
X128002380Y-88257533D01*
X128002380Y-88257533D02*
X128002380Y-88067057D01*
X128002380Y-88067057D02*
X128040476Y-87914676D01*
X128040476Y-87914676D02*
X128078571Y-87838485D01*
X128078571Y-87838485D02*
X128116666Y-87800390D01*
X128116666Y-87800390D02*
X128192857Y-87762295D01*
X138037142Y-48014819D02*
X137703809Y-47538628D01*
X137465714Y-48014819D02*
X137465714Y-47014819D01*
X137465714Y-47014819D02*
X137846666Y-47014819D01*
X137846666Y-47014819D02*
X137941904Y-47062438D01*
X137941904Y-47062438D02*
X137989523Y-47110057D01*
X137989523Y-47110057D02*
X138037142Y-47205295D01*
X138037142Y-47205295D02*
X138037142Y-47348152D01*
X138037142Y-47348152D02*
X137989523Y-47443390D01*
X137989523Y-47443390D02*
X137941904Y-47491009D01*
X137941904Y-47491009D02*
X137846666Y-47538628D01*
X137846666Y-47538628D02*
X137465714Y-47538628D01*
X138989523Y-48014819D02*
X138418095Y-48014819D01*
X138703809Y-48014819D02*
X138703809Y-47014819D01*
X138703809Y-47014819D02*
X138608571Y-47157676D01*
X138608571Y-47157676D02*
X138513333Y-47252914D01*
X138513333Y-47252914D02*
X138418095Y-47300533D01*
X139560952Y-47443390D02*
X139465714Y-47395771D01*
X139465714Y-47395771D02*
X139418095Y-47348152D01*
X139418095Y-47348152D02*
X139370476Y-47252914D01*
X139370476Y-47252914D02*
X139370476Y-47205295D01*
X139370476Y-47205295D02*
X139418095Y-47110057D01*
X139418095Y-47110057D02*
X139465714Y-47062438D01*
X139465714Y-47062438D02*
X139560952Y-47014819D01*
X139560952Y-47014819D02*
X139751428Y-47014819D01*
X139751428Y-47014819D02*
X139846666Y-47062438D01*
X139846666Y-47062438D02*
X139894285Y-47110057D01*
X139894285Y-47110057D02*
X139941904Y-47205295D01*
X139941904Y-47205295D02*
X139941904Y-47252914D01*
X139941904Y-47252914D02*
X139894285Y-47348152D01*
X139894285Y-47348152D02*
X139846666Y-47395771D01*
X139846666Y-47395771D02*
X139751428Y-47443390D01*
X139751428Y-47443390D02*
X139560952Y-47443390D01*
X139560952Y-47443390D02*
X139465714Y-47491009D01*
X139465714Y-47491009D02*
X139418095Y-47538628D01*
X139418095Y-47538628D02*
X139370476Y-47633866D01*
X139370476Y-47633866D02*
X139370476Y-47824342D01*
X139370476Y-47824342D02*
X139418095Y-47919580D01*
X139418095Y-47919580D02*
X139465714Y-47967200D01*
X139465714Y-47967200D02*
X139560952Y-48014819D01*
X139560952Y-48014819D02*
X139751428Y-48014819D01*
X139751428Y-48014819D02*
X139846666Y-47967200D01*
X139846666Y-47967200D02*
X139894285Y-47919580D01*
X139894285Y-47919580D02*
X139941904Y-47824342D01*
X139941904Y-47824342D02*
X139941904Y-47633866D01*
X139941904Y-47633866D02*
X139894285Y-47538628D01*
X139894285Y-47538628D02*
X139846666Y-47491009D01*
X139846666Y-47491009D02*
X139751428Y-47443390D01*
X143645180Y-90357142D02*
X144121371Y-90023809D01*
X143645180Y-89785714D02*
X144645180Y-89785714D01*
X144645180Y-89785714D02*
X144645180Y-90166666D01*
X144645180Y-90166666D02*
X144597561Y-90261904D01*
X144597561Y-90261904D02*
X144549942Y-90309523D01*
X144549942Y-90309523D02*
X144454704Y-90357142D01*
X144454704Y-90357142D02*
X144311847Y-90357142D01*
X144311847Y-90357142D02*
X144216609Y-90309523D01*
X144216609Y-90309523D02*
X144168990Y-90261904D01*
X144168990Y-90261904D02*
X144121371Y-90166666D01*
X144121371Y-90166666D02*
X144121371Y-89785714D01*
X144549942Y-90738095D02*
X144597561Y-90785714D01*
X144597561Y-90785714D02*
X144645180Y-90880952D01*
X144645180Y-90880952D02*
X144645180Y-91119047D01*
X144645180Y-91119047D02*
X144597561Y-91214285D01*
X144597561Y-91214285D02*
X144549942Y-91261904D01*
X144549942Y-91261904D02*
X144454704Y-91309523D01*
X144454704Y-91309523D02*
X144359466Y-91309523D01*
X144359466Y-91309523D02*
X144216609Y-91261904D01*
X144216609Y-91261904D02*
X143645180Y-90690476D01*
X143645180Y-90690476D02*
X143645180Y-91309523D01*
X143645180Y-92261904D02*
X143645180Y-91690476D01*
X143645180Y-91976190D02*
X144645180Y-91976190D01*
X144645180Y-91976190D02*
X144502323Y-91880952D01*
X144502323Y-91880952D02*
X144407085Y-91785714D01*
X144407085Y-91785714D02*
X144359466Y-91690476D01*
X125994048Y-73087295D02*
X125994048Y-72287295D01*
X126832143Y-73011104D02*
X126794047Y-73049200D01*
X126794047Y-73049200D02*
X126679762Y-73087295D01*
X126679762Y-73087295D02*
X126603571Y-73087295D01*
X126603571Y-73087295D02*
X126489285Y-73049200D01*
X126489285Y-73049200D02*
X126413095Y-72973009D01*
X126413095Y-72973009D02*
X126375000Y-72896819D01*
X126375000Y-72896819D02*
X126336904Y-72744438D01*
X126336904Y-72744438D02*
X126336904Y-72630152D01*
X126336904Y-72630152D02*
X126375000Y-72477771D01*
X126375000Y-72477771D02*
X126413095Y-72401580D01*
X126413095Y-72401580D02*
X126489285Y-72325390D01*
X126489285Y-72325390D02*
X126603571Y-72287295D01*
X126603571Y-72287295D02*
X126679762Y-72287295D01*
X126679762Y-72287295D02*
X126794047Y-72325390D01*
X126794047Y-72325390D02*
X126832143Y-72363485D01*
X127136904Y-72363485D02*
X127175000Y-72325390D01*
X127175000Y-72325390D02*
X127251190Y-72287295D01*
X127251190Y-72287295D02*
X127441666Y-72287295D01*
X127441666Y-72287295D02*
X127517857Y-72325390D01*
X127517857Y-72325390D02*
X127555952Y-72363485D01*
X127555952Y-72363485D02*
X127594047Y-72439676D01*
X127594047Y-72439676D02*
X127594047Y-72515866D01*
X127594047Y-72515866D02*
X127555952Y-72630152D01*
X127555952Y-72630152D02*
X127098809Y-73087295D01*
X127098809Y-73087295D02*
X127594047Y-73087295D01*
X140407142Y-51384819D02*
X140073809Y-50908628D01*
X139835714Y-51384819D02*
X139835714Y-50384819D01*
X139835714Y-50384819D02*
X140216666Y-50384819D01*
X140216666Y-50384819D02*
X140311904Y-50432438D01*
X140311904Y-50432438D02*
X140359523Y-50480057D01*
X140359523Y-50480057D02*
X140407142Y-50575295D01*
X140407142Y-50575295D02*
X140407142Y-50718152D01*
X140407142Y-50718152D02*
X140359523Y-50813390D01*
X140359523Y-50813390D02*
X140311904Y-50861009D01*
X140311904Y-50861009D02*
X140216666Y-50908628D01*
X140216666Y-50908628D02*
X139835714Y-50908628D01*
X141359523Y-51384819D02*
X140788095Y-51384819D01*
X141073809Y-51384819D02*
X141073809Y-50384819D01*
X141073809Y-50384819D02*
X140978571Y-50527676D01*
X140978571Y-50527676D02*
X140883333Y-50622914D01*
X140883333Y-50622914D02*
X140788095Y-50670533D01*
X141835714Y-51384819D02*
X142026190Y-51384819D01*
X142026190Y-51384819D02*
X142121428Y-51337200D01*
X142121428Y-51337200D02*
X142169047Y-51289580D01*
X142169047Y-51289580D02*
X142264285Y-51146723D01*
X142264285Y-51146723D02*
X142311904Y-50956247D01*
X142311904Y-50956247D02*
X142311904Y-50575295D01*
X142311904Y-50575295D02*
X142264285Y-50480057D01*
X142264285Y-50480057D02*
X142216666Y-50432438D01*
X142216666Y-50432438D02*
X142121428Y-50384819D01*
X142121428Y-50384819D02*
X141930952Y-50384819D01*
X141930952Y-50384819D02*
X141835714Y-50432438D01*
X141835714Y-50432438D02*
X141788095Y-50480057D01*
X141788095Y-50480057D02*
X141740476Y-50575295D01*
X141740476Y-50575295D02*
X141740476Y-50813390D01*
X141740476Y-50813390D02*
X141788095Y-50908628D01*
X141788095Y-50908628D02*
X141835714Y-50956247D01*
X141835714Y-50956247D02*
X141930952Y-51003866D01*
X141930952Y-51003866D02*
X142121428Y-51003866D01*
X142121428Y-51003866D02*
X142216666Y-50956247D01*
X142216666Y-50956247D02*
X142264285Y-50908628D01*
X142264285Y-50908628D02*
X142311904Y-50813390D01*
X134591667Y-60387295D02*
X134325000Y-60006342D01*
X134134524Y-60387295D02*
X134134524Y-59587295D01*
X134134524Y-59587295D02*
X134439286Y-59587295D01*
X134439286Y-59587295D02*
X134515476Y-59625390D01*
X134515476Y-59625390D02*
X134553571Y-59663485D01*
X134553571Y-59663485D02*
X134591667Y-59739676D01*
X134591667Y-59739676D02*
X134591667Y-59853961D01*
X134591667Y-59853961D02*
X134553571Y-59930152D01*
X134553571Y-59930152D02*
X134515476Y-59968247D01*
X134515476Y-59968247D02*
X134439286Y-60006342D01*
X134439286Y-60006342D02*
X134134524Y-60006342D01*
X135048809Y-59930152D02*
X134972619Y-59892057D01*
X134972619Y-59892057D02*
X134934524Y-59853961D01*
X134934524Y-59853961D02*
X134896428Y-59777771D01*
X134896428Y-59777771D02*
X134896428Y-59739676D01*
X134896428Y-59739676D02*
X134934524Y-59663485D01*
X134934524Y-59663485D02*
X134972619Y-59625390D01*
X134972619Y-59625390D02*
X135048809Y-59587295D01*
X135048809Y-59587295D02*
X135201190Y-59587295D01*
X135201190Y-59587295D02*
X135277381Y-59625390D01*
X135277381Y-59625390D02*
X135315476Y-59663485D01*
X135315476Y-59663485D02*
X135353571Y-59739676D01*
X135353571Y-59739676D02*
X135353571Y-59777771D01*
X135353571Y-59777771D02*
X135315476Y-59853961D01*
X135315476Y-59853961D02*
X135277381Y-59892057D01*
X135277381Y-59892057D02*
X135201190Y-59930152D01*
X135201190Y-59930152D02*
X135048809Y-59930152D01*
X135048809Y-59930152D02*
X134972619Y-59968247D01*
X134972619Y-59968247D02*
X134934524Y-60006342D01*
X134934524Y-60006342D02*
X134896428Y-60082533D01*
X134896428Y-60082533D02*
X134896428Y-60234914D01*
X134896428Y-60234914D02*
X134934524Y-60311104D01*
X134934524Y-60311104D02*
X134972619Y-60349200D01*
X134972619Y-60349200D02*
X135048809Y-60387295D01*
X135048809Y-60387295D02*
X135201190Y-60387295D01*
X135201190Y-60387295D02*
X135277381Y-60349200D01*
X135277381Y-60349200D02*
X135315476Y-60311104D01*
X135315476Y-60311104D02*
X135353571Y-60234914D01*
X135353571Y-60234914D02*
X135353571Y-60082533D01*
X135353571Y-60082533D02*
X135315476Y-60006342D01*
X135315476Y-60006342D02*
X135277381Y-59968247D01*
X135277381Y-59968247D02*
X135201190Y-59930152D01*
X113105714Y-54512295D02*
X112839047Y-54131342D01*
X112648571Y-54512295D02*
X112648571Y-53712295D01*
X112648571Y-53712295D02*
X112953333Y-53712295D01*
X112953333Y-53712295D02*
X113029523Y-53750390D01*
X113029523Y-53750390D02*
X113067618Y-53788485D01*
X113067618Y-53788485D02*
X113105714Y-53864676D01*
X113105714Y-53864676D02*
X113105714Y-53978961D01*
X113105714Y-53978961D02*
X113067618Y-54055152D01*
X113067618Y-54055152D02*
X113029523Y-54093247D01*
X113029523Y-54093247D02*
X112953333Y-54131342D01*
X112953333Y-54131342D02*
X112648571Y-54131342D01*
X113867618Y-54512295D02*
X113410475Y-54512295D01*
X113639047Y-54512295D02*
X113639047Y-53712295D01*
X113639047Y-53712295D02*
X113562856Y-53826580D01*
X113562856Y-53826580D02*
X113486666Y-53902771D01*
X113486666Y-53902771D02*
X113410475Y-53940866D01*
X114553333Y-53978961D02*
X114553333Y-54512295D01*
X114362857Y-53674200D02*
X114172380Y-54245628D01*
X114172380Y-54245628D02*
X114667619Y-54245628D01*
X129884604Y-87560714D02*
X130265557Y-87294047D01*
X129884604Y-87103571D02*
X130684604Y-87103571D01*
X130684604Y-87103571D02*
X130684604Y-87408333D01*
X130684604Y-87408333D02*
X130646509Y-87484523D01*
X130646509Y-87484523D02*
X130608414Y-87522618D01*
X130608414Y-87522618D02*
X130532223Y-87560714D01*
X130532223Y-87560714D02*
X130417938Y-87560714D01*
X130417938Y-87560714D02*
X130341747Y-87522618D01*
X130341747Y-87522618D02*
X130303652Y-87484523D01*
X130303652Y-87484523D02*
X130265557Y-87408333D01*
X130265557Y-87408333D02*
X130265557Y-87103571D01*
X129884604Y-88322618D02*
X129884604Y-87865475D01*
X129884604Y-88094047D02*
X130684604Y-88094047D01*
X130684604Y-88094047D02*
X130570319Y-88017856D01*
X130570319Y-88017856D02*
X130494128Y-87941666D01*
X130494128Y-87941666D02*
X130456033Y-87865475D01*
X130608414Y-88627380D02*
X130646509Y-88665476D01*
X130646509Y-88665476D02*
X130684604Y-88741666D01*
X130684604Y-88741666D02*
X130684604Y-88932142D01*
X130684604Y-88932142D02*
X130646509Y-89008333D01*
X130646509Y-89008333D02*
X130608414Y-89046428D01*
X130608414Y-89046428D02*
X130532223Y-89084523D01*
X130532223Y-89084523D02*
X130456033Y-89084523D01*
X130456033Y-89084523D02*
X130341747Y-89046428D01*
X130341747Y-89046428D02*
X129884604Y-88589285D01*
X129884604Y-88589285D02*
X129884604Y-89084523D01*
X117991667Y-74237295D02*
X117725000Y-73856342D01*
X117534524Y-74237295D02*
X117534524Y-73437295D01*
X117534524Y-73437295D02*
X117839286Y-73437295D01*
X117839286Y-73437295D02*
X117915476Y-73475390D01*
X117915476Y-73475390D02*
X117953571Y-73513485D01*
X117953571Y-73513485D02*
X117991667Y-73589676D01*
X117991667Y-73589676D02*
X117991667Y-73703961D01*
X117991667Y-73703961D02*
X117953571Y-73780152D01*
X117953571Y-73780152D02*
X117915476Y-73818247D01*
X117915476Y-73818247D02*
X117839286Y-73856342D01*
X117839286Y-73856342D02*
X117534524Y-73856342D01*
X118677381Y-73703961D02*
X118677381Y-74237295D01*
X118486905Y-73399200D02*
X118296428Y-73970628D01*
X118296428Y-73970628D02*
X118791667Y-73970628D01*
X118854761Y-45700057D02*
X118759523Y-45652438D01*
X118759523Y-45652438D02*
X118664285Y-45557200D01*
X118664285Y-45557200D02*
X118521428Y-45414342D01*
X118521428Y-45414342D02*
X118426190Y-45366723D01*
X118426190Y-45366723D02*
X118330952Y-45366723D01*
X118378571Y-45604819D02*
X118283333Y-45557200D01*
X118283333Y-45557200D02*
X118188095Y-45461961D01*
X118188095Y-45461961D02*
X118140476Y-45271485D01*
X118140476Y-45271485D02*
X118140476Y-44938152D01*
X118140476Y-44938152D02*
X118188095Y-44747676D01*
X118188095Y-44747676D02*
X118283333Y-44652438D01*
X118283333Y-44652438D02*
X118378571Y-44604819D01*
X118378571Y-44604819D02*
X118569047Y-44604819D01*
X118569047Y-44604819D02*
X118664285Y-44652438D01*
X118664285Y-44652438D02*
X118759523Y-44747676D01*
X118759523Y-44747676D02*
X118807142Y-44938152D01*
X118807142Y-44938152D02*
X118807142Y-45271485D01*
X118807142Y-45271485D02*
X118759523Y-45461961D01*
X118759523Y-45461961D02*
X118664285Y-45557200D01*
X118664285Y-45557200D02*
X118569047Y-45604819D01*
X118569047Y-45604819D02*
X118378571Y-45604819D01*
X119759523Y-45604819D02*
X119188095Y-45604819D01*
X119473809Y-45604819D02*
X119473809Y-44604819D01*
X119473809Y-44604819D02*
X119378571Y-44747676D01*
X119378571Y-44747676D02*
X119283333Y-44842914D01*
X119283333Y-44842914D02*
X119188095Y-44890533D01*
X120408333Y-86249819D02*
X119932143Y-86249819D01*
X119932143Y-86249819D02*
X119932143Y-85249819D01*
X121265476Y-86249819D02*
X120694048Y-86249819D01*
X120979762Y-86249819D02*
X120979762Y-85249819D01*
X120979762Y-85249819D02*
X120884524Y-85392676D01*
X120884524Y-85392676D02*
X120789286Y-85487914D01*
X120789286Y-85487914D02*
X120694048Y-85535533D01*
X139441667Y-88991104D02*
X139403571Y-89029200D01*
X139403571Y-89029200D02*
X139289286Y-89067295D01*
X139289286Y-89067295D02*
X139213095Y-89067295D01*
X139213095Y-89067295D02*
X139098809Y-89029200D01*
X139098809Y-89029200D02*
X139022619Y-88953009D01*
X139022619Y-88953009D02*
X138984524Y-88876819D01*
X138984524Y-88876819D02*
X138946428Y-88724438D01*
X138946428Y-88724438D02*
X138946428Y-88610152D01*
X138946428Y-88610152D02*
X138984524Y-88457771D01*
X138984524Y-88457771D02*
X139022619Y-88381580D01*
X139022619Y-88381580D02*
X139098809Y-88305390D01*
X139098809Y-88305390D02*
X139213095Y-88267295D01*
X139213095Y-88267295D02*
X139289286Y-88267295D01*
X139289286Y-88267295D02*
X139403571Y-88305390D01*
X139403571Y-88305390D02*
X139441667Y-88343485D01*
X139708333Y-88267295D02*
X140241667Y-88267295D01*
X140241667Y-88267295D02*
X139898809Y-89067295D01*
X126591667Y-82766104D02*
X126553571Y-82804200D01*
X126553571Y-82804200D02*
X126439286Y-82842295D01*
X126439286Y-82842295D02*
X126363095Y-82842295D01*
X126363095Y-82842295D02*
X126248809Y-82804200D01*
X126248809Y-82804200D02*
X126172619Y-82728009D01*
X126172619Y-82728009D02*
X126134524Y-82651819D01*
X126134524Y-82651819D02*
X126096428Y-82499438D01*
X126096428Y-82499438D02*
X126096428Y-82385152D01*
X126096428Y-82385152D02*
X126134524Y-82232771D01*
X126134524Y-82232771D02*
X126172619Y-82156580D01*
X126172619Y-82156580D02*
X126248809Y-82080390D01*
X126248809Y-82080390D02*
X126363095Y-82042295D01*
X126363095Y-82042295D02*
X126439286Y-82042295D01*
X126439286Y-82042295D02*
X126553571Y-82080390D01*
X126553571Y-82080390D02*
X126591667Y-82118485D01*
X127315476Y-82042295D02*
X126934524Y-82042295D01*
X126934524Y-82042295D02*
X126896428Y-82423247D01*
X126896428Y-82423247D02*
X126934524Y-82385152D01*
X126934524Y-82385152D02*
X127010714Y-82347057D01*
X127010714Y-82347057D02*
X127201190Y-82347057D01*
X127201190Y-82347057D02*
X127277381Y-82385152D01*
X127277381Y-82385152D02*
X127315476Y-82423247D01*
X127315476Y-82423247D02*
X127353571Y-82499438D01*
X127353571Y-82499438D02*
X127353571Y-82689914D01*
X127353571Y-82689914D02*
X127315476Y-82766104D01*
X127315476Y-82766104D02*
X127277381Y-82804200D01*
X127277381Y-82804200D02*
X127201190Y-82842295D01*
X127201190Y-82842295D02*
X127010714Y-82842295D01*
X127010714Y-82842295D02*
X126934524Y-82804200D01*
X126934524Y-82804200D02*
X126896428Y-82766104D01*
D10*
X133994048Y-71782064D02*
X133994048Y-70982064D01*
X134832143Y-71705873D02*
X134794047Y-71743969D01*
X134794047Y-71743969D02*
X134679762Y-71782064D01*
X134679762Y-71782064D02*
X134603571Y-71782064D01*
X134603571Y-71782064D02*
X134489285Y-71743969D01*
X134489285Y-71743969D02*
X134413095Y-71667778D01*
X134413095Y-71667778D02*
X134375000Y-71591588D01*
X134375000Y-71591588D02*
X134336904Y-71439207D01*
X134336904Y-71439207D02*
X134336904Y-71324921D01*
X134336904Y-71324921D02*
X134375000Y-71172540D01*
X134375000Y-71172540D02*
X134413095Y-71096349D01*
X134413095Y-71096349D02*
X134489285Y-71020159D01*
X134489285Y-71020159D02*
X134603571Y-70982064D01*
X134603571Y-70982064D02*
X134679762Y-70982064D01*
X134679762Y-70982064D02*
X134794047Y-71020159D01*
X134794047Y-71020159D02*
X134832143Y-71058254D01*
X135594047Y-71782064D02*
X135136904Y-71782064D01*
X135365476Y-71782064D02*
X135365476Y-70982064D01*
X135365476Y-70982064D02*
X135289285Y-71096349D01*
X135289285Y-71096349D02*
X135213095Y-71172540D01*
X135213095Y-71172540D02*
X135136904Y-71210635D01*
D12*
X115740467Y-86589204D02*
X115702371Y-86627300D01*
X115702371Y-86627300D02*
X115588086Y-86665395D01*
X115588086Y-86665395D02*
X115511895Y-86665395D01*
X115511895Y-86665395D02*
X115397609Y-86627300D01*
X115397609Y-86627300D02*
X115321419Y-86551109D01*
X115321419Y-86551109D02*
X115283324Y-86474919D01*
X115283324Y-86474919D02*
X115245228Y-86322538D01*
X115245228Y-86322538D02*
X115245228Y-86208252D01*
X115245228Y-86208252D02*
X115283324Y-86055871D01*
X115283324Y-86055871D02*
X115321419Y-85979680D01*
X115321419Y-85979680D02*
X115397609Y-85903490D01*
X115397609Y-85903490D02*
X115511895Y-85865395D01*
X115511895Y-85865395D02*
X115588086Y-85865395D01*
X115588086Y-85865395D02*
X115702371Y-85903490D01*
X115702371Y-85903490D02*
X115740467Y-85941585D01*
X116007133Y-85865395D02*
X116502371Y-85865395D01*
X116502371Y-85865395D02*
X116235705Y-86170157D01*
X116235705Y-86170157D02*
X116349990Y-86170157D01*
X116349990Y-86170157D02*
X116426181Y-86208252D01*
X116426181Y-86208252D02*
X116464276Y-86246347D01*
X116464276Y-86246347D02*
X116502371Y-86322538D01*
X116502371Y-86322538D02*
X116502371Y-86513014D01*
X116502371Y-86513014D02*
X116464276Y-86589204D01*
X116464276Y-86589204D02*
X116426181Y-86627300D01*
X116426181Y-86627300D02*
X116349990Y-86665395D01*
X116349990Y-86665395D02*
X116121419Y-86665395D01*
X116121419Y-86665395D02*
X116045228Y-86627300D01*
X116045228Y-86627300D02*
X116007133Y-86589204D01*
X116591667Y-71211104D02*
X116553571Y-71249200D01*
X116553571Y-71249200D02*
X116439286Y-71287295D01*
X116439286Y-71287295D02*
X116363095Y-71287295D01*
X116363095Y-71287295D02*
X116248809Y-71249200D01*
X116248809Y-71249200D02*
X116172619Y-71173009D01*
X116172619Y-71173009D02*
X116134524Y-71096819D01*
X116134524Y-71096819D02*
X116096428Y-70944438D01*
X116096428Y-70944438D02*
X116096428Y-70830152D01*
X116096428Y-70830152D02*
X116134524Y-70677771D01*
X116134524Y-70677771D02*
X116172619Y-70601580D01*
X116172619Y-70601580D02*
X116248809Y-70525390D01*
X116248809Y-70525390D02*
X116363095Y-70487295D01*
X116363095Y-70487295D02*
X116439286Y-70487295D01*
X116439286Y-70487295D02*
X116553571Y-70525390D01*
X116553571Y-70525390D02*
X116591667Y-70563485D01*
X117048809Y-70830152D02*
X116972619Y-70792057D01*
X116972619Y-70792057D02*
X116934524Y-70753961D01*
X116934524Y-70753961D02*
X116896428Y-70677771D01*
X116896428Y-70677771D02*
X116896428Y-70639676D01*
X116896428Y-70639676D02*
X116934524Y-70563485D01*
X116934524Y-70563485D02*
X116972619Y-70525390D01*
X116972619Y-70525390D02*
X117048809Y-70487295D01*
X117048809Y-70487295D02*
X117201190Y-70487295D01*
X117201190Y-70487295D02*
X117277381Y-70525390D01*
X117277381Y-70525390D02*
X117315476Y-70563485D01*
X117315476Y-70563485D02*
X117353571Y-70639676D01*
X117353571Y-70639676D02*
X117353571Y-70677771D01*
X117353571Y-70677771D02*
X117315476Y-70753961D01*
X117315476Y-70753961D02*
X117277381Y-70792057D01*
X117277381Y-70792057D02*
X117201190Y-70830152D01*
X117201190Y-70830152D02*
X117048809Y-70830152D01*
X117048809Y-70830152D02*
X116972619Y-70868247D01*
X116972619Y-70868247D02*
X116934524Y-70906342D01*
X116934524Y-70906342D02*
X116896428Y-70982533D01*
X116896428Y-70982533D02*
X116896428Y-71134914D01*
X116896428Y-71134914D02*
X116934524Y-71211104D01*
X116934524Y-71211104D02*
X116972619Y-71249200D01*
X116972619Y-71249200D02*
X117048809Y-71287295D01*
X117048809Y-71287295D02*
X117201190Y-71287295D01*
X117201190Y-71287295D02*
X117277381Y-71249200D01*
X117277381Y-71249200D02*
X117315476Y-71211104D01*
X117315476Y-71211104D02*
X117353571Y-71134914D01*
X117353571Y-71134914D02*
X117353571Y-70982533D01*
X117353571Y-70982533D02*
X117315476Y-70906342D01*
X117315476Y-70906342D02*
X117277381Y-70868247D01*
X117277381Y-70868247D02*
X117201190Y-70830152D01*
X121909523Y-81987704D02*
X121909523Y-81340085D01*
X121909523Y-81340085D02*
X121871428Y-81263895D01*
X121871428Y-81263895D02*
X121833333Y-81225800D01*
X121833333Y-81225800D02*
X121757142Y-81187704D01*
X121757142Y-81187704D02*
X121604761Y-81187704D01*
X121604761Y-81187704D02*
X121528571Y-81225800D01*
X121528571Y-81225800D02*
X121490476Y-81263895D01*
X121490476Y-81263895D02*
X121452380Y-81340085D01*
X121452380Y-81340085D02*
X121452380Y-81987704D01*
X120690476Y-81987704D02*
X121071428Y-81987704D01*
X121071428Y-81987704D02*
X121109524Y-81606752D01*
X121109524Y-81606752D02*
X121071428Y-81644847D01*
X121071428Y-81644847D02*
X120995238Y-81682942D01*
X120995238Y-81682942D02*
X120804762Y-81682942D01*
X120804762Y-81682942D02*
X120728571Y-81644847D01*
X120728571Y-81644847D02*
X120690476Y-81606752D01*
X120690476Y-81606752D02*
X120652381Y-81530561D01*
X120652381Y-81530561D02*
X120652381Y-81340085D01*
X120652381Y-81340085D02*
X120690476Y-81263895D01*
X120690476Y-81263895D02*
X120728571Y-81225800D01*
X120728571Y-81225800D02*
X120804762Y-81187704D01*
X120804762Y-81187704D02*
X120995238Y-81187704D01*
X120995238Y-81187704D02*
X121071428Y-81225800D01*
X121071428Y-81225800D02*
X121109524Y-81263895D01*
X133989580Y-86466666D02*
X134037200Y-86514285D01*
X134037200Y-86514285D02*
X134084819Y-86657142D01*
X134084819Y-86657142D02*
X134084819Y-86752380D01*
X134084819Y-86752380D02*
X134037200Y-86895237D01*
X134037200Y-86895237D02*
X133941961Y-86990475D01*
X133941961Y-86990475D02*
X133846723Y-87038094D01*
X133846723Y-87038094D02*
X133656247Y-87085713D01*
X133656247Y-87085713D02*
X133513390Y-87085713D01*
X133513390Y-87085713D02*
X133322914Y-87038094D01*
X133322914Y-87038094D02*
X133227676Y-86990475D01*
X133227676Y-86990475D02*
X133132438Y-86895237D01*
X133132438Y-86895237D02*
X133084819Y-86752380D01*
X133084819Y-86752380D02*
X133084819Y-86657142D01*
X133084819Y-86657142D02*
X133132438Y-86514285D01*
X133132438Y-86514285D02*
X133180057Y-86466666D01*
X134084819Y-85990475D02*
X134084819Y-85799999D01*
X134084819Y-85799999D02*
X134037200Y-85704761D01*
X134037200Y-85704761D02*
X133989580Y-85657142D01*
X133989580Y-85657142D02*
X133846723Y-85561904D01*
X133846723Y-85561904D02*
X133656247Y-85514285D01*
X133656247Y-85514285D02*
X133275295Y-85514285D01*
X133275295Y-85514285D02*
X133180057Y-85561904D01*
X133180057Y-85561904D02*
X133132438Y-85609523D01*
X133132438Y-85609523D02*
X133084819Y-85704761D01*
X133084819Y-85704761D02*
X133084819Y-85895237D01*
X133084819Y-85895237D02*
X133132438Y-85990475D01*
X133132438Y-85990475D02*
X133180057Y-86038094D01*
X133180057Y-86038094D02*
X133275295Y-86085713D01*
X133275295Y-86085713D02*
X133513390Y-86085713D01*
X133513390Y-86085713D02*
X133608628Y-86038094D01*
X133608628Y-86038094D02*
X133656247Y-85990475D01*
X133656247Y-85990475D02*
X133703866Y-85895237D01*
X133703866Y-85895237D02*
X133703866Y-85704761D01*
X133703866Y-85704761D02*
X133656247Y-85609523D01*
X133656247Y-85609523D02*
X133608628Y-85561904D01*
X133608628Y-85561904D02*
X133513390Y-85514285D01*
X118017261Y-51150057D02*
X117922023Y-51102438D01*
X117922023Y-51102438D02*
X117826785Y-51007200D01*
X117826785Y-51007200D02*
X117683928Y-50864342D01*
X117683928Y-50864342D02*
X117588690Y-50816723D01*
X117588690Y-50816723D02*
X117493452Y-50816723D01*
X117541071Y-51054819D02*
X117445833Y-51007200D01*
X117445833Y-51007200D02*
X117350595Y-50911961D01*
X117350595Y-50911961D02*
X117302976Y-50721485D01*
X117302976Y-50721485D02*
X117302976Y-50388152D01*
X117302976Y-50388152D02*
X117350595Y-50197676D01*
X117350595Y-50197676D02*
X117445833Y-50102438D01*
X117445833Y-50102438D02*
X117541071Y-50054819D01*
X117541071Y-50054819D02*
X117731547Y-50054819D01*
X117731547Y-50054819D02*
X117826785Y-50102438D01*
X117826785Y-50102438D02*
X117922023Y-50197676D01*
X117922023Y-50197676D02*
X117969642Y-50388152D01*
X117969642Y-50388152D02*
X117969642Y-50721485D01*
X117969642Y-50721485D02*
X117922023Y-50911961D01*
X117922023Y-50911961D02*
X117826785Y-51007200D01*
X117826785Y-51007200D02*
X117731547Y-51054819D01*
X117731547Y-51054819D02*
X117541071Y-51054819D01*
X118350595Y-50150057D02*
X118398214Y-50102438D01*
X118398214Y-50102438D02*
X118493452Y-50054819D01*
X118493452Y-50054819D02*
X118731547Y-50054819D01*
X118731547Y-50054819D02*
X118826785Y-50102438D01*
X118826785Y-50102438D02*
X118874404Y-50150057D01*
X118874404Y-50150057D02*
X118922023Y-50245295D01*
X118922023Y-50245295D02*
X118922023Y-50340533D01*
X118922023Y-50340533D02*
X118874404Y-50483390D01*
X118874404Y-50483390D02*
X118302976Y-51054819D01*
X118302976Y-51054819D02*
X118922023Y-51054819D01*
X137091667Y-85941104D02*
X137053571Y-85979200D01*
X137053571Y-85979200D02*
X136939286Y-86017295D01*
X136939286Y-86017295D02*
X136863095Y-86017295D01*
X136863095Y-86017295D02*
X136748809Y-85979200D01*
X136748809Y-85979200D02*
X136672619Y-85903009D01*
X136672619Y-85903009D02*
X136634524Y-85826819D01*
X136634524Y-85826819D02*
X136596428Y-85674438D01*
X136596428Y-85674438D02*
X136596428Y-85560152D01*
X136596428Y-85560152D02*
X136634524Y-85407771D01*
X136634524Y-85407771D02*
X136672619Y-85331580D01*
X136672619Y-85331580D02*
X136748809Y-85255390D01*
X136748809Y-85255390D02*
X136863095Y-85217295D01*
X136863095Y-85217295D02*
X136939286Y-85217295D01*
X136939286Y-85217295D02*
X137053571Y-85255390D01*
X137053571Y-85255390D02*
X137091667Y-85293485D01*
X137777381Y-85217295D02*
X137625000Y-85217295D01*
X137625000Y-85217295D02*
X137548809Y-85255390D01*
X137548809Y-85255390D02*
X137510714Y-85293485D01*
X137510714Y-85293485D02*
X137434524Y-85407771D01*
X137434524Y-85407771D02*
X137396428Y-85560152D01*
X137396428Y-85560152D02*
X137396428Y-85864914D01*
X137396428Y-85864914D02*
X137434524Y-85941104D01*
X137434524Y-85941104D02*
X137472619Y-85979200D01*
X137472619Y-85979200D02*
X137548809Y-86017295D01*
X137548809Y-86017295D02*
X137701190Y-86017295D01*
X137701190Y-86017295D02*
X137777381Y-85979200D01*
X137777381Y-85979200D02*
X137815476Y-85941104D01*
X137815476Y-85941104D02*
X137853571Y-85864914D01*
X137853571Y-85864914D02*
X137853571Y-85674438D01*
X137853571Y-85674438D02*
X137815476Y-85598247D01*
X137815476Y-85598247D02*
X137777381Y-85560152D01*
X137777381Y-85560152D02*
X137701190Y-85522057D01*
X137701190Y-85522057D02*
X137548809Y-85522057D01*
X137548809Y-85522057D02*
X137472619Y-85560152D01*
X137472619Y-85560152D02*
X137434524Y-85598247D01*
X137434524Y-85598247D02*
X137396428Y-85674438D01*
X120688332Y-79875804D02*
X120954999Y-80256757D01*
X121145475Y-79875804D02*
X121145475Y-80675804D01*
X121145475Y-80675804D02*
X120840713Y-80675804D01*
X120840713Y-80675804D02*
X120764523Y-80637709D01*
X120764523Y-80637709D02*
X120726428Y-80599614D01*
X120726428Y-80599614D02*
X120688332Y-80523423D01*
X120688332Y-80523423D02*
X120688332Y-80409138D01*
X120688332Y-80409138D02*
X120726428Y-80332947D01*
X120726428Y-80332947D02*
X120764523Y-80294852D01*
X120764523Y-80294852D02*
X120840713Y-80256757D01*
X120840713Y-80256757D02*
X121145475Y-80256757D01*
X119926428Y-79875804D02*
X120383571Y-79875804D01*
X120154999Y-79875804D02*
X120154999Y-80675804D01*
X120154999Y-80675804D02*
X120231190Y-80561519D01*
X120231190Y-80561519D02*
X120307380Y-80485328D01*
X120307380Y-80485328D02*
X120383571Y-80447233D01*
X127248809Y-50573485D02*
X127172619Y-50535390D01*
X127172619Y-50535390D02*
X127096428Y-50459200D01*
X127096428Y-50459200D02*
X126982142Y-50344914D01*
X126982142Y-50344914D02*
X126905952Y-50306819D01*
X126905952Y-50306819D02*
X126829761Y-50306819D01*
X126867857Y-50497295D02*
X126791666Y-50459200D01*
X126791666Y-50459200D02*
X126715476Y-50383009D01*
X126715476Y-50383009D02*
X126677380Y-50230628D01*
X126677380Y-50230628D02*
X126677380Y-49963961D01*
X126677380Y-49963961D02*
X126715476Y-49811580D01*
X126715476Y-49811580D02*
X126791666Y-49735390D01*
X126791666Y-49735390D02*
X126867857Y-49697295D01*
X126867857Y-49697295D02*
X127020238Y-49697295D01*
X127020238Y-49697295D02*
X127096428Y-49735390D01*
X127096428Y-49735390D02*
X127172619Y-49811580D01*
X127172619Y-49811580D02*
X127210714Y-49963961D01*
X127210714Y-49963961D02*
X127210714Y-50230628D01*
X127210714Y-50230628D02*
X127172619Y-50383009D01*
X127172619Y-50383009D02*
X127096428Y-50459200D01*
X127096428Y-50459200D02*
X127020238Y-50497295D01*
X127020238Y-50497295D02*
X126867857Y-50497295D01*
X127934523Y-49697295D02*
X127553571Y-49697295D01*
X127553571Y-49697295D02*
X127515475Y-50078247D01*
X127515475Y-50078247D02*
X127553571Y-50040152D01*
X127553571Y-50040152D02*
X127629761Y-50002057D01*
X127629761Y-50002057D02*
X127820237Y-50002057D01*
X127820237Y-50002057D02*
X127896428Y-50040152D01*
X127896428Y-50040152D02*
X127934523Y-50078247D01*
X127934523Y-50078247D02*
X127972618Y-50154438D01*
X127972618Y-50154438D02*
X127972618Y-50344914D01*
X127972618Y-50344914D02*
X127934523Y-50421104D01*
X127934523Y-50421104D02*
X127896428Y-50459200D01*
X127896428Y-50459200D02*
X127820237Y-50497295D01*
X127820237Y-50497295D02*
X127629761Y-50497295D01*
X127629761Y-50497295D02*
X127553571Y-50459200D01*
X127553571Y-50459200D02*
X127515475Y-50421104D01*
X119841667Y-68887295D02*
X119575000Y-68506342D01*
X119384524Y-68887295D02*
X119384524Y-68087295D01*
X119384524Y-68087295D02*
X119689286Y-68087295D01*
X119689286Y-68087295D02*
X119765476Y-68125390D01*
X119765476Y-68125390D02*
X119803571Y-68163485D01*
X119803571Y-68163485D02*
X119841667Y-68239676D01*
X119841667Y-68239676D02*
X119841667Y-68353961D01*
X119841667Y-68353961D02*
X119803571Y-68430152D01*
X119803571Y-68430152D02*
X119765476Y-68468247D01*
X119765476Y-68468247D02*
X119689286Y-68506342D01*
X119689286Y-68506342D02*
X119384524Y-68506342D01*
X120565476Y-68087295D02*
X120184524Y-68087295D01*
X120184524Y-68087295D02*
X120146428Y-68468247D01*
X120146428Y-68468247D02*
X120184524Y-68430152D01*
X120184524Y-68430152D02*
X120260714Y-68392057D01*
X120260714Y-68392057D02*
X120451190Y-68392057D01*
X120451190Y-68392057D02*
X120527381Y-68430152D01*
X120527381Y-68430152D02*
X120565476Y-68468247D01*
X120565476Y-68468247D02*
X120603571Y-68544438D01*
X120603571Y-68544438D02*
X120603571Y-68734914D01*
X120603571Y-68734914D02*
X120565476Y-68811104D01*
X120565476Y-68811104D02*
X120527381Y-68849200D01*
X120527381Y-68849200D02*
X120451190Y-68887295D01*
X120451190Y-68887295D02*
X120260714Y-68887295D01*
X120260714Y-68887295D02*
X120184524Y-68849200D01*
X120184524Y-68849200D02*
X120146428Y-68811104D01*
X144191667Y-61787293D02*
X143925000Y-61406340D01*
X143734524Y-61787293D02*
X143734524Y-60987293D01*
X143734524Y-60987293D02*
X144039286Y-60987293D01*
X144039286Y-60987293D02*
X144115476Y-61025388D01*
X144115476Y-61025388D02*
X144153571Y-61063483D01*
X144153571Y-61063483D02*
X144191667Y-61139674D01*
X144191667Y-61139674D02*
X144191667Y-61253959D01*
X144191667Y-61253959D02*
X144153571Y-61330150D01*
X144153571Y-61330150D02*
X144115476Y-61368245D01*
X144115476Y-61368245D02*
X144039286Y-61406340D01*
X144039286Y-61406340D02*
X143734524Y-61406340D01*
X144458333Y-60987293D02*
X144991667Y-60987293D01*
X144991667Y-60987293D02*
X144648809Y-61787293D01*
X118662704Y-64540497D02*
X118015085Y-64540497D01*
X118015085Y-64540497D02*
X117938895Y-64578592D01*
X117938895Y-64578592D02*
X117900800Y-64616687D01*
X117900800Y-64616687D02*
X117862704Y-64692878D01*
X117862704Y-64692878D02*
X117862704Y-64845259D01*
X117862704Y-64845259D02*
X117900800Y-64921449D01*
X117900800Y-64921449D02*
X117938895Y-64959544D01*
X117938895Y-64959544D02*
X118015085Y-64997640D01*
X118015085Y-64997640D02*
X118662704Y-64997640D01*
X118662704Y-65302401D02*
X118662704Y-65835735D01*
X118662704Y-65835735D02*
X117862704Y-65492877D01*
X119997849Y-67220222D02*
X119997849Y-66982127D01*
X120235944Y-67077365D02*
X119997849Y-66982127D01*
X119997849Y-66982127D02*
X119759754Y-67077365D01*
X120140706Y-66791651D02*
X119997849Y-66982127D01*
X119997849Y-66982127D02*
X119854992Y-66791651D01*
X119806149Y-68270380D02*
X119806149Y-68032285D01*
X120044244Y-68127523D02*
X119806149Y-68032285D01*
X119806149Y-68032285D02*
X119568054Y-68127523D01*
X119949006Y-67841809D02*
X119806149Y-68032285D01*
X119806149Y-68032285D02*
X119663292Y-67841809D01*
X137541667Y-76756904D02*
X137503571Y-76795000D01*
X137503571Y-76795000D02*
X137389286Y-76833095D01*
X137389286Y-76833095D02*
X137313095Y-76833095D01*
X137313095Y-76833095D02*
X137198809Y-76795000D01*
X137198809Y-76795000D02*
X137122619Y-76718809D01*
X137122619Y-76718809D02*
X137084524Y-76642619D01*
X137084524Y-76642619D02*
X137046428Y-76490238D01*
X137046428Y-76490238D02*
X137046428Y-76375952D01*
X137046428Y-76375952D02*
X137084524Y-76223571D01*
X137084524Y-76223571D02*
X137122619Y-76147380D01*
X137122619Y-76147380D02*
X137198809Y-76071190D01*
X137198809Y-76071190D02*
X137313095Y-76033095D01*
X137313095Y-76033095D02*
X137389286Y-76033095D01*
X137389286Y-76033095D02*
X137503571Y-76071190D01*
X137503571Y-76071190D02*
X137541667Y-76109285D01*
X138303571Y-76833095D02*
X137846428Y-76833095D01*
X138075000Y-76833095D02*
X138075000Y-76033095D01*
X138075000Y-76033095D02*
X137998809Y-76147380D01*
X137998809Y-76147380D02*
X137922619Y-76223571D01*
X137922619Y-76223571D02*
X137846428Y-76261666D01*
X123341667Y-81741104D02*
X123303571Y-81779200D01*
X123303571Y-81779200D02*
X123189286Y-81817295D01*
X123189286Y-81817295D02*
X123113095Y-81817295D01*
X123113095Y-81817295D02*
X122998809Y-81779200D01*
X122998809Y-81779200D02*
X122922619Y-81703009D01*
X122922619Y-81703009D02*
X122884524Y-81626819D01*
X122884524Y-81626819D02*
X122846428Y-81474438D01*
X122846428Y-81474438D02*
X122846428Y-81360152D01*
X122846428Y-81360152D02*
X122884524Y-81207771D01*
X122884524Y-81207771D02*
X122922619Y-81131580D01*
X122922619Y-81131580D02*
X122998809Y-81055390D01*
X122998809Y-81055390D02*
X123113095Y-81017295D01*
X123113095Y-81017295D02*
X123189286Y-81017295D01*
X123189286Y-81017295D02*
X123303571Y-81055390D01*
X123303571Y-81055390D02*
X123341667Y-81093485D01*
X124027381Y-81283961D02*
X124027381Y-81817295D01*
X123836905Y-80979200D02*
X123646428Y-81550628D01*
X123646428Y-81550628D02*
X124141667Y-81550628D01*
D13*
X126654047Y-64575270D02*
X126533095Y-64514794D01*
X126533095Y-64514794D02*
X126412142Y-64393842D01*
X126412142Y-64393842D02*
X126230714Y-64212413D01*
X126230714Y-64212413D02*
X126109761Y-64151937D01*
X126109761Y-64151937D02*
X125988809Y-64151937D01*
X126049285Y-64454318D02*
X125928333Y-64393842D01*
X125928333Y-64393842D02*
X125807380Y-64272889D01*
X125807380Y-64272889D02*
X125746904Y-64030984D01*
X125746904Y-64030984D02*
X125746904Y-63607651D01*
X125746904Y-63607651D02*
X125807380Y-63365746D01*
X125807380Y-63365746D02*
X125928333Y-63244794D01*
X125928333Y-63244794D02*
X126049285Y-63184318D01*
X126049285Y-63184318D02*
X126291190Y-63184318D01*
X126291190Y-63184318D02*
X126412142Y-63244794D01*
X126412142Y-63244794D02*
X126533095Y-63365746D01*
X126533095Y-63365746D02*
X126593571Y-63607651D01*
X126593571Y-63607651D02*
X126593571Y-64030984D01*
X126593571Y-64030984D02*
X126533095Y-64272889D01*
X126533095Y-64272889D02*
X126412142Y-64393842D01*
X126412142Y-64393842D02*
X126291190Y-64454318D01*
X126291190Y-64454318D02*
X126049285Y-64454318D01*
X127198333Y-64454318D02*
X127440237Y-64454318D01*
X127440237Y-64454318D02*
X127561190Y-64393842D01*
X127561190Y-64393842D02*
X127621666Y-64333365D01*
X127621666Y-64333365D02*
X127742618Y-64151937D01*
X127742618Y-64151937D02*
X127803095Y-63910032D01*
X127803095Y-63910032D02*
X127803095Y-63426222D01*
X127803095Y-63426222D02*
X127742618Y-63305270D01*
X127742618Y-63305270D02*
X127682142Y-63244794D01*
X127682142Y-63244794D02*
X127561190Y-63184318D01*
X127561190Y-63184318D02*
X127319285Y-63184318D01*
X127319285Y-63184318D02*
X127198333Y-63244794D01*
X127198333Y-63244794D02*
X127137856Y-63305270D01*
X127137856Y-63305270D02*
X127077380Y-63426222D01*
X127077380Y-63426222D02*
X127077380Y-63728603D01*
X127077380Y-63728603D02*
X127137856Y-63849556D01*
X127137856Y-63849556D02*
X127198333Y-63910032D01*
X127198333Y-63910032D02*
X127319285Y-63970508D01*
X127319285Y-63970508D02*
X127561190Y-63970508D01*
X127561190Y-63970508D02*
X127682142Y-63910032D01*
X127682142Y-63910032D02*
X127742618Y-63849556D01*
X127742618Y-63849556D02*
X127803095Y-63728603D01*
D12*
X144591667Y-67237295D02*
X144325000Y-66856342D01*
X144134524Y-67237295D02*
X144134524Y-66437295D01*
X144134524Y-66437295D02*
X144439286Y-66437295D01*
X144439286Y-66437295D02*
X144515476Y-66475390D01*
X144515476Y-66475390D02*
X144553571Y-66513485D01*
X144553571Y-66513485D02*
X144591667Y-66589676D01*
X144591667Y-66589676D02*
X144591667Y-66703961D01*
X144591667Y-66703961D02*
X144553571Y-66780152D01*
X144553571Y-66780152D02*
X144515476Y-66818247D01*
X144515476Y-66818247D02*
X144439286Y-66856342D01*
X144439286Y-66856342D02*
X144134524Y-66856342D01*
X144972619Y-67237295D02*
X145125000Y-67237295D01*
X145125000Y-67237295D02*
X145201190Y-67199200D01*
X145201190Y-67199200D02*
X145239286Y-67161104D01*
X145239286Y-67161104D02*
X145315476Y-67046819D01*
X145315476Y-67046819D02*
X145353571Y-66894438D01*
X145353571Y-66894438D02*
X145353571Y-66589676D01*
X145353571Y-66589676D02*
X145315476Y-66513485D01*
X145315476Y-66513485D02*
X145277381Y-66475390D01*
X145277381Y-66475390D02*
X145201190Y-66437295D01*
X145201190Y-66437295D02*
X145048809Y-66437295D01*
X145048809Y-66437295D02*
X144972619Y-66475390D01*
X144972619Y-66475390D02*
X144934524Y-66513485D01*
X144934524Y-66513485D02*
X144896428Y-66589676D01*
X144896428Y-66589676D02*
X144896428Y-66780152D01*
X144896428Y-66780152D02*
X144934524Y-66856342D01*
X144934524Y-66856342D02*
X144972619Y-66894438D01*
X144972619Y-66894438D02*
X145048809Y-66932533D01*
X145048809Y-66932533D02*
X145201190Y-66932533D01*
X145201190Y-66932533D02*
X145277381Y-66894438D01*
X145277381Y-66894438D02*
X145315476Y-66856342D01*
X145315476Y-66856342D02*
X145353571Y-66780152D01*
X133232704Y-80860714D02*
X133613657Y-80594047D01*
X133232704Y-80403571D02*
X134032704Y-80403571D01*
X134032704Y-80403571D02*
X134032704Y-80708333D01*
X134032704Y-80708333D02*
X133994609Y-80784523D01*
X133994609Y-80784523D02*
X133956514Y-80822618D01*
X133956514Y-80822618D02*
X133880323Y-80860714D01*
X133880323Y-80860714D02*
X133766038Y-80860714D01*
X133766038Y-80860714D02*
X133689847Y-80822618D01*
X133689847Y-80822618D02*
X133651752Y-80784523D01*
X133651752Y-80784523D02*
X133613657Y-80708333D01*
X133613657Y-80708333D02*
X133613657Y-80403571D01*
X133232704Y-81622618D02*
X133232704Y-81165475D01*
X133232704Y-81394047D02*
X134032704Y-81394047D01*
X134032704Y-81394047D02*
X133918419Y-81317856D01*
X133918419Y-81317856D02*
X133842228Y-81241666D01*
X133842228Y-81241666D02*
X133804133Y-81165475D01*
X133232704Y-82384523D02*
X133232704Y-81927380D01*
X133232704Y-82155952D02*
X134032704Y-82155952D01*
X134032704Y-82155952D02*
X133918419Y-82079761D01*
X133918419Y-82079761D02*
X133842228Y-82003571D01*
X133842228Y-82003571D02*
X133804133Y-81927380D01*
X113105714Y-56142295D02*
X112839047Y-55761342D01*
X112648571Y-56142295D02*
X112648571Y-55342295D01*
X112648571Y-55342295D02*
X112953333Y-55342295D01*
X112953333Y-55342295D02*
X113029523Y-55380390D01*
X113029523Y-55380390D02*
X113067618Y-55418485D01*
X113067618Y-55418485D02*
X113105714Y-55494676D01*
X113105714Y-55494676D02*
X113105714Y-55608961D01*
X113105714Y-55608961D02*
X113067618Y-55685152D01*
X113067618Y-55685152D02*
X113029523Y-55723247D01*
X113029523Y-55723247D02*
X112953333Y-55761342D01*
X112953333Y-55761342D02*
X112648571Y-55761342D01*
X113867618Y-56142295D02*
X113410475Y-56142295D01*
X113639047Y-56142295D02*
X113639047Y-55342295D01*
X113639047Y-55342295D02*
X113562856Y-55456580D01*
X113562856Y-55456580D02*
X113486666Y-55532771D01*
X113486666Y-55532771D02*
X113410475Y-55570866D01*
X114134285Y-55342295D02*
X114667619Y-55342295D01*
X114667619Y-55342295D02*
X114324761Y-56142295D01*
X123576939Y-57651897D02*
X123500749Y-57613802D01*
X123500749Y-57613802D02*
X123424558Y-57537612D01*
X123424558Y-57537612D02*
X123310272Y-57423326D01*
X123310272Y-57423326D02*
X123234082Y-57385231D01*
X123234082Y-57385231D02*
X123157891Y-57385231D01*
X123195987Y-57575707D02*
X123119796Y-57537612D01*
X123119796Y-57537612D02*
X123043606Y-57461421D01*
X123043606Y-57461421D02*
X123005510Y-57309040D01*
X123005510Y-57309040D02*
X123005510Y-57042373D01*
X123005510Y-57042373D02*
X123043606Y-56889992D01*
X123043606Y-56889992D02*
X123119796Y-56813802D01*
X123119796Y-56813802D02*
X123195987Y-56775707D01*
X123195987Y-56775707D02*
X123348368Y-56775707D01*
X123348368Y-56775707D02*
X123424558Y-56813802D01*
X123424558Y-56813802D02*
X123500749Y-56889992D01*
X123500749Y-56889992D02*
X123538844Y-57042373D01*
X123538844Y-57042373D02*
X123538844Y-57309040D01*
X123538844Y-57309040D02*
X123500749Y-57461421D01*
X123500749Y-57461421D02*
X123424558Y-57537612D01*
X123424558Y-57537612D02*
X123348368Y-57575707D01*
X123348368Y-57575707D02*
X123195987Y-57575707D01*
X123995986Y-57118564D02*
X123919796Y-57080469D01*
X123919796Y-57080469D02*
X123881701Y-57042373D01*
X123881701Y-57042373D02*
X123843605Y-56966183D01*
X123843605Y-56966183D02*
X123843605Y-56928088D01*
X123843605Y-56928088D02*
X123881701Y-56851897D01*
X123881701Y-56851897D02*
X123919796Y-56813802D01*
X123919796Y-56813802D02*
X123995986Y-56775707D01*
X123995986Y-56775707D02*
X124148367Y-56775707D01*
X124148367Y-56775707D02*
X124224558Y-56813802D01*
X124224558Y-56813802D02*
X124262653Y-56851897D01*
X124262653Y-56851897D02*
X124300748Y-56928088D01*
X124300748Y-56928088D02*
X124300748Y-56966183D01*
X124300748Y-56966183D02*
X124262653Y-57042373D01*
X124262653Y-57042373D02*
X124224558Y-57080469D01*
X124224558Y-57080469D02*
X124148367Y-57118564D01*
X124148367Y-57118564D02*
X123995986Y-57118564D01*
X123995986Y-57118564D02*
X123919796Y-57156659D01*
X123919796Y-57156659D02*
X123881701Y-57194754D01*
X123881701Y-57194754D02*
X123843605Y-57270945D01*
X123843605Y-57270945D02*
X123843605Y-57423326D01*
X123843605Y-57423326D02*
X123881701Y-57499516D01*
X123881701Y-57499516D02*
X123919796Y-57537612D01*
X123919796Y-57537612D02*
X123995986Y-57575707D01*
X123995986Y-57575707D02*
X124148367Y-57575707D01*
X124148367Y-57575707D02*
X124224558Y-57537612D01*
X124224558Y-57537612D02*
X124262653Y-57499516D01*
X124262653Y-57499516D02*
X124300748Y-57423326D01*
X124300748Y-57423326D02*
X124300748Y-57270945D01*
X124300748Y-57270945D02*
X124262653Y-57194754D01*
X124262653Y-57194754D02*
X124224558Y-57156659D01*
X124224558Y-57156659D02*
X124148367Y-57118564D01*
X145506666Y-80774819D02*
X145506666Y-81489104D01*
X145506666Y-81489104D02*
X145459047Y-81631961D01*
X145459047Y-81631961D02*
X145363809Y-81727200D01*
X145363809Y-81727200D02*
X145220952Y-81774819D01*
X145220952Y-81774819D02*
X145125714Y-81774819D01*
X145935238Y-80870057D02*
X145982857Y-80822438D01*
X145982857Y-80822438D02*
X146078095Y-80774819D01*
X146078095Y-80774819D02*
X146316190Y-80774819D01*
X146316190Y-80774819D02*
X146411428Y-80822438D01*
X146411428Y-80822438D02*
X146459047Y-80870057D01*
X146459047Y-80870057D02*
X146506666Y-80965295D01*
X146506666Y-80965295D02*
X146506666Y-81060533D01*
X146506666Y-81060533D02*
X146459047Y-81203390D01*
X146459047Y-81203390D02*
X145887619Y-81774819D01*
X145887619Y-81774819D02*
X146506666Y-81774819D01*
X116630467Y-83999204D02*
X116592371Y-84037300D01*
X116592371Y-84037300D02*
X116478086Y-84075395D01*
X116478086Y-84075395D02*
X116401895Y-84075395D01*
X116401895Y-84075395D02*
X116287609Y-84037300D01*
X116287609Y-84037300D02*
X116211419Y-83961109D01*
X116211419Y-83961109D02*
X116173324Y-83884919D01*
X116173324Y-83884919D02*
X116135228Y-83732538D01*
X116135228Y-83732538D02*
X116135228Y-83618252D01*
X116135228Y-83618252D02*
X116173324Y-83465871D01*
X116173324Y-83465871D02*
X116211419Y-83389680D01*
X116211419Y-83389680D02*
X116287609Y-83313490D01*
X116287609Y-83313490D02*
X116401895Y-83275395D01*
X116401895Y-83275395D02*
X116478086Y-83275395D01*
X116478086Y-83275395D02*
X116592371Y-83313490D01*
X116592371Y-83313490D02*
X116630467Y-83351585D01*
X116935228Y-83351585D02*
X116973324Y-83313490D01*
X116973324Y-83313490D02*
X117049514Y-83275395D01*
X117049514Y-83275395D02*
X117239990Y-83275395D01*
X117239990Y-83275395D02*
X117316181Y-83313490D01*
X117316181Y-83313490D02*
X117354276Y-83351585D01*
X117354276Y-83351585D02*
X117392371Y-83427776D01*
X117392371Y-83427776D02*
X117392371Y-83503966D01*
X117392371Y-83503966D02*
X117354276Y-83618252D01*
X117354276Y-83618252D02*
X116897133Y-84075395D01*
X116897133Y-84075395D02*
X117392371Y-84075395D01*
X139273809Y-82543485D02*
X139197619Y-82505390D01*
X139197619Y-82505390D02*
X139121428Y-82429200D01*
X139121428Y-82429200D02*
X139007142Y-82314914D01*
X139007142Y-82314914D02*
X138930952Y-82276819D01*
X138930952Y-82276819D02*
X138854761Y-82276819D01*
X138892857Y-82467295D02*
X138816666Y-82429200D01*
X138816666Y-82429200D02*
X138740476Y-82353009D01*
X138740476Y-82353009D02*
X138702380Y-82200628D01*
X138702380Y-82200628D02*
X138702380Y-81933961D01*
X138702380Y-81933961D02*
X138740476Y-81781580D01*
X138740476Y-81781580D02*
X138816666Y-81705390D01*
X138816666Y-81705390D02*
X138892857Y-81667295D01*
X138892857Y-81667295D02*
X139045238Y-81667295D01*
X139045238Y-81667295D02*
X139121428Y-81705390D01*
X139121428Y-81705390D02*
X139197619Y-81781580D01*
X139197619Y-81781580D02*
X139235714Y-81933961D01*
X139235714Y-81933961D02*
X139235714Y-82200628D01*
X139235714Y-82200628D02*
X139197619Y-82353009D01*
X139197619Y-82353009D02*
X139121428Y-82429200D01*
X139121428Y-82429200D02*
X139045238Y-82467295D01*
X139045238Y-82467295D02*
X138892857Y-82467295D01*
X139502380Y-81667295D02*
X139997618Y-81667295D01*
X139997618Y-81667295D02*
X139730952Y-81972057D01*
X139730952Y-81972057D02*
X139845237Y-81972057D01*
X139845237Y-81972057D02*
X139921428Y-82010152D01*
X139921428Y-82010152D02*
X139959523Y-82048247D01*
X139959523Y-82048247D02*
X139997618Y-82124438D01*
X139997618Y-82124438D02*
X139997618Y-82314914D01*
X139997618Y-82314914D02*
X139959523Y-82391104D01*
X139959523Y-82391104D02*
X139921428Y-82429200D01*
X139921428Y-82429200D02*
X139845237Y-82467295D01*
X139845237Y-82467295D02*
X139616666Y-82467295D01*
X139616666Y-82467295D02*
X139540475Y-82429200D01*
X139540475Y-82429200D02*
X139502380Y-82391104D01*
X133642295Y-89564285D02*
X133261342Y-89830952D01*
X133642295Y-90021428D02*
X132842295Y-90021428D01*
X132842295Y-90021428D02*
X132842295Y-89716666D01*
X132842295Y-89716666D02*
X132880390Y-89640476D01*
X132880390Y-89640476D02*
X132918485Y-89602381D01*
X132918485Y-89602381D02*
X132994676Y-89564285D01*
X132994676Y-89564285D02*
X133108961Y-89564285D01*
X133108961Y-89564285D02*
X133185152Y-89602381D01*
X133185152Y-89602381D02*
X133223247Y-89640476D01*
X133223247Y-89640476D02*
X133261342Y-89716666D01*
X133261342Y-89716666D02*
X133261342Y-90021428D01*
X133642295Y-88802381D02*
X133642295Y-89259524D01*
X133642295Y-89030952D02*
X132842295Y-89030952D01*
X132842295Y-89030952D02*
X132956580Y-89107143D01*
X132956580Y-89107143D02*
X133032771Y-89183333D01*
X133032771Y-89183333D02*
X133070866Y-89259524D01*
X132842295Y-88535714D02*
X132842295Y-88040476D01*
X132842295Y-88040476D02*
X133147057Y-88307142D01*
X133147057Y-88307142D02*
X133147057Y-88192857D01*
X133147057Y-88192857D02*
X133185152Y-88116666D01*
X133185152Y-88116666D02*
X133223247Y-88078571D01*
X133223247Y-88078571D02*
X133299438Y-88040476D01*
X133299438Y-88040476D02*
X133489914Y-88040476D01*
X133489914Y-88040476D02*
X133566104Y-88078571D01*
X133566104Y-88078571D02*
X133604200Y-88116666D01*
X133604200Y-88116666D02*
X133642295Y-88192857D01*
X133642295Y-88192857D02*
X133642295Y-88421428D01*
X133642295Y-88421428D02*
X133604200Y-88497619D01*
X133604200Y-88497619D02*
X133566104Y-88535714D01*
X126626905Y-56059819D02*
X126626905Y-55059819D01*
X126626905Y-55059819D02*
X126865000Y-55059819D01*
X126865000Y-55059819D02*
X127007857Y-55107438D01*
X127007857Y-55107438D02*
X127103095Y-55202676D01*
X127103095Y-55202676D02*
X127150714Y-55297914D01*
X127150714Y-55297914D02*
X127198333Y-55488390D01*
X127198333Y-55488390D02*
X127198333Y-55631247D01*
X127198333Y-55631247D02*
X127150714Y-55821723D01*
X127150714Y-55821723D02*
X127103095Y-55916961D01*
X127103095Y-55916961D02*
X127007857Y-56012200D01*
X127007857Y-56012200D02*
X126865000Y-56059819D01*
X126865000Y-56059819D02*
X126626905Y-56059819D01*
X128150714Y-56059819D02*
X127579286Y-56059819D01*
X127865000Y-56059819D02*
X127865000Y-55059819D01*
X127865000Y-55059819D02*
X127769762Y-55202676D01*
X127769762Y-55202676D02*
X127674524Y-55297914D01*
X127674524Y-55297914D02*
X127579286Y-55345533D01*
X142136667Y-61902295D02*
X141870000Y-61521342D01*
X141679524Y-61902295D02*
X141679524Y-61102295D01*
X141679524Y-61102295D02*
X141984286Y-61102295D01*
X141984286Y-61102295D02*
X142060476Y-61140390D01*
X142060476Y-61140390D02*
X142098571Y-61178485D01*
X142098571Y-61178485D02*
X142136667Y-61254676D01*
X142136667Y-61254676D02*
X142136667Y-61368961D01*
X142136667Y-61368961D02*
X142098571Y-61445152D01*
X142098571Y-61445152D02*
X142060476Y-61483247D01*
X142060476Y-61483247D02*
X141984286Y-61521342D01*
X141984286Y-61521342D02*
X141679524Y-61521342D01*
X142822381Y-61102295D02*
X142670000Y-61102295D01*
X142670000Y-61102295D02*
X142593809Y-61140390D01*
X142593809Y-61140390D02*
X142555714Y-61178485D01*
X142555714Y-61178485D02*
X142479524Y-61292771D01*
X142479524Y-61292771D02*
X142441428Y-61445152D01*
X142441428Y-61445152D02*
X142441428Y-61749914D01*
X142441428Y-61749914D02*
X142479524Y-61826104D01*
X142479524Y-61826104D02*
X142517619Y-61864200D01*
X142517619Y-61864200D02*
X142593809Y-61902295D01*
X142593809Y-61902295D02*
X142746190Y-61902295D01*
X142746190Y-61902295D02*
X142822381Y-61864200D01*
X142822381Y-61864200D02*
X142860476Y-61826104D01*
X142860476Y-61826104D02*
X142898571Y-61749914D01*
X142898571Y-61749914D02*
X142898571Y-61559438D01*
X142898571Y-61559438D02*
X142860476Y-61483247D01*
X142860476Y-61483247D02*
X142822381Y-61445152D01*
X142822381Y-61445152D02*
X142746190Y-61407057D01*
X142746190Y-61407057D02*
X142593809Y-61407057D01*
X142593809Y-61407057D02*
X142517619Y-61445152D01*
X142517619Y-61445152D02*
X142479524Y-61483247D01*
X142479524Y-61483247D02*
X142441428Y-61559438D01*
X113155714Y-53072295D02*
X112889047Y-52691342D01*
X112698571Y-53072295D02*
X112698571Y-52272295D01*
X112698571Y-52272295D02*
X113003333Y-52272295D01*
X113003333Y-52272295D02*
X113079523Y-52310390D01*
X113079523Y-52310390D02*
X113117618Y-52348485D01*
X113117618Y-52348485D02*
X113155714Y-52424676D01*
X113155714Y-52424676D02*
X113155714Y-52538961D01*
X113155714Y-52538961D02*
X113117618Y-52615152D01*
X113117618Y-52615152D02*
X113079523Y-52653247D01*
X113079523Y-52653247D02*
X113003333Y-52691342D01*
X113003333Y-52691342D02*
X112698571Y-52691342D01*
X113917618Y-53072295D02*
X113460475Y-53072295D01*
X113689047Y-53072295D02*
X113689047Y-52272295D01*
X113689047Y-52272295D02*
X113612856Y-52386580D01*
X113612856Y-52386580D02*
X113536666Y-52462771D01*
X113536666Y-52462771D02*
X113460475Y-52500866D01*
X114641428Y-52272295D02*
X114260476Y-52272295D01*
X114260476Y-52272295D02*
X114222380Y-52653247D01*
X114222380Y-52653247D02*
X114260476Y-52615152D01*
X114260476Y-52615152D02*
X114336666Y-52577057D01*
X114336666Y-52577057D02*
X114527142Y-52577057D01*
X114527142Y-52577057D02*
X114603333Y-52615152D01*
X114603333Y-52615152D02*
X114641428Y-52653247D01*
X114641428Y-52653247D02*
X114679523Y-52729438D01*
X114679523Y-52729438D02*
X114679523Y-52919914D01*
X114679523Y-52919914D02*
X114641428Y-52996104D01*
X114641428Y-52996104D02*
X114603333Y-53034200D01*
X114603333Y-53034200D02*
X114527142Y-53072295D01*
X114527142Y-53072295D02*
X114336666Y-53072295D01*
X114336666Y-53072295D02*
X114260476Y-53034200D01*
X114260476Y-53034200D02*
X114222380Y-52996104D01*
X138286667Y-61972295D02*
X138020000Y-61591342D01*
X137829524Y-61972295D02*
X137829524Y-61172295D01*
X137829524Y-61172295D02*
X138134286Y-61172295D01*
X138134286Y-61172295D02*
X138210476Y-61210390D01*
X138210476Y-61210390D02*
X138248571Y-61248485D01*
X138248571Y-61248485D02*
X138286667Y-61324676D01*
X138286667Y-61324676D02*
X138286667Y-61438961D01*
X138286667Y-61438961D02*
X138248571Y-61515152D01*
X138248571Y-61515152D02*
X138210476Y-61553247D01*
X138210476Y-61553247D02*
X138134286Y-61591342D01*
X138134286Y-61591342D02*
X137829524Y-61591342D01*
X138553333Y-61172295D02*
X139048571Y-61172295D01*
X139048571Y-61172295D02*
X138781905Y-61477057D01*
X138781905Y-61477057D02*
X138896190Y-61477057D01*
X138896190Y-61477057D02*
X138972381Y-61515152D01*
X138972381Y-61515152D02*
X139010476Y-61553247D01*
X139010476Y-61553247D02*
X139048571Y-61629438D01*
X139048571Y-61629438D02*
X139048571Y-61819914D01*
X139048571Y-61819914D02*
X139010476Y-61896104D01*
X139010476Y-61896104D02*
X138972381Y-61934200D01*
X138972381Y-61934200D02*
X138896190Y-61972295D01*
X138896190Y-61972295D02*
X138667619Y-61972295D01*
X138667619Y-61972295D02*
X138591428Y-61934200D01*
X138591428Y-61934200D02*
X138553333Y-61896104D01*
X129240476Y-85462295D02*
X129240476Y-86109914D01*
X129240476Y-86109914D02*
X129278571Y-86186104D01*
X129278571Y-86186104D02*
X129316666Y-86224200D01*
X129316666Y-86224200D02*
X129392857Y-86262295D01*
X129392857Y-86262295D02*
X129545238Y-86262295D01*
X129545238Y-86262295D02*
X129621428Y-86224200D01*
X129621428Y-86224200D02*
X129659523Y-86186104D01*
X129659523Y-86186104D02*
X129697619Y-86109914D01*
X129697619Y-86109914D02*
X129697619Y-85462295D01*
X130421428Y-85462295D02*
X130269047Y-85462295D01*
X130269047Y-85462295D02*
X130192856Y-85500390D01*
X130192856Y-85500390D02*
X130154761Y-85538485D01*
X130154761Y-85538485D02*
X130078571Y-85652771D01*
X130078571Y-85652771D02*
X130040475Y-85805152D01*
X130040475Y-85805152D02*
X130040475Y-86109914D01*
X130040475Y-86109914D02*
X130078571Y-86186104D01*
X130078571Y-86186104D02*
X130116666Y-86224200D01*
X130116666Y-86224200D02*
X130192856Y-86262295D01*
X130192856Y-86262295D02*
X130345237Y-86262295D01*
X130345237Y-86262295D02*
X130421428Y-86224200D01*
X130421428Y-86224200D02*
X130459523Y-86186104D01*
X130459523Y-86186104D02*
X130497618Y-86109914D01*
X130497618Y-86109914D02*
X130497618Y-85919438D01*
X130497618Y-85919438D02*
X130459523Y-85843247D01*
X130459523Y-85843247D02*
X130421428Y-85805152D01*
X130421428Y-85805152D02*
X130345237Y-85767057D01*
X130345237Y-85767057D02*
X130192856Y-85767057D01*
X130192856Y-85767057D02*
X130116666Y-85805152D01*
X130116666Y-85805152D02*
X130078571Y-85843247D01*
X130078571Y-85843247D02*
X130040475Y-85919438D01*
X128229819Y-87249999D02*
X128467914Y-87249999D01*
X128372676Y-87488094D02*
X128467914Y-87249999D01*
X128467914Y-87249999D02*
X128372676Y-87011904D01*
X128658390Y-87392856D02*
X128467914Y-87249999D01*
X128467914Y-87249999D02*
X128658390Y-87107142D01*
X127207019Y-87277949D02*
X127445114Y-87277949D01*
X127349876Y-87516044D02*
X127445114Y-87277949D01*
X127445114Y-87277949D02*
X127349876Y-87039854D01*
X127635590Y-87420806D02*
X127445114Y-87277949D01*
X127445114Y-87277949D02*
X127635590Y-87135092D01*
X116076325Y-80595395D02*
X115809658Y-80214442D01*
X115619182Y-80595395D02*
X115619182Y-79795395D01*
X115619182Y-79795395D02*
X115923944Y-79795395D01*
X115923944Y-79795395D02*
X116000134Y-79833490D01*
X116000134Y-79833490D02*
X116038229Y-79871585D01*
X116038229Y-79871585D02*
X116076325Y-79947776D01*
X116076325Y-79947776D02*
X116076325Y-80062061D01*
X116076325Y-80062061D02*
X116038229Y-80138252D01*
X116038229Y-80138252D02*
X116000134Y-80176347D01*
X116000134Y-80176347D02*
X115923944Y-80214442D01*
X115923944Y-80214442D02*
X115619182Y-80214442D01*
X116381086Y-79871585D02*
X116419182Y-79833490D01*
X116419182Y-79833490D02*
X116495372Y-79795395D01*
X116495372Y-79795395D02*
X116685848Y-79795395D01*
X116685848Y-79795395D02*
X116762039Y-79833490D01*
X116762039Y-79833490D02*
X116800134Y-79871585D01*
X116800134Y-79871585D02*
X116838229Y-79947776D01*
X116838229Y-79947776D02*
X116838229Y-80023966D01*
X116838229Y-80023966D02*
X116800134Y-80138252D01*
X116800134Y-80138252D02*
X116342991Y-80595395D01*
X116342991Y-80595395D02*
X116838229Y-80595395D01*
X113025714Y-57562295D02*
X112759047Y-57181342D01*
X112568571Y-57562295D02*
X112568571Y-56762295D01*
X112568571Y-56762295D02*
X112873333Y-56762295D01*
X112873333Y-56762295D02*
X112949523Y-56800390D01*
X112949523Y-56800390D02*
X112987618Y-56838485D01*
X112987618Y-56838485D02*
X113025714Y-56914676D01*
X113025714Y-56914676D02*
X113025714Y-57028961D01*
X113025714Y-57028961D02*
X112987618Y-57105152D01*
X112987618Y-57105152D02*
X112949523Y-57143247D01*
X112949523Y-57143247D02*
X112873333Y-57181342D01*
X112873333Y-57181342D02*
X112568571Y-57181342D01*
X113787618Y-57562295D02*
X113330475Y-57562295D01*
X113559047Y-57562295D02*
X113559047Y-56762295D01*
X113559047Y-56762295D02*
X113482856Y-56876580D01*
X113482856Y-56876580D02*
X113406666Y-56952771D01*
X113406666Y-56952771D02*
X113330475Y-56990866D01*
X114473333Y-56762295D02*
X114320952Y-56762295D01*
X114320952Y-56762295D02*
X114244761Y-56800390D01*
X114244761Y-56800390D02*
X114206666Y-56838485D01*
X114206666Y-56838485D02*
X114130476Y-56952771D01*
X114130476Y-56952771D02*
X114092380Y-57105152D01*
X114092380Y-57105152D02*
X114092380Y-57409914D01*
X114092380Y-57409914D02*
X114130476Y-57486104D01*
X114130476Y-57486104D02*
X114168571Y-57524200D01*
X114168571Y-57524200D02*
X114244761Y-57562295D01*
X114244761Y-57562295D02*
X114397142Y-57562295D01*
X114397142Y-57562295D02*
X114473333Y-57524200D01*
X114473333Y-57524200D02*
X114511428Y-57486104D01*
X114511428Y-57486104D02*
X114549523Y-57409914D01*
X114549523Y-57409914D02*
X114549523Y-57219438D01*
X114549523Y-57219438D02*
X114511428Y-57143247D01*
X114511428Y-57143247D02*
X114473333Y-57105152D01*
X114473333Y-57105152D02*
X114397142Y-57067057D01*
X114397142Y-57067057D02*
X114244761Y-57067057D01*
X114244761Y-57067057D02*
X114168571Y-57105152D01*
X114168571Y-57105152D02*
X114130476Y-57143247D01*
X114130476Y-57143247D02*
X114092380Y-57219438D01*
X134337295Y-65734523D02*
X134984914Y-65734523D01*
X134984914Y-65734523D02*
X135061104Y-65696428D01*
X135061104Y-65696428D02*
X135099200Y-65658333D01*
X135099200Y-65658333D02*
X135137295Y-65582142D01*
X135137295Y-65582142D02*
X135137295Y-65429761D01*
X135137295Y-65429761D02*
X135099200Y-65353571D01*
X135099200Y-65353571D02*
X135061104Y-65315476D01*
X135061104Y-65315476D02*
X134984914Y-65277380D01*
X134984914Y-65277380D02*
X134337295Y-65277380D01*
X135137295Y-64477381D02*
X135137295Y-64934524D01*
X135137295Y-64705952D02*
X134337295Y-64705952D01*
X134337295Y-64705952D02*
X134451580Y-64782143D01*
X134451580Y-64782143D02*
X134527771Y-64858333D01*
X134527771Y-64858333D02*
X134565866Y-64934524D01*
X133171250Y-61928819D02*
X133171250Y-62166914D01*
X132933155Y-62071676D02*
X133171250Y-62166914D01*
X133171250Y-62166914D02*
X133409345Y-62071676D01*
X133028393Y-62357390D02*
X133171250Y-62166914D01*
X133171250Y-62166914D02*
X133314107Y-62357390D01*
X133324751Y-63029818D02*
X133324751Y-63267913D01*
X133086656Y-63172675D02*
X133324751Y-63267913D01*
X133324751Y-63267913D02*
X133562846Y-63172675D01*
X133181894Y-63458389D02*
X133324751Y-63267913D01*
X133324751Y-63267913D02*
X133467608Y-63458389D01*
X136467142Y-56174819D02*
X136133809Y-55698628D01*
X135895714Y-56174819D02*
X135895714Y-55174819D01*
X135895714Y-55174819D02*
X136276666Y-55174819D01*
X136276666Y-55174819D02*
X136371904Y-55222438D01*
X136371904Y-55222438D02*
X136419523Y-55270057D01*
X136419523Y-55270057D02*
X136467142Y-55365295D01*
X136467142Y-55365295D02*
X136467142Y-55508152D01*
X136467142Y-55508152D02*
X136419523Y-55603390D01*
X136419523Y-55603390D02*
X136371904Y-55651009D01*
X136371904Y-55651009D02*
X136276666Y-55698628D01*
X136276666Y-55698628D02*
X135895714Y-55698628D01*
X136848095Y-55270057D02*
X136895714Y-55222438D01*
X136895714Y-55222438D02*
X136990952Y-55174819D01*
X136990952Y-55174819D02*
X137229047Y-55174819D01*
X137229047Y-55174819D02*
X137324285Y-55222438D01*
X137324285Y-55222438D02*
X137371904Y-55270057D01*
X137371904Y-55270057D02*
X137419523Y-55365295D01*
X137419523Y-55365295D02*
X137419523Y-55460533D01*
X137419523Y-55460533D02*
X137371904Y-55603390D01*
X137371904Y-55603390D02*
X136800476Y-56174819D01*
X136800476Y-56174819D02*
X137419523Y-56174819D01*
X138038571Y-55174819D02*
X138133809Y-55174819D01*
X138133809Y-55174819D02*
X138229047Y-55222438D01*
X138229047Y-55222438D02*
X138276666Y-55270057D01*
X138276666Y-55270057D02*
X138324285Y-55365295D01*
X138324285Y-55365295D02*
X138371904Y-55555771D01*
X138371904Y-55555771D02*
X138371904Y-55793866D01*
X138371904Y-55793866D02*
X138324285Y-55984342D01*
X138324285Y-55984342D02*
X138276666Y-56079580D01*
X138276666Y-56079580D02*
X138229047Y-56127200D01*
X138229047Y-56127200D02*
X138133809Y-56174819D01*
X138133809Y-56174819D02*
X138038571Y-56174819D01*
X138038571Y-56174819D02*
X137943333Y-56127200D01*
X137943333Y-56127200D02*
X137895714Y-56079580D01*
X137895714Y-56079580D02*
X137848095Y-55984342D01*
X137848095Y-55984342D02*
X137800476Y-55793866D01*
X137800476Y-55793866D02*
X137800476Y-55555771D01*
X137800476Y-55555771D02*
X137848095Y-55365295D01*
X137848095Y-55365295D02*
X137895714Y-55270057D01*
X137895714Y-55270057D02*
X137943333Y-55222438D01*
X137943333Y-55222438D02*
X138038571Y-55174819D01*
D14*
%TO.C,U4*%
X137798599Y-67596851D02*
X137798599Y-69552651D01*
X141151399Y-69552651D02*
X141151399Y-67596851D01*
%TO.C,U2*%
X126996300Y-92250600D02*
X126996300Y-95349400D01*
X126996300Y-95349400D02*
X127311260Y-95349400D01*
X127311260Y-92250600D02*
X126996300Y-92250600D01*
X128738740Y-95349400D02*
X129053700Y-95349400D01*
X129053700Y-92250600D02*
X128738740Y-92250600D01*
X129053700Y-95349400D02*
X129053700Y-92250600D01*
D15*
%TO.C,Q6*%
X122050000Y-48480000D02*
X122050000Y-47680000D01*
X122050000Y-48480000D02*
X122750000Y-48480000D01*
X124950000Y-48480000D02*
X124250000Y-48480000D01*
X124950000Y-48480000D02*
X124950000Y-47680000D01*
D16*
X125350000Y-46030000D02*
G75*
G02*
X125250000Y-46030000I-50000J0D01*
G01*
X125250000Y-46030000D02*
G75*
G02*
X125350000Y-46030000I50000J0D01*
G01*
D15*
%TO.C,Q7*%
X132350000Y-52670000D02*
X132350000Y-53330000D01*
X133650000Y-51540000D02*
X132875000Y-51540000D01*
X133650000Y-52380000D02*
X133650000Y-51540000D01*
X133650000Y-53620000D02*
X133650000Y-54460000D01*
X133650000Y-54460000D02*
X132875000Y-54460000D01*
D10*
X130600000Y-51800000D02*
G75*
G02*
X130400000Y-51800000I-100000J0D01*
G01*
X130400000Y-51800000D02*
G75*
G02*
X130600000Y-51800000I100000J0D01*
G01*
D17*
%TO.C,R18*%
X137657776Y-48477500D02*
X138167224Y-48477500D01*
X137657776Y-49522500D02*
X138167224Y-49522500D01*
D10*
%TO.C,IC2*%
X122290000Y-76225000D02*
X122290000Y-74680000D01*
X122445000Y-71120000D02*
X131105000Y-71120000D01*
X122445000Y-74330000D02*
X122445000Y-71120000D01*
X131105000Y-71120000D02*
X131105000Y-74330000D01*
X131105000Y-74330000D02*
X122445000Y-74330000D01*
D17*
%TO.C,R19*%
X137655276Y-50267500D02*
X138164724Y-50267500D01*
X137655276Y-51312500D02*
X138164724Y-51312500D01*
%TO.C,R14*%
X110545276Y-53677500D02*
X111054724Y-53677500D01*
X110545276Y-54722500D02*
X111054724Y-54722500D01*
%TO.C,Q1*%
X118950000Y-45990000D02*
X118300000Y-45990000D01*
X118950000Y-45990000D02*
X119600000Y-45990000D01*
X118950000Y-49110000D02*
X118300000Y-49110000D01*
X118950000Y-49110000D02*
X119600000Y-49110000D01*
X117787500Y-46040000D02*
X117547500Y-45710000D01*
X118027500Y-45710000D01*
X117787500Y-46040000D01*
G36*
X117787500Y-46040000D02*
G01*
X117547500Y-45710000D01*
X118027500Y-45710000D01*
X117787500Y-46040000D01*
G37*
D15*
%TO.C,L1*%
X117650000Y-91980000D02*
X117650000Y-87680000D01*
X121950000Y-87680000D02*
X121950000Y-91980000D01*
D10*
X117000000Y-89830000D02*
G75*
G02*
X116800000Y-89830000I-100000J0D01*
G01*
X116800000Y-89830000D02*
G75*
G02*
X117000000Y-89830000I100000J0D01*
G01*
D17*
%TO.C,J4*%
X108290000Y-92480000D02*
X108290000Y-69510000D01*
X111050000Y-69510000D02*
X108290000Y-69510000D01*
X111050000Y-92480000D02*
X108290000Y-92480000D01*
X111050000Y-92480000D02*
X111050000Y-69510000D01*
X111050000Y-93750000D02*
X111050000Y-95130000D01*
X111050000Y-95130000D02*
X109670000Y-95130000D01*
%TO.C,C7*%
X137465000Y-87634420D02*
X137465000Y-87915580D01*
X138485000Y-87634420D02*
X138485000Y-87915580D01*
%TO.C,C5*%
X124640000Y-83534420D02*
X124640000Y-83815580D01*
X125660000Y-83534420D02*
X125660000Y-83815580D01*
D10*
%TO.C,IC1*%
X133275000Y-70272369D02*
X136275000Y-70272369D01*
X133275000Y-72572369D02*
X133275000Y-70272369D01*
X136275000Y-70272369D02*
X136275000Y-72572369D01*
X136275000Y-72572369D02*
X133275000Y-72572369D01*
X136325000Y-68522369D02*
X136325000Y-69922369D01*
D17*
%TO.C,C3*%
X118434380Y-86013100D02*
X118153220Y-86013100D01*
X118434380Y-87033100D02*
X118153220Y-87033100D01*
D10*
%TO.C,U5*%
X120600000Y-82550000D02*
X122000000Y-82550000D01*
X120800001Y-84500001D02*
X121799999Y-84500001D01*
D17*
%TO.C,C9*%
X131690000Y-86159420D02*
X131690000Y-86440580D01*
X132710000Y-86159420D02*
X132710000Y-86440580D01*
%TO.C,Q2*%
X118112500Y-51440000D02*
X117462500Y-51440000D01*
X118112500Y-51440000D02*
X118762500Y-51440000D01*
X118112500Y-54560000D02*
X117462500Y-54560000D01*
X118112500Y-54560000D02*
X118762500Y-54560000D01*
X116950000Y-51490000D02*
X116710000Y-51160000D01*
X117190000Y-51160000D01*
X116950000Y-51490000D01*
G36*
X116950000Y-51490000D02*
G01*
X116710000Y-51160000D01*
X117190000Y-51160000D01*
X116950000Y-51490000D01*
G37*
%TO.C,C6*%
X135715000Y-87634420D02*
X135715000Y-87915580D01*
X136735000Y-87634420D02*
X136735000Y-87915580D01*
D15*
%TO.C,Q5*%
X127350000Y-46040000D02*
X128125000Y-46040000D01*
X127350000Y-46880000D02*
X127350000Y-46040000D01*
X127350000Y-48120000D02*
X127350000Y-48960000D01*
X127350000Y-48960000D02*
X128125000Y-48960000D01*
X128650000Y-47830000D02*
X128650000Y-47170000D01*
D10*
X130600000Y-48700000D02*
G75*
G02*
X130400000Y-48700000I-100000J0D01*
G01*
X130400000Y-48700000D02*
G75*
G02*
X130600000Y-48700000I100000J0D01*
G01*
D14*
%TO.C,U7*%
X117272500Y-66750221D02*
X119177500Y-66750221D01*
X119177500Y-63549821D02*
X117272500Y-63549821D01*
%TO.C,J1*%
X107810000Y-61892724D02*
X107810000Y-67107289D01*
X109237175Y-67849999D02*
X111410000Y-67849999D01*
X111410000Y-61150013D02*
X109237174Y-61150013D01*
X111410000Y-61779973D02*
X111410000Y-61150013D01*
X111410000Y-67849999D02*
X111410000Y-67220052D01*
D12*
X111385000Y-60900006D02*
G75*
G02*
X111235000Y-60900006I-75000J0D01*
G01*
X111235000Y-60900006D02*
G75*
G02*
X111385000Y-60900006I75000J0D01*
G01*
D17*
%TO.C,C4*%
X122940000Y-83559420D02*
X122940000Y-83840580D01*
X123960000Y-83559420D02*
X123960000Y-83840580D01*
D10*
%TO.C,Q9*%
X122290000Y-67825000D02*
X122290000Y-66280000D01*
X122445000Y-62720000D02*
X131105000Y-62720000D01*
X122445000Y-65930000D02*
X122445000Y-62720000D01*
X131105000Y-62720000D02*
X131105000Y-65930000D01*
X131105000Y-65930000D02*
X122445000Y-65930000D01*
D17*
%TO.C,R17*%
X111042224Y-55177500D02*
X110532776Y-55177500D01*
X111042224Y-56222500D02*
X110532776Y-56222500D01*
D15*
%TO.C,Q8*%
X122030000Y-55150000D02*
X122030000Y-54350000D01*
X122030000Y-55150000D02*
X122730000Y-55150000D01*
X124930000Y-55150000D02*
X124230000Y-55150000D01*
X124930000Y-55150000D02*
X124930000Y-54350000D01*
D16*
X125330000Y-52700000D02*
G75*
G02*
X125230000Y-52700000I-50000J0D01*
G01*
X125230000Y-52700000D02*
G75*
G02*
X125330000Y-52700000I50000J0D01*
G01*
D17*
%TO.C,J2*%
X144460000Y-82320000D02*
X145840000Y-82320000D01*
X144460000Y-83700000D02*
X144460000Y-82320000D01*
X144460000Y-84970000D02*
X144460000Y-90160000D01*
X144460000Y-84970000D02*
X147220000Y-84970000D01*
X144460000Y-90160000D02*
X147220000Y-90160000D01*
X147220000Y-84970000D02*
X147220000Y-90160000D01*
%TO.C,C2*%
X118434380Y-84343100D02*
X118153220Y-84343100D01*
X118434380Y-85363100D02*
X118153220Y-85363100D01*
D14*
%TO.C,Q3*%
X134374500Y-83809640D02*
X134374500Y-84490360D01*
X134374500Y-85775600D02*
X136025500Y-85775600D01*
X136025500Y-82524400D02*
X134374500Y-82524400D01*
X136025500Y-83537860D02*
X136025500Y-82524400D01*
X136025500Y-85775600D02*
X136025500Y-84762140D01*
X134077000Y-81381400D02*
G75*
G02*
X133823000Y-81381400I-127000J0D01*
G01*
X133823000Y-81381400D02*
G75*
G02*
X134077000Y-81381400I127000J0D01*
G01*
D15*
%TO.C,D1*%
X129000000Y-52430000D02*
X127000000Y-52430000D01*
X129000000Y-54570000D02*
X127000000Y-54570000D01*
D10*
X129828000Y-54000000D02*
G75*
G02*
X129628000Y-54000000I-100000J0D01*
G01*
X129628000Y-54000000D02*
G75*
G02*
X129828000Y-54000000I100000J0D01*
G01*
D17*
%TO.C,R15*%
X111042224Y-52177500D02*
X110532776Y-52177500D01*
X111042224Y-53222500D02*
X110532776Y-53222500D01*
D14*
%TO.C,U6*%
X128643500Y-85074500D02*
X128643500Y-86725500D01*
X130014859Y-85074500D02*
X129685141Y-85074500D01*
X131056500Y-86725500D02*
X131056500Y-85074500D01*
D17*
%TO.C,R16*%
X110545276Y-56677500D02*
X111054724Y-56677500D01*
X110545276Y-57722500D02*
X111054724Y-57722500D01*
D14*
%TO.C,U1*%
X133797100Y-66801400D02*
X135752900Y-66801400D01*
X135752900Y-63448600D02*
X133797100Y-63448600D01*
D15*
%TO.C,U8*%
X131830000Y-48125000D02*
X131830000Y-46875000D01*
X134170000Y-46875000D02*
X134170000Y-48125000D01*
D10*
X133750000Y-45400000D02*
G75*
G02*
X133550000Y-45400000I-100000J0D01*
G01*
X133550000Y-45400000D02*
G75*
G02*
X133750000Y-45400000I100000J0D01*
G01*
D17*
%TO.C,R20*%
X136477500Y-53192776D02*
X136477500Y-53702224D01*
X137522500Y-53192776D02*
X137522500Y-53702224D01*
%TD*%
%LPC*%
G36*
X144920672Y-95911508D02*
G01*
X145160735Y-95975833D01*
X145390349Y-96070942D01*
X145605583Y-96195208D01*
X145802757Y-96346504D01*
X145978496Y-96522243D01*
X146129792Y-96719417D01*
X146254058Y-96934651D01*
X146349167Y-97164265D01*
X146413492Y-97404328D01*
X146445932Y-97650734D01*
X146445932Y-97899266D01*
X146413492Y-98145672D01*
X146349167Y-98385735D01*
X146254058Y-98615349D01*
X146129792Y-98830583D01*
X145978496Y-99027757D01*
X145802757Y-99203496D01*
X145605583Y-99354792D01*
X145390349Y-99479058D01*
X145160735Y-99574167D01*
X144920672Y-99638492D01*
X144674266Y-99670932D01*
X144425734Y-99670932D01*
X144179328Y-99638492D01*
X143939265Y-99574167D01*
X143709651Y-99479058D01*
X143494417Y-99354792D01*
X143297243Y-99203496D01*
X143121504Y-99027757D01*
X142970208Y-98830583D01*
X142845942Y-98615349D01*
X142750833Y-98385735D01*
X142686508Y-98145672D01*
X142654068Y-97899266D01*
X142654068Y-97650734D01*
X142686508Y-97404328D01*
X142750833Y-97164265D01*
X142845942Y-96934651D01*
X142970208Y-96719417D01*
X143121504Y-96522243D01*
X143297243Y-96346504D01*
X143494417Y-96195208D01*
X143709651Y-96070942D01*
X143939265Y-95975833D01*
X144179328Y-95911508D01*
X144425734Y-95879068D01*
X144674266Y-95879068D01*
X144920672Y-95911508D01*
G37*
G36*
X110955672Y-95901520D02*
G01*
X111195735Y-95965845D01*
X111425349Y-96060954D01*
X111640583Y-96185220D01*
X111837757Y-96336516D01*
X112013496Y-96512255D01*
X112164792Y-96709429D01*
X112289058Y-96924663D01*
X112384167Y-97154277D01*
X112448492Y-97394340D01*
X112480932Y-97640746D01*
X112480932Y-97889278D01*
X112448492Y-98135684D01*
X112384167Y-98375747D01*
X112289058Y-98605361D01*
X112164792Y-98820595D01*
X112013496Y-99017769D01*
X111837757Y-99193508D01*
X111640583Y-99344804D01*
X111425349Y-99469070D01*
X111195735Y-99564179D01*
X110955672Y-99628504D01*
X110709266Y-99660944D01*
X110460734Y-99660944D01*
X110214328Y-99628504D01*
X109974265Y-99564179D01*
X109744651Y-99469070D01*
X109529417Y-99344804D01*
X109332243Y-99193508D01*
X109156504Y-99017769D01*
X109005208Y-98820595D01*
X108880942Y-98605361D01*
X108785833Y-98375747D01*
X108721508Y-98135684D01*
X108689068Y-97889278D01*
X108689068Y-97640746D01*
X108721508Y-97394340D01*
X108785833Y-97154277D01*
X108880942Y-96924663D01*
X109005208Y-96709429D01*
X109156504Y-96512255D01*
X109332243Y-96336516D01*
X109529417Y-96185220D01*
X109744651Y-96060954D01*
X109974265Y-95965845D01*
X110214328Y-95901520D01*
X110460734Y-95869080D01*
X110709266Y-95869080D01*
X110955672Y-95901520D01*
G37*
G36*
X128406000Y-96086000D02*
G01*
X127644000Y-96086000D01*
X127644000Y-94866800D01*
X128406000Y-94866800D01*
X128406000Y-96086000D01*
G37*
G36*
X110520000Y-94600000D02*
G01*
X108820000Y-94600000D01*
X108820000Y-92900000D01*
X110520000Y-92900000D01*
X110520000Y-94600000D01*
G37*
G36*
X128406000Y-92733200D02*
G01*
X127644000Y-92733200D01*
X127644000Y-91514000D01*
X128406000Y-91514000D01*
X128406000Y-92733200D01*
G37*
G36*
X109916742Y-90396601D02*
G01*
X110070687Y-90460367D01*
X110209234Y-90552941D01*
X110327059Y-90670766D01*
X110419633Y-90809313D01*
X110483399Y-90963258D01*
X110515907Y-91126685D01*
X110515907Y-91293315D01*
X110483399Y-91456742D01*
X110419633Y-91610687D01*
X110327059Y-91749234D01*
X110209234Y-91867059D01*
X110070687Y-91959633D01*
X109916742Y-92023399D01*
X109753315Y-92055907D01*
X109586685Y-92055907D01*
X109423258Y-92023399D01*
X109269313Y-91959633D01*
X109130766Y-91867059D01*
X109012941Y-91749234D01*
X108920367Y-91610687D01*
X108856601Y-91456742D01*
X108824093Y-91293315D01*
X108824093Y-91126685D01*
X108856601Y-90963258D01*
X108920367Y-90809313D01*
X109012941Y-90670766D01*
X109130766Y-90552941D01*
X109269313Y-90460367D01*
X109423258Y-90396601D01*
X109586685Y-90364093D01*
X109753315Y-90364093D01*
X109916742Y-90396601D01*
G37*
G36*
X142894900Y-91950900D02*
G01*
X141905100Y-91950900D01*
X141905100Y-91142900D01*
X142894900Y-91142900D01*
X142894900Y-91950900D01*
G37*
G36*
X131857100Y-91894900D02*
G01*
X131049100Y-91894900D01*
X131049100Y-90905100D01*
X131857100Y-90905100D01*
X131857100Y-91894900D01*
G37*
G36*
X133350900Y-91894900D02*
G01*
X132542900Y-91894900D01*
X132542900Y-90905100D01*
X133350900Y-90905100D01*
X133350900Y-91894900D01*
G37*
G36*
X119214034Y-87835764D02*
G01*
X119247125Y-87857875D01*
X119269236Y-87890966D01*
X119277000Y-87930000D01*
X119277000Y-91730000D01*
X119269236Y-91769034D01*
X119247125Y-91802125D01*
X119214034Y-91824236D01*
X119175000Y-91832000D01*
X117975000Y-91832000D01*
X117935966Y-91824236D01*
X117902875Y-91802125D01*
X117880764Y-91769034D01*
X117873000Y-91730000D01*
X117873000Y-87930000D01*
X117880764Y-87890966D01*
X117902875Y-87857875D01*
X117935966Y-87835764D01*
X117975000Y-87828000D01*
X119175000Y-87828000D01*
X119214034Y-87835764D01*
G37*
G36*
X121664034Y-87835764D02*
G01*
X121697125Y-87857875D01*
X121719236Y-87890966D01*
X121727000Y-87930000D01*
X121727000Y-91730000D01*
X121719236Y-91769034D01*
X121697125Y-91802125D01*
X121664034Y-91824236D01*
X121625000Y-91832000D01*
X120425000Y-91832000D01*
X120385966Y-91824236D01*
X120352875Y-91802125D01*
X120330764Y-91769034D01*
X120323000Y-91730000D01*
X120323000Y-87930000D01*
X120330764Y-87890966D01*
X120352875Y-87857875D01*
X120385966Y-87835764D01*
X120425000Y-87828000D01*
X121625000Y-87828000D01*
X121664034Y-87835764D01*
G37*
G36*
X142894900Y-90457100D02*
G01*
X141905100Y-90457100D01*
X141905100Y-89649100D01*
X142894900Y-89649100D01*
X142894900Y-90457100D01*
G37*
G36*
X126907100Y-90394900D02*
G01*
X126099100Y-90394900D01*
X126099100Y-89405100D01*
X126907100Y-89405100D01*
X126907100Y-90394900D01*
G37*
G36*
X128400900Y-90394900D02*
G01*
X127592900Y-90394900D01*
X127592900Y-89405100D01*
X128400900Y-89405100D01*
X128400900Y-90394900D01*
G37*
G36*
X146086742Y-87966601D02*
G01*
X146240687Y-88030367D01*
X146379234Y-88122941D01*
X146497059Y-88240766D01*
X146589633Y-88379313D01*
X146653399Y-88533258D01*
X146685907Y-88696685D01*
X146685907Y-88863315D01*
X146653399Y-89026742D01*
X146589633Y-89180687D01*
X146497059Y-89319234D01*
X146379234Y-89437059D01*
X146240687Y-89529633D01*
X146086742Y-89593399D01*
X145923315Y-89625907D01*
X145756685Y-89625907D01*
X145593258Y-89593399D01*
X145439313Y-89529633D01*
X145300766Y-89437059D01*
X145182941Y-89319234D01*
X145090367Y-89180687D01*
X145026601Y-89026742D01*
X144994093Y-88863315D01*
X144994093Y-88696685D01*
X145026601Y-88533258D01*
X145090367Y-88379313D01*
X145182941Y-88240766D01*
X145300766Y-88122941D01*
X145439313Y-88030367D01*
X145593258Y-87966601D01*
X145756685Y-87934093D01*
X145923315Y-87934093D01*
X146086742Y-87966601D01*
G37*
G36*
X131804000Y-89594900D02*
G01*
X130996000Y-89594900D01*
X130996000Y-88605100D01*
X131804000Y-88605100D01*
X131804000Y-89594900D01*
G37*
G36*
X133297800Y-89594900D02*
G01*
X132489800Y-89594900D01*
X132489800Y-88605100D01*
X133297800Y-88605100D01*
X133297800Y-89594900D01*
G37*
G36*
X109916742Y-87856601D02*
G01*
X110070687Y-87920367D01*
X110209234Y-88012941D01*
X110327059Y-88130766D01*
X110419633Y-88269313D01*
X110483399Y-88423258D01*
X110515907Y-88586685D01*
X110515907Y-88753315D01*
X110483399Y-88916742D01*
X110419633Y-89070687D01*
X110327059Y-89209234D01*
X110209234Y-89327059D01*
X110070687Y-89419633D01*
X109916742Y-89483399D01*
X109753315Y-89515907D01*
X109586685Y-89515907D01*
X109423258Y-89483399D01*
X109269313Y-89419633D01*
X109130766Y-89327059D01*
X109012941Y-89209234D01*
X108920367Y-89070687D01*
X108856601Y-88916742D01*
X108824093Y-88753315D01*
X108824093Y-88586685D01*
X108856601Y-88423258D01*
X108920367Y-88269313D01*
X109012941Y-88130766D01*
X109130766Y-88012941D01*
X109269313Y-87920367D01*
X109423258Y-87856601D01*
X109586685Y-87824093D01*
X109753315Y-87824093D01*
X109916742Y-87856601D01*
G37*
G36*
X136561104Y-88117127D02*
G01*
X136634099Y-88165901D01*
X136682873Y-88238896D01*
X136700000Y-88325000D01*
X136700000Y-88775000D01*
X136682873Y-88861104D01*
X136634099Y-88934099D01*
X136561104Y-88982873D01*
X136475000Y-89000000D01*
X135975000Y-89000000D01*
X135888896Y-88982873D01*
X135815901Y-88934099D01*
X135767127Y-88861104D01*
X135750000Y-88775000D01*
X135750000Y-88325000D01*
X135767127Y-88238896D01*
X135815901Y-88165901D01*
X135888896Y-88117127D01*
X135975000Y-88100000D01*
X136475000Y-88100000D01*
X136561104Y-88117127D01*
G37*
G36*
X138311104Y-88117127D02*
G01*
X138384099Y-88165901D01*
X138432873Y-88238896D01*
X138450000Y-88325000D01*
X138450000Y-88775000D01*
X138432873Y-88861104D01*
X138384099Y-88934099D01*
X138311104Y-88982873D01*
X138225000Y-89000000D01*
X137725000Y-89000000D01*
X137638896Y-88982873D01*
X137565901Y-88934099D01*
X137517127Y-88861104D01*
X137500000Y-88775000D01*
X137500000Y-88325000D01*
X137517127Y-88238896D01*
X137565901Y-88165901D01*
X137638896Y-88117127D01*
X137725000Y-88100000D01*
X138225000Y-88100000D01*
X138311104Y-88117127D01*
G37*
G36*
X132536104Y-86642127D02*
G01*
X132609099Y-86690901D01*
X132657873Y-86763896D01*
X132675000Y-86850000D01*
X132675000Y-87300000D01*
X132657873Y-87386104D01*
X132609099Y-87459099D01*
X132536104Y-87507873D01*
X132450000Y-87525000D01*
X131950000Y-87525000D01*
X131863896Y-87507873D01*
X131790901Y-87459099D01*
X131742127Y-87386104D01*
X131725000Y-87300000D01*
X131725000Y-86850000D01*
X131742127Y-86763896D01*
X131790901Y-86690901D01*
X131863896Y-86642127D01*
X131950000Y-86625000D01*
X132450000Y-86625000D01*
X132536104Y-86642127D01*
G37*
G36*
X136561104Y-86567127D02*
G01*
X136634099Y-86615901D01*
X136682873Y-86688896D01*
X136700000Y-86775000D01*
X136700000Y-87225000D01*
X136682873Y-87311104D01*
X136634099Y-87384099D01*
X136561104Y-87432873D01*
X136475000Y-87450000D01*
X135975000Y-87450000D01*
X135888896Y-87432873D01*
X135815901Y-87384099D01*
X135767127Y-87311104D01*
X135750000Y-87225000D01*
X135750000Y-86775000D01*
X135767127Y-86688896D01*
X135815901Y-86615901D01*
X135888896Y-86567127D01*
X135975000Y-86550000D01*
X136475000Y-86550000D01*
X136561104Y-86567127D01*
G37*
G36*
X138311104Y-86567127D02*
G01*
X138384099Y-86615901D01*
X138432873Y-86688896D01*
X138450000Y-86775000D01*
X138450000Y-87225000D01*
X138432873Y-87311104D01*
X138384099Y-87384099D01*
X138311104Y-87432873D01*
X138225000Y-87450000D01*
X137725000Y-87450000D01*
X137638896Y-87432873D01*
X137565901Y-87384099D01*
X137517127Y-87311104D01*
X137500000Y-87225000D01*
X137500000Y-86775000D01*
X137517127Y-86688896D01*
X137565901Y-86615901D01*
X137638896Y-86567127D01*
X137725000Y-86550000D01*
X138225000Y-86550000D01*
X138311104Y-86567127D01*
G37*
G36*
X129352401Y-87449400D02*
G01*
X129047601Y-87449400D01*
X129047601Y-86598500D01*
X129352401Y-86598500D01*
X129352401Y-87449400D01*
G37*
G36*
X130002400Y-87449400D02*
G01*
X129697600Y-87449400D01*
X129697600Y-86598500D01*
X130002400Y-86598500D01*
X130002400Y-87449400D01*
G37*
G36*
X130652399Y-87449400D02*
G01*
X130347599Y-87449400D01*
X130347599Y-86598500D01*
X130652399Y-86598500D01*
X130652399Y-87449400D01*
G37*
G36*
X146086742Y-85426601D02*
G01*
X146240687Y-85490367D01*
X146379234Y-85582941D01*
X146497059Y-85700766D01*
X146589633Y-85839313D01*
X146653399Y-85993258D01*
X146685907Y-86156685D01*
X146685907Y-86323315D01*
X146653399Y-86486742D01*
X146589633Y-86640687D01*
X146497059Y-86779234D01*
X146379234Y-86897059D01*
X146240687Y-86989633D01*
X146086742Y-87053399D01*
X145923315Y-87085907D01*
X145756685Y-87085907D01*
X145593258Y-87053399D01*
X145439313Y-86989633D01*
X145300766Y-86897059D01*
X145182941Y-86779234D01*
X145090367Y-86640687D01*
X145026601Y-86486742D01*
X144994093Y-86323315D01*
X144994093Y-86156685D01*
X145026601Y-85993258D01*
X145090367Y-85839313D01*
X145182941Y-85700766D01*
X145300766Y-85582941D01*
X145439313Y-85490367D01*
X145593258Y-85426601D01*
X145756685Y-85394093D01*
X145923315Y-85394093D01*
X146086742Y-85426601D01*
G37*
G36*
X117829904Y-86065227D02*
G01*
X117902899Y-86114001D01*
X117951673Y-86186996D01*
X117968800Y-86273100D01*
X117968800Y-86773100D01*
X117951673Y-86859204D01*
X117902899Y-86932199D01*
X117829904Y-86980973D01*
X117743800Y-86998100D01*
X117293800Y-86998100D01*
X117207696Y-86980973D01*
X117134701Y-86932199D01*
X117085927Y-86859204D01*
X117068800Y-86773100D01*
X117068800Y-86273100D01*
X117085927Y-86186996D01*
X117134701Y-86114001D01*
X117207696Y-86065227D01*
X117293800Y-86048100D01*
X117743800Y-86048100D01*
X117829904Y-86065227D01*
G37*
G36*
X119379904Y-86065227D02*
G01*
X119452899Y-86114001D01*
X119501673Y-86186996D01*
X119518800Y-86273100D01*
X119518800Y-86773100D01*
X119501673Y-86859204D01*
X119452899Y-86932199D01*
X119379904Y-86980973D01*
X119293800Y-86998100D01*
X118843800Y-86998100D01*
X118757696Y-86980973D01*
X118684701Y-86932199D01*
X118635927Y-86859204D01*
X118618800Y-86773100D01*
X118618800Y-86273100D01*
X118635927Y-86186996D01*
X118684701Y-86114001D01*
X118757696Y-86065227D01*
X118843800Y-86048100D01*
X119293800Y-86048100D01*
X119379904Y-86065227D01*
G37*
G36*
X109916742Y-85316601D02*
G01*
X110070687Y-85380367D01*
X110209234Y-85472941D01*
X110327059Y-85590766D01*
X110419633Y-85729313D01*
X110483399Y-85883258D01*
X110515907Y-86046685D01*
X110515907Y-86213315D01*
X110483399Y-86376742D01*
X110419633Y-86530687D01*
X110327059Y-86669234D01*
X110209234Y-86787059D01*
X110070687Y-86879633D01*
X109916742Y-86943399D01*
X109753315Y-86975907D01*
X109586685Y-86975907D01*
X109423258Y-86943399D01*
X109269313Y-86879633D01*
X109130766Y-86787059D01*
X109012941Y-86669234D01*
X108920367Y-86530687D01*
X108856601Y-86376742D01*
X108824093Y-86213315D01*
X108824093Y-86046685D01*
X108856601Y-85883258D01*
X108920367Y-85729313D01*
X109012941Y-85590766D01*
X109130766Y-85472941D01*
X109269313Y-85380367D01*
X109423258Y-85316601D01*
X109586685Y-85284093D01*
X109753315Y-85284093D01*
X109916742Y-85316601D01*
G37*
G36*
X132536104Y-85092127D02*
G01*
X132609099Y-85140901D01*
X132657873Y-85213896D01*
X132675000Y-85300000D01*
X132675000Y-85750000D01*
X132657873Y-85836104D01*
X132609099Y-85909099D01*
X132536104Y-85957873D01*
X132450000Y-85975000D01*
X131950000Y-85975000D01*
X131863896Y-85957873D01*
X131790901Y-85909099D01*
X131742127Y-85836104D01*
X131725000Y-85750000D01*
X131725000Y-85300000D01*
X131742127Y-85213896D01*
X131790901Y-85140901D01*
X131863896Y-85092127D01*
X131950000Y-85075000D01*
X132450000Y-85075000D01*
X132536104Y-85092127D01*
G37*
G36*
X134915200Y-85381900D02*
G01*
X133594400Y-85381900D01*
X133594400Y-84823100D01*
X134915200Y-84823100D01*
X134915200Y-85381900D01*
G37*
G36*
X117829904Y-84395227D02*
G01*
X117902899Y-84444001D01*
X117951673Y-84516996D01*
X117968800Y-84603100D01*
X117968800Y-85103100D01*
X117951673Y-85189204D01*
X117902899Y-85262199D01*
X117829904Y-85310973D01*
X117743800Y-85328100D01*
X117293800Y-85328100D01*
X117207696Y-85310973D01*
X117134701Y-85262199D01*
X117085927Y-85189204D01*
X117068800Y-85103100D01*
X117068800Y-84603100D01*
X117085927Y-84516996D01*
X117134701Y-84444001D01*
X117207696Y-84395227D01*
X117293800Y-84378100D01*
X117743800Y-84378100D01*
X117829904Y-84395227D01*
G37*
G36*
X119379904Y-84395227D02*
G01*
X119452899Y-84444001D01*
X119501673Y-84516996D01*
X119518800Y-84603100D01*
X119518800Y-85103100D01*
X119501673Y-85189204D01*
X119452899Y-85262199D01*
X119379904Y-85310973D01*
X119293800Y-85328100D01*
X118843800Y-85328100D01*
X118757696Y-85310973D01*
X118684701Y-85262199D01*
X118635927Y-85189204D01*
X118618800Y-85103100D01*
X118618800Y-84603100D01*
X118635927Y-84516996D01*
X118684701Y-84444001D01*
X118757696Y-84395227D01*
X118843800Y-84378100D01*
X119293800Y-84378100D01*
X119379904Y-84395227D01*
G37*
G36*
X129352401Y-85201500D02*
G01*
X129047601Y-85201500D01*
X129047601Y-84350600D01*
X129352401Y-84350600D01*
X129352401Y-85201500D01*
G37*
G36*
X130652399Y-85201500D02*
G01*
X130347599Y-85201500D01*
X130347599Y-84350600D01*
X130652399Y-84350600D01*
X130652399Y-85201500D01*
G37*
G36*
X123786104Y-84042127D02*
G01*
X123859099Y-84090901D01*
X123907873Y-84163896D01*
X123925000Y-84250000D01*
X123925000Y-84700000D01*
X123907873Y-84786104D01*
X123859099Y-84859099D01*
X123786104Y-84907873D01*
X123700000Y-84925000D01*
X123200000Y-84925000D01*
X123113896Y-84907873D01*
X123040901Y-84859099D01*
X122992127Y-84786104D01*
X122975000Y-84700000D01*
X122975000Y-84250000D01*
X122992127Y-84163896D01*
X123040901Y-84090901D01*
X123113896Y-84042127D01*
X123200000Y-84025000D01*
X123700000Y-84025000D01*
X123786104Y-84042127D01*
G37*
G36*
X125486104Y-84017127D02*
G01*
X125559099Y-84065901D01*
X125607873Y-84138896D01*
X125625000Y-84225000D01*
X125625000Y-84675000D01*
X125607873Y-84761104D01*
X125559099Y-84834099D01*
X125486104Y-84882873D01*
X125400000Y-84900000D01*
X124900000Y-84900000D01*
X124813896Y-84882873D01*
X124740901Y-84834099D01*
X124692127Y-84761104D01*
X124675000Y-84675000D01*
X124675000Y-84225000D01*
X124692127Y-84138896D01*
X124740901Y-84065901D01*
X124813896Y-84017127D01*
X124900000Y-84000000D01*
X125400000Y-84000000D01*
X125486104Y-84017127D01*
G37*
G36*
X146690000Y-84550000D02*
G01*
X144990000Y-84550000D01*
X144990000Y-82850000D01*
X146690000Y-82850000D01*
X146690000Y-84550000D01*
G37*
G36*
X109916742Y-82776601D02*
G01*
X110070687Y-82840367D01*
X110209234Y-82932941D01*
X110327059Y-83050766D01*
X110419633Y-83189313D01*
X110483399Y-83343258D01*
X110515907Y-83506685D01*
X110515907Y-83673315D01*
X110483399Y-83836742D01*
X110419633Y-83990687D01*
X110327059Y-84129234D01*
X110209234Y-84247059D01*
X110070687Y-84339633D01*
X109916742Y-84403399D01*
X109753315Y-84435907D01*
X109586685Y-84435907D01*
X109423258Y-84403399D01*
X109269313Y-84339633D01*
X109130766Y-84247059D01*
X109012941Y-84129234D01*
X108920367Y-83990687D01*
X108856601Y-83836742D01*
X108824093Y-83673315D01*
X108824093Y-83506685D01*
X108856601Y-83343258D01*
X108920367Y-83189313D01*
X109012941Y-83050766D01*
X109130766Y-82932941D01*
X109269313Y-82840367D01*
X109423258Y-82776601D01*
X109586685Y-82744093D01*
X109753315Y-82744093D01*
X109916742Y-82776601D01*
G37*
G36*
X136707650Y-84429400D02*
G01*
X135386850Y-84429400D01*
X135386850Y-83870600D01*
X136707650Y-83870600D01*
X136707650Y-84429400D01*
G37*
G36*
X120895000Y-84199999D02*
G01*
X120224998Y-84199999D01*
X120224998Y-83899999D01*
X120895000Y-83899999D01*
X120895000Y-84199999D01*
G37*
G36*
X122375002Y-84199999D02*
G01*
X121705000Y-84199999D01*
X121705000Y-83899999D01*
X122375002Y-83899999D01*
X122375002Y-84199999D01*
G37*
G36*
X120895000Y-83699997D02*
G01*
X120224998Y-83699997D01*
X120224998Y-83399997D01*
X120895000Y-83399997D01*
X120895000Y-83699997D01*
G37*
G36*
X122375002Y-83699997D02*
G01*
X121705000Y-83699997D01*
X121705000Y-83399997D01*
X122375002Y-83399997D01*
X122375002Y-83699997D01*
G37*
G36*
X134915200Y-83476900D02*
G01*
X133594400Y-83476900D01*
X133594400Y-82918100D01*
X134915200Y-82918100D01*
X134915200Y-83476900D01*
G37*
G36*
X123786104Y-82492127D02*
G01*
X123859099Y-82540901D01*
X123907873Y-82613896D01*
X123925000Y-82700000D01*
X123925000Y-83150000D01*
X123907873Y-83236104D01*
X123859099Y-83309099D01*
X123786104Y-83357873D01*
X123700000Y-83375000D01*
X123200000Y-83375000D01*
X123113896Y-83357873D01*
X123040901Y-83309099D01*
X122992127Y-83236104D01*
X122975000Y-83150000D01*
X122975000Y-82700000D01*
X122992127Y-82613896D01*
X123040901Y-82540901D01*
X123113896Y-82492127D01*
X123200000Y-82475000D01*
X123700000Y-82475000D01*
X123786104Y-82492127D01*
G37*
G36*
X125486104Y-82467127D02*
G01*
X125559099Y-82515901D01*
X125607873Y-82588896D01*
X125625000Y-82675000D01*
X125625000Y-83125000D01*
X125607873Y-83211104D01*
X125559099Y-83284099D01*
X125486104Y-83332873D01*
X125400000Y-83350000D01*
X124900000Y-83350000D01*
X124813896Y-83332873D01*
X124740901Y-83284099D01*
X124692127Y-83211104D01*
X124675000Y-83125000D01*
X124675000Y-82675000D01*
X124692127Y-82588896D01*
X124740901Y-82515901D01*
X124813896Y-82467127D01*
X124900000Y-82450000D01*
X125400000Y-82450000D01*
X125486104Y-82467127D01*
G37*
G36*
X120895000Y-83199998D02*
G01*
X120224998Y-83199998D01*
X120224998Y-82899998D01*
X120895000Y-82899998D01*
X120895000Y-83199998D01*
G37*
G36*
X122375002Y-83199998D02*
G01*
X121705000Y-83199998D01*
X121705000Y-82899998D01*
X122375002Y-82899998D01*
X122375002Y-83199998D01*
G37*
G36*
X130957100Y-83194900D02*
G01*
X130149100Y-83194900D01*
X130149100Y-82205100D01*
X130957100Y-82205100D01*
X130957100Y-83194900D01*
G37*
G36*
X132450900Y-83194900D02*
G01*
X131642900Y-83194900D01*
X131642900Y-82205100D01*
X132450900Y-82205100D01*
X132450900Y-83194900D01*
G37*
G36*
X116774900Y-82634000D02*
G01*
X115785100Y-82634000D01*
X115785100Y-81826000D01*
X116774900Y-81826000D01*
X116774900Y-82634000D01*
G37*
G36*
X119074900Y-82634000D02*
G01*
X118085100Y-82634000D01*
X118085100Y-81826000D01*
X119074900Y-81826000D01*
X119074900Y-82634000D01*
G37*
G36*
X109916742Y-80236601D02*
G01*
X110070687Y-80300367D01*
X110209234Y-80392941D01*
X110327059Y-80510766D01*
X110419633Y-80649313D01*
X110483399Y-80803258D01*
X110515907Y-80966685D01*
X110515907Y-81133315D01*
X110483399Y-81296742D01*
X110419633Y-81450687D01*
X110327059Y-81589234D01*
X110209234Y-81707059D01*
X110070687Y-81799633D01*
X109916742Y-81863399D01*
X109753315Y-81895907D01*
X109586685Y-81895907D01*
X109423258Y-81863399D01*
X109269313Y-81799633D01*
X109130766Y-81707059D01*
X109012941Y-81589234D01*
X108920367Y-81450687D01*
X108856601Y-81296742D01*
X108824093Y-81133315D01*
X108824093Y-80966685D01*
X108856601Y-80803258D01*
X108920367Y-80649313D01*
X109012941Y-80510766D01*
X109130766Y-80392941D01*
X109269313Y-80300367D01*
X109423258Y-80236601D01*
X109586685Y-80204093D01*
X109753315Y-80204093D01*
X109916742Y-80236601D01*
G37*
G36*
X116774900Y-81140200D02*
G01*
X115785100Y-81140200D01*
X115785100Y-80332200D01*
X116774900Y-80332200D01*
X116774900Y-81140200D01*
G37*
G36*
X119074900Y-81140200D02*
G01*
X118085100Y-81140200D01*
X118085100Y-80332200D01*
X119074900Y-80332200D01*
X119074900Y-81140200D01*
G37*
G36*
X109916742Y-77696601D02*
G01*
X110070687Y-77760367D01*
X110209234Y-77852941D01*
X110327059Y-77970766D01*
X110419633Y-78109313D01*
X110483399Y-78263258D01*
X110515907Y-78426685D01*
X110515907Y-78593315D01*
X110483399Y-78756742D01*
X110419633Y-78910687D01*
X110327059Y-79049234D01*
X110209234Y-79167059D01*
X110070687Y-79259633D01*
X109916742Y-79323399D01*
X109753315Y-79355907D01*
X109586685Y-79355907D01*
X109423258Y-79323399D01*
X109269313Y-79259633D01*
X109130766Y-79167059D01*
X109012941Y-79049234D01*
X108920367Y-78910687D01*
X108856601Y-78756742D01*
X108824093Y-78593315D01*
X108824093Y-78426685D01*
X108856601Y-78263258D01*
X108920367Y-78109313D01*
X109012941Y-77970766D01*
X109130766Y-77852941D01*
X109269313Y-77760367D01*
X109423258Y-77696601D01*
X109586685Y-77664093D01*
X109753315Y-77664093D01*
X109916742Y-77696601D01*
G37*
G36*
X109916742Y-75156601D02*
G01*
X110070687Y-75220367D01*
X110209234Y-75312941D01*
X110327059Y-75430766D01*
X110419633Y-75569313D01*
X110483399Y-75723258D01*
X110515907Y-75886685D01*
X110515907Y-76053315D01*
X110483399Y-76216742D01*
X110419633Y-76370687D01*
X110327059Y-76509234D01*
X110209234Y-76627059D01*
X110070687Y-76719633D01*
X109916742Y-76783399D01*
X109753315Y-76815907D01*
X109586685Y-76815907D01*
X109423258Y-76783399D01*
X109269313Y-76719633D01*
X109130766Y-76627059D01*
X109012941Y-76509234D01*
X108920367Y-76370687D01*
X108856601Y-76216742D01*
X108824093Y-76053315D01*
X108824093Y-75886685D01*
X108856601Y-75723258D01*
X108920367Y-75569313D01*
X109012941Y-75430766D01*
X109130766Y-75312941D01*
X109269313Y-75220367D01*
X109423258Y-75156601D01*
X109586685Y-75124093D01*
X109753315Y-75124093D01*
X109916742Y-75156601D01*
G37*
G36*
X123290000Y-76225500D02*
G01*
X122640000Y-76225500D01*
X122640000Y-74680500D01*
X123290000Y-74680500D01*
X123290000Y-76225500D01*
G37*
G36*
X124560000Y-76225500D02*
G01*
X123910000Y-76225500D01*
X123910000Y-74680500D01*
X124560000Y-74680500D01*
X124560000Y-76225500D01*
G37*
G36*
X125830000Y-76225500D02*
G01*
X125180000Y-76225500D01*
X125180000Y-74680500D01*
X125830000Y-74680500D01*
X125830000Y-76225500D01*
G37*
G36*
X127100000Y-76225500D02*
G01*
X126450000Y-76225500D01*
X126450000Y-74680500D01*
X127100000Y-74680500D01*
X127100000Y-76225500D01*
G37*
G36*
X128370000Y-76225500D02*
G01*
X127720000Y-76225500D01*
X127720000Y-74680500D01*
X128370000Y-74680500D01*
X128370000Y-76225500D01*
G37*
G36*
X129640000Y-76225500D02*
G01*
X128990000Y-76225500D01*
X128990000Y-74680500D01*
X129640000Y-74680500D01*
X129640000Y-76225500D01*
G37*
G36*
X130910000Y-76225500D02*
G01*
X130260000Y-76225500D01*
X130260000Y-74680500D01*
X130910000Y-74680500D01*
X130910000Y-76225500D01*
G37*
G36*
X120469900Y-75975900D02*
G01*
X119480100Y-75975900D01*
X119480100Y-75167900D01*
X120469900Y-75167900D01*
X120469900Y-75975900D01*
G37*
G36*
X138194109Y-75550000D02*
G01*
X137234109Y-75550000D01*
X137234109Y-74700000D01*
X138194109Y-74700000D01*
X138194109Y-75550000D01*
G37*
G36*
X120469900Y-74482100D02*
G01*
X119480100Y-74482100D01*
X119480100Y-73674100D01*
X120469900Y-73674100D01*
X120469900Y-74482100D01*
G37*
G36*
X134025000Y-74322369D02*
G01*
X133575000Y-74322369D01*
X133575000Y-72922369D01*
X134025000Y-72922369D01*
X134025000Y-74322369D01*
G37*
G36*
X134675000Y-74322369D02*
G01*
X134225000Y-74322369D01*
X134225000Y-72922369D01*
X134675000Y-72922369D01*
X134675000Y-74322369D01*
G37*
G36*
X135325000Y-74322369D02*
G01*
X134875000Y-74322369D01*
X134875000Y-72922369D01*
X135325000Y-72922369D01*
X135325000Y-74322369D01*
G37*
G36*
X135975000Y-74322369D02*
G01*
X135525000Y-74322369D01*
X135525000Y-72922369D01*
X135975000Y-72922369D01*
X135975000Y-74322369D01*
G37*
G36*
X109916742Y-72616601D02*
G01*
X110070687Y-72680367D01*
X110209234Y-72772941D01*
X110327059Y-72890766D01*
X110419633Y-73029313D01*
X110483399Y-73183258D01*
X110515907Y-73346685D01*
X110515907Y-73513315D01*
X110483399Y-73676742D01*
X110419633Y-73830687D01*
X110327059Y-73969234D01*
X110209234Y-74087059D01*
X110070687Y-74179633D01*
X109916742Y-74243399D01*
X109753315Y-74275907D01*
X109586685Y-74275907D01*
X109423258Y-74243399D01*
X109269313Y-74179633D01*
X109130766Y-74087059D01*
X109012941Y-73969234D01*
X108920367Y-73830687D01*
X108856601Y-73676742D01*
X108824093Y-73513315D01*
X108824093Y-73346685D01*
X108856601Y-73183258D01*
X108920367Y-73029313D01*
X109012941Y-72890766D01*
X109130766Y-72772941D01*
X109269313Y-72680367D01*
X109423258Y-72616601D01*
X109586685Y-72584093D01*
X109753315Y-72584093D01*
X109916742Y-72616601D01*
G37*
G36*
X138194109Y-73950000D02*
G01*
X137234109Y-73950000D01*
X137234109Y-73100000D01*
X138194109Y-73100000D01*
X138194109Y-73950000D01*
G37*
G36*
X120469900Y-71922800D02*
G01*
X119480100Y-71922800D01*
X119480100Y-71114800D01*
X120469900Y-71114800D01*
X120469900Y-71922800D01*
G37*
G36*
X109916742Y-70076601D02*
G01*
X110070687Y-70140367D01*
X110209234Y-70232941D01*
X110327059Y-70350766D01*
X110419633Y-70489313D01*
X110483399Y-70643258D01*
X110515907Y-70806685D01*
X110515907Y-70973315D01*
X110483399Y-71136742D01*
X110419633Y-71290687D01*
X110327059Y-71429234D01*
X110209234Y-71547059D01*
X110070687Y-71639633D01*
X109916742Y-71703399D01*
X109753315Y-71735907D01*
X109586685Y-71735907D01*
X109423258Y-71703399D01*
X109269313Y-71639633D01*
X109130766Y-71547059D01*
X109012941Y-71429234D01*
X108920367Y-71290687D01*
X108856601Y-71136742D01*
X108824093Y-70973315D01*
X108824093Y-70806685D01*
X108856601Y-70643258D01*
X108920367Y-70489313D01*
X109012941Y-70350766D01*
X109130766Y-70232941D01*
X109269313Y-70140367D01*
X109423258Y-70076601D01*
X109586685Y-70044093D01*
X109753315Y-70044093D01*
X109916742Y-70076601D01*
G37*
G36*
X123290000Y-70769500D02*
G01*
X122640000Y-70769500D01*
X122640000Y-69224500D01*
X123290000Y-69224500D01*
X123290000Y-70769500D01*
G37*
G36*
X124560000Y-70769500D02*
G01*
X123910000Y-70769500D01*
X123910000Y-69224500D01*
X124560000Y-69224500D01*
X124560000Y-70769500D01*
G37*
G36*
X125830000Y-70769500D02*
G01*
X125180000Y-70769500D01*
X125180000Y-69224500D01*
X125830000Y-69224500D01*
X125830000Y-70769500D01*
G37*
G36*
X127100000Y-70769500D02*
G01*
X126450000Y-70769500D01*
X126450000Y-69224500D01*
X127100000Y-69224500D01*
X127100000Y-70769500D01*
G37*
G36*
X128370000Y-70769500D02*
G01*
X127720000Y-70769500D01*
X127720000Y-69224500D01*
X128370000Y-69224500D01*
X128370000Y-70769500D01*
G37*
G36*
X129640000Y-70769500D02*
G01*
X128990000Y-70769500D01*
X128990000Y-69224500D01*
X129640000Y-69224500D01*
X129640000Y-70769500D01*
G37*
G36*
X130910000Y-70769500D02*
G01*
X130260000Y-70769500D01*
X130260000Y-69224500D01*
X130910000Y-69224500D01*
X130910000Y-70769500D01*
G37*
G36*
X120469900Y-70429000D02*
G01*
X119480100Y-70429000D01*
X119480100Y-69621000D01*
X120469900Y-69621000D01*
X120469900Y-70429000D01*
G37*
G36*
X138803998Y-70423352D02*
G01*
X138245998Y-70423352D01*
X138245998Y-69425652D01*
X138803998Y-69425652D01*
X138803998Y-70423352D01*
G37*
G36*
X139753999Y-70423352D02*
G01*
X139195999Y-70423352D01*
X139195999Y-69425652D01*
X139753999Y-69425652D01*
X139753999Y-70423352D01*
G37*
G36*
X140704000Y-70423352D02*
G01*
X140146000Y-70423352D01*
X140146000Y-69425652D01*
X140704000Y-69425652D01*
X140704000Y-70423352D01*
G37*
G36*
X117305000Y-69950000D02*
G01*
X116345000Y-69950000D01*
X116345000Y-69100000D01*
X117305000Y-69100000D01*
X117305000Y-69950000D01*
G37*
G36*
X134025000Y-69922369D02*
G01*
X133575000Y-69922369D01*
X133575000Y-68522369D01*
X134025000Y-68522369D01*
X134025000Y-69922369D01*
G37*
G36*
X134675000Y-69922369D02*
G01*
X134225000Y-69922369D01*
X134225000Y-68522369D01*
X134675000Y-68522369D01*
X134675000Y-69922369D01*
G37*
G36*
X135325000Y-69922369D02*
G01*
X134875000Y-69922369D01*
X134875000Y-68522369D01*
X135325000Y-68522369D01*
X135325000Y-69922369D01*
G37*
G36*
X135975000Y-69922369D02*
G01*
X135525000Y-69922369D01*
X135525000Y-68522369D01*
X135975000Y-68522369D01*
X135975000Y-69922369D01*
G37*
G36*
X143316798Y-69125402D02*
G01*
X142326998Y-69125402D01*
X142326998Y-68317402D01*
X143316798Y-68317402D01*
X143316798Y-69125402D01*
G37*
G36*
X117305000Y-68350000D02*
G01*
X116345000Y-68350000D01*
X116345000Y-67500000D01*
X117305000Y-67500000D01*
X117305000Y-68350000D01*
G37*
G36*
X123290000Y-67825500D02*
G01*
X122640000Y-67825500D01*
X122640000Y-66280500D01*
X123290000Y-66280500D01*
X123290000Y-67825500D01*
G37*
G36*
X124560000Y-67825500D02*
G01*
X123910000Y-67825500D01*
X123910000Y-66280500D01*
X124560000Y-66280500D01*
X124560000Y-67825500D01*
G37*
G36*
X125830000Y-67825500D02*
G01*
X125180000Y-67825500D01*
X125180000Y-66280500D01*
X125830000Y-66280500D01*
X125830000Y-67825500D01*
G37*
G36*
X127100000Y-67825500D02*
G01*
X126450000Y-67825500D01*
X126450000Y-66280500D01*
X127100000Y-66280500D01*
X127100000Y-67825500D01*
G37*
G36*
X128370000Y-67825500D02*
G01*
X127720000Y-67825500D01*
X127720000Y-66280500D01*
X128370000Y-66280500D01*
X128370000Y-67825500D01*
G37*
G36*
X129640000Y-67825500D02*
G01*
X128990000Y-67825500D01*
X128990000Y-66280500D01*
X129640000Y-66280500D01*
X129640000Y-67825500D01*
G37*
G36*
X130910000Y-67825500D02*
G01*
X130260000Y-67825500D01*
X130260000Y-66280500D01*
X130910000Y-66280500D01*
X130910000Y-67825500D01*
G37*
G36*
X138803998Y-67723850D02*
G01*
X138245998Y-67723850D01*
X138245998Y-66726150D01*
X138803998Y-66726150D01*
X138803998Y-67723850D01*
G37*
G36*
X139753999Y-67723850D02*
G01*
X139195999Y-67723850D01*
X139195999Y-66726150D01*
X139753999Y-66726150D01*
X139753999Y-67723850D01*
G37*
G36*
X140704000Y-67723850D02*
G01*
X140146000Y-67723850D01*
X140146000Y-66726150D01*
X140704000Y-66726150D01*
X140704000Y-67723850D01*
G37*
G36*
X108960000Y-67690000D02*
G01*
X107960000Y-67690000D01*
X107960000Y-67390000D01*
X108960000Y-67390000D01*
X108960000Y-67690000D01*
G37*
G36*
X143316798Y-67631602D02*
G01*
X142326998Y-67631602D01*
X142326998Y-66823602D01*
X143316798Y-66823602D01*
X143316798Y-67631602D01*
G37*
G36*
X111460000Y-66900012D02*
G01*
X110760000Y-66900012D01*
X110760000Y-66600012D01*
X111460000Y-66600012D01*
X111460000Y-66900012D01*
G37*
G36*
X111460000Y-66400013D02*
G01*
X110760000Y-66400013D01*
X110760000Y-66100013D01*
X111460000Y-66100013D01*
X111460000Y-66400013D01*
G37*
G36*
X133924099Y-66354001D02*
G01*
X132926399Y-66354001D01*
X132926399Y-65796001D01*
X133924099Y-65796001D01*
X133924099Y-66354001D01*
G37*
G36*
X136623601Y-66354001D02*
G01*
X135625901Y-66354001D01*
X135625901Y-65796001D01*
X136623601Y-65796001D01*
X136623601Y-66354001D01*
G37*
G36*
X117399500Y-66353600D02*
G01*
X116396200Y-66353600D01*
X116396200Y-65896400D01*
X117399500Y-65896400D01*
X117399500Y-66353600D01*
G37*
G36*
X120053800Y-66353600D02*
G01*
X119050500Y-66353600D01*
X119050500Y-65896400D01*
X120053800Y-65896400D01*
X120053800Y-66353600D01*
G37*
G36*
X111460000Y-65900014D02*
G01*
X110760000Y-65900014D01*
X110760000Y-65600014D01*
X111460000Y-65600014D01*
X111460000Y-65900014D01*
G37*
G36*
X117399500Y-65703614D02*
G01*
X116396200Y-65703614D01*
X116396200Y-65246414D01*
X117399500Y-65246414D01*
X117399500Y-65703614D01*
G37*
G36*
X120053800Y-65703614D02*
G01*
X119050500Y-65703614D01*
X119050500Y-65246414D01*
X120053800Y-65246414D01*
X120053800Y-65703614D01*
G37*
G36*
X133924099Y-65404000D02*
G01*
X132926399Y-65404000D01*
X132926399Y-64846000D01*
X133924099Y-64846000D01*
X133924099Y-65404000D01*
G37*
G36*
X136623601Y-65404000D02*
G01*
X135625901Y-65404000D01*
X135625901Y-64846000D01*
X136623601Y-64846000D01*
X136623601Y-65404000D01*
G37*
G36*
X111460000Y-65400012D02*
G01*
X110760000Y-65400012D01*
X110760000Y-65100012D01*
X111460000Y-65100012D01*
X111460000Y-65400012D01*
G37*
G36*
X139419900Y-65075900D02*
G01*
X138430100Y-65075900D01*
X138430100Y-64267900D01*
X139419900Y-64267900D01*
X139419900Y-65075900D01*
G37*
G36*
X117399500Y-65053628D02*
G01*
X116396200Y-65053628D01*
X116396200Y-64596428D01*
X117399500Y-64596428D01*
X117399500Y-65053628D01*
G37*
G36*
X120053800Y-65053628D02*
G01*
X119050500Y-65053628D01*
X119050500Y-64596428D01*
X120053800Y-64596428D01*
X120053800Y-65053628D01*
G37*
G36*
X144819900Y-65029000D02*
G01*
X143830100Y-65029000D01*
X143830100Y-64221000D01*
X144819900Y-64221000D01*
X144819900Y-65029000D01*
G37*
G36*
X142169900Y-65025900D02*
G01*
X141180100Y-65025900D01*
X141180100Y-64217900D01*
X142169900Y-64217900D01*
X142169900Y-65025900D01*
G37*
G36*
X111460000Y-64900013D02*
G01*
X110760000Y-64900013D01*
X110760000Y-64600013D01*
X111460000Y-64600013D01*
X111460000Y-64900013D01*
G37*
G36*
X133924099Y-64453999D02*
G01*
X132926399Y-64453999D01*
X132926399Y-63895999D01*
X133924099Y-63895999D01*
X133924099Y-64453999D01*
G37*
G36*
X136623601Y-64453999D02*
G01*
X135625901Y-64453999D01*
X135625901Y-63895999D01*
X136623601Y-63895999D01*
X136623601Y-64453999D01*
G37*
G36*
X117399500Y-64403642D02*
G01*
X116396200Y-64403642D01*
X116396200Y-63946442D01*
X117399500Y-63946442D01*
X117399500Y-64403642D01*
G37*
G36*
X120053800Y-64403642D02*
G01*
X119050500Y-64403642D01*
X119050500Y-63946442D01*
X120053800Y-63946442D01*
X120053800Y-64403642D01*
G37*
G36*
X111460000Y-64400012D02*
G01*
X110760000Y-64400012D01*
X110760000Y-64100012D01*
X111460000Y-64100012D01*
X111460000Y-64400012D01*
G37*
G36*
X111460000Y-63900013D02*
G01*
X110760000Y-63900013D01*
X110760000Y-63600013D01*
X111460000Y-63600013D01*
X111460000Y-63900013D01*
G37*
G36*
X139419900Y-63582100D02*
G01*
X138430100Y-63582100D01*
X138430100Y-62774100D01*
X139419900Y-62774100D01*
X139419900Y-63582100D01*
G37*
G36*
X144819900Y-63535200D02*
G01*
X143830100Y-63535200D01*
X143830100Y-62727200D01*
X144819900Y-62727200D01*
X144819900Y-63535200D01*
G37*
G36*
X142169900Y-63532100D02*
G01*
X141180100Y-63532100D01*
X141180100Y-62724100D01*
X142169900Y-62724100D01*
X142169900Y-63532100D01*
G37*
G36*
X111460000Y-63400014D02*
G01*
X110760000Y-63400014D01*
X110760000Y-63100014D01*
X111460000Y-63100014D01*
X111460000Y-63400014D01*
G37*
G36*
X111460000Y-62900012D02*
G01*
X110760000Y-62900012D01*
X110760000Y-62600012D01*
X111460000Y-62600012D01*
X111460000Y-62900012D01*
G37*
G36*
X111460000Y-62400013D02*
G01*
X110760000Y-62400013D01*
X110760000Y-62100013D01*
X111460000Y-62100013D01*
X111460000Y-62400013D01*
G37*
G36*
X123290000Y-62369500D02*
G01*
X122640000Y-62369500D01*
X122640000Y-60824500D01*
X123290000Y-60824500D01*
X123290000Y-62369500D01*
G37*
G36*
X124560000Y-62369500D02*
G01*
X123910000Y-62369500D01*
X123910000Y-60824500D01*
X124560000Y-60824500D01*
X124560000Y-62369500D01*
G37*
G36*
X125830000Y-62369500D02*
G01*
X125180000Y-62369500D01*
X125180000Y-60824500D01*
X125830000Y-60824500D01*
X125830000Y-62369500D01*
G37*
G36*
X127100000Y-62369500D02*
G01*
X126450000Y-62369500D01*
X126450000Y-60824500D01*
X127100000Y-60824500D01*
X127100000Y-62369500D01*
G37*
G36*
X128370000Y-62369500D02*
G01*
X127720000Y-62369500D01*
X127720000Y-60824500D01*
X128370000Y-60824500D01*
X128370000Y-62369500D01*
G37*
G36*
X129640000Y-62369500D02*
G01*
X128990000Y-62369500D01*
X128990000Y-60824500D01*
X129640000Y-60824500D01*
X129640000Y-62369500D01*
G37*
G36*
X130910000Y-62369500D02*
G01*
X130260000Y-62369500D01*
X130260000Y-60824500D01*
X130910000Y-60824500D01*
X130910000Y-62369500D01*
G37*
G36*
X134432100Y-62119900D02*
G01*
X133624100Y-62119900D01*
X133624100Y-61130100D01*
X134432100Y-61130100D01*
X134432100Y-62119900D01*
G37*
G36*
X135925900Y-62119900D02*
G01*
X135117900Y-62119900D01*
X135117900Y-61130100D01*
X135925900Y-61130100D01*
X135925900Y-62119900D01*
G37*
G36*
X108960000Y-61610013D02*
G01*
X107960000Y-61610013D01*
X107960000Y-61310013D01*
X108960000Y-61310013D01*
X108960000Y-61610013D01*
G37*
G36*
X110141615Y-56725818D02*
G01*
X110190017Y-56731434D01*
X110206555Y-56738736D01*
X110228387Y-56743079D01*
X110251759Y-56758695D01*
X110271224Y-56767290D01*
X110284517Y-56780583D01*
X110305438Y-56794562D01*
X110319416Y-56815482D01*
X110332709Y-56828775D01*
X110341302Y-56848238D01*
X110356921Y-56871613D01*
X110361264Y-56893446D01*
X110368565Y-56909982D01*
X110374178Y-56958372D01*
X110375000Y-56962500D01*
X110375000Y-57437500D01*
X110374178Y-57441627D01*
X110368565Y-57490017D01*
X110361264Y-57506551D01*
X110356921Y-57528387D01*
X110341301Y-57551763D01*
X110332709Y-57571224D01*
X110319418Y-57584514D01*
X110305438Y-57605438D01*
X110284514Y-57619418D01*
X110271224Y-57632709D01*
X110251763Y-57641301D01*
X110228387Y-57656921D01*
X110206551Y-57661264D01*
X110190017Y-57668565D01*
X110141629Y-57674178D01*
X110137500Y-57675000D01*
X109637500Y-57675000D01*
X109633373Y-57674179D01*
X109584982Y-57668565D01*
X109568446Y-57661264D01*
X109546613Y-57656921D01*
X109523238Y-57641302D01*
X109503775Y-57632709D01*
X109490482Y-57619416D01*
X109469562Y-57605438D01*
X109455583Y-57584517D01*
X109442290Y-57571224D01*
X109433695Y-57551759D01*
X109418079Y-57528387D01*
X109413736Y-57506555D01*
X109406434Y-57490017D01*
X109400818Y-57441616D01*
X109400000Y-57437500D01*
X109400000Y-56962500D01*
X109400818Y-56958385D01*
X109406434Y-56909982D01*
X109413736Y-56893442D01*
X109418079Y-56871613D01*
X109433694Y-56848242D01*
X109442290Y-56828775D01*
X109455585Y-56815479D01*
X109469562Y-56794562D01*
X109490479Y-56780585D01*
X109503775Y-56767290D01*
X109523242Y-56758694D01*
X109546613Y-56743079D01*
X109568442Y-56738736D01*
X109584982Y-56731434D01*
X109633384Y-56725818D01*
X109637500Y-56725000D01*
X110137500Y-56725000D01*
X110141615Y-56725818D01*
G37*
G36*
X111966615Y-56725818D02*
G01*
X112015017Y-56731434D01*
X112031555Y-56738736D01*
X112053387Y-56743079D01*
X112076759Y-56758695D01*
X112096224Y-56767290D01*
X112109517Y-56780583D01*
X112130438Y-56794562D01*
X112144416Y-56815482D01*
X112157709Y-56828775D01*
X112166302Y-56848238D01*
X112181921Y-56871613D01*
X112186264Y-56893446D01*
X112193565Y-56909982D01*
X112199178Y-56958372D01*
X112200000Y-56962500D01*
X112200000Y-57437500D01*
X112199178Y-57441627D01*
X112193565Y-57490017D01*
X112186264Y-57506551D01*
X112181921Y-57528387D01*
X112166301Y-57551763D01*
X112157709Y-57571224D01*
X112144418Y-57584514D01*
X112130438Y-57605438D01*
X112109514Y-57619418D01*
X112096224Y-57632709D01*
X112076763Y-57641301D01*
X112053387Y-57656921D01*
X112031551Y-57661264D01*
X112015017Y-57668565D01*
X111966629Y-57674178D01*
X111962500Y-57675000D01*
X111462500Y-57675000D01*
X111458373Y-57674179D01*
X111409982Y-57668565D01*
X111393446Y-57661264D01*
X111371613Y-57656921D01*
X111348238Y-57641302D01*
X111328775Y-57632709D01*
X111315482Y-57619416D01*
X111294562Y-57605438D01*
X111280583Y-57584517D01*
X111267290Y-57571224D01*
X111258695Y-57551759D01*
X111243079Y-57528387D01*
X111238736Y-57506555D01*
X111231434Y-57490017D01*
X111225818Y-57441616D01*
X111225000Y-57437500D01*
X111225000Y-56962500D01*
X111225818Y-56958385D01*
X111231434Y-56909982D01*
X111238736Y-56893442D01*
X111243079Y-56871613D01*
X111258694Y-56848242D01*
X111267290Y-56828775D01*
X111280585Y-56815479D01*
X111294562Y-56794562D01*
X111315479Y-56780585D01*
X111328775Y-56767290D01*
X111348242Y-56758694D01*
X111371613Y-56743079D01*
X111393442Y-56738736D01*
X111409982Y-56731434D01*
X111458384Y-56725818D01*
X111462500Y-56725000D01*
X111962500Y-56725000D01*
X111966615Y-56725818D01*
G37*
G36*
X124019034Y-54805764D02*
G01*
X124052125Y-54827875D01*
X124074236Y-54860966D01*
X124082000Y-54900000D01*
X124082000Y-56300000D01*
X124074236Y-56339034D01*
X124052125Y-56372125D01*
X124019034Y-56394236D01*
X123980000Y-56402000D01*
X122980000Y-56402000D01*
X122940966Y-56394236D01*
X122907875Y-56372125D01*
X122885764Y-56339034D01*
X122878000Y-56300000D01*
X122878000Y-54900000D01*
X122885764Y-54860966D01*
X122907875Y-54827875D01*
X122940966Y-54805764D01*
X122980000Y-54798000D01*
X123980000Y-54798000D01*
X124019034Y-54805764D01*
G37*
G36*
X110129115Y-55225818D02*
G01*
X110177517Y-55231434D01*
X110194055Y-55238736D01*
X110215887Y-55243079D01*
X110239259Y-55258695D01*
X110258724Y-55267290D01*
X110272017Y-55280583D01*
X110292938Y-55294562D01*
X110306916Y-55315482D01*
X110320209Y-55328775D01*
X110328802Y-55348238D01*
X110344421Y-55371613D01*
X110348764Y-55393446D01*
X110356065Y-55409982D01*
X110361678Y-55458372D01*
X110362500Y-55462500D01*
X110362500Y-55937500D01*
X110361678Y-55941627D01*
X110356065Y-55990017D01*
X110348764Y-56006551D01*
X110344421Y-56028387D01*
X110328801Y-56051763D01*
X110320209Y-56071224D01*
X110306918Y-56084514D01*
X110292938Y-56105438D01*
X110272014Y-56119418D01*
X110258724Y-56132709D01*
X110239263Y-56141301D01*
X110215887Y-56156921D01*
X110194051Y-56161264D01*
X110177517Y-56168565D01*
X110129129Y-56174178D01*
X110125000Y-56175000D01*
X109625000Y-56175000D01*
X109620873Y-56174179D01*
X109572482Y-56168565D01*
X109555946Y-56161264D01*
X109534113Y-56156921D01*
X109510738Y-56141302D01*
X109491275Y-56132709D01*
X109477982Y-56119416D01*
X109457062Y-56105438D01*
X109443083Y-56084517D01*
X109429790Y-56071224D01*
X109421195Y-56051759D01*
X109405579Y-56028387D01*
X109401236Y-56006555D01*
X109393934Y-55990017D01*
X109388318Y-55941616D01*
X109387500Y-55937500D01*
X109387500Y-55462500D01*
X109388318Y-55458385D01*
X109393934Y-55409982D01*
X109401236Y-55393442D01*
X109405579Y-55371613D01*
X109421194Y-55348242D01*
X109429790Y-55328775D01*
X109443085Y-55315479D01*
X109457062Y-55294562D01*
X109477979Y-55280585D01*
X109491275Y-55267290D01*
X109510742Y-55258694D01*
X109534113Y-55243079D01*
X109555942Y-55238736D01*
X109572482Y-55231434D01*
X109620884Y-55225818D01*
X109625000Y-55225000D01*
X110125000Y-55225000D01*
X110129115Y-55225818D01*
G37*
G36*
X111954115Y-55225818D02*
G01*
X112002517Y-55231434D01*
X112019055Y-55238736D01*
X112040887Y-55243079D01*
X112064259Y-55258695D01*
X112083724Y-55267290D01*
X112097017Y-55280583D01*
X112117938Y-55294562D01*
X112131916Y-55315482D01*
X112145209Y-55328775D01*
X112153802Y-55348238D01*
X112169421Y-55371613D01*
X112173764Y-55393446D01*
X112181065Y-55409982D01*
X112186678Y-55458372D01*
X112187500Y-55462500D01*
X112187500Y-55937500D01*
X112186678Y-55941627D01*
X112181065Y-55990017D01*
X112173764Y-56006551D01*
X112169421Y-56028387D01*
X112153801Y-56051763D01*
X112145209Y-56071224D01*
X112131918Y-56084514D01*
X112117938Y-56105438D01*
X112097014Y-56119418D01*
X112083724Y-56132709D01*
X112064263Y-56141301D01*
X112040887Y-56156921D01*
X112019051Y-56161264D01*
X112002517Y-56168565D01*
X111954129Y-56174178D01*
X111950000Y-56175000D01*
X111450000Y-56175000D01*
X111445873Y-56174179D01*
X111397482Y-56168565D01*
X111380946Y-56161264D01*
X111359113Y-56156921D01*
X111335738Y-56141302D01*
X111316275Y-56132709D01*
X111302982Y-56119416D01*
X111282062Y-56105438D01*
X111268083Y-56084517D01*
X111254790Y-56071224D01*
X111246195Y-56051759D01*
X111230579Y-56028387D01*
X111226236Y-56006555D01*
X111218934Y-55990017D01*
X111213318Y-55941616D01*
X111212500Y-55937500D01*
X111212500Y-55462500D01*
X111213318Y-55458385D01*
X111218934Y-55409982D01*
X111226236Y-55393442D01*
X111230579Y-55371613D01*
X111246194Y-55348242D01*
X111254790Y-55328775D01*
X111268085Y-55315479D01*
X111282062Y-55294562D01*
X111302979Y-55280585D01*
X111316275Y-55267290D01*
X111335742Y-55258694D01*
X111359113Y-55243079D01*
X111380942Y-55238736D01*
X111397482Y-55231434D01*
X111445884Y-55225818D01*
X111450000Y-55225000D01*
X111950000Y-55225000D01*
X111954115Y-55225818D01*
G37*
G36*
X137241615Y-53873318D02*
G01*
X137290017Y-53878934D01*
X137306555Y-53886236D01*
X137328387Y-53890579D01*
X137351759Y-53906195D01*
X137371224Y-53914790D01*
X137384517Y-53928083D01*
X137405438Y-53942062D01*
X137419416Y-53962982D01*
X137432709Y-53976275D01*
X137441302Y-53995738D01*
X137456921Y-54019113D01*
X137461264Y-54040946D01*
X137468565Y-54057482D01*
X137474178Y-54105872D01*
X137475000Y-54110000D01*
X137475000Y-54610000D01*
X137474178Y-54614127D01*
X137468565Y-54662517D01*
X137461264Y-54679051D01*
X137456921Y-54700887D01*
X137441301Y-54724263D01*
X137432709Y-54743724D01*
X137419418Y-54757014D01*
X137405438Y-54777938D01*
X137384514Y-54791918D01*
X137371224Y-54805209D01*
X137351763Y-54813801D01*
X137328387Y-54829421D01*
X137306551Y-54833764D01*
X137290017Y-54841065D01*
X137241629Y-54846678D01*
X137237500Y-54847500D01*
X136762500Y-54847500D01*
X136758373Y-54846679D01*
X136709982Y-54841065D01*
X136693446Y-54833764D01*
X136671613Y-54829421D01*
X136648238Y-54813802D01*
X136628775Y-54805209D01*
X136615482Y-54791916D01*
X136594562Y-54777938D01*
X136580583Y-54757017D01*
X136567290Y-54743724D01*
X136558695Y-54724259D01*
X136543079Y-54700887D01*
X136538736Y-54679055D01*
X136531434Y-54662517D01*
X136525818Y-54614116D01*
X136525000Y-54610000D01*
X136525000Y-54110000D01*
X136525818Y-54105885D01*
X136531434Y-54057482D01*
X136538736Y-54040942D01*
X136543079Y-54019113D01*
X136558694Y-53995742D01*
X136567290Y-53976275D01*
X136580585Y-53962979D01*
X136594562Y-53942062D01*
X136615479Y-53928085D01*
X136628775Y-53914790D01*
X136648242Y-53906194D01*
X136671613Y-53890579D01*
X136693442Y-53886236D01*
X136709982Y-53878934D01*
X136758384Y-53873318D01*
X136762500Y-53872500D01*
X137237500Y-53872500D01*
X137241615Y-53873318D01*
G37*
G36*
X110141615Y-53725818D02*
G01*
X110190017Y-53731434D01*
X110206555Y-53738736D01*
X110228387Y-53743079D01*
X110251759Y-53758695D01*
X110271224Y-53767290D01*
X110284517Y-53780583D01*
X110305438Y-53794562D01*
X110319416Y-53815482D01*
X110332709Y-53828775D01*
X110341302Y-53848238D01*
X110356921Y-53871613D01*
X110361264Y-53893446D01*
X110368565Y-53909982D01*
X110374178Y-53958372D01*
X110375000Y-53962500D01*
X110375000Y-54437500D01*
X110374178Y-54441627D01*
X110368565Y-54490017D01*
X110361264Y-54506551D01*
X110356921Y-54528387D01*
X110341301Y-54551763D01*
X110332709Y-54571224D01*
X110319418Y-54584514D01*
X110305438Y-54605438D01*
X110284514Y-54619418D01*
X110271224Y-54632709D01*
X110251763Y-54641301D01*
X110228387Y-54656921D01*
X110206551Y-54661264D01*
X110190017Y-54668565D01*
X110141629Y-54674178D01*
X110137500Y-54675000D01*
X109637500Y-54675000D01*
X109633373Y-54674179D01*
X109584982Y-54668565D01*
X109568446Y-54661264D01*
X109546613Y-54656921D01*
X109523238Y-54641302D01*
X109503775Y-54632709D01*
X109490482Y-54619416D01*
X109469562Y-54605438D01*
X109455583Y-54584517D01*
X109442290Y-54571224D01*
X109433695Y-54551759D01*
X109418079Y-54528387D01*
X109413736Y-54506555D01*
X109406434Y-54490017D01*
X109400818Y-54441616D01*
X109400000Y-54437500D01*
X109400000Y-53962500D01*
X109400818Y-53958385D01*
X109406434Y-53909982D01*
X109413736Y-53893442D01*
X109418079Y-53871613D01*
X109433694Y-53848242D01*
X109442290Y-53828775D01*
X109455585Y-53815479D01*
X109469562Y-53794562D01*
X109490479Y-53780585D01*
X109503775Y-53767290D01*
X109523242Y-53758694D01*
X109546613Y-53743079D01*
X109568442Y-53738736D01*
X109584982Y-53731434D01*
X109633384Y-53725818D01*
X109637500Y-53725000D01*
X110137500Y-53725000D01*
X110141615Y-53725818D01*
G37*
G36*
X111966615Y-53725818D02*
G01*
X112015017Y-53731434D01*
X112031555Y-53738736D01*
X112053387Y-53743079D01*
X112076759Y-53758695D01*
X112096224Y-53767290D01*
X112109517Y-53780583D01*
X112130438Y-53794562D01*
X112144416Y-53815482D01*
X112157709Y-53828775D01*
X112166302Y-53848238D01*
X112181921Y-53871613D01*
X112186264Y-53893446D01*
X112193565Y-53909982D01*
X112199178Y-53958372D01*
X112200000Y-53962500D01*
X112200000Y-54437500D01*
X112199178Y-54441627D01*
X112193565Y-54490017D01*
X112186264Y-54506551D01*
X112181921Y-54528387D01*
X112166301Y-54551763D01*
X112157709Y-54571224D01*
X112144418Y-54584514D01*
X112130438Y-54605438D01*
X112109514Y-54619418D01*
X112096224Y-54632709D01*
X112076763Y-54641301D01*
X112053387Y-54656921D01*
X112031551Y-54661264D01*
X112015017Y-54668565D01*
X111966629Y-54674178D01*
X111962500Y-54675000D01*
X111462500Y-54675000D01*
X111458373Y-54674179D01*
X111409982Y-54668565D01*
X111393446Y-54661264D01*
X111371613Y-54656921D01*
X111348238Y-54641302D01*
X111328775Y-54632709D01*
X111315482Y-54619416D01*
X111294562Y-54605438D01*
X111280583Y-54584517D01*
X111267290Y-54571224D01*
X111258695Y-54551759D01*
X111243079Y-54528387D01*
X111238736Y-54506555D01*
X111231434Y-54490017D01*
X111225818Y-54441616D01*
X111225000Y-54437500D01*
X111225000Y-53962500D01*
X111225818Y-53958385D01*
X111231434Y-53909982D01*
X111238736Y-53893442D01*
X111243079Y-53871613D01*
X111258694Y-53848242D01*
X111267290Y-53828775D01*
X111280585Y-53815479D01*
X111294562Y-53794562D01*
X111315479Y-53780585D01*
X111328775Y-53767290D01*
X111348242Y-53758694D01*
X111371613Y-53743079D01*
X111393442Y-53738736D01*
X111409982Y-53731434D01*
X111458384Y-53725818D01*
X111462500Y-53725000D01*
X111962500Y-53725000D01*
X111966615Y-53725818D01*
G37*
G36*
X127439034Y-53655764D02*
G01*
X127472125Y-53677875D01*
X127494236Y-53710966D01*
X127502000Y-53750000D01*
X127502000Y-54250000D01*
X127494236Y-54289034D01*
X127472125Y-54322125D01*
X127439034Y-54344236D01*
X127400000Y-54352000D01*
X126850000Y-54352000D01*
X126810966Y-54344236D01*
X126777875Y-54322125D01*
X126755764Y-54289034D01*
X126748000Y-54250000D01*
X126748000Y-53750000D01*
X126755764Y-53710966D01*
X126777875Y-53677875D01*
X126810966Y-53655764D01*
X126850000Y-53648000D01*
X127400000Y-53648000D01*
X127439034Y-53655764D01*
G37*
G36*
X129189034Y-53655764D02*
G01*
X129222125Y-53677875D01*
X129244236Y-53710966D01*
X129252000Y-53750000D01*
X129252000Y-54250000D01*
X129244236Y-54289034D01*
X129222125Y-54322125D01*
X129189034Y-54344236D01*
X129150000Y-54352000D01*
X128600000Y-54352000D01*
X128560966Y-54344236D01*
X128527875Y-54322125D01*
X128505764Y-54289034D01*
X128498000Y-54250000D01*
X128498000Y-53750000D01*
X128505764Y-53710966D01*
X128527875Y-53677875D01*
X128560966Y-53655764D01*
X128600000Y-53648000D01*
X129150000Y-53648000D01*
X129189034Y-53655764D01*
G37*
G36*
X132547735Y-53561473D02*
G01*
X132605158Y-53599842D01*
X132643527Y-53657265D01*
X132657000Y-53725000D01*
X132657000Y-54175000D01*
X132643527Y-54242735D01*
X132605158Y-54300158D01*
X132547735Y-54338527D01*
X132480000Y-54352000D01*
X131400000Y-54352000D01*
X131332265Y-54338527D01*
X131274842Y-54300158D01*
X131236473Y-54242735D01*
X131223000Y-54175000D01*
X131223000Y-53725000D01*
X131236473Y-53657265D01*
X131274842Y-53599842D01*
X131332265Y-53561473D01*
X131400000Y-53548000D01*
X132480000Y-53548000D01*
X132547735Y-53561473D01*
G37*
G36*
X117819903Y-53661418D02*
G01*
X117868566Y-53693934D01*
X117901082Y-53742597D01*
X117912500Y-53800000D01*
X117912500Y-54100000D01*
X117901082Y-54157403D01*
X117868566Y-54206066D01*
X117819903Y-54238582D01*
X117762500Y-54250000D01*
X116587500Y-54250000D01*
X116530097Y-54238582D01*
X116481434Y-54206066D01*
X116448918Y-54157403D01*
X116437500Y-54100000D01*
X116437500Y-53800000D01*
X116448918Y-53742597D01*
X116481434Y-53693934D01*
X116530097Y-53661418D01*
X116587500Y-53650000D01*
X117762500Y-53650000D01*
X117819903Y-53661418D01*
G37*
G36*
X123069034Y-52605764D02*
G01*
X123102125Y-52627875D01*
X123124236Y-52660966D01*
X123132000Y-52700000D01*
X123132000Y-54100000D01*
X123124236Y-54139034D01*
X123102125Y-54172125D01*
X123069034Y-54194236D01*
X123030000Y-54202000D01*
X122030000Y-54202000D01*
X121990966Y-54194236D01*
X121957875Y-54172125D01*
X121935764Y-54139034D01*
X121928000Y-54100000D01*
X121928000Y-52700000D01*
X121935764Y-52660966D01*
X121957875Y-52627875D01*
X121990966Y-52605764D01*
X122030000Y-52598000D01*
X123030000Y-52598000D01*
X123069034Y-52605764D01*
G37*
G36*
X124969034Y-52605764D02*
G01*
X125002125Y-52627875D01*
X125024236Y-52660966D01*
X125032000Y-52700000D01*
X125032000Y-54100000D01*
X125024236Y-54139034D01*
X125002125Y-54172125D01*
X124969034Y-54194236D01*
X124930000Y-54202000D01*
X123930000Y-54202000D01*
X123890966Y-54194236D01*
X123857875Y-54172125D01*
X123835764Y-54139034D01*
X123828000Y-54100000D01*
X123828000Y-52700000D01*
X123835764Y-52660966D01*
X123857875Y-52627875D01*
X123890966Y-52605764D01*
X123930000Y-52598000D01*
X124930000Y-52598000D01*
X124969034Y-52605764D01*
G37*
G36*
X134667735Y-52611473D02*
G01*
X134725158Y-52649842D01*
X134763527Y-52707265D01*
X134777000Y-52775000D01*
X134777000Y-53225000D01*
X134763527Y-53292735D01*
X134725158Y-53350158D01*
X134667735Y-53388527D01*
X134600000Y-53402000D01*
X133520000Y-53402000D01*
X133452265Y-53388527D01*
X133394842Y-53350158D01*
X133356473Y-53292735D01*
X133343000Y-53225000D01*
X133343000Y-52775000D01*
X133356473Y-52707265D01*
X133394842Y-52649842D01*
X133452265Y-52611473D01*
X133520000Y-52598000D01*
X134600000Y-52598000D01*
X134667735Y-52611473D01*
G37*
G36*
X127439034Y-52655764D02*
G01*
X127472125Y-52677875D01*
X127494236Y-52710966D01*
X127502000Y-52750000D01*
X127502000Y-53250000D01*
X127494236Y-53289034D01*
X127472125Y-53322125D01*
X127439034Y-53344236D01*
X127400000Y-53352000D01*
X126850000Y-53352000D01*
X126810966Y-53344236D01*
X126777875Y-53322125D01*
X126755764Y-53289034D01*
X126748000Y-53250000D01*
X126748000Y-52750000D01*
X126755764Y-52710966D01*
X126777875Y-52677875D01*
X126810966Y-52655764D01*
X126850000Y-52648000D01*
X127400000Y-52648000D01*
X127439034Y-52655764D01*
G37*
G36*
X129189034Y-52655764D02*
G01*
X129222125Y-52677875D01*
X129244236Y-52710966D01*
X129252000Y-52750000D01*
X129252000Y-53250000D01*
X129244236Y-53289034D01*
X129222125Y-53322125D01*
X129189034Y-53344236D01*
X129150000Y-53352000D01*
X128600000Y-53352000D01*
X128560966Y-53344236D01*
X128527875Y-53322125D01*
X128505764Y-53289034D01*
X128498000Y-53250000D01*
X128498000Y-52750000D01*
X128505764Y-52710966D01*
X128527875Y-52677875D01*
X128560966Y-52655764D01*
X128600000Y-52648000D01*
X129150000Y-52648000D01*
X129189034Y-52655764D01*
G37*
G36*
X119694903Y-52711418D02*
G01*
X119743566Y-52743934D01*
X119776082Y-52792597D01*
X119787500Y-52850000D01*
X119787500Y-53150000D01*
X119776082Y-53207403D01*
X119743566Y-53256066D01*
X119694903Y-53288582D01*
X119637500Y-53300000D01*
X118462500Y-53300000D01*
X118405097Y-53288582D01*
X118356434Y-53256066D01*
X118323918Y-53207403D01*
X118312500Y-53150000D01*
X118312500Y-52850000D01*
X118323918Y-52792597D01*
X118356434Y-52743934D01*
X118405097Y-52711418D01*
X118462500Y-52700000D01*
X119637500Y-52700000D01*
X119694903Y-52711418D01*
G37*
G36*
X110129115Y-52225818D02*
G01*
X110177517Y-52231434D01*
X110194055Y-52238736D01*
X110215887Y-52243079D01*
X110239259Y-52258695D01*
X110258724Y-52267290D01*
X110272017Y-52280583D01*
X110292938Y-52294562D01*
X110306916Y-52315482D01*
X110320209Y-52328775D01*
X110328802Y-52348238D01*
X110344421Y-52371613D01*
X110348764Y-52393446D01*
X110356065Y-52409982D01*
X110361678Y-52458372D01*
X110362500Y-52462500D01*
X110362500Y-52937500D01*
X110361678Y-52941627D01*
X110356065Y-52990017D01*
X110348764Y-53006551D01*
X110344421Y-53028387D01*
X110328801Y-53051763D01*
X110320209Y-53071224D01*
X110306918Y-53084514D01*
X110292938Y-53105438D01*
X110272014Y-53119418D01*
X110258724Y-53132709D01*
X110239263Y-53141301D01*
X110215887Y-53156921D01*
X110194051Y-53161264D01*
X110177517Y-53168565D01*
X110129129Y-53174178D01*
X110125000Y-53175000D01*
X109625000Y-53175000D01*
X109620873Y-53174179D01*
X109572482Y-53168565D01*
X109555946Y-53161264D01*
X109534113Y-53156921D01*
X109510738Y-53141302D01*
X109491275Y-53132709D01*
X109477982Y-53119416D01*
X109457062Y-53105438D01*
X109443083Y-53084517D01*
X109429790Y-53071224D01*
X109421195Y-53051759D01*
X109405579Y-53028387D01*
X109401236Y-53006555D01*
X109393934Y-52990017D01*
X109388318Y-52941616D01*
X109387500Y-52937500D01*
X109387500Y-52462500D01*
X109388318Y-52458385D01*
X109393934Y-52409982D01*
X109401236Y-52393442D01*
X109405579Y-52371613D01*
X109421194Y-52348242D01*
X109429790Y-52328775D01*
X109443085Y-52315479D01*
X109457062Y-52294562D01*
X109477979Y-52280585D01*
X109491275Y-52267290D01*
X109510742Y-52258694D01*
X109534113Y-52243079D01*
X109555942Y-52238736D01*
X109572482Y-52231434D01*
X109620884Y-52225818D01*
X109625000Y-52225000D01*
X110125000Y-52225000D01*
X110129115Y-52225818D01*
G37*
G36*
X111954115Y-52225818D02*
G01*
X112002517Y-52231434D01*
X112019055Y-52238736D01*
X112040887Y-52243079D01*
X112064259Y-52258695D01*
X112083724Y-52267290D01*
X112097017Y-52280583D01*
X112117938Y-52294562D01*
X112131916Y-52315482D01*
X112145209Y-52328775D01*
X112153802Y-52348238D01*
X112169421Y-52371613D01*
X112173764Y-52393446D01*
X112181065Y-52409982D01*
X112186678Y-52458372D01*
X112187500Y-52462500D01*
X112187500Y-52937500D01*
X112186678Y-52941627D01*
X112181065Y-52990017D01*
X112173764Y-53006551D01*
X112169421Y-53028387D01*
X112153801Y-53051763D01*
X112145209Y-53071224D01*
X112131918Y-53084514D01*
X112117938Y-53105438D01*
X112097014Y-53119418D01*
X112083724Y-53132709D01*
X112064263Y-53141301D01*
X112040887Y-53156921D01*
X112019051Y-53161264D01*
X112002517Y-53168565D01*
X111954129Y-53174178D01*
X111950000Y-53175000D01*
X111450000Y-53175000D01*
X111445873Y-53174179D01*
X111397482Y-53168565D01*
X111380946Y-53161264D01*
X111359113Y-53156921D01*
X111335738Y-53141302D01*
X111316275Y-53132709D01*
X111302982Y-53119416D01*
X111282062Y-53105438D01*
X111268083Y-53084517D01*
X111254790Y-53071224D01*
X111246195Y-53051759D01*
X111230579Y-53028387D01*
X111226236Y-53006555D01*
X111218934Y-52990017D01*
X111213318Y-52941616D01*
X111212500Y-52937500D01*
X111212500Y-52462500D01*
X111213318Y-52458385D01*
X111218934Y-52409982D01*
X111226236Y-52393442D01*
X111230579Y-52371613D01*
X111246194Y-52348242D01*
X111254790Y-52328775D01*
X111268085Y-52315479D01*
X111282062Y-52294562D01*
X111302979Y-52280585D01*
X111316275Y-52267290D01*
X111335742Y-52258694D01*
X111359113Y-52243079D01*
X111380942Y-52238736D01*
X111397482Y-52231434D01*
X111445884Y-52225818D01*
X111450000Y-52225000D01*
X111950000Y-52225000D01*
X111954115Y-52225818D01*
G37*
G36*
X137241615Y-52048318D02*
G01*
X137290017Y-52053934D01*
X137306555Y-52061236D01*
X137328387Y-52065579D01*
X137351759Y-52081195D01*
X137371224Y-52089790D01*
X137384517Y-52103083D01*
X137405438Y-52117062D01*
X137419416Y-52137982D01*
X137432709Y-52151275D01*
X137441302Y-52170738D01*
X137456921Y-52194113D01*
X137461264Y-52215946D01*
X137468565Y-52232482D01*
X137474178Y-52280872D01*
X137475000Y-52285000D01*
X137475000Y-52785000D01*
X137474178Y-52789127D01*
X137468565Y-52837517D01*
X137461264Y-52854051D01*
X137456921Y-52875887D01*
X137441301Y-52899263D01*
X137432709Y-52918724D01*
X137419418Y-52932014D01*
X137405438Y-52952938D01*
X137384514Y-52966918D01*
X137371224Y-52980209D01*
X137351763Y-52988801D01*
X137328387Y-53004421D01*
X137306551Y-53008764D01*
X137290017Y-53016065D01*
X137241629Y-53021678D01*
X137237500Y-53022500D01*
X136762500Y-53022500D01*
X136758373Y-53021679D01*
X136709982Y-53016065D01*
X136693446Y-53008764D01*
X136671613Y-53004421D01*
X136648238Y-52988802D01*
X136628775Y-52980209D01*
X136615482Y-52966916D01*
X136594562Y-52952938D01*
X136580583Y-52932017D01*
X136567290Y-52918724D01*
X136558695Y-52899259D01*
X136543079Y-52875887D01*
X136538736Y-52854055D01*
X136531434Y-52837517D01*
X136525818Y-52789116D01*
X136525000Y-52785000D01*
X136525000Y-52285000D01*
X136525818Y-52280885D01*
X136531434Y-52232482D01*
X136538736Y-52215942D01*
X136543079Y-52194113D01*
X136558694Y-52170742D01*
X136567290Y-52151275D01*
X136580585Y-52137979D01*
X136594562Y-52117062D01*
X136615479Y-52103085D01*
X136628775Y-52089790D01*
X136648242Y-52081194D01*
X136671613Y-52065579D01*
X136693442Y-52061236D01*
X136709982Y-52053934D01*
X136758384Y-52048318D01*
X136762500Y-52047500D01*
X137237500Y-52047500D01*
X137241615Y-52048318D01*
G37*
G36*
X132547735Y-51661473D02*
G01*
X132605158Y-51699842D01*
X132643527Y-51757265D01*
X132657000Y-51825000D01*
X132657000Y-52275000D01*
X132643527Y-52342735D01*
X132605158Y-52400158D01*
X132547735Y-52438527D01*
X132480000Y-52452000D01*
X131400000Y-52452000D01*
X131332265Y-52438527D01*
X131274842Y-52400158D01*
X131236473Y-52342735D01*
X131223000Y-52275000D01*
X131223000Y-51825000D01*
X131236473Y-51757265D01*
X131274842Y-51699842D01*
X131332265Y-51661473D01*
X131400000Y-51648000D01*
X132480000Y-51648000D01*
X132547735Y-51661473D01*
G37*
G36*
X117819903Y-51761418D02*
G01*
X117868566Y-51793934D01*
X117901082Y-51842597D01*
X117912500Y-51900000D01*
X117912500Y-52200000D01*
X117901082Y-52257403D01*
X117868566Y-52306066D01*
X117819903Y-52338582D01*
X117762500Y-52350000D01*
X116587500Y-52350000D01*
X116530097Y-52338582D01*
X116481434Y-52306066D01*
X116448918Y-52257403D01*
X116437500Y-52200000D01*
X116437500Y-51900000D01*
X116448918Y-51842597D01*
X116481434Y-51793934D01*
X116530097Y-51761418D01*
X116587500Y-51750000D01*
X117762500Y-51750000D01*
X117819903Y-51761418D01*
G37*
G36*
X137251615Y-50315818D02*
G01*
X137300017Y-50321434D01*
X137316555Y-50328736D01*
X137338387Y-50333079D01*
X137361759Y-50348695D01*
X137381224Y-50357290D01*
X137394517Y-50370583D01*
X137415438Y-50384562D01*
X137429416Y-50405482D01*
X137442709Y-50418775D01*
X137451302Y-50438238D01*
X137466921Y-50461613D01*
X137471264Y-50483446D01*
X137478565Y-50499982D01*
X137484178Y-50548372D01*
X137485000Y-50552500D01*
X137485000Y-51027500D01*
X137484178Y-51031627D01*
X137478565Y-51080017D01*
X137471264Y-51096551D01*
X137466921Y-51118387D01*
X137451301Y-51141763D01*
X137442709Y-51161224D01*
X137429418Y-51174514D01*
X137415438Y-51195438D01*
X137394514Y-51209418D01*
X137381224Y-51222709D01*
X137361763Y-51231301D01*
X137338387Y-51246921D01*
X137316551Y-51251264D01*
X137300017Y-51258565D01*
X137251629Y-51264178D01*
X137247500Y-51265000D01*
X136747500Y-51265000D01*
X136743373Y-51264179D01*
X136694982Y-51258565D01*
X136678446Y-51251264D01*
X136656613Y-51246921D01*
X136633238Y-51231302D01*
X136613775Y-51222709D01*
X136600482Y-51209416D01*
X136579562Y-51195438D01*
X136565583Y-51174517D01*
X136552290Y-51161224D01*
X136543695Y-51141759D01*
X136528079Y-51118387D01*
X136523736Y-51096555D01*
X136516434Y-51080017D01*
X136510818Y-51031616D01*
X136510000Y-51027500D01*
X136510000Y-50552500D01*
X136510818Y-50548385D01*
X136516434Y-50499982D01*
X136523736Y-50483442D01*
X136528079Y-50461613D01*
X136543694Y-50438242D01*
X136552290Y-50418775D01*
X136565585Y-50405479D01*
X136579562Y-50384562D01*
X136600479Y-50370585D01*
X136613775Y-50357290D01*
X136633242Y-50348694D01*
X136656613Y-50333079D01*
X136678442Y-50328736D01*
X136694982Y-50321434D01*
X136743384Y-50315818D01*
X136747500Y-50315000D01*
X137247500Y-50315000D01*
X137251615Y-50315818D01*
G37*
G36*
X139076615Y-50315818D02*
G01*
X139125017Y-50321434D01*
X139141555Y-50328736D01*
X139163387Y-50333079D01*
X139186759Y-50348695D01*
X139206224Y-50357290D01*
X139219517Y-50370583D01*
X139240438Y-50384562D01*
X139254416Y-50405482D01*
X139267709Y-50418775D01*
X139276302Y-50438238D01*
X139291921Y-50461613D01*
X139296264Y-50483446D01*
X139303565Y-50499982D01*
X139309178Y-50548372D01*
X139310000Y-50552500D01*
X139310000Y-51027500D01*
X139309178Y-51031627D01*
X139303565Y-51080017D01*
X139296264Y-51096551D01*
X139291921Y-51118387D01*
X139276301Y-51141763D01*
X139267709Y-51161224D01*
X139254418Y-51174514D01*
X139240438Y-51195438D01*
X139219514Y-51209418D01*
X139206224Y-51222709D01*
X139186763Y-51231301D01*
X139163387Y-51246921D01*
X139141551Y-51251264D01*
X139125017Y-51258565D01*
X139076629Y-51264178D01*
X139072500Y-51265000D01*
X138572500Y-51265000D01*
X138568373Y-51264179D01*
X138519982Y-51258565D01*
X138503446Y-51251264D01*
X138481613Y-51246921D01*
X138458238Y-51231302D01*
X138438775Y-51222709D01*
X138425482Y-51209416D01*
X138404562Y-51195438D01*
X138390583Y-51174517D01*
X138377290Y-51161224D01*
X138368695Y-51141759D01*
X138353079Y-51118387D01*
X138348736Y-51096555D01*
X138341434Y-51080017D01*
X138335818Y-51031616D01*
X138335000Y-51027500D01*
X138335000Y-50552500D01*
X138335818Y-50548385D01*
X138341434Y-50499982D01*
X138348736Y-50483442D01*
X138353079Y-50461613D01*
X138368694Y-50438242D01*
X138377290Y-50418775D01*
X138390585Y-50405479D01*
X138404562Y-50384562D01*
X138425479Y-50370585D01*
X138438775Y-50357290D01*
X138458242Y-50348694D01*
X138481613Y-50333079D01*
X138503442Y-50328736D01*
X138519982Y-50321434D01*
X138568384Y-50315818D01*
X138572500Y-50315000D01*
X139072500Y-50315000D01*
X139076615Y-50315818D01*
G37*
G36*
X111355672Y-46301520D02*
G01*
X111595735Y-46365845D01*
X111825349Y-46460954D01*
X112040583Y-46585220D01*
X112237757Y-46736516D01*
X112413496Y-46912255D01*
X112564792Y-47109429D01*
X112689058Y-47324663D01*
X112784167Y-47554277D01*
X112848492Y-47794340D01*
X112880932Y-48040746D01*
X112880932Y-48289278D01*
X112848492Y-48535684D01*
X112784167Y-48775747D01*
X112689058Y-49005361D01*
X112564792Y-49220595D01*
X112413496Y-49417769D01*
X112237757Y-49593508D01*
X112040583Y-49744804D01*
X111825349Y-49869070D01*
X111595735Y-49964179D01*
X111355672Y-50028504D01*
X111109266Y-50060944D01*
X110860734Y-50060944D01*
X110614328Y-50028504D01*
X110374265Y-49964179D01*
X110144651Y-49869070D01*
X109929417Y-49744804D01*
X109732243Y-49593508D01*
X109556504Y-49417769D01*
X109405208Y-49220595D01*
X109280942Y-49005361D01*
X109185833Y-48775747D01*
X109121508Y-48535684D01*
X109089068Y-48289278D01*
X109089068Y-48040746D01*
X109121508Y-47794340D01*
X109185833Y-47554277D01*
X109280942Y-47324663D01*
X109405208Y-47109429D01*
X109556504Y-46912255D01*
X109732243Y-46736516D01*
X109929417Y-46585220D01*
X110144651Y-46460954D01*
X110374265Y-46365845D01*
X110614328Y-46301520D01*
X110860734Y-46269080D01*
X111109266Y-46269080D01*
X111355672Y-46301520D01*
G37*
G36*
X144595672Y-46241508D02*
G01*
X144835735Y-46305833D01*
X145065349Y-46400942D01*
X145280583Y-46525208D01*
X145477757Y-46676504D01*
X145653496Y-46852243D01*
X145804792Y-47049417D01*
X145929058Y-47264651D01*
X146024167Y-47494265D01*
X146088492Y-47734328D01*
X146120932Y-47980734D01*
X146120932Y-48229266D01*
X146088492Y-48475672D01*
X146024167Y-48715735D01*
X145929058Y-48945349D01*
X145804792Y-49160583D01*
X145653496Y-49357757D01*
X145477757Y-49533496D01*
X145280583Y-49684792D01*
X145065349Y-49809058D01*
X144835735Y-49904167D01*
X144595672Y-49968492D01*
X144349266Y-50000932D01*
X144100734Y-50000932D01*
X143854328Y-49968492D01*
X143614265Y-49904167D01*
X143384651Y-49809058D01*
X143169417Y-49684792D01*
X142972243Y-49533496D01*
X142796504Y-49357757D01*
X142645208Y-49160583D01*
X142520942Y-48945349D01*
X142425833Y-48715735D01*
X142361508Y-48475672D01*
X142329068Y-48229266D01*
X142329068Y-47980734D01*
X142361508Y-47734328D01*
X142425833Y-47494265D01*
X142520942Y-47264651D01*
X142645208Y-47049417D01*
X142796504Y-46852243D01*
X142972243Y-46676504D01*
X143169417Y-46525208D01*
X143384651Y-46400942D01*
X143614265Y-46305833D01*
X143854328Y-46241508D01*
X144100734Y-46209068D01*
X144349266Y-46209068D01*
X144595672Y-46241508D01*
G37*
G36*
X124039034Y-48135764D02*
G01*
X124072125Y-48157875D01*
X124094236Y-48190966D01*
X124102000Y-48230000D01*
X124102000Y-49630000D01*
X124094236Y-49669034D01*
X124072125Y-49702125D01*
X124039034Y-49724236D01*
X124000000Y-49732000D01*
X123000000Y-49732000D01*
X122960966Y-49724236D01*
X122927875Y-49702125D01*
X122905764Y-49669034D01*
X122898000Y-49630000D01*
X122898000Y-48230000D01*
X122905764Y-48190966D01*
X122927875Y-48157875D01*
X122960966Y-48135764D01*
X123000000Y-48128000D01*
X124000000Y-48128000D01*
X124039034Y-48135764D01*
G37*
G36*
X137254115Y-48525818D02*
G01*
X137302517Y-48531434D01*
X137319055Y-48538736D01*
X137340887Y-48543079D01*
X137364259Y-48558695D01*
X137383724Y-48567290D01*
X137397017Y-48580583D01*
X137417938Y-48594562D01*
X137431916Y-48615482D01*
X137445209Y-48628775D01*
X137453802Y-48648238D01*
X137469421Y-48671613D01*
X137473764Y-48693446D01*
X137481065Y-48709982D01*
X137486678Y-48758372D01*
X137487500Y-48762500D01*
X137487500Y-49237500D01*
X137486678Y-49241627D01*
X137481065Y-49290017D01*
X137473764Y-49306551D01*
X137469421Y-49328387D01*
X137453801Y-49351763D01*
X137445209Y-49371224D01*
X137431918Y-49384514D01*
X137417938Y-49405438D01*
X137397014Y-49419418D01*
X137383724Y-49432709D01*
X137364263Y-49441301D01*
X137340887Y-49456921D01*
X137319051Y-49461264D01*
X137302517Y-49468565D01*
X137254129Y-49474178D01*
X137250000Y-49475000D01*
X136750000Y-49475000D01*
X136745873Y-49474179D01*
X136697482Y-49468565D01*
X136680946Y-49461264D01*
X136659113Y-49456921D01*
X136635738Y-49441302D01*
X136616275Y-49432709D01*
X136602982Y-49419416D01*
X136582062Y-49405438D01*
X136568083Y-49384517D01*
X136554790Y-49371224D01*
X136546195Y-49351759D01*
X136530579Y-49328387D01*
X136526236Y-49306555D01*
X136518934Y-49290017D01*
X136513318Y-49241616D01*
X136512500Y-49237500D01*
X136512500Y-48762500D01*
X136513318Y-48758385D01*
X136518934Y-48709982D01*
X136526236Y-48693442D01*
X136530579Y-48671613D01*
X136546194Y-48648242D01*
X136554790Y-48628775D01*
X136568085Y-48615479D01*
X136582062Y-48594562D01*
X136602979Y-48580585D01*
X136616275Y-48567290D01*
X136635742Y-48558694D01*
X136659113Y-48543079D01*
X136680942Y-48538736D01*
X136697482Y-48531434D01*
X136745884Y-48525818D01*
X136750000Y-48525000D01*
X137250000Y-48525000D01*
X137254115Y-48525818D01*
G37*
G36*
X139079115Y-48525818D02*
G01*
X139127517Y-48531434D01*
X139144055Y-48538736D01*
X139165887Y-48543079D01*
X139189259Y-48558695D01*
X139208724Y-48567290D01*
X139222017Y-48580583D01*
X139242938Y-48594562D01*
X139256916Y-48615482D01*
X139270209Y-48628775D01*
X139278802Y-48648238D01*
X139294421Y-48671613D01*
X139298764Y-48693446D01*
X139306065Y-48709982D01*
X139311678Y-48758372D01*
X139312500Y-48762500D01*
X139312500Y-49237500D01*
X139311678Y-49241627D01*
X139306065Y-49290017D01*
X139298764Y-49306551D01*
X139294421Y-49328387D01*
X139278801Y-49351763D01*
X139270209Y-49371224D01*
X139256918Y-49384514D01*
X139242938Y-49405438D01*
X139222014Y-49419418D01*
X139208724Y-49432709D01*
X139189263Y-49441301D01*
X139165887Y-49456921D01*
X139144051Y-49461264D01*
X139127517Y-49468565D01*
X139079129Y-49474178D01*
X139075000Y-49475000D01*
X138575000Y-49475000D01*
X138570873Y-49474179D01*
X138522482Y-49468565D01*
X138505946Y-49461264D01*
X138484113Y-49456921D01*
X138460738Y-49441302D01*
X138441275Y-49432709D01*
X138427982Y-49419416D01*
X138407062Y-49405438D01*
X138393083Y-49384517D01*
X138379790Y-49371224D01*
X138371195Y-49351759D01*
X138355579Y-49328387D01*
X138351236Y-49306555D01*
X138343934Y-49290017D01*
X138338318Y-49241616D01*
X138337500Y-49237500D01*
X138337500Y-48762500D01*
X138338318Y-48758385D01*
X138343934Y-48709982D01*
X138351236Y-48693442D01*
X138355579Y-48671613D01*
X138371194Y-48648242D01*
X138379790Y-48628775D01*
X138393085Y-48615479D01*
X138407062Y-48594562D01*
X138427979Y-48580585D01*
X138441275Y-48567290D01*
X138460742Y-48558694D01*
X138484113Y-48543079D01*
X138505942Y-48538736D01*
X138522482Y-48531434D01*
X138570884Y-48525818D01*
X138575000Y-48525000D01*
X139075000Y-48525000D01*
X139079115Y-48525818D01*
G37*
G36*
X132519134Y-47868806D02*
G01*
X132535355Y-47879645D01*
X132546194Y-47895866D01*
X132550000Y-47915000D01*
X132550000Y-49005000D01*
X132546194Y-49024134D01*
X132535355Y-49040355D01*
X132519134Y-49051194D01*
X132500000Y-49055000D01*
X132200000Y-49055000D01*
X132180866Y-49051194D01*
X132164645Y-49040355D01*
X132153806Y-49024134D01*
X132150000Y-49005000D01*
X132150000Y-47915000D01*
X132153806Y-47895866D01*
X132164645Y-47879645D01*
X132180866Y-47868806D01*
X132200000Y-47865000D01*
X132500000Y-47865000D01*
X132519134Y-47868806D01*
G37*
G36*
X133819134Y-47868806D02*
G01*
X133835355Y-47879645D01*
X133846194Y-47895866D01*
X133850000Y-47915000D01*
X133850000Y-49005000D01*
X133846194Y-49024134D01*
X133835355Y-49040355D01*
X133819134Y-49051194D01*
X133800000Y-49055000D01*
X133500000Y-49055000D01*
X133480866Y-49051194D01*
X133464645Y-49040355D01*
X133453806Y-49024134D01*
X133450000Y-49005000D01*
X133450000Y-47915000D01*
X133453806Y-47895866D01*
X133464645Y-47879645D01*
X133480866Y-47868806D01*
X133500000Y-47865000D01*
X133800000Y-47865000D01*
X133819134Y-47868806D01*
G37*
G36*
X129667735Y-48061473D02*
G01*
X129725158Y-48099842D01*
X129763527Y-48157265D01*
X129777000Y-48225000D01*
X129777000Y-48675000D01*
X129763527Y-48742735D01*
X129725158Y-48800158D01*
X129667735Y-48838527D01*
X129600000Y-48852000D01*
X128520000Y-48852000D01*
X128452265Y-48838527D01*
X128394842Y-48800158D01*
X128356473Y-48742735D01*
X128343000Y-48675000D01*
X128343000Y-48225000D01*
X128356473Y-48157265D01*
X128394842Y-48099842D01*
X128452265Y-48061473D01*
X128520000Y-48048000D01*
X129600000Y-48048000D01*
X129667735Y-48061473D01*
G37*
G36*
X118657403Y-48211418D02*
G01*
X118706066Y-48243934D01*
X118738582Y-48292597D01*
X118750000Y-48350000D01*
X118750000Y-48650000D01*
X118738582Y-48707403D01*
X118706066Y-48756066D01*
X118657403Y-48788582D01*
X118600000Y-48800000D01*
X117425000Y-48800000D01*
X117367597Y-48788582D01*
X117318934Y-48756066D01*
X117286418Y-48707403D01*
X117275000Y-48650000D01*
X117275000Y-48350000D01*
X117286418Y-48292597D01*
X117318934Y-48243934D01*
X117367597Y-48211418D01*
X117425000Y-48200000D01*
X118600000Y-48200000D01*
X118657403Y-48211418D01*
G37*
G36*
X127547735Y-47111473D02*
G01*
X127605158Y-47149842D01*
X127643527Y-47207265D01*
X127657000Y-47275000D01*
X127657000Y-47725000D01*
X127643527Y-47792735D01*
X127605158Y-47850158D01*
X127547735Y-47888527D01*
X127480000Y-47902000D01*
X126400000Y-47902000D01*
X126332265Y-47888527D01*
X126274842Y-47850158D01*
X126236473Y-47792735D01*
X126223000Y-47725000D01*
X126223000Y-47275000D01*
X126236473Y-47207265D01*
X126274842Y-47149842D01*
X126332265Y-47111473D01*
X126400000Y-47098000D01*
X127480000Y-47098000D01*
X127547735Y-47111473D01*
G37*
G36*
X120532403Y-47261418D02*
G01*
X120581066Y-47293934D01*
X120613582Y-47342597D01*
X120625000Y-47400000D01*
X120625000Y-47700000D01*
X120613582Y-47757403D01*
X120581066Y-47806066D01*
X120532403Y-47838582D01*
X120475000Y-47850000D01*
X119300000Y-47850000D01*
X119242597Y-47838582D01*
X119193934Y-47806066D01*
X119161418Y-47757403D01*
X119150000Y-47700000D01*
X119150000Y-47400000D01*
X119161418Y-47342597D01*
X119193934Y-47293934D01*
X119242597Y-47261418D01*
X119300000Y-47250000D01*
X120475000Y-47250000D01*
X120532403Y-47261418D01*
G37*
G36*
X123089034Y-45935764D02*
G01*
X123122125Y-45957875D01*
X123144236Y-45990966D01*
X123152000Y-46030000D01*
X123152000Y-47430000D01*
X123144236Y-47469034D01*
X123122125Y-47502125D01*
X123089034Y-47524236D01*
X123050000Y-47532000D01*
X122050000Y-47532000D01*
X122010966Y-47524236D01*
X121977875Y-47502125D01*
X121955764Y-47469034D01*
X121948000Y-47430000D01*
X121948000Y-46030000D01*
X121955764Y-45990966D01*
X121977875Y-45957875D01*
X122010966Y-45935764D01*
X122050000Y-45928000D01*
X123050000Y-45928000D01*
X123089034Y-45935764D01*
G37*
G36*
X124989034Y-45935764D02*
G01*
X125022125Y-45957875D01*
X125044236Y-45990966D01*
X125052000Y-46030000D01*
X125052000Y-47430000D01*
X125044236Y-47469034D01*
X125022125Y-47502125D01*
X124989034Y-47524236D01*
X124950000Y-47532000D01*
X123950000Y-47532000D01*
X123910966Y-47524236D01*
X123877875Y-47502125D01*
X123855764Y-47469034D01*
X123848000Y-47430000D01*
X123848000Y-46030000D01*
X123855764Y-45990966D01*
X123877875Y-45957875D01*
X123910966Y-45935764D01*
X123950000Y-45928000D01*
X124950000Y-45928000D01*
X124989034Y-45935764D01*
G37*
G36*
X132519134Y-45948806D02*
G01*
X132535355Y-45959645D01*
X132546194Y-45975866D01*
X132550000Y-45995000D01*
X132550000Y-47085000D01*
X132546194Y-47104134D01*
X132535355Y-47120355D01*
X132519134Y-47131194D01*
X132500000Y-47135000D01*
X132200000Y-47135000D01*
X132180866Y-47131194D01*
X132164645Y-47120355D01*
X132153806Y-47104134D01*
X132150000Y-47085000D01*
X132150000Y-45995000D01*
X132153806Y-45975866D01*
X132164645Y-45959645D01*
X132180866Y-45948806D01*
X132200000Y-45945000D01*
X132500000Y-45945000D01*
X132519134Y-45948806D01*
G37*
G36*
X133169134Y-45948806D02*
G01*
X133185355Y-45959645D01*
X133196194Y-45975866D01*
X133200000Y-45995000D01*
X133200000Y-47085000D01*
X133196194Y-47104134D01*
X133185355Y-47120355D01*
X133169134Y-47131194D01*
X133150000Y-47135000D01*
X132850000Y-47135000D01*
X132830866Y-47131194D01*
X132814645Y-47120355D01*
X132803806Y-47104134D01*
X132800000Y-47085000D01*
X132800000Y-45995000D01*
X132803806Y-45975866D01*
X132814645Y-45959645D01*
X132830866Y-45948806D01*
X132850000Y-45945000D01*
X133150000Y-45945000D01*
X133169134Y-45948806D01*
G37*
G36*
X133819134Y-45948806D02*
G01*
X133835355Y-45959645D01*
X133846194Y-45975866D01*
X133850000Y-45995000D01*
X133850000Y-47085000D01*
X133846194Y-47104134D01*
X133835355Y-47120355D01*
X133819134Y-47131194D01*
X133800000Y-47135000D01*
X133500000Y-47135000D01*
X133480866Y-47131194D01*
X133464645Y-47120355D01*
X133453806Y-47104134D01*
X133450000Y-47085000D01*
X133450000Y-45995000D01*
X133453806Y-45975866D01*
X133464645Y-45959645D01*
X133480866Y-45948806D01*
X133500000Y-45945000D01*
X133800000Y-45945000D01*
X133819134Y-45948806D01*
G37*
G36*
X129667735Y-46161473D02*
G01*
X129725158Y-46199842D01*
X129763527Y-46257265D01*
X129777000Y-46325000D01*
X129777000Y-46775000D01*
X129763527Y-46842735D01*
X129725158Y-46900158D01*
X129667735Y-46938527D01*
X129600000Y-46952000D01*
X128520000Y-46952000D01*
X128452265Y-46938527D01*
X128394842Y-46900158D01*
X128356473Y-46842735D01*
X128343000Y-46775000D01*
X128343000Y-46325000D01*
X128356473Y-46257265D01*
X128394842Y-46199842D01*
X128452265Y-46161473D01*
X128520000Y-46148000D01*
X129600000Y-46148000D01*
X129667735Y-46161473D01*
G37*
G36*
X118657403Y-46311418D02*
G01*
X118706066Y-46343934D01*
X118738582Y-46392597D01*
X118750000Y-46450000D01*
X118750000Y-46750000D01*
X118738582Y-46807403D01*
X118706066Y-46856066D01*
X118657403Y-46888582D01*
X118600000Y-46900000D01*
X117425000Y-46900000D01*
X117367597Y-46888582D01*
X117318934Y-46856066D01*
X117286418Y-46807403D01*
X117275000Y-46750000D01*
X117275000Y-46450000D01*
X117286418Y-46392597D01*
X117318934Y-46343934D01*
X117367597Y-46311418D01*
X117425000Y-46300000D01*
X118600000Y-46300000D01*
X118657403Y-46311418D01*
G37*
%LPD*%
M02*
