M48
; DRILL file {KiCad 9.0.7} date 2026-04-25T22:42:26-0700
; FORMAT={-:-/ absolute / inch / decimal}
; #@! TF.CreationDate,2026-04-25T22:42:26-07:00
; #@! TF.GenerationSoftware,Kicad,Pcbnew,9.0.7
; #@! TF.FileFunction,Plated,1,4,PTH
FMAT,2
INCH
; #@! TA.AperFunction,Plated,PTH,ViaDrill
T1C0.0118
; #@! TA.AperFunction,Plated,PTH,ComponentDrill
T2C0.0394
; #@! TA.AperFunction,Plated,PTH,ComponentDrill
T3C0.0866
%
G90
G05
T1
X4.2803Y-2.4465
X4.2835Y-2.1929
X4.2866Y-2.4984
X4.2941Y-2.0283
X4.3236Y-2.5142
X4.328Y-2.4615
X4.4185Y-2.5875
X4.435Y-2.6398
X4.4433Y-2.3094
X4.4642Y-2.5512
X4.4903Y-3.1977
X4.4903Y-3.2292
X4.5268Y-2.5665
X4.5285Y-2.7392
X4.5305Y-2.6742
X4.5319Y-2.6185
X4.539Y-2.3114
X4.548Y-2.4689
X4.5492Y-2.924
X4.5827Y-3.4183
X4.5864Y-3.3525
X4.5906Y-1.8307
X4.6024Y-2.002
X4.6526Y-2.9852
X4.6827Y-2.6504
X4.7392Y-2.4793
X4.7825Y-2.9774
X4.7864Y-2.8337
X4.8602Y-3.4016
X4.8622Y-3.252
X4.8878Y-3.4016
X4.8878Y-3.4291
X4.9016Y-2.0472
X4.9087Y-1.7846
X4.9291Y-3.252
X4.9311Y-3.4016
X4.9311Y-3.4291
X4.94Y-2.3612
X4.94Y-2.5738
X4.9419Y-2.812
X4.9419Y-2.9085
X4.9587Y-3.4016
X4.9587Y-3.4291
X4.9724Y-3.7953
X4.9862Y-3.4016
X4.9862Y-3.4291
X4.9911Y-2.3612
X4.9911Y-2.5778
X4.9911Y-2.814
X4.9911Y-2.9085
X5.0Y-1.9488
X5.0Y-2.0472
X5.0404Y-2.3593
X5.0404Y-2.814
X5.0423Y-2.5758
X5.0423Y-2.9085
X5.1161Y-3.5039
X5.127Y-2.8317
X5.1319Y-2.8957
X5.1516Y-1.7984
X5.1516Y-1.8535
X5.1535Y-1.9449
X5.1969Y-2.1654
X5.215Y-2.463
X5.2175Y-2.6407
X5.2559Y-1.9488
X5.2667Y-2.6683
X5.2921Y-3.8138
X5.2933Y-3.6299
X5.3209Y-1.8327
X5.3366Y-2.0433
X5.3543Y-1.9291
X5.3671Y-3.5758
X5.3947Y-2.4833
X5.4065Y-2.7972
X5.436Y-3.5758
X5.4449Y-3.3445
X5.4705Y-2.8543
X5.4813Y-2.9754
X5.4945Y-2.4236
X5.5421Y-2.3835
X5.5955Y-2.9409
X5.622Y-2.7657
T2
X4.3177Y-2.7909
X4.3177Y-2.8909
X4.3177Y-2.9909
X4.3177Y-3.0909
X4.3177Y-3.1909
X4.3177Y-3.2909
X4.3177Y-3.3909
X4.3177Y-3.4909
X4.3177Y-3.5909
X4.3177Y-3.6909
X4.7882Y-3.8028
X5.1819Y-3.8028
T3
X4.3537Y-3.849
X4.3695Y-1.8963
X5.6781Y-1.8939
X5.6909Y-3.8494
M30
