%TF.GenerationSoftware,KiCad,Pcbnew,9.0.7*%
%TF.CreationDate,2026-04-27T03:30:11-07:00*%
%TF.ProjectId,Secondary_Board,5365636f-6e64-4617-9279-5f426f617264,rev?*%
%TF.SameCoordinates,Original*%
%TF.FileFunction,Soldermask,Top*%
%TF.FilePolarity,Negative*%
%FSLAX46Y46*%
G04 Gerber Fmt 4.6, Leading zero omitted, Abs format (unit mm)*
G04 Created by KiCad (PCBNEW 9.0.7) date 2026-04-27 03:30:11*
%MOMM*%
%LPD*%
G01*
G04 APERTURE LIST*
G04 APERTURE END LIST*
G36*
X144920672Y-95911508D02*
G01*
X145160735Y-95975833D01*
X145390349Y-96070942D01*
X145605583Y-96195208D01*
X145802757Y-96346504D01*
X145978496Y-96522243D01*
X146129792Y-96719417D01*
X146254058Y-96934651D01*
X146349167Y-97164265D01*
X146413492Y-97404328D01*
X146445932Y-97650734D01*
X146445932Y-97899266D01*
X146413492Y-98145672D01*
X146349167Y-98385735D01*
X146254058Y-98615349D01*
X146129792Y-98830583D01*
X145978496Y-99027757D01*
X145802757Y-99203496D01*
X145605583Y-99354792D01*
X145390349Y-99479058D01*
X145160735Y-99574167D01*
X144920672Y-99638492D01*
X144674266Y-99670932D01*
X144425734Y-99670932D01*
X144179328Y-99638492D01*
X143939265Y-99574167D01*
X143709651Y-99479058D01*
X143494417Y-99354792D01*
X143297243Y-99203496D01*
X143121504Y-99027757D01*
X142970208Y-98830583D01*
X142845942Y-98615349D01*
X142750833Y-98385735D01*
X142686508Y-98145672D01*
X142654068Y-97899266D01*
X142654068Y-97650734D01*
X142686508Y-97404328D01*
X142750833Y-97164265D01*
X142845942Y-96934651D01*
X142970208Y-96719417D01*
X143121504Y-96522243D01*
X143297243Y-96346504D01*
X143494417Y-96195208D01*
X143709651Y-96070942D01*
X143939265Y-95975833D01*
X144179328Y-95911508D01*
X144425734Y-95879068D01*
X144674266Y-95879068D01*
X144920672Y-95911508D01*
G37*
G36*
X110955672Y-95901520D02*
G01*
X111195735Y-95965845D01*
X111425349Y-96060954D01*
X111640583Y-96185220D01*
X111837757Y-96336516D01*
X112013496Y-96512255D01*
X112164792Y-96709429D01*
X112289058Y-96924663D01*
X112384167Y-97154277D01*
X112448492Y-97394340D01*
X112480932Y-97640746D01*
X112480932Y-97889278D01*
X112448492Y-98135684D01*
X112384167Y-98375747D01*
X112289058Y-98605361D01*
X112164792Y-98820595D01*
X112013496Y-99017769D01*
X111837757Y-99193508D01*
X111640583Y-99344804D01*
X111425349Y-99469070D01*
X111195735Y-99564179D01*
X110955672Y-99628504D01*
X110709266Y-99660944D01*
X110460734Y-99660944D01*
X110214328Y-99628504D01*
X109974265Y-99564179D01*
X109744651Y-99469070D01*
X109529417Y-99344804D01*
X109332243Y-99193508D01*
X109156504Y-99017769D01*
X109005208Y-98820595D01*
X108880942Y-98605361D01*
X108785833Y-98375747D01*
X108721508Y-98135684D01*
X108689068Y-97889278D01*
X108689068Y-97640746D01*
X108721508Y-97394340D01*
X108785833Y-97154277D01*
X108880942Y-96924663D01*
X109005208Y-96709429D01*
X109156504Y-96512255D01*
X109332243Y-96336516D01*
X109529417Y-96185220D01*
X109744651Y-96060954D01*
X109974265Y-95965845D01*
X110214328Y-95901520D01*
X110460734Y-95869080D01*
X110709266Y-95869080D01*
X110955672Y-95901520D01*
G37*
G36*
X128406000Y-96086000D02*
G01*
X127644000Y-96086000D01*
X127644000Y-94866800D01*
X128406000Y-94866800D01*
X128406000Y-96086000D01*
G37*
G36*
X110520000Y-94600000D02*
G01*
X108820000Y-94600000D01*
X108820000Y-92900000D01*
X110520000Y-92900000D01*
X110520000Y-94600000D01*
G37*
G36*
X128406000Y-92733200D02*
G01*
X127644000Y-92733200D01*
X127644000Y-91514000D01*
X128406000Y-91514000D01*
X128406000Y-92733200D01*
G37*
G36*
X109916742Y-90396601D02*
G01*
X110070687Y-90460367D01*
X110209234Y-90552941D01*
X110327059Y-90670766D01*
X110419633Y-90809313D01*
X110483399Y-90963258D01*
X110515907Y-91126685D01*
X110515907Y-91293315D01*
X110483399Y-91456742D01*
X110419633Y-91610687D01*
X110327059Y-91749234D01*
X110209234Y-91867059D01*
X110070687Y-91959633D01*
X109916742Y-92023399D01*
X109753315Y-92055907D01*
X109586685Y-92055907D01*
X109423258Y-92023399D01*
X109269313Y-91959633D01*
X109130766Y-91867059D01*
X109012941Y-91749234D01*
X108920367Y-91610687D01*
X108856601Y-91456742D01*
X108824093Y-91293315D01*
X108824093Y-91126685D01*
X108856601Y-90963258D01*
X108920367Y-90809313D01*
X109012941Y-90670766D01*
X109130766Y-90552941D01*
X109269313Y-90460367D01*
X109423258Y-90396601D01*
X109586685Y-90364093D01*
X109753315Y-90364093D01*
X109916742Y-90396601D01*
G37*
G36*
X142894900Y-91950900D02*
G01*
X141905100Y-91950900D01*
X141905100Y-91142900D01*
X142894900Y-91142900D01*
X142894900Y-91950900D01*
G37*
G36*
X131857100Y-91894900D02*
G01*
X131049100Y-91894900D01*
X131049100Y-90905100D01*
X131857100Y-90905100D01*
X131857100Y-91894900D01*
G37*
G36*
X133350900Y-91894900D02*
G01*
X132542900Y-91894900D01*
X132542900Y-90905100D01*
X133350900Y-90905100D01*
X133350900Y-91894900D01*
G37*
G36*
X119214034Y-87835764D02*
G01*
X119247125Y-87857875D01*
X119269236Y-87890966D01*
X119277000Y-87930000D01*
X119277000Y-91730000D01*
X119269236Y-91769034D01*
X119247125Y-91802125D01*
X119214034Y-91824236D01*
X119175000Y-91832000D01*
X117975000Y-91832000D01*
X117935966Y-91824236D01*
X117902875Y-91802125D01*
X117880764Y-91769034D01*
X117873000Y-91730000D01*
X117873000Y-87930000D01*
X117880764Y-87890966D01*
X117902875Y-87857875D01*
X117935966Y-87835764D01*
X117975000Y-87828000D01*
X119175000Y-87828000D01*
X119214034Y-87835764D01*
G37*
G36*
X121664034Y-87835764D02*
G01*
X121697125Y-87857875D01*
X121719236Y-87890966D01*
X121727000Y-87930000D01*
X121727000Y-91730000D01*
X121719236Y-91769034D01*
X121697125Y-91802125D01*
X121664034Y-91824236D01*
X121625000Y-91832000D01*
X120425000Y-91832000D01*
X120385966Y-91824236D01*
X120352875Y-91802125D01*
X120330764Y-91769034D01*
X120323000Y-91730000D01*
X120323000Y-87930000D01*
X120330764Y-87890966D01*
X120352875Y-87857875D01*
X120385966Y-87835764D01*
X120425000Y-87828000D01*
X121625000Y-87828000D01*
X121664034Y-87835764D01*
G37*
G36*
X142894900Y-90457100D02*
G01*
X141905100Y-90457100D01*
X141905100Y-89649100D01*
X142894900Y-89649100D01*
X142894900Y-90457100D01*
G37*
G36*
X126907100Y-90394900D02*
G01*
X126099100Y-90394900D01*
X126099100Y-89405100D01*
X126907100Y-89405100D01*
X126907100Y-90394900D01*
G37*
G36*
X128400900Y-90394900D02*
G01*
X127592900Y-90394900D01*
X127592900Y-89405100D01*
X128400900Y-89405100D01*
X128400900Y-90394900D01*
G37*
G36*
X146086742Y-87966601D02*
G01*
X146240687Y-88030367D01*
X146379234Y-88122941D01*
X146497059Y-88240766D01*
X146589633Y-88379313D01*
X146653399Y-88533258D01*
X146685907Y-88696685D01*
X146685907Y-88863315D01*
X146653399Y-89026742D01*
X146589633Y-89180687D01*
X146497059Y-89319234D01*
X146379234Y-89437059D01*
X146240687Y-89529633D01*
X146086742Y-89593399D01*
X145923315Y-89625907D01*
X145756685Y-89625907D01*
X145593258Y-89593399D01*
X145439313Y-89529633D01*
X145300766Y-89437059D01*
X145182941Y-89319234D01*
X145090367Y-89180687D01*
X145026601Y-89026742D01*
X144994093Y-88863315D01*
X144994093Y-88696685D01*
X145026601Y-88533258D01*
X145090367Y-88379313D01*
X145182941Y-88240766D01*
X145300766Y-88122941D01*
X145439313Y-88030367D01*
X145593258Y-87966601D01*
X145756685Y-87934093D01*
X145923315Y-87934093D01*
X146086742Y-87966601D01*
G37*
G36*
X131804000Y-89594900D02*
G01*
X130996000Y-89594900D01*
X130996000Y-88605100D01*
X131804000Y-88605100D01*
X131804000Y-89594900D01*
G37*
G36*
X133297800Y-89594900D02*
G01*
X132489800Y-89594900D01*
X132489800Y-88605100D01*
X133297800Y-88605100D01*
X133297800Y-89594900D01*
G37*
G36*
X109916742Y-87856601D02*
G01*
X110070687Y-87920367D01*
X110209234Y-88012941D01*
X110327059Y-88130766D01*
X110419633Y-88269313D01*
X110483399Y-88423258D01*
X110515907Y-88586685D01*
X110515907Y-88753315D01*
X110483399Y-88916742D01*
X110419633Y-89070687D01*
X110327059Y-89209234D01*
X110209234Y-89327059D01*
X110070687Y-89419633D01*
X109916742Y-89483399D01*
X109753315Y-89515907D01*
X109586685Y-89515907D01*
X109423258Y-89483399D01*
X109269313Y-89419633D01*
X109130766Y-89327059D01*
X109012941Y-89209234D01*
X108920367Y-89070687D01*
X108856601Y-88916742D01*
X108824093Y-88753315D01*
X108824093Y-88586685D01*
X108856601Y-88423258D01*
X108920367Y-88269313D01*
X109012941Y-88130766D01*
X109130766Y-88012941D01*
X109269313Y-87920367D01*
X109423258Y-87856601D01*
X109586685Y-87824093D01*
X109753315Y-87824093D01*
X109916742Y-87856601D01*
G37*
G36*
X136561104Y-88117127D02*
G01*
X136634099Y-88165901D01*
X136682873Y-88238896D01*
X136700000Y-88325000D01*
X136700000Y-88775000D01*
X136682873Y-88861104D01*
X136634099Y-88934099D01*
X136561104Y-88982873D01*
X136475000Y-89000000D01*
X135975000Y-89000000D01*
X135888896Y-88982873D01*
X135815901Y-88934099D01*
X135767127Y-88861104D01*
X135750000Y-88775000D01*
X135750000Y-88325000D01*
X135767127Y-88238896D01*
X135815901Y-88165901D01*
X135888896Y-88117127D01*
X135975000Y-88100000D01*
X136475000Y-88100000D01*
X136561104Y-88117127D01*
G37*
G36*
X138311104Y-88117127D02*
G01*
X138384099Y-88165901D01*
X138432873Y-88238896D01*
X138450000Y-88325000D01*
X138450000Y-88775000D01*
X138432873Y-88861104D01*
X138384099Y-88934099D01*
X138311104Y-88982873D01*
X138225000Y-89000000D01*
X137725000Y-89000000D01*
X137638896Y-88982873D01*
X137565901Y-88934099D01*
X137517127Y-88861104D01*
X137500000Y-88775000D01*
X137500000Y-88325000D01*
X137517127Y-88238896D01*
X137565901Y-88165901D01*
X137638896Y-88117127D01*
X137725000Y-88100000D01*
X138225000Y-88100000D01*
X138311104Y-88117127D01*
G37*
G36*
X132536104Y-86642127D02*
G01*
X132609099Y-86690901D01*
X132657873Y-86763896D01*
X132675000Y-86850000D01*
X132675000Y-87300000D01*
X132657873Y-87386104D01*
X132609099Y-87459099D01*
X132536104Y-87507873D01*
X132450000Y-87525000D01*
X131950000Y-87525000D01*
X131863896Y-87507873D01*
X131790901Y-87459099D01*
X131742127Y-87386104D01*
X131725000Y-87300000D01*
X131725000Y-86850000D01*
X131742127Y-86763896D01*
X131790901Y-86690901D01*
X131863896Y-86642127D01*
X131950000Y-86625000D01*
X132450000Y-86625000D01*
X132536104Y-86642127D01*
G37*
G36*
X136561104Y-86567127D02*
G01*
X136634099Y-86615901D01*
X136682873Y-86688896D01*
X136700000Y-86775000D01*
X136700000Y-87225000D01*
X136682873Y-87311104D01*
X136634099Y-87384099D01*
X136561104Y-87432873D01*
X136475000Y-87450000D01*
X135975000Y-87450000D01*
X135888896Y-87432873D01*
X135815901Y-87384099D01*
X135767127Y-87311104D01*
X135750000Y-87225000D01*
X135750000Y-86775000D01*
X135767127Y-86688896D01*
X135815901Y-86615901D01*
X135888896Y-86567127D01*
X135975000Y-86550000D01*
X136475000Y-86550000D01*
X136561104Y-86567127D01*
G37*
G36*
X138311104Y-86567127D02*
G01*
X138384099Y-86615901D01*
X138432873Y-86688896D01*
X138450000Y-86775000D01*
X138450000Y-87225000D01*
X138432873Y-87311104D01*
X138384099Y-87384099D01*
X138311104Y-87432873D01*
X138225000Y-87450000D01*
X137725000Y-87450000D01*
X137638896Y-87432873D01*
X137565901Y-87384099D01*
X137517127Y-87311104D01*
X137500000Y-87225000D01*
X137500000Y-86775000D01*
X137517127Y-86688896D01*
X137565901Y-86615901D01*
X137638896Y-86567127D01*
X137725000Y-86550000D01*
X138225000Y-86550000D01*
X138311104Y-86567127D01*
G37*
G36*
X129352401Y-87449400D02*
G01*
X129047601Y-87449400D01*
X129047601Y-86598500D01*
X129352401Y-86598500D01*
X129352401Y-87449400D01*
G37*
G36*
X130002400Y-87449400D02*
G01*
X129697600Y-87449400D01*
X129697600Y-86598500D01*
X130002400Y-86598500D01*
X130002400Y-87449400D01*
G37*
G36*
X130652399Y-87449400D02*
G01*
X130347599Y-87449400D01*
X130347599Y-86598500D01*
X130652399Y-86598500D01*
X130652399Y-87449400D01*
G37*
G36*
X146086742Y-85426601D02*
G01*
X146240687Y-85490367D01*
X146379234Y-85582941D01*
X146497059Y-85700766D01*
X146589633Y-85839313D01*
X146653399Y-85993258D01*
X146685907Y-86156685D01*
X146685907Y-86323315D01*
X146653399Y-86486742D01*
X146589633Y-86640687D01*
X146497059Y-86779234D01*
X146379234Y-86897059D01*
X146240687Y-86989633D01*
X146086742Y-87053399D01*
X145923315Y-87085907D01*
X145756685Y-87085907D01*
X145593258Y-87053399D01*
X145439313Y-86989633D01*
X145300766Y-86897059D01*
X145182941Y-86779234D01*
X145090367Y-86640687D01*
X145026601Y-86486742D01*
X144994093Y-86323315D01*
X144994093Y-86156685D01*
X145026601Y-85993258D01*
X145090367Y-85839313D01*
X145182941Y-85700766D01*
X145300766Y-85582941D01*
X145439313Y-85490367D01*
X145593258Y-85426601D01*
X145756685Y-85394093D01*
X145923315Y-85394093D01*
X146086742Y-85426601D01*
G37*
G36*
X117829904Y-86065227D02*
G01*
X117902899Y-86114001D01*
X117951673Y-86186996D01*
X117968800Y-86273100D01*
X117968800Y-86773100D01*
X117951673Y-86859204D01*
X117902899Y-86932199D01*
X117829904Y-86980973D01*
X117743800Y-86998100D01*
X117293800Y-86998100D01*
X117207696Y-86980973D01*
X117134701Y-86932199D01*
X117085927Y-86859204D01*
X117068800Y-86773100D01*
X117068800Y-86273100D01*
X117085927Y-86186996D01*
X117134701Y-86114001D01*
X117207696Y-86065227D01*
X117293800Y-86048100D01*
X117743800Y-86048100D01*
X117829904Y-86065227D01*
G37*
G36*
X119379904Y-86065227D02*
G01*
X119452899Y-86114001D01*
X119501673Y-86186996D01*
X119518800Y-86273100D01*
X119518800Y-86773100D01*
X119501673Y-86859204D01*
X119452899Y-86932199D01*
X119379904Y-86980973D01*
X119293800Y-86998100D01*
X118843800Y-86998100D01*
X118757696Y-86980973D01*
X118684701Y-86932199D01*
X118635927Y-86859204D01*
X118618800Y-86773100D01*
X118618800Y-86273100D01*
X118635927Y-86186996D01*
X118684701Y-86114001D01*
X118757696Y-86065227D01*
X118843800Y-86048100D01*
X119293800Y-86048100D01*
X119379904Y-86065227D01*
G37*
G36*
X109916742Y-85316601D02*
G01*
X110070687Y-85380367D01*
X110209234Y-85472941D01*
X110327059Y-85590766D01*
X110419633Y-85729313D01*
X110483399Y-85883258D01*
X110515907Y-86046685D01*
X110515907Y-86213315D01*
X110483399Y-86376742D01*
X110419633Y-86530687D01*
X110327059Y-86669234D01*
X110209234Y-86787059D01*
X110070687Y-86879633D01*
X109916742Y-86943399D01*
X109753315Y-86975907D01*
X109586685Y-86975907D01*
X109423258Y-86943399D01*
X109269313Y-86879633D01*
X109130766Y-86787059D01*
X109012941Y-86669234D01*
X108920367Y-86530687D01*
X108856601Y-86376742D01*
X108824093Y-86213315D01*
X108824093Y-86046685D01*
X108856601Y-85883258D01*
X108920367Y-85729313D01*
X109012941Y-85590766D01*
X109130766Y-85472941D01*
X109269313Y-85380367D01*
X109423258Y-85316601D01*
X109586685Y-85284093D01*
X109753315Y-85284093D01*
X109916742Y-85316601D01*
G37*
G36*
X132536104Y-85092127D02*
G01*
X132609099Y-85140901D01*
X132657873Y-85213896D01*
X132675000Y-85300000D01*
X132675000Y-85750000D01*
X132657873Y-85836104D01*
X132609099Y-85909099D01*
X132536104Y-85957873D01*
X132450000Y-85975000D01*
X131950000Y-85975000D01*
X131863896Y-85957873D01*
X131790901Y-85909099D01*
X131742127Y-85836104D01*
X131725000Y-85750000D01*
X131725000Y-85300000D01*
X131742127Y-85213896D01*
X131790901Y-85140901D01*
X131863896Y-85092127D01*
X131950000Y-85075000D01*
X132450000Y-85075000D01*
X132536104Y-85092127D01*
G37*
G36*
X134915200Y-85381900D02*
G01*
X133594400Y-85381900D01*
X133594400Y-84823100D01*
X134915200Y-84823100D01*
X134915200Y-85381900D01*
G37*
G36*
X117829904Y-84395227D02*
G01*
X117902899Y-84444001D01*
X117951673Y-84516996D01*
X117968800Y-84603100D01*
X117968800Y-85103100D01*
X117951673Y-85189204D01*
X117902899Y-85262199D01*
X117829904Y-85310973D01*
X117743800Y-85328100D01*
X117293800Y-85328100D01*
X117207696Y-85310973D01*
X117134701Y-85262199D01*
X117085927Y-85189204D01*
X117068800Y-85103100D01*
X117068800Y-84603100D01*
X117085927Y-84516996D01*
X117134701Y-84444001D01*
X117207696Y-84395227D01*
X117293800Y-84378100D01*
X117743800Y-84378100D01*
X117829904Y-84395227D01*
G37*
G36*
X119379904Y-84395227D02*
G01*
X119452899Y-84444001D01*
X119501673Y-84516996D01*
X119518800Y-84603100D01*
X119518800Y-85103100D01*
X119501673Y-85189204D01*
X119452899Y-85262199D01*
X119379904Y-85310973D01*
X119293800Y-85328100D01*
X118843800Y-85328100D01*
X118757696Y-85310973D01*
X118684701Y-85262199D01*
X118635927Y-85189204D01*
X118618800Y-85103100D01*
X118618800Y-84603100D01*
X118635927Y-84516996D01*
X118684701Y-84444001D01*
X118757696Y-84395227D01*
X118843800Y-84378100D01*
X119293800Y-84378100D01*
X119379904Y-84395227D01*
G37*
G36*
X129352401Y-85201500D02*
G01*
X129047601Y-85201500D01*
X129047601Y-84350600D01*
X129352401Y-84350600D01*
X129352401Y-85201500D01*
G37*
G36*
X130652399Y-85201500D02*
G01*
X130347599Y-85201500D01*
X130347599Y-84350600D01*
X130652399Y-84350600D01*
X130652399Y-85201500D01*
G37*
G36*
X123786104Y-84042127D02*
G01*
X123859099Y-84090901D01*
X123907873Y-84163896D01*
X123925000Y-84250000D01*
X123925000Y-84700000D01*
X123907873Y-84786104D01*
X123859099Y-84859099D01*
X123786104Y-84907873D01*
X123700000Y-84925000D01*
X123200000Y-84925000D01*
X123113896Y-84907873D01*
X123040901Y-84859099D01*
X122992127Y-84786104D01*
X122975000Y-84700000D01*
X122975000Y-84250000D01*
X122992127Y-84163896D01*
X123040901Y-84090901D01*
X123113896Y-84042127D01*
X123200000Y-84025000D01*
X123700000Y-84025000D01*
X123786104Y-84042127D01*
G37*
G36*
X125486104Y-84017127D02*
G01*
X125559099Y-84065901D01*
X125607873Y-84138896D01*
X125625000Y-84225000D01*
X125625000Y-84675000D01*
X125607873Y-84761104D01*
X125559099Y-84834099D01*
X125486104Y-84882873D01*
X125400000Y-84900000D01*
X124900000Y-84900000D01*
X124813896Y-84882873D01*
X124740901Y-84834099D01*
X124692127Y-84761104D01*
X124675000Y-84675000D01*
X124675000Y-84225000D01*
X124692127Y-84138896D01*
X124740901Y-84065901D01*
X124813896Y-84017127D01*
X124900000Y-84000000D01*
X125400000Y-84000000D01*
X125486104Y-84017127D01*
G37*
G36*
X146690000Y-84550000D02*
G01*
X144990000Y-84550000D01*
X144990000Y-82850000D01*
X146690000Y-82850000D01*
X146690000Y-84550000D01*
G37*
G36*
X109916742Y-82776601D02*
G01*
X110070687Y-82840367D01*
X110209234Y-82932941D01*
X110327059Y-83050766D01*
X110419633Y-83189313D01*
X110483399Y-83343258D01*
X110515907Y-83506685D01*
X110515907Y-83673315D01*
X110483399Y-83836742D01*
X110419633Y-83990687D01*
X110327059Y-84129234D01*
X110209234Y-84247059D01*
X110070687Y-84339633D01*
X109916742Y-84403399D01*
X109753315Y-84435907D01*
X109586685Y-84435907D01*
X109423258Y-84403399D01*
X109269313Y-84339633D01*
X109130766Y-84247059D01*
X109012941Y-84129234D01*
X108920367Y-83990687D01*
X108856601Y-83836742D01*
X108824093Y-83673315D01*
X108824093Y-83506685D01*
X108856601Y-83343258D01*
X108920367Y-83189313D01*
X109012941Y-83050766D01*
X109130766Y-82932941D01*
X109269313Y-82840367D01*
X109423258Y-82776601D01*
X109586685Y-82744093D01*
X109753315Y-82744093D01*
X109916742Y-82776601D01*
G37*
G36*
X136707650Y-84429400D02*
G01*
X135386850Y-84429400D01*
X135386850Y-83870600D01*
X136707650Y-83870600D01*
X136707650Y-84429400D01*
G37*
G36*
X120895000Y-84199999D02*
G01*
X120224998Y-84199999D01*
X120224998Y-83899999D01*
X120895000Y-83899999D01*
X120895000Y-84199999D01*
G37*
G36*
X122375002Y-84199999D02*
G01*
X121705000Y-84199999D01*
X121705000Y-83899999D01*
X122375002Y-83899999D01*
X122375002Y-84199999D01*
G37*
G36*
X120895000Y-83699997D02*
G01*
X120224998Y-83699997D01*
X120224998Y-83399997D01*
X120895000Y-83399997D01*
X120895000Y-83699997D01*
G37*
G36*
X122375002Y-83699997D02*
G01*
X121705000Y-83699997D01*
X121705000Y-83399997D01*
X122375002Y-83399997D01*
X122375002Y-83699997D01*
G37*
G36*
X134915200Y-83476900D02*
G01*
X133594400Y-83476900D01*
X133594400Y-82918100D01*
X134915200Y-82918100D01*
X134915200Y-83476900D01*
G37*
G36*
X123786104Y-82492127D02*
G01*
X123859099Y-82540901D01*
X123907873Y-82613896D01*
X123925000Y-82700000D01*
X123925000Y-83150000D01*
X123907873Y-83236104D01*
X123859099Y-83309099D01*
X123786104Y-83357873D01*
X123700000Y-83375000D01*
X123200000Y-83375000D01*
X123113896Y-83357873D01*
X123040901Y-83309099D01*
X122992127Y-83236104D01*
X122975000Y-83150000D01*
X122975000Y-82700000D01*
X122992127Y-82613896D01*
X123040901Y-82540901D01*
X123113896Y-82492127D01*
X123200000Y-82475000D01*
X123700000Y-82475000D01*
X123786104Y-82492127D01*
G37*
G36*
X125486104Y-82467127D02*
G01*
X125559099Y-82515901D01*
X125607873Y-82588896D01*
X125625000Y-82675000D01*
X125625000Y-83125000D01*
X125607873Y-83211104D01*
X125559099Y-83284099D01*
X125486104Y-83332873D01*
X125400000Y-83350000D01*
X124900000Y-83350000D01*
X124813896Y-83332873D01*
X124740901Y-83284099D01*
X124692127Y-83211104D01*
X124675000Y-83125000D01*
X124675000Y-82675000D01*
X124692127Y-82588896D01*
X124740901Y-82515901D01*
X124813896Y-82467127D01*
X124900000Y-82450000D01*
X125400000Y-82450000D01*
X125486104Y-82467127D01*
G37*
G36*
X120895000Y-83199998D02*
G01*
X120224998Y-83199998D01*
X120224998Y-82899998D01*
X120895000Y-82899998D01*
X120895000Y-83199998D01*
G37*
G36*
X122375002Y-83199998D02*
G01*
X121705000Y-83199998D01*
X121705000Y-82899998D01*
X122375002Y-82899998D01*
X122375002Y-83199998D01*
G37*
G36*
X130957100Y-83194900D02*
G01*
X130149100Y-83194900D01*
X130149100Y-82205100D01*
X130957100Y-82205100D01*
X130957100Y-83194900D01*
G37*
G36*
X132450900Y-83194900D02*
G01*
X131642900Y-83194900D01*
X131642900Y-82205100D01*
X132450900Y-82205100D01*
X132450900Y-83194900D01*
G37*
G36*
X116774900Y-82634000D02*
G01*
X115785100Y-82634000D01*
X115785100Y-81826000D01*
X116774900Y-81826000D01*
X116774900Y-82634000D01*
G37*
G36*
X119074900Y-82634000D02*
G01*
X118085100Y-82634000D01*
X118085100Y-81826000D01*
X119074900Y-81826000D01*
X119074900Y-82634000D01*
G37*
G36*
X109916742Y-80236601D02*
G01*
X110070687Y-80300367D01*
X110209234Y-80392941D01*
X110327059Y-80510766D01*
X110419633Y-80649313D01*
X110483399Y-80803258D01*
X110515907Y-80966685D01*
X110515907Y-81133315D01*
X110483399Y-81296742D01*
X110419633Y-81450687D01*
X110327059Y-81589234D01*
X110209234Y-81707059D01*
X110070687Y-81799633D01*
X109916742Y-81863399D01*
X109753315Y-81895907D01*
X109586685Y-81895907D01*
X109423258Y-81863399D01*
X109269313Y-81799633D01*
X109130766Y-81707059D01*
X109012941Y-81589234D01*
X108920367Y-81450687D01*
X108856601Y-81296742D01*
X108824093Y-81133315D01*
X108824093Y-80966685D01*
X108856601Y-80803258D01*
X108920367Y-80649313D01*
X109012941Y-80510766D01*
X109130766Y-80392941D01*
X109269313Y-80300367D01*
X109423258Y-80236601D01*
X109586685Y-80204093D01*
X109753315Y-80204093D01*
X109916742Y-80236601D01*
G37*
G36*
X116774900Y-81140200D02*
G01*
X115785100Y-81140200D01*
X115785100Y-80332200D01*
X116774900Y-80332200D01*
X116774900Y-81140200D01*
G37*
G36*
X119074900Y-81140200D02*
G01*
X118085100Y-81140200D01*
X118085100Y-80332200D01*
X119074900Y-80332200D01*
X119074900Y-81140200D01*
G37*
G36*
X109916742Y-77696601D02*
G01*
X110070687Y-77760367D01*
X110209234Y-77852941D01*
X110327059Y-77970766D01*
X110419633Y-78109313D01*
X110483399Y-78263258D01*
X110515907Y-78426685D01*
X110515907Y-78593315D01*
X110483399Y-78756742D01*
X110419633Y-78910687D01*
X110327059Y-79049234D01*
X110209234Y-79167059D01*
X110070687Y-79259633D01*
X109916742Y-79323399D01*
X109753315Y-79355907D01*
X109586685Y-79355907D01*
X109423258Y-79323399D01*
X109269313Y-79259633D01*
X109130766Y-79167059D01*
X109012941Y-79049234D01*
X108920367Y-78910687D01*
X108856601Y-78756742D01*
X108824093Y-78593315D01*
X108824093Y-78426685D01*
X108856601Y-78263258D01*
X108920367Y-78109313D01*
X109012941Y-77970766D01*
X109130766Y-77852941D01*
X109269313Y-77760367D01*
X109423258Y-77696601D01*
X109586685Y-77664093D01*
X109753315Y-77664093D01*
X109916742Y-77696601D01*
G37*
G36*
X109916742Y-75156601D02*
G01*
X110070687Y-75220367D01*
X110209234Y-75312941D01*
X110327059Y-75430766D01*
X110419633Y-75569313D01*
X110483399Y-75723258D01*
X110515907Y-75886685D01*
X110515907Y-76053315D01*
X110483399Y-76216742D01*
X110419633Y-76370687D01*
X110327059Y-76509234D01*
X110209234Y-76627059D01*
X110070687Y-76719633D01*
X109916742Y-76783399D01*
X109753315Y-76815907D01*
X109586685Y-76815907D01*
X109423258Y-76783399D01*
X109269313Y-76719633D01*
X109130766Y-76627059D01*
X109012941Y-76509234D01*
X108920367Y-76370687D01*
X108856601Y-76216742D01*
X108824093Y-76053315D01*
X108824093Y-75886685D01*
X108856601Y-75723258D01*
X108920367Y-75569313D01*
X109012941Y-75430766D01*
X109130766Y-75312941D01*
X109269313Y-75220367D01*
X109423258Y-75156601D01*
X109586685Y-75124093D01*
X109753315Y-75124093D01*
X109916742Y-75156601D01*
G37*
G36*
X123290000Y-76225500D02*
G01*
X122640000Y-76225500D01*
X122640000Y-74680500D01*
X123290000Y-74680500D01*
X123290000Y-76225500D01*
G37*
G36*
X124560000Y-76225500D02*
G01*
X123910000Y-76225500D01*
X123910000Y-74680500D01*
X124560000Y-74680500D01*
X124560000Y-76225500D01*
G37*
G36*
X125830000Y-76225500D02*
G01*
X125180000Y-76225500D01*
X125180000Y-74680500D01*
X125830000Y-74680500D01*
X125830000Y-76225500D01*
G37*
G36*
X127100000Y-76225500D02*
G01*
X126450000Y-76225500D01*
X126450000Y-74680500D01*
X127100000Y-74680500D01*
X127100000Y-76225500D01*
G37*
G36*
X128370000Y-76225500D02*
G01*
X127720000Y-76225500D01*
X127720000Y-74680500D01*
X128370000Y-74680500D01*
X128370000Y-76225500D01*
G37*
G36*
X129640000Y-76225500D02*
G01*
X128990000Y-76225500D01*
X128990000Y-74680500D01*
X129640000Y-74680500D01*
X129640000Y-76225500D01*
G37*
G36*
X130910000Y-76225500D02*
G01*
X130260000Y-76225500D01*
X130260000Y-74680500D01*
X130910000Y-74680500D01*
X130910000Y-76225500D01*
G37*
G36*
X120469900Y-75975900D02*
G01*
X119480100Y-75975900D01*
X119480100Y-75167900D01*
X120469900Y-75167900D01*
X120469900Y-75975900D01*
G37*
G36*
X138194109Y-75550000D02*
G01*
X137234109Y-75550000D01*
X137234109Y-74700000D01*
X138194109Y-74700000D01*
X138194109Y-75550000D01*
G37*
G36*
X120469900Y-74482100D02*
G01*
X119480100Y-74482100D01*
X119480100Y-73674100D01*
X120469900Y-73674100D01*
X120469900Y-74482100D01*
G37*
G36*
X134025000Y-74322369D02*
G01*
X133575000Y-74322369D01*
X133575000Y-72922369D01*
X134025000Y-72922369D01*
X134025000Y-74322369D01*
G37*
G36*
X134675000Y-74322369D02*
G01*
X134225000Y-74322369D01*
X134225000Y-72922369D01*
X134675000Y-72922369D01*
X134675000Y-74322369D01*
G37*
G36*
X135325000Y-74322369D02*
G01*
X134875000Y-74322369D01*
X134875000Y-72922369D01*
X135325000Y-72922369D01*
X135325000Y-74322369D01*
G37*
G36*
X135975000Y-74322369D02*
G01*
X135525000Y-74322369D01*
X135525000Y-72922369D01*
X135975000Y-72922369D01*
X135975000Y-74322369D01*
G37*
G36*
X109916742Y-72616601D02*
G01*
X110070687Y-72680367D01*
X110209234Y-72772941D01*
X110327059Y-72890766D01*
X110419633Y-73029313D01*
X110483399Y-73183258D01*
X110515907Y-73346685D01*
X110515907Y-73513315D01*
X110483399Y-73676742D01*
X110419633Y-73830687D01*
X110327059Y-73969234D01*
X110209234Y-74087059D01*
X110070687Y-74179633D01*
X109916742Y-74243399D01*
X109753315Y-74275907D01*
X109586685Y-74275907D01*
X109423258Y-74243399D01*
X109269313Y-74179633D01*
X109130766Y-74087059D01*
X109012941Y-73969234D01*
X108920367Y-73830687D01*
X108856601Y-73676742D01*
X108824093Y-73513315D01*
X108824093Y-73346685D01*
X108856601Y-73183258D01*
X108920367Y-73029313D01*
X109012941Y-72890766D01*
X109130766Y-72772941D01*
X109269313Y-72680367D01*
X109423258Y-72616601D01*
X109586685Y-72584093D01*
X109753315Y-72584093D01*
X109916742Y-72616601D01*
G37*
G36*
X138194109Y-73950000D02*
G01*
X137234109Y-73950000D01*
X137234109Y-73100000D01*
X138194109Y-73100000D01*
X138194109Y-73950000D01*
G37*
G36*
X120469900Y-71922800D02*
G01*
X119480100Y-71922800D01*
X119480100Y-71114800D01*
X120469900Y-71114800D01*
X120469900Y-71922800D01*
G37*
G36*
X109916742Y-70076601D02*
G01*
X110070687Y-70140367D01*
X110209234Y-70232941D01*
X110327059Y-70350766D01*
X110419633Y-70489313D01*
X110483399Y-70643258D01*
X110515907Y-70806685D01*
X110515907Y-70973315D01*
X110483399Y-71136742D01*
X110419633Y-71290687D01*
X110327059Y-71429234D01*
X110209234Y-71547059D01*
X110070687Y-71639633D01*
X109916742Y-71703399D01*
X109753315Y-71735907D01*
X109586685Y-71735907D01*
X109423258Y-71703399D01*
X109269313Y-71639633D01*
X109130766Y-71547059D01*
X109012941Y-71429234D01*
X108920367Y-71290687D01*
X108856601Y-71136742D01*
X108824093Y-70973315D01*
X108824093Y-70806685D01*
X108856601Y-70643258D01*
X108920367Y-70489313D01*
X109012941Y-70350766D01*
X109130766Y-70232941D01*
X109269313Y-70140367D01*
X109423258Y-70076601D01*
X109586685Y-70044093D01*
X109753315Y-70044093D01*
X109916742Y-70076601D01*
G37*
G36*
X123290000Y-70769500D02*
G01*
X122640000Y-70769500D01*
X122640000Y-69224500D01*
X123290000Y-69224500D01*
X123290000Y-70769500D01*
G37*
G36*
X124560000Y-70769500D02*
G01*
X123910000Y-70769500D01*
X123910000Y-69224500D01*
X124560000Y-69224500D01*
X124560000Y-70769500D01*
G37*
G36*
X125830000Y-70769500D02*
G01*
X125180000Y-70769500D01*
X125180000Y-69224500D01*
X125830000Y-69224500D01*
X125830000Y-70769500D01*
G37*
G36*
X127100000Y-70769500D02*
G01*
X126450000Y-70769500D01*
X126450000Y-69224500D01*
X127100000Y-69224500D01*
X127100000Y-70769500D01*
G37*
G36*
X128370000Y-70769500D02*
G01*
X127720000Y-70769500D01*
X127720000Y-69224500D01*
X128370000Y-69224500D01*
X128370000Y-70769500D01*
G37*
G36*
X129640000Y-70769500D02*
G01*
X128990000Y-70769500D01*
X128990000Y-69224500D01*
X129640000Y-69224500D01*
X129640000Y-70769500D01*
G37*
G36*
X130910000Y-70769500D02*
G01*
X130260000Y-70769500D01*
X130260000Y-69224500D01*
X130910000Y-69224500D01*
X130910000Y-70769500D01*
G37*
G36*
X120469900Y-70429000D02*
G01*
X119480100Y-70429000D01*
X119480100Y-69621000D01*
X120469900Y-69621000D01*
X120469900Y-70429000D01*
G37*
G36*
X138803998Y-70423352D02*
G01*
X138245998Y-70423352D01*
X138245998Y-69425652D01*
X138803998Y-69425652D01*
X138803998Y-70423352D01*
G37*
G36*
X139753999Y-70423352D02*
G01*
X139195999Y-70423352D01*
X139195999Y-69425652D01*
X139753999Y-69425652D01*
X139753999Y-70423352D01*
G37*
G36*
X140704000Y-70423352D02*
G01*
X140146000Y-70423352D01*
X140146000Y-69425652D01*
X140704000Y-69425652D01*
X140704000Y-70423352D01*
G37*
G36*
X117305000Y-69950000D02*
G01*
X116345000Y-69950000D01*
X116345000Y-69100000D01*
X117305000Y-69100000D01*
X117305000Y-69950000D01*
G37*
G36*
X134025000Y-69922369D02*
G01*
X133575000Y-69922369D01*
X133575000Y-68522369D01*
X134025000Y-68522369D01*
X134025000Y-69922369D01*
G37*
G36*
X134675000Y-69922369D02*
G01*
X134225000Y-69922369D01*
X134225000Y-68522369D01*
X134675000Y-68522369D01*
X134675000Y-69922369D01*
G37*
G36*
X135325000Y-69922369D02*
G01*
X134875000Y-69922369D01*
X134875000Y-68522369D01*
X135325000Y-68522369D01*
X135325000Y-69922369D01*
G37*
G36*
X135975000Y-69922369D02*
G01*
X135525000Y-69922369D01*
X135525000Y-68522369D01*
X135975000Y-68522369D01*
X135975000Y-69922369D01*
G37*
G36*
X143316798Y-69125402D02*
G01*
X142326998Y-69125402D01*
X142326998Y-68317402D01*
X143316798Y-68317402D01*
X143316798Y-69125402D01*
G37*
G36*
X117305000Y-68350000D02*
G01*
X116345000Y-68350000D01*
X116345000Y-67500000D01*
X117305000Y-67500000D01*
X117305000Y-68350000D01*
G37*
G36*
X123290000Y-67825500D02*
G01*
X122640000Y-67825500D01*
X122640000Y-66280500D01*
X123290000Y-66280500D01*
X123290000Y-67825500D01*
G37*
G36*
X124560000Y-67825500D02*
G01*
X123910000Y-67825500D01*
X123910000Y-66280500D01*
X124560000Y-66280500D01*
X124560000Y-67825500D01*
G37*
G36*
X125830000Y-67825500D02*
G01*
X125180000Y-67825500D01*
X125180000Y-66280500D01*
X125830000Y-66280500D01*
X125830000Y-67825500D01*
G37*
G36*
X127100000Y-67825500D02*
G01*
X126450000Y-67825500D01*
X126450000Y-66280500D01*
X127100000Y-66280500D01*
X127100000Y-67825500D01*
G37*
G36*
X128370000Y-67825500D02*
G01*
X127720000Y-67825500D01*
X127720000Y-66280500D01*
X128370000Y-66280500D01*
X128370000Y-67825500D01*
G37*
G36*
X129640000Y-67825500D02*
G01*
X128990000Y-67825500D01*
X128990000Y-66280500D01*
X129640000Y-66280500D01*
X129640000Y-67825500D01*
G37*
G36*
X130910000Y-67825500D02*
G01*
X130260000Y-67825500D01*
X130260000Y-66280500D01*
X130910000Y-66280500D01*
X130910000Y-67825500D01*
G37*
G36*
X138803998Y-67723850D02*
G01*
X138245998Y-67723850D01*
X138245998Y-66726150D01*
X138803998Y-66726150D01*
X138803998Y-67723850D01*
G37*
G36*
X139753999Y-67723850D02*
G01*
X139195999Y-67723850D01*
X139195999Y-66726150D01*
X139753999Y-66726150D01*
X139753999Y-67723850D01*
G37*
G36*
X140704000Y-67723850D02*
G01*
X140146000Y-67723850D01*
X140146000Y-66726150D01*
X140704000Y-66726150D01*
X140704000Y-67723850D01*
G37*
G36*
X108960000Y-67690000D02*
G01*
X107960000Y-67690000D01*
X107960000Y-67390000D01*
X108960000Y-67390000D01*
X108960000Y-67690000D01*
G37*
G36*
X143316798Y-67631602D02*
G01*
X142326998Y-67631602D01*
X142326998Y-66823602D01*
X143316798Y-66823602D01*
X143316798Y-67631602D01*
G37*
G36*
X111460000Y-66900012D02*
G01*
X110760000Y-66900012D01*
X110760000Y-66600012D01*
X111460000Y-66600012D01*
X111460000Y-66900012D01*
G37*
G36*
X111460000Y-66400013D02*
G01*
X110760000Y-66400013D01*
X110760000Y-66100013D01*
X111460000Y-66100013D01*
X111460000Y-66400013D01*
G37*
G36*
X133924099Y-66354001D02*
G01*
X132926399Y-66354001D01*
X132926399Y-65796001D01*
X133924099Y-65796001D01*
X133924099Y-66354001D01*
G37*
G36*
X136623601Y-66354001D02*
G01*
X135625901Y-66354001D01*
X135625901Y-65796001D01*
X136623601Y-65796001D01*
X136623601Y-66354001D01*
G37*
G36*
X117399500Y-66353600D02*
G01*
X116396200Y-66353600D01*
X116396200Y-65896400D01*
X117399500Y-65896400D01*
X117399500Y-66353600D01*
G37*
G36*
X120053800Y-66353600D02*
G01*
X119050500Y-66353600D01*
X119050500Y-65896400D01*
X120053800Y-65896400D01*
X120053800Y-66353600D01*
G37*
G36*
X111460000Y-65900014D02*
G01*
X110760000Y-65900014D01*
X110760000Y-65600014D01*
X111460000Y-65600014D01*
X111460000Y-65900014D01*
G37*
G36*
X117399500Y-65703614D02*
G01*
X116396200Y-65703614D01*
X116396200Y-65246414D01*
X117399500Y-65246414D01*
X117399500Y-65703614D01*
G37*
G36*
X120053800Y-65703614D02*
G01*
X119050500Y-65703614D01*
X119050500Y-65246414D01*
X120053800Y-65246414D01*
X120053800Y-65703614D01*
G37*
G36*
X133924099Y-65404000D02*
G01*
X132926399Y-65404000D01*
X132926399Y-64846000D01*
X133924099Y-64846000D01*
X133924099Y-65404000D01*
G37*
G36*
X136623601Y-65404000D02*
G01*
X135625901Y-65404000D01*
X135625901Y-64846000D01*
X136623601Y-64846000D01*
X136623601Y-65404000D01*
G37*
G36*
X111460000Y-65400012D02*
G01*
X110760000Y-65400012D01*
X110760000Y-65100012D01*
X111460000Y-65100012D01*
X111460000Y-65400012D01*
G37*
G36*
X139419900Y-65075900D02*
G01*
X138430100Y-65075900D01*
X138430100Y-64267900D01*
X139419900Y-64267900D01*
X139419900Y-65075900D01*
G37*
G36*
X117399500Y-65053628D02*
G01*
X116396200Y-65053628D01*
X116396200Y-64596428D01*
X117399500Y-64596428D01*
X117399500Y-65053628D01*
G37*
G36*
X120053800Y-65053628D02*
G01*
X119050500Y-65053628D01*
X119050500Y-64596428D01*
X120053800Y-64596428D01*
X120053800Y-65053628D01*
G37*
G36*
X144819900Y-65029000D02*
G01*
X143830100Y-65029000D01*
X143830100Y-64221000D01*
X144819900Y-64221000D01*
X144819900Y-65029000D01*
G37*
G36*
X142169900Y-65025900D02*
G01*
X141180100Y-65025900D01*
X141180100Y-64217900D01*
X142169900Y-64217900D01*
X142169900Y-65025900D01*
G37*
G36*
X111460000Y-64900013D02*
G01*
X110760000Y-64900013D01*
X110760000Y-64600013D01*
X111460000Y-64600013D01*
X111460000Y-64900013D01*
G37*
G36*
X133924099Y-64453999D02*
G01*
X132926399Y-64453999D01*
X132926399Y-63895999D01*
X133924099Y-63895999D01*
X133924099Y-64453999D01*
G37*
G36*
X136623601Y-64453999D02*
G01*
X135625901Y-64453999D01*
X135625901Y-63895999D01*
X136623601Y-63895999D01*
X136623601Y-64453999D01*
G37*
G36*
X117399500Y-64403642D02*
G01*
X116396200Y-64403642D01*
X116396200Y-63946442D01*
X117399500Y-63946442D01*
X117399500Y-64403642D01*
G37*
G36*
X120053800Y-64403642D02*
G01*
X119050500Y-64403642D01*
X119050500Y-63946442D01*
X120053800Y-63946442D01*
X120053800Y-64403642D01*
G37*
G36*
X111460000Y-64400012D02*
G01*
X110760000Y-64400012D01*
X110760000Y-64100012D01*
X111460000Y-64100012D01*
X111460000Y-64400012D01*
G37*
G36*
X111460000Y-63900013D02*
G01*
X110760000Y-63900013D01*
X110760000Y-63600013D01*
X111460000Y-63600013D01*
X111460000Y-63900013D01*
G37*
G36*
X139419900Y-63582100D02*
G01*
X138430100Y-63582100D01*
X138430100Y-62774100D01*
X139419900Y-62774100D01*
X139419900Y-63582100D01*
G37*
G36*
X144819900Y-63535200D02*
G01*
X143830100Y-63535200D01*
X143830100Y-62727200D01*
X144819900Y-62727200D01*
X144819900Y-63535200D01*
G37*
G36*
X142169900Y-63532100D02*
G01*
X141180100Y-63532100D01*
X141180100Y-62724100D01*
X142169900Y-62724100D01*
X142169900Y-63532100D01*
G37*
G36*
X111460000Y-63400014D02*
G01*
X110760000Y-63400014D01*
X110760000Y-63100014D01*
X111460000Y-63100014D01*
X111460000Y-63400014D01*
G37*
G36*
X111460000Y-62900012D02*
G01*
X110760000Y-62900012D01*
X110760000Y-62600012D01*
X111460000Y-62600012D01*
X111460000Y-62900012D01*
G37*
G36*
X111460000Y-62400013D02*
G01*
X110760000Y-62400013D01*
X110760000Y-62100013D01*
X111460000Y-62100013D01*
X111460000Y-62400013D01*
G37*
G36*
X123290000Y-62369500D02*
G01*
X122640000Y-62369500D01*
X122640000Y-60824500D01*
X123290000Y-60824500D01*
X123290000Y-62369500D01*
G37*
G36*
X124560000Y-62369500D02*
G01*
X123910000Y-62369500D01*
X123910000Y-60824500D01*
X124560000Y-60824500D01*
X124560000Y-62369500D01*
G37*
G36*
X125830000Y-62369500D02*
G01*
X125180000Y-62369500D01*
X125180000Y-60824500D01*
X125830000Y-60824500D01*
X125830000Y-62369500D01*
G37*
G36*
X127100000Y-62369500D02*
G01*
X126450000Y-62369500D01*
X126450000Y-60824500D01*
X127100000Y-60824500D01*
X127100000Y-62369500D01*
G37*
G36*
X128370000Y-62369500D02*
G01*
X127720000Y-62369500D01*
X127720000Y-60824500D01*
X128370000Y-60824500D01*
X128370000Y-62369500D01*
G37*
G36*
X129640000Y-62369500D02*
G01*
X128990000Y-62369500D01*
X128990000Y-60824500D01*
X129640000Y-60824500D01*
X129640000Y-62369500D01*
G37*
G36*
X130910000Y-62369500D02*
G01*
X130260000Y-62369500D01*
X130260000Y-60824500D01*
X130910000Y-60824500D01*
X130910000Y-62369500D01*
G37*
G36*
X134432100Y-62119900D02*
G01*
X133624100Y-62119900D01*
X133624100Y-61130100D01*
X134432100Y-61130100D01*
X134432100Y-62119900D01*
G37*
G36*
X135925900Y-62119900D02*
G01*
X135117900Y-62119900D01*
X135117900Y-61130100D01*
X135925900Y-61130100D01*
X135925900Y-62119900D01*
G37*
G36*
X108960000Y-61610013D02*
G01*
X107960000Y-61610013D01*
X107960000Y-61310013D01*
X108960000Y-61310013D01*
X108960000Y-61610013D01*
G37*
G36*
X110141615Y-56725818D02*
G01*
X110190017Y-56731434D01*
X110206555Y-56738736D01*
X110228387Y-56743079D01*
X110251759Y-56758695D01*
X110271224Y-56767290D01*
X110284517Y-56780583D01*
X110305438Y-56794562D01*
X110319416Y-56815482D01*
X110332709Y-56828775D01*
X110341302Y-56848238D01*
X110356921Y-56871613D01*
X110361264Y-56893446D01*
X110368565Y-56909982D01*
X110374178Y-56958372D01*
X110375000Y-56962500D01*
X110375000Y-57437500D01*
X110374178Y-57441627D01*
X110368565Y-57490017D01*
X110361264Y-57506551D01*
X110356921Y-57528387D01*
X110341301Y-57551763D01*
X110332709Y-57571224D01*
X110319418Y-57584514D01*
X110305438Y-57605438D01*
X110284514Y-57619418D01*
X110271224Y-57632709D01*
X110251763Y-57641301D01*
X110228387Y-57656921D01*
X110206551Y-57661264D01*
X110190017Y-57668565D01*
X110141629Y-57674178D01*
X110137500Y-57675000D01*
X109637500Y-57675000D01*
X109633373Y-57674179D01*
X109584982Y-57668565D01*
X109568446Y-57661264D01*
X109546613Y-57656921D01*
X109523238Y-57641302D01*
X109503775Y-57632709D01*
X109490482Y-57619416D01*
X109469562Y-57605438D01*
X109455583Y-57584517D01*
X109442290Y-57571224D01*
X109433695Y-57551759D01*
X109418079Y-57528387D01*
X109413736Y-57506555D01*
X109406434Y-57490017D01*
X109400818Y-57441616D01*
X109400000Y-57437500D01*
X109400000Y-56962500D01*
X109400818Y-56958385D01*
X109406434Y-56909982D01*
X109413736Y-56893442D01*
X109418079Y-56871613D01*
X109433694Y-56848242D01*
X109442290Y-56828775D01*
X109455585Y-56815479D01*
X109469562Y-56794562D01*
X109490479Y-56780585D01*
X109503775Y-56767290D01*
X109523242Y-56758694D01*
X109546613Y-56743079D01*
X109568442Y-56738736D01*
X109584982Y-56731434D01*
X109633384Y-56725818D01*
X109637500Y-56725000D01*
X110137500Y-56725000D01*
X110141615Y-56725818D01*
G37*
G36*
X111966615Y-56725818D02*
G01*
X112015017Y-56731434D01*
X112031555Y-56738736D01*
X112053387Y-56743079D01*
X112076759Y-56758695D01*
X112096224Y-56767290D01*
X112109517Y-56780583D01*
X112130438Y-56794562D01*
X112144416Y-56815482D01*
X112157709Y-56828775D01*
X112166302Y-56848238D01*
X112181921Y-56871613D01*
X112186264Y-56893446D01*
X112193565Y-56909982D01*
X112199178Y-56958372D01*
X112200000Y-56962500D01*
X112200000Y-57437500D01*
X112199178Y-57441627D01*
X112193565Y-57490017D01*
X112186264Y-57506551D01*
X112181921Y-57528387D01*
X112166301Y-57551763D01*
X112157709Y-57571224D01*
X112144418Y-57584514D01*
X112130438Y-57605438D01*
X112109514Y-57619418D01*
X112096224Y-57632709D01*
X112076763Y-57641301D01*
X112053387Y-57656921D01*
X112031551Y-57661264D01*
X112015017Y-57668565D01*
X111966629Y-57674178D01*
X111962500Y-57675000D01*
X111462500Y-57675000D01*
X111458373Y-57674179D01*
X111409982Y-57668565D01*
X111393446Y-57661264D01*
X111371613Y-57656921D01*
X111348238Y-57641302D01*
X111328775Y-57632709D01*
X111315482Y-57619416D01*
X111294562Y-57605438D01*
X111280583Y-57584517D01*
X111267290Y-57571224D01*
X111258695Y-57551759D01*
X111243079Y-57528387D01*
X111238736Y-57506555D01*
X111231434Y-57490017D01*
X111225818Y-57441616D01*
X111225000Y-57437500D01*
X111225000Y-56962500D01*
X111225818Y-56958385D01*
X111231434Y-56909982D01*
X111238736Y-56893442D01*
X111243079Y-56871613D01*
X111258694Y-56848242D01*
X111267290Y-56828775D01*
X111280585Y-56815479D01*
X111294562Y-56794562D01*
X111315479Y-56780585D01*
X111328775Y-56767290D01*
X111348242Y-56758694D01*
X111371613Y-56743079D01*
X111393442Y-56738736D01*
X111409982Y-56731434D01*
X111458384Y-56725818D01*
X111462500Y-56725000D01*
X111962500Y-56725000D01*
X111966615Y-56725818D01*
G37*
G36*
X124019034Y-54805764D02*
G01*
X124052125Y-54827875D01*
X124074236Y-54860966D01*
X124082000Y-54900000D01*
X124082000Y-56300000D01*
X124074236Y-56339034D01*
X124052125Y-56372125D01*
X124019034Y-56394236D01*
X123980000Y-56402000D01*
X122980000Y-56402000D01*
X122940966Y-56394236D01*
X122907875Y-56372125D01*
X122885764Y-56339034D01*
X122878000Y-56300000D01*
X122878000Y-54900000D01*
X122885764Y-54860966D01*
X122907875Y-54827875D01*
X122940966Y-54805764D01*
X122980000Y-54798000D01*
X123980000Y-54798000D01*
X124019034Y-54805764D01*
G37*
G36*
X110129115Y-55225818D02*
G01*
X110177517Y-55231434D01*
X110194055Y-55238736D01*
X110215887Y-55243079D01*
X110239259Y-55258695D01*
X110258724Y-55267290D01*
X110272017Y-55280583D01*
X110292938Y-55294562D01*
X110306916Y-55315482D01*
X110320209Y-55328775D01*
X110328802Y-55348238D01*
X110344421Y-55371613D01*
X110348764Y-55393446D01*
X110356065Y-55409982D01*
X110361678Y-55458372D01*
X110362500Y-55462500D01*
X110362500Y-55937500D01*
X110361678Y-55941627D01*
X110356065Y-55990017D01*
X110348764Y-56006551D01*
X110344421Y-56028387D01*
X110328801Y-56051763D01*
X110320209Y-56071224D01*
X110306918Y-56084514D01*
X110292938Y-56105438D01*
X110272014Y-56119418D01*
X110258724Y-56132709D01*
X110239263Y-56141301D01*
X110215887Y-56156921D01*
X110194051Y-56161264D01*
X110177517Y-56168565D01*
X110129129Y-56174178D01*
X110125000Y-56175000D01*
X109625000Y-56175000D01*
X109620873Y-56174179D01*
X109572482Y-56168565D01*
X109555946Y-56161264D01*
X109534113Y-56156921D01*
X109510738Y-56141302D01*
X109491275Y-56132709D01*
X109477982Y-56119416D01*
X109457062Y-56105438D01*
X109443083Y-56084517D01*
X109429790Y-56071224D01*
X109421195Y-56051759D01*
X109405579Y-56028387D01*
X109401236Y-56006555D01*
X109393934Y-55990017D01*
X109388318Y-55941616D01*
X109387500Y-55937500D01*
X109387500Y-55462500D01*
X109388318Y-55458385D01*
X109393934Y-55409982D01*
X109401236Y-55393442D01*
X109405579Y-55371613D01*
X109421194Y-55348242D01*
X109429790Y-55328775D01*
X109443085Y-55315479D01*
X109457062Y-55294562D01*
X109477979Y-55280585D01*
X109491275Y-55267290D01*
X109510742Y-55258694D01*
X109534113Y-55243079D01*
X109555942Y-55238736D01*
X109572482Y-55231434D01*
X109620884Y-55225818D01*
X109625000Y-55225000D01*
X110125000Y-55225000D01*
X110129115Y-55225818D01*
G37*
G36*
X111954115Y-55225818D02*
G01*
X112002517Y-55231434D01*
X112019055Y-55238736D01*
X112040887Y-55243079D01*
X112064259Y-55258695D01*
X112083724Y-55267290D01*
X112097017Y-55280583D01*
X112117938Y-55294562D01*
X112131916Y-55315482D01*
X112145209Y-55328775D01*
X112153802Y-55348238D01*
X112169421Y-55371613D01*
X112173764Y-55393446D01*
X112181065Y-55409982D01*
X112186678Y-55458372D01*
X112187500Y-55462500D01*
X112187500Y-55937500D01*
X112186678Y-55941627D01*
X112181065Y-55990017D01*
X112173764Y-56006551D01*
X112169421Y-56028387D01*
X112153801Y-56051763D01*
X112145209Y-56071224D01*
X112131918Y-56084514D01*
X112117938Y-56105438D01*
X112097014Y-56119418D01*
X112083724Y-56132709D01*
X112064263Y-56141301D01*
X112040887Y-56156921D01*
X112019051Y-56161264D01*
X112002517Y-56168565D01*
X111954129Y-56174178D01*
X111950000Y-56175000D01*
X111450000Y-56175000D01*
X111445873Y-56174179D01*
X111397482Y-56168565D01*
X111380946Y-56161264D01*
X111359113Y-56156921D01*
X111335738Y-56141302D01*
X111316275Y-56132709D01*
X111302982Y-56119416D01*
X111282062Y-56105438D01*
X111268083Y-56084517D01*
X111254790Y-56071224D01*
X111246195Y-56051759D01*
X111230579Y-56028387D01*
X111226236Y-56006555D01*
X111218934Y-55990017D01*
X111213318Y-55941616D01*
X111212500Y-55937500D01*
X111212500Y-55462500D01*
X111213318Y-55458385D01*
X111218934Y-55409982D01*
X111226236Y-55393442D01*
X111230579Y-55371613D01*
X111246194Y-55348242D01*
X111254790Y-55328775D01*
X111268085Y-55315479D01*
X111282062Y-55294562D01*
X111302979Y-55280585D01*
X111316275Y-55267290D01*
X111335742Y-55258694D01*
X111359113Y-55243079D01*
X111380942Y-55238736D01*
X111397482Y-55231434D01*
X111445884Y-55225818D01*
X111450000Y-55225000D01*
X111950000Y-55225000D01*
X111954115Y-55225818D01*
G37*
G36*
X137241615Y-53873318D02*
G01*
X137290017Y-53878934D01*
X137306555Y-53886236D01*
X137328387Y-53890579D01*
X137351759Y-53906195D01*
X137371224Y-53914790D01*
X137384517Y-53928083D01*
X137405438Y-53942062D01*
X137419416Y-53962982D01*
X137432709Y-53976275D01*
X137441302Y-53995738D01*
X137456921Y-54019113D01*
X137461264Y-54040946D01*
X137468565Y-54057482D01*
X137474178Y-54105872D01*
X137475000Y-54110000D01*
X137475000Y-54610000D01*
X137474178Y-54614127D01*
X137468565Y-54662517D01*
X137461264Y-54679051D01*
X137456921Y-54700887D01*
X137441301Y-54724263D01*
X137432709Y-54743724D01*
X137419418Y-54757014D01*
X137405438Y-54777938D01*
X137384514Y-54791918D01*
X137371224Y-54805209D01*
X137351763Y-54813801D01*
X137328387Y-54829421D01*
X137306551Y-54833764D01*
X137290017Y-54841065D01*
X137241629Y-54846678D01*
X137237500Y-54847500D01*
X136762500Y-54847500D01*
X136758373Y-54846679D01*
X136709982Y-54841065D01*
X136693446Y-54833764D01*
X136671613Y-54829421D01*
X136648238Y-54813802D01*
X136628775Y-54805209D01*
X136615482Y-54791916D01*
X136594562Y-54777938D01*
X136580583Y-54757017D01*
X136567290Y-54743724D01*
X136558695Y-54724259D01*
X136543079Y-54700887D01*
X136538736Y-54679055D01*
X136531434Y-54662517D01*
X136525818Y-54614116D01*
X136525000Y-54610000D01*
X136525000Y-54110000D01*
X136525818Y-54105885D01*
X136531434Y-54057482D01*
X136538736Y-54040942D01*
X136543079Y-54019113D01*
X136558694Y-53995742D01*
X136567290Y-53976275D01*
X136580585Y-53962979D01*
X136594562Y-53942062D01*
X136615479Y-53928085D01*
X136628775Y-53914790D01*
X136648242Y-53906194D01*
X136671613Y-53890579D01*
X136693442Y-53886236D01*
X136709982Y-53878934D01*
X136758384Y-53873318D01*
X136762500Y-53872500D01*
X137237500Y-53872500D01*
X137241615Y-53873318D01*
G37*
G36*
X110141615Y-53725818D02*
G01*
X110190017Y-53731434D01*
X110206555Y-53738736D01*
X110228387Y-53743079D01*
X110251759Y-53758695D01*
X110271224Y-53767290D01*
X110284517Y-53780583D01*
X110305438Y-53794562D01*
X110319416Y-53815482D01*
X110332709Y-53828775D01*
X110341302Y-53848238D01*
X110356921Y-53871613D01*
X110361264Y-53893446D01*
X110368565Y-53909982D01*
X110374178Y-53958372D01*
X110375000Y-53962500D01*
X110375000Y-54437500D01*
X110374178Y-54441627D01*
X110368565Y-54490017D01*
X110361264Y-54506551D01*
X110356921Y-54528387D01*
X110341301Y-54551763D01*
X110332709Y-54571224D01*
X110319418Y-54584514D01*
X110305438Y-54605438D01*
X110284514Y-54619418D01*
X110271224Y-54632709D01*
X110251763Y-54641301D01*
X110228387Y-54656921D01*
X110206551Y-54661264D01*
X110190017Y-54668565D01*
X110141629Y-54674178D01*
X110137500Y-54675000D01*
X109637500Y-54675000D01*
X109633373Y-54674179D01*
X109584982Y-54668565D01*
X109568446Y-54661264D01*
X109546613Y-54656921D01*
X109523238Y-54641302D01*
X109503775Y-54632709D01*
X109490482Y-54619416D01*
X109469562Y-54605438D01*
X109455583Y-54584517D01*
X109442290Y-54571224D01*
X109433695Y-54551759D01*
X109418079Y-54528387D01*
X109413736Y-54506555D01*
X109406434Y-54490017D01*
X109400818Y-54441616D01*
X109400000Y-54437500D01*
X109400000Y-53962500D01*
X109400818Y-53958385D01*
X109406434Y-53909982D01*
X109413736Y-53893442D01*
X109418079Y-53871613D01*
X109433694Y-53848242D01*
X109442290Y-53828775D01*
X109455585Y-53815479D01*
X109469562Y-53794562D01*
X109490479Y-53780585D01*
X109503775Y-53767290D01*
X109523242Y-53758694D01*
X109546613Y-53743079D01*
X109568442Y-53738736D01*
X109584982Y-53731434D01*
X109633384Y-53725818D01*
X109637500Y-53725000D01*
X110137500Y-53725000D01*
X110141615Y-53725818D01*
G37*
G36*
X111966615Y-53725818D02*
G01*
X112015017Y-53731434D01*
X112031555Y-53738736D01*
X112053387Y-53743079D01*
X112076759Y-53758695D01*
X112096224Y-53767290D01*
X112109517Y-53780583D01*
X112130438Y-53794562D01*
X112144416Y-53815482D01*
X112157709Y-53828775D01*
X112166302Y-53848238D01*
X112181921Y-53871613D01*
X112186264Y-53893446D01*
X112193565Y-53909982D01*
X112199178Y-53958372D01*
X112200000Y-53962500D01*
X112200000Y-54437500D01*
X112199178Y-54441627D01*
X112193565Y-54490017D01*
X112186264Y-54506551D01*
X112181921Y-54528387D01*
X112166301Y-54551763D01*
X112157709Y-54571224D01*
X112144418Y-54584514D01*
X112130438Y-54605438D01*
X112109514Y-54619418D01*
X112096224Y-54632709D01*
X112076763Y-54641301D01*
X112053387Y-54656921D01*
X112031551Y-54661264D01*
X112015017Y-54668565D01*
X111966629Y-54674178D01*
X111962500Y-54675000D01*
X111462500Y-54675000D01*
X111458373Y-54674179D01*
X111409982Y-54668565D01*
X111393446Y-54661264D01*
X111371613Y-54656921D01*
X111348238Y-54641302D01*
X111328775Y-54632709D01*
X111315482Y-54619416D01*
X111294562Y-54605438D01*
X111280583Y-54584517D01*
X111267290Y-54571224D01*
X111258695Y-54551759D01*
X111243079Y-54528387D01*
X111238736Y-54506555D01*
X111231434Y-54490017D01*
X111225818Y-54441616D01*
X111225000Y-54437500D01*
X111225000Y-53962500D01*
X111225818Y-53958385D01*
X111231434Y-53909982D01*
X111238736Y-53893442D01*
X111243079Y-53871613D01*
X111258694Y-53848242D01*
X111267290Y-53828775D01*
X111280585Y-53815479D01*
X111294562Y-53794562D01*
X111315479Y-53780585D01*
X111328775Y-53767290D01*
X111348242Y-53758694D01*
X111371613Y-53743079D01*
X111393442Y-53738736D01*
X111409982Y-53731434D01*
X111458384Y-53725818D01*
X111462500Y-53725000D01*
X111962500Y-53725000D01*
X111966615Y-53725818D01*
G37*
G36*
X127439034Y-53655764D02*
G01*
X127472125Y-53677875D01*
X127494236Y-53710966D01*
X127502000Y-53750000D01*
X127502000Y-54250000D01*
X127494236Y-54289034D01*
X127472125Y-54322125D01*
X127439034Y-54344236D01*
X127400000Y-54352000D01*
X126850000Y-54352000D01*
X126810966Y-54344236D01*
X126777875Y-54322125D01*
X126755764Y-54289034D01*
X126748000Y-54250000D01*
X126748000Y-53750000D01*
X126755764Y-53710966D01*
X126777875Y-53677875D01*
X126810966Y-53655764D01*
X126850000Y-53648000D01*
X127400000Y-53648000D01*
X127439034Y-53655764D01*
G37*
G36*
X129189034Y-53655764D02*
G01*
X129222125Y-53677875D01*
X129244236Y-53710966D01*
X129252000Y-53750000D01*
X129252000Y-54250000D01*
X129244236Y-54289034D01*
X129222125Y-54322125D01*
X129189034Y-54344236D01*
X129150000Y-54352000D01*
X128600000Y-54352000D01*
X128560966Y-54344236D01*
X128527875Y-54322125D01*
X128505764Y-54289034D01*
X128498000Y-54250000D01*
X128498000Y-53750000D01*
X128505764Y-53710966D01*
X128527875Y-53677875D01*
X128560966Y-53655764D01*
X128600000Y-53648000D01*
X129150000Y-53648000D01*
X129189034Y-53655764D01*
G37*
G36*
X132547735Y-53561473D02*
G01*
X132605158Y-53599842D01*
X132643527Y-53657265D01*
X132657000Y-53725000D01*
X132657000Y-54175000D01*
X132643527Y-54242735D01*
X132605158Y-54300158D01*
X132547735Y-54338527D01*
X132480000Y-54352000D01*
X131400000Y-54352000D01*
X131332265Y-54338527D01*
X131274842Y-54300158D01*
X131236473Y-54242735D01*
X131223000Y-54175000D01*
X131223000Y-53725000D01*
X131236473Y-53657265D01*
X131274842Y-53599842D01*
X131332265Y-53561473D01*
X131400000Y-53548000D01*
X132480000Y-53548000D01*
X132547735Y-53561473D01*
G37*
G36*
X117819903Y-53661418D02*
G01*
X117868566Y-53693934D01*
X117901082Y-53742597D01*
X117912500Y-53800000D01*
X117912500Y-54100000D01*
X117901082Y-54157403D01*
X117868566Y-54206066D01*
X117819903Y-54238582D01*
X117762500Y-54250000D01*
X116587500Y-54250000D01*
X116530097Y-54238582D01*
X116481434Y-54206066D01*
X116448918Y-54157403D01*
X116437500Y-54100000D01*
X116437500Y-53800000D01*
X116448918Y-53742597D01*
X116481434Y-53693934D01*
X116530097Y-53661418D01*
X116587500Y-53650000D01*
X117762500Y-53650000D01*
X117819903Y-53661418D01*
G37*
G36*
X123069034Y-52605764D02*
G01*
X123102125Y-52627875D01*
X123124236Y-52660966D01*
X123132000Y-52700000D01*
X123132000Y-54100000D01*
X123124236Y-54139034D01*
X123102125Y-54172125D01*
X123069034Y-54194236D01*
X123030000Y-54202000D01*
X122030000Y-54202000D01*
X121990966Y-54194236D01*
X121957875Y-54172125D01*
X121935764Y-54139034D01*
X121928000Y-54100000D01*
X121928000Y-52700000D01*
X121935764Y-52660966D01*
X121957875Y-52627875D01*
X121990966Y-52605764D01*
X122030000Y-52598000D01*
X123030000Y-52598000D01*
X123069034Y-52605764D01*
G37*
G36*
X124969034Y-52605764D02*
G01*
X125002125Y-52627875D01*
X125024236Y-52660966D01*
X125032000Y-52700000D01*
X125032000Y-54100000D01*
X125024236Y-54139034D01*
X125002125Y-54172125D01*
X124969034Y-54194236D01*
X124930000Y-54202000D01*
X123930000Y-54202000D01*
X123890966Y-54194236D01*
X123857875Y-54172125D01*
X123835764Y-54139034D01*
X123828000Y-54100000D01*
X123828000Y-52700000D01*
X123835764Y-52660966D01*
X123857875Y-52627875D01*
X123890966Y-52605764D01*
X123930000Y-52598000D01*
X124930000Y-52598000D01*
X124969034Y-52605764D01*
G37*
G36*
X134667735Y-52611473D02*
G01*
X134725158Y-52649842D01*
X134763527Y-52707265D01*
X134777000Y-52775000D01*
X134777000Y-53225000D01*
X134763527Y-53292735D01*
X134725158Y-53350158D01*
X134667735Y-53388527D01*
X134600000Y-53402000D01*
X133520000Y-53402000D01*
X133452265Y-53388527D01*
X133394842Y-53350158D01*
X133356473Y-53292735D01*
X133343000Y-53225000D01*
X133343000Y-52775000D01*
X133356473Y-52707265D01*
X133394842Y-52649842D01*
X133452265Y-52611473D01*
X133520000Y-52598000D01*
X134600000Y-52598000D01*
X134667735Y-52611473D01*
G37*
G36*
X127439034Y-52655764D02*
G01*
X127472125Y-52677875D01*
X127494236Y-52710966D01*
X127502000Y-52750000D01*
X127502000Y-53250000D01*
X127494236Y-53289034D01*
X127472125Y-53322125D01*
X127439034Y-53344236D01*
X127400000Y-53352000D01*
X126850000Y-53352000D01*
X126810966Y-53344236D01*
X126777875Y-53322125D01*
X126755764Y-53289034D01*
X126748000Y-53250000D01*
X126748000Y-52750000D01*
X126755764Y-52710966D01*
X126777875Y-52677875D01*
X126810966Y-52655764D01*
X126850000Y-52648000D01*
X127400000Y-52648000D01*
X127439034Y-52655764D01*
G37*
G36*
X129189034Y-52655764D02*
G01*
X129222125Y-52677875D01*
X129244236Y-52710966D01*
X129252000Y-52750000D01*
X129252000Y-53250000D01*
X129244236Y-53289034D01*
X129222125Y-53322125D01*
X129189034Y-53344236D01*
X129150000Y-53352000D01*
X128600000Y-53352000D01*
X128560966Y-53344236D01*
X128527875Y-53322125D01*
X128505764Y-53289034D01*
X128498000Y-53250000D01*
X128498000Y-52750000D01*
X128505764Y-52710966D01*
X128527875Y-52677875D01*
X128560966Y-52655764D01*
X128600000Y-52648000D01*
X129150000Y-52648000D01*
X129189034Y-52655764D01*
G37*
G36*
X119694903Y-52711418D02*
G01*
X119743566Y-52743934D01*
X119776082Y-52792597D01*
X119787500Y-52850000D01*
X119787500Y-53150000D01*
X119776082Y-53207403D01*
X119743566Y-53256066D01*
X119694903Y-53288582D01*
X119637500Y-53300000D01*
X118462500Y-53300000D01*
X118405097Y-53288582D01*
X118356434Y-53256066D01*
X118323918Y-53207403D01*
X118312500Y-53150000D01*
X118312500Y-52850000D01*
X118323918Y-52792597D01*
X118356434Y-52743934D01*
X118405097Y-52711418D01*
X118462500Y-52700000D01*
X119637500Y-52700000D01*
X119694903Y-52711418D01*
G37*
G36*
X110129115Y-52225818D02*
G01*
X110177517Y-52231434D01*
X110194055Y-52238736D01*
X110215887Y-52243079D01*
X110239259Y-52258695D01*
X110258724Y-52267290D01*
X110272017Y-52280583D01*
X110292938Y-52294562D01*
X110306916Y-52315482D01*
X110320209Y-52328775D01*
X110328802Y-52348238D01*
X110344421Y-52371613D01*
X110348764Y-52393446D01*
X110356065Y-52409982D01*
X110361678Y-52458372D01*
X110362500Y-52462500D01*
X110362500Y-52937500D01*
X110361678Y-52941627D01*
X110356065Y-52990017D01*
X110348764Y-53006551D01*
X110344421Y-53028387D01*
X110328801Y-53051763D01*
X110320209Y-53071224D01*
X110306918Y-53084514D01*
X110292938Y-53105438D01*
X110272014Y-53119418D01*
X110258724Y-53132709D01*
X110239263Y-53141301D01*
X110215887Y-53156921D01*
X110194051Y-53161264D01*
X110177517Y-53168565D01*
X110129129Y-53174178D01*
X110125000Y-53175000D01*
X109625000Y-53175000D01*
X109620873Y-53174179D01*
X109572482Y-53168565D01*
X109555946Y-53161264D01*
X109534113Y-53156921D01*
X109510738Y-53141302D01*
X109491275Y-53132709D01*
X109477982Y-53119416D01*
X109457062Y-53105438D01*
X109443083Y-53084517D01*
X109429790Y-53071224D01*
X109421195Y-53051759D01*
X109405579Y-53028387D01*
X109401236Y-53006555D01*
X109393934Y-52990017D01*
X109388318Y-52941616D01*
X109387500Y-52937500D01*
X109387500Y-52462500D01*
X109388318Y-52458385D01*
X109393934Y-52409982D01*
X109401236Y-52393442D01*
X109405579Y-52371613D01*
X109421194Y-52348242D01*
X109429790Y-52328775D01*
X109443085Y-52315479D01*
X109457062Y-52294562D01*
X109477979Y-52280585D01*
X109491275Y-52267290D01*
X109510742Y-52258694D01*
X109534113Y-52243079D01*
X109555942Y-52238736D01*
X109572482Y-52231434D01*
X109620884Y-52225818D01*
X109625000Y-52225000D01*
X110125000Y-52225000D01*
X110129115Y-52225818D01*
G37*
G36*
X111954115Y-52225818D02*
G01*
X112002517Y-52231434D01*
X112019055Y-52238736D01*
X112040887Y-52243079D01*
X112064259Y-52258695D01*
X112083724Y-52267290D01*
X112097017Y-52280583D01*
X112117938Y-52294562D01*
X112131916Y-52315482D01*
X112145209Y-52328775D01*
X112153802Y-52348238D01*
X112169421Y-52371613D01*
X112173764Y-52393446D01*
X112181065Y-52409982D01*
X112186678Y-52458372D01*
X112187500Y-52462500D01*
X112187500Y-52937500D01*
X112186678Y-52941627D01*
X112181065Y-52990017D01*
X112173764Y-53006551D01*
X112169421Y-53028387D01*
X112153801Y-53051763D01*
X112145209Y-53071224D01*
X112131918Y-53084514D01*
X112117938Y-53105438D01*
X112097014Y-53119418D01*
X112083724Y-53132709D01*
X112064263Y-53141301D01*
X112040887Y-53156921D01*
X112019051Y-53161264D01*
X112002517Y-53168565D01*
X111954129Y-53174178D01*
X111950000Y-53175000D01*
X111450000Y-53175000D01*
X111445873Y-53174179D01*
X111397482Y-53168565D01*
X111380946Y-53161264D01*
X111359113Y-53156921D01*
X111335738Y-53141302D01*
X111316275Y-53132709D01*
X111302982Y-53119416D01*
X111282062Y-53105438D01*
X111268083Y-53084517D01*
X111254790Y-53071224D01*
X111246195Y-53051759D01*
X111230579Y-53028387D01*
X111226236Y-53006555D01*
X111218934Y-52990017D01*
X111213318Y-52941616D01*
X111212500Y-52937500D01*
X111212500Y-52462500D01*
X111213318Y-52458385D01*
X111218934Y-52409982D01*
X111226236Y-52393442D01*
X111230579Y-52371613D01*
X111246194Y-52348242D01*
X111254790Y-52328775D01*
X111268085Y-52315479D01*
X111282062Y-52294562D01*
X111302979Y-52280585D01*
X111316275Y-52267290D01*
X111335742Y-52258694D01*
X111359113Y-52243079D01*
X111380942Y-52238736D01*
X111397482Y-52231434D01*
X111445884Y-52225818D01*
X111450000Y-52225000D01*
X111950000Y-52225000D01*
X111954115Y-52225818D01*
G37*
G36*
X137241615Y-52048318D02*
G01*
X137290017Y-52053934D01*
X137306555Y-52061236D01*
X137328387Y-52065579D01*
X137351759Y-52081195D01*
X137371224Y-52089790D01*
X137384517Y-52103083D01*
X137405438Y-52117062D01*
X137419416Y-52137982D01*
X137432709Y-52151275D01*
X137441302Y-52170738D01*
X137456921Y-52194113D01*
X137461264Y-52215946D01*
X137468565Y-52232482D01*
X137474178Y-52280872D01*
X137475000Y-52285000D01*
X137475000Y-52785000D01*
X137474178Y-52789127D01*
X137468565Y-52837517D01*
X137461264Y-52854051D01*
X137456921Y-52875887D01*
X137441301Y-52899263D01*
X137432709Y-52918724D01*
X137419418Y-52932014D01*
X137405438Y-52952938D01*
X137384514Y-52966918D01*
X137371224Y-52980209D01*
X137351763Y-52988801D01*
X137328387Y-53004421D01*
X137306551Y-53008764D01*
X137290017Y-53016065D01*
X137241629Y-53021678D01*
X137237500Y-53022500D01*
X136762500Y-53022500D01*
X136758373Y-53021679D01*
X136709982Y-53016065D01*
X136693446Y-53008764D01*
X136671613Y-53004421D01*
X136648238Y-52988802D01*
X136628775Y-52980209D01*
X136615482Y-52966916D01*
X136594562Y-52952938D01*
X136580583Y-52932017D01*
X136567290Y-52918724D01*
X136558695Y-52899259D01*
X136543079Y-52875887D01*
X136538736Y-52854055D01*
X136531434Y-52837517D01*
X136525818Y-52789116D01*
X136525000Y-52785000D01*
X136525000Y-52285000D01*
X136525818Y-52280885D01*
X136531434Y-52232482D01*
X136538736Y-52215942D01*
X136543079Y-52194113D01*
X136558694Y-52170742D01*
X136567290Y-52151275D01*
X136580585Y-52137979D01*
X136594562Y-52117062D01*
X136615479Y-52103085D01*
X136628775Y-52089790D01*
X136648242Y-52081194D01*
X136671613Y-52065579D01*
X136693442Y-52061236D01*
X136709982Y-52053934D01*
X136758384Y-52048318D01*
X136762500Y-52047500D01*
X137237500Y-52047500D01*
X137241615Y-52048318D01*
G37*
G36*
X132547735Y-51661473D02*
G01*
X132605158Y-51699842D01*
X132643527Y-51757265D01*
X132657000Y-51825000D01*
X132657000Y-52275000D01*
X132643527Y-52342735D01*
X132605158Y-52400158D01*
X132547735Y-52438527D01*
X132480000Y-52452000D01*
X131400000Y-52452000D01*
X131332265Y-52438527D01*
X131274842Y-52400158D01*
X131236473Y-52342735D01*
X131223000Y-52275000D01*
X131223000Y-51825000D01*
X131236473Y-51757265D01*
X131274842Y-51699842D01*
X131332265Y-51661473D01*
X131400000Y-51648000D01*
X132480000Y-51648000D01*
X132547735Y-51661473D01*
G37*
G36*
X117819903Y-51761418D02*
G01*
X117868566Y-51793934D01*
X117901082Y-51842597D01*
X117912500Y-51900000D01*
X117912500Y-52200000D01*
X117901082Y-52257403D01*
X117868566Y-52306066D01*
X117819903Y-52338582D01*
X117762500Y-52350000D01*
X116587500Y-52350000D01*
X116530097Y-52338582D01*
X116481434Y-52306066D01*
X116448918Y-52257403D01*
X116437500Y-52200000D01*
X116437500Y-51900000D01*
X116448918Y-51842597D01*
X116481434Y-51793934D01*
X116530097Y-51761418D01*
X116587500Y-51750000D01*
X117762500Y-51750000D01*
X117819903Y-51761418D01*
G37*
G36*
X137251615Y-50315818D02*
G01*
X137300017Y-50321434D01*
X137316555Y-50328736D01*
X137338387Y-50333079D01*
X137361759Y-50348695D01*
X137381224Y-50357290D01*
X137394517Y-50370583D01*
X137415438Y-50384562D01*
X137429416Y-50405482D01*
X137442709Y-50418775D01*
X137451302Y-50438238D01*
X137466921Y-50461613D01*
X137471264Y-50483446D01*
X137478565Y-50499982D01*
X137484178Y-50548372D01*
X137485000Y-50552500D01*
X137485000Y-51027500D01*
X137484178Y-51031627D01*
X137478565Y-51080017D01*
X137471264Y-51096551D01*
X137466921Y-51118387D01*
X137451301Y-51141763D01*
X137442709Y-51161224D01*
X137429418Y-51174514D01*
X137415438Y-51195438D01*
X137394514Y-51209418D01*
X137381224Y-51222709D01*
X137361763Y-51231301D01*
X137338387Y-51246921D01*
X137316551Y-51251264D01*
X137300017Y-51258565D01*
X137251629Y-51264178D01*
X137247500Y-51265000D01*
X136747500Y-51265000D01*
X136743373Y-51264179D01*
X136694982Y-51258565D01*
X136678446Y-51251264D01*
X136656613Y-51246921D01*
X136633238Y-51231302D01*
X136613775Y-51222709D01*
X136600482Y-51209416D01*
X136579562Y-51195438D01*
X136565583Y-51174517D01*
X136552290Y-51161224D01*
X136543695Y-51141759D01*
X136528079Y-51118387D01*
X136523736Y-51096555D01*
X136516434Y-51080017D01*
X136510818Y-51031616D01*
X136510000Y-51027500D01*
X136510000Y-50552500D01*
X136510818Y-50548385D01*
X136516434Y-50499982D01*
X136523736Y-50483442D01*
X136528079Y-50461613D01*
X136543694Y-50438242D01*
X136552290Y-50418775D01*
X136565585Y-50405479D01*
X136579562Y-50384562D01*
X136600479Y-50370585D01*
X136613775Y-50357290D01*
X136633242Y-50348694D01*
X136656613Y-50333079D01*
X136678442Y-50328736D01*
X136694982Y-50321434D01*
X136743384Y-50315818D01*
X136747500Y-50315000D01*
X137247500Y-50315000D01*
X137251615Y-50315818D01*
G37*
G36*
X139076615Y-50315818D02*
G01*
X139125017Y-50321434D01*
X139141555Y-50328736D01*
X139163387Y-50333079D01*
X139186759Y-50348695D01*
X139206224Y-50357290D01*
X139219517Y-50370583D01*
X139240438Y-50384562D01*
X139254416Y-50405482D01*
X139267709Y-50418775D01*
X139276302Y-50438238D01*
X139291921Y-50461613D01*
X139296264Y-50483446D01*
X139303565Y-50499982D01*
X139309178Y-50548372D01*
X139310000Y-50552500D01*
X139310000Y-51027500D01*
X139309178Y-51031627D01*
X139303565Y-51080017D01*
X139296264Y-51096551D01*
X139291921Y-51118387D01*
X139276301Y-51141763D01*
X139267709Y-51161224D01*
X139254418Y-51174514D01*
X139240438Y-51195438D01*
X139219514Y-51209418D01*
X139206224Y-51222709D01*
X139186763Y-51231301D01*
X139163387Y-51246921D01*
X139141551Y-51251264D01*
X139125017Y-51258565D01*
X139076629Y-51264178D01*
X139072500Y-51265000D01*
X138572500Y-51265000D01*
X138568373Y-51264179D01*
X138519982Y-51258565D01*
X138503446Y-51251264D01*
X138481613Y-51246921D01*
X138458238Y-51231302D01*
X138438775Y-51222709D01*
X138425482Y-51209416D01*
X138404562Y-51195438D01*
X138390583Y-51174517D01*
X138377290Y-51161224D01*
X138368695Y-51141759D01*
X138353079Y-51118387D01*
X138348736Y-51096555D01*
X138341434Y-51080017D01*
X138335818Y-51031616D01*
X138335000Y-51027500D01*
X138335000Y-50552500D01*
X138335818Y-50548385D01*
X138341434Y-50499982D01*
X138348736Y-50483442D01*
X138353079Y-50461613D01*
X138368694Y-50438242D01*
X138377290Y-50418775D01*
X138390585Y-50405479D01*
X138404562Y-50384562D01*
X138425479Y-50370585D01*
X138438775Y-50357290D01*
X138458242Y-50348694D01*
X138481613Y-50333079D01*
X138503442Y-50328736D01*
X138519982Y-50321434D01*
X138568384Y-50315818D01*
X138572500Y-50315000D01*
X139072500Y-50315000D01*
X139076615Y-50315818D01*
G37*
G36*
X111355672Y-46301520D02*
G01*
X111595735Y-46365845D01*
X111825349Y-46460954D01*
X112040583Y-46585220D01*
X112237757Y-46736516D01*
X112413496Y-46912255D01*
X112564792Y-47109429D01*
X112689058Y-47324663D01*
X112784167Y-47554277D01*
X112848492Y-47794340D01*
X112880932Y-48040746D01*
X112880932Y-48289278D01*
X112848492Y-48535684D01*
X112784167Y-48775747D01*
X112689058Y-49005361D01*
X112564792Y-49220595D01*
X112413496Y-49417769D01*
X112237757Y-49593508D01*
X112040583Y-49744804D01*
X111825349Y-49869070D01*
X111595735Y-49964179D01*
X111355672Y-50028504D01*
X111109266Y-50060944D01*
X110860734Y-50060944D01*
X110614328Y-50028504D01*
X110374265Y-49964179D01*
X110144651Y-49869070D01*
X109929417Y-49744804D01*
X109732243Y-49593508D01*
X109556504Y-49417769D01*
X109405208Y-49220595D01*
X109280942Y-49005361D01*
X109185833Y-48775747D01*
X109121508Y-48535684D01*
X109089068Y-48289278D01*
X109089068Y-48040746D01*
X109121508Y-47794340D01*
X109185833Y-47554277D01*
X109280942Y-47324663D01*
X109405208Y-47109429D01*
X109556504Y-46912255D01*
X109732243Y-46736516D01*
X109929417Y-46585220D01*
X110144651Y-46460954D01*
X110374265Y-46365845D01*
X110614328Y-46301520D01*
X110860734Y-46269080D01*
X111109266Y-46269080D01*
X111355672Y-46301520D01*
G37*
G36*
X144595672Y-46241508D02*
G01*
X144835735Y-46305833D01*
X145065349Y-46400942D01*
X145280583Y-46525208D01*
X145477757Y-46676504D01*
X145653496Y-46852243D01*
X145804792Y-47049417D01*
X145929058Y-47264651D01*
X146024167Y-47494265D01*
X146088492Y-47734328D01*
X146120932Y-47980734D01*
X146120932Y-48229266D01*
X146088492Y-48475672D01*
X146024167Y-48715735D01*
X145929058Y-48945349D01*
X145804792Y-49160583D01*
X145653496Y-49357757D01*
X145477757Y-49533496D01*
X145280583Y-49684792D01*
X145065349Y-49809058D01*
X144835735Y-49904167D01*
X144595672Y-49968492D01*
X144349266Y-50000932D01*
X144100734Y-50000932D01*
X143854328Y-49968492D01*
X143614265Y-49904167D01*
X143384651Y-49809058D01*
X143169417Y-49684792D01*
X142972243Y-49533496D01*
X142796504Y-49357757D01*
X142645208Y-49160583D01*
X142520942Y-48945349D01*
X142425833Y-48715735D01*
X142361508Y-48475672D01*
X142329068Y-48229266D01*
X142329068Y-47980734D01*
X142361508Y-47734328D01*
X142425833Y-47494265D01*
X142520942Y-47264651D01*
X142645208Y-47049417D01*
X142796504Y-46852243D01*
X142972243Y-46676504D01*
X143169417Y-46525208D01*
X143384651Y-46400942D01*
X143614265Y-46305833D01*
X143854328Y-46241508D01*
X144100734Y-46209068D01*
X144349266Y-46209068D01*
X144595672Y-46241508D01*
G37*
G36*
X124039034Y-48135764D02*
G01*
X124072125Y-48157875D01*
X124094236Y-48190966D01*
X124102000Y-48230000D01*
X124102000Y-49630000D01*
X124094236Y-49669034D01*
X124072125Y-49702125D01*
X124039034Y-49724236D01*
X124000000Y-49732000D01*
X123000000Y-49732000D01*
X122960966Y-49724236D01*
X122927875Y-49702125D01*
X122905764Y-49669034D01*
X122898000Y-49630000D01*
X122898000Y-48230000D01*
X122905764Y-48190966D01*
X122927875Y-48157875D01*
X122960966Y-48135764D01*
X123000000Y-48128000D01*
X124000000Y-48128000D01*
X124039034Y-48135764D01*
G37*
G36*
X137254115Y-48525818D02*
G01*
X137302517Y-48531434D01*
X137319055Y-48538736D01*
X137340887Y-48543079D01*
X137364259Y-48558695D01*
X137383724Y-48567290D01*
X137397017Y-48580583D01*
X137417938Y-48594562D01*
X137431916Y-48615482D01*
X137445209Y-48628775D01*
X137453802Y-48648238D01*
X137469421Y-48671613D01*
X137473764Y-48693446D01*
X137481065Y-48709982D01*
X137486678Y-48758372D01*
X137487500Y-48762500D01*
X137487500Y-49237500D01*
X137486678Y-49241627D01*
X137481065Y-49290017D01*
X137473764Y-49306551D01*
X137469421Y-49328387D01*
X137453801Y-49351763D01*
X137445209Y-49371224D01*
X137431918Y-49384514D01*
X137417938Y-49405438D01*
X137397014Y-49419418D01*
X137383724Y-49432709D01*
X137364263Y-49441301D01*
X137340887Y-49456921D01*
X137319051Y-49461264D01*
X137302517Y-49468565D01*
X137254129Y-49474178D01*
X137250000Y-49475000D01*
X136750000Y-49475000D01*
X136745873Y-49474179D01*
X136697482Y-49468565D01*
X136680946Y-49461264D01*
X136659113Y-49456921D01*
X136635738Y-49441302D01*
X136616275Y-49432709D01*
X136602982Y-49419416D01*
X136582062Y-49405438D01*
X136568083Y-49384517D01*
X136554790Y-49371224D01*
X136546195Y-49351759D01*
X136530579Y-49328387D01*
X136526236Y-49306555D01*
X136518934Y-49290017D01*
X136513318Y-49241616D01*
X136512500Y-49237500D01*
X136512500Y-48762500D01*
X136513318Y-48758385D01*
X136518934Y-48709982D01*
X136526236Y-48693442D01*
X136530579Y-48671613D01*
X136546194Y-48648242D01*
X136554790Y-48628775D01*
X136568085Y-48615479D01*
X136582062Y-48594562D01*
X136602979Y-48580585D01*
X136616275Y-48567290D01*
X136635742Y-48558694D01*
X136659113Y-48543079D01*
X136680942Y-48538736D01*
X136697482Y-48531434D01*
X136745884Y-48525818D01*
X136750000Y-48525000D01*
X137250000Y-48525000D01*
X137254115Y-48525818D01*
G37*
G36*
X139079115Y-48525818D02*
G01*
X139127517Y-48531434D01*
X139144055Y-48538736D01*
X139165887Y-48543079D01*
X139189259Y-48558695D01*
X139208724Y-48567290D01*
X139222017Y-48580583D01*
X139242938Y-48594562D01*
X139256916Y-48615482D01*
X139270209Y-48628775D01*
X139278802Y-48648238D01*
X139294421Y-48671613D01*
X139298764Y-48693446D01*
X139306065Y-48709982D01*
X139311678Y-48758372D01*
X139312500Y-48762500D01*
X139312500Y-49237500D01*
X139311678Y-49241627D01*
X139306065Y-49290017D01*
X139298764Y-49306551D01*
X139294421Y-49328387D01*
X139278801Y-49351763D01*
X139270209Y-49371224D01*
X139256918Y-49384514D01*
X139242938Y-49405438D01*
X139222014Y-49419418D01*
X139208724Y-49432709D01*
X139189263Y-49441301D01*
X139165887Y-49456921D01*
X139144051Y-49461264D01*
X139127517Y-49468565D01*
X139079129Y-49474178D01*
X139075000Y-49475000D01*
X138575000Y-49475000D01*
X138570873Y-49474179D01*
X138522482Y-49468565D01*
X138505946Y-49461264D01*
X138484113Y-49456921D01*
X138460738Y-49441302D01*
X138441275Y-49432709D01*
X138427982Y-49419416D01*
X138407062Y-49405438D01*
X138393083Y-49384517D01*
X138379790Y-49371224D01*
X138371195Y-49351759D01*
X138355579Y-49328387D01*
X138351236Y-49306555D01*
X138343934Y-49290017D01*
X138338318Y-49241616D01*
X138337500Y-49237500D01*
X138337500Y-48762500D01*
X138338318Y-48758385D01*
X138343934Y-48709982D01*
X138351236Y-48693442D01*
X138355579Y-48671613D01*
X138371194Y-48648242D01*
X138379790Y-48628775D01*
X138393085Y-48615479D01*
X138407062Y-48594562D01*
X138427979Y-48580585D01*
X138441275Y-48567290D01*
X138460742Y-48558694D01*
X138484113Y-48543079D01*
X138505942Y-48538736D01*
X138522482Y-48531434D01*
X138570884Y-48525818D01*
X138575000Y-48525000D01*
X139075000Y-48525000D01*
X139079115Y-48525818D01*
G37*
G36*
X132519134Y-47868806D02*
G01*
X132535355Y-47879645D01*
X132546194Y-47895866D01*
X132550000Y-47915000D01*
X132550000Y-49005000D01*
X132546194Y-49024134D01*
X132535355Y-49040355D01*
X132519134Y-49051194D01*
X132500000Y-49055000D01*
X132200000Y-49055000D01*
X132180866Y-49051194D01*
X132164645Y-49040355D01*
X132153806Y-49024134D01*
X132150000Y-49005000D01*
X132150000Y-47915000D01*
X132153806Y-47895866D01*
X132164645Y-47879645D01*
X132180866Y-47868806D01*
X132200000Y-47865000D01*
X132500000Y-47865000D01*
X132519134Y-47868806D01*
G37*
G36*
X133819134Y-47868806D02*
G01*
X133835355Y-47879645D01*
X133846194Y-47895866D01*
X133850000Y-47915000D01*
X133850000Y-49005000D01*
X133846194Y-49024134D01*
X133835355Y-49040355D01*
X133819134Y-49051194D01*
X133800000Y-49055000D01*
X133500000Y-49055000D01*
X133480866Y-49051194D01*
X133464645Y-49040355D01*
X133453806Y-49024134D01*
X133450000Y-49005000D01*
X133450000Y-47915000D01*
X133453806Y-47895866D01*
X133464645Y-47879645D01*
X133480866Y-47868806D01*
X133500000Y-47865000D01*
X133800000Y-47865000D01*
X133819134Y-47868806D01*
G37*
G36*
X129667735Y-48061473D02*
G01*
X129725158Y-48099842D01*
X129763527Y-48157265D01*
X129777000Y-48225000D01*
X129777000Y-48675000D01*
X129763527Y-48742735D01*
X129725158Y-48800158D01*
X129667735Y-48838527D01*
X129600000Y-48852000D01*
X128520000Y-48852000D01*
X128452265Y-48838527D01*
X128394842Y-48800158D01*
X128356473Y-48742735D01*
X128343000Y-48675000D01*
X128343000Y-48225000D01*
X128356473Y-48157265D01*
X128394842Y-48099842D01*
X128452265Y-48061473D01*
X128520000Y-48048000D01*
X129600000Y-48048000D01*
X129667735Y-48061473D01*
G37*
G36*
X118657403Y-48211418D02*
G01*
X118706066Y-48243934D01*
X118738582Y-48292597D01*
X118750000Y-48350000D01*
X118750000Y-48650000D01*
X118738582Y-48707403D01*
X118706066Y-48756066D01*
X118657403Y-48788582D01*
X118600000Y-48800000D01*
X117425000Y-48800000D01*
X117367597Y-48788582D01*
X117318934Y-48756066D01*
X117286418Y-48707403D01*
X117275000Y-48650000D01*
X117275000Y-48350000D01*
X117286418Y-48292597D01*
X117318934Y-48243934D01*
X117367597Y-48211418D01*
X117425000Y-48200000D01*
X118600000Y-48200000D01*
X118657403Y-48211418D01*
G37*
G36*
X127547735Y-47111473D02*
G01*
X127605158Y-47149842D01*
X127643527Y-47207265D01*
X127657000Y-47275000D01*
X127657000Y-47725000D01*
X127643527Y-47792735D01*
X127605158Y-47850158D01*
X127547735Y-47888527D01*
X127480000Y-47902000D01*
X126400000Y-47902000D01*
X126332265Y-47888527D01*
X126274842Y-47850158D01*
X126236473Y-47792735D01*
X126223000Y-47725000D01*
X126223000Y-47275000D01*
X126236473Y-47207265D01*
X126274842Y-47149842D01*
X126332265Y-47111473D01*
X126400000Y-47098000D01*
X127480000Y-47098000D01*
X127547735Y-47111473D01*
G37*
G36*
X120532403Y-47261418D02*
G01*
X120581066Y-47293934D01*
X120613582Y-47342597D01*
X120625000Y-47400000D01*
X120625000Y-47700000D01*
X120613582Y-47757403D01*
X120581066Y-47806066D01*
X120532403Y-47838582D01*
X120475000Y-47850000D01*
X119300000Y-47850000D01*
X119242597Y-47838582D01*
X119193934Y-47806066D01*
X119161418Y-47757403D01*
X119150000Y-47700000D01*
X119150000Y-47400000D01*
X119161418Y-47342597D01*
X119193934Y-47293934D01*
X119242597Y-47261418D01*
X119300000Y-47250000D01*
X120475000Y-47250000D01*
X120532403Y-47261418D01*
G37*
G36*
X123089034Y-45935764D02*
G01*
X123122125Y-45957875D01*
X123144236Y-45990966D01*
X123152000Y-46030000D01*
X123152000Y-47430000D01*
X123144236Y-47469034D01*
X123122125Y-47502125D01*
X123089034Y-47524236D01*
X123050000Y-47532000D01*
X122050000Y-47532000D01*
X122010966Y-47524236D01*
X121977875Y-47502125D01*
X121955764Y-47469034D01*
X121948000Y-47430000D01*
X121948000Y-46030000D01*
X121955764Y-45990966D01*
X121977875Y-45957875D01*
X122010966Y-45935764D01*
X122050000Y-45928000D01*
X123050000Y-45928000D01*
X123089034Y-45935764D01*
G37*
G36*
X124989034Y-45935764D02*
G01*
X125022125Y-45957875D01*
X125044236Y-45990966D01*
X125052000Y-46030000D01*
X125052000Y-47430000D01*
X125044236Y-47469034D01*
X125022125Y-47502125D01*
X124989034Y-47524236D01*
X124950000Y-47532000D01*
X123950000Y-47532000D01*
X123910966Y-47524236D01*
X123877875Y-47502125D01*
X123855764Y-47469034D01*
X123848000Y-47430000D01*
X123848000Y-46030000D01*
X123855764Y-45990966D01*
X123877875Y-45957875D01*
X123910966Y-45935764D01*
X123950000Y-45928000D01*
X124950000Y-45928000D01*
X124989034Y-45935764D01*
G37*
G36*
X132519134Y-45948806D02*
G01*
X132535355Y-45959645D01*
X132546194Y-45975866D01*
X132550000Y-45995000D01*
X132550000Y-47085000D01*
X132546194Y-47104134D01*
X132535355Y-47120355D01*
X132519134Y-47131194D01*
X132500000Y-47135000D01*
X132200000Y-47135000D01*
X132180866Y-47131194D01*
X132164645Y-47120355D01*
X132153806Y-47104134D01*
X132150000Y-47085000D01*
X132150000Y-45995000D01*
X132153806Y-45975866D01*
X132164645Y-45959645D01*
X132180866Y-45948806D01*
X132200000Y-45945000D01*
X132500000Y-45945000D01*
X132519134Y-45948806D01*
G37*
G36*
X133169134Y-45948806D02*
G01*
X133185355Y-45959645D01*
X133196194Y-45975866D01*
X133200000Y-45995000D01*
X133200000Y-47085000D01*
X133196194Y-47104134D01*
X133185355Y-47120355D01*
X133169134Y-47131194D01*
X133150000Y-47135000D01*
X132850000Y-47135000D01*
X132830866Y-47131194D01*
X132814645Y-47120355D01*
X132803806Y-47104134D01*
X132800000Y-47085000D01*
X132800000Y-45995000D01*
X132803806Y-45975866D01*
X132814645Y-45959645D01*
X132830866Y-45948806D01*
X132850000Y-45945000D01*
X133150000Y-45945000D01*
X133169134Y-45948806D01*
G37*
G36*
X133819134Y-45948806D02*
G01*
X133835355Y-45959645D01*
X133846194Y-45975866D01*
X133850000Y-45995000D01*
X133850000Y-47085000D01*
X133846194Y-47104134D01*
X133835355Y-47120355D01*
X133819134Y-47131194D01*
X133800000Y-47135000D01*
X133500000Y-47135000D01*
X133480866Y-47131194D01*
X133464645Y-47120355D01*
X133453806Y-47104134D01*
X133450000Y-47085000D01*
X133450000Y-45995000D01*
X133453806Y-45975866D01*
X133464645Y-45959645D01*
X133480866Y-45948806D01*
X133500000Y-45945000D01*
X133800000Y-45945000D01*
X133819134Y-45948806D01*
G37*
G36*
X129667735Y-46161473D02*
G01*
X129725158Y-46199842D01*
X129763527Y-46257265D01*
X129777000Y-46325000D01*
X129777000Y-46775000D01*
X129763527Y-46842735D01*
X129725158Y-46900158D01*
X129667735Y-46938527D01*
X129600000Y-46952000D01*
X128520000Y-46952000D01*
X128452265Y-46938527D01*
X128394842Y-46900158D01*
X128356473Y-46842735D01*
X128343000Y-46775000D01*
X128343000Y-46325000D01*
X128356473Y-46257265D01*
X128394842Y-46199842D01*
X128452265Y-46161473D01*
X128520000Y-46148000D01*
X129600000Y-46148000D01*
X129667735Y-46161473D01*
G37*
G36*
X118657403Y-46311418D02*
G01*
X118706066Y-46343934D01*
X118738582Y-46392597D01*
X118750000Y-46450000D01*
X118750000Y-46750000D01*
X118738582Y-46807403D01*
X118706066Y-46856066D01*
X118657403Y-46888582D01*
X118600000Y-46900000D01*
X117425000Y-46900000D01*
X117367597Y-46888582D01*
X117318934Y-46856066D01*
X117286418Y-46807403D01*
X117275000Y-46750000D01*
X117275000Y-46450000D01*
X117286418Y-46392597D01*
X117318934Y-46343934D01*
X117367597Y-46311418D01*
X117425000Y-46300000D01*
X118600000Y-46300000D01*
X118657403Y-46311418D01*
G37*
M02*
