%TF.GenerationSoftware,KiCad,Pcbnew,9.0.7*%
%TF.CreationDate,2026-04-25T22:42:26-07:00*%
%TF.ProjectId,Secondary_Board,5365636f-6e64-4617-9279-5f426f617264,rev?*%
%TF.SameCoordinates,Original*%
%TF.FileFunction,Soldermask,Bot*%
%TF.FilePolarity,Negative*%
%FSLAX46Y46*%
G04 Gerber Fmt 4.6, Leading zero omitted, Abs format (unit mm)*
G04 Created by KiCad (PCBNEW 9.0.7) date 2026-04-25 22:42:26*
%MOMM*%
%LPD*%
G01*
G04 APERTURE LIST*
G04 APERTURE END LIST*
G36*
X144920672Y-95911508D02*
G01*
X145160735Y-95975833D01*
X145390349Y-96070942D01*
X145605583Y-96195208D01*
X145802757Y-96346504D01*
X145978496Y-96522243D01*
X146129792Y-96719417D01*
X146254058Y-96934651D01*
X146349167Y-97164265D01*
X146413492Y-97404328D01*
X146445932Y-97650734D01*
X146445932Y-97899266D01*
X146413492Y-98145672D01*
X146349167Y-98385735D01*
X146254058Y-98615349D01*
X146129792Y-98830583D01*
X145978496Y-99027757D01*
X145802757Y-99203496D01*
X145605583Y-99354792D01*
X145390349Y-99479058D01*
X145160735Y-99574167D01*
X144920672Y-99638492D01*
X144674266Y-99670932D01*
X144425734Y-99670932D01*
X144179328Y-99638492D01*
X143939265Y-99574167D01*
X143709651Y-99479058D01*
X143494417Y-99354792D01*
X143297243Y-99203496D01*
X143121504Y-99027757D01*
X142970208Y-98830583D01*
X142845942Y-98615349D01*
X142750833Y-98385735D01*
X142686508Y-98145672D01*
X142654068Y-97899266D01*
X142654068Y-97650734D01*
X142686508Y-97404328D01*
X142750833Y-97164265D01*
X142845942Y-96934651D01*
X142970208Y-96719417D01*
X143121504Y-96522243D01*
X143297243Y-96346504D01*
X143494417Y-96195208D01*
X143709651Y-96070942D01*
X143939265Y-95975833D01*
X144179328Y-95911508D01*
X144425734Y-95879068D01*
X144674266Y-95879068D01*
X144920672Y-95911508D01*
G37*
G36*
X110955672Y-95901520D02*
G01*
X111195735Y-95965845D01*
X111425349Y-96060954D01*
X111640583Y-96185220D01*
X111837757Y-96336516D01*
X112013496Y-96512255D01*
X112164792Y-96709429D01*
X112289058Y-96924663D01*
X112384167Y-97154277D01*
X112448492Y-97394340D01*
X112480932Y-97640746D01*
X112480932Y-97889278D01*
X112448492Y-98135684D01*
X112384167Y-98375747D01*
X112289058Y-98605361D01*
X112164792Y-98820595D01*
X112013496Y-99017769D01*
X111837757Y-99193508D01*
X111640583Y-99344804D01*
X111425349Y-99469070D01*
X111195735Y-99564179D01*
X110955672Y-99628504D01*
X110709266Y-99660944D01*
X110460734Y-99660944D01*
X110214328Y-99628504D01*
X109974265Y-99564179D01*
X109744651Y-99469070D01*
X109529417Y-99344804D01*
X109332243Y-99193508D01*
X109156504Y-99017769D01*
X109005208Y-98820595D01*
X108880942Y-98605361D01*
X108785833Y-98375747D01*
X108721508Y-98135684D01*
X108689068Y-97889278D01*
X108689068Y-97640746D01*
X108721508Y-97394340D01*
X108785833Y-97154277D01*
X108880942Y-96924663D01*
X109005208Y-96709429D01*
X109156504Y-96512255D01*
X109332243Y-96336516D01*
X109529417Y-96185220D01*
X109744651Y-96060954D01*
X109974265Y-95965845D01*
X110214328Y-95901520D01*
X110460734Y-95869080D01*
X110709266Y-95869080D01*
X110955672Y-95901520D01*
G37*
G36*
X122218074Y-95343853D02*
G01*
X122411807Y-95374538D01*
X122598354Y-95435151D01*
X122773123Y-95524200D01*
X122931810Y-95639493D01*
X123070507Y-95778190D01*
X123185800Y-95936877D01*
X123274849Y-96111646D01*
X123335462Y-96298193D01*
X123366147Y-96491926D01*
X123366147Y-96688074D01*
X123335462Y-96881807D01*
X123274849Y-97068354D01*
X123185800Y-97243123D01*
X123070507Y-97401810D01*
X122931810Y-97540507D01*
X122773123Y-97655800D01*
X122598354Y-97744849D01*
X122411807Y-97805462D01*
X122218074Y-97836147D01*
X122120000Y-97840000D01*
X122118999Y-97840000D01*
X121121001Y-97840000D01*
X121120000Y-97840000D01*
X121021926Y-97836147D01*
X120828193Y-97805462D01*
X120641646Y-97744849D01*
X120466877Y-97655800D01*
X120308190Y-97540507D01*
X120169493Y-97401810D01*
X120054200Y-97243123D01*
X119965151Y-97068354D01*
X119904538Y-96881807D01*
X119873853Y-96688074D01*
X119873853Y-96491926D01*
X119904538Y-96298193D01*
X119965151Y-96111646D01*
X120054200Y-95936877D01*
X120169493Y-95778190D01*
X120308190Y-95639493D01*
X120466877Y-95524200D01*
X120641646Y-95435151D01*
X120828193Y-95374538D01*
X121021926Y-95343853D01*
X121120000Y-95340000D01*
X122120000Y-95340000D01*
X122218074Y-95343853D01*
G37*
G36*
X132218074Y-95343853D02*
G01*
X132411807Y-95374538D01*
X132598354Y-95435151D01*
X132773123Y-95524200D01*
X132931810Y-95639493D01*
X133070507Y-95778190D01*
X133185800Y-95936877D01*
X133274849Y-96111646D01*
X133335462Y-96298193D01*
X133366147Y-96491926D01*
X133366147Y-96688074D01*
X133335462Y-96881807D01*
X133274849Y-97068354D01*
X133185800Y-97243123D01*
X133070507Y-97401810D01*
X132931810Y-97540507D01*
X132773123Y-97655800D01*
X132598354Y-97744849D01*
X132411807Y-97805462D01*
X132218074Y-97836147D01*
X132120000Y-97840000D01*
X132118999Y-97840000D01*
X131121001Y-97840000D01*
X131120000Y-97840000D01*
X131021926Y-97836147D01*
X130828193Y-97805462D01*
X130641646Y-97744849D01*
X130466877Y-97655800D01*
X130308190Y-97540507D01*
X130169493Y-97401810D01*
X130054200Y-97243123D01*
X129965151Y-97068354D01*
X129904538Y-96881807D01*
X129873853Y-96688074D01*
X129873853Y-96491926D01*
X129904538Y-96298193D01*
X129965151Y-96111646D01*
X130054200Y-95936877D01*
X130169493Y-95778190D01*
X130308190Y-95639493D01*
X130466877Y-95524200D01*
X130641646Y-95435151D01*
X130828193Y-95374538D01*
X131021926Y-95343853D01*
X131120000Y-95340000D01*
X132120000Y-95340000D01*
X132218074Y-95343853D01*
G37*
G36*
X110520000Y-94600000D02*
G01*
X108820000Y-94600000D01*
X108820000Y-92900000D01*
X110520000Y-92900000D01*
X110520000Y-94600000D01*
G37*
G36*
X109916742Y-90396601D02*
G01*
X110070687Y-90460367D01*
X110209234Y-90552941D01*
X110327059Y-90670766D01*
X110419633Y-90809313D01*
X110483399Y-90963258D01*
X110515907Y-91126685D01*
X110515907Y-91293315D01*
X110483399Y-91456742D01*
X110419633Y-91610687D01*
X110327059Y-91749234D01*
X110209234Y-91867059D01*
X110070687Y-91959633D01*
X109916742Y-92023399D01*
X109753315Y-92055907D01*
X109586685Y-92055907D01*
X109423258Y-92023399D01*
X109269313Y-91959633D01*
X109130766Y-91867059D01*
X109012941Y-91749234D01*
X108920367Y-91610687D01*
X108856601Y-91456742D01*
X108824093Y-91293315D01*
X108824093Y-91126685D01*
X108856601Y-90963258D01*
X108920367Y-90809313D01*
X109012941Y-90670766D01*
X109130766Y-90552941D01*
X109269313Y-90460367D01*
X109423258Y-90396601D01*
X109586685Y-90364093D01*
X109753315Y-90364093D01*
X109916742Y-90396601D01*
G37*
G36*
X109916742Y-87856601D02*
G01*
X110070687Y-87920367D01*
X110209234Y-88012941D01*
X110327059Y-88130766D01*
X110419633Y-88269313D01*
X110483399Y-88423258D01*
X110515907Y-88586685D01*
X110515907Y-88753315D01*
X110483399Y-88916742D01*
X110419633Y-89070687D01*
X110327059Y-89209234D01*
X110209234Y-89327059D01*
X110070687Y-89419633D01*
X109916742Y-89483399D01*
X109753315Y-89515907D01*
X109586685Y-89515907D01*
X109423258Y-89483399D01*
X109269313Y-89419633D01*
X109130766Y-89327059D01*
X109012941Y-89209234D01*
X108920367Y-89070687D01*
X108856601Y-88916742D01*
X108824093Y-88753315D01*
X108824093Y-88586685D01*
X108856601Y-88423258D01*
X108920367Y-88269313D01*
X109012941Y-88130766D01*
X109130766Y-88012941D01*
X109269313Y-87920367D01*
X109423258Y-87856601D01*
X109586685Y-87824093D01*
X109753315Y-87824093D01*
X109916742Y-87856601D01*
G37*
G36*
X109916742Y-85316601D02*
G01*
X110070687Y-85380367D01*
X110209234Y-85472941D01*
X110327059Y-85590766D01*
X110419633Y-85729313D01*
X110483399Y-85883258D01*
X110515907Y-86046685D01*
X110515907Y-86213315D01*
X110483399Y-86376742D01*
X110419633Y-86530687D01*
X110327059Y-86669234D01*
X110209234Y-86787059D01*
X110070687Y-86879633D01*
X109916742Y-86943399D01*
X109753315Y-86975907D01*
X109586685Y-86975907D01*
X109423258Y-86943399D01*
X109269313Y-86879633D01*
X109130766Y-86787059D01*
X109012941Y-86669234D01*
X108920367Y-86530687D01*
X108856601Y-86376742D01*
X108824093Y-86213315D01*
X108824093Y-86046685D01*
X108856601Y-85883258D01*
X108920367Y-85729313D01*
X109012941Y-85590766D01*
X109130766Y-85472941D01*
X109269313Y-85380367D01*
X109423258Y-85316601D01*
X109586685Y-85284093D01*
X109753315Y-85284093D01*
X109916742Y-85316601D01*
G37*
G36*
X109916742Y-82776601D02*
G01*
X110070687Y-82840367D01*
X110209234Y-82932941D01*
X110327059Y-83050766D01*
X110419633Y-83189313D01*
X110483399Y-83343258D01*
X110515907Y-83506685D01*
X110515907Y-83673315D01*
X110483399Y-83836742D01*
X110419633Y-83990687D01*
X110327059Y-84129234D01*
X110209234Y-84247059D01*
X110070687Y-84339633D01*
X109916742Y-84403399D01*
X109753315Y-84435907D01*
X109586685Y-84435907D01*
X109423258Y-84403399D01*
X109269313Y-84339633D01*
X109130766Y-84247059D01*
X109012941Y-84129234D01*
X108920367Y-83990687D01*
X108856601Y-83836742D01*
X108824093Y-83673315D01*
X108824093Y-83506685D01*
X108856601Y-83343258D01*
X108920367Y-83189313D01*
X109012941Y-83050766D01*
X109130766Y-82932941D01*
X109269313Y-82840367D01*
X109423258Y-82776601D01*
X109586685Y-82744093D01*
X109753315Y-82744093D01*
X109916742Y-82776601D01*
G37*
G36*
X109916742Y-80236601D02*
G01*
X110070687Y-80300367D01*
X110209234Y-80392941D01*
X110327059Y-80510766D01*
X110419633Y-80649313D01*
X110483399Y-80803258D01*
X110515907Y-80966685D01*
X110515907Y-81133315D01*
X110483399Y-81296742D01*
X110419633Y-81450687D01*
X110327059Y-81589234D01*
X110209234Y-81707059D01*
X110070687Y-81799633D01*
X109916742Y-81863399D01*
X109753315Y-81895907D01*
X109586685Y-81895907D01*
X109423258Y-81863399D01*
X109269313Y-81799633D01*
X109130766Y-81707059D01*
X109012941Y-81589234D01*
X108920367Y-81450687D01*
X108856601Y-81296742D01*
X108824093Y-81133315D01*
X108824093Y-80966685D01*
X108856601Y-80803258D01*
X108920367Y-80649313D01*
X109012941Y-80510766D01*
X109130766Y-80392941D01*
X109269313Y-80300367D01*
X109423258Y-80236601D01*
X109586685Y-80204093D01*
X109753315Y-80204093D01*
X109916742Y-80236601D01*
G37*
G36*
X109916742Y-77696601D02*
G01*
X110070687Y-77760367D01*
X110209234Y-77852941D01*
X110327059Y-77970766D01*
X110419633Y-78109313D01*
X110483399Y-78263258D01*
X110515907Y-78426685D01*
X110515907Y-78593315D01*
X110483399Y-78756742D01*
X110419633Y-78910687D01*
X110327059Y-79049234D01*
X110209234Y-79167059D01*
X110070687Y-79259633D01*
X109916742Y-79323399D01*
X109753315Y-79355907D01*
X109586685Y-79355907D01*
X109423258Y-79323399D01*
X109269313Y-79259633D01*
X109130766Y-79167059D01*
X109012941Y-79049234D01*
X108920367Y-78910687D01*
X108856601Y-78756742D01*
X108824093Y-78593315D01*
X108824093Y-78426685D01*
X108856601Y-78263258D01*
X108920367Y-78109313D01*
X109012941Y-77970766D01*
X109130766Y-77852941D01*
X109269313Y-77760367D01*
X109423258Y-77696601D01*
X109586685Y-77664093D01*
X109753315Y-77664093D01*
X109916742Y-77696601D01*
G37*
G36*
X109916742Y-75156601D02*
G01*
X110070687Y-75220367D01*
X110209234Y-75312941D01*
X110327059Y-75430766D01*
X110419633Y-75569313D01*
X110483399Y-75723258D01*
X110515907Y-75886685D01*
X110515907Y-76053315D01*
X110483399Y-76216742D01*
X110419633Y-76370687D01*
X110327059Y-76509234D01*
X110209234Y-76627059D01*
X110070687Y-76719633D01*
X109916742Y-76783399D01*
X109753315Y-76815907D01*
X109586685Y-76815907D01*
X109423258Y-76783399D01*
X109269313Y-76719633D01*
X109130766Y-76627059D01*
X109012941Y-76509234D01*
X108920367Y-76370687D01*
X108856601Y-76216742D01*
X108824093Y-76053315D01*
X108824093Y-75886685D01*
X108856601Y-75723258D01*
X108920367Y-75569313D01*
X109012941Y-75430766D01*
X109130766Y-75312941D01*
X109269313Y-75220367D01*
X109423258Y-75156601D01*
X109586685Y-75124093D01*
X109753315Y-75124093D01*
X109916742Y-75156601D01*
G37*
G36*
X109916742Y-72616601D02*
G01*
X110070687Y-72680367D01*
X110209234Y-72772941D01*
X110327059Y-72890766D01*
X110419633Y-73029313D01*
X110483399Y-73183258D01*
X110515907Y-73346685D01*
X110515907Y-73513315D01*
X110483399Y-73676742D01*
X110419633Y-73830687D01*
X110327059Y-73969234D01*
X110209234Y-74087059D01*
X110070687Y-74179633D01*
X109916742Y-74243399D01*
X109753315Y-74275907D01*
X109586685Y-74275907D01*
X109423258Y-74243399D01*
X109269313Y-74179633D01*
X109130766Y-74087059D01*
X109012941Y-73969234D01*
X108920367Y-73830687D01*
X108856601Y-73676742D01*
X108824093Y-73513315D01*
X108824093Y-73346685D01*
X108856601Y-73183258D01*
X108920367Y-73029313D01*
X109012941Y-72890766D01*
X109130766Y-72772941D01*
X109269313Y-72680367D01*
X109423258Y-72616601D01*
X109586685Y-72584093D01*
X109753315Y-72584093D01*
X109916742Y-72616601D01*
G37*
G36*
X109916742Y-70076601D02*
G01*
X110070687Y-70140367D01*
X110209234Y-70232941D01*
X110327059Y-70350766D01*
X110419633Y-70489313D01*
X110483399Y-70643258D01*
X110515907Y-70806685D01*
X110515907Y-70973315D01*
X110483399Y-71136742D01*
X110419633Y-71290687D01*
X110327059Y-71429234D01*
X110209234Y-71547059D01*
X110070687Y-71639633D01*
X109916742Y-71703399D01*
X109753315Y-71735907D01*
X109586685Y-71735907D01*
X109423258Y-71703399D01*
X109269313Y-71639633D01*
X109130766Y-71547059D01*
X109012941Y-71429234D01*
X108920367Y-71290687D01*
X108856601Y-71136742D01*
X108824093Y-70973315D01*
X108824093Y-70806685D01*
X108856601Y-70643258D01*
X108920367Y-70489313D01*
X109012941Y-70350766D01*
X109130766Y-70232941D01*
X109269313Y-70140367D01*
X109423258Y-70076601D01*
X109586685Y-70044093D01*
X109753315Y-70044093D01*
X109916742Y-70076601D01*
G37*
G36*
X111355672Y-46301520D02*
G01*
X111595735Y-46365845D01*
X111825349Y-46460954D01*
X112040583Y-46585220D01*
X112237757Y-46736516D01*
X112413496Y-46912255D01*
X112564792Y-47109429D01*
X112689058Y-47324663D01*
X112784167Y-47554277D01*
X112848492Y-47794340D01*
X112880932Y-48040746D01*
X112880932Y-48289278D01*
X112848492Y-48535684D01*
X112784167Y-48775747D01*
X112689058Y-49005361D01*
X112564792Y-49220595D01*
X112413496Y-49417769D01*
X112237757Y-49593508D01*
X112040583Y-49744804D01*
X111825349Y-49869070D01*
X111595735Y-49964179D01*
X111355672Y-50028504D01*
X111109266Y-50060944D01*
X110860734Y-50060944D01*
X110614328Y-50028504D01*
X110374265Y-49964179D01*
X110144651Y-49869070D01*
X109929417Y-49744804D01*
X109732243Y-49593508D01*
X109556504Y-49417769D01*
X109405208Y-49220595D01*
X109280942Y-49005361D01*
X109185833Y-48775747D01*
X109121508Y-48535684D01*
X109089068Y-48289278D01*
X109089068Y-48040746D01*
X109121508Y-47794340D01*
X109185833Y-47554277D01*
X109280942Y-47324663D01*
X109405208Y-47109429D01*
X109556504Y-46912255D01*
X109732243Y-46736516D01*
X109929417Y-46585220D01*
X110144651Y-46460954D01*
X110374265Y-46365845D01*
X110614328Y-46301520D01*
X110860734Y-46269080D01*
X111109266Y-46269080D01*
X111355672Y-46301520D01*
G37*
G36*
X144595672Y-46241508D02*
G01*
X144835735Y-46305833D01*
X145065349Y-46400942D01*
X145280583Y-46525208D01*
X145477757Y-46676504D01*
X145653496Y-46852243D01*
X145804792Y-47049417D01*
X145929058Y-47264651D01*
X146024167Y-47494265D01*
X146088492Y-47734328D01*
X146120932Y-47980734D01*
X146120932Y-48229266D01*
X146088492Y-48475672D01*
X146024167Y-48715735D01*
X145929058Y-48945349D01*
X145804792Y-49160583D01*
X145653496Y-49357757D01*
X145477757Y-49533496D01*
X145280583Y-49684792D01*
X145065349Y-49809058D01*
X144835735Y-49904167D01*
X144595672Y-49968492D01*
X144349266Y-50000932D01*
X144100734Y-50000932D01*
X143854328Y-49968492D01*
X143614265Y-49904167D01*
X143384651Y-49809058D01*
X143169417Y-49684792D01*
X142972243Y-49533496D01*
X142796504Y-49357757D01*
X142645208Y-49160583D01*
X142520942Y-48945349D01*
X142425833Y-48715735D01*
X142361508Y-48475672D01*
X142329068Y-48229266D01*
X142329068Y-47980734D01*
X142361508Y-47734328D01*
X142425833Y-47494265D01*
X142520942Y-47264651D01*
X142645208Y-47049417D01*
X142796504Y-46852243D01*
X142972243Y-46676504D01*
X143169417Y-46525208D01*
X143384651Y-46400942D01*
X143614265Y-46305833D01*
X143854328Y-46241508D01*
X144100734Y-46209068D01*
X144349266Y-46209068D01*
X144595672Y-46241508D01*
G37*
M02*
