%TF.GenerationSoftware,KiCad,Pcbnew,9.0.7*%
%TF.CreationDate,2026-04-27T12:14:21-07:00*%
%TF.ProjectId,Primary_Board,5072696d-6172-4795-9f42-6f6172642e6b,rev?*%
%TF.SameCoordinates,Original*%
%TF.FileFunction,Soldermask,Top*%
%TF.FilePolarity,Negative*%
%FSLAX46Y46*%
G04 Gerber Fmt 4.6, Leading zero omitted, Abs format (unit mm)*
G04 Created by KiCad (PCBNEW 9.0.7) date 2026-04-27 12:14:21*
%MOMM*%
%LPD*%
G01*
G04 APERTURE LIST*
G04 APERTURE END LIST*
G36*
X145446742Y-127308601D02*
G01*
X145600687Y-127372367D01*
X145739234Y-127464941D01*
X145857059Y-127582766D01*
X145949633Y-127721313D01*
X146013399Y-127875258D01*
X146045907Y-128038685D01*
X146045907Y-128205315D01*
X146013399Y-128368742D01*
X145949633Y-128522687D01*
X145857059Y-128661234D01*
X145739234Y-128779059D01*
X145600687Y-128871633D01*
X145446742Y-128935399D01*
X145283315Y-128967907D01*
X145116685Y-128967907D01*
X144953258Y-128935399D01*
X144799313Y-128871633D01*
X144660766Y-128779059D01*
X144542941Y-128661234D01*
X144450367Y-128522687D01*
X144386601Y-128368742D01*
X144354093Y-128205315D01*
X144354093Y-128038685D01*
X144386601Y-127875258D01*
X144450367Y-127721313D01*
X144542941Y-127582766D01*
X144660766Y-127464941D01*
X144799313Y-127372367D01*
X144953258Y-127308601D01*
X145116685Y-127276093D01*
X145283315Y-127276093D01*
X145446742Y-127308601D01*
G37*
G36*
X147986742Y-127308601D02*
G01*
X148140687Y-127372367D01*
X148279234Y-127464941D01*
X148397059Y-127582766D01*
X148489633Y-127721313D01*
X148553399Y-127875258D01*
X148585907Y-128038685D01*
X148585907Y-128205315D01*
X148553399Y-128368742D01*
X148489633Y-128522687D01*
X148397059Y-128661234D01*
X148279234Y-128779059D01*
X148140687Y-128871633D01*
X147986742Y-128935399D01*
X147823315Y-128967907D01*
X147656685Y-128967907D01*
X147493258Y-128935399D01*
X147339313Y-128871633D01*
X147200766Y-128779059D01*
X147082941Y-128661234D01*
X146990367Y-128522687D01*
X146926601Y-128368742D01*
X146894093Y-128205315D01*
X146894093Y-128038685D01*
X146926601Y-127875258D01*
X146990367Y-127721313D01*
X147082941Y-127582766D01*
X147200766Y-127464941D01*
X147339313Y-127372367D01*
X147493258Y-127308601D01*
X147656685Y-127276093D01*
X147823315Y-127276093D01*
X147986742Y-127308601D01*
G37*
G36*
X129770672Y-125186508D02*
G01*
X130010735Y-125250833D01*
X130240349Y-125345942D01*
X130455583Y-125470208D01*
X130652757Y-125621504D01*
X130828496Y-125797243D01*
X130979792Y-125994417D01*
X131104058Y-126209651D01*
X131199167Y-126439265D01*
X131263492Y-126679328D01*
X131295932Y-126925734D01*
X131295932Y-127174266D01*
X131263492Y-127420672D01*
X131199167Y-127660735D01*
X131104058Y-127890349D01*
X130979792Y-128105583D01*
X130828496Y-128302757D01*
X130652757Y-128478496D01*
X130455583Y-128629792D01*
X130240349Y-128754058D01*
X130010735Y-128849167D01*
X129770672Y-128913492D01*
X129524266Y-128945932D01*
X129275734Y-128945932D01*
X129029328Y-128913492D01*
X128789265Y-128849167D01*
X128559651Y-128754058D01*
X128344417Y-128629792D01*
X128147243Y-128478496D01*
X127971504Y-128302757D01*
X127820208Y-128105583D01*
X127695942Y-127890349D01*
X127600833Y-127660735D01*
X127536508Y-127420672D01*
X127504068Y-127174266D01*
X127504068Y-126925734D01*
X127536508Y-126679328D01*
X127600833Y-126439265D01*
X127695942Y-126209651D01*
X127820208Y-125994417D01*
X127971504Y-125797243D01*
X128147243Y-125621504D01*
X128344417Y-125470208D01*
X128559651Y-125345942D01*
X128789265Y-125250833D01*
X129029328Y-125186508D01*
X129275734Y-125154068D01*
X129524266Y-125154068D01*
X129770672Y-125186508D01*
G37*
G36*
X163270672Y-125186508D02*
G01*
X163510735Y-125250833D01*
X163740349Y-125345942D01*
X163955583Y-125470208D01*
X164152757Y-125621504D01*
X164328496Y-125797243D01*
X164479792Y-125994417D01*
X164604058Y-126209651D01*
X164699167Y-126439265D01*
X164763492Y-126679328D01*
X164795932Y-126925734D01*
X164795932Y-127174266D01*
X164763492Y-127420672D01*
X164699167Y-127660735D01*
X164604058Y-127890349D01*
X164479792Y-128105583D01*
X164328496Y-128302757D01*
X164152757Y-128478496D01*
X163955583Y-128629792D01*
X163740349Y-128754058D01*
X163510735Y-128849167D01*
X163270672Y-128913492D01*
X163024266Y-128945932D01*
X162775734Y-128945932D01*
X162529328Y-128913492D01*
X162289265Y-128849167D01*
X162059651Y-128754058D01*
X161844417Y-128629792D01*
X161647243Y-128478496D01*
X161471504Y-128302757D01*
X161320208Y-128105583D01*
X161195942Y-127890349D01*
X161100833Y-127660735D01*
X161036508Y-127420672D01*
X161004068Y-127174266D01*
X161004068Y-126925734D01*
X161036508Y-126679328D01*
X161100833Y-126439265D01*
X161195942Y-126209651D01*
X161320208Y-125994417D01*
X161471504Y-125797243D01*
X161647243Y-125621504D01*
X161844417Y-125470208D01*
X162059651Y-125345942D01*
X162289265Y-125250833D01*
X162529328Y-125186508D01*
X162775734Y-125154068D01*
X163024266Y-125154068D01*
X163270672Y-125186508D01*
G37*
G36*
X139365410Y-126074861D02*
G01*
X139372817Y-126077782D01*
X139377443Y-126078391D01*
X139438611Y-126103727D01*
X139504953Y-126129889D01*
X139508782Y-126132793D01*
X139510180Y-126133372D01*
X139563654Y-126174404D01*
X139624474Y-126220526D01*
X139670615Y-126281371D01*
X139711627Y-126334819D01*
X139712205Y-126336215D01*
X139715111Y-126340047D01*
X139741277Y-126406402D01*
X139766609Y-126467557D01*
X139767217Y-126472182D01*
X139770139Y-126479590D01*
X139785800Y-126610000D01*
X139785800Y-127610000D01*
X139770139Y-127740410D01*
X139767216Y-127747821D01*
X139766608Y-127752443D01*
X139741292Y-127813560D01*
X139715111Y-127879953D01*
X139712204Y-127883785D01*
X139711627Y-127885180D01*
X139670680Y-127938542D01*
X139624474Y-127999474D01*
X139563542Y-128045680D01*
X139510180Y-128086627D01*
X139508785Y-128087204D01*
X139504953Y-128090111D01*
X139438576Y-128116286D01*
X139377442Y-128141609D01*
X139372817Y-128142217D01*
X139365410Y-128145139D01*
X139235000Y-128160800D01*
X137485000Y-128160800D01*
X137354590Y-128145139D01*
X137347179Y-128142216D01*
X137342556Y-128141608D01*
X137281418Y-128116284D01*
X137215047Y-128090111D01*
X137211215Y-128087205D01*
X137209819Y-128086627D01*
X137156371Y-128045615D01*
X137095526Y-127999474D01*
X137049404Y-127938654D01*
X137008372Y-127885180D01*
X137007793Y-127883782D01*
X137004889Y-127879953D01*
X136978733Y-127813627D01*
X136953390Y-127752442D01*
X136952780Y-127747814D01*
X136949861Y-127740410D01*
X136934200Y-127610000D01*
X136934200Y-126610000D01*
X136949861Y-126479590D01*
X136952781Y-126472183D01*
X136953391Y-126467556D01*
X136978735Y-126406367D01*
X137004889Y-126340047D01*
X137007792Y-126336218D01*
X137008372Y-126334819D01*
X137049468Y-126281260D01*
X137095526Y-126220526D01*
X137156260Y-126174468D01*
X137209819Y-126133372D01*
X137211218Y-126132792D01*
X137215047Y-126129889D01*
X137281352Y-126103741D01*
X137342557Y-126078390D01*
X137347186Y-126077780D01*
X137354590Y-126074861D01*
X137485000Y-126059200D01*
X139235000Y-126059200D01*
X139365410Y-126074861D01*
G37*
G36*
X155530410Y-126074861D02*
G01*
X155537817Y-126077782D01*
X155542443Y-126078391D01*
X155603611Y-126103727D01*
X155669953Y-126129889D01*
X155673782Y-126132793D01*
X155675180Y-126133372D01*
X155728654Y-126174404D01*
X155789474Y-126220526D01*
X155835615Y-126281371D01*
X155876627Y-126334819D01*
X155877205Y-126336215D01*
X155880111Y-126340047D01*
X155906277Y-126406402D01*
X155931609Y-126467557D01*
X155932217Y-126472182D01*
X155935139Y-126479590D01*
X155950800Y-126610000D01*
X155950800Y-127610000D01*
X155935139Y-127740410D01*
X155932216Y-127747821D01*
X155931608Y-127752443D01*
X155906292Y-127813560D01*
X155880111Y-127879953D01*
X155877204Y-127883785D01*
X155876627Y-127885180D01*
X155835680Y-127938542D01*
X155789474Y-127999474D01*
X155728542Y-128045680D01*
X155675180Y-128086627D01*
X155673785Y-128087204D01*
X155669953Y-128090111D01*
X155603576Y-128116286D01*
X155542442Y-128141609D01*
X155537817Y-128142217D01*
X155530410Y-128145139D01*
X155400000Y-128160800D01*
X153650000Y-128160800D01*
X153519590Y-128145139D01*
X153512179Y-128142216D01*
X153507556Y-128141608D01*
X153446418Y-128116284D01*
X153380047Y-128090111D01*
X153376215Y-128087205D01*
X153374819Y-128086627D01*
X153321371Y-128045615D01*
X153260526Y-127999474D01*
X153214404Y-127938654D01*
X153173372Y-127885180D01*
X153172793Y-127883782D01*
X153169889Y-127879953D01*
X153143733Y-127813627D01*
X153118390Y-127752442D01*
X153117780Y-127747814D01*
X153114861Y-127740410D01*
X153099200Y-127610000D01*
X153099200Y-126610000D01*
X153114861Y-126479590D01*
X153117781Y-126472183D01*
X153118391Y-126467556D01*
X153143735Y-126406367D01*
X153169889Y-126340047D01*
X153172792Y-126336218D01*
X153173372Y-126334819D01*
X153214468Y-126281260D01*
X153260526Y-126220526D01*
X153321260Y-126174468D01*
X153374819Y-126133372D01*
X153376218Y-126132792D01*
X153380047Y-126129889D01*
X153446352Y-126103741D01*
X153507557Y-126078390D01*
X153512186Y-126077780D01*
X153519590Y-126074861D01*
X153650000Y-126059200D01*
X155400000Y-126059200D01*
X155530410Y-126074861D01*
G37*
G36*
X145446742Y-124768601D02*
G01*
X145600687Y-124832367D01*
X145739234Y-124924941D01*
X145857059Y-125042766D01*
X145949633Y-125181313D01*
X146013399Y-125335258D01*
X146045907Y-125498685D01*
X146045907Y-125665315D01*
X146013399Y-125828742D01*
X145949633Y-125982687D01*
X145857059Y-126121234D01*
X145739234Y-126239059D01*
X145600687Y-126331633D01*
X145446742Y-126395399D01*
X145283315Y-126427907D01*
X145116685Y-126427907D01*
X144953258Y-126395399D01*
X144799313Y-126331633D01*
X144660766Y-126239059D01*
X144542941Y-126121234D01*
X144450367Y-125982687D01*
X144386601Y-125828742D01*
X144354093Y-125665315D01*
X144354093Y-125498685D01*
X144386601Y-125335258D01*
X144450367Y-125181313D01*
X144542941Y-125042766D01*
X144660766Y-124924941D01*
X144799313Y-124832367D01*
X144953258Y-124768601D01*
X145116685Y-124736093D01*
X145283315Y-124736093D01*
X145446742Y-124768601D01*
G37*
G36*
X147986742Y-124768601D02*
G01*
X148140687Y-124832367D01*
X148279234Y-124924941D01*
X148397059Y-125042766D01*
X148489633Y-125181313D01*
X148553399Y-125335258D01*
X148585907Y-125498685D01*
X148585907Y-125665315D01*
X148553399Y-125828742D01*
X148489633Y-125982687D01*
X148397059Y-126121234D01*
X148279234Y-126239059D01*
X148140687Y-126331633D01*
X147986742Y-126395399D01*
X147823315Y-126427907D01*
X147656685Y-126427907D01*
X147493258Y-126395399D01*
X147339313Y-126331633D01*
X147200766Y-126239059D01*
X147082941Y-126121234D01*
X146990367Y-125982687D01*
X146926601Y-125828742D01*
X146894093Y-125665315D01*
X146894093Y-125498685D01*
X146926601Y-125335258D01*
X146990367Y-125181313D01*
X147082941Y-125042766D01*
X147200766Y-124924941D01*
X147339313Y-124832367D01*
X147493258Y-124768601D01*
X147656685Y-124736093D01*
X147823315Y-124736093D01*
X147986742Y-124768601D01*
G37*
G36*
X139365410Y-123534861D02*
G01*
X139372817Y-123537782D01*
X139377443Y-123538391D01*
X139438611Y-123563727D01*
X139504953Y-123589889D01*
X139508782Y-123592793D01*
X139510180Y-123593372D01*
X139563654Y-123634404D01*
X139624474Y-123680526D01*
X139670615Y-123741371D01*
X139711627Y-123794819D01*
X139712205Y-123796215D01*
X139715111Y-123800047D01*
X139741277Y-123866402D01*
X139766609Y-123927557D01*
X139767217Y-123932182D01*
X139770139Y-123939590D01*
X139785800Y-124070000D01*
X139785800Y-125070000D01*
X139770139Y-125200410D01*
X139767216Y-125207821D01*
X139766608Y-125212443D01*
X139741292Y-125273560D01*
X139715111Y-125339953D01*
X139712204Y-125343785D01*
X139711627Y-125345180D01*
X139670680Y-125398542D01*
X139624474Y-125459474D01*
X139563542Y-125505680D01*
X139510180Y-125546627D01*
X139508785Y-125547204D01*
X139504953Y-125550111D01*
X139438576Y-125576286D01*
X139377442Y-125601609D01*
X139372817Y-125602217D01*
X139365410Y-125605139D01*
X139235000Y-125620800D01*
X137485000Y-125620800D01*
X137354590Y-125605139D01*
X137347179Y-125602216D01*
X137342556Y-125601608D01*
X137281418Y-125576284D01*
X137215047Y-125550111D01*
X137211215Y-125547205D01*
X137209819Y-125546627D01*
X137156371Y-125505615D01*
X137095526Y-125459474D01*
X137049404Y-125398654D01*
X137008372Y-125345180D01*
X137007793Y-125343782D01*
X137004889Y-125339953D01*
X136978733Y-125273627D01*
X136953390Y-125212442D01*
X136952780Y-125207814D01*
X136949861Y-125200410D01*
X136934200Y-125070000D01*
X136934200Y-124070000D01*
X136949861Y-123939590D01*
X136952781Y-123932183D01*
X136953391Y-123927556D01*
X136978735Y-123866367D01*
X137004889Y-123800047D01*
X137007792Y-123796218D01*
X137008372Y-123794819D01*
X137049468Y-123741260D01*
X137095526Y-123680526D01*
X137156260Y-123634468D01*
X137209819Y-123593372D01*
X137211218Y-123592792D01*
X137215047Y-123589889D01*
X137281352Y-123563741D01*
X137342557Y-123538390D01*
X137347186Y-123537780D01*
X137354590Y-123534861D01*
X137485000Y-123519200D01*
X139235000Y-123519200D01*
X139365410Y-123534861D01*
G37*
G36*
X155530410Y-123534861D02*
G01*
X155537817Y-123537782D01*
X155542443Y-123538391D01*
X155603611Y-123563727D01*
X155669953Y-123589889D01*
X155673782Y-123592793D01*
X155675180Y-123593372D01*
X155728654Y-123634404D01*
X155789474Y-123680526D01*
X155835615Y-123741371D01*
X155876627Y-123794819D01*
X155877205Y-123796215D01*
X155880111Y-123800047D01*
X155906277Y-123866402D01*
X155931609Y-123927557D01*
X155932217Y-123932182D01*
X155935139Y-123939590D01*
X155950800Y-124070000D01*
X155950800Y-125070000D01*
X155935139Y-125200410D01*
X155932216Y-125207821D01*
X155931608Y-125212443D01*
X155906292Y-125273560D01*
X155880111Y-125339953D01*
X155877204Y-125343785D01*
X155876627Y-125345180D01*
X155835680Y-125398542D01*
X155789474Y-125459474D01*
X155728542Y-125505680D01*
X155675180Y-125546627D01*
X155673785Y-125547204D01*
X155669953Y-125550111D01*
X155603576Y-125576286D01*
X155542442Y-125601609D01*
X155537817Y-125602217D01*
X155530410Y-125605139D01*
X155400000Y-125620800D01*
X153650000Y-125620800D01*
X153519590Y-125605139D01*
X153512179Y-125602216D01*
X153507556Y-125601608D01*
X153446418Y-125576284D01*
X153380047Y-125550111D01*
X153376215Y-125547205D01*
X153374819Y-125546627D01*
X153321371Y-125505615D01*
X153260526Y-125459474D01*
X153214404Y-125398654D01*
X153173372Y-125345180D01*
X153172793Y-125343782D01*
X153169889Y-125339953D01*
X153143733Y-125273627D01*
X153118390Y-125212442D01*
X153117780Y-125207814D01*
X153114861Y-125200410D01*
X153099200Y-125070000D01*
X153099200Y-124070000D01*
X153114861Y-123939590D01*
X153117781Y-123932183D01*
X153118391Y-123927556D01*
X153143735Y-123866367D01*
X153169889Y-123800047D01*
X153172792Y-123796218D01*
X153173372Y-123794819D01*
X153214468Y-123741260D01*
X153260526Y-123680526D01*
X153321260Y-123634468D01*
X153374819Y-123593372D01*
X153376218Y-123592792D01*
X153380047Y-123589889D01*
X153446352Y-123563741D01*
X153507557Y-123538390D01*
X153512186Y-123537780D01*
X153519590Y-123534861D01*
X153650000Y-123519200D01*
X155400000Y-123519200D01*
X155530410Y-123534861D01*
G37*
G36*
X128670000Y-123930000D02*
G01*
X126970000Y-123930000D01*
X126970000Y-122230000D01*
X128670000Y-122230000D01*
X128670000Y-123930000D01*
G37*
G36*
X145446742Y-122228601D02*
G01*
X145600687Y-122292367D01*
X145739234Y-122384941D01*
X145857059Y-122502766D01*
X145949633Y-122641313D01*
X146013399Y-122795258D01*
X146045907Y-122958685D01*
X146045907Y-123125315D01*
X146013399Y-123288742D01*
X145949633Y-123442687D01*
X145857059Y-123581234D01*
X145739234Y-123699059D01*
X145600687Y-123791633D01*
X145446742Y-123855399D01*
X145283315Y-123887907D01*
X145116685Y-123887907D01*
X144953258Y-123855399D01*
X144799313Y-123791633D01*
X144660766Y-123699059D01*
X144542941Y-123581234D01*
X144450367Y-123442687D01*
X144386601Y-123288742D01*
X144354093Y-123125315D01*
X144354093Y-122958685D01*
X144386601Y-122795258D01*
X144450367Y-122641313D01*
X144542941Y-122502766D01*
X144660766Y-122384941D01*
X144799313Y-122292367D01*
X144953258Y-122228601D01*
X145116685Y-122196093D01*
X145283315Y-122196093D01*
X145446742Y-122228601D01*
G37*
G36*
X147986742Y-122228601D02*
G01*
X148140687Y-122292367D01*
X148279234Y-122384941D01*
X148397059Y-122502766D01*
X148489633Y-122641313D01*
X148553399Y-122795258D01*
X148585907Y-122958685D01*
X148585907Y-123125315D01*
X148553399Y-123288742D01*
X148489633Y-123442687D01*
X148397059Y-123581234D01*
X148279234Y-123699059D01*
X148140687Y-123791633D01*
X147986742Y-123855399D01*
X147823315Y-123887907D01*
X147656685Y-123887907D01*
X147493258Y-123855399D01*
X147339313Y-123791633D01*
X147200766Y-123699059D01*
X147082941Y-123581234D01*
X146990367Y-123442687D01*
X146926601Y-123288742D01*
X146894093Y-123125315D01*
X146894093Y-122958685D01*
X146926601Y-122795258D01*
X146990367Y-122641313D01*
X147082941Y-122502766D01*
X147200766Y-122384941D01*
X147339313Y-122292367D01*
X147493258Y-122228601D01*
X147656685Y-122196093D01*
X147823315Y-122196093D01*
X147986742Y-122228601D01*
G37*
G36*
X139365410Y-120994861D02*
G01*
X139372817Y-120997782D01*
X139377443Y-120998391D01*
X139438611Y-121023727D01*
X139504953Y-121049889D01*
X139508782Y-121052793D01*
X139510180Y-121053372D01*
X139563654Y-121094404D01*
X139624474Y-121140526D01*
X139670615Y-121201371D01*
X139711627Y-121254819D01*
X139712205Y-121256215D01*
X139715111Y-121260047D01*
X139741277Y-121326402D01*
X139766609Y-121387557D01*
X139767217Y-121392182D01*
X139770139Y-121399590D01*
X139785800Y-121530000D01*
X139785800Y-122530000D01*
X139770139Y-122660410D01*
X139767216Y-122667821D01*
X139766608Y-122672443D01*
X139741292Y-122733560D01*
X139715111Y-122799953D01*
X139712204Y-122803785D01*
X139711627Y-122805180D01*
X139670680Y-122858542D01*
X139624474Y-122919474D01*
X139563542Y-122965680D01*
X139510180Y-123006627D01*
X139508785Y-123007204D01*
X139504953Y-123010111D01*
X139438576Y-123036286D01*
X139377442Y-123061609D01*
X139372817Y-123062217D01*
X139365410Y-123065139D01*
X139235000Y-123080800D01*
X137485000Y-123080800D01*
X137354590Y-123065139D01*
X137347179Y-123062216D01*
X137342556Y-123061608D01*
X137281418Y-123036284D01*
X137215047Y-123010111D01*
X137211215Y-123007205D01*
X137209819Y-123006627D01*
X137156371Y-122965615D01*
X137095526Y-122919474D01*
X137049404Y-122858654D01*
X137008372Y-122805180D01*
X137007793Y-122803782D01*
X137004889Y-122799953D01*
X136978733Y-122733627D01*
X136953390Y-122672442D01*
X136952780Y-122667814D01*
X136949861Y-122660410D01*
X136934200Y-122530000D01*
X136934200Y-121530000D01*
X136949861Y-121399590D01*
X136952781Y-121392183D01*
X136953391Y-121387556D01*
X136978735Y-121326367D01*
X137004889Y-121260047D01*
X137007792Y-121256218D01*
X137008372Y-121254819D01*
X137049468Y-121201260D01*
X137095526Y-121140526D01*
X137156260Y-121094468D01*
X137209819Y-121053372D01*
X137211218Y-121052792D01*
X137215047Y-121049889D01*
X137281352Y-121023741D01*
X137342557Y-120998390D01*
X137347186Y-120997780D01*
X137354590Y-120994861D01*
X137485000Y-120979200D01*
X139235000Y-120979200D01*
X139365410Y-120994861D01*
G37*
G36*
X155530410Y-120994861D02*
G01*
X155537817Y-120997782D01*
X155542443Y-120998391D01*
X155603611Y-121023727D01*
X155669953Y-121049889D01*
X155673782Y-121052793D01*
X155675180Y-121053372D01*
X155728654Y-121094404D01*
X155789474Y-121140526D01*
X155835615Y-121201371D01*
X155876627Y-121254819D01*
X155877205Y-121256215D01*
X155880111Y-121260047D01*
X155906277Y-121326402D01*
X155931609Y-121387557D01*
X155932217Y-121392182D01*
X155935139Y-121399590D01*
X155950800Y-121530000D01*
X155950800Y-122530000D01*
X155935139Y-122660410D01*
X155932216Y-122667821D01*
X155931608Y-122672443D01*
X155906292Y-122733560D01*
X155880111Y-122799953D01*
X155877204Y-122803785D01*
X155876627Y-122805180D01*
X155835680Y-122858542D01*
X155789474Y-122919474D01*
X155728542Y-122965680D01*
X155675180Y-123006627D01*
X155673785Y-123007204D01*
X155669953Y-123010111D01*
X155603576Y-123036286D01*
X155542442Y-123061609D01*
X155537817Y-123062217D01*
X155530410Y-123065139D01*
X155400000Y-123080800D01*
X153650000Y-123080800D01*
X153519590Y-123065139D01*
X153512179Y-123062216D01*
X153507556Y-123061608D01*
X153446418Y-123036284D01*
X153380047Y-123010111D01*
X153376215Y-123007205D01*
X153374819Y-123006627D01*
X153321371Y-122965615D01*
X153260526Y-122919474D01*
X153214404Y-122858654D01*
X153173372Y-122805180D01*
X153172793Y-122803782D01*
X153169889Y-122799953D01*
X153143733Y-122733627D01*
X153118390Y-122672442D01*
X153117780Y-122667814D01*
X153114861Y-122660410D01*
X153099200Y-122530000D01*
X153099200Y-121530000D01*
X153114861Y-121399590D01*
X153117781Y-121392183D01*
X153118391Y-121387556D01*
X153143735Y-121326367D01*
X153169889Y-121260047D01*
X153172792Y-121256218D01*
X153173372Y-121254819D01*
X153214468Y-121201260D01*
X153260526Y-121140526D01*
X153321260Y-121094468D01*
X153374819Y-121053372D01*
X153376218Y-121052792D01*
X153380047Y-121049889D01*
X153446352Y-121023741D01*
X153507557Y-120998390D01*
X153512186Y-120997780D01*
X153519590Y-120994861D01*
X153650000Y-120979200D01*
X155400000Y-120979200D01*
X155530410Y-120994861D01*
G37*
G36*
X160801687Y-122749483D02*
G01*
X159801687Y-122749483D01*
X159503792Y-122749483D01*
X159501687Y-122749483D01*
X158501687Y-122749483D01*
X158501687Y-121249483D01*
X159501687Y-121249483D01*
X160796683Y-121249483D01*
X160801687Y-121249483D01*
X160801687Y-122749483D01*
G37*
G36*
X151896507Y-121228294D02*
G01*
X151959937Y-121236644D01*
X151975895Y-121244085D01*
X151995238Y-121247933D01*
X152020859Y-121265052D01*
X152047286Y-121277376D01*
X152063363Y-121293453D01*
X152084454Y-121307546D01*
X152098546Y-121328636D01*
X152114623Y-121344713D01*
X152126944Y-121371136D01*
X152144067Y-121396762D01*
X152147915Y-121416108D01*
X152155353Y-121432059D01*
X152163699Y-121495460D01*
X152165000Y-121502000D01*
X152165000Y-122052000D01*
X152163702Y-122058522D01*
X152155355Y-122121937D01*
X152147915Y-122137891D01*
X152144067Y-122157238D01*
X152126943Y-122182864D01*
X152114623Y-122209286D01*
X152098548Y-122225360D01*
X152084454Y-122246454D01*
X152063360Y-122260548D01*
X152047286Y-122276623D01*
X152020865Y-122288943D01*
X151995238Y-122306067D01*
X151975889Y-122309915D01*
X151959940Y-122317353D01*
X151896541Y-122325698D01*
X151890000Y-122327000D01*
X149940000Y-122327000D01*
X149933479Y-122325702D01*
X149870062Y-122317355D01*
X149854106Y-122309914D01*
X149834762Y-122306067D01*
X149809137Y-122288945D01*
X149782713Y-122276623D01*
X149766636Y-122260546D01*
X149745546Y-122246454D01*
X149731453Y-122225363D01*
X149715376Y-122209286D01*
X149703053Y-122182860D01*
X149685933Y-122157238D01*
X149682085Y-122137893D01*
X149674646Y-122121940D01*
X149666298Y-122058526D01*
X149665000Y-122052000D01*
X149665000Y-121502000D01*
X149666294Y-121495494D01*
X149674644Y-121432062D01*
X149682085Y-121416103D01*
X149685933Y-121396762D01*
X149703051Y-121371142D01*
X149715376Y-121344713D01*
X149731455Y-121328633D01*
X149745546Y-121307546D01*
X149766633Y-121293455D01*
X149782713Y-121277376D01*
X149809141Y-121265052D01*
X149834762Y-121247933D01*
X149854104Y-121244085D01*
X149870059Y-121236646D01*
X149933475Y-121228297D01*
X149940000Y-121227000D01*
X151890000Y-121227000D01*
X151896507Y-121228294D01*
G37*
G36*
X128066742Y-119726601D02*
G01*
X128220687Y-119790367D01*
X128359234Y-119882941D01*
X128477059Y-120000766D01*
X128569633Y-120139313D01*
X128633399Y-120293258D01*
X128665907Y-120456685D01*
X128665907Y-120623315D01*
X128633399Y-120786742D01*
X128569633Y-120940687D01*
X128477059Y-121079234D01*
X128359234Y-121197059D01*
X128220687Y-121289633D01*
X128066742Y-121353399D01*
X127903315Y-121385907D01*
X127736685Y-121385907D01*
X127573258Y-121353399D01*
X127419313Y-121289633D01*
X127280766Y-121197059D01*
X127162941Y-121079234D01*
X127070367Y-120940687D01*
X127006601Y-120786742D01*
X126974093Y-120623315D01*
X126974093Y-120456685D01*
X127006601Y-120293258D01*
X127070367Y-120139313D01*
X127162941Y-120000766D01*
X127280766Y-119882941D01*
X127419313Y-119790367D01*
X127573258Y-119726601D01*
X127736685Y-119694093D01*
X127903315Y-119694093D01*
X128066742Y-119726601D01*
G37*
G36*
X145446742Y-119688601D02*
G01*
X145600687Y-119752367D01*
X145739234Y-119844941D01*
X145857059Y-119962766D01*
X145949633Y-120101313D01*
X146013399Y-120255258D01*
X146045907Y-120418685D01*
X146045907Y-120585315D01*
X146013399Y-120748742D01*
X145949633Y-120902687D01*
X145857059Y-121041234D01*
X145739234Y-121159059D01*
X145600687Y-121251633D01*
X145446742Y-121315399D01*
X145283315Y-121347907D01*
X145116685Y-121347907D01*
X144953258Y-121315399D01*
X144799313Y-121251633D01*
X144660766Y-121159059D01*
X144542941Y-121041234D01*
X144450367Y-120902687D01*
X144386601Y-120748742D01*
X144354093Y-120585315D01*
X144354093Y-120418685D01*
X144386601Y-120255258D01*
X144450367Y-120101313D01*
X144542941Y-119962766D01*
X144660766Y-119844941D01*
X144799313Y-119752367D01*
X144953258Y-119688601D01*
X145116685Y-119656093D01*
X145283315Y-119656093D01*
X145446742Y-119688601D01*
G37*
G36*
X147986742Y-119688601D02*
G01*
X148140687Y-119752367D01*
X148279234Y-119844941D01*
X148397059Y-119962766D01*
X148489633Y-120101313D01*
X148553399Y-120255258D01*
X148585907Y-120418685D01*
X148585907Y-120585315D01*
X148553399Y-120748742D01*
X148489633Y-120902687D01*
X148397059Y-121041234D01*
X148279234Y-121159059D01*
X148140687Y-121251633D01*
X147986742Y-121315399D01*
X147823315Y-121347907D01*
X147656685Y-121347907D01*
X147493258Y-121315399D01*
X147339313Y-121251633D01*
X147200766Y-121159059D01*
X147082941Y-121041234D01*
X146990367Y-120902687D01*
X146926601Y-120748742D01*
X146894093Y-120585315D01*
X146894093Y-120418685D01*
X146926601Y-120255258D01*
X146990367Y-120101313D01*
X147082941Y-119962766D01*
X147200766Y-119844941D01*
X147339313Y-119752367D01*
X147493258Y-119688601D01*
X147656685Y-119656093D01*
X147823315Y-119656093D01*
X147986742Y-119688601D01*
G37*
G36*
X163827263Y-120178140D02*
G01*
X163872682Y-120208488D01*
X163903030Y-120253907D01*
X163913687Y-120307483D01*
X163913687Y-120587483D01*
X163903030Y-120641059D01*
X163872682Y-120686478D01*
X163827263Y-120716826D01*
X163773687Y-120727483D01*
X163433687Y-120727483D01*
X163380111Y-120716826D01*
X163334692Y-120686478D01*
X163304344Y-120641059D01*
X163293687Y-120587483D01*
X163293687Y-120307483D01*
X163304344Y-120253907D01*
X163334692Y-120208488D01*
X163380111Y-120178140D01*
X163433687Y-120167483D01*
X163773687Y-120167483D01*
X163827263Y-120178140D01*
G37*
G36*
X139365410Y-118454861D02*
G01*
X139372817Y-118457782D01*
X139377443Y-118458391D01*
X139438611Y-118483727D01*
X139504953Y-118509889D01*
X139508782Y-118512793D01*
X139510180Y-118513372D01*
X139563654Y-118554404D01*
X139624474Y-118600526D01*
X139670615Y-118661371D01*
X139711627Y-118714819D01*
X139712205Y-118716215D01*
X139715111Y-118720047D01*
X139741277Y-118786402D01*
X139766609Y-118847557D01*
X139767217Y-118852182D01*
X139770139Y-118859590D01*
X139785800Y-118990000D01*
X139785800Y-119990000D01*
X139770139Y-120120410D01*
X139767216Y-120127821D01*
X139766608Y-120132443D01*
X139741292Y-120193560D01*
X139715111Y-120259953D01*
X139712204Y-120263785D01*
X139711627Y-120265180D01*
X139670680Y-120318542D01*
X139624474Y-120379474D01*
X139563542Y-120425680D01*
X139510180Y-120466627D01*
X139508785Y-120467204D01*
X139504953Y-120470111D01*
X139438576Y-120496286D01*
X139377442Y-120521609D01*
X139372817Y-120522217D01*
X139365410Y-120525139D01*
X139235000Y-120540800D01*
X137485000Y-120540800D01*
X137354590Y-120525139D01*
X137347179Y-120522216D01*
X137342556Y-120521608D01*
X137281418Y-120496284D01*
X137215047Y-120470111D01*
X137211215Y-120467205D01*
X137209819Y-120466627D01*
X137156371Y-120425615D01*
X137095526Y-120379474D01*
X137049404Y-120318654D01*
X137008372Y-120265180D01*
X137007793Y-120263782D01*
X137004889Y-120259953D01*
X136978733Y-120193627D01*
X136953390Y-120132442D01*
X136952780Y-120127814D01*
X136949861Y-120120410D01*
X136934200Y-119990000D01*
X136934200Y-118990000D01*
X136949861Y-118859590D01*
X136952781Y-118852183D01*
X136953391Y-118847556D01*
X136978735Y-118786367D01*
X137004889Y-118720047D01*
X137007792Y-118716218D01*
X137008372Y-118714819D01*
X137049468Y-118661260D01*
X137095526Y-118600526D01*
X137156260Y-118554468D01*
X137209819Y-118513372D01*
X137211218Y-118512792D01*
X137215047Y-118509889D01*
X137281352Y-118483741D01*
X137342557Y-118458390D01*
X137347186Y-118457780D01*
X137354590Y-118454861D01*
X137485000Y-118439200D01*
X139235000Y-118439200D01*
X139365410Y-118454861D01*
G37*
G36*
X155530410Y-118454861D02*
G01*
X155537817Y-118457782D01*
X155542443Y-118458391D01*
X155603611Y-118483727D01*
X155669953Y-118509889D01*
X155673782Y-118512793D01*
X155675180Y-118513372D01*
X155728654Y-118554404D01*
X155789474Y-118600526D01*
X155835615Y-118661371D01*
X155876627Y-118714819D01*
X155877205Y-118716215D01*
X155880111Y-118720047D01*
X155906277Y-118786402D01*
X155931609Y-118847557D01*
X155932217Y-118852182D01*
X155935139Y-118859590D01*
X155950800Y-118990000D01*
X155950800Y-119990000D01*
X155935139Y-120120410D01*
X155932216Y-120127821D01*
X155931608Y-120132443D01*
X155906292Y-120193560D01*
X155880111Y-120259953D01*
X155877204Y-120263785D01*
X155876627Y-120265180D01*
X155835680Y-120318542D01*
X155789474Y-120379474D01*
X155728542Y-120425680D01*
X155675180Y-120466627D01*
X155673785Y-120467204D01*
X155669953Y-120470111D01*
X155603576Y-120496286D01*
X155542442Y-120521609D01*
X155537817Y-120522217D01*
X155530410Y-120525139D01*
X155400000Y-120540800D01*
X153650000Y-120540800D01*
X153519590Y-120525139D01*
X153512179Y-120522216D01*
X153507556Y-120521608D01*
X153446418Y-120496284D01*
X153380047Y-120470111D01*
X153376215Y-120467205D01*
X153374819Y-120466627D01*
X153321371Y-120425615D01*
X153260526Y-120379474D01*
X153214404Y-120318654D01*
X153173372Y-120265180D01*
X153172793Y-120263782D01*
X153169889Y-120259953D01*
X153143733Y-120193627D01*
X153118390Y-120132442D01*
X153117780Y-120127814D01*
X153114861Y-120120410D01*
X153099200Y-119990000D01*
X153099200Y-118990000D01*
X153114861Y-118859590D01*
X153117781Y-118852183D01*
X153118391Y-118847556D01*
X153143735Y-118786367D01*
X153169889Y-118720047D01*
X153172792Y-118716218D01*
X153173372Y-118714819D01*
X153214468Y-118661260D01*
X153260526Y-118600526D01*
X153321260Y-118554468D01*
X153374819Y-118513372D01*
X153376218Y-118512792D01*
X153380047Y-118509889D01*
X153446352Y-118483741D01*
X153507557Y-118458390D01*
X153512186Y-118457780D01*
X153519590Y-118454861D01*
X153650000Y-118439200D01*
X155400000Y-118439200D01*
X155530410Y-118454861D01*
G37*
G36*
X151896507Y-119323294D02*
G01*
X151959937Y-119331644D01*
X151975895Y-119339085D01*
X151995238Y-119342933D01*
X152020859Y-119360052D01*
X152047286Y-119372376D01*
X152063363Y-119388453D01*
X152084454Y-119402546D01*
X152098546Y-119423636D01*
X152114623Y-119439713D01*
X152126944Y-119466136D01*
X152144067Y-119491762D01*
X152147915Y-119511108D01*
X152155353Y-119527059D01*
X152163699Y-119590460D01*
X152165000Y-119597000D01*
X152165000Y-120147000D01*
X152163702Y-120153522D01*
X152155355Y-120216937D01*
X152147915Y-120232891D01*
X152144067Y-120252238D01*
X152126943Y-120277864D01*
X152114623Y-120304286D01*
X152098548Y-120320360D01*
X152084454Y-120341454D01*
X152063360Y-120355548D01*
X152047286Y-120371623D01*
X152020865Y-120383943D01*
X151995238Y-120401067D01*
X151975889Y-120404915D01*
X151959940Y-120412353D01*
X151896541Y-120420698D01*
X151890000Y-120422000D01*
X149940000Y-120422000D01*
X149933479Y-120420702D01*
X149870062Y-120412355D01*
X149854106Y-120404914D01*
X149834762Y-120401067D01*
X149809137Y-120383945D01*
X149782713Y-120371623D01*
X149766636Y-120355546D01*
X149745546Y-120341454D01*
X149731453Y-120320363D01*
X149715376Y-120304286D01*
X149703053Y-120277860D01*
X149685933Y-120252238D01*
X149682085Y-120232893D01*
X149674646Y-120216940D01*
X149666298Y-120153526D01*
X149665000Y-120147000D01*
X149665000Y-119597000D01*
X149666294Y-119590494D01*
X149674644Y-119527062D01*
X149682085Y-119511103D01*
X149685933Y-119491762D01*
X149703051Y-119466142D01*
X149715376Y-119439713D01*
X149731455Y-119423633D01*
X149745546Y-119402546D01*
X149766633Y-119388455D01*
X149782713Y-119372376D01*
X149809141Y-119360052D01*
X149834762Y-119342933D01*
X149854104Y-119339085D01*
X149870059Y-119331646D01*
X149933475Y-119323297D01*
X149940000Y-119322000D01*
X151890000Y-119322000D01*
X151896507Y-119323294D01*
G37*
G36*
X160592373Y-118771853D02*
G01*
X160645092Y-118807078D01*
X160680317Y-118859797D01*
X160692687Y-118921983D01*
X160692687Y-120156983D01*
X160680317Y-120219169D01*
X160645092Y-120271888D01*
X160592373Y-120307113D01*
X160530187Y-120319483D01*
X160205187Y-120319483D01*
X160143001Y-120307113D01*
X160090282Y-120271888D01*
X160055057Y-120219169D01*
X160042687Y-120156983D01*
X160042687Y-118921983D01*
X160055057Y-118859797D01*
X160090282Y-118807078D01*
X160143001Y-118771853D01*
X160205187Y-118759483D01*
X160530187Y-118759483D01*
X160592373Y-118771853D01*
G37*
G36*
X162492373Y-118771853D02*
G01*
X162545092Y-118807078D01*
X162580317Y-118859797D01*
X162592687Y-118921983D01*
X162592687Y-120156983D01*
X162580317Y-120219169D01*
X162545092Y-120271888D01*
X162492373Y-120307113D01*
X162430187Y-120319483D01*
X162105187Y-120319483D01*
X162043001Y-120307113D01*
X161990282Y-120271888D01*
X161955057Y-120219169D01*
X161942687Y-120156983D01*
X161942687Y-118921983D01*
X161955057Y-118859797D01*
X161990282Y-118807078D01*
X162043001Y-118771853D01*
X162105187Y-118759483D01*
X162430187Y-118759483D01*
X162492373Y-118771853D01*
G37*
G36*
X163827263Y-119218140D02*
G01*
X163872682Y-119248488D01*
X163903030Y-119293907D01*
X163913687Y-119347483D01*
X163913687Y-119627483D01*
X163903030Y-119681059D01*
X163872682Y-119726478D01*
X163827263Y-119756826D01*
X163773687Y-119767483D01*
X163433687Y-119767483D01*
X163380111Y-119756826D01*
X163334692Y-119726478D01*
X163304344Y-119681059D01*
X163293687Y-119627483D01*
X163293687Y-119347483D01*
X163304344Y-119293907D01*
X163334692Y-119248488D01*
X163380111Y-119218140D01*
X163433687Y-119207483D01*
X163773687Y-119207483D01*
X163827263Y-119218140D01*
G37*
G36*
X128066742Y-117186601D02*
G01*
X128220687Y-117250367D01*
X128359234Y-117342941D01*
X128477059Y-117460766D01*
X128569633Y-117599313D01*
X128633399Y-117753258D01*
X128665907Y-117916685D01*
X128665907Y-118083315D01*
X128633399Y-118246742D01*
X128569633Y-118400687D01*
X128477059Y-118539234D01*
X128359234Y-118657059D01*
X128220687Y-118749633D01*
X128066742Y-118813399D01*
X127903315Y-118845907D01*
X127736685Y-118845907D01*
X127573258Y-118813399D01*
X127419313Y-118749633D01*
X127280766Y-118657059D01*
X127162941Y-118539234D01*
X127070367Y-118400687D01*
X127006601Y-118246742D01*
X126974093Y-118083315D01*
X126974093Y-117916685D01*
X127006601Y-117753258D01*
X127070367Y-117599313D01*
X127162941Y-117460766D01*
X127280766Y-117342941D01*
X127419313Y-117250367D01*
X127573258Y-117186601D01*
X127736685Y-117154093D01*
X127903315Y-117154093D01*
X128066742Y-117186601D01*
G37*
G36*
X146197772Y-116247695D02*
G01*
X146204782Y-116249731D01*
X146211851Y-116250374D01*
X146278781Y-116271230D01*
X146348217Y-116291403D01*
X146353449Y-116294497D01*
X146356355Y-116295403D01*
X146418312Y-116332857D01*
X146483067Y-116371153D01*
X146485214Y-116373300D01*
X146485220Y-116373304D01*
X146591695Y-116479779D01*
X146591698Y-116479784D01*
X146593847Y-116481933D01*
X146632160Y-116546717D01*
X146669596Y-116608644D01*
X146670500Y-116611547D01*
X146673597Y-116616783D01*
X146693779Y-116686250D01*
X146714625Y-116753148D01*
X146715267Y-116760213D01*
X146717305Y-116767228D01*
X146725000Y-116865000D01*
X146725000Y-118115000D01*
X146717305Y-118212772D01*
X146715266Y-118219787D01*
X146714625Y-118226851D01*
X146693783Y-118293734D01*
X146673597Y-118363217D01*
X146670500Y-118368453D01*
X146669596Y-118371355D01*
X146632187Y-118433236D01*
X146593847Y-118498067D01*
X146591696Y-118500217D01*
X146591695Y-118500220D01*
X146485220Y-118606695D01*
X146485217Y-118606696D01*
X146483067Y-118608847D01*
X146418236Y-118647187D01*
X146356355Y-118684596D01*
X146353453Y-118685500D01*
X146348217Y-118688597D01*
X146278734Y-118708783D01*
X146211851Y-118729625D01*
X146204787Y-118730266D01*
X146197772Y-118732305D01*
X146100000Y-118740000D01*
X144600000Y-118740000D01*
X144502228Y-118732305D01*
X144495213Y-118730267D01*
X144488148Y-118729625D01*
X144421250Y-118708779D01*
X144351783Y-118688597D01*
X144346547Y-118685500D01*
X144343644Y-118684596D01*
X144281717Y-118647160D01*
X144216933Y-118608847D01*
X144214784Y-118606698D01*
X144214779Y-118606695D01*
X144108304Y-118500220D01*
X144108300Y-118500214D01*
X144106153Y-118498067D01*
X144067857Y-118433312D01*
X144030403Y-118371355D01*
X144029497Y-118368449D01*
X144026403Y-118363217D01*
X144006230Y-118293781D01*
X143985374Y-118226851D01*
X143984731Y-118219782D01*
X143982695Y-118212772D01*
X143975000Y-118115000D01*
X143975000Y-116865000D01*
X143982695Y-116767228D01*
X143984731Y-116760218D01*
X143985374Y-116753148D01*
X144006234Y-116686203D01*
X144026403Y-116616783D01*
X144029497Y-116611551D01*
X144030403Y-116608644D01*
X144067884Y-116546640D01*
X144106153Y-116481933D01*
X144108299Y-116479786D01*
X144108304Y-116479779D01*
X144214779Y-116373304D01*
X144214786Y-116373299D01*
X144216933Y-116371153D01*
X144281640Y-116332884D01*
X144343644Y-116295403D01*
X144346551Y-116294497D01*
X144351783Y-116291403D01*
X144421203Y-116271234D01*
X144488148Y-116250374D01*
X144495218Y-116249731D01*
X144502228Y-116247695D01*
X144600000Y-116240000D01*
X146100000Y-116240000D01*
X146197772Y-116247695D01*
G37*
G36*
X139365410Y-115914861D02*
G01*
X139372817Y-115917782D01*
X139377443Y-115918391D01*
X139438611Y-115943727D01*
X139504953Y-115969889D01*
X139508782Y-115972793D01*
X139510180Y-115973372D01*
X139563654Y-116014404D01*
X139624474Y-116060526D01*
X139670615Y-116121371D01*
X139711627Y-116174819D01*
X139712205Y-116176215D01*
X139715111Y-116180047D01*
X139741277Y-116246402D01*
X139766609Y-116307557D01*
X139767217Y-116312182D01*
X139770139Y-116319590D01*
X139785800Y-116450000D01*
X139785800Y-117450000D01*
X139770139Y-117580410D01*
X139767216Y-117587821D01*
X139766608Y-117592443D01*
X139741292Y-117653560D01*
X139715111Y-117719953D01*
X139712204Y-117723785D01*
X139711627Y-117725180D01*
X139670680Y-117778542D01*
X139624474Y-117839474D01*
X139563542Y-117885680D01*
X139510180Y-117926627D01*
X139508785Y-117927204D01*
X139504953Y-117930111D01*
X139438576Y-117956286D01*
X139377442Y-117981609D01*
X139372817Y-117982217D01*
X139365410Y-117985139D01*
X139235000Y-118000800D01*
X137485000Y-118000800D01*
X137354590Y-117985139D01*
X137347179Y-117982216D01*
X137342556Y-117981608D01*
X137281418Y-117956284D01*
X137215047Y-117930111D01*
X137211215Y-117927205D01*
X137209819Y-117926627D01*
X137156371Y-117885615D01*
X137095526Y-117839474D01*
X137049404Y-117778654D01*
X137008372Y-117725180D01*
X137007793Y-117723782D01*
X137004889Y-117719953D01*
X136978733Y-117653627D01*
X136953390Y-117592442D01*
X136952780Y-117587814D01*
X136949861Y-117580410D01*
X136934200Y-117450000D01*
X136934200Y-116450000D01*
X136949861Y-116319590D01*
X136952781Y-116312183D01*
X136953391Y-116307556D01*
X136978735Y-116246367D01*
X137004889Y-116180047D01*
X137007792Y-116176218D01*
X137008372Y-116174819D01*
X137049468Y-116121260D01*
X137095526Y-116060526D01*
X137156260Y-116014468D01*
X137209819Y-115973372D01*
X137211218Y-115972792D01*
X137215047Y-115969889D01*
X137281352Y-115943741D01*
X137342557Y-115918390D01*
X137347186Y-115917780D01*
X137354590Y-115914861D01*
X137485000Y-115899200D01*
X139235000Y-115899200D01*
X139365410Y-115914861D01*
G37*
G36*
X155530410Y-115914861D02*
G01*
X155537817Y-115917782D01*
X155542443Y-115918391D01*
X155603611Y-115943727D01*
X155669953Y-115969889D01*
X155673782Y-115972793D01*
X155675180Y-115973372D01*
X155728654Y-116014404D01*
X155789474Y-116060526D01*
X155835615Y-116121371D01*
X155876627Y-116174819D01*
X155877205Y-116176215D01*
X155880111Y-116180047D01*
X155906277Y-116246402D01*
X155931609Y-116307557D01*
X155932217Y-116312182D01*
X155935139Y-116319590D01*
X155950800Y-116450000D01*
X155950800Y-117450000D01*
X155935139Y-117580410D01*
X155932216Y-117587821D01*
X155931608Y-117592443D01*
X155906292Y-117653560D01*
X155880111Y-117719953D01*
X155877204Y-117723785D01*
X155876627Y-117725180D01*
X155835680Y-117778542D01*
X155789474Y-117839474D01*
X155728542Y-117885680D01*
X155675180Y-117926627D01*
X155673785Y-117927204D01*
X155669953Y-117930111D01*
X155603576Y-117956286D01*
X155542442Y-117981609D01*
X155537817Y-117982217D01*
X155530410Y-117985139D01*
X155400000Y-118000800D01*
X153650000Y-118000800D01*
X153519590Y-117985139D01*
X153512179Y-117982216D01*
X153507556Y-117981608D01*
X153446418Y-117956284D01*
X153380047Y-117930111D01*
X153376215Y-117927205D01*
X153374819Y-117926627D01*
X153321371Y-117885615D01*
X153260526Y-117839474D01*
X153214404Y-117778654D01*
X153173372Y-117725180D01*
X153172793Y-117723782D01*
X153169889Y-117719953D01*
X153143733Y-117653627D01*
X153118390Y-117592442D01*
X153117780Y-117587814D01*
X153114861Y-117580410D01*
X153099200Y-117450000D01*
X153099200Y-116450000D01*
X153114861Y-116319590D01*
X153117781Y-116312183D01*
X153118391Y-116307556D01*
X153143735Y-116246367D01*
X153169889Y-116180047D01*
X153172792Y-116176218D01*
X153173372Y-116174819D01*
X153214468Y-116121260D01*
X153260526Y-116060526D01*
X153321260Y-116014468D01*
X153374819Y-115973372D01*
X153376218Y-115972792D01*
X153380047Y-115969889D01*
X153446352Y-115943741D01*
X153507557Y-115918390D01*
X153512186Y-115917780D01*
X153519590Y-115914861D01*
X153650000Y-115899200D01*
X155400000Y-115899200D01*
X155530410Y-115914861D01*
G37*
G36*
X160592373Y-116071853D02*
G01*
X160645092Y-116107078D01*
X160680317Y-116159797D01*
X160692687Y-116221983D01*
X160692687Y-117456983D01*
X160680317Y-117519169D01*
X160645092Y-117571888D01*
X160592373Y-117607113D01*
X160530187Y-117619483D01*
X160205187Y-117619483D01*
X160143001Y-117607113D01*
X160090282Y-117571888D01*
X160055057Y-117519169D01*
X160042687Y-117456983D01*
X160042687Y-116221983D01*
X160055057Y-116159797D01*
X160090282Y-116107078D01*
X160143001Y-116071853D01*
X160205187Y-116059483D01*
X160530187Y-116059483D01*
X160592373Y-116071853D01*
G37*
G36*
X161542373Y-116071853D02*
G01*
X161595092Y-116107078D01*
X161630317Y-116159797D01*
X161642687Y-116221983D01*
X161642687Y-117456983D01*
X161630317Y-117519169D01*
X161595092Y-117571888D01*
X161542373Y-117607113D01*
X161480187Y-117619483D01*
X161155187Y-117619483D01*
X161093001Y-117607113D01*
X161040282Y-117571888D01*
X161005057Y-117519169D01*
X160992687Y-117456983D01*
X160992687Y-116221983D01*
X161005057Y-116159797D01*
X161040282Y-116107078D01*
X161093001Y-116071853D01*
X161155187Y-116059483D01*
X161480187Y-116059483D01*
X161542373Y-116071853D01*
G37*
G36*
X162492373Y-116071853D02*
G01*
X162545092Y-116107078D01*
X162580317Y-116159797D01*
X162592687Y-116221983D01*
X162592687Y-117456983D01*
X162580317Y-117519169D01*
X162545092Y-117571888D01*
X162492373Y-117607113D01*
X162430187Y-117619483D01*
X162105187Y-117619483D01*
X162043001Y-117607113D01*
X161990282Y-117571888D01*
X161955057Y-117519169D01*
X161942687Y-117456983D01*
X161942687Y-116221983D01*
X161955057Y-116159797D01*
X161990282Y-116107078D01*
X162043001Y-116071853D01*
X162105187Y-116059483D01*
X162430187Y-116059483D01*
X162492373Y-116071853D01*
G37*
G36*
X128066742Y-114646601D02*
G01*
X128220687Y-114710367D01*
X128359234Y-114802941D01*
X128477059Y-114920766D01*
X128569633Y-115059313D01*
X128633399Y-115213258D01*
X128665907Y-115376685D01*
X128665907Y-115543315D01*
X128633399Y-115706742D01*
X128569633Y-115860687D01*
X128477059Y-115999234D01*
X128359234Y-116117059D01*
X128220687Y-116209633D01*
X128066742Y-116273399D01*
X127903315Y-116305907D01*
X127736685Y-116305907D01*
X127573258Y-116273399D01*
X127419313Y-116209633D01*
X127280766Y-116117059D01*
X127162941Y-115999234D01*
X127070367Y-115860687D01*
X127006601Y-115706742D01*
X126974093Y-115543315D01*
X126974093Y-115376685D01*
X127006601Y-115213258D01*
X127070367Y-115059313D01*
X127162941Y-114920766D01*
X127280766Y-114802941D01*
X127419313Y-114710367D01*
X127573258Y-114646601D01*
X127736685Y-114614093D01*
X127903315Y-114614093D01*
X128066742Y-114646601D01*
G37*
G36*
X139365410Y-113374861D02*
G01*
X139372817Y-113377782D01*
X139377443Y-113378391D01*
X139438611Y-113403727D01*
X139504953Y-113429889D01*
X139508782Y-113432793D01*
X139510180Y-113433372D01*
X139563654Y-113474404D01*
X139624474Y-113520526D01*
X139670615Y-113581371D01*
X139711627Y-113634819D01*
X139712205Y-113636215D01*
X139715111Y-113640047D01*
X139741277Y-113706402D01*
X139766609Y-113767557D01*
X139767217Y-113772182D01*
X139770139Y-113779590D01*
X139785800Y-113910000D01*
X139785800Y-114910000D01*
X139770139Y-115040410D01*
X139767216Y-115047821D01*
X139766608Y-115052443D01*
X139741292Y-115113560D01*
X139715111Y-115179953D01*
X139712204Y-115183785D01*
X139711627Y-115185180D01*
X139670680Y-115238542D01*
X139624474Y-115299474D01*
X139563542Y-115345680D01*
X139510180Y-115386627D01*
X139508785Y-115387204D01*
X139504953Y-115390111D01*
X139438576Y-115416286D01*
X139377442Y-115441609D01*
X139372817Y-115442217D01*
X139365410Y-115445139D01*
X139235000Y-115460800D01*
X137485000Y-115460800D01*
X137354590Y-115445139D01*
X137347179Y-115442216D01*
X137342556Y-115441608D01*
X137281418Y-115416284D01*
X137215047Y-115390111D01*
X137211215Y-115387205D01*
X137209819Y-115386627D01*
X137156371Y-115345615D01*
X137095526Y-115299474D01*
X137049404Y-115238654D01*
X137008372Y-115185180D01*
X137007793Y-115183782D01*
X137004889Y-115179953D01*
X136978733Y-115113627D01*
X136953390Y-115052442D01*
X136952780Y-115047814D01*
X136949861Y-115040410D01*
X136934200Y-114910000D01*
X136934200Y-113910000D01*
X136949861Y-113779590D01*
X136952781Y-113772183D01*
X136953391Y-113767556D01*
X136978735Y-113706367D01*
X137004889Y-113640047D01*
X137007792Y-113636218D01*
X137008372Y-113634819D01*
X137049468Y-113581260D01*
X137095526Y-113520526D01*
X137156260Y-113474468D01*
X137209819Y-113433372D01*
X137211218Y-113432792D01*
X137215047Y-113429889D01*
X137281352Y-113403741D01*
X137342557Y-113378390D01*
X137347186Y-113377780D01*
X137354590Y-113374861D01*
X137485000Y-113359200D01*
X139235000Y-113359200D01*
X139365410Y-113374861D01*
G37*
G36*
X155530410Y-113374861D02*
G01*
X155537817Y-113377782D01*
X155542443Y-113378391D01*
X155603611Y-113403727D01*
X155669953Y-113429889D01*
X155673782Y-113432793D01*
X155675180Y-113433372D01*
X155728654Y-113474404D01*
X155789474Y-113520526D01*
X155835615Y-113581371D01*
X155876627Y-113634819D01*
X155877205Y-113636215D01*
X155880111Y-113640047D01*
X155906277Y-113706402D01*
X155931609Y-113767557D01*
X155932217Y-113772182D01*
X155935139Y-113779590D01*
X155950800Y-113910000D01*
X155950800Y-114910000D01*
X155935139Y-115040410D01*
X155932216Y-115047821D01*
X155931608Y-115052443D01*
X155906292Y-115113560D01*
X155880111Y-115179953D01*
X155877204Y-115183785D01*
X155876627Y-115185180D01*
X155835680Y-115238542D01*
X155789474Y-115299474D01*
X155728542Y-115345680D01*
X155675180Y-115386627D01*
X155673785Y-115387204D01*
X155669953Y-115390111D01*
X155603576Y-115416286D01*
X155542442Y-115441609D01*
X155537817Y-115442217D01*
X155530410Y-115445139D01*
X155400000Y-115460800D01*
X153650000Y-115460800D01*
X153519590Y-115445139D01*
X153512179Y-115442216D01*
X153507556Y-115441608D01*
X153446418Y-115416284D01*
X153380047Y-115390111D01*
X153376215Y-115387205D01*
X153374819Y-115386627D01*
X153321371Y-115345615D01*
X153260526Y-115299474D01*
X153214404Y-115238654D01*
X153173372Y-115185180D01*
X153172793Y-115183782D01*
X153169889Y-115179953D01*
X153143733Y-115113627D01*
X153118390Y-115052442D01*
X153117780Y-115047814D01*
X153114861Y-115040410D01*
X153099200Y-114910000D01*
X153099200Y-113910000D01*
X153114861Y-113779590D01*
X153117781Y-113772183D01*
X153118391Y-113767556D01*
X153143735Y-113706367D01*
X153169889Y-113640047D01*
X153172792Y-113636218D01*
X153173372Y-113634819D01*
X153214468Y-113581260D01*
X153260526Y-113520526D01*
X153321260Y-113474468D01*
X153374819Y-113433372D01*
X153376218Y-113432792D01*
X153380047Y-113429889D01*
X153446352Y-113403741D01*
X153507557Y-113378390D01*
X153512186Y-113377780D01*
X153519590Y-113374861D01*
X153650000Y-113359200D01*
X155400000Y-113359200D01*
X155530410Y-113374861D01*
G37*
G36*
X160170263Y-114842140D02*
G01*
X160215682Y-114872488D01*
X160246030Y-114917907D01*
X160256687Y-114971483D01*
X160256687Y-115311483D01*
X160246030Y-115365059D01*
X160215682Y-115410478D01*
X160170263Y-115440826D01*
X160116687Y-115451483D01*
X159836687Y-115451483D01*
X159783111Y-115440826D01*
X159737692Y-115410478D01*
X159707344Y-115365059D01*
X159696687Y-115311483D01*
X159696687Y-114971483D01*
X159707344Y-114917907D01*
X159737692Y-114872488D01*
X159783111Y-114842140D01*
X159836687Y-114831483D01*
X160116687Y-114831483D01*
X160170263Y-114842140D01*
G37*
G36*
X161130263Y-114842140D02*
G01*
X161175682Y-114872488D01*
X161206030Y-114917907D01*
X161216687Y-114971483D01*
X161216687Y-115311483D01*
X161206030Y-115365059D01*
X161175682Y-115410478D01*
X161130263Y-115440826D01*
X161076687Y-115451483D01*
X160796687Y-115451483D01*
X160743111Y-115440826D01*
X160697692Y-115410478D01*
X160667344Y-115365059D01*
X160656687Y-115311483D01*
X160656687Y-114971483D01*
X160667344Y-114917907D01*
X160697692Y-114872488D01*
X160743111Y-114842140D01*
X160796687Y-114831483D01*
X161076687Y-114831483D01*
X161130263Y-114842140D01*
G37*
G36*
X157755711Y-114795156D02*
G01*
X157799508Y-114824421D01*
X157828773Y-114868218D01*
X157839049Y-114919880D01*
X157839049Y-115289880D01*
X157828773Y-115341542D01*
X157799508Y-115385339D01*
X157755711Y-115414604D01*
X157704049Y-115424880D01*
X157434049Y-115424880D01*
X157382387Y-115414604D01*
X157338590Y-115385339D01*
X157309325Y-115341542D01*
X157299049Y-115289880D01*
X157299049Y-114919880D01*
X157309325Y-114868218D01*
X157338590Y-114824421D01*
X157382387Y-114795156D01*
X157434049Y-114784880D01*
X157704049Y-114784880D01*
X157755711Y-114795156D01*
G37*
G36*
X158775711Y-114795156D02*
G01*
X158819508Y-114824421D01*
X158848773Y-114868218D01*
X158859049Y-114919880D01*
X158859049Y-115289880D01*
X158848773Y-115341542D01*
X158819508Y-115385339D01*
X158775711Y-115414604D01*
X158724049Y-115424880D01*
X158454049Y-115424880D01*
X158402387Y-115414604D01*
X158358590Y-115385339D01*
X158329325Y-115341542D01*
X158319049Y-115289880D01*
X158319049Y-114919880D01*
X158329325Y-114868218D01*
X158358590Y-114824421D01*
X158402387Y-114795156D01*
X158454049Y-114784880D01*
X158724049Y-114784880D01*
X158775711Y-114795156D01*
G37*
G36*
X164838000Y-115129483D02*
G01*
X163838000Y-115129483D01*
X163540105Y-115129483D01*
X163538000Y-115129483D01*
X162538000Y-115129483D01*
X162538000Y-113629483D01*
X163538000Y-113629483D01*
X164832996Y-113629483D01*
X164838000Y-113629483D01*
X164838000Y-115129483D01*
G37*
G36*
X158814373Y-112722853D02*
G01*
X158867092Y-112758078D01*
X158902317Y-112810797D01*
X158914687Y-112872983D01*
X158914687Y-114107983D01*
X158902317Y-114170169D01*
X158867092Y-114222888D01*
X158814373Y-114258113D01*
X158752187Y-114270483D01*
X158427187Y-114270483D01*
X158365001Y-114258113D01*
X158312282Y-114222888D01*
X158277057Y-114170169D01*
X158264687Y-114107983D01*
X158264687Y-112872983D01*
X158277057Y-112810797D01*
X158312282Y-112758078D01*
X158365001Y-112722853D01*
X158427187Y-112710483D01*
X158752187Y-112710483D01*
X158814373Y-112722853D01*
G37*
G36*
X159764373Y-112722853D02*
G01*
X159817092Y-112758078D01*
X159852317Y-112810797D01*
X159864687Y-112872983D01*
X159864687Y-114107983D01*
X159852317Y-114170169D01*
X159817092Y-114222888D01*
X159764373Y-114258113D01*
X159702187Y-114270483D01*
X159377187Y-114270483D01*
X159315001Y-114258113D01*
X159262282Y-114222888D01*
X159227057Y-114170169D01*
X159214687Y-114107983D01*
X159214687Y-112872983D01*
X159227057Y-112810797D01*
X159262282Y-112758078D01*
X159315001Y-112722853D01*
X159377187Y-112710483D01*
X159702187Y-112710483D01*
X159764373Y-112722853D01*
G37*
G36*
X160714373Y-112722853D02*
G01*
X160767092Y-112758078D01*
X160802317Y-112810797D01*
X160814687Y-112872983D01*
X160814687Y-114107983D01*
X160802317Y-114170169D01*
X160767092Y-114222888D01*
X160714373Y-114258113D01*
X160652187Y-114270483D01*
X160327187Y-114270483D01*
X160265001Y-114258113D01*
X160212282Y-114222888D01*
X160177057Y-114170169D01*
X160164687Y-114107983D01*
X160164687Y-112872983D01*
X160177057Y-112810797D01*
X160212282Y-112758078D01*
X160265001Y-112722853D01*
X160327187Y-112710483D01*
X160652187Y-112710483D01*
X160714373Y-112722853D01*
G37*
G36*
X128066742Y-112106601D02*
G01*
X128220687Y-112170367D01*
X128359234Y-112262941D01*
X128477059Y-112380766D01*
X128569633Y-112519313D01*
X128633399Y-112673258D01*
X128665907Y-112836685D01*
X128665907Y-113003315D01*
X128633399Y-113166742D01*
X128569633Y-113320687D01*
X128477059Y-113459234D01*
X128359234Y-113577059D01*
X128220687Y-113669633D01*
X128066742Y-113733399D01*
X127903315Y-113765907D01*
X127736685Y-113765907D01*
X127573258Y-113733399D01*
X127419313Y-113669633D01*
X127280766Y-113577059D01*
X127162941Y-113459234D01*
X127070367Y-113320687D01*
X127006601Y-113166742D01*
X126974093Y-113003315D01*
X126974093Y-112836685D01*
X127006601Y-112673258D01*
X127070367Y-112519313D01*
X127162941Y-112380766D01*
X127280766Y-112262941D01*
X127419313Y-112170367D01*
X127573258Y-112106601D01*
X127736685Y-112074093D01*
X127903315Y-112074093D01*
X128066742Y-112106601D01*
G37*
G36*
X139365410Y-110834861D02*
G01*
X139372817Y-110837782D01*
X139377443Y-110838391D01*
X139438611Y-110863727D01*
X139504953Y-110889889D01*
X139508782Y-110892793D01*
X139510180Y-110893372D01*
X139563654Y-110934404D01*
X139624474Y-110980526D01*
X139670615Y-111041371D01*
X139711627Y-111094819D01*
X139712205Y-111096215D01*
X139715111Y-111100047D01*
X139741277Y-111166402D01*
X139766609Y-111227557D01*
X139767217Y-111232182D01*
X139770139Y-111239590D01*
X139785800Y-111370000D01*
X139785800Y-112370000D01*
X139770139Y-112500410D01*
X139767216Y-112507821D01*
X139766608Y-112512443D01*
X139741292Y-112573560D01*
X139715111Y-112639953D01*
X139712204Y-112643785D01*
X139711627Y-112645180D01*
X139670680Y-112698542D01*
X139624474Y-112759474D01*
X139563542Y-112805680D01*
X139510180Y-112846627D01*
X139508785Y-112847204D01*
X139504953Y-112850111D01*
X139438576Y-112876286D01*
X139377442Y-112901609D01*
X139372817Y-112902217D01*
X139365410Y-112905139D01*
X139235000Y-112920800D01*
X137485000Y-112920800D01*
X137354590Y-112905139D01*
X137347179Y-112902216D01*
X137342556Y-112901608D01*
X137281418Y-112876284D01*
X137215047Y-112850111D01*
X137211215Y-112847205D01*
X137209819Y-112846627D01*
X137156371Y-112805615D01*
X137095526Y-112759474D01*
X137049404Y-112698654D01*
X137008372Y-112645180D01*
X137007793Y-112643782D01*
X137004889Y-112639953D01*
X136978733Y-112573627D01*
X136953390Y-112512442D01*
X136952780Y-112507814D01*
X136949861Y-112500410D01*
X136934200Y-112370000D01*
X136934200Y-111370000D01*
X136949861Y-111239590D01*
X136952781Y-111232183D01*
X136953391Y-111227556D01*
X136978735Y-111166367D01*
X137004889Y-111100047D01*
X137007792Y-111096218D01*
X137008372Y-111094819D01*
X137049468Y-111041260D01*
X137095526Y-110980526D01*
X137156260Y-110934468D01*
X137209819Y-110893372D01*
X137211218Y-110892792D01*
X137215047Y-110889889D01*
X137281352Y-110863741D01*
X137342557Y-110838390D01*
X137347186Y-110837780D01*
X137354590Y-110834861D01*
X137485000Y-110819200D01*
X139235000Y-110819200D01*
X139365410Y-110834861D01*
G37*
G36*
X155530410Y-110834861D02*
G01*
X155537817Y-110837782D01*
X155542443Y-110838391D01*
X155603611Y-110863727D01*
X155669953Y-110889889D01*
X155673782Y-110892793D01*
X155675180Y-110893372D01*
X155728654Y-110934404D01*
X155789474Y-110980526D01*
X155835615Y-111041371D01*
X155876627Y-111094819D01*
X155877205Y-111096215D01*
X155880111Y-111100047D01*
X155906277Y-111166402D01*
X155931609Y-111227557D01*
X155932217Y-111232182D01*
X155935139Y-111239590D01*
X155950800Y-111370000D01*
X155950800Y-112370000D01*
X155935139Y-112500410D01*
X155932216Y-112507821D01*
X155931608Y-112512443D01*
X155906292Y-112573560D01*
X155880111Y-112639953D01*
X155877204Y-112643785D01*
X155876627Y-112645180D01*
X155835680Y-112698542D01*
X155789474Y-112759474D01*
X155728542Y-112805680D01*
X155675180Y-112846627D01*
X155673785Y-112847204D01*
X155669953Y-112850111D01*
X155603576Y-112876286D01*
X155542442Y-112901609D01*
X155537817Y-112902217D01*
X155530410Y-112905139D01*
X155400000Y-112920800D01*
X153650000Y-112920800D01*
X153519590Y-112905139D01*
X153512179Y-112902216D01*
X153507556Y-112901608D01*
X153446418Y-112876284D01*
X153380047Y-112850111D01*
X153376215Y-112847205D01*
X153374819Y-112846627D01*
X153321371Y-112805615D01*
X153260526Y-112759474D01*
X153214404Y-112698654D01*
X153173372Y-112645180D01*
X153172793Y-112643782D01*
X153169889Y-112639953D01*
X153143733Y-112573627D01*
X153118390Y-112512442D01*
X153117780Y-112507814D01*
X153114861Y-112500410D01*
X153099200Y-112370000D01*
X153099200Y-111370000D01*
X153114861Y-111239590D01*
X153117781Y-111232183D01*
X153118391Y-111227556D01*
X153143735Y-111166367D01*
X153169889Y-111100047D01*
X153172792Y-111096218D01*
X153173372Y-111094819D01*
X153214468Y-111041260D01*
X153260526Y-110980526D01*
X153321260Y-110934468D01*
X153374819Y-110893372D01*
X153376218Y-110892792D01*
X153380047Y-110889889D01*
X153446352Y-110863741D01*
X153507557Y-110838390D01*
X153512186Y-110837780D01*
X153519590Y-110834861D01*
X153650000Y-110819200D01*
X155400000Y-110819200D01*
X155530410Y-110834861D01*
G37*
G36*
X134550662Y-111211276D02*
G01*
X134594459Y-111240541D01*
X134623724Y-111284338D01*
X134634000Y-111336000D01*
X134634000Y-111706000D01*
X134623724Y-111757662D01*
X134594459Y-111801459D01*
X134550662Y-111830724D01*
X134499000Y-111841000D01*
X134229000Y-111841000D01*
X134177338Y-111830724D01*
X134133541Y-111801459D01*
X134104276Y-111757662D01*
X134094000Y-111706000D01*
X134094000Y-111336000D01*
X134104276Y-111284338D01*
X134133541Y-111240541D01*
X134177338Y-111211276D01*
X134229000Y-111201000D01*
X134499000Y-111201000D01*
X134550662Y-111211276D01*
G37*
G36*
X135570662Y-111211276D02*
G01*
X135614459Y-111240541D01*
X135643724Y-111284338D01*
X135654000Y-111336000D01*
X135654000Y-111706000D01*
X135643724Y-111757662D01*
X135614459Y-111801459D01*
X135570662Y-111830724D01*
X135519000Y-111841000D01*
X135249000Y-111841000D01*
X135197338Y-111830724D01*
X135153541Y-111801459D01*
X135124276Y-111757662D01*
X135114000Y-111706000D01*
X135114000Y-111336000D01*
X135124276Y-111284338D01*
X135153541Y-111240541D01*
X135197338Y-111211276D01*
X135249000Y-111201000D01*
X135519000Y-111201000D01*
X135570662Y-111211276D01*
G37*
G36*
X158814373Y-110022853D02*
G01*
X158867092Y-110058078D01*
X158902317Y-110110797D01*
X158914687Y-110172983D01*
X158914687Y-111407983D01*
X158902317Y-111470169D01*
X158867092Y-111522888D01*
X158814373Y-111558113D01*
X158752187Y-111570483D01*
X158427187Y-111570483D01*
X158365001Y-111558113D01*
X158312282Y-111522888D01*
X158277057Y-111470169D01*
X158264687Y-111407983D01*
X158264687Y-110172983D01*
X158277057Y-110110797D01*
X158312282Y-110058078D01*
X158365001Y-110022853D01*
X158427187Y-110010483D01*
X158752187Y-110010483D01*
X158814373Y-110022853D01*
G37*
G36*
X159764373Y-110022853D02*
G01*
X159817092Y-110058078D01*
X159852317Y-110110797D01*
X159864687Y-110172983D01*
X159864687Y-111407983D01*
X159852317Y-111470169D01*
X159817092Y-111522888D01*
X159764373Y-111558113D01*
X159702187Y-111570483D01*
X159377187Y-111570483D01*
X159315001Y-111558113D01*
X159262282Y-111522888D01*
X159227057Y-111470169D01*
X159214687Y-111407983D01*
X159214687Y-110172983D01*
X159227057Y-110110797D01*
X159262282Y-110058078D01*
X159315001Y-110022853D01*
X159377187Y-110010483D01*
X159702187Y-110010483D01*
X159764373Y-110022853D01*
G37*
G36*
X160714373Y-110022853D02*
G01*
X160767092Y-110058078D01*
X160802317Y-110110797D01*
X160814687Y-110172983D01*
X160814687Y-111407983D01*
X160802317Y-111470169D01*
X160767092Y-111522888D01*
X160714373Y-111558113D01*
X160652187Y-111570483D01*
X160327187Y-111570483D01*
X160265001Y-111558113D01*
X160212282Y-111522888D01*
X160177057Y-111470169D01*
X160164687Y-111407983D01*
X160164687Y-110172983D01*
X160177057Y-110110797D01*
X160212282Y-110058078D01*
X160265001Y-110022853D01*
X160327187Y-110010483D01*
X160652187Y-110010483D01*
X160714373Y-110022853D01*
G37*
G36*
X128066742Y-109566601D02*
G01*
X128220687Y-109630367D01*
X128359234Y-109722941D01*
X128477059Y-109840766D01*
X128569633Y-109979313D01*
X128633399Y-110133258D01*
X128665907Y-110296685D01*
X128665907Y-110463315D01*
X128633399Y-110626742D01*
X128569633Y-110780687D01*
X128477059Y-110919234D01*
X128359234Y-111037059D01*
X128220687Y-111129633D01*
X128066742Y-111193399D01*
X127903315Y-111225907D01*
X127736685Y-111225907D01*
X127573258Y-111193399D01*
X127419313Y-111129633D01*
X127280766Y-111037059D01*
X127162941Y-110919234D01*
X127070367Y-110780687D01*
X127006601Y-110626742D01*
X126974093Y-110463315D01*
X126974093Y-110296685D01*
X127006601Y-110133258D01*
X127070367Y-109979313D01*
X127162941Y-109840766D01*
X127280766Y-109722941D01*
X127419313Y-109630367D01*
X127573258Y-109566601D01*
X127736685Y-109534093D01*
X127903315Y-109534093D01*
X128066742Y-109566601D01*
G37*
G36*
X134550662Y-110180276D02*
G01*
X134594459Y-110209541D01*
X134623724Y-110253338D01*
X134634000Y-110305000D01*
X134634000Y-110675000D01*
X134623724Y-110726662D01*
X134594459Y-110770459D01*
X134550662Y-110799724D01*
X134499000Y-110810000D01*
X134229000Y-110810000D01*
X134177338Y-110799724D01*
X134133541Y-110770459D01*
X134104276Y-110726662D01*
X134094000Y-110675000D01*
X134094000Y-110305000D01*
X134104276Y-110253338D01*
X134133541Y-110209541D01*
X134177338Y-110180276D01*
X134229000Y-110170000D01*
X134499000Y-110170000D01*
X134550662Y-110180276D01*
G37*
G36*
X135570662Y-110180276D02*
G01*
X135614459Y-110209541D01*
X135643724Y-110253338D01*
X135654000Y-110305000D01*
X135654000Y-110675000D01*
X135643724Y-110726662D01*
X135614459Y-110770459D01*
X135570662Y-110799724D01*
X135519000Y-110810000D01*
X135249000Y-110810000D01*
X135197338Y-110799724D01*
X135153541Y-110770459D01*
X135124276Y-110726662D01*
X135114000Y-110675000D01*
X135114000Y-110305000D01*
X135124276Y-110253338D01*
X135153541Y-110209541D01*
X135197338Y-110180276D01*
X135249000Y-110170000D01*
X135519000Y-110170000D01*
X135570662Y-110180276D01*
G37*
G36*
X157701263Y-108873140D02*
G01*
X157746682Y-108903488D01*
X157777030Y-108948907D01*
X157787687Y-109002483D01*
X157787687Y-109342483D01*
X157777030Y-109396059D01*
X157746682Y-109441478D01*
X157701263Y-109471826D01*
X157647687Y-109482483D01*
X157367687Y-109482483D01*
X157314111Y-109471826D01*
X157268692Y-109441478D01*
X157238344Y-109396059D01*
X157227687Y-109342483D01*
X157227687Y-109002483D01*
X157238344Y-108948907D01*
X157268692Y-108903488D01*
X157314111Y-108873140D01*
X157367687Y-108862483D01*
X157647687Y-108862483D01*
X157701263Y-108873140D01*
G37*
G36*
X158661263Y-108873140D02*
G01*
X158706682Y-108903488D01*
X158737030Y-108948907D01*
X158747687Y-109002483D01*
X158747687Y-109342483D01*
X158737030Y-109396059D01*
X158706682Y-109441478D01*
X158661263Y-109471826D01*
X158607687Y-109482483D01*
X158327687Y-109482483D01*
X158274111Y-109471826D01*
X158228692Y-109441478D01*
X158198344Y-109396059D01*
X158187687Y-109342483D01*
X158187687Y-109002483D01*
X158198344Y-108948907D01*
X158228692Y-108903488D01*
X158274111Y-108873140D01*
X158327687Y-108862483D01*
X158607687Y-108862483D01*
X158661263Y-108873140D01*
G37*
G36*
X135624000Y-107593258D02*
G01*
X135624000Y-108053999D01*
X135624000Y-108054000D01*
X135624000Y-108354000D01*
X135624000Y-109354000D01*
X134124000Y-109354000D01*
X134124000Y-108354000D01*
X134124000Y-108054000D01*
X134124000Y-107054000D01*
X135624000Y-107054000D01*
X135624000Y-107593258D01*
G37*
G36*
X128066742Y-107026601D02*
G01*
X128220687Y-107090367D01*
X128359234Y-107182941D01*
X128477059Y-107300766D01*
X128569633Y-107439313D01*
X128633399Y-107593258D01*
X128665907Y-107756685D01*
X128665907Y-107923315D01*
X128633399Y-108086742D01*
X128569633Y-108240687D01*
X128477059Y-108379234D01*
X128359234Y-108497059D01*
X128220687Y-108589633D01*
X128066742Y-108653399D01*
X127903315Y-108685907D01*
X127736685Y-108685907D01*
X127573258Y-108653399D01*
X127419313Y-108589633D01*
X127280766Y-108497059D01*
X127162941Y-108379234D01*
X127070367Y-108240687D01*
X127006601Y-108086742D01*
X126974093Y-107923315D01*
X126974093Y-107756685D01*
X127006601Y-107593258D01*
X127070367Y-107439313D01*
X127162941Y-107300766D01*
X127280766Y-107182941D01*
X127419313Y-107090367D01*
X127573258Y-107026601D01*
X127736685Y-106994093D01*
X127903315Y-106994093D01*
X128066742Y-107026601D01*
G37*
G36*
X147110737Y-107895590D02*
G01*
X147156156Y-107925938D01*
X147186504Y-107971357D01*
X147197161Y-108024933D01*
X147197161Y-108304933D01*
X147186504Y-108358509D01*
X147156156Y-108403928D01*
X147110737Y-108434276D01*
X147057161Y-108444933D01*
X146717161Y-108444933D01*
X146663585Y-108434276D01*
X146618166Y-108403928D01*
X146587818Y-108358509D01*
X146577161Y-108304933D01*
X146577161Y-108024933D01*
X146587818Y-107971357D01*
X146618166Y-107925938D01*
X146663585Y-107895590D01*
X146717161Y-107884933D01*
X147057161Y-107884933D01*
X147110737Y-107895590D01*
G37*
G36*
X139082342Y-107935738D02*
G01*
X139106674Y-107951996D01*
X139122932Y-107976328D01*
X139128641Y-108005029D01*
X139128641Y-108155029D01*
X139122932Y-108183730D01*
X139106674Y-108208062D01*
X139082342Y-108224320D01*
X139053641Y-108230029D01*
X137753641Y-108230029D01*
X137724940Y-108224320D01*
X137700608Y-108208062D01*
X137684350Y-108183730D01*
X137678641Y-108155029D01*
X137678641Y-108005029D01*
X137684350Y-107976328D01*
X137700608Y-107951996D01*
X137724940Y-107935738D01*
X137753641Y-107930029D01*
X139053641Y-107930029D01*
X139082342Y-107935738D01*
G37*
G36*
X143482342Y-107935738D02*
G01*
X143506674Y-107951996D01*
X143522932Y-107976328D01*
X143528641Y-108005029D01*
X143528641Y-108155029D01*
X143522932Y-108183730D01*
X143506674Y-108208062D01*
X143482342Y-108224320D01*
X143453641Y-108230029D01*
X142153641Y-108230029D01*
X142124940Y-108224320D01*
X142100608Y-108208062D01*
X142084350Y-108183730D01*
X142078641Y-108155029D01*
X142078641Y-108005029D01*
X142084350Y-107976328D01*
X142100608Y-107951996D01*
X142124940Y-107935738D01*
X142153641Y-107930029D01*
X143453641Y-107930029D01*
X143482342Y-107935738D01*
G37*
G36*
X149128768Y-107619612D02*
G01*
X149161211Y-107641289D01*
X149182888Y-107673732D01*
X149190500Y-107712000D01*
X149190500Y-107912000D01*
X149182888Y-107950268D01*
X149161211Y-107982711D01*
X149128768Y-108004388D01*
X149090500Y-108012000D01*
X147815500Y-108012000D01*
X147777232Y-108004388D01*
X147744789Y-107982711D01*
X147723112Y-107950268D01*
X147715500Y-107912000D01*
X147715500Y-107712000D01*
X147723112Y-107673732D01*
X147744789Y-107641289D01*
X147777232Y-107619612D01*
X147815500Y-107612000D01*
X149090500Y-107612000D01*
X149128768Y-107619612D01*
G37*
G36*
X154853768Y-107619612D02*
G01*
X154886211Y-107641289D01*
X154907888Y-107673732D01*
X154915500Y-107712000D01*
X154915500Y-107912000D01*
X154907888Y-107950268D01*
X154886211Y-107982711D01*
X154853768Y-108004388D01*
X154815500Y-108012000D01*
X153540500Y-108012000D01*
X153502232Y-108004388D01*
X153469789Y-107982711D01*
X153448112Y-107950268D01*
X153440500Y-107912000D01*
X153440500Y-107712000D01*
X153448112Y-107673732D01*
X153469789Y-107641289D01*
X153502232Y-107619612D01*
X153540500Y-107612000D01*
X154815500Y-107612000D01*
X154853768Y-107619612D01*
G37*
G36*
X139082342Y-107435738D02*
G01*
X139106674Y-107451996D01*
X139122932Y-107476328D01*
X139128641Y-107505029D01*
X139128641Y-107655029D01*
X139122932Y-107683730D01*
X139106674Y-107708062D01*
X139082342Y-107724320D01*
X139053641Y-107730029D01*
X137753641Y-107730029D01*
X137724940Y-107724320D01*
X137700608Y-107708062D01*
X137684350Y-107683730D01*
X137678641Y-107655029D01*
X137678641Y-107505029D01*
X137684350Y-107476328D01*
X137700608Y-107451996D01*
X137724940Y-107435738D01*
X137753641Y-107430029D01*
X139053641Y-107430029D01*
X139082342Y-107435738D01*
G37*
G36*
X143482342Y-107435738D02*
G01*
X143506674Y-107451996D01*
X143522932Y-107476328D01*
X143528641Y-107505029D01*
X143528641Y-107655029D01*
X143522932Y-107683730D01*
X143506674Y-107708062D01*
X143482342Y-107724320D01*
X143453641Y-107730029D01*
X142153641Y-107730029D01*
X142124940Y-107724320D01*
X142100608Y-107708062D01*
X142084350Y-107683730D01*
X142078641Y-107655029D01*
X142078641Y-107505029D01*
X142084350Y-107476328D01*
X142100608Y-107451996D01*
X142124940Y-107435738D01*
X142153641Y-107430029D01*
X143453641Y-107430029D01*
X143482342Y-107435738D01*
G37*
G36*
X160890941Y-107678000D02*
G01*
X159890941Y-107678000D01*
X159593046Y-107678000D01*
X159590941Y-107678000D01*
X158590941Y-107678000D01*
X158590941Y-106178000D01*
X159590941Y-106178000D01*
X160885937Y-106178000D01*
X160890941Y-106178000D01*
X160890941Y-107678000D01*
G37*
G36*
X147110737Y-106935590D02*
G01*
X147156156Y-106965938D01*
X147186504Y-107011357D01*
X147197161Y-107064933D01*
X147197161Y-107344933D01*
X147186504Y-107398509D01*
X147156156Y-107443928D01*
X147110737Y-107474276D01*
X147057161Y-107484933D01*
X146717161Y-107484933D01*
X146663585Y-107474276D01*
X146618166Y-107443928D01*
X146587818Y-107398509D01*
X146577161Y-107344933D01*
X146577161Y-107064933D01*
X146587818Y-107011357D01*
X146618166Y-106965938D01*
X146663585Y-106935590D01*
X146717161Y-106924933D01*
X147057161Y-106924933D01*
X147110737Y-106935590D01*
G37*
G36*
X149128768Y-106969612D02*
G01*
X149161211Y-106991289D01*
X149182888Y-107023732D01*
X149190500Y-107062000D01*
X149190500Y-107262000D01*
X149182888Y-107300268D01*
X149161211Y-107332711D01*
X149128768Y-107354388D01*
X149090500Y-107362000D01*
X147815500Y-107362000D01*
X147777232Y-107354388D01*
X147744789Y-107332711D01*
X147723112Y-107300268D01*
X147715500Y-107262000D01*
X147715500Y-107062000D01*
X147723112Y-107023732D01*
X147744789Y-106991289D01*
X147777232Y-106969612D01*
X147815500Y-106962000D01*
X149090500Y-106962000D01*
X149128768Y-106969612D01*
G37*
G36*
X154853768Y-106969612D02*
G01*
X154886211Y-106991289D01*
X154907888Y-107023732D01*
X154915500Y-107062000D01*
X154915500Y-107262000D01*
X154907888Y-107300268D01*
X154886211Y-107332711D01*
X154853768Y-107354388D01*
X154815500Y-107362000D01*
X153540500Y-107362000D01*
X153502232Y-107354388D01*
X153469789Y-107332711D01*
X153448112Y-107300268D01*
X153440500Y-107262000D01*
X153440500Y-107062000D01*
X153448112Y-107023732D01*
X153469789Y-106991289D01*
X153502232Y-106969612D01*
X153540500Y-106962000D01*
X154815500Y-106962000D01*
X154853768Y-106969612D01*
G37*
G36*
X139082342Y-106935738D02*
G01*
X139106674Y-106951996D01*
X139122932Y-106976328D01*
X139128641Y-107005029D01*
X139128641Y-107155029D01*
X139122932Y-107183730D01*
X139106674Y-107208062D01*
X139082342Y-107224320D01*
X139053641Y-107230029D01*
X137753641Y-107230029D01*
X137724940Y-107224320D01*
X137700608Y-107208062D01*
X137684350Y-107183730D01*
X137678641Y-107155029D01*
X137678641Y-107005029D01*
X137684350Y-106976328D01*
X137700608Y-106951996D01*
X137724940Y-106935738D01*
X137753641Y-106930029D01*
X139053641Y-106930029D01*
X139082342Y-106935738D01*
G37*
G36*
X143482342Y-106935738D02*
G01*
X143506674Y-106951996D01*
X143522932Y-106976328D01*
X143528641Y-107005029D01*
X143528641Y-107155029D01*
X143522932Y-107183730D01*
X143506674Y-107208062D01*
X143482342Y-107224320D01*
X143453641Y-107230029D01*
X142153641Y-107230029D01*
X142124940Y-107224320D01*
X142100608Y-107208062D01*
X142084350Y-107183730D01*
X142078641Y-107155029D01*
X142078641Y-107005029D01*
X142084350Y-106976328D01*
X142100608Y-106951996D01*
X142124940Y-106935738D01*
X142153641Y-106930029D01*
X143453641Y-106930029D01*
X143482342Y-106935738D01*
G37*
G36*
X139082342Y-106435738D02*
G01*
X139106674Y-106451996D01*
X139122932Y-106476328D01*
X139128641Y-106505029D01*
X139128641Y-106655029D01*
X139122932Y-106683730D01*
X139106674Y-106708062D01*
X139082342Y-106724320D01*
X139053641Y-106730029D01*
X137753641Y-106730029D01*
X137724940Y-106724320D01*
X137700608Y-106708062D01*
X137684350Y-106683730D01*
X137678641Y-106655029D01*
X137678641Y-106505029D01*
X137684350Y-106476328D01*
X137700608Y-106451996D01*
X137724940Y-106435738D01*
X137753641Y-106430029D01*
X139053641Y-106430029D01*
X139082342Y-106435738D01*
G37*
G36*
X143482342Y-106435738D02*
G01*
X143506674Y-106451996D01*
X143522932Y-106476328D01*
X143528641Y-106505029D01*
X143528641Y-106655029D01*
X143522932Y-106683730D01*
X143506674Y-106708062D01*
X143482342Y-106724320D01*
X143453641Y-106730029D01*
X142153641Y-106730029D01*
X142124940Y-106724320D01*
X142100608Y-106708062D01*
X142084350Y-106683730D01*
X142078641Y-106655029D01*
X142078641Y-106505029D01*
X142084350Y-106476328D01*
X142100608Y-106451996D01*
X142124940Y-106435738D01*
X142153641Y-106430029D01*
X143453641Y-106430029D01*
X143482342Y-106435738D01*
G37*
G36*
X149128768Y-106319612D02*
G01*
X149161211Y-106341289D01*
X149182888Y-106373732D01*
X149190500Y-106412000D01*
X149190500Y-106612000D01*
X149182888Y-106650268D01*
X149161211Y-106682711D01*
X149128768Y-106704388D01*
X149090500Y-106712000D01*
X147815500Y-106712000D01*
X147777232Y-106704388D01*
X147744789Y-106682711D01*
X147723112Y-106650268D01*
X147715500Y-106612000D01*
X147715500Y-106412000D01*
X147723112Y-106373732D01*
X147744789Y-106341289D01*
X147777232Y-106319612D01*
X147815500Y-106312000D01*
X149090500Y-106312000D01*
X149128768Y-106319612D01*
G37*
G36*
X154853768Y-106319612D02*
G01*
X154886211Y-106341289D01*
X154907888Y-106373732D01*
X154915500Y-106412000D01*
X154915500Y-106612000D01*
X154907888Y-106650268D01*
X154886211Y-106682711D01*
X154853768Y-106704388D01*
X154815500Y-106712000D01*
X153540500Y-106712000D01*
X153502232Y-106704388D01*
X153469789Y-106682711D01*
X153448112Y-106650268D01*
X153440500Y-106612000D01*
X153440500Y-106412000D01*
X153448112Y-106373732D01*
X153469789Y-106341289D01*
X153502232Y-106319612D01*
X153540500Y-106312000D01*
X154815500Y-106312000D01*
X154853768Y-106319612D01*
G37*
G36*
X139082342Y-105935738D02*
G01*
X139106674Y-105951996D01*
X139122932Y-105976328D01*
X139128641Y-106005029D01*
X139128641Y-106155029D01*
X139122932Y-106183730D01*
X139106674Y-106208062D01*
X139082342Y-106224320D01*
X139053641Y-106230029D01*
X137753641Y-106230029D01*
X137724940Y-106224320D01*
X137700608Y-106208062D01*
X137684350Y-106183730D01*
X137678641Y-106155029D01*
X137678641Y-106005029D01*
X137684350Y-105976328D01*
X137700608Y-105951996D01*
X137724940Y-105935738D01*
X137753641Y-105930029D01*
X139053641Y-105930029D01*
X139082342Y-105935738D01*
G37*
G36*
X143482342Y-105935738D02*
G01*
X143506674Y-105951996D01*
X143522932Y-105976328D01*
X143528641Y-106005029D01*
X143528641Y-106155029D01*
X143522932Y-106183730D01*
X143506674Y-106208062D01*
X143482342Y-106224320D01*
X143453641Y-106230029D01*
X142153641Y-106230029D01*
X142124940Y-106224320D01*
X142100608Y-106208062D01*
X142084350Y-106183730D01*
X142078641Y-106155029D01*
X142078641Y-106005029D01*
X142084350Y-105976328D01*
X142100608Y-105951996D01*
X142124940Y-105935738D01*
X142153641Y-105930029D01*
X143453641Y-105930029D01*
X143482342Y-105935738D01*
G37*
G36*
X128066742Y-104486601D02*
G01*
X128220687Y-104550367D01*
X128359234Y-104642941D01*
X128477059Y-104760766D01*
X128569633Y-104899313D01*
X128633399Y-105053258D01*
X128665907Y-105216685D01*
X128665907Y-105383315D01*
X128633399Y-105546742D01*
X128569633Y-105700687D01*
X128477059Y-105839234D01*
X128359234Y-105957059D01*
X128220687Y-106049633D01*
X128066742Y-106113399D01*
X127903315Y-106145907D01*
X127736685Y-106145907D01*
X127573258Y-106113399D01*
X127419313Y-106049633D01*
X127280766Y-105957059D01*
X127162941Y-105839234D01*
X127070367Y-105700687D01*
X127006601Y-105546742D01*
X126974093Y-105383315D01*
X126974093Y-105216685D01*
X127006601Y-105053258D01*
X127070367Y-104899313D01*
X127162941Y-104760766D01*
X127280766Y-104642941D01*
X127419313Y-104550367D01*
X127573258Y-104486601D01*
X127736685Y-104454093D01*
X127903315Y-104454093D01*
X128066742Y-104486601D01*
G37*
G36*
X149128768Y-105669612D02*
G01*
X149161211Y-105691289D01*
X149182888Y-105723732D01*
X149190500Y-105762000D01*
X149190500Y-105962000D01*
X149182888Y-106000268D01*
X149161211Y-106032711D01*
X149128768Y-106054388D01*
X149090500Y-106062000D01*
X147815500Y-106062000D01*
X147777232Y-106054388D01*
X147744789Y-106032711D01*
X147723112Y-106000268D01*
X147715500Y-105962000D01*
X147715500Y-105762000D01*
X147723112Y-105723732D01*
X147744789Y-105691289D01*
X147777232Y-105669612D01*
X147815500Y-105662000D01*
X149090500Y-105662000D01*
X149128768Y-105669612D01*
G37*
G36*
X154853768Y-105669612D02*
G01*
X154886211Y-105691289D01*
X154907888Y-105723732D01*
X154915500Y-105762000D01*
X154915500Y-105962000D01*
X154907888Y-106000268D01*
X154886211Y-106032711D01*
X154853768Y-106054388D01*
X154815500Y-106062000D01*
X153540500Y-106062000D01*
X153502232Y-106054388D01*
X153469789Y-106032711D01*
X153448112Y-106000268D01*
X153440500Y-105962000D01*
X153440500Y-105762000D01*
X153448112Y-105723732D01*
X153469789Y-105691289D01*
X153502232Y-105669612D01*
X153540500Y-105662000D01*
X154815500Y-105662000D01*
X154853768Y-105669612D01*
G37*
G36*
X144490893Y-105396622D02*
G01*
X144534690Y-105425887D01*
X144563955Y-105469684D01*
X144574231Y-105521346D01*
X144574231Y-105891346D01*
X144563955Y-105943008D01*
X144534690Y-105986805D01*
X144490893Y-106016070D01*
X144439231Y-106026346D01*
X144169231Y-106026346D01*
X144117569Y-106016070D01*
X144073772Y-105986805D01*
X144044507Y-105943008D01*
X144034231Y-105891346D01*
X144034231Y-105521346D01*
X144044507Y-105469684D01*
X144073772Y-105425887D01*
X144117569Y-105396622D01*
X144169231Y-105386346D01*
X144439231Y-105386346D01*
X144490893Y-105396622D01*
G37*
G36*
X145510893Y-105396622D02*
G01*
X145554690Y-105425887D01*
X145583955Y-105469684D01*
X145594231Y-105521346D01*
X145594231Y-105891346D01*
X145583955Y-105943008D01*
X145554690Y-105986805D01*
X145510893Y-106016070D01*
X145459231Y-106026346D01*
X145189231Y-106026346D01*
X145137569Y-106016070D01*
X145093772Y-105986805D01*
X145064507Y-105943008D01*
X145054231Y-105891346D01*
X145054231Y-105521346D01*
X145064507Y-105469684D01*
X145093772Y-105425887D01*
X145137569Y-105396622D01*
X145189231Y-105386346D01*
X145459231Y-105386346D01*
X145510893Y-105396622D01*
G37*
G36*
X149128768Y-105019612D02*
G01*
X149161211Y-105041289D01*
X149182888Y-105073732D01*
X149190500Y-105112000D01*
X149190500Y-105312000D01*
X149182888Y-105350268D01*
X149161211Y-105382711D01*
X149128768Y-105404388D01*
X149090500Y-105412000D01*
X147815500Y-105412000D01*
X147777232Y-105404388D01*
X147744789Y-105382711D01*
X147723112Y-105350268D01*
X147715500Y-105312000D01*
X147715500Y-105112000D01*
X147723112Y-105073732D01*
X147744789Y-105041289D01*
X147777232Y-105019612D01*
X147815500Y-105012000D01*
X149090500Y-105012000D01*
X149128768Y-105019612D01*
G37*
G36*
X154853768Y-105019612D02*
G01*
X154886211Y-105041289D01*
X154907888Y-105073732D01*
X154915500Y-105112000D01*
X154915500Y-105312000D01*
X154907888Y-105350268D01*
X154886211Y-105382711D01*
X154853768Y-105404388D01*
X154815500Y-105412000D01*
X153540500Y-105412000D01*
X153502232Y-105404388D01*
X153469789Y-105382711D01*
X153448112Y-105350268D01*
X153440500Y-105312000D01*
X153440500Y-105112000D01*
X153448112Y-105073732D01*
X153469789Y-105041289D01*
X153502232Y-105019612D01*
X153540500Y-105012000D01*
X154815500Y-105012000D01*
X154853768Y-105019612D01*
G37*
G36*
X138070525Y-104834566D02*
G01*
X138115944Y-104864914D01*
X138146292Y-104910333D01*
X138156949Y-104963909D01*
X138156949Y-105243909D01*
X138146292Y-105297485D01*
X138115944Y-105342904D01*
X138070525Y-105373252D01*
X138016949Y-105383909D01*
X137676949Y-105383909D01*
X137623373Y-105373252D01*
X137577954Y-105342904D01*
X137547606Y-105297485D01*
X137536949Y-105243909D01*
X137536949Y-104963909D01*
X137547606Y-104910333D01*
X137577954Y-104864914D01*
X137623373Y-104834566D01*
X137676949Y-104823909D01*
X138016949Y-104823909D01*
X138070525Y-104834566D01*
G37*
G36*
X162850686Y-103464334D02*
G01*
X162903405Y-103499559D01*
X162938630Y-103552278D01*
X162951000Y-103614464D01*
X162951000Y-104849464D01*
X162938630Y-104911650D01*
X162903405Y-104964369D01*
X162850686Y-104999594D01*
X162788500Y-105011964D01*
X162463500Y-105011964D01*
X162401314Y-104999594D01*
X162348595Y-104964369D01*
X162313370Y-104911650D01*
X162301000Y-104849464D01*
X162301000Y-103614464D01*
X162313370Y-103552278D01*
X162348595Y-103499559D01*
X162401314Y-103464334D01*
X162463500Y-103451964D01*
X162788500Y-103451964D01*
X162850686Y-103464334D01*
G37*
G36*
X164750686Y-103464334D02*
G01*
X164803405Y-103499559D01*
X164838630Y-103552278D01*
X164851000Y-103614464D01*
X164851000Y-104849464D01*
X164838630Y-104911650D01*
X164803405Y-104964369D01*
X164750686Y-104999594D01*
X164688500Y-105011964D01*
X164363500Y-105011964D01*
X164301314Y-104999594D01*
X164248595Y-104964369D01*
X164213370Y-104911650D01*
X164201000Y-104849464D01*
X164201000Y-103614464D01*
X164213370Y-103552278D01*
X164248595Y-103499559D01*
X164301314Y-103464334D01*
X164363500Y-103451964D01*
X164688500Y-103451964D01*
X164750686Y-103464334D01*
G37*
G36*
X160890941Y-105011000D02*
G01*
X159890941Y-105011000D01*
X159593046Y-105011000D01*
X159590941Y-105011000D01*
X158590941Y-105011000D01*
X158590941Y-103511000D01*
X159590941Y-103511000D01*
X160885937Y-103511000D01*
X160890941Y-103511000D01*
X160890941Y-105011000D01*
G37*
G36*
X140379104Y-103936127D02*
G01*
X140452099Y-103984901D01*
X140500873Y-104057896D01*
X140518000Y-104144000D01*
X140518000Y-104644000D01*
X140500873Y-104730104D01*
X140452099Y-104803099D01*
X140379104Y-104851873D01*
X140293000Y-104869000D01*
X139843000Y-104869000D01*
X139756896Y-104851873D01*
X139683901Y-104803099D01*
X139635127Y-104730104D01*
X139618000Y-104644000D01*
X139618000Y-104144000D01*
X139635127Y-104057896D01*
X139683901Y-103984901D01*
X139756896Y-103936127D01*
X139843000Y-103919000D01*
X140293000Y-103919000D01*
X140379104Y-103936127D01*
G37*
G36*
X141929104Y-103936127D02*
G01*
X142002099Y-103984901D01*
X142050873Y-104057896D01*
X142068000Y-104144000D01*
X142068000Y-104644000D01*
X142050873Y-104730104D01*
X142002099Y-104803099D01*
X141929104Y-104851873D01*
X141843000Y-104869000D01*
X141393000Y-104869000D01*
X141306896Y-104851873D01*
X141233901Y-104803099D01*
X141185127Y-104730104D01*
X141168000Y-104644000D01*
X141168000Y-104144000D01*
X141185127Y-104057896D01*
X141233901Y-103984901D01*
X141306896Y-103936127D01*
X141393000Y-103919000D01*
X141843000Y-103919000D01*
X141929104Y-103936127D01*
G37*
G36*
X143425745Y-103926927D02*
G01*
X143498740Y-103975701D01*
X143547514Y-104048696D01*
X143564641Y-104134800D01*
X143564641Y-104634800D01*
X143547514Y-104720904D01*
X143498740Y-104793899D01*
X143425745Y-104842673D01*
X143339641Y-104859800D01*
X142889641Y-104859800D01*
X142803537Y-104842673D01*
X142730542Y-104793899D01*
X142681768Y-104720904D01*
X142664641Y-104634800D01*
X142664641Y-104134800D01*
X142681768Y-104048696D01*
X142730542Y-103975701D01*
X142803537Y-103926927D01*
X142889641Y-103909800D01*
X143339641Y-103909800D01*
X143425745Y-103926927D01*
G37*
G36*
X144975745Y-103926927D02*
G01*
X145048740Y-103975701D01*
X145097514Y-104048696D01*
X145114641Y-104134800D01*
X145114641Y-104634800D01*
X145097514Y-104720904D01*
X145048740Y-104793899D01*
X144975745Y-104842673D01*
X144889641Y-104859800D01*
X144439641Y-104859800D01*
X144353537Y-104842673D01*
X144280542Y-104793899D01*
X144231768Y-104720904D01*
X144214641Y-104634800D01*
X144214641Y-104134800D01*
X144231768Y-104048696D01*
X144280542Y-103975701D01*
X144353537Y-103926927D01*
X144439641Y-103909800D01*
X144889641Y-103909800D01*
X144975745Y-103926927D01*
G37*
G36*
X149128768Y-104369612D02*
G01*
X149161211Y-104391289D01*
X149182888Y-104423732D01*
X149190500Y-104462000D01*
X149190500Y-104662000D01*
X149182888Y-104700268D01*
X149161211Y-104732711D01*
X149128768Y-104754388D01*
X149090500Y-104762000D01*
X147815500Y-104762000D01*
X147777232Y-104754388D01*
X147744789Y-104732711D01*
X147723112Y-104700268D01*
X147715500Y-104662000D01*
X147715500Y-104462000D01*
X147723112Y-104423732D01*
X147744789Y-104391289D01*
X147777232Y-104369612D01*
X147815500Y-104362000D01*
X149090500Y-104362000D01*
X149128768Y-104369612D01*
G37*
G36*
X154853768Y-104369612D02*
G01*
X154886211Y-104391289D01*
X154907888Y-104423732D01*
X154915500Y-104462000D01*
X154915500Y-104662000D01*
X154907888Y-104700268D01*
X154886211Y-104732711D01*
X154853768Y-104754388D01*
X154815500Y-104762000D01*
X153540500Y-104762000D01*
X153502232Y-104754388D01*
X153469789Y-104732711D01*
X153448112Y-104700268D01*
X153440500Y-104662000D01*
X153440500Y-104462000D01*
X153448112Y-104423732D01*
X153469789Y-104391289D01*
X153502232Y-104369612D01*
X153540500Y-104362000D01*
X154815500Y-104362000D01*
X154853768Y-104369612D01*
G37*
G36*
X155984076Y-103952657D02*
G01*
X156029495Y-103983005D01*
X156059843Y-104028424D01*
X156070500Y-104082000D01*
X156070500Y-104362000D01*
X156059843Y-104415576D01*
X156029495Y-104460995D01*
X155984076Y-104491343D01*
X155930500Y-104502000D01*
X155590500Y-104502000D01*
X155536924Y-104491343D01*
X155491505Y-104460995D01*
X155461157Y-104415576D01*
X155450500Y-104362000D01*
X155450500Y-104082000D01*
X155461157Y-104028424D01*
X155491505Y-103983005D01*
X155536924Y-103952657D01*
X155590500Y-103942000D01*
X155930500Y-103942000D01*
X155984076Y-103952657D01*
G37*
G36*
X138070525Y-103874566D02*
G01*
X138115944Y-103904914D01*
X138146292Y-103950333D01*
X138156949Y-104003909D01*
X138156949Y-104283909D01*
X138146292Y-104337485D01*
X138115944Y-104382904D01*
X138070525Y-104413252D01*
X138016949Y-104423909D01*
X137676949Y-104423909D01*
X137623373Y-104413252D01*
X137577954Y-104382904D01*
X137547606Y-104337485D01*
X137536949Y-104283909D01*
X137536949Y-104003909D01*
X137547606Y-103950333D01*
X137577954Y-103904914D01*
X137623373Y-103874566D01*
X137676949Y-103863909D01*
X138016949Y-103863909D01*
X138070525Y-103874566D01*
G37*
G36*
X149128768Y-103719612D02*
G01*
X149161211Y-103741289D01*
X149182888Y-103773732D01*
X149190500Y-103812000D01*
X149190500Y-104012000D01*
X149182888Y-104050268D01*
X149161211Y-104082711D01*
X149128768Y-104104388D01*
X149090500Y-104112000D01*
X147815500Y-104112000D01*
X147777232Y-104104388D01*
X147744789Y-104082711D01*
X147723112Y-104050268D01*
X147715500Y-104012000D01*
X147715500Y-103812000D01*
X147723112Y-103773732D01*
X147744789Y-103741289D01*
X147777232Y-103719612D01*
X147815500Y-103712000D01*
X149090500Y-103712000D01*
X149128768Y-103719612D01*
G37*
G36*
X154853768Y-103719612D02*
G01*
X154886211Y-103741289D01*
X154907888Y-103773732D01*
X154915500Y-103812000D01*
X154915500Y-104012000D01*
X154907888Y-104050268D01*
X154886211Y-104082711D01*
X154853768Y-104104388D01*
X154815500Y-104112000D01*
X153540500Y-104112000D01*
X153502232Y-104104388D01*
X153469789Y-104082711D01*
X153448112Y-104050268D01*
X153440500Y-104012000D01*
X153440500Y-103812000D01*
X153448112Y-103773732D01*
X153469789Y-103741289D01*
X153502232Y-103719612D01*
X153540500Y-103712000D01*
X154815500Y-103712000D01*
X154853768Y-103719612D01*
G37*
G36*
X128066742Y-101946601D02*
G01*
X128220687Y-102010367D01*
X128359234Y-102102941D01*
X128477059Y-102220766D01*
X128569633Y-102359313D01*
X128633399Y-102513258D01*
X128665907Y-102676685D01*
X128665907Y-102843315D01*
X128633399Y-103006742D01*
X128569633Y-103160687D01*
X128477059Y-103299234D01*
X128359234Y-103417059D01*
X128220687Y-103509633D01*
X128066742Y-103573399D01*
X127903315Y-103605907D01*
X127736685Y-103605907D01*
X127573258Y-103573399D01*
X127419313Y-103509633D01*
X127280766Y-103417059D01*
X127162941Y-103299234D01*
X127070367Y-103160687D01*
X127006601Y-103006742D01*
X126974093Y-102843315D01*
X126974093Y-102676685D01*
X127006601Y-102513258D01*
X127070367Y-102359313D01*
X127162941Y-102220766D01*
X127280766Y-102102941D01*
X127419313Y-102010367D01*
X127573258Y-101946601D01*
X127736685Y-101914093D01*
X127903315Y-101914093D01*
X128066742Y-101946601D01*
G37*
G36*
X155984076Y-102992657D02*
G01*
X156029495Y-103023005D01*
X156059843Y-103068424D01*
X156070500Y-103122000D01*
X156070500Y-103402000D01*
X156059843Y-103455576D01*
X156029495Y-103500995D01*
X155984076Y-103531343D01*
X155930500Y-103542000D01*
X155590500Y-103542000D01*
X155536924Y-103531343D01*
X155491505Y-103500995D01*
X155461157Y-103455576D01*
X155450500Y-103402000D01*
X155450500Y-103122000D01*
X155461157Y-103068424D01*
X155491505Y-103023005D01*
X155536924Y-102992657D01*
X155590500Y-102982000D01*
X155930500Y-102982000D01*
X155984076Y-102992657D01*
G37*
G36*
X149128768Y-103069612D02*
G01*
X149161211Y-103091289D01*
X149182888Y-103123732D01*
X149190500Y-103162000D01*
X149190500Y-103362000D01*
X149182888Y-103400268D01*
X149161211Y-103432711D01*
X149128768Y-103454388D01*
X149090500Y-103462000D01*
X147815500Y-103462000D01*
X147777232Y-103454388D01*
X147744789Y-103432711D01*
X147723112Y-103400268D01*
X147715500Y-103362000D01*
X147715500Y-103162000D01*
X147723112Y-103123732D01*
X147744789Y-103091289D01*
X147777232Y-103069612D01*
X147815500Y-103062000D01*
X149090500Y-103062000D01*
X149128768Y-103069612D01*
G37*
G36*
X154853768Y-103069612D02*
G01*
X154886211Y-103091289D01*
X154907888Y-103123732D01*
X154915500Y-103162000D01*
X154915500Y-103362000D01*
X154907888Y-103400268D01*
X154886211Y-103432711D01*
X154853768Y-103454388D01*
X154815500Y-103462000D01*
X153540500Y-103462000D01*
X153502232Y-103454388D01*
X153469789Y-103432711D01*
X153448112Y-103400268D01*
X153440500Y-103362000D01*
X153440500Y-103162000D01*
X153448112Y-103123732D01*
X153469789Y-103091289D01*
X153502232Y-103069612D01*
X153540500Y-103062000D01*
X154815500Y-103062000D01*
X154853768Y-103069612D01*
G37*
G36*
X142094303Y-102859076D02*
G01*
X142138100Y-102888341D01*
X142167365Y-102932138D01*
X142177641Y-102983800D01*
X142177641Y-103253800D01*
X142167365Y-103305462D01*
X142138100Y-103349259D01*
X142094303Y-103378524D01*
X142042641Y-103388800D01*
X141672641Y-103388800D01*
X141620979Y-103378524D01*
X141577182Y-103349259D01*
X141547917Y-103305462D01*
X141537641Y-103253800D01*
X141537641Y-102983800D01*
X141547917Y-102932138D01*
X141577182Y-102888341D01*
X141620979Y-102859076D01*
X141672641Y-102848800D01*
X142042641Y-102848800D01*
X142094303Y-102859076D01*
G37*
G36*
X143110303Y-102859076D02*
G01*
X143154100Y-102888341D01*
X143183365Y-102932138D01*
X143193641Y-102983800D01*
X143193641Y-103253800D01*
X143183365Y-103305462D01*
X143154100Y-103349259D01*
X143110303Y-103378524D01*
X143058641Y-103388800D01*
X142688641Y-103388800D01*
X142636979Y-103378524D01*
X142593182Y-103349259D01*
X142563917Y-103305462D01*
X142553641Y-103253800D01*
X142553641Y-102983800D01*
X142563917Y-102932138D01*
X142593182Y-102888341D01*
X142636979Y-102859076D01*
X142688641Y-102848800D01*
X143058641Y-102848800D01*
X143110303Y-102859076D01*
G37*
G36*
X136315104Y-102363469D02*
G01*
X136388099Y-102412243D01*
X136436873Y-102485238D01*
X136454000Y-102571342D01*
X136454000Y-103071342D01*
X136436873Y-103157446D01*
X136388099Y-103230441D01*
X136315104Y-103279215D01*
X136229000Y-103296342D01*
X135779000Y-103296342D01*
X135692896Y-103279215D01*
X135619901Y-103230441D01*
X135571127Y-103157446D01*
X135554000Y-103071342D01*
X135554000Y-102571342D01*
X135571127Y-102485238D01*
X135619901Y-102412243D01*
X135692896Y-102363469D01*
X135779000Y-102346342D01*
X136229000Y-102346342D01*
X136315104Y-102363469D01*
G37*
G36*
X137865104Y-102363469D02*
G01*
X137938099Y-102412243D01*
X137986873Y-102485238D01*
X138004000Y-102571342D01*
X138004000Y-103071342D01*
X137986873Y-103157446D01*
X137938099Y-103230441D01*
X137865104Y-103279215D01*
X137779000Y-103296342D01*
X137329000Y-103296342D01*
X137242896Y-103279215D01*
X137169901Y-103230441D01*
X137121127Y-103157446D01*
X137104000Y-103071342D01*
X137104000Y-102571342D01*
X137121127Y-102485238D01*
X137169901Y-102412243D01*
X137242896Y-102363469D01*
X137329000Y-102346342D01*
X137779000Y-102346342D01*
X137865104Y-102363469D01*
G37*
G36*
X139376104Y-102363469D02*
G01*
X139449099Y-102412243D01*
X139497873Y-102485238D01*
X139515000Y-102571342D01*
X139515000Y-103071342D01*
X139497873Y-103157446D01*
X139449099Y-103230441D01*
X139376104Y-103279215D01*
X139290000Y-103296342D01*
X138840000Y-103296342D01*
X138753896Y-103279215D01*
X138680901Y-103230441D01*
X138632127Y-103157446D01*
X138615000Y-103071342D01*
X138615000Y-102571342D01*
X138632127Y-102485238D01*
X138680901Y-102412243D01*
X138753896Y-102363469D01*
X138840000Y-102346342D01*
X139290000Y-102346342D01*
X139376104Y-102363469D01*
G37*
G36*
X140926104Y-102363469D02*
G01*
X140999099Y-102412243D01*
X141047873Y-102485238D01*
X141065000Y-102571342D01*
X141065000Y-103071342D01*
X141047873Y-103157446D01*
X140999099Y-103230441D01*
X140926104Y-103279215D01*
X140840000Y-103296342D01*
X140390000Y-103296342D01*
X140303896Y-103279215D01*
X140230901Y-103230441D01*
X140182127Y-103157446D01*
X140165000Y-103071342D01*
X140165000Y-102571342D01*
X140182127Y-102485238D01*
X140230901Y-102412243D01*
X140303896Y-102363469D01*
X140390000Y-102346342D01*
X140840000Y-102346342D01*
X140926104Y-102363469D01*
G37*
G36*
X147162576Y-102163657D02*
G01*
X147207995Y-102194005D01*
X147238343Y-102239424D01*
X147249000Y-102293000D01*
X147249000Y-102573000D01*
X147238343Y-102626576D01*
X147207995Y-102671995D01*
X147162576Y-102702343D01*
X147109000Y-102713000D01*
X146769000Y-102713000D01*
X146715424Y-102702343D01*
X146670005Y-102671995D01*
X146639657Y-102626576D01*
X146629000Y-102573000D01*
X146629000Y-102293000D01*
X146639657Y-102239424D01*
X146670005Y-102194005D01*
X146715424Y-102163657D01*
X146769000Y-102153000D01*
X147109000Y-102153000D01*
X147162576Y-102163657D01*
G37*
G36*
X142094303Y-101839076D02*
G01*
X142138100Y-101868341D01*
X142167365Y-101912138D01*
X142177641Y-101963800D01*
X142177641Y-102233800D01*
X142167365Y-102285462D01*
X142138100Y-102329259D01*
X142094303Y-102358524D01*
X142042641Y-102368800D01*
X141672641Y-102368800D01*
X141620979Y-102358524D01*
X141577182Y-102329259D01*
X141547917Y-102285462D01*
X141537641Y-102233800D01*
X141537641Y-101963800D01*
X141547917Y-101912138D01*
X141577182Y-101868341D01*
X141620979Y-101839076D01*
X141672641Y-101828800D01*
X142042641Y-101828800D01*
X142094303Y-101839076D01*
G37*
G36*
X143110303Y-101839076D02*
G01*
X143154100Y-101868341D01*
X143183365Y-101912138D01*
X143193641Y-101963800D01*
X143193641Y-102233800D01*
X143183365Y-102285462D01*
X143154100Y-102329259D01*
X143110303Y-102358524D01*
X143058641Y-102368800D01*
X142688641Y-102368800D01*
X142636979Y-102358524D01*
X142593182Y-102329259D01*
X142563917Y-102285462D01*
X142553641Y-102233800D01*
X142553641Y-101963800D01*
X142563917Y-101912138D01*
X142593182Y-101868341D01*
X142636979Y-101839076D01*
X142688641Y-101828800D01*
X143058641Y-101828800D01*
X143110303Y-101839076D01*
G37*
G36*
X160890941Y-102350000D02*
G01*
X159890941Y-102350000D01*
X159593046Y-102350000D01*
X159590941Y-102350000D01*
X158590941Y-102350000D01*
X158590941Y-100850000D01*
X159590941Y-100850000D01*
X160885937Y-100850000D01*
X160890941Y-100850000D01*
X160890941Y-102350000D01*
G37*
G36*
X162850686Y-100764334D02*
G01*
X162903405Y-100799559D01*
X162938630Y-100852278D01*
X162951000Y-100914464D01*
X162951000Y-102149464D01*
X162938630Y-102211650D01*
X162903405Y-102264369D01*
X162850686Y-102299594D01*
X162788500Y-102311964D01*
X162463500Y-102311964D01*
X162401314Y-102299594D01*
X162348595Y-102264369D01*
X162313370Y-102211650D01*
X162301000Y-102149464D01*
X162301000Y-100914464D01*
X162313370Y-100852278D01*
X162348595Y-100799559D01*
X162401314Y-100764334D01*
X162463500Y-100751964D01*
X162788500Y-100751964D01*
X162850686Y-100764334D01*
G37*
G36*
X163800686Y-100764334D02*
G01*
X163853405Y-100799559D01*
X163888630Y-100852278D01*
X163901000Y-100914464D01*
X163901000Y-102149464D01*
X163888630Y-102211650D01*
X163853405Y-102264369D01*
X163800686Y-102299594D01*
X163738500Y-102311964D01*
X163413500Y-102311964D01*
X163351314Y-102299594D01*
X163298595Y-102264369D01*
X163263370Y-102211650D01*
X163251000Y-102149464D01*
X163251000Y-100914464D01*
X163263370Y-100852278D01*
X163298595Y-100799559D01*
X163351314Y-100764334D01*
X163413500Y-100751964D01*
X163738500Y-100751964D01*
X163800686Y-100764334D01*
G37*
G36*
X164750686Y-100764334D02*
G01*
X164803405Y-100799559D01*
X164838630Y-100852278D01*
X164851000Y-100914464D01*
X164851000Y-102149464D01*
X164838630Y-102211650D01*
X164803405Y-102264369D01*
X164750686Y-102299594D01*
X164688500Y-102311964D01*
X164363500Y-102311964D01*
X164301314Y-102299594D01*
X164248595Y-102264369D01*
X164213370Y-102211650D01*
X164201000Y-102149464D01*
X164201000Y-100914464D01*
X164213370Y-100852278D01*
X164248595Y-100799559D01*
X164301314Y-100764334D01*
X164363500Y-100751964D01*
X164688500Y-100751964D01*
X164750686Y-100764334D01*
G37*
G36*
X149218212Y-101904612D02*
G01*
X149250655Y-101926289D01*
X149272332Y-101958732D01*
X149279944Y-101997000D01*
X149279944Y-102197000D01*
X149272332Y-102235268D01*
X149250655Y-102267711D01*
X149218212Y-102289388D01*
X149179944Y-102297000D01*
X147904944Y-102297000D01*
X147866676Y-102289388D01*
X147834233Y-102267711D01*
X147812556Y-102235268D01*
X147804944Y-102197000D01*
X147804944Y-101997000D01*
X147812556Y-101958732D01*
X147834233Y-101926289D01*
X147866676Y-101904612D01*
X147904944Y-101897000D01*
X149179944Y-101897000D01*
X149218212Y-101904612D01*
G37*
G36*
X154943212Y-101904612D02*
G01*
X154975655Y-101926289D01*
X154997332Y-101958732D01*
X155004944Y-101997000D01*
X155004944Y-102197000D01*
X154997332Y-102235268D01*
X154975655Y-102267711D01*
X154943212Y-102289388D01*
X154904944Y-102297000D01*
X153629944Y-102297000D01*
X153591676Y-102289388D01*
X153559233Y-102267711D01*
X153537556Y-102235268D01*
X153529944Y-102197000D01*
X153529944Y-101997000D01*
X153537556Y-101958732D01*
X153559233Y-101926289D01*
X153591676Y-101904612D01*
X153629944Y-101897000D01*
X154904944Y-101897000D01*
X154943212Y-101904612D01*
G37*
G36*
X138031662Y-101292133D02*
G01*
X138075459Y-101321398D01*
X138104724Y-101365195D01*
X138115000Y-101416857D01*
X138115000Y-101686857D01*
X138104724Y-101738519D01*
X138075459Y-101782316D01*
X138031662Y-101811581D01*
X137980000Y-101821857D01*
X137610000Y-101821857D01*
X137558338Y-101811581D01*
X137514541Y-101782316D01*
X137485276Y-101738519D01*
X137475000Y-101686857D01*
X137475000Y-101416857D01*
X137485276Y-101365195D01*
X137514541Y-101321398D01*
X137558338Y-101292133D01*
X137610000Y-101281857D01*
X137980000Y-101281857D01*
X138031662Y-101292133D01*
G37*
G36*
X139047662Y-101292133D02*
G01*
X139091459Y-101321398D01*
X139120724Y-101365195D01*
X139131000Y-101416857D01*
X139131000Y-101686857D01*
X139120724Y-101738519D01*
X139091459Y-101782316D01*
X139047662Y-101811581D01*
X138996000Y-101821857D01*
X138626000Y-101821857D01*
X138574338Y-101811581D01*
X138530541Y-101782316D01*
X138501276Y-101738519D01*
X138491000Y-101686857D01*
X138491000Y-101416857D01*
X138501276Y-101365195D01*
X138530541Y-101321398D01*
X138574338Y-101292133D01*
X138626000Y-101281857D01*
X138996000Y-101281857D01*
X139047662Y-101292133D01*
G37*
G36*
X147162576Y-101203657D02*
G01*
X147207995Y-101234005D01*
X147238343Y-101279424D01*
X147249000Y-101333000D01*
X147249000Y-101613000D01*
X147238343Y-101666576D01*
X147207995Y-101711995D01*
X147162576Y-101742343D01*
X147109000Y-101753000D01*
X146769000Y-101753000D01*
X146715424Y-101742343D01*
X146670005Y-101711995D01*
X146639657Y-101666576D01*
X146629000Y-101613000D01*
X146629000Y-101333000D01*
X146639657Y-101279424D01*
X146670005Y-101234005D01*
X146715424Y-101203657D01*
X146769000Y-101193000D01*
X147109000Y-101193000D01*
X147162576Y-101203657D01*
G37*
G36*
X135952748Y-101113518D02*
G01*
X135998167Y-101143866D01*
X136028515Y-101189285D01*
X136039172Y-101242861D01*
X136039172Y-101582861D01*
X136028515Y-101636437D01*
X135998167Y-101681856D01*
X135952748Y-101712204D01*
X135899172Y-101722861D01*
X135619172Y-101722861D01*
X135565596Y-101712204D01*
X135520177Y-101681856D01*
X135489829Y-101636437D01*
X135479172Y-101582861D01*
X135479172Y-101242861D01*
X135489829Y-101189285D01*
X135520177Y-101143866D01*
X135565596Y-101113518D01*
X135619172Y-101102861D01*
X135899172Y-101102861D01*
X135952748Y-101113518D01*
G37*
G36*
X136912748Y-101113518D02*
G01*
X136958167Y-101143866D01*
X136988515Y-101189285D01*
X136999172Y-101242861D01*
X136999172Y-101582861D01*
X136988515Y-101636437D01*
X136958167Y-101681856D01*
X136912748Y-101712204D01*
X136859172Y-101722861D01*
X136579172Y-101722861D01*
X136525596Y-101712204D01*
X136480177Y-101681856D01*
X136449829Y-101636437D01*
X136439172Y-101582861D01*
X136439172Y-101242861D01*
X136449829Y-101189285D01*
X136480177Y-101143866D01*
X136525596Y-101113518D01*
X136579172Y-101102861D01*
X136859172Y-101102861D01*
X136912748Y-101113518D01*
G37*
G36*
X149218212Y-101254612D02*
G01*
X149250655Y-101276289D01*
X149272332Y-101308732D01*
X149279944Y-101347000D01*
X149279944Y-101547000D01*
X149272332Y-101585268D01*
X149250655Y-101617711D01*
X149218212Y-101639388D01*
X149179944Y-101647000D01*
X147904944Y-101647000D01*
X147866676Y-101639388D01*
X147834233Y-101617711D01*
X147812556Y-101585268D01*
X147804944Y-101547000D01*
X147804944Y-101347000D01*
X147812556Y-101308732D01*
X147834233Y-101276289D01*
X147866676Y-101254612D01*
X147904944Y-101247000D01*
X149179944Y-101247000D01*
X149218212Y-101254612D01*
G37*
G36*
X154943212Y-101254612D02*
G01*
X154975655Y-101276289D01*
X154997332Y-101308732D01*
X155004944Y-101347000D01*
X155004944Y-101547000D01*
X154997332Y-101585268D01*
X154975655Y-101617711D01*
X154943212Y-101639388D01*
X154904944Y-101647000D01*
X153629944Y-101647000D01*
X153591676Y-101639388D01*
X153559233Y-101617711D01*
X153537556Y-101585268D01*
X153529944Y-101547000D01*
X153529944Y-101347000D01*
X153537556Y-101308732D01*
X153559233Y-101276289D01*
X153591676Y-101254612D01*
X153629944Y-101247000D01*
X154904944Y-101247000D01*
X154943212Y-101254612D01*
G37*
G36*
X128066742Y-99406601D02*
G01*
X128220687Y-99470367D01*
X128359234Y-99562941D01*
X128477059Y-99680766D01*
X128569633Y-99819313D01*
X128633399Y-99973258D01*
X128665907Y-100136685D01*
X128665907Y-100303315D01*
X128633399Y-100466742D01*
X128569633Y-100620687D01*
X128477059Y-100759234D01*
X128359234Y-100877059D01*
X128220687Y-100969633D01*
X128066742Y-101033399D01*
X127903315Y-101065907D01*
X127736685Y-101065907D01*
X127573258Y-101033399D01*
X127419313Y-100969633D01*
X127280766Y-100877059D01*
X127162941Y-100759234D01*
X127070367Y-100620687D01*
X127006601Y-100466742D01*
X126974093Y-100303315D01*
X126974093Y-100136685D01*
X127006601Y-99973258D01*
X127070367Y-99819313D01*
X127162941Y-99680766D01*
X127280766Y-99562941D01*
X127419313Y-99470367D01*
X127573258Y-99406601D01*
X127736685Y-99374093D01*
X127903315Y-99374093D01*
X128066742Y-99406601D01*
G37*
G36*
X149218212Y-100604612D02*
G01*
X149250655Y-100626289D01*
X149272332Y-100658732D01*
X149279944Y-100697000D01*
X149279944Y-100897000D01*
X149272332Y-100935268D01*
X149250655Y-100967711D01*
X149218212Y-100989388D01*
X149179944Y-100997000D01*
X147904944Y-100997000D01*
X147866676Y-100989388D01*
X147834233Y-100967711D01*
X147812556Y-100935268D01*
X147804944Y-100897000D01*
X147804944Y-100697000D01*
X147812556Y-100658732D01*
X147834233Y-100626289D01*
X147866676Y-100604612D01*
X147904944Y-100597000D01*
X149179944Y-100597000D01*
X149218212Y-100604612D01*
G37*
G36*
X154943212Y-100604612D02*
G01*
X154975655Y-100626289D01*
X154997332Y-100658732D01*
X155004944Y-100697000D01*
X155004944Y-100897000D01*
X154997332Y-100935268D01*
X154975655Y-100967711D01*
X154943212Y-100989388D01*
X154904944Y-100997000D01*
X153629944Y-100997000D01*
X153591676Y-100989388D01*
X153559233Y-100967711D01*
X153537556Y-100935268D01*
X153529944Y-100897000D01*
X153529944Y-100697000D01*
X153537556Y-100658732D01*
X153559233Y-100626289D01*
X153591676Y-100604612D01*
X153629944Y-100597000D01*
X154904944Y-100597000D01*
X154943212Y-100604612D01*
G37*
G36*
X138031662Y-100272133D02*
G01*
X138075459Y-100301398D01*
X138104724Y-100345195D01*
X138115000Y-100396857D01*
X138115000Y-100666857D01*
X138104724Y-100718519D01*
X138075459Y-100762316D01*
X138031662Y-100791581D01*
X137980000Y-100801857D01*
X137610000Y-100801857D01*
X137558338Y-100791581D01*
X137514541Y-100762316D01*
X137485276Y-100718519D01*
X137475000Y-100666857D01*
X137475000Y-100396857D01*
X137485276Y-100345195D01*
X137514541Y-100301398D01*
X137558338Y-100272133D01*
X137610000Y-100261857D01*
X137980000Y-100261857D01*
X138031662Y-100272133D01*
G37*
G36*
X139047662Y-100272133D02*
G01*
X139091459Y-100301398D01*
X139120724Y-100345195D01*
X139131000Y-100396857D01*
X139131000Y-100666857D01*
X139120724Y-100718519D01*
X139091459Y-100762316D01*
X139047662Y-100791581D01*
X138996000Y-100801857D01*
X138626000Y-100801857D01*
X138574338Y-100791581D01*
X138530541Y-100762316D01*
X138501276Y-100718519D01*
X138491000Y-100666857D01*
X138491000Y-100396857D01*
X138501276Y-100345195D01*
X138530541Y-100301398D01*
X138574338Y-100272133D01*
X138626000Y-100261857D01*
X138996000Y-100261857D01*
X139047662Y-100272133D01*
G37*
G36*
X135572383Y-99821210D02*
G01*
X135621046Y-99853726D01*
X135653562Y-99902389D01*
X135664980Y-99959792D01*
X135664980Y-100259792D01*
X135653562Y-100317195D01*
X135621046Y-100365858D01*
X135572383Y-100398374D01*
X135514980Y-100409792D01*
X134489980Y-100409792D01*
X134432577Y-100398374D01*
X134383914Y-100365858D01*
X134351398Y-100317195D01*
X134339980Y-100259792D01*
X134339980Y-99959792D01*
X134351398Y-99902389D01*
X134383914Y-99853726D01*
X134432577Y-99821210D01*
X134489980Y-99809792D01*
X135514980Y-99809792D01*
X135572383Y-99821210D01*
G37*
G36*
X149218212Y-99954612D02*
G01*
X149250655Y-99976289D01*
X149272332Y-100008732D01*
X149279944Y-100047000D01*
X149279944Y-100247000D01*
X149272332Y-100285268D01*
X149250655Y-100317711D01*
X149218212Y-100339388D01*
X149179944Y-100347000D01*
X147904944Y-100347000D01*
X147866676Y-100339388D01*
X147834233Y-100317711D01*
X147812556Y-100285268D01*
X147804944Y-100247000D01*
X147804944Y-100047000D01*
X147812556Y-100008732D01*
X147834233Y-99976289D01*
X147866676Y-99954612D01*
X147904944Y-99947000D01*
X149179944Y-99947000D01*
X149218212Y-99954612D01*
G37*
G36*
X154943212Y-99954612D02*
G01*
X154975655Y-99976289D01*
X154997332Y-100008732D01*
X155004944Y-100047000D01*
X155004944Y-100247000D01*
X154997332Y-100285268D01*
X154975655Y-100317711D01*
X154943212Y-100339388D01*
X154904944Y-100347000D01*
X153629944Y-100347000D01*
X153591676Y-100339388D01*
X153559233Y-100317711D01*
X153537556Y-100285268D01*
X153529944Y-100247000D01*
X153529944Y-100047000D01*
X153537556Y-100008732D01*
X153559233Y-99976289D01*
X153591676Y-99954612D01*
X153629944Y-99947000D01*
X154904944Y-99947000D01*
X154943212Y-99954612D01*
G37*
G36*
X163769576Y-99522657D02*
G01*
X163814995Y-99553005D01*
X163845343Y-99598424D01*
X163856000Y-99652000D01*
X163856000Y-99992000D01*
X163845343Y-100045576D01*
X163814995Y-100090995D01*
X163769576Y-100121343D01*
X163716000Y-100132000D01*
X163436000Y-100132000D01*
X163382424Y-100121343D01*
X163337005Y-100090995D01*
X163306657Y-100045576D01*
X163296000Y-99992000D01*
X163296000Y-99652000D01*
X163306657Y-99598424D01*
X163337005Y-99553005D01*
X163382424Y-99522657D01*
X163436000Y-99512000D01*
X163716000Y-99512000D01*
X163769576Y-99522657D01*
G37*
G36*
X164729576Y-99522657D02*
G01*
X164774995Y-99553005D01*
X164805343Y-99598424D01*
X164816000Y-99652000D01*
X164816000Y-99992000D01*
X164805343Y-100045576D01*
X164774995Y-100090995D01*
X164729576Y-100121343D01*
X164676000Y-100132000D01*
X164396000Y-100132000D01*
X164342424Y-100121343D01*
X164297005Y-100090995D01*
X164266657Y-100045576D01*
X164256000Y-99992000D01*
X164256000Y-99652000D01*
X164266657Y-99598424D01*
X164297005Y-99553005D01*
X164342424Y-99522657D01*
X164396000Y-99512000D01*
X164676000Y-99512000D01*
X164729576Y-99522657D01*
G37*
G36*
X133761038Y-99366756D02*
G01*
X133806457Y-99397104D01*
X133836805Y-99442523D01*
X133847462Y-99496099D01*
X133847462Y-99776099D01*
X133836805Y-99829675D01*
X133806457Y-99875094D01*
X133761038Y-99905442D01*
X133707462Y-99916099D01*
X133367462Y-99916099D01*
X133313886Y-99905442D01*
X133268467Y-99875094D01*
X133238119Y-99829675D01*
X133227462Y-99776099D01*
X133227462Y-99496099D01*
X133238119Y-99442523D01*
X133268467Y-99397104D01*
X133313886Y-99366756D01*
X133367462Y-99356099D01*
X133707462Y-99356099D01*
X133761038Y-99366756D01*
G37*
G36*
X149218212Y-99304612D02*
G01*
X149250655Y-99326289D01*
X149272332Y-99358732D01*
X149279944Y-99397000D01*
X149279944Y-99597000D01*
X149272332Y-99635268D01*
X149250655Y-99667711D01*
X149218212Y-99689388D01*
X149179944Y-99697000D01*
X147904944Y-99697000D01*
X147866676Y-99689388D01*
X147834233Y-99667711D01*
X147812556Y-99635268D01*
X147804944Y-99597000D01*
X147804944Y-99397000D01*
X147812556Y-99358732D01*
X147834233Y-99326289D01*
X147866676Y-99304612D01*
X147904944Y-99297000D01*
X149179944Y-99297000D01*
X149218212Y-99304612D01*
G37*
G36*
X154943212Y-99304612D02*
G01*
X154975655Y-99326289D01*
X154997332Y-99358732D01*
X155004944Y-99397000D01*
X155004944Y-99597000D01*
X154997332Y-99635268D01*
X154975655Y-99667711D01*
X154943212Y-99689388D01*
X154904944Y-99697000D01*
X153629944Y-99697000D01*
X153591676Y-99689388D01*
X153559233Y-99667711D01*
X153537556Y-99635268D01*
X153529944Y-99597000D01*
X153529944Y-99397000D01*
X153537556Y-99358732D01*
X153559233Y-99326289D01*
X153591676Y-99304612D01*
X153629944Y-99297000D01*
X154904944Y-99297000D01*
X154943212Y-99304612D01*
G37*
G36*
X160890941Y-99683000D02*
G01*
X159890941Y-99683000D01*
X159593046Y-99683000D01*
X159590941Y-99683000D01*
X158590941Y-99683000D01*
X158590941Y-98183000D01*
X159590941Y-98183000D01*
X160885937Y-98183000D01*
X160890941Y-98183000D01*
X160890941Y-99683000D01*
G37*
G36*
X139766576Y-98887657D02*
G01*
X139811995Y-98918005D01*
X139842343Y-98963424D01*
X139853000Y-99017000D01*
X139853000Y-99357000D01*
X139842343Y-99410576D01*
X139811995Y-99455995D01*
X139766576Y-99486343D01*
X139713000Y-99497000D01*
X139433000Y-99497000D01*
X139379424Y-99486343D01*
X139334005Y-99455995D01*
X139303657Y-99410576D01*
X139293000Y-99357000D01*
X139293000Y-99017000D01*
X139303657Y-98963424D01*
X139334005Y-98918005D01*
X139379424Y-98887657D01*
X139433000Y-98877000D01*
X139713000Y-98877000D01*
X139766576Y-98887657D01*
G37*
G36*
X140726576Y-98887657D02*
G01*
X140771995Y-98918005D01*
X140802343Y-98963424D01*
X140813000Y-99017000D01*
X140813000Y-99357000D01*
X140802343Y-99410576D01*
X140771995Y-99455995D01*
X140726576Y-99486343D01*
X140673000Y-99497000D01*
X140393000Y-99497000D01*
X140339424Y-99486343D01*
X140294005Y-99455995D01*
X140263657Y-99410576D01*
X140253000Y-99357000D01*
X140253000Y-99017000D01*
X140263657Y-98963424D01*
X140294005Y-98918005D01*
X140339424Y-98887657D01*
X140393000Y-98877000D01*
X140673000Y-98877000D01*
X140726576Y-98887657D01*
G37*
G36*
X137847383Y-98871210D02*
G01*
X137896046Y-98903726D01*
X137928562Y-98952389D01*
X137939980Y-99009792D01*
X137939980Y-99309792D01*
X137928562Y-99367195D01*
X137896046Y-99415858D01*
X137847383Y-99448374D01*
X137789980Y-99459792D01*
X136764980Y-99459792D01*
X136707577Y-99448374D01*
X136658914Y-99415858D01*
X136626398Y-99367195D01*
X136614980Y-99309792D01*
X136614980Y-99009792D01*
X136626398Y-98952389D01*
X136658914Y-98903726D01*
X136707577Y-98871210D01*
X136764980Y-98859792D01*
X137789980Y-98859792D01*
X137847383Y-98871210D01*
G37*
G36*
X149218212Y-98654612D02*
G01*
X149250655Y-98676289D01*
X149272332Y-98708732D01*
X149279944Y-98747000D01*
X149279944Y-98947000D01*
X149272332Y-98985268D01*
X149250655Y-99017711D01*
X149218212Y-99039388D01*
X149179944Y-99047000D01*
X147904944Y-99047000D01*
X147866676Y-99039388D01*
X147834233Y-99017711D01*
X147812556Y-98985268D01*
X147804944Y-98947000D01*
X147804944Y-98747000D01*
X147812556Y-98708732D01*
X147834233Y-98676289D01*
X147866676Y-98654612D01*
X147904944Y-98647000D01*
X149179944Y-98647000D01*
X149218212Y-98654612D01*
G37*
G36*
X154943212Y-98654612D02*
G01*
X154975655Y-98676289D01*
X154997332Y-98708732D01*
X155004944Y-98747000D01*
X155004944Y-98947000D01*
X154997332Y-98985268D01*
X154975655Y-99017711D01*
X154943212Y-99039388D01*
X154904944Y-99047000D01*
X153629944Y-99047000D01*
X153591676Y-99039388D01*
X153559233Y-99017711D01*
X153537556Y-98985268D01*
X153529944Y-98947000D01*
X153529944Y-98747000D01*
X153537556Y-98708732D01*
X153559233Y-98676289D01*
X153591676Y-98654612D01*
X153629944Y-98647000D01*
X154904944Y-98647000D01*
X154943212Y-98654612D01*
G37*
G36*
X133761038Y-98406756D02*
G01*
X133806457Y-98437104D01*
X133836805Y-98482523D01*
X133847462Y-98536099D01*
X133847462Y-98816099D01*
X133836805Y-98869675D01*
X133806457Y-98915094D01*
X133761038Y-98945442D01*
X133707462Y-98956099D01*
X133367462Y-98956099D01*
X133313886Y-98945442D01*
X133268467Y-98915094D01*
X133238119Y-98869675D01*
X133227462Y-98816099D01*
X133227462Y-98536099D01*
X133238119Y-98482523D01*
X133268467Y-98437104D01*
X133313886Y-98406756D01*
X133367462Y-98396099D01*
X133707462Y-98396099D01*
X133761038Y-98406756D01*
G37*
G36*
X156052576Y-98325657D02*
G01*
X156097995Y-98356005D01*
X156128343Y-98401424D01*
X156139000Y-98455000D01*
X156139000Y-98735000D01*
X156128343Y-98788576D01*
X156097995Y-98833995D01*
X156052576Y-98864343D01*
X155999000Y-98875000D01*
X155659000Y-98875000D01*
X155605424Y-98864343D01*
X155560005Y-98833995D01*
X155529657Y-98788576D01*
X155519000Y-98735000D01*
X155519000Y-98455000D01*
X155529657Y-98401424D01*
X155560005Y-98356005D01*
X155605424Y-98325657D01*
X155659000Y-98315000D01*
X155999000Y-98315000D01*
X156052576Y-98325657D01*
G37*
G36*
X135572383Y-97921210D02*
G01*
X135621046Y-97953726D01*
X135653562Y-98002389D01*
X135664980Y-98059792D01*
X135664980Y-98359792D01*
X135653562Y-98417195D01*
X135621046Y-98465858D01*
X135572383Y-98498374D01*
X135514980Y-98509792D01*
X134489980Y-98509792D01*
X134432577Y-98498374D01*
X134383914Y-98465858D01*
X134351398Y-98417195D01*
X134339980Y-98359792D01*
X134339980Y-98059792D01*
X134351398Y-98002389D01*
X134383914Y-97953726D01*
X134432577Y-97921210D01*
X134489980Y-97909792D01*
X135514980Y-97909792D01*
X135572383Y-97921210D01*
G37*
G36*
X149218212Y-98004612D02*
G01*
X149250655Y-98026289D01*
X149272332Y-98058732D01*
X149279944Y-98097000D01*
X149279944Y-98297000D01*
X149272332Y-98335268D01*
X149250655Y-98367711D01*
X149218212Y-98389388D01*
X149179944Y-98397000D01*
X147904944Y-98397000D01*
X147866676Y-98389388D01*
X147834233Y-98367711D01*
X147812556Y-98335268D01*
X147804944Y-98297000D01*
X147804944Y-98097000D01*
X147812556Y-98058732D01*
X147834233Y-98026289D01*
X147866676Y-98004612D01*
X147904944Y-97997000D01*
X149179944Y-97997000D01*
X149218212Y-98004612D01*
G37*
G36*
X154943212Y-98004612D02*
G01*
X154975655Y-98026289D01*
X154997332Y-98058732D01*
X155004944Y-98097000D01*
X155004944Y-98297000D01*
X154997332Y-98335268D01*
X154975655Y-98367711D01*
X154943212Y-98389388D01*
X154904944Y-98397000D01*
X153629944Y-98397000D01*
X153591676Y-98389388D01*
X153559233Y-98367711D01*
X153537556Y-98335268D01*
X153529944Y-98297000D01*
X153529944Y-98097000D01*
X153537556Y-98058732D01*
X153559233Y-98026289D01*
X153591676Y-98004612D01*
X153629944Y-97997000D01*
X154904944Y-97997000D01*
X154943212Y-98004612D01*
G37*
G36*
X140277712Y-97973213D02*
G01*
X140310155Y-97994890D01*
X140331832Y-98027333D01*
X140339444Y-98065601D01*
X140339444Y-98265601D01*
X140331832Y-98303869D01*
X140310155Y-98336312D01*
X140277712Y-98357989D01*
X140239444Y-98365601D01*
X138964444Y-98365601D01*
X138926176Y-98357989D01*
X138893733Y-98336312D01*
X138872056Y-98303869D01*
X138864444Y-98265601D01*
X138864444Y-98065601D01*
X138872056Y-98027333D01*
X138893733Y-97994890D01*
X138926176Y-97973213D01*
X138964444Y-97965601D01*
X140239444Y-97965601D01*
X140277712Y-97973213D01*
G37*
G36*
X146002712Y-97973213D02*
G01*
X146035155Y-97994890D01*
X146056832Y-98027333D01*
X146064444Y-98065601D01*
X146064444Y-98265601D01*
X146056832Y-98303869D01*
X146035155Y-98336312D01*
X146002712Y-98357989D01*
X145964444Y-98365601D01*
X144689444Y-98365601D01*
X144651176Y-98357989D01*
X144618733Y-98336312D01*
X144597056Y-98303869D01*
X144589444Y-98265601D01*
X144589444Y-98065601D01*
X144597056Y-98027333D01*
X144618733Y-97994890D01*
X144651176Y-97973213D01*
X144689444Y-97965601D01*
X145964444Y-97965601D01*
X146002712Y-97973213D01*
G37*
G36*
X156052576Y-97365657D02*
G01*
X156097995Y-97396005D01*
X156128343Y-97441424D01*
X156139000Y-97495000D01*
X156139000Y-97775000D01*
X156128343Y-97828576D01*
X156097995Y-97873995D01*
X156052576Y-97904343D01*
X155999000Y-97915000D01*
X155659000Y-97915000D01*
X155605424Y-97904343D01*
X155560005Y-97873995D01*
X155529657Y-97828576D01*
X155519000Y-97775000D01*
X155519000Y-97495000D01*
X155529657Y-97441424D01*
X155560005Y-97396005D01*
X155605424Y-97365657D01*
X155659000Y-97355000D01*
X155999000Y-97355000D01*
X156052576Y-97365657D01*
G37*
G36*
X149218212Y-97354612D02*
G01*
X149250655Y-97376289D01*
X149272332Y-97408732D01*
X149279944Y-97447000D01*
X149279944Y-97647000D01*
X149272332Y-97685268D01*
X149250655Y-97717711D01*
X149218212Y-97739388D01*
X149179944Y-97747000D01*
X147904944Y-97747000D01*
X147866676Y-97739388D01*
X147834233Y-97717711D01*
X147812556Y-97685268D01*
X147804944Y-97647000D01*
X147804944Y-97447000D01*
X147812556Y-97408732D01*
X147834233Y-97376289D01*
X147866676Y-97354612D01*
X147904944Y-97347000D01*
X149179944Y-97347000D01*
X149218212Y-97354612D01*
G37*
G36*
X154943212Y-97354612D02*
G01*
X154975655Y-97376289D01*
X154997332Y-97408732D01*
X155004944Y-97447000D01*
X155004944Y-97647000D01*
X154997332Y-97685268D01*
X154975655Y-97717711D01*
X154943212Y-97739388D01*
X154904944Y-97747000D01*
X153629944Y-97747000D01*
X153591676Y-97739388D01*
X153559233Y-97717711D01*
X153537556Y-97685268D01*
X153529944Y-97647000D01*
X153529944Y-97447000D01*
X153537556Y-97408732D01*
X153559233Y-97376289D01*
X153591676Y-97354612D01*
X153629944Y-97347000D01*
X154904944Y-97347000D01*
X154943212Y-97354612D01*
G37*
G36*
X140277712Y-97323213D02*
G01*
X140310155Y-97344890D01*
X140331832Y-97377333D01*
X140339444Y-97415601D01*
X140339444Y-97615601D01*
X140331832Y-97653869D01*
X140310155Y-97686312D01*
X140277712Y-97707989D01*
X140239444Y-97715601D01*
X138964444Y-97715601D01*
X138926176Y-97707989D01*
X138893733Y-97686312D01*
X138872056Y-97653869D01*
X138864444Y-97615601D01*
X138864444Y-97415601D01*
X138872056Y-97377333D01*
X138893733Y-97344890D01*
X138926176Y-97323213D01*
X138964444Y-97315601D01*
X140239444Y-97315601D01*
X140277712Y-97323213D01*
G37*
G36*
X146002712Y-97323213D02*
G01*
X146035155Y-97344890D01*
X146056832Y-97377333D01*
X146064444Y-97415601D01*
X146064444Y-97615601D01*
X146056832Y-97653869D01*
X146035155Y-97686312D01*
X146002712Y-97707989D01*
X145964444Y-97715601D01*
X144689444Y-97715601D01*
X144651176Y-97707989D01*
X144618733Y-97686312D01*
X144597056Y-97653869D01*
X144589444Y-97615601D01*
X144589444Y-97415601D01*
X144597056Y-97377333D01*
X144618733Y-97344890D01*
X144651176Y-97323213D01*
X144689444Y-97315601D01*
X145964444Y-97315601D01*
X146002712Y-97323213D01*
G37*
G36*
X140277712Y-96673213D02*
G01*
X140310155Y-96694890D01*
X140331832Y-96727333D01*
X140339444Y-96765601D01*
X140339444Y-96965601D01*
X140331832Y-97003869D01*
X140310155Y-97036312D01*
X140277712Y-97057989D01*
X140239444Y-97065601D01*
X138964444Y-97065601D01*
X138926176Y-97057989D01*
X138893733Y-97036312D01*
X138872056Y-97003869D01*
X138864444Y-96965601D01*
X138864444Y-96765601D01*
X138872056Y-96727333D01*
X138893733Y-96694890D01*
X138926176Y-96673213D01*
X138964444Y-96665601D01*
X140239444Y-96665601D01*
X140277712Y-96673213D01*
G37*
G36*
X146002712Y-96673213D02*
G01*
X146035155Y-96694890D01*
X146056832Y-96727333D01*
X146064444Y-96765601D01*
X146064444Y-96965601D01*
X146056832Y-97003869D01*
X146035155Y-97036312D01*
X146002712Y-97057989D01*
X145964444Y-97065601D01*
X144689444Y-97065601D01*
X144651176Y-97057989D01*
X144618733Y-97036312D01*
X144597056Y-97003869D01*
X144589444Y-96965601D01*
X144589444Y-96765601D01*
X144597056Y-96727333D01*
X144618733Y-96694890D01*
X144651176Y-96673213D01*
X144689444Y-96665601D01*
X145964444Y-96665601D01*
X146002712Y-96673213D01*
G37*
G36*
X127420000Y-96949987D02*
G01*
X126420000Y-96949987D01*
X126420000Y-96649987D01*
X127420000Y-96649987D01*
X127420000Y-96949987D01*
G37*
G36*
X140277712Y-96023213D02*
G01*
X140310155Y-96044890D01*
X140331832Y-96077333D01*
X140339444Y-96115601D01*
X140339444Y-96315601D01*
X140331832Y-96353869D01*
X140310155Y-96386312D01*
X140277712Y-96407989D01*
X140239444Y-96415601D01*
X138964444Y-96415601D01*
X138926176Y-96407989D01*
X138893733Y-96386312D01*
X138872056Y-96353869D01*
X138864444Y-96315601D01*
X138864444Y-96115601D01*
X138872056Y-96077333D01*
X138893733Y-96044890D01*
X138926176Y-96023213D01*
X138964444Y-96015601D01*
X140239444Y-96015601D01*
X140277712Y-96023213D01*
G37*
G36*
X146002712Y-96023213D02*
G01*
X146035155Y-96044890D01*
X146056832Y-96077333D01*
X146064444Y-96115601D01*
X146064444Y-96315601D01*
X146056832Y-96353869D01*
X146035155Y-96386312D01*
X146002712Y-96407989D01*
X145964444Y-96415601D01*
X144689444Y-96415601D01*
X144651176Y-96407989D01*
X144618733Y-96386312D01*
X144597056Y-96353869D01*
X144589444Y-96315601D01*
X144589444Y-96115601D01*
X144597056Y-96077333D01*
X144618733Y-96044890D01*
X144651176Y-96023213D01*
X144689444Y-96015601D01*
X145964444Y-96015601D01*
X146002712Y-96023213D01*
G37*
G36*
X129920000Y-96159999D02*
G01*
X129220000Y-96159999D01*
X129220000Y-95859999D01*
X129920000Y-95859999D01*
X129920000Y-96159999D01*
G37*
G36*
X140277712Y-95373213D02*
G01*
X140310155Y-95394890D01*
X140331832Y-95427333D01*
X140339444Y-95465601D01*
X140339444Y-95665601D01*
X140331832Y-95703869D01*
X140310155Y-95736312D01*
X140277712Y-95757989D01*
X140239444Y-95765601D01*
X138964444Y-95765601D01*
X138926176Y-95757989D01*
X138893733Y-95736312D01*
X138872056Y-95703869D01*
X138864444Y-95665601D01*
X138864444Y-95465601D01*
X138872056Y-95427333D01*
X138893733Y-95394890D01*
X138926176Y-95373213D01*
X138964444Y-95365601D01*
X140239444Y-95365601D01*
X140277712Y-95373213D01*
G37*
G36*
X146002712Y-95373213D02*
G01*
X146035155Y-95394890D01*
X146056832Y-95427333D01*
X146064444Y-95465601D01*
X146064444Y-95665601D01*
X146056832Y-95703869D01*
X146035155Y-95736312D01*
X146002712Y-95757989D01*
X145964444Y-95765601D01*
X144689444Y-95765601D01*
X144651176Y-95757989D01*
X144618733Y-95736312D01*
X144597056Y-95703869D01*
X144589444Y-95665601D01*
X144589444Y-95465601D01*
X144597056Y-95427333D01*
X144618733Y-95394890D01*
X144651176Y-95373213D01*
X144689444Y-95365601D01*
X145964444Y-95365601D01*
X146002712Y-95373213D01*
G37*
G36*
X129920000Y-95660000D02*
G01*
X129220000Y-95660000D01*
X129220000Y-95360000D01*
X129920000Y-95360000D01*
X129920000Y-95660000D01*
G37*
G36*
X129920000Y-95160001D02*
G01*
X129220000Y-95160001D01*
X129220000Y-94860001D01*
X129920000Y-94860001D01*
X129920000Y-95160001D01*
G37*
G36*
X140277712Y-94723213D02*
G01*
X140310155Y-94744890D01*
X140331832Y-94777333D01*
X140339444Y-94815601D01*
X140339444Y-95015601D01*
X140331832Y-95053869D01*
X140310155Y-95086312D01*
X140277712Y-95107989D01*
X140239444Y-95115601D01*
X138964444Y-95115601D01*
X138926176Y-95107989D01*
X138893733Y-95086312D01*
X138872056Y-95053869D01*
X138864444Y-95015601D01*
X138864444Y-94815601D01*
X138872056Y-94777333D01*
X138893733Y-94744890D01*
X138926176Y-94723213D01*
X138964444Y-94715601D01*
X140239444Y-94715601D01*
X140277712Y-94723213D01*
G37*
G36*
X146002712Y-94723213D02*
G01*
X146035155Y-94744890D01*
X146056832Y-94777333D01*
X146064444Y-94815601D01*
X146064444Y-95015601D01*
X146056832Y-95053869D01*
X146035155Y-95086312D01*
X146002712Y-95107989D01*
X145964444Y-95115601D01*
X144689444Y-95115601D01*
X144651176Y-95107989D01*
X144618733Y-95086312D01*
X144597056Y-95053869D01*
X144589444Y-95015601D01*
X144589444Y-94815601D01*
X144597056Y-94777333D01*
X144618733Y-94744890D01*
X144651176Y-94723213D01*
X144689444Y-94715601D01*
X145964444Y-94715601D01*
X146002712Y-94723213D01*
G37*
G36*
X149942104Y-94195125D02*
G01*
X150015099Y-94243899D01*
X150063873Y-94316894D01*
X150081000Y-94402998D01*
X150081000Y-94852998D01*
X150063873Y-94939102D01*
X150015099Y-95012097D01*
X149942104Y-95060871D01*
X149856000Y-95077998D01*
X149356000Y-95077998D01*
X149269896Y-95060871D01*
X149196901Y-95012097D01*
X149148127Y-94939102D01*
X149131000Y-94852998D01*
X149131000Y-94402998D01*
X149148127Y-94316894D01*
X149196901Y-94243899D01*
X149269896Y-94195125D01*
X149356000Y-94177998D01*
X149856000Y-94177998D01*
X149942104Y-94195125D01*
G37*
G36*
X151466104Y-94195125D02*
G01*
X151539099Y-94243899D01*
X151587873Y-94316894D01*
X151605000Y-94402998D01*
X151605000Y-94852998D01*
X151587873Y-94939102D01*
X151539099Y-95012097D01*
X151466104Y-95060871D01*
X151380000Y-95077998D01*
X150880000Y-95077998D01*
X150793896Y-95060871D01*
X150720901Y-95012097D01*
X150672127Y-94939102D01*
X150655000Y-94852998D01*
X150655000Y-94402998D01*
X150672127Y-94316894D01*
X150720901Y-94243899D01*
X150793896Y-94195125D01*
X150880000Y-94177998D01*
X151380000Y-94177998D01*
X151466104Y-94195125D01*
G37*
G36*
X152990104Y-94195125D02*
G01*
X153063099Y-94243899D01*
X153111873Y-94316894D01*
X153129000Y-94402998D01*
X153129000Y-94852998D01*
X153111873Y-94939102D01*
X153063099Y-95012097D01*
X152990104Y-95060871D01*
X152904000Y-95077998D01*
X152404000Y-95077998D01*
X152317896Y-95060871D01*
X152244901Y-95012097D01*
X152196127Y-94939102D01*
X152179000Y-94852998D01*
X152179000Y-94402998D01*
X152196127Y-94316894D01*
X152244901Y-94243899D01*
X152317896Y-94195125D01*
X152404000Y-94177998D01*
X152904000Y-94177998D01*
X152990104Y-94195125D01*
G37*
G36*
X154514104Y-94195125D02*
G01*
X154587099Y-94243899D01*
X154635873Y-94316894D01*
X154653000Y-94402998D01*
X154653000Y-94852998D01*
X154635873Y-94939102D01*
X154587099Y-95012097D01*
X154514104Y-95060871D01*
X154428000Y-95077998D01*
X153928000Y-95077998D01*
X153841896Y-95060871D01*
X153768901Y-95012097D01*
X153720127Y-94939102D01*
X153703000Y-94852998D01*
X153703000Y-94402998D01*
X153720127Y-94316894D01*
X153768901Y-94243899D01*
X153841896Y-94195125D01*
X153928000Y-94177998D01*
X154428000Y-94177998D01*
X154514104Y-94195125D01*
G37*
G36*
X156038104Y-94195125D02*
G01*
X156111099Y-94243899D01*
X156159873Y-94316894D01*
X156177000Y-94402998D01*
X156177000Y-94852998D01*
X156159873Y-94939102D01*
X156111099Y-95012097D01*
X156038104Y-95060871D01*
X155952000Y-95077998D01*
X155452000Y-95077998D01*
X155365896Y-95060871D01*
X155292901Y-95012097D01*
X155244127Y-94939102D01*
X155227000Y-94852998D01*
X155227000Y-94402998D01*
X155244127Y-94316894D01*
X155292901Y-94243899D01*
X155365896Y-94195125D01*
X155452000Y-94177998D01*
X155952000Y-94177998D01*
X156038104Y-94195125D01*
G37*
G36*
X157562104Y-94195125D02*
G01*
X157635099Y-94243899D01*
X157683873Y-94316894D01*
X157701000Y-94402998D01*
X157701000Y-94852998D01*
X157683873Y-94939102D01*
X157635099Y-95012097D01*
X157562104Y-95060871D01*
X157476000Y-95077998D01*
X156976000Y-95077998D01*
X156889896Y-95060871D01*
X156816901Y-95012097D01*
X156768127Y-94939102D01*
X156751000Y-94852998D01*
X156751000Y-94402998D01*
X156768127Y-94316894D01*
X156816901Y-94243899D01*
X156889896Y-94195125D01*
X156976000Y-94177998D01*
X157476000Y-94177998D01*
X157562104Y-94195125D01*
G37*
G36*
X159086104Y-94195125D02*
G01*
X159159099Y-94243899D01*
X159207873Y-94316894D01*
X159225000Y-94402998D01*
X159225000Y-94852998D01*
X159207873Y-94939102D01*
X159159099Y-95012097D01*
X159086104Y-95060871D01*
X159000000Y-95077998D01*
X158500000Y-95077998D01*
X158413896Y-95060871D01*
X158340901Y-95012097D01*
X158292127Y-94939102D01*
X158275000Y-94852998D01*
X158275000Y-94402998D01*
X158292127Y-94316894D01*
X158340901Y-94243899D01*
X158413896Y-94195125D01*
X158500000Y-94177998D01*
X159000000Y-94177998D01*
X159086104Y-94195125D01*
G37*
G36*
X160610104Y-94195125D02*
G01*
X160683099Y-94243899D01*
X160731873Y-94316894D01*
X160749000Y-94402998D01*
X160749000Y-94852998D01*
X160731873Y-94939102D01*
X160683099Y-95012097D01*
X160610104Y-95060871D01*
X160524000Y-95077998D01*
X160024000Y-95077998D01*
X159937896Y-95060871D01*
X159864901Y-95012097D01*
X159816127Y-94939102D01*
X159799000Y-94852998D01*
X159799000Y-94402998D01*
X159816127Y-94316894D01*
X159864901Y-94243899D01*
X159937896Y-94195125D01*
X160024000Y-94177998D01*
X160524000Y-94177998D01*
X160610104Y-94195125D01*
G37*
G36*
X129920000Y-94659999D02*
G01*
X129220000Y-94659999D01*
X129220000Y-94359999D01*
X129920000Y-94359999D01*
X129920000Y-94659999D01*
G37*
G36*
X140277712Y-94073213D02*
G01*
X140310155Y-94094890D01*
X140331832Y-94127333D01*
X140339444Y-94165601D01*
X140339444Y-94365601D01*
X140331832Y-94403869D01*
X140310155Y-94436312D01*
X140277712Y-94457989D01*
X140239444Y-94465601D01*
X138964444Y-94465601D01*
X138926176Y-94457989D01*
X138893733Y-94436312D01*
X138872056Y-94403869D01*
X138864444Y-94365601D01*
X138864444Y-94165601D01*
X138872056Y-94127333D01*
X138893733Y-94094890D01*
X138926176Y-94073213D01*
X138964444Y-94065601D01*
X140239444Y-94065601D01*
X140277712Y-94073213D01*
G37*
G36*
X146002712Y-94073213D02*
G01*
X146035155Y-94094890D01*
X146056832Y-94127333D01*
X146064444Y-94165601D01*
X146064444Y-94365601D01*
X146056832Y-94403869D01*
X146035155Y-94436312D01*
X146002712Y-94457989D01*
X145964444Y-94465601D01*
X144689444Y-94465601D01*
X144651176Y-94457989D01*
X144618733Y-94436312D01*
X144597056Y-94403869D01*
X144589444Y-94365601D01*
X144589444Y-94165601D01*
X144597056Y-94127333D01*
X144618733Y-94094890D01*
X144651176Y-94073213D01*
X144689444Y-94065601D01*
X145964444Y-94065601D01*
X146002712Y-94073213D01*
G37*
G36*
X129920000Y-94160000D02*
G01*
X129220000Y-94160000D01*
X129220000Y-93860000D01*
X129920000Y-93860000D01*
X129920000Y-94160000D01*
G37*
G36*
X140277712Y-93423213D02*
G01*
X140310155Y-93444890D01*
X140331832Y-93477333D01*
X140339444Y-93515601D01*
X140339444Y-93715601D01*
X140331832Y-93753869D01*
X140310155Y-93786312D01*
X140277712Y-93807989D01*
X140239444Y-93815601D01*
X138964444Y-93815601D01*
X138926176Y-93807989D01*
X138893733Y-93786312D01*
X138872056Y-93753869D01*
X138864444Y-93715601D01*
X138864444Y-93515601D01*
X138872056Y-93477333D01*
X138893733Y-93444890D01*
X138926176Y-93423213D01*
X138964444Y-93415601D01*
X140239444Y-93415601D01*
X140277712Y-93423213D01*
G37*
G36*
X146002712Y-93423213D02*
G01*
X146035155Y-93444890D01*
X146056832Y-93477333D01*
X146064444Y-93515601D01*
X146064444Y-93715601D01*
X146056832Y-93753869D01*
X146035155Y-93786312D01*
X146002712Y-93807989D01*
X145964444Y-93815601D01*
X144689444Y-93815601D01*
X144651176Y-93807989D01*
X144618733Y-93786312D01*
X144597056Y-93753869D01*
X144589444Y-93715601D01*
X144589444Y-93515601D01*
X144597056Y-93477333D01*
X144618733Y-93444890D01*
X144651176Y-93423213D01*
X144689444Y-93415601D01*
X145964444Y-93415601D01*
X146002712Y-93423213D01*
G37*
G36*
X129920000Y-93659999D02*
G01*
X129220000Y-93659999D01*
X129220000Y-93359999D01*
X129920000Y-93359999D01*
X129920000Y-93659999D01*
G37*
G36*
X162083104Y-92633127D02*
G01*
X162156099Y-92681901D01*
X162204873Y-92754896D01*
X162222000Y-92841000D01*
X162222000Y-93341000D01*
X162204873Y-93427104D01*
X162156099Y-93500099D01*
X162083104Y-93548873D01*
X161997000Y-93566000D01*
X161547000Y-93566000D01*
X161460896Y-93548873D01*
X161387901Y-93500099D01*
X161339127Y-93427104D01*
X161322000Y-93341000D01*
X161322000Y-92841000D01*
X161339127Y-92754896D01*
X161387901Y-92681901D01*
X161460896Y-92633127D01*
X161547000Y-92616000D01*
X161997000Y-92616000D01*
X162083104Y-92633127D01*
G37*
G36*
X163633104Y-92633127D02*
G01*
X163706099Y-92681901D01*
X163754873Y-92754896D01*
X163772000Y-92841000D01*
X163772000Y-93341000D01*
X163754873Y-93427104D01*
X163706099Y-93500099D01*
X163633104Y-93548873D01*
X163547000Y-93566000D01*
X163097000Y-93566000D01*
X163010896Y-93548873D01*
X162937901Y-93500099D01*
X162889127Y-93427104D01*
X162872000Y-93341000D01*
X162872000Y-92841000D01*
X162889127Y-92754896D01*
X162937901Y-92681901D01*
X163010896Y-92633127D01*
X163097000Y-92616000D01*
X163547000Y-92616000D01*
X163633104Y-92633127D01*
G37*
G36*
X149942104Y-92645125D02*
G01*
X150015099Y-92693899D01*
X150063873Y-92766894D01*
X150081000Y-92852998D01*
X150081000Y-93302998D01*
X150063873Y-93389102D01*
X150015099Y-93462097D01*
X149942104Y-93510871D01*
X149856000Y-93527998D01*
X149356000Y-93527998D01*
X149269896Y-93510871D01*
X149196901Y-93462097D01*
X149148127Y-93389102D01*
X149131000Y-93302998D01*
X149131000Y-92852998D01*
X149148127Y-92766894D01*
X149196901Y-92693899D01*
X149269896Y-92645125D01*
X149356000Y-92627998D01*
X149856000Y-92627998D01*
X149942104Y-92645125D01*
G37*
G36*
X151466104Y-92645125D02*
G01*
X151539099Y-92693899D01*
X151587873Y-92766894D01*
X151605000Y-92852998D01*
X151605000Y-93302998D01*
X151587873Y-93389102D01*
X151539099Y-93462097D01*
X151466104Y-93510871D01*
X151380000Y-93527998D01*
X150880000Y-93527998D01*
X150793896Y-93510871D01*
X150720901Y-93462097D01*
X150672127Y-93389102D01*
X150655000Y-93302998D01*
X150655000Y-92852998D01*
X150672127Y-92766894D01*
X150720901Y-92693899D01*
X150793896Y-92645125D01*
X150880000Y-92627998D01*
X151380000Y-92627998D01*
X151466104Y-92645125D01*
G37*
G36*
X152990104Y-92645125D02*
G01*
X153063099Y-92693899D01*
X153111873Y-92766894D01*
X153129000Y-92852998D01*
X153129000Y-93302998D01*
X153111873Y-93389102D01*
X153063099Y-93462097D01*
X152990104Y-93510871D01*
X152904000Y-93527998D01*
X152404000Y-93527998D01*
X152317896Y-93510871D01*
X152244901Y-93462097D01*
X152196127Y-93389102D01*
X152179000Y-93302998D01*
X152179000Y-92852998D01*
X152196127Y-92766894D01*
X152244901Y-92693899D01*
X152317896Y-92645125D01*
X152404000Y-92627998D01*
X152904000Y-92627998D01*
X152990104Y-92645125D01*
G37*
G36*
X154514104Y-92645125D02*
G01*
X154587099Y-92693899D01*
X154635873Y-92766894D01*
X154653000Y-92852998D01*
X154653000Y-93302998D01*
X154635873Y-93389102D01*
X154587099Y-93462097D01*
X154514104Y-93510871D01*
X154428000Y-93527998D01*
X153928000Y-93527998D01*
X153841896Y-93510871D01*
X153768901Y-93462097D01*
X153720127Y-93389102D01*
X153703000Y-93302998D01*
X153703000Y-92852998D01*
X153720127Y-92766894D01*
X153768901Y-92693899D01*
X153841896Y-92645125D01*
X153928000Y-92627998D01*
X154428000Y-92627998D01*
X154514104Y-92645125D01*
G37*
G36*
X156038104Y-92645125D02*
G01*
X156111099Y-92693899D01*
X156159873Y-92766894D01*
X156177000Y-92852998D01*
X156177000Y-93302998D01*
X156159873Y-93389102D01*
X156111099Y-93462097D01*
X156038104Y-93510871D01*
X155952000Y-93527998D01*
X155452000Y-93527998D01*
X155365896Y-93510871D01*
X155292901Y-93462097D01*
X155244127Y-93389102D01*
X155227000Y-93302998D01*
X155227000Y-92852998D01*
X155244127Y-92766894D01*
X155292901Y-92693899D01*
X155365896Y-92645125D01*
X155452000Y-92627998D01*
X155952000Y-92627998D01*
X156038104Y-92645125D01*
G37*
G36*
X157562104Y-92645125D02*
G01*
X157635099Y-92693899D01*
X157683873Y-92766894D01*
X157701000Y-92852998D01*
X157701000Y-93302998D01*
X157683873Y-93389102D01*
X157635099Y-93462097D01*
X157562104Y-93510871D01*
X157476000Y-93527998D01*
X156976000Y-93527998D01*
X156889896Y-93510871D01*
X156816901Y-93462097D01*
X156768127Y-93389102D01*
X156751000Y-93302998D01*
X156751000Y-92852998D01*
X156768127Y-92766894D01*
X156816901Y-92693899D01*
X156889896Y-92645125D01*
X156976000Y-92627998D01*
X157476000Y-92627998D01*
X157562104Y-92645125D01*
G37*
G36*
X159086104Y-92645125D02*
G01*
X159159099Y-92693899D01*
X159207873Y-92766894D01*
X159225000Y-92852998D01*
X159225000Y-93302998D01*
X159207873Y-93389102D01*
X159159099Y-93462097D01*
X159086104Y-93510871D01*
X159000000Y-93527998D01*
X158500000Y-93527998D01*
X158413896Y-93510871D01*
X158340901Y-93462097D01*
X158292127Y-93389102D01*
X158275000Y-93302998D01*
X158275000Y-92852998D01*
X158292127Y-92766894D01*
X158340901Y-92693899D01*
X158413896Y-92645125D01*
X158500000Y-92627998D01*
X159000000Y-92627998D01*
X159086104Y-92645125D01*
G37*
G36*
X160610104Y-92645125D02*
G01*
X160683099Y-92693899D01*
X160731873Y-92766894D01*
X160749000Y-92852998D01*
X160749000Y-93302998D01*
X160731873Y-93389102D01*
X160683099Y-93462097D01*
X160610104Y-93510871D01*
X160524000Y-93527998D01*
X160024000Y-93527998D01*
X159937896Y-93510871D01*
X159864901Y-93462097D01*
X159816127Y-93389102D01*
X159799000Y-93302998D01*
X159799000Y-92852998D01*
X159816127Y-92766894D01*
X159864901Y-92693899D01*
X159937896Y-92645125D01*
X160024000Y-92627998D01*
X160524000Y-92627998D01*
X160610104Y-92645125D01*
G37*
G36*
X129920000Y-93160000D02*
G01*
X129220000Y-93160000D01*
X129220000Y-92860000D01*
X129920000Y-92860000D01*
X129920000Y-93160000D01*
G37*
G36*
X143409520Y-92289258D02*
G01*
X143454939Y-92319606D01*
X143485287Y-92365025D01*
X143495944Y-92418601D01*
X143495944Y-92758601D01*
X143485287Y-92812177D01*
X143454939Y-92857596D01*
X143409520Y-92887944D01*
X143355944Y-92898601D01*
X143075944Y-92898601D01*
X143022368Y-92887944D01*
X142976949Y-92857596D01*
X142946601Y-92812177D01*
X142935944Y-92758601D01*
X142935944Y-92418601D01*
X142946601Y-92365025D01*
X142976949Y-92319606D01*
X143022368Y-92289258D01*
X143075944Y-92278601D01*
X143355944Y-92278601D01*
X143409520Y-92289258D01*
G37*
G36*
X144369520Y-92289258D02*
G01*
X144414939Y-92319606D01*
X144445287Y-92365025D01*
X144455944Y-92418601D01*
X144455944Y-92758601D01*
X144445287Y-92812177D01*
X144414939Y-92857596D01*
X144369520Y-92887944D01*
X144315944Y-92898601D01*
X144035944Y-92898601D01*
X143982368Y-92887944D01*
X143936949Y-92857596D01*
X143906601Y-92812177D01*
X143895944Y-92758601D01*
X143895944Y-92418601D01*
X143906601Y-92365025D01*
X143936949Y-92319606D01*
X143982368Y-92289258D01*
X144035944Y-92278601D01*
X144315944Y-92278601D01*
X144369520Y-92289258D01*
G37*
G36*
X129920000Y-92660001D02*
G01*
X129220000Y-92660001D01*
X129220000Y-92360001D01*
X129920000Y-92360001D01*
X129920000Y-92660001D01*
G37*
G36*
X138806576Y-91775657D02*
G01*
X138851995Y-91806005D01*
X138882343Y-91851424D01*
X138893000Y-91905000D01*
X138893000Y-92245000D01*
X138882343Y-92298576D01*
X138851995Y-92343995D01*
X138806576Y-92374343D01*
X138753000Y-92385000D01*
X138473000Y-92385000D01*
X138419424Y-92374343D01*
X138374005Y-92343995D01*
X138343657Y-92298576D01*
X138333000Y-92245000D01*
X138333000Y-91905000D01*
X138343657Y-91851424D01*
X138374005Y-91806005D01*
X138419424Y-91775657D01*
X138473000Y-91765000D01*
X138753000Y-91765000D01*
X138806576Y-91775657D01*
G37*
G36*
X139766576Y-91775657D02*
G01*
X139811995Y-91806005D01*
X139842343Y-91851424D01*
X139853000Y-91905000D01*
X139853000Y-92245000D01*
X139842343Y-92298576D01*
X139811995Y-92343995D01*
X139766576Y-92374343D01*
X139713000Y-92385000D01*
X139433000Y-92385000D01*
X139379424Y-92374343D01*
X139334005Y-92343995D01*
X139303657Y-92298576D01*
X139293000Y-92245000D01*
X139293000Y-91905000D01*
X139303657Y-91851424D01*
X139334005Y-91806005D01*
X139379424Y-91775657D01*
X139433000Y-91765000D01*
X139713000Y-91765000D01*
X139766576Y-91775657D01*
G37*
G36*
X129920000Y-92159999D02*
G01*
X129220000Y-92159999D01*
X129220000Y-91859999D01*
X129920000Y-91859999D01*
X129920000Y-92159999D01*
G37*
G36*
X162083104Y-91109127D02*
G01*
X162156099Y-91157901D01*
X162204873Y-91230896D01*
X162222000Y-91317000D01*
X162222000Y-91817000D01*
X162204873Y-91903104D01*
X162156099Y-91976099D01*
X162083104Y-92024873D01*
X161997000Y-92042000D01*
X161547000Y-92042000D01*
X161460896Y-92024873D01*
X161387901Y-91976099D01*
X161339127Y-91903104D01*
X161322000Y-91817000D01*
X161322000Y-91317000D01*
X161339127Y-91230896D01*
X161387901Y-91157901D01*
X161460896Y-91109127D01*
X161547000Y-91092000D01*
X161997000Y-91092000D01*
X162083104Y-91109127D01*
G37*
G36*
X163633104Y-91109127D02*
G01*
X163706099Y-91157901D01*
X163754873Y-91230896D01*
X163772000Y-91317000D01*
X163772000Y-91817000D01*
X163754873Y-91903104D01*
X163706099Y-91976099D01*
X163633104Y-92024873D01*
X163547000Y-92042000D01*
X163097000Y-92042000D01*
X163010896Y-92024873D01*
X162937901Y-91976099D01*
X162889127Y-91903104D01*
X162872000Y-91817000D01*
X162872000Y-91317000D01*
X162889127Y-91230896D01*
X162937901Y-91157901D01*
X163010896Y-91109127D01*
X163097000Y-91092000D01*
X163547000Y-91092000D01*
X163633104Y-91109127D01*
G37*
G36*
X149942104Y-91134127D02*
G01*
X150015099Y-91182901D01*
X150063873Y-91255896D01*
X150081000Y-91342000D01*
X150081000Y-91792000D01*
X150063873Y-91878104D01*
X150015099Y-91951099D01*
X149942104Y-91999873D01*
X149856000Y-92017000D01*
X149356000Y-92017000D01*
X149269896Y-91999873D01*
X149196901Y-91951099D01*
X149148127Y-91878104D01*
X149131000Y-91792000D01*
X149131000Y-91342000D01*
X149148127Y-91255896D01*
X149196901Y-91182901D01*
X149269896Y-91134127D01*
X149356000Y-91117000D01*
X149856000Y-91117000D01*
X149942104Y-91134127D01*
G37*
G36*
X151466104Y-91134127D02*
G01*
X151539099Y-91182901D01*
X151587873Y-91255896D01*
X151605000Y-91342000D01*
X151605000Y-91792000D01*
X151587873Y-91878104D01*
X151539099Y-91951099D01*
X151466104Y-91999873D01*
X151380000Y-92017000D01*
X150880000Y-92017000D01*
X150793896Y-91999873D01*
X150720901Y-91951099D01*
X150672127Y-91878104D01*
X150655000Y-91792000D01*
X150655000Y-91342000D01*
X150672127Y-91255896D01*
X150720901Y-91182901D01*
X150793896Y-91134127D01*
X150880000Y-91117000D01*
X151380000Y-91117000D01*
X151466104Y-91134127D01*
G37*
G36*
X152990104Y-91134127D02*
G01*
X153063099Y-91182901D01*
X153111873Y-91255896D01*
X153129000Y-91342000D01*
X153129000Y-91792000D01*
X153111873Y-91878104D01*
X153063099Y-91951099D01*
X152990104Y-91999873D01*
X152904000Y-92017000D01*
X152404000Y-92017000D01*
X152317896Y-91999873D01*
X152244901Y-91951099D01*
X152196127Y-91878104D01*
X152179000Y-91792000D01*
X152179000Y-91342000D01*
X152196127Y-91255896D01*
X152244901Y-91182901D01*
X152317896Y-91134127D01*
X152404000Y-91117000D01*
X152904000Y-91117000D01*
X152990104Y-91134127D01*
G37*
G36*
X154514104Y-91134127D02*
G01*
X154587099Y-91182901D01*
X154635873Y-91255896D01*
X154653000Y-91342000D01*
X154653000Y-91792000D01*
X154635873Y-91878104D01*
X154587099Y-91951099D01*
X154514104Y-91999873D01*
X154428000Y-92017000D01*
X153928000Y-92017000D01*
X153841896Y-91999873D01*
X153768901Y-91951099D01*
X153720127Y-91878104D01*
X153703000Y-91792000D01*
X153703000Y-91342000D01*
X153720127Y-91255896D01*
X153768901Y-91182901D01*
X153841896Y-91134127D01*
X153928000Y-91117000D01*
X154428000Y-91117000D01*
X154514104Y-91134127D01*
G37*
G36*
X156038104Y-91134127D02*
G01*
X156111099Y-91182901D01*
X156159873Y-91255896D01*
X156177000Y-91342000D01*
X156177000Y-91792000D01*
X156159873Y-91878104D01*
X156111099Y-91951099D01*
X156038104Y-91999873D01*
X155952000Y-92017000D01*
X155452000Y-92017000D01*
X155365896Y-91999873D01*
X155292901Y-91951099D01*
X155244127Y-91878104D01*
X155227000Y-91792000D01*
X155227000Y-91342000D01*
X155244127Y-91255896D01*
X155292901Y-91182901D01*
X155365896Y-91134127D01*
X155452000Y-91117000D01*
X155952000Y-91117000D01*
X156038104Y-91134127D01*
G37*
G36*
X157562104Y-91134127D02*
G01*
X157635099Y-91182901D01*
X157683873Y-91255896D01*
X157701000Y-91342000D01*
X157701000Y-91792000D01*
X157683873Y-91878104D01*
X157635099Y-91951099D01*
X157562104Y-91999873D01*
X157476000Y-92017000D01*
X156976000Y-92017000D01*
X156889896Y-91999873D01*
X156816901Y-91951099D01*
X156768127Y-91878104D01*
X156751000Y-91792000D01*
X156751000Y-91342000D01*
X156768127Y-91255896D01*
X156816901Y-91182901D01*
X156889896Y-91134127D01*
X156976000Y-91117000D01*
X157476000Y-91117000D01*
X157562104Y-91134127D01*
G37*
G36*
X159079104Y-91134127D02*
G01*
X159152099Y-91182901D01*
X159200873Y-91255896D01*
X159218000Y-91342000D01*
X159218000Y-91792000D01*
X159200873Y-91878104D01*
X159152099Y-91951099D01*
X159079104Y-91999873D01*
X158993000Y-92017000D01*
X158493000Y-92017000D01*
X158406896Y-91999873D01*
X158333901Y-91951099D01*
X158285127Y-91878104D01*
X158268000Y-91792000D01*
X158268000Y-91342000D01*
X158285127Y-91255896D01*
X158333901Y-91182901D01*
X158406896Y-91134127D01*
X158493000Y-91117000D01*
X158993000Y-91117000D01*
X159079104Y-91134127D01*
G37*
G36*
X160603104Y-91134127D02*
G01*
X160676099Y-91182901D01*
X160724873Y-91255896D01*
X160742000Y-91342000D01*
X160742000Y-91792000D01*
X160724873Y-91878104D01*
X160676099Y-91951099D01*
X160603104Y-91999873D01*
X160517000Y-92017000D01*
X160017000Y-92017000D01*
X159930896Y-91999873D01*
X159857901Y-91951099D01*
X159809127Y-91878104D01*
X159792000Y-91792000D01*
X159792000Y-91342000D01*
X159809127Y-91255896D01*
X159857901Y-91182901D01*
X159930896Y-91134127D01*
X160017000Y-91117000D01*
X160517000Y-91117000D01*
X160603104Y-91134127D01*
G37*
G36*
X129920000Y-91660000D02*
G01*
X129220000Y-91660000D01*
X129220000Y-91360000D01*
X129920000Y-91360000D01*
X129920000Y-91660000D01*
G37*
G36*
X140277712Y-90861213D02*
G01*
X140310155Y-90882890D01*
X140331832Y-90915333D01*
X140339444Y-90953601D01*
X140339444Y-91153601D01*
X140331832Y-91191869D01*
X140310155Y-91224312D01*
X140277712Y-91245989D01*
X140239444Y-91253601D01*
X138964444Y-91253601D01*
X138926176Y-91245989D01*
X138893733Y-91224312D01*
X138872056Y-91191869D01*
X138864444Y-91153601D01*
X138864444Y-90953601D01*
X138872056Y-90915333D01*
X138893733Y-90882890D01*
X138926176Y-90861213D01*
X138964444Y-90853601D01*
X140239444Y-90853601D01*
X140277712Y-90861213D01*
G37*
G36*
X146002712Y-90861213D02*
G01*
X146035155Y-90882890D01*
X146056832Y-90915333D01*
X146064444Y-90953601D01*
X146064444Y-91153601D01*
X146056832Y-91191869D01*
X146035155Y-91224312D01*
X146002712Y-91245989D01*
X145964444Y-91253601D01*
X144689444Y-91253601D01*
X144651176Y-91245989D01*
X144618733Y-91224312D01*
X144597056Y-91191869D01*
X144589444Y-91153601D01*
X144589444Y-90953601D01*
X144597056Y-90915333D01*
X144618733Y-90882890D01*
X144651176Y-90861213D01*
X144689444Y-90853601D01*
X145964444Y-90853601D01*
X146002712Y-90861213D01*
G37*
G36*
X127420000Y-90870000D02*
G01*
X126420000Y-90870000D01*
X126420000Y-90570000D01*
X127420000Y-90570000D01*
X127420000Y-90870000D01*
G37*
G36*
X140277712Y-90211213D02*
G01*
X140310155Y-90232890D01*
X140331832Y-90265333D01*
X140339444Y-90303601D01*
X140339444Y-90503601D01*
X140331832Y-90541869D01*
X140310155Y-90574312D01*
X140277712Y-90595989D01*
X140239444Y-90603601D01*
X138964444Y-90603601D01*
X138926176Y-90595989D01*
X138893733Y-90574312D01*
X138872056Y-90541869D01*
X138864444Y-90503601D01*
X138864444Y-90303601D01*
X138872056Y-90265333D01*
X138893733Y-90232890D01*
X138926176Y-90211213D01*
X138964444Y-90203601D01*
X140239444Y-90203601D01*
X140277712Y-90211213D01*
G37*
G36*
X146002712Y-90211213D02*
G01*
X146035155Y-90232890D01*
X146056832Y-90265333D01*
X146064444Y-90303601D01*
X146064444Y-90503601D01*
X146056832Y-90541869D01*
X146035155Y-90574312D01*
X146002712Y-90595989D01*
X145964444Y-90603601D01*
X144689444Y-90603601D01*
X144651176Y-90595989D01*
X144618733Y-90574312D01*
X144597056Y-90541869D01*
X144589444Y-90503601D01*
X144589444Y-90303601D01*
X144597056Y-90265333D01*
X144618733Y-90232890D01*
X144651176Y-90211213D01*
X144689444Y-90203601D01*
X145964444Y-90203601D01*
X146002712Y-90211213D01*
G37*
G36*
X162083104Y-89572125D02*
G01*
X162156099Y-89620899D01*
X162204873Y-89693894D01*
X162222000Y-89779998D01*
X162222000Y-90279998D01*
X162204873Y-90366102D01*
X162156099Y-90439097D01*
X162083104Y-90487871D01*
X161997000Y-90504998D01*
X161547000Y-90504998D01*
X161460896Y-90487871D01*
X161387901Y-90439097D01*
X161339127Y-90366102D01*
X161322000Y-90279998D01*
X161322000Y-89779998D01*
X161339127Y-89693894D01*
X161387901Y-89620899D01*
X161460896Y-89572125D01*
X161547000Y-89554998D01*
X161997000Y-89554998D01*
X162083104Y-89572125D01*
G37*
G36*
X163633104Y-89572125D02*
G01*
X163706099Y-89620899D01*
X163754873Y-89693894D01*
X163772000Y-89779998D01*
X163772000Y-90279998D01*
X163754873Y-90366102D01*
X163706099Y-90439097D01*
X163633104Y-90487871D01*
X163547000Y-90504998D01*
X163097000Y-90504998D01*
X163010896Y-90487871D01*
X162937901Y-90439097D01*
X162889127Y-90366102D01*
X162872000Y-90279998D01*
X162872000Y-89779998D01*
X162889127Y-89693894D01*
X162937901Y-89620899D01*
X163010896Y-89572125D01*
X163097000Y-89554998D01*
X163547000Y-89554998D01*
X163633104Y-89572125D01*
G37*
G36*
X149942104Y-89584127D02*
G01*
X150015099Y-89632901D01*
X150063873Y-89705896D01*
X150081000Y-89792000D01*
X150081000Y-90242000D01*
X150063873Y-90328104D01*
X150015099Y-90401099D01*
X149942104Y-90449873D01*
X149856000Y-90467000D01*
X149356000Y-90467000D01*
X149269896Y-90449873D01*
X149196901Y-90401099D01*
X149148127Y-90328104D01*
X149131000Y-90242000D01*
X149131000Y-89792000D01*
X149148127Y-89705896D01*
X149196901Y-89632901D01*
X149269896Y-89584127D01*
X149356000Y-89567000D01*
X149856000Y-89567000D01*
X149942104Y-89584127D01*
G37*
G36*
X151466104Y-89584127D02*
G01*
X151539099Y-89632901D01*
X151587873Y-89705896D01*
X151605000Y-89792000D01*
X151605000Y-90242000D01*
X151587873Y-90328104D01*
X151539099Y-90401099D01*
X151466104Y-90449873D01*
X151380000Y-90467000D01*
X150880000Y-90467000D01*
X150793896Y-90449873D01*
X150720901Y-90401099D01*
X150672127Y-90328104D01*
X150655000Y-90242000D01*
X150655000Y-89792000D01*
X150672127Y-89705896D01*
X150720901Y-89632901D01*
X150793896Y-89584127D01*
X150880000Y-89567000D01*
X151380000Y-89567000D01*
X151466104Y-89584127D01*
G37*
G36*
X152990104Y-89584127D02*
G01*
X153063099Y-89632901D01*
X153111873Y-89705896D01*
X153129000Y-89792000D01*
X153129000Y-90242000D01*
X153111873Y-90328104D01*
X153063099Y-90401099D01*
X152990104Y-90449873D01*
X152904000Y-90467000D01*
X152404000Y-90467000D01*
X152317896Y-90449873D01*
X152244901Y-90401099D01*
X152196127Y-90328104D01*
X152179000Y-90242000D01*
X152179000Y-89792000D01*
X152196127Y-89705896D01*
X152244901Y-89632901D01*
X152317896Y-89584127D01*
X152404000Y-89567000D01*
X152904000Y-89567000D01*
X152990104Y-89584127D01*
G37*
G36*
X154514104Y-89584127D02*
G01*
X154587099Y-89632901D01*
X154635873Y-89705896D01*
X154653000Y-89792000D01*
X154653000Y-90242000D01*
X154635873Y-90328104D01*
X154587099Y-90401099D01*
X154514104Y-90449873D01*
X154428000Y-90467000D01*
X153928000Y-90467000D01*
X153841896Y-90449873D01*
X153768901Y-90401099D01*
X153720127Y-90328104D01*
X153703000Y-90242000D01*
X153703000Y-89792000D01*
X153720127Y-89705896D01*
X153768901Y-89632901D01*
X153841896Y-89584127D01*
X153928000Y-89567000D01*
X154428000Y-89567000D01*
X154514104Y-89584127D01*
G37*
G36*
X156038104Y-89584127D02*
G01*
X156111099Y-89632901D01*
X156159873Y-89705896D01*
X156177000Y-89792000D01*
X156177000Y-90242000D01*
X156159873Y-90328104D01*
X156111099Y-90401099D01*
X156038104Y-90449873D01*
X155952000Y-90467000D01*
X155452000Y-90467000D01*
X155365896Y-90449873D01*
X155292901Y-90401099D01*
X155244127Y-90328104D01*
X155227000Y-90242000D01*
X155227000Y-89792000D01*
X155244127Y-89705896D01*
X155292901Y-89632901D01*
X155365896Y-89584127D01*
X155452000Y-89567000D01*
X155952000Y-89567000D01*
X156038104Y-89584127D01*
G37*
G36*
X157562104Y-89584127D02*
G01*
X157635099Y-89632901D01*
X157683873Y-89705896D01*
X157701000Y-89792000D01*
X157701000Y-90242000D01*
X157683873Y-90328104D01*
X157635099Y-90401099D01*
X157562104Y-90449873D01*
X157476000Y-90467000D01*
X156976000Y-90467000D01*
X156889896Y-90449873D01*
X156816901Y-90401099D01*
X156768127Y-90328104D01*
X156751000Y-90242000D01*
X156751000Y-89792000D01*
X156768127Y-89705896D01*
X156816901Y-89632901D01*
X156889896Y-89584127D01*
X156976000Y-89567000D01*
X157476000Y-89567000D01*
X157562104Y-89584127D01*
G37*
G36*
X159079104Y-89584127D02*
G01*
X159152099Y-89632901D01*
X159200873Y-89705896D01*
X159218000Y-89792000D01*
X159218000Y-90242000D01*
X159200873Y-90328104D01*
X159152099Y-90401099D01*
X159079104Y-90449873D01*
X158993000Y-90467000D01*
X158493000Y-90467000D01*
X158406896Y-90449873D01*
X158333901Y-90401099D01*
X158285127Y-90328104D01*
X158268000Y-90242000D01*
X158268000Y-89792000D01*
X158285127Y-89705896D01*
X158333901Y-89632901D01*
X158406896Y-89584127D01*
X158493000Y-89567000D01*
X158993000Y-89567000D01*
X159079104Y-89584127D01*
G37*
G36*
X160603104Y-89584127D02*
G01*
X160676099Y-89632901D01*
X160724873Y-89705896D01*
X160742000Y-89792000D01*
X160742000Y-90242000D01*
X160724873Y-90328104D01*
X160676099Y-90401099D01*
X160603104Y-90449873D01*
X160517000Y-90467000D01*
X160017000Y-90467000D01*
X159930896Y-90449873D01*
X159857901Y-90401099D01*
X159809127Y-90328104D01*
X159792000Y-90242000D01*
X159792000Y-89792000D01*
X159809127Y-89705896D01*
X159857901Y-89632901D01*
X159930896Y-89584127D01*
X160017000Y-89567000D01*
X160517000Y-89567000D01*
X160603104Y-89584127D01*
G37*
G36*
X140277712Y-89561213D02*
G01*
X140310155Y-89582890D01*
X140331832Y-89615333D01*
X140339444Y-89653601D01*
X140339444Y-89853601D01*
X140331832Y-89891869D01*
X140310155Y-89924312D01*
X140277712Y-89945989D01*
X140239444Y-89953601D01*
X138964444Y-89953601D01*
X138926176Y-89945989D01*
X138893733Y-89924312D01*
X138872056Y-89891869D01*
X138864444Y-89853601D01*
X138864444Y-89653601D01*
X138872056Y-89615333D01*
X138893733Y-89582890D01*
X138926176Y-89561213D01*
X138964444Y-89553601D01*
X140239444Y-89553601D01*
X140277712Y-89561213D01*
G37*
G36*
X146002712Y-89561213D02*
G01*
X146035155Y-89582890D01*
X146056832Y-89615333D01*
X146064444Y-89653601D01*
X146064444Y-89853601D01*
X146056832Y-89891869D01*
X146035155Y-89924312D01*
X146002712Y-89945989D01*
X145964444Y-89953601D01*
X144689444Y-89953601D01*
X144651176Y-89945989D01*
X144618733Y-89924312D01*
X144597056Y-89891869D01*
X144589444Y-89853601D01*
X144589444Y-89653601D01*
X144597056Y-89615333D01*
X144618733Y-89582890D01*
X144651176Y-89561213D01*
X144689444Y-89553601D01*
X145964444Y-89553601D01*
X146002712Y-89561213D01*
G37*
G36*
X140277712Y-88911213D02*
G01*
X140310155Y-88932890D01*
X140331832Y-88965333D01*
X140339444Y-89003601D01*
X140339444Y-89203601D01*
X140331832Y-89241869D01*
X140310155Y-89274312D01*
X140277712Y-89295989D01*
X140239444Y-89303601D01*
X138964444Y-89303601D01*
X138926176Y-89295989D01*
X138893733Y-89274312D01*
X138872056Y-89241869D01*
X138864444Y-89203601D01*
X138864444Y-89003601D01*
X138872056Y-88965333D01*
X138893733Y-88932890D01*
X138926176Y-88911213D01*
X138964444Y-88903601D01*
X140239444Y-88903601D01*
X140277712Y-88911213D01*
G37*
G36*
X146002712Y-88911213D02*
G01*
X146035155Y-88932890D01*
X146056832Y-88965333D01*
X146064444Y-89003601D01*
X146064444Y-89203601D01*
X146056832Y-89241869D01*
X146035155Y-89274312D01*
X146002712Y-89295989D01*
X145964444Y-89303601D01*
X144689444Y-89303601D01*
X144651176Y-89295989D01*
X144618733Y-89274312D01*
X144597056Y-89241869D01*
X144589444Y-89203601D01*
X144589444Y-89003601D01*
X144597056Y-88965333D01*
X144618733Y-88932890D01*
X144651176Y-88911213D01*
X144689444Y-88903601D01*
X145964444Y-88903601D01*
X146002712Y-88911213D01*
G37*
G36*
X140277712Y-88261213D02*
G01*
X140310155Y-88282890D01*
X140331832Y-88315333D01*
X140339444Y-88353601D01*
X140339444Y-88553601D01*
X140331832Y-88591869D01*
X140310155Y-88624312D01*
X140277712Y-88645989D01*
X140239444Y-88653601D01*
X138964444Y-88653601D01*
X138926176Y-88645989D01*
X138893733Y-88624312D01*
X138872056Y-88591869D01*
X138864444Y-88553601D01*
X138864444Y-88353601D01*
X138872056Y-88315333D01*
X138893733Y-88282890D01*
X138926176Y-88261213D01*
X138964444Y-88253601D01*
X140239444Y-88253601D01*
X140277712Y-88261213D01*
G37*
G36*
X146002712Y-88261213D02*
G01*
X146035155Y-88282890D01*
X146056832Y-88315333D01*
X146064444Y-88353601D01*
X146064444Y-88553601D01*
X146056832Y-88591869D01*
X146035155Y-88624312D01*
X146002712Y-88645989D01*
X145964444Y-88653601D01*
X144689444Y-88653601D01*
X144651176Y-88645989D01*
X144618733Y-88624312D01*
X144597056Y-88591869D01*
X144589444Y-88553601D01*
X144589444Y-88353601D01*
X144597056Y-88315333D01*
X144618733Y-88282890D01*
X144651176Y-88261213D01*
X144689444Y-88253601D01*
X145964444Y-88253601D01*
X146002712Y-88261213D01*
G37*
G36*
X163785104Y-87210127D02*
G01*
X163858099Y-87258901D01*
X163906873Y-87331896D01*
X163924000Y-87418000D01*
X163924000Y-87868000D01*
X163906873Y-87954104D01*
X163858099Y-88027099D01*
X163785104Y-88075873D01*
X163699000Y-88093000D01*
X163199000Y-88093000D01*
X163112896Y-88075873D01*
X163039901Y-88027099D01*
X162991127Y-87954104D01*
X162974000Y-87868000D01*
X162974000Y-87418000D01*
X162991127Y-87331896D01*
X163039901Y-87258901D01*
X163112896Y-87210127D01*
X163199000Y-87193000D01*
X163699000Y-87193000D01*
X163785104Y-87210127D01*
G37*
G36*
X140277712Y-87611213D02*
G01*
X140310155Y-87632890D01*
X140331832Y-87665333D01*
X140339444Y-87703601D01*
X140339444Y-87903601D01*
X140331832Y-87941869D01*
X140310155Y-87974312D01*
X140277712Y-87995989D01*
X140239444Y-88003601D01*
X138964444Y-88003601D01*
X138926176Y-87995989D01*
X138893733Y-87974312D01*
X138872056Y-87941869D01*
X138864444Y-87903601D01*
X138864444Y-87703601D01*
X138872056Y-87665333D01*
X138893733Y-87632890D01*
X138926176Y-87611213D01*
X138964444Y-87603601D01*
X140239444Y-87603601D01*
X140277712Y-87611213D01*
G37*
G36*
X146002712Y-87611213D02*
G01*
X146035155Y-87632890D01*
X146056832Y-87665333D01*
X146064444Y-87703601D01*
X146064444Y-87903601D01*
X146056832Y-87941869D01*
X146035155Y-87974312D01*
X146002712Y-87995989D01*
X145964444Y-88003601D01*
X144689444Y-88003601D01*
X144651176Y-87995989D01*
X144618733Y-87974312D01*
X144597056Y-87941869D01*
X144589444Y-87903601D01*
X144589444Y-87703601D01*
X144597056Y-87665333D01*
X144618733Y-87632890D01*
X144651176Y-87611213D01*
X144689444Y-87603601D01*
X145964444Y-87603601D01*
X146002712Y-87611213D01*
G37*
G36*
X140277712Y-86961213D02*
G01*
X140310155Y-86982890D01*
X140331832Y-87015333D01*
X140339444Y-87053601D01*
X140339444Y-87253601D01*
X140331832Y-87291869D01*
X140310155Y-87324312D01*
X140277712Y-87345989D01*
X140239444Y-87353601D01*
X138964444Y-87353601D01*
X138926176Y-87345989D01*
X138893733Y-87324312D01*
X138872056Y-87291869D01*
X138864444Y-87253601D01*
X138864444Y-87053601D01*
X138872056Y-87015333D01*
X138893733Y-86982890D01*
X138926176Y-86961213D01*
X138964444Y-86953601D01*
X140239444Y-86953601D01*
X140277712Y-86961213D01*
G37*
G36*
X146002712Y-86961213D02*
G01*
X146035155Y-86982890D01*
X146056832Y-87015333D01*
X146064444Y-87053601D01*
X146064444Y-87253601D01*
X146056832Y-87291869D01*
X146035155Y-87324312D01*
X146002712Y-87345989D01*
X145964444Y-87353601D01*
X144689444Y-87353601D01*
X144651176Y-87345989D01*
X144618733Y-87324312D01*
X144597056Y-87291869D01*
X144589444Y-87253601D01*
X144589444Y-87053601D01*
X144597056Y-87015333D01*
X144618733Y-86982890D01*
X144651176Y-86961213D01*
X144689444Y-86953601D01*
X145964444Y-86953601D01*
X146002712Y-86961213D01*
G37*
G36*
X140277712Y-86311213D02*
G01*
X140310155Y-86332890D01*
X140331832Y-86365333D01*
X140339444Y-86403601D01*
X140339444Y-86603601D01*
X140331832Y-86641869D01*
X140310155Y-86674312D01*
X140277712Y-86695989D01*
X140239444Y-86703601D01*
X138964444Y-86703601D01*
X138926176Y-86695989D01*
X138893733Y-86674312D01*
X138872056Y-86641869D01*
X138864444Y-86603601D01*
X138864444Y-86403601D01*
X138872056Y-86365333D01*
X138893733Y-86332890D01*
X138926176Y-86311213D01*
X138964444Y-86303601D01*
X140239444Y-86303601D01*
X140277712Y-86311213D01*
G37*
G36*
X146002712Y-86311213D02*
G01*
X146035155Y-86332890D01*
X146056832Y-86365333D01*
X146064444Y-86403601D01*
X146064444Y-86603601D01*
X146056832Y-86641869D01*
X146035155Y-86674312D01*
X146002712Y-86695989D01*
X145964444Y-86703601D01*
X144689444Y-86703601D01*
X144651176Y-86695989D01*
X144618733Y-86674312D01*
X144597056Y-86641869D01*
X144589444Y-86603601D01*
X144589444Y-86403601D01*
X144597056Y-86365333D01*
X144618733Y-86332890D01*
X144651176Y-86311213D01*
X144689444Y-86303601D01*
X145964444Y-86303601D01*
X146002712Y-86311213D01*
G37*
G36*
X163785104Y-85660127D02*
G01*
X163858099Y-85708901D01*
X163906873Y-85781896D01*
X163924000Y-85868000D01*
X163924000Y-86318000D01*
X163906873Y-86404104D01*
X163858099Y-86477099D01*
X163785104Y-86525873D01*
X163699000Y-86543000D01*
X163199000Y-86543000D01*
X163112896Y-86525873D01*
X163039901Y-86477099D01*
X162991127Y-86404104D01*
X162974000Y-86318000D01*
X162974000Y-85868000D01*
X162991127Y-85781896D01*
X163039901Y-85708901D01*
X163112896Y-85660127D01*
X163199000Y-85643000D01*
X163699000Y-85643000D01*
X163785104Y-85660127D01*
G37*
G36*
X143409520Y-85177258D02*
G01*
X143454939Y-85207606D01*
X143485287Y-85253025D01*
X143495944Y-85306601D01*
X143495944Y-85646601D01*
X143485287Y-85700177D01*
X143454939Y-85745596D01*
X143409520Y-85775944D01*
X143355944Y-85786601D01*
X143075944Y-85786601D01*
X143022368Y-85775944D01*
X142976949Y-85745596D01*
X142946601Y-85700177D01*
X142935944Y-85646601D01*
X142935944Y-85306601D01*
X142946601Y-85253025D01*
X142976949Y-85207606D01*
X143022368Y-85177258D01*
X143075944Y-85166601D01*
X143355944Y-85166601D01*
X143409520Y-85177258D01*
G37*
G36*
X144369520Y-85177258D02*
G01*
X144414939Y-85207606D01*
X144445287Y-85253025D01*
X144455944Y-85306601D01*
X144455944Y-85646601D01*
X144445287Y-85700177D01*
X144414939Y-85745596D01*
X144369520Y-85775944D01*
X144315944Y-85786601D01*
X144035944Y-85786601D01*
X143982368Y-85775944D01*
X143936949Y-85745596D01*
X143906601Y-85700177D01*
X143895944Y-85646601D01*
X143895944Y-85306601D01*
X143906601Y-85253025D01*
X143936949Y-85207606D01*
X143982368Y-85177258D01*
X144035944Y-85166601D01*
X144315944Y-85166601D01*
X144369520Y-85177258D01*
G37*
G36*
X149942104Y-84683127D02*
G01*
X150015099Y-84731901D01*
X150063873Y-84804896D01*
X150081000Y-84891000D01*
X150081000Y-85341000D01*
X150063873Y-85427104D01*
X150015099Y-85500099D01*
X149942104Y-85548873D01*
X149856000Y-85566000D01*
X149356000Y-85566000D01*
X149269896Y-85548873D01*
X149196901Y-85500099D01*
X149148127Y-85427104D01*
X149131000Y-85341000D01*
X149131000Y-84891000D01*
X149148127Y-84804896D01*
X149196901Y-84731901D01*
X149269896Y-84683127D01*
X149356000Y-84666000D01*
X149856000Y-84666000D01*
X149942104Y-84683127D01*
G37*
G36*
X151466104Y-84683127D02*
G01*
X151539099Y-84731901D01*
X151587873Y-84804896D01*
X151605000Y-84891000D01*
X151605000Y-85341000D01*
X151587873Y-85427104D01*
X151539099Y-85500099D01*
X151466104Y-85548873D01*
X151380000Y-85566000D01*
X150880000Y-85566000D01*
X150793896Y-85548873D01*
X150720901Y-85500099D01*
X150672127Y-85427104D01*
X150655000Y-85341000D01*
X150655000Y-84891000D01*
X150672127Y-84804896D01*
X150720901Y-84731901D01*
X150793896Y-84683127D01*
X150880000Y-84666000D01*
X151380000Y-84666000D01*
X151466104Y-84683127D01*
G37*
G36*
X152990104Y-84683127D02*
G01*
X153063099Y-84731901D01*
X153111873Y-84804896D01*
X153129000Y-84891000D01*
X153129000Y-85341000D01*
X153111873Y-85427104D01*
X153063099Y-85500099D01*
X152990104Y-85548873D01*
X152904000Y-85566000D01*
X152404000Y-85566000D01*
X152317896Y-85548873D01*
X152244901Y-85500099D01*
X152196127Y-85427104D01*
X152179000Y-85341000D01*
X152179000Y-84891000D01*
X152196127Y-84804896D01*
X152244901Y-84731901D01*
X152317896Y-84683127D01*
X152404000Y-84666000D01*
X152904000Y-84666000D01*
X152990104Y-84683127D01*
G37*
G36*
X154514104Y-84683127D02*
G01*
X154587099Y-84731901D01*
X154635873Y-84804896D01*
X154653000Y-84891000D01*
X154653000Y-85341000D01*
X154635873Y-85427104D01*
X154587099Y-85500099D01*
X154514104Y-85548873D01*
X154428000Y-85566000D01*
X153928000Y-85566000D01*
X153841896Y-85548873D01*
X153768901Y-85500099D01*
X153720127Y-85427104D01*
X153703000Y-85341000D01*
X153703000Y-84891000D01*
X153720127Y-84804896D01*
X153768901Y-84731901D01*
X153841896Y-84683127D01*
X153928000Y-84666000D01*
X154428000Y-84666000D01*
X154514104Y-84683127D01*
G37*
G36*
X156038104Y-84683127D02*
G01*
X156111099Y-84731901D01*
X156159873Y-84804896D01*
X156177000Y-84891000D01*
X156177000Y-85341000D01*
X156159873Y-85427104D01*
X156111099Y-85500099D01*
X156038104Y-85548873D01*
X155952000Y-85566000D01*
X155452000Y-85566000D01*
X155365896Y-85548873D01*
X155292901Y-85500099D01*
X155244127Y-85427104D01*
X155227000Y-85341000D01*
X155227000Y-84891000D01*
X155244127Y-84804896D01*
X155292901Y-84731901D01*
X155365896Y-84683127D01*
X155452000Y-84666000D01*
X155952000Y-84666000D01*
X156038104Y-84683127D01*
G37*
G36*
X157562104Y-84683127D02*
G01*
X157635099Y-84731901D01*
X157683873Y-84804896D01*
X157701000Y-84891000D01*
X157701000Y-85341000D01*
X157683873Y-85427104D01*
X157635099Y-85500099D01*
X157562104Y-85548873D01*
X157476000Y-85566000D01*
X156976000Y-85566000D01*
X156889896Y-85548873D01*
X156816901Y-85500099D01*
X156768127Y-85427104D01*
X156751000Y-85341000D01*
X156751000Y-84891000D01*
X156768127Y-84804896D01*
X156816901Y-84731901D01*
X156889896Y-84683127D01*
X156976000Y-84666000D01*
X157476000Y-84666000D01*
X157562104Y-84683127D01*
G37*
G36*
X159086104Y-84683127D02*
G01*
X159159099Y-84731901D01*
X159207873Y-84804896D01*
X159225000Y-84891000D01*
X159225000Y-85341000D01*
X159207873Y-85427104D01*
X159159099Y-85500099D01*
X159086104Y-85548873D01*
X159000000Y-85566000D01*
X158500000Y-85566000D01*
X158413896Y-85548873D01*
X158340901Y-85500099D01*
X158292127Y-85427104D01*
X158275000Y-85341000D01*
X158275000Y-84891000D01*
X158292127Y-84804896D01*
X158340901Y-84731901D01*
X158413896Y-84683127D01*
X158500000Y-84666000D01*
X159000000Y-84666000D01*
X159086104Y-84683127D01*
G37*
G36*
X160610104Y-84683127D02*
G01*
X160683099Y-84731901D01*
X160731873Y-84804896D01*
X160749000Y-84891000D01*
X160749000Y-85341000D01*
X160731873Y-85427104D01*
X160683099Y-85500099D01*
X160610104Y-85548873D01*
X160524000Y-85566000D01*
X160024000Y-85566000D01*
X159937896Y-85548873D01*
X159864901Y-85500099D01*
X159816127Y-85427104D01*
X159799000Y-85341000D01*
X159799000Y-84891000D01*
X159816127Y-84804896D01*
X159864901Y-84731901D01*
X159937896Y-84683127D01*
X160024000Y-84666000D01*
X160524000Y-84666000D01*
X160610104Y-84683127D01*
G37*
G36*
X138778576Y-84536657D02*
G01*
X138823995Y-84567005D01*
X138854343Y-84612424D01*
X138865000Y-84666000D01*
X138865000Y-85006000D01*
X138854343Y-85059576D01*
X138823995Y-85104995D01*
X138778576Y-85135343D01*
X138725000Y-85146000D01*
X138445000Y-85146000D01*
X138391424Y-85135343D01*
X138346005Y-85104995D01*
X138315657Y-85059576D01*
X138305000Y-85006000D01*
X138305000Y-84666000D01*
X138315657Y-84612424D01*
X138346005Y-84567005D01*
X138391424Y-84536657D01*
X138445000Y-84526000D01*
X138725000Y-84526000D01*
X138778576Y-84536657D01*
G37*
G36*
X139738576Y-84536657D02*
G01*
X139783995Y-84567005D01*
X139814343Y-84612424D01*
X139825000Y-84666000D01*
X139825000Y-85006000D01*
X139814343Y-85059576D01*
X139783995Y-85104995D01*
X139738576Y-85135343D01*
X139685000Y-85146000D01*
X139405000Y-85146000D01*
X139351424Y-85135343D01*
X139306005Y-85104995D01*
X139275657Y-85059576D01*
X139265000Y-85006000D01*
X139265000Y-84666000D01*
X139275657Y-84612424D01*
X139306005Y-84567005D01*
X139351424Y-84536657D01*
X139405000Y-84526000D01*
X139685000Y-84526000D01*
X139738576Y-84536657D01*
G37*
G36*
X162083104Y-83121129D02*
G01*
X162156099Y-83169903D01*
X162204873Y-83242898D01*
X162222000Y-83329002D01*
X162222000Y-83829002D01*
X162204873Y-83915106D01*
X162156099Y-83988101D01*
X162083104Y-84036875D01*
X161997000Y-84054002D01*
X161547000Y-84054002D01*
X161460896Y-84036875D01*
X161387901Y-83988101D01*
X161339127Y-83915106D01*
X161322000Y-83829002D01*
X161322000Y-83329002D01*
X161339127Y-83242898D01*
X161387901Y-83169903D01*
X161460896Y-83121129D01*
X161547000Y-83104002D01*
X161997000Y-83104002D01*
X162083104Y-83121129D01*
G37*
G36*
X163633104Y-83121129D02*
G01*
X163706099Y-83169903D01*
X163754873Y-83242898D01*
X163772000Y-83329002D01*
X163772000Y-83829002D01*
X163754873Y-83915106D01*
X163706099Y-83988101D01*
X163633104Y-84036875D01*
X163547000Y-84054002D01*
X163097000Y-84054002D01*
X163010896Y-84036875D01*
X162937901Y-83988101D01*
X162889127Y-83915106D01*
X162872000Y-83829002D01*
X162872000Y-83329002D01*
X162889127Y-83242898D01*
X162937901Y-83169903D01*
X163010896Y-83121129D01*
X163097000Y-83104002D01*
X163547000Y-83104002D01*
X163633104Y-83121129D01*
G37*
G36*
X149942104Y-83133127D02*
G01*
X150015099Y-83181901D01*
X150063873Y-83254896D01*
X150081000Y-83341000D01*
X150081000Y-83791000D01*
X150063873Y-83877104D01*
X150015099Y-83950099D01*
X149942104Y-83998873D01*
X149856000Y-84016000D01*
X149356000Y-84016000D01*
X149269896Y-83998873D01*
X149196901Y-83950099D01*
X149148127Y-83877104D01*
X149131000Y-83791000D01*
X149131000Y-83341000D01*
X149148127Y-83254896D01*
X149196901Y-83181901D01*
X149269896Y-83133127D01*
X149356000Y-83116000D01*
X149856000Y-83116000D01*
X149942104Y-83133127D01*
G37*
G36*
X151466104Y-83133127D02*
G01*
X151539099Y-83181901D01*
X151587873Y-83254896D01*
X151605000Y-83341000D01*
X151605000Y-83791000D01*
X151587873Y-83877104D01*
X151539099Y-83950099D01*
X151466104Y-83998873D01*
X151380000Y-84016000D01*
X150880000Y-84016000D01*
X150793896Y-83998873D01*
X150720901Y-83950099D01*
X150672127Y-83877104D01*
X150655000Y-83791000D01*
X150655000Y-83341000D01*
X150672127Y-83254896D01*
X150720901Y-83181901D01*
X150793896Y-83133127D01*
X150880000Y-83116000D01*
X151380000Y-83116000D01*
X151466104Y-83133127D01*
G37*
G36*
X152990104Y-83133127D02*
G01*
X153063099Y-83181901D01*
X153111873Y-83254896D01*
X153129000Y-83341000D01*
X153129000Y-83791000D01*
X153111873Y-83877104D01*
X153063099Y-83950099D01*
X152990104Y-83998873D01*
X152904000Y-84016000D01*
X152404000Y-84016000D01*
X152317896Y-83998873D01*
X152244901Y-83950099D01*
X152196127Y-83877104D01*
X152179000Y-83791000D01*
X152179000Y-83341000D01*
X152196127Y-83254896D01*
X152244901Y-83181901D01*
X152317896Y-83133127D01*
X152404000Y-83116000D01*
X152904000Y-83116000D01*
X152990104Y-83133127D01*
G37*
G36*
X154514104Y-83133127D02*
G01*
X154587099Y-83181901D01*
X154635873Y-83254896D01*
X154653000Y-83341000D01*
X154653000Y-83791000D01*
X154635873Y-83877104D01*
X154587099Y-83950099D01*
X154514104Y-83998873D01*
X154428000Y-84016000D01*
X153928000Y-84016000D01*
X153841896Y-83998873D01*
X153768901Y-83950099D01*
X153720127Y-83877104D01*
X153703000Y-83791000D01*
X153703000Y-83341000D01*
X153720127Y-83254896D01*
X153768901Y-83181901D01*
X153841896Y-83133127D01*
X153928000Y-83116000D01*
X154428000Y-83116000D01*
X154514104Y-83133127D01*
G37*
G36*
X156038104Y-83133127D02*
G01*
X156111099Y-83181901D01*
X156159873Y-83254896D01*
X156177000Y-83341000D01*
X156177000Y-83791000D01*
X156159873Y-83877104D01*
X156111099Y-83950099D01*
X156038104Y-83998873D01*
X155952000Y-84016000D01*
X155452000Y-84016000D01*
X155365896Y-83998873D01*
X155292901Y-83950099D01*
X155244127Y-83877104D01*
X155227000Y-83791000D01*
X155227000Y-83341000D01*
X155244127Y-83254896D01*
X155292901Y-83181901D01*
X155365896Y-83133127D01*
X155452000Y-83116000D01*
X155952000Y-83116000D01*
X156038104Y-83133127D01*
G37*
G36*
X157562104Y-83133127D02*
G01*
X157635099Y-83181901D01*
X157683873Y-83254896D01*
X157701000Y-83341000D01*
X157701000Y-83791000D01*
X157683873Y-83877104D01*
X157635099Y-83950099D01*
X157562104Y-83998873D01*
X157476000Y-84016000D01*
X156976000Y-84016000D01*
X156889896Y-83998873D01*
X156816901Y-83950099D01*
X156768127Y-83877104D01*
X156751000Y-83791000D01*
X156751000Y-83341000D01*
X156768127Y-83254896D01*
X156816901Y-83181901D01*
X156889896Y-83133127D01*
X156976000Y-83116000D01*
X157476000Y-83116000D01*
X157562104Y-83133127D01*
G37*
G36*
X159086104Y-83133127D02*
G01*
X159159099Y-83181901D01*
X159207873Y-83254896D01*
X159225000Y-83341000D01*
X159225000Y-83791000D01*
X159207873Y-83877104D01*
X159159099Y-83950099D01*
X159086104Y-83998873D01*
X159000000Y-84016000D01*
X158500000Y-84016000D01*
X158413896Y-83998873D01*
X158340901Y-83950099D01*
X158292127Y-83877104D01*
X158275000Y-83791000D01*
X158275000Y-83341000D01*
X158292127Y-83254896D01*
X158340901Y-83181901D01*
X158413896Y-83133127D01*
X158500000Y-83116000D01*
X159000000Y-83116000D01*
X159086104Y-83133127D01*
G37*
G36*
X160610104Y-83133127D02*
G01*
X160683099Y-83181901D01*
X160731873Y-83254896D01*
X160749000Y-83341000D01*
X160749000Y-83791000D01*
X160731873Y-83877104D01*
X160683099Y-83950099D01*
X160610104Y-83998873D01*
X160524000Y-84016000D01*
X160024000Y-84016000D01*
X159937896Y-83998873D01*
X159864901Y-83950099D01*
X159816127Y-83877104D01*
X159799000Y-83791000D01*
X159799000Y-83341000D01*
X159816127Y-83254896D01*
X159864901Y-83181901D01*
X159937896Y-83133127D01*
X160024000Y-83116000D01*
X160524000Y-83116000D01*
X160610104Y-83133127D01*
G37*
G36*
X140269712Y-83622213D02*
G01*
X140302155Y-83643890D01*
X140323832Y-83676333D01*
X140331444Y-83714601D01*
X140331444Y-83914601D01*
X140323832Y-83952869D01*
X140302155Y-83985312D01*
X140269712Y-84006989D01*
X140231444Y-84014601D01*
X138956444Y-84014601D01*
X138918176Y-84006989D01*
X138885733Y-83985312D01*
X138864056Y-83952869D01*
X138856444Y-83914601D01*
X138856444Y-83714601D01*
X138864056Y-83676333D01*
X138885733Y-83643890D01*
X138918176Y-83622213D01*
X138956444Y-83614601D01*
X140231444Y-83614601D01*
X140269712Y-83622213D01*
G37*
G36*
X145994712Y-83622213D02*
G01*
X146027155Y-83643890D01*
X146048832Y-83676333D01*
X146056444Y-83714601D01*
X146056444Y-83914601D01*
X146048832Y-83952869D01*
X146027155Y-83985312D01*
X145994712Y-84006989D01*
X145956444Y-84014601D01*
X144681444Y-84014601D01*
X144643176Y-84006989D01*
X144610733Y-83985312D01*
X144589056Y-83952869D01*
X144581444Y-83914601D01*
X144581444Y-83714601D01*
X144589056Y-83676333D01*
X144610733Y-83643890D01*
X144643176Y-83622213D01*
X144681444Y-83614601D01*
X145956444Y-83614601D01*
X145994712Y-83622213D01*
G37*
G36*
X140269712Y-82972213D02*
G01*
X140302155Y-82993890D01*
X140323832Y-83026333D01*
X140331444Y-83064601D01*
X140331444Y-83264601D01*
X140323832Y-83302869D01*
X140302155Y-83335312D01*
X140269712Y-83356989D01*
X140231444Y-83364601D01*
X138956444Y-83364601D01*
X138918176Y-83356989D01*
X138885733Y-83335312D01*
X138864056Y-83302869D01*
X138856444Y-83264601D01*
X138856444Y-83064601D01*
X138864056Y-83026333D01*
X138885733Y-82993890D01*
X138918176Y-82972213D01*
X138956444Y-82964601D01*
X140231444Y-82964601D01*
X140269712Y-82972213D01*
G37*
G36*
X145994712Y-82972213D02*
G01*
X146027155Y-82993890D01*
X146048832Y-83026333D01*
X146056444Y-83064601D01*
X146056444Y-83264601D01*
X146048832Y-83302869D01*
X146027155Y-83335312D01*
X145994712Y-83356989D01*
X145956444Y-83364601D01*
X144681444Y-83364601D01*
X144643176Y-83356989D01*
X144610733Y-83335312D01*
X144589056Y-83302869D01*
X144581444Y-83264601D01*
X144581444Y-83064601D01*
X144589056Y-83026333D01*
X144610733Y-82993890D01*
X144643176Y-82972213D01*
X144681444Y-82964601D01*
X145956444Y-82964601D01*
X145994712Y-82972213D01*
G37*
G36*
X140269712Y-82322213D02*
G01*
X140302155Y-82343890D01*
X140323832Y-82376333D01*
X140331444Y-82414601D01*
X140331444Y-82614601D01*
X140323832Y-82652869D01*
X140302155Y-82685312D01*
X140269712Y-82706989D01*
X140231444Y-82714601D01*
X138956444Y-82714601D01*
X138918176Y-82706989D01*
X138885733Y-82685312D01*
X138864056Y-82652869D01*
X138856444Y-82614601D01*
X138856444Y-82414601D01*
X138864056Y-82376333D01*
X138885733Y-82343890D01*
X138918176Y-82322213D01*
X138956444Y-82314601D01*
X140231444Y-82314601D01*
X140269712Y-82322213D01*
G37*
G36*
X145994712Y-82322213D02*
G01*
X146027155Y-82343890D01*
X146048832Y-82376333D01*
X146056444Y-82414601D01*
X146056444Y-82614601D01*
X146048832Y-82652869D01*
X146027155Y-82685312D01*
X145994712Y-82706989D01*
X145956444Y-82714601D01*
X144681444Y-82714601D01*
X144643176Y-82706989D01*
X144610733Y-82685312D01*
X144589056Y-82652869D01*
X144581444Y-82614601D01*
X144581444Y-82414601D01*
X144589056Y-82376333D01*
X144610733Y-82343890D01*
X144643176Y-82322213D01*
X144681444Y-82314601D01*
X145956444Y-82314601D01*
X145994712Y-82322213D01*
G37*
G36*
X162083104Y-81597129D02*
G01*
X162156099Y-81645903D01*
X162204873Y-81718898D01*
X162222000Y-81805002D01*
X162222000Y-82305002D01*
X162204873Y-82391106D01*
X162156099Y-82464101D01*
X162083104Y-82512875D01*
X161997000Y-82530002D01*
X161547000Y-82530002D01*
X161460896Y-82512875D01*
X161387901Y-82464101D01*
X161339127Y-82391106D01*
X161322000Y-82305002D01*
X161322000Y-81805002D01*
X161339127Y-81718898D01*
X161387901Y-81645903D01*
X161460896Y-81597129D01*
X161547000Y-81580002D01*
X161997000Y-81580002D01*
X162083104Y-81597129D01*
G37*
G36*
X163633104Y-81597129D02*
G01*
X163706099Y-81645903D01*
X163754873Y-81718898D01*
X163772000Y-81805002D01*
X163772000Y-82305002D01*
X163754873Y-82391106D01*
X163706099Y-82464101D01*
X163633104Y-82512875D01*
X163547000Y-82530002D01*
X163097000Y-82530002D01*
X163010896Y-82512875D01*
X162937901Y-82464101D01*
X162889127Y-82391106D01*
X162872000Y-82305002D01*
X162872000Y-81805002D01*
X162889127Y-81718898D01*
X162937901Y-81645903D01*
X163010896Y-81597129D01*
X163097000Y-81580002D01*
X163547000Y-81580002D01*
X163633104Y-81597129D01*
G37*
G36*
X149942104Y-81622129D02*
G01*
X150015099Y-81670903D01*
X150063873Y-81743898D01*
X150081000Y-81830002D01*
X150081000Y-82280002D01*
X150063873Y-82366106D01*
X150015099Y-82439101D01*
X149942104Y-82487875D01*
X149856000Y-82505002D01*
X149356000Y-82505002D01*
X149269896Y-82487875D01*
X149196901Y-82439101D01*
X149148127Y-82366106D01*
X149131000Y-82280002D01*
X149131000Y-81830002D01*
X149148127Y-81743898D01*
X149196901Y-81670903D01*
X149269896Y-81622129D01*
X149356000Y-81605002D01*
X149856000Y-81605002D01*
X149942104Y-81622129D01*
G37*
G36*
X151466104Y-81622129D02*
G01*
X151539099Y-81670903D01*
X151587873Y-81743898D01*
X151605000Y-81830002D01*
X151605000Y-82280002D01*
X151587873Y-82366106D01*
X151539099Y-82439101D01*
X151466104Y-82487875D01*
X151380000Y-82505002D01*
X150880000Y-82505002D01*
X150793896Y-82487875D01*
X150720901Y-82439101D01*
X150672127Y-82366106D01*
X150655000Y-82280002D01*
X150655000Y-81830002D01*
X150672127Y-81743898D01*
X150720901Y-81670903D01*
X150793896Y-81622129D01*
X150880000Y-81605002D01*
X151380000Y-81605002D01*
X151466104Y-81622129D01*
G37*
G36*
X152990104Y-81622129D02*
G01*
X153063099Y-81670903D01*
X153111873Y-81743898D01*
X153129000Y-81830002D01*
X153129000Y-82280002D01*
X153111873Y-82366106D01*
X153063099Y-82439101D01*
X152990104Y-82487875D01*
X152904000Y-82505002D01*
X152404000Y-82505002D01*
X152317896Y-82487875D01*
X152244901Y-82439101D01*
X152196127Y-82366106D01*
X152179000Y-82280002D01*
X152179000Y-81830002D01*
X152196127Y-81743898D01*
X152244901Y-81670903D01*
X152317896Y-81622129D01*
X152404000Y-81605002D01*
X152904000Y-81605002D01*
X152990104Y-81622129D01*
G37*
G36*
X154514104Y-81622129D02*
G01*
X154587099Y-81670903D01*
X154635873Y-81743898D01*
X154653000Y-81830002D01*
X154653000Y-82280002D01*
X154635873Y-82366106D01*
X154587099Y-82439101D01*
X154514104Y-82487875D01*
X154428000Y-82505002D01*
X153928000Y-82505002D01*
X153841896Y-82487875D01*
X153768901Y-82439101D01*
X153720127Y-82366106D01*
X153703000Y-82280002D01*
X153703000Y-81830002D01*
X153720127Y-81743898D01*
X153768901Y-81670903D01*
X153841896Y-81622129D01*
X153928000Y-81605002D01*
X154428000Y-81605002D01*
X154514104Y-81622129D01*
G37*
G36*
X156038104Y-81622129D02*
G01*
X156111099Y-81670903D01*
X156159873Y-81743898D01*
X156177000Y-81830002D01*
X156177000Y-82280002D01*
X156159873Y-82366106D01*
X156111099Y-82439101D01*
X156038104Y-82487875D01*
X155952000Y-82505002D01*
X155452000Y-82505002D01*
X155365896Y-82487875D01*
X155292901Y-82439101D01*
X155244127Y-82366106D01*
X155227000Y-82280002D01*
X155227000Y-81830002D01*
X155244127Y-81743898D01*
X155292901Y-81670903D01*
X155365896Y-81622129D01*
X155452000Y-81605002D01*
X155952000Y-81605002D01*
X156038104Y-81622129D01*
G37*
G36*
X157562104Y-81622129D02*
G01*
X157635099Y-81670903D01*
X157683873Y-81743898D01*
X157701000Y-81830002D01*
X157701000Y-82280002D01*
X157683873Y-82366106D01*
X157635099Y-82439101D01*
X157562104Y-82487875D01*
X157476000Y-82505002D01*
X156976000Y-82505002D01*
X156889896Y-82487875D01*
X156816901Y-82439101D01*
X156768127Y-82366106D01*
X156751000Y-82280002D01*
X156751000Y-81830002D01*
X156768127Y-81743898D01*
X156816901Y-81670903D01*
X156889896Y-81622129D01*
X156976000Y-81605002D01*
X157476000Y-81605002D01*
X157562104Y-81622129D01*
G37*
G36*
X159079104Y-81622129D02*
G01*
X159152099Y-81670903D01*
X159200873Y-81743898D01*
X159218000Y-81830002D01*
X159218000Y-82280002D01*
X159200873Y-82366106D01*
X159152099Y-82439101D01*
X159079104Y-82487875D01*
X158993000Y-82505002D01*
X158493000Y-82505002D01*
X158406896Y-82487875D01*
X158333901Y-82439101D01*
X158285127Y-82366106D01*
X158268000Y-82280002D01*
X158268000Y-81830002D01*
X158285127Y-81743898D01*
X158333901Y-81670903D01*
X158406896Y-81622129D01*
X158493000Y-81605002D01*
X158993000Y-81605002D01*
X159079104Y-81622129D01*
G37*
G36*
X160603104Y-81622129D02*
G01*
X160676099Y-81670903D01*
X160724873Y-81743898D01*
X160742000Y-81830002D01*
X160742000Y-82280002D01*
X160724873Y-82366106D01*
X160676099Y-82439101D01*
X160603104Y-82487875D01*
X160517000Y-82505002D01*
X160017000Y-82505002D01*
X159930896Y-82487875D01*
X159857901Y-82439101D01*
X159809127Y-82366106D01*
X159792000Y-82280002D01*
X159792000Y-81830002D01*
X159809127Y-81743898D01*
X159857901Y-81670903D01*
X159930896Y-81622129D01*
X160017000Y-81605002D01*
X160517000Y-81605002D01*
X160603104Y-81622129D01*
G37*
G36*
X140269712Y-81672213D02*
G01*
X140302155Y-81693890D01*
X140323832Y-81726333D01*
X140331444Y-81764601D01*
X140331444Y-81964601D01*
X140323832Y-82002869D01*
X140302155Y-82035312D01*
X140269712Y-82056989D01*
X140231444Y-82064601D01*
X138956444Y-82064601D01*
X138918176Y-82056989D01*
X138885733Y-82035312D01*
X138864056Y-82002869D01*
X138856444Y-81964601D01*
X138856444Y-81764601D01*
X138864056Y-81726333D01*
X138885733Y-81693890D01*
X138918176Y-81672213D01*
X138956444Y-81664601D01*
X140231444Y-81664601D01*
X140269712Y-81672213D01*
G37*
G36*
X145994712Y-81672213D02*
G01*
X146027155Y-81693890D01*
X146048832Y-81726333D01*
X146056444Y-81764601D01*
X146056444Y-81964601D01*
X146048832Y-82002869D01*
X146027155Y-82035312D01*
X145994712Y-82056989D01*
X145956444Y-82064601D01*
X144681444Y-82064601D01*
X144643176Y-82056989D01*
X144610733Y-82035312D01*
X144589056Y-82002869D01*
X144581444Y-81964601D01*
X144581444Y-81764601D01*
X144589056Y-81726333D01*
X144610733Y-81693890D01*
X144643176Y-81672213D01*
X144681444Y-81664601D01*
X145956444Y-81664601D01*
X145994712Y-81672213D01*
G37*
G36*
X140269712Y-81022213D02*
G01*
X140302155Y-81043890D01*
X140323832Y-81076333D01*
X140331444Y-81114601D01*
X140331444Y-81314601D01*
X140323832Y-81352869D01*
X140302155Y-81385312D01*
X140269712Y-81406989D01*
X140231444Y-81414601D01*
X138956444Y-81414601D01*
X138918176Y-81406989D01*
X138885733Y-81385312D01*
X138864056Y-81352869D01*
X138856444Y-81314601D01*
X138856444Y-81114601D01*
X138864056Y-81076333D01*
X138885733Y-81043890D01*
X138918176Y-81022213D01*
X138956444Y-81014601D01*
X140231444Y-81014601D01*
X140269712Y-81022213D01*
G37*
G36*
X145994712Y-81022213D02*
G01*
X146027155Y-81043890D01*
X146048832Y-81076333D01*
X146056444Y-81114601D01*
X146056444Y-81314601D01*
X146048832Y-81352869D01*
X146027155Y-81385312D01*
X145994712Y-81406989D01*
X145956444Y-81414601D01*
X144681444Y-81414601D01*
X144643176Y-81406989D01*
X144610733Y-81385312D01*
X144589056Y-81352869D01*
X144581444Y-81314601D01*
X144581444Y-81114601D01*
X144589056Y-81076333D01*
X144610733Y-81043890D01*
X144643176Y-81022213D01*
X144681444Y-81014601D01*
X145956444Y-81014601D01*
X145994712Y-81022213D01*
G37*
G36*
X149942104Y-80072129D02*
G01*
X150015099Y-80120903D01*
X150063873Y-80193898D01*
X150081000Y-80280002D01*
X150081000Y-80730002D01*
X150063873Y-80816106D01*
X150015099Y-80889101D01*
X149942104Y-80937875D01*
X149856000Y-80955002D01*
X149356000Y-80955002D01*
X149269896Y-80937875D01*
X149196901Y-80889101D01*
X149148127Y-80816106D01*
X149131000Y-80730002D01*
X149131000Y-80280002D01*
X149148127Y-80193898D01*
X149196901Y-80120903D01*
X149269896Y-80072129D01*
X149356000Y-80055002D01*
X149856000Y-80055002D01*
X149942104Y-80072129D01*
G37*
G36*
X151466104Y-80072129D02*
G01*
X151539099Y-80120903D01*
X151587873Y-80193898D01*
X151605000Y-80280002D01*
X151605000Y-80730002D01*
X151587873Y-80816106D01*
X151539099Y-80889101D01*
X151466104Y-80937875D01*
X151380000Y-80955002D01*
X150880000Y-80955002D01*
X150793896Y-80937875D01*
X150720901Y-80889101D01*
X150672127Y-80816106D01*
X150655000Y-80730002D01*
X150655000Y-80280002D01*
X150672127Y-80193898D01*
X150720901Y-80120903D01*
X150793896Y-80072129D01*
X150880000Y-80055002D01*
X151380000Y-80055002D01*
X151466104Y-80072129D01*
G37*
G36*
X152990104Y-80072129D02*
G01*
X153063099Y-80120903D01*
X153111873Y-80193898D01*
X153129000Y-80280002D01*
X153129000Y-80730002D01*
X153111873Y-80816106D01*
X153063099Y-80889101D01*
X152990104Y-80937875D01*
X152904000Y-80955002D01*
X152404000Y-80955002D01*
X152317896Y-80937875D01*
X152244901Y-80889101D01*
X152196127Y-80816106D01*
X152179000Y-80730002D01*
X152179000Y-80280002D01*
X152196127Y-80193898D01*
X152244901Y-80120903D01*
X152317896Y-80072129D01*
X152404000Y-80055002D01*
X152904000Y-80055002D01*
X152990104Y-80072129D01*
G37*
G36*
X154514104Y-80072129D02*
G01*
X154587099Y-80120903D01*
X154635873Y-80193898D01*
X154653000Y-80280002D01*
X154653000Y-80730002D01*
X154635873Y-80816106D01*
X154587099Y-80889101D01*
X154514104Y-80937875D01*
X154428000Y-80955002D01*
X153928000Y-80955002D01*
X153841896Y-80937875D01*
X153768901Y-80889101D01*
X153720127Y-80816106D01*
X153703000Y-80730002D01*
X153703000Y-80280002D01*
X153720127Y-80193898D01*
X153768901Y-80120903D01*
X153841896Y-80072129D01*
X153928000Y-80055002D01*
X154428000Y-80055002D01*
X154514104Y-80072129D01*
G37*
G36*
X156038104Y-80072129D02*
G01*
X156111099Y-80120903D01*
X156159873Y-80193898D01*
X156177000Y-80280002D01*
X156177000Y-80730002D01*
X156159873Y-80816106D01*
X156111099Y-80889101D01*
X156038104Y-80937875D01*
X155952000Y-80955002D01*
X155452000Y-80955002D01*
X155365896Y-80937875D01*
X155292901Y-80889101D01*
X155244127Y-80816106D01*
X155227000Y-80730002D01*
X155227000Y-80280002D01*
X155244127Y-80193898D01*
X155292901Y-80120903D01*
X155365896Y-80072129D01*
X155452000Y-80055002D01*
X155952000Y-80055002D01*
X156038104Y-80072129D01*
G37*
G36*
X157562104Y-80072129D02*
G01*
X157635099Y-80120903D01*
X157683873Y-80193898D01*
X157701000Y-80280002D01*
X157701000Y-80730002D01*
X157683873Y-80816106D01*
X157635099Y-80889101D01*
X157562104Y-80937875D01*
X157476000Y-80955002D01*
X156976000Y-80955002D01*
X156889896Y-80937875D01*
X156816901Y-80889101D01*
X156768127Y-80816106D01*
X156751000Y-80730002D01*
X156751000Y-80280002D01*
X156768127Y-80193898D01*
X156816901Y-80120903D01*
X156889896Y-80072129D01*
X156976000Y-80055002D01*
X157476000Y-80055002D01*
X157562104Y-80072129D01*
G37*
G36*
X159079104Y-80072129D02*
G01*
X159152099Y-80120903D01*
X159200873Y-80193898D01*
X159218000Y-80280002D01*
X159218000Y-80730002D01*
X159200873Y-80816106D01*
X159152099Y-80889101D01*
X159079104Y-80937875D01*
X158993000Y-80955002D01*
X158493000Y-80955002D01*
X158406896Y-80937875D01*
X158333901Y-80889101D01*
X158285127Y-80816106D01*
X158268000Y-80730002D01*
X158268000Y-80280002D01*
X158285127Y-80193898D01*
X158333901Y-80120903D01*
X158406896Y-80072129D01*
X158493000Y-80055002D01*
X158993000Y-80055002D01*
X159079104Y-80072129D01*
G37*
G36*
X160603104Y-80072129D02*
G01*
X160676099Y-80120903D01*
X160724873Y-80193898D01*
X160742000Y-80280002D01*
X160742000Y-80730002D01*
X160724873Y-80816106D01*
X160676099Y-80889101D01*
X160603104Y-80937875D01*
X160517000Y-80955002D01*
X160017000Y-80955002D01*
X159930896Y-80937875D01*
X159857901Y-80889101D01*
X159809127Y-80816106D01*
X159792000Y-80730002D01*
X159792000Y-80280002D01*
X159809127Y-80193898D01*
X159857901Y-80120903D01*
X159930896Y-80072129D01*
X160017000Y-80055002D01*
X160517000Y-80055002D01*
X160603104Y-80072129D01*
G37*
G36*
X140269712Y-80372213D02*
G01*
X140302155Y-80393890D01*
X140323832Y-80426333D01*
X140331444Y-80464601D01*
X140331444Y-80664601D01*
X140323832Y-80702869D01*
X140302155Y-80735312D01*
X140269712Y-80756989D01*
X140231444Y-80764601D01*
X138956444Y-80764601D01*
X138918176Y-80756989D01*
X138885733Y-80735312D01*
X138864056Y-80702869D01*
X138856444Y-80664601D01*
X138856444Y-80464601D01*
X138864056Y-80426333D01*
X138885733Y-80393890D01*
X138918176Y-80372213D01*
X138956444Y-80364601D01*
X140231444Y-80364601D01*
X140269712Y-80372213D01*
G37*
G36*
X145994712Y-80372213D02*
G01*
X146027155Y-80393890D01*
X146048832Y-80426333D01*
X146056444Y-80464601D01*
X146056444Y-80664601D01*
X146048832Y-80702869D01*
X146027155Y-80735312D01*
X145994712Y-80756989D01*
X145956444Y-80764601D01*
X144681444Y-80764601D01*
X144643176Y-80756989D01*
X144610733Y-80735312D01*
X144589056Y-80702869D01*
X144581444Y-80664601D01*
X144581444Y-80464601D01*
X144589056Y-80426333D01*
X144610733Y-80393890D01*
X144643176Y-80372213D01*
X144681444Y-80364601D01*
X145956444Y-80364601D01*
X145994712Y-80372213D01*
G37*
G36*
X140269712Y-79722213D02*
G01*
X140302155Y-79743890D01*
X140323832Y-79776333D01*
X140331444Y-79814601D01*
X140331444Y-80014601D01*
X140323832Y-80052869D01*
X140302155Y-80085312D01*
X140269712Y-80106989D01*
X140231444Y-80114601D01*
X138956444Y-80114601D01*
X138918176Y-80106989D01*
X138885733Y-80085312D01*
X138864056Y-80052869D01*
X138856444Y-80014601D01*
X138856444Y-79814601D01*
X138864056Y-79776333D01*
X138885733Y-79743890D01*
X138918176Y-79722213D01*
X138956444Y-79714601D01*
X140231444Y-79714601D01*
X140269712Y-79722213D01*
G37*
G36*
X145994712Y-79722213D02*
G01*
X146027155Y-79743890D01*
X146048832Y-79776333D01*
X146056444Y-79814601D01*
X146056444Y-80014601D01*
X146048832Y-80052869D01*
X146027155Y-80085312D01*
X145994712Y-80106989D01*
X145956444Y-80114601D01*
X144681444Y-80114601D01*
X144643176Y-80106989D01*
X144610733Y-80085312D01*
X144589056Y-80052869D01*
X144581444Y-80014601D01*
X144581444Y-79814601D01*
X144589056Y-79776333D01*
X144610733Y-79743890D01*
X144643176Y-79722213D01*
X144681444Y-79714601D01*
X145956444Y-79714601D01*
X145994712Y-79722213D01*
G37*
G36*
X140269712Y-79072213D02*
G01*
X140302155Y-79093890D01*
X140323832Y-79126333D01*
X140331444Y-79164601D01*
X140331444Y-79364601D01*
X140323832Y-79402869D01*
X140302155Y-79435312D01*
X140269712Y-79456989D01*
X140231444Y-79464601D01*
X138956444Y-79464601D01*
X138918176Y-79456989D01*
X138885733Y-79435312D01*
X138864056Y-79402869D01*
X138856444Y-79364601D01*
X138856444Y-79164601D01*
X138864056Y-79126333D01*
X138885733Y-79093890D01*
X138918176Y-79072213D01*
X138956444Y-79064601D01*
X140231444Y-79064601D01*
X140269712Y-79072213D01*
G37*
G36*
X145994712Y-79072213D02*
G01*
X146027155Y-79093890D01*
X146048832Y-79126333D01*
X146056444Y-79164601D01*
X146056444Y-79364601D01*
X146048832Y-79402869D01*
X146027155Y-79435312D01*
X145994712Y-79456989D01*
X145956444Y-79464601D01*
X144681444Y-79464601D01*
X144643176Y-79456989D01*
X144610733Y-79435312D01*
X144589056Y-79402869D01*
X144581444Y-79364601D01*
X144581444Y-79164601D01*
X144589056Y-79126333D01*
X144610733Y-79093890D01*
X144643176Y-79072213D01*
X144681444Y-79064601D01*
X145956444Y-79064601D01*
X145994712Y-79072213D01*
G37*
G36*
X129770672Y-74886508D02*
G01*
X130010735Y-74950833D01*
X130240349Y-75045942D01*
X130455583Y-75170208D01*
X130652757Y-75321504D01*
X130828496Y-75497243D01*
X130979792Y-75694417D01*
X131104058Y-75909651D01*
X131199167Y-76139265D01*
X131263492Y-76379328D01*
X131295932Y-76625734D01*
X131295932Y-76874266D01*
X131263492Y-77120672D01*
X131199167Y-77360735D01*
X131104058Y-77590349D01*
X130979792Y-77805583D01*
X130828496Y-78002757D01*
X130652757Y-78178496D01*
X130455583Y-78329792D01*
X130240349Y-78454058D01*
X130010735Y-78549167D01*
X129770672Y-78613492D01*
X129524266Y-78645932D01*
X129275734Y-78645932D01*
X129029328Y-78613492D01*
X128789265Y-78549167D01*
X128559651Y-78454058D01*
X128344417Y-78329792D01*
X128147243Y-78178496D01*
X127971504Y-78002757D01*
X127820208Y-77805583D01*
X127695942Y-77590349D01*
X127600833Y-77360735D01*
X127536508Y-77120672D01*
X127504068Y-76874266D01*
X127504068Y-76625734D01*
X127536508Y-76379328D01*
X127600833Y-76139265D01*
X127695942Y-75909651D01*
X127820208Y-75694417D01*
X127971504Y-75497243D01*
X128147243Y-75321504D01*
X128344417Y-75170208D01*
X128559651Y-75045942D01*
X128789265Y-74950833D01*
X129029328Y-74886508D01*
X129275734Y-74854068D01*
X129524266Y-74854068D01*
X129770672Y-74886508D01*
G37*
G36*
X163270672Y-74886508D02*
G01*
X163510735Y-74950833D01*
X163740349Y-75045942D01*
X163955583Y-75170208D01*
X164152757Y-75321504D01*
X164328496Y-75497243D01*
X164479792Y-75694417D01*
X164604058Y-75909651D01*
X164699167Y-76139265D01*
X164763492Y-76379328D01*
X164795932Y-76625734D01*
X164795932Y-76874266D01*
X164763492Y-77120672D01*
X164699167Y-77360735D01*
X164604058Y-77590349D01*
X164479792Y-77805583D01*
X164328496Y-78002757D01*
X164152757Y-78178496D01*
X163955583Y-78329792D01*
X163740349Y-78454058D01*
X163510735Y-78549167D01*
X163270672Y-78613492D01*
X163024266Y-78645932D01*
X162775734Y-78645932D01*
X162529328Y-78613492D01*
X162289265Y-78549167D01*
X162059651Y-78454058D01*
X161844417Y-78329792D01*
X161647243Y-78178496D01*
X161471504Y-78002757D01*
X161320208Y-77805583D01*
X161195942Y-77590349D01*
X161100833Y-77360735D01*
X161036508Y-77120672D01*
X161004068Y-76874266D01*
X161004068Y-76625734D01*
X161036508Y-76379328D01*
X161100833Y-76139265D01*
X161195942Y-75909651D01*
X161320208Y-75694417D01*
X161471504Y-75497243D01*
X161647243Y-75321504D01*
X161844417Y-75170208D01*
X162059651Y-75045942D01*
X162289265Y-74950833D01*
X162529328Y-74886508D01*
X162775734Y-74854068D01*
X163024266Y-74854068D01*
X163270672Y-74886508D01*
G37*
G36*
X143409520Y-77938258D02*
G01*
X143454939Y-77968606D01*
X143485287Y-78014025D01*
X143495944Y-78067601D01*
X143495944Y-78407601D01*
X143485287Y-78461177D01*
X143454939Y-78506596D01*
X143409520Y-78536944D01*
X143355944Y-78547601D01*
X143075944Y-78547601D01*
X143022368Y-78536944D01*
X142976949Y-78506596D01*
X142946601Y-78461177D01*
X142935944Y-78407601D01*
X142935944Y-78067601D01*
X142946601Y-78014025D01*
X142976949Y-77968606D01*
X143022368Y-77938258D01*
X143075944Y-77927601D01*
X143355944Y-77927601D01*
X143409520Y-77938258D01*
G37*
G36*
X144369520Y-77938258D02*
G01*
X144414939Y-77968606D01*
X144445287Y-78014025D01*
X144455944Y-78067601D01*
X144455944Y-78407601D01*
X144445287Y-78461177D01*
X144414939Y-78506596D01*
X144369520Y-78536944D01*
X144315944Y-78547601D01*
X144035944Y-78547601D01*
X143982368Y-78536944D01*
X143936949Y-78506596D01*
X143906601Y-78461177D01*
X143895944Y-78407601D01*
X143895944Y-78067601D01*
X143906601Y-78014025D01*
X143936949Y-77968606D01*
X143982368Y-77938258D01*
X144035944Y-77927601D01*
X144315944Y-77927601D01*
X144369520Y-77938258D01*
G37*
G36*
X143483034Y-74914264D02*
G01*
X143516125Y-74936375D01*
X143538236Y-74969466D01*
X143546000Y-75008500D01*
X143546000Y-76516500D01*
X143538236Y-76555534D01*
X143516125Y-76588625D01*
X143483034Y-76610736D01*
X143444000Y-76618500D01*
X141936000Y-76618500D01*
X141896966Y-76610736D01*
X141863875Y-76588625D01*
X141841764Y-76555534D01*
X141834000Y-76516500D01*
X141834000Y-75008500D01*
X141841764Y-74969466D01*
X141863875Y-74936375D01*
X141896966Y-74914264D01*
X141936000Y-74906500D01*
X143444000Y-74906500D01*
X143483034Y-74914264D01*
G37*
G36*
X145478484Y-74943359D02*
G01*
X145633516Y-75007575D01*
X145773041Y-75100803D01*
X145891697Y-75219459D01*
X145984925Y-75358984D01*
X146049141Y-75514016D01*
X146081878Y-75678597D01*
X146081878Y-75846403D01*
X146049141Y-76010984D01*
X145984925Y-76166016D01*
X145891697Y-76305541D01*
X145773041Y-76424197D01*
X145633516Y-76517425D01*
X145478484Y-76581641D01*
X145313903Y-76614378D01*
X145146097Y-76614378D01*
X144981516Y-76581641D01*
X144826484Y-76517425D01*
X144686959Y-76424197D01*
X144568303Y-76305541D01*
X144475075Y-76166016D01*
X144410859Y-76010984D01*
X144378122Y-75846403D01*
X144378122Y-75678597D01*
X144410859Y-75514016D01*
X144475075Y-75358984D01*
X144568303Y-75219459D01*
X144686959Y-75100803D01*
X144826484Y-75007575D01*
X144981516Y-74943359D01*
X145146097Y-74910622D01*
X145313903Y-74910622D01*
X145478484Y-74943359D01*
G37*
G36*
X148018484Y-74943359D02*
G01*
X148173516Y-75007575D01*
X148313041Y-75100803D01*
X148431697Y-75219459D01*
X148524925Y-75358984D01*
X148589141Y-75514016D01*
X148621878Y-75678597D01*
X148621878Y-75846403D01*
X148589141Y-76010984D01*
X148524925Y-76166016D01*
X148431697Y-76305541D01*
X148313041Y-76424197D01*
X148173516Y-76517425D01*
X148018484Y-76581641D01*
X147853903Y-76614378D01*
X147686097Y-76614378D01*
X147521516Y-76581641D01*
X147366484Y-76517425D01*
X147226959Y-76424197D01*
X147108303Y-76305541D01*
X147015075Y-76166016D01*
X146950859Y-76010984D01*
X146918122Y-75846403D01*
X146918122Y-75678597D01*
X146950859Y-75514016D01*
X147015075Y-75358984D01*
X147108303Y-75219459D01*
X147226959Y-75100803D01*
X147366484Y-75007575D01*
X147521516Y-74943359D01*
X147686097Y-74910622D01*
X147853903Y-74910622D01*
X148018484Y-74943359D01*
G37*
G36*
X150558484Y-74943359D02*
G01*
X150713516Y-75007575D01*
X150853041Y-75100803D01*
X150971697Y-75219459D01*
X151064925Y-75358984D01*
X151129141Y-75514016D01*
X151161878Y-75678597D01*
X151161878Y-75846403D01*
X151129141Y-76010984D01*
X151064925Y-76166016D01*
X150971697Y-76305541D01*
X150853041Y-76424197D01*
X150713516Y-76517425D01*
X150558484Y-76581641D01*
X150393903Y-76614378D01*
X150226097Y-76614378D01*
X150061516Y-76581641D01*
X149906484Y-76517425D01*
X149766959Y-76424197D01*
X149648303Y-76305541D01*
X149555075Y-76166016D01*
X149490859Y-76010984D01*
X149458122Y-75846403D01*
X149458122Y-75678597D01*
X149490859Y-75514016D01*
X149555075Y-75358984D01*
X149648303Y-75219459D01*
X149766959Y-75100803D01*
X149906484Y-75007575D01*
X150061516Y-74943359D01*
X150226097Y-74910622D01*
X150393903Y-74910622D01*
X150558484Y-74943359D01*
G37*
M02*
