%TF.GenerationSoftware,KiCad,Pcbnew,9.0.7*%
%TF.CreationDate,2026-04-27T12:14:21-07:00*%
%TF.ProjectId,Primary_Board,5072696d-6172-4795-9f42-6f6172642e6b,rev?*%
%TF.SameCoordinates,Original*%
%TF.FileFunction,Soldermask,Bot*%
%TF.FilePolarity,Negative*%
%FSLAX46Y46*%
G04 Gerber Fmt 4.6, Leading zero omitted, Abs format (unit mm)*
G04 Created by KiCad (PCBNEW 9.0.7) date 2026-04-27 12:14:21*
%MOMM*%
%LPD*%
G01*
G04 APERTURE LIST*
G04 APERTURE END LIST*
G36*
X145446742Y-127308601D02*
G01*
X145600687Y-127372367D01*
X145739234Y-127464941D01*
X145857059Y-127582766D01*
X145949633Y-127721313D01*
X146013399Y-127875258D01*
X146045907Y-128038685D01*
X146045907Y-128205315D01*
X146013399Y-128368742D01*
X145949633Y-128522687D01*
X145857059Y-128661234D01*
X145739234Y-128779059D01*
X145600687Y-128871633D01*
X145446742Y-128935399D01*
X145283315Y-128967907D01*
X145116685Y-128967907D01*
X144953258Y-128935399D01*
X144799313Y-128871633D01*
X144660766Y-128779059D01*
X144542941Y-128661234D01*
X144450367Y-128522687D01*
X144386601Y-128368742D01*
X144354093Y-128205315D01*
X144354093Y-128038685D01*
X144386601Y-127875258D01*
X144450367Y-127721313D01*
X144542941Y-127582766D01*
X144660766Y-127464941D01*
X144799313Y-127372367D01*
X144953258Y-127308601D01*
X145116685Y-127276093D01*
X145283315Y-127276093D01*
X145446742Y-127308601D01*
G37*
G36*
X147986742Y-127308601D02*
G01*
X148140687Y-127372367D01*
X148279234Y-127464941D01*
X148397059Y-127582766D01*
X148489633Y-127721313D01*
X148553399Y-127875258D01*
X148585907Y-128038685D01*
X148585907Y-128205315D01*
X148553399Y-128368742D01*
X148489633Y-128522687D01*
X148397059Y-128661234D01*
X148279234Y-128779059D01*
X148140687Y-128871633D01*
X147986742Y-128935399D01*
X147823315Y-128967907D01*
X147656685Y-128967907D01*
X147493258Y-128935399D01*
X147339313Y-128871633D01*
X147200766Y-128779059D01*
X147082941Y-128661234D01*
X146990367Y-128522687D01*
X146926601Y-128368742D01*
X146894093Y-128205315D01*
X146894093Y-128038685D01*
X146926601Y-127875258D01*
X146990367Y-127721313D01*
X147082941Y-127582766D01*
X147200766Y-127464941D01*
X147339313Y-127372367D01*
X147493258Y-127308601D01*
X147656685Y-127276093D01*
X147823315Y-127276093D01*
X147986742Y-127308601D01*
G37*
G36*
X129770672Y-125186508D02*
G01*
X130010735Y-125250833D01*
X130240349Y-125345942D01*
X130455583Y-125470208D01*
X130652757Y-125621504D01*
X130828496Y-125797243D01*
X130979792Y-125994417D01*
X131104058Y-126209651D01*
X131199167Y-126439265D01*
X131263492Y-126679328D01*
X131295932Y-126925734D01*
X131295932Y-127174266D01*
X131263492Y-127420672D01*
X131199167Y-127660735D01*
X131104058Y-127890349D01*
X130979792Y-128105583D01*
X130828496Y-128302757D01*
X130652757Y-128478496D01*
X130455583Y-128629792D01*
X130240349Y-128754058D01*
X130010735Y-128849167D01*
X129770672Y-128913492D01*
X129524266Y-128945932D01*
X129275734Y-128945932D01*
X129029328Y-128913492D01*
X128789265Y-128849167D01*
X128559651Y-128754058D01*
X128344417Y-128629792D01*
X128147243Y-128478496D01*
X127971504Y-128302757D01*
X127820208Y-128105583D01*
X127695942Y-127890349D01*
X127600833Y-127660735D01*
X127536508Y-127420672D01*
X127504068Y-127174266D01*
X127504068Y-126925734D01*
X127536508Y-126679328D01*
X127600833Y-126439265D01*
X127695942Y-126209651D01*
X127820208Y-125994417D01*
X127971504Y-125797243D01*
X128147243Y-125621504D01*
X128344417Y-125470208D01*
X128559651Y-125345942D01*
X128789265Y-125250833D01*
X129029328Y-125186508D01*
X129275734Y-125154068D01*
X129524266Y-125154068D01*
X129770672Y-125186508D01*
G37*
G36*
X163270672Y-125186508D02*
G01*
X163510735Y-125250833D01*
X163740349Y-125345942D01*
X163955583Y-125470208D01*
X164152757Y-125621504D01*
X164328496Y-125797243D01*
X164479792Y-125994417D01*
X164604058Y-126209651D01*
X164699167Y-126439265D01*
X164763492Y-126679328D01*
X164795932Y-126925734D01*
X164795932Y-127174266D01*
X164763492Y-127420672D01*
X164699167Y-127660735D01*
X164604058Y-127890349D01*
X164479792Y-128105583D01*
X164328496Y-128302757D01*
X164152757Y-128478496D01*
X163955583Y-128629792D01*
X163740349Y-128754058D01*
X163510735Y-128849167D01*
X163270672Y-128913492D01*
X163024266Y-128945932D01*
X162775734Y-128945932D01*
X162529328Y-128913492D01*
X162289265Y-128849167D01*
X162059651Y-128754058D01*
X161844417Y-128629792D01*
X161647243Y-128478496D01*
X161471504Y-128302757D01*
X161320208Y-128105583D01*
X161195942Y-127890349D01*
X161100833Y-127660735D01*
X161036508Y-127420672D01*
X161004068Y-127174266D01*
X161004068Y-126925734D01*
X161036508Y-126679328D01*
X161100833Y-126439265D01*
X161195942Y-126209651D01*
X161320208Y-125994417D01*
X161471504Y-125797243D01*
X161647243Y-125621504D01*
X161844417Y-125470208D01*
X162059651Y-125345942D01*
X162289265Y-125250833D01*
X162529328Y-125186508D01*
X162775734Y-125154068D01*
X163024266Y-125154068D01*
X163270672Y-125186508D01*
G37*
G36*
X150857100Y-127434900D02*
G01*
X150049100Y-127434900D01*
X150049100Y-126445100D01*
X150857100Y-126445100D01*
X150857100Y-127434900D01*
G37*
G36*
X152350900Y-127434900D02*
G01*
X151542900Y-127434900D01*
X151542900Y-126445100D01*
X152350900Y-126445100D01*
X152350900Y-127434900D01*
G37*
G36*
X145446742Y-124768601D02*
G01*
X145600687Y-124832367D01*
X145739234Y-124924941D01*
X145857059Y-125042766D01*
X145949633Y-125181313D01*
X146013399Y-125335258D01*
X146045907Y-125498685D01*
X146045907Y-125665315D01*
X146013399Y-125828742D01*
X145949633Y-125982687D01*
X145857059Y-126121234D01*
X145739234Y-126239059D01*
X145600687Y-126331633D01*
X145446742Y-126395399D01*
X145283315Y-126427907D01*
X145116685Y-126427907D01*
X144953258Y-126395399D01*
X144799313Y-126331633D01*
X144660766Y-126239059D01*
X144542941Y-126121234D01*
X144450367Y-125982687D01*
X144386601Y-125828742D01*
X144354093Y-125665315D01*
X144354093Y-125498685D01*
X144386601Y-125335258D01*
X144450367Y-125181313D01*
X144542941Y-125042766D01*
X144660766Y-124924941D01*
X144799313Y-124832367D01*
X144953258Y-124768601D01*
X145116685Y-124736093D01*
X145283315Y-124736093D01*
X145446742Y-124768601D01*
G37*
G36*
X147986742Y-124768601D02*
G01*
X148140687Y-124832367D01*
X148279234Y-124924941D01*
X148397059Y-125042766D01*
X148489633Y-125181313D01*
X148553399Y-125335258D01*
X148585907Y-125498685D01*
X148585907Y-125665315D01*
X148553399Y-125828742D01*
X148489633Y-125982687D01*
X148397059Y-126121234D01*
X148279234Y-126239059D01*
X148140687Y-126331633D01*
X147986742Y-126395399D01*
X147823315Y-126427907D01*
X147656685Y-126427907D01*
X147493258Y-126395399D01*
X147339313Y-126331633D01*
X147200766Y-126239059D01*
X147082941Y-126121234D01*
X146990367Y-125982687D01*
X146926601Y-125828742D01*
X146894093Y-125665315D01*
X146894093Y-125498685D01*
X146926601Y-125335258D01*
X146990367Y-125181313D01*
X147082941Y-125042766D01*
X147200766Y-124924941D01*
X147339313Y-124832367D01*
X147493258Y-124768601D01*
X147656685Y-124736093D01*
X147823315Y-124736093D01*
X147986742Y-124768601D01*
G37*
G36*
X150795000Y-125170000D02*
G01*
X149945000Y-125170000D01*
X149945000Y-124210000D01*
X150795000Y-124210000D01*
X150795000Y-125170000D01*
G37*
G36*
X152395000Y-125170000D02*
G01*
X151545000Y-125170000D01*
X151545000Y-124210000D01*
X152395000Y-124210000D01*
X152395000Y-125170000D01*
G37*
G36*
X128670000Y-123930000D02*
G01*
X126970000Y-123930000D01*
X126970000Y-122230000D01*
X128670000Y-122230000D01*
X128670000Y-123930000D01*
G37*
G36*
X145446742Y-122228601D02*
G01*
X145600687Y-122292367D01*
X145739234Y-122384941D01*
X145857059Y-122502766D01*
X145949633Y-122641313D01*
X146013399Y-122795258D01*
X146045907Y-122958685D01*
X146045907Y-123125315D01*
X146013399Y-123288742D01*
X145949633Y-123442687D01*
X145857059Y-123581234D01*
X145739234Y-123699059D01*
X145600687Y-123791633D01*
X145446742Y-123855399D01*
X145283315Y-123887907D01*
X145116685Y-123887907D01*
X144953258Y-123855399D01*
X144799313Y-123791633D01*
X144660766Y-123699059D01*
X144542941Y-123581234D01*
X144450367Y-123442687D01*
X144386601Y-123288742D01*
X144354093Y-123125315D01*
X144354093Y-122958685D01*
X144386601Y-122795258D01*
X144450367Y-122641313D01*
X144542941Y-122502766D01*
X144660766Y-122384941D01*
X144799313Y-122292367D01*
X144953258Y-122228601D01*
X145116685Y-122196093D01*
X145283315Y-122196093D01*
X145446742Y-122228601D01*
G37*
G36*
X147986742Y-122228601D02*
G01*
X148140687Y-122292367D01*
X148279234Y-122384941D01*
X148397059Y-122502766D01*
X148489633Y-122641313D01*
X148553399Y-122795258D01*
X148585907Y-122958685D01*
X148585907Y-123125315D01*
X148553399Y-123288742D01*
X148489633Y-123442687D01*
X148397059Y-123581234D01*
X148279234Y-123699059D01*
X148140687Y-123791633D01*
X147986742Y-123855399D01*
X147823315Y-123887907D01*
X147656685Y-123887907D01*
X147493258Y-123855399D01*
X147339313Y-123791633D01*
X147200766Y-123699059D01*
X147082941Y-123581234D01*
X146990367Y-123442687D01*
X146926601Y-123288742D01*
X146894093Y-123125315D01*
X146894093Y-122958685D01*
X146926601Y-122795258D01*
X146990367Y-122641313D01*
X147082941Y-122502766D01*
X147200766Y-122384941D01*
X147339313Y-122292367D01*
X147493258Y-122228601D01*
X147656685Y-122196093D01*
X147823315Y-122196093D01*
X147986742Y-122228601D01*
G37*
G36*
X158561887Y-122694383D02*
G01*
X157753887Y-122694383D01*
X157753887Y-121704583D01*
X158561887Y-121704583D01*
X158561887Y-122694383D01*
G37*
G36*
X160055687Y-122694383D02*
G01*
X159247687Y-122694383D01*
X159247687Y-121704583D01*
X160055687Y-121704583D01*
X160055687Y-122694383D01*
G37*
G36*
X136278000Y-122670000D02*
G01*
X135278000Y-122670000D01*
X134980105Y-122670000D01*
X134978000Y-122670000D01*
X133978000Y-122670000D01*
X133978000Y-121170000D01*
X134978000Y-121170000D01*
X136272996Y-121170000D01*
X136278000Y-121170000D01*
X136278000Y-122670000D01*
G37*
G36*
X151896507Y-121228294D02*
G01*
X151959937Y-121236644D01*
X151975895Y-121244085D01*
X151995238Y-121247933D01*
X152020859Y-121265052D01*
X152047286Y-121277376D01*
X152063363Y-121293453D01*
X152084454Y-121307546D01*
X152098546Y-121328636D01*
X152114623Y-121344713D01*
X152126944Y-121371136D01*
X152144067Y-121396762D01*
X152147915Y-121416108D01*
X152155353Y-121432059D01*
X152163699Y-121495460D01*
X152165000Y-121502000D01*
X152165000Y-122052000D01*
X152163702Y-122058522D01*
X152155355Y-122121937D01*
X152147915Y-122137891D01*
X152144067Y-122157238D01*
X152126943Y-122182864D01*
X152114623Y-122209286D01*
X152098548Y-122225360D01*
X152084454Y-122246454D01*
X152063360Y-122260548D01*
X152047286Y-122276623D01*
X152020865Y-122288943D01*
X151995238Y-122306067D01*
X151975889Y-122309915D01*
X151959940Y-122317353D01*
X151896541Y-122325698D01*
X151890000Y-122327000D01*
X149940000Y-122327000D01*
X149933479Y-122325702D01*
X149870062Y-122317355D01*
X149854106Y-122309914D01*
X149834762Y-122306067D01*
X149809137Y-122288945D01*
X149782713Y-122276623D01*
X149766636Y-122260546D01*
X149745546Y-122246454D01*
X149731453Y-122225363D01*
X149715376Y-122209286D01*
X149703053Y-122182860D01*
X149685933Y-122157238D01*
X149682085Y-122137893D01*
X149674646Y-122121940D01*
X149666298Y-122058526D01*
X149665000Y-122052000D01*
X149665000Y-121502000D01*
X149666294Y-121495494D01*
X149674644Y-121432062D01*
X149682085Y-121416103D01*
X149685933Y-121396762D01*
X149703051Y-121371142D01*
X149715376Y-121344713D01*
X149731455Y-121328633D01*
X149745546Y-121307546D01*
X149766633Y-121293455D01*
X149782713Y-121277376D01*
X149809141Y-121265052D01*
X149834762Y-121247933D01*
X149854104Y-121244085D01*
X149870059Y-121236646D01*
X149933475Y-121228297D01*
X149940000Y-121227000D01*
X151890000Y-121227000D01*
X151896507Y-121228294D01*
G37*
G36*
X128066742Y-119726601D02*
G01*
X128220687Y-119790367D01*
X128359234Y-119882941D01*
X128477059Y-120000766D01*
X128569633Y-120139313D01*
X128633399Y-120293258D01*
X128665907Y-120456685D01*
X128665907Y-120623315D01*
X128633399Y-120786742D01*
X128569633Y-120940687D01*
X128477059Y-121079234D01*
X128359234Y-121197059D01*
X128220687Y-121289633D01*
X128066742Y-121353399D01*
X127903315Y-121385907D01*
X127736685Y-121385907D01*
X127573258Y-121353399D01*
X127419313Y-121289633D01*
X127280766Y-121197059D01*
X127162941Y-121079234D01*
X127070367Y-120940687D01*
X127006601Y-120786742D01*
X126974093Y-120623315D01*
X126974093Y-120456685D01*
X127006601Y-120293258D01*
X127070367Y-120139313D01*
X127162941Y-120000766D01*
X127280766Y-119882941D01*
X127419313Y-119790367D01*
X127573258Y-119726601D01*
X127736685Y-119694093D01*
X127903315Y-119694093D01*
X128066742Y-119726601D01*
G37*
G36*
X145446742Y-119688601D02*
G01*
X145600687Y-119752367D01*
X145739234Y-119844941D01*
X145857059Y-119962766D01*
X145949633Y-120101313D01*
X146013399Y-120255258D01*
X146045907Y-120418685D01*
X146045907Y-120585315D01*
X146013399Y-120748742D01*
X145949633Y-120902687D01*
X145857059Y-121041234D01*
X145739234Y-121159059D01*
X145600687Y-121251633D01*
X145446742Y-121315399D01*
X145283315Y-121347907D01*
X145116685Y-121347907D01*
X144953258Y-121315399D01*
X144799313Y-121251633D01*
X144660766Y-121159059D01*
X144542941Y-121041234D01*
X144450367Y-120902687D01*
X144386601Y-120748742D01*
X144354093Y-120585315D01*
X144354093Y-120418685D01*
X144386601Y-120255258D01*
X144450367Y-120101313D01*
X144542941Y-119962766D01*
X144660766Y-119844941D01*
X144799313Y-119752367D01*
X144953258Y-119688601D01*
X145116685Y-119656093D01*
X145283315Y-119656093D01*
X145446742Y-119688601D01*
G37*
G36*
X147986742Y-119688601D02*
G01*
X148140687Y-119752367D01*
X148279234Y-119844941D01*
X148397059Y-119962766D01*
X148489633Y-120101313D01*
X148553399Y-120255258D01*
X148585907Y-120418685D01*
X148585907Y-120585315D01*
X148553399Y-120748742D01*
X148489633Y-120902687D01*
X148397059Y-121041234D01*
X148279234Y-121159059D01*
X148140687Y-121251633D01*
X147986742Y-121315399D01*
X147823315Y-121347907D01*
X147656685Y-121347907D01*
X147493258Y-121315399D01*
X147339313Y-121251633D01*
X147200766Y-121159059D01*
X147082941Y-121041234D01*
X146990367Y-120902687D01*
X146926601Y-120748742D01*
X146894093Y-120585315D01*
X146894093Y-120418685D01*
X146926601Y-120255258D01*
X146990367Y-120101313D01*
X147082941Y-119962766D01*
X147200766Y-119844941D01*
X147339313Y-119752367D01*
X147493258Y-119688601D01*
X147656685Y-119656093D01*
X147823315Y-119656093D01*
X147986742Y-119688601D01*
G37*
G36*
X151896507Y-119323294D02*
G01*
X151959937Y-119331644D01*
X151975895Y-119339085D01*
X151995238Y-119342933D01*
X152020859Y-119360052D01*
X152047286Y-119372376D01*
X152063363Y-119388453D01*
X152084454Y-119402546D01*
X152098546Y-119423636D01*
X152114623Y-119439713D01*
X152126944Y-119466136D01*
X152144067Y-119491762D01*
X152147915Y-119511108D01*
X152155353Y-119527059D01*
X152163699Y-119590460D01*
X152165000Y-119597000D01*
X152165000Y-120147000D01*
X152163702Y-120153522D01*
X152155355Y-120216937D01*
X152147915Y-120232891D01*
X152144067Y-120252238D01*
X152126943Y-120277864D01*
X152114623Y-120304286D01*
X152098548Y-120320360D01*
X152084454Y-120341454D01*
X152063360Y-120355548D01*
X152047286Y-120371623D01*
X152020865Y-120383943D01*
X151995238Y-120401067D01*
X151975889Y-120404915D01*
X151959940Y-120412353D01*
X151896541Y-120420698D01*
X151890000Y-120422000D01*
X149940000Y-120422000D01*
X149933479Y-120420702D01*
X149870062Y-120412355D01*
X149854106Y-120404914D01*
X149834762Y-120401067D01*
X149809137Y-120383945D01*
X149782713Y-120371623D01*
X149766636Y-120355546D01*
X149745546Y-120341454D01*
X149731453Y-120320363D01*
X149715376Y-120304286D01*
X149703053Y-120277860D01*
X149685933Y-120252238D01*
X149682085Y-120232893D01*
X149674646Y-120216940D01*
X149666298Y-120153526D01*
X149665000Y-120147000D01*
X149665000Y-119597000D01*
X149666294Y-119590494D01*
X149674644Y-119527062D01*
X149682085Y-119511103D01*
X149685933Y-119491762D01*
X149703051Y-119466142D01*
X149715376Y-119439713D01*
X149731455Y-119423633D01*
X149745546Y-119402546D01*
X149766633Y-119388455D01*
X149782713Y-119372376D01*
X149809141Y-119360052D01*
X149834762Y-119342933D01*
X149854104Y-119339085D01*
X149870059Y-119331646D01*
X149933475Y-119323297D01*
X149940000Y-119322000D01*
X151890000Y-119322000D01*
X151896507Y-119323294D01*
G37*
G36*
X158561887Y-119536183D02*
G01*
X157753887Y-119536183D01*
X157753887Y-118546383D01*
X158561887Y-118546383D01*
X158561887Y-119536183D01*
G37*
G36*
X160055687Y-119536183D02*
G01*
X159247687Y-119536183D01*
X159247687Y-118546383D01*
X160055687Y-118546383D01*
X160055687Y-119536183D01*
G37*
G36*
X128066742Y-117186601D02*
G01*
X128220687Y-117250367D01*
X128359234Y-117342941D01*
X128477059Y-117460766D01*
X128569633Y-117599313D01*
X128633399Y-117753258D01*
X128665907Y-117916685D01*
X128665907Y-118083315D01*
X128633399Y-118246742D01*
X128569633Y-118400687D01*
X128477059Y-118539234D01*
X128359234Y-118657059D01*
X128220687Y-118749633D01*
X128066742Y-118813399D01*
X127903315Y-118845907D01*
X127736685Y-118845907D01*
X127573258Y-118813399D01*
X127419313Y-118749633D01*
X127280766Y-118657059D01*
X127162941Y-118539234D01*
X127070367Y-118400687D01*
X127006601Y-118246742D01*
X126974093Y-118083315D01*
X126974093Y-117916685D01*
X127006601Y-117753258D01*
X127070367Y-117599313D01*
X127162941Y-117460766D01*
X127280766Y-117342941D01*
X127419313Y-117250367D01*
X127573258Y-117186601D01*
X127736685Y-117154093D01*
X127903315Y-117154093D01*
X128066742Y-117186601D01*
G37*
G36*
X146197772Y-116247695D02*
G01*
X146204782Y-116249731D01*
X146211851Y-116250374D01*
X146278781Y-116271230D01*
X146348217Y-116291403D01*
X146353449Y-116294497D01*
X146356355Y-116295403D01*
X146418312Y-116332857D01*
X146483067Y-116371153D01*
X146485214Y-116373300D01*
X146485220Y-116373304D01*
X146591695Y-116479779D01*
X146591698Y-116479784D01*
X146593847Y-116481933D01*
X146632160Y-116546717D01*
X146669596Y-116608644D01*
X146670500Y-116611547D01*
X146673597Y-116616783D01*
X146693779Y-116686250D01*
X146714625Y-116753148D01*
X146715267Y-116760213D01*
X146717305Y-116767228D01*
X146725000Y-116865000D01*
X146725000Y-118115000D01*
X146717305Y-118212772D01*
X146715266Y-118219787D01*
X146714625Y-118226851D01*
X146693783Y-118293734D01*
X146673597Y-118363217D01*
X146670500Y-118368453D01*
X146669596Y-118371355D01*
X146632187Y-118433236D01*
X146593847Y-118498067D01*
X146591696Y-118500217D01*
X146591695Y-118500220D01*
X146485220Y-118606695D01*
X146485217Y-118606696D01*
X146483067Y-118608847D01*
X146418236Y-118647187D01*
X146356355Y-118684596D01*
X146353453Y-118685500D01*
X146348217Y-118688597D01*
X146278734Y-118708783D01*
X146211851Y-118729625D01*
X146204787Y-118730266D01*
X146197772Y-118732305D01*
X146100000Y-118740000D01*
X144600000Y-118740000D01*
X144502228Y-118732305D01*
X144495213Y-118730267D01*
X144488148Y-118729625D01*
X144421250Y-118708779D01*
X144351783Y-118688597D01*
X144346547Y-118685500D01*
X144343644Y-118684596D01*
X144281717Y-118647160D01*
X144216933Y-118608847D01*
X144214784Y-118606698D01*
X144214779Y-118606695D01*
X144108304Y-118500220D01*
X144108300Y-118500214D01*
X144106153Y-118498067D01*
X144067857Y-118433312D01*
X144030403Y-118371355D01*
X144029497Y-118368449D01*
X144026403Y-118363217D01*
X144006230Y-118293781D01*
X143985374Y-118226851D01*
X143984731Y-118219782D01*
X143982695Y-118212772D01*
X143975000Y-118115000D01*
X143975000Y-116865000D01*
X143982695Y-116767228D01*
X143984731Y-116760218D01*
X143985374Y-116753148D01*
X144006234Y-116686203D01*
X144026403Y-116616783D01*
X144029497Y-116611551D01*
X144030403Y-116608644D01*
X144067884Y-116546640D01*
X144106153Y-116481933D01*
X144108299Y-116479786D01*
X144108304Y-116479779D01*
X144214779Y-116373304D01*
X144214786Y-116373299D01*
X144216933Y-116371153D01*
X144281640Y-116332884D01*
X144343644Y-116295403D01*
X144346551Y-116294497D01*
X144351783Y-116291403D01*
X144421203Y-116271234D01*
X144488148Y-116250374D01*
X144495218Y-116249731D01*
X144502228Y-116247695D01*
X144600000Y-116240000D01*
X146100000Y-116240000D01*
X146197772Y-116247695D01*
G37*
G36*
X148400768Y-116082612D02*
G01*
X148433211Y-116104289D01*
X148454888Y-116136732D01*
X148462500Y-116175000D01*
X148462500Y-117300000D01*
X148454888Y-117338268D01*
X148433211Y-117370711D01*
X148400768Y-117392388D01*
X148362500Y-117400000D01*
X148162500Y-117400000D01*
X148124232Y-117392388D01*
X148091789Y-117370711D01*
X148070112Y-117338268D01*
X148062500Y-117300000D01*
X148062500Y-116175000D01*
X148070112Y-116136732D01*
X148091789Y-116104289D01*
X148124232Y-116082612D01*
X148162500Y-116075000D01*
X148362500Y-116075000D01*
X148400768Y-116082612D01*
G37*
G36*
X149050768Y-116082612D02*
G01*
X149083211Y-116104289D01*
X149104888Y-116136732D01*
X149112500Y-116175000D01*
X149112500Y-117300000D01*
X149104888Y-117338268D01*
X149083211Y-117370711D01*
X149050768Y-117392388D01*
X149012500Y-117400000D01*
X148812500Y-117400000D01*
X148774232Y-117392388D01*
X148741789Y-117370711D01*
X148720112Y-117338268D01*
X148712500Y-117300000D01*
X148712500Y-116175000D01*
X148720112Y-116136732D01*
X148741789Y-116104289D01*
X148774232Y-116082612D01*
X148812500Y-116075000D01*
X149012500Y-116075000D01*
X149050768Y-116082612D01*
G37*
G36*
X149700768Y-116082612D02*
G01*
X149733211Y-116104289D01*
X149754888Y-116136732D01*
X149762500Y-116175000D01*
X149762500Y-117300000D01*
X149754888Y-117338268D01*
X149733211Y-117370711D01*
X149700768Y-117392388D01*
X149662500Y-117400000D01*
X149462500Y-117400000D01*
X149424232Y-117392388D01*
X149391789Y-117370711D01*
X149370112Y-117338268D01*
X149362500Y-117300000D01*
X149362500Y-116175000D01*
X149370112Y-116136732D01*
X149391789Y-116104289D01*
X149424232Y-116082612D01*
X149462500Y-116075000D01*
X149662500Y-116075000D01*
X149700768Y-116082612D01*
G37*
G36*
X128066742Y-114646601D02*
G01*
X128220687Y-114710367D01*
X128359234Y-114802941D01*
X128477059Y-114920766D01*
X128569633Y-115059313D01*
X128633399Y-115213258D01*
X128665907Y-115376685D01*
X128665907Y-115543315D01*
X128633399Y-115706742D01*
X128569633Y-115860687D01*
X128477059Y-115999234D01*
X128359234Y-116117059D01*
X128220687Y-116209633D01*
X128066742Y-116273399D01*
X127903315Y-116305907D01*
X127736685Y-116305907D01*
X127573258Y-116273399D01*
X127419313Y-116209633D01*
X127280766Y-116117059D01*
X127162941Y-115999234D01*
X127070367Y-115860687D01*
X127006601Y-115706742D01*
X126974093Y-115543315D01*
X126974093Y-115376685D01*
X127006601Y-115213258D01*
X127070367Y-115059313D01*
X127162941Y-114920766D01*
X127280766Y-114802941D01*
X127419313Y-114710367D01*
X127573258Y-114646601D01*
X127736685Y-114614093D01*
X127903315Y-114614093D01*
X128066742Y-114646601D01*
G37*
G36*
X153508308Y-115205275D02*
G01*
X153552105Y-115234540D01*
X153581370Y-115278337D01*
X153591646Y-115329999D01*
X153591646Y-115599999D01*
X153581370Y-115651661D01*
X153552105Y-115695458D01*
X153508308Y-115724723D01*
X153456646Y-115734999D01*
X153086646Y-115734999D01*
X153034984Y-115724723D01*
X152991187Y-115695458D01*
X152961922Y-115651661D01*
X152951646Y-115599999D01*
X152951646Y-115329999D01*
X152961922Y-115278337D01*
X152991187Y-115234540D01*
X153034984Y-115205275D01*
X153086646Y-115194999D01*
X153456646Y-115194999D01*
X153508308Y-115205275D01*
G37*
G36*
X148400768Y-114307612D02*
G01*
X148433211Y-114329289D01*
X148454888Y-114361732D01*
X148462500Y-114400000D01*
X148462500Y-115525000D01*
X148454888Y-115563268D01*
X148433211Y-115595711D01*
X148400768Y-115617388D01*
X148362500Y-115625000D01*
X148162500Y-115625000D01*
X148124232Y-115617388D01*
X148091789Y-115595711D01*
X148070112Y-115563268D01*
X148062500Y-115525000D01*
X148062500Y-114400000D01*
X148070112Y-114361732D01*
X148091789Y-114329289D01*
X148124232Y-114307612D01*
X148162500Y-114300000D01*
X148362500Y-114300000D01*
X148400768Y-114307612D01*
G37*
G36*
X149050768Y-114307612D02*
G01*
X149083211Y-114329289D01*
X149104888Y-114361732D01*
X149112500Y-114400000D01*
X149112500Y-115525000D01*
X149104888Y-115563268D01*
X149083211Y-115595711D01*
X149050768Y-115617388D01*
X149012500Y-115625000D01*
X148812500Y-115625000D01*
X148774232Y-115617388D01*
X148741789Y-115595711D01*
X148720112Y-115563268D01*
X148712500Y-115525000D01*
X148712500Y-114400000D01*
X148720112Y-114361732D01*
X148741789Y-114329289D01*
X148774232Y-114307612D01*
X148812500Y-114300000D01*
X149012500Y-114300000D01*
X149050768Y-114307612D01*
G37*
G36*
X149700768Y-114307612D02*
G01*
X149733211Y-114329289D01*
X149754888Y-114361732D01*
X149762500Y-114400000D01*
X149762500Y-115525000D01*
X149754888Y-115563268D01*
X149733211Y-115595711D01*
X149700768Y-115617388D01*
X149662500Y-115625000D01*
X149462500Y-115625000D01*
X149424232Y-115617388D01*
X149391789Y-115595711D01*
X149370112Y-115563268D01*
X149362500Y-115525000D01*
X149362500Y-114400000D01*
X149370112Y-114361732D01*
X149391789Y-114329289D01*
X149424232Y-114307612D01*
X149462500Y-114300000D01*
X149662500Y-114300000D01*
X149700768Y-114307612D01*
G37*
G36*
X153508308Y-114185275D02*
G01*
X153552105Y-114214540D01*
X153581370Y-114258337D01*
X153591646Y-114309999D01*
X153591646Y-114579999D01*
X153581370Y-114631661D01*
X153552105Y-114675458D01*
X153508308Y-114704723D01*
X153456646Y-114714999D01*
X153086646Y-114714999D01*
X153034984Y-114704723D01*
X152991187Y-114675458D01*
X152961922Y-114631661D01*
X152951646Y-114579999D01*
X152951646Y-114309999D01*
X152961922Y-114258337D01*
X152991187Y-114214540D01*
X153034984Y-114185275D01*
X153086646Y-114174999D01*
X153456646Y-114174999D01*
X153508308Y-114185275D01*
G37*
G36*
X148328222Y-113278982D02*
G01*
X148373641Y-113309330D01*
X148403989Y-113354749D01*
X148414646Y-113408325D01*
X148414646Y-113688325D01*
X148403989Y-113741901D01*
X148373641Y-113787320D01*
X148328222Y-113817668D01*
X148274646Y-113828325D01*
X147934646Y-113828325D01*
X147881070Y-113817668D01*
X147835651Y-113787320D01*
X147805303Y-113741901D01*
X147794646Y-113688325D01*
X147794646Y-113408325D01*
X147805303Y-113354749D01*
X147835651Y-113309330D01*
X147881070Y-113278982D01*
X147934646Y-113268325D01*
X148274646Y-113268325D01*
X148328222Y-113278982D01*
G37*
G36*
X128066742Y-112106601D02*
G01*
X128220687Y-112170367D01*
X128359234Y-112262941D01*
X128477059Y-112380766D01*
X128569633Y-112519313D01*
X128633399Y-112673258D01*
X128665907Y-112836685D01*
X128665907Y-113003315D01*
X128633399Y-113166742D01*
X128569633Y-113320687D01*
X128477059Y-113459234D01*
X128359234Y-113577059D01*
X128220687Y-113669633D01*
X128066742Y-113733399D01*
X127903315Y-113765907D01*
X127736685Y-113765907D01*
X127573258Y-113733399D01*
X127419313Y-113669633D01*
X127280766Y-113577059D01*
X127162941Y-113459234D01*
X127070367Y-113320687D01*
X127006601Y-113166742D01*
X126974093Y-113003315D01*
X126974093Y-112836685D01*
X127006601Y-112673258D01*
X127070367Y-112519313D01*
X127162941Y-112380766D01*
X127280766Y-112262941D01*
X127419313Y-112170367D01*
X127573258Y-112106601D01*
X127736685Y-112074093D01*
X127903315Y-112074093D01*
X128066742Y-112106601D01*
G37*
G36*
X150051076Y-113139157D02*
G01*
X150096495Y-113169505D01*
X150126843Y-113214924D01*
X150137500Y-113268500D01*
X150137500Y-113608500D01*
X150126843Y-113662076D01*
X150096495Y-113707495D01*
X150051076Y-113737843D01*
X149997500Y-113748500D01*
X149717500Y-113748500D01*
X149663924Y-113737843D01*
X149618505Y-113707495D01*
X149588157Y-113662076D01*
X149577500Y-113608500D01*
X149577500Y-113268500D01*
X149588157Y-113214924D01*
X149618505Y-113169505D01*
X149663924Y-113139157D01*
X149717500Y-113128500D01*
X149997500Y-113128500D01*
X150051076Y-113139157D01*
G37*
G36*
X151011076Y-113139157D02*
G01*
X151056495Y-113169505D01*
X151086843Y-113214924D01*
X151097500Y-113268500D01*
X151097500Y-113608500D01*
X151086843Y-113662076D01*
X151056495Y-113707495D01*
X151011076Y-113737843D01*
X150957500Y-113748500D01*
X150677500Y-113748500D01*
X150623924Y-113737843D01*
X150578505Y-113707495D01*
X150548157Y-113662076D01*
X150537500Y-113608500D01*
X150537500Y-113268500D01*
X150548157Y-113214924D01*
X150578505Y-113169505D01*
X150623924Y-113139157D01*
X150677500Y-113128500D01*
X150957500Y-113128500D01*
X151011076Y-113139157D01*
G37*
G36*
X153508308Y-112665275D02*
G01*
X153552105Y-112694540D01*
X153581370Y-112738337D01*
X153591646Y-112789999D01*
X153591646Y-113059999D01*
X153581370Y-113111661D01*
X153552105Y-113155458D01*
X153508308Y-113184723D01*
X153456646Y-113194999D01*
X153086646Y-113194999D01*
X153034984Y-113184723D01*
X152991187Y-113155458D01*
X152961922Y-113111661D01*
X152951646Y-113059999D01*
X152951646Y-112789999D01*
X152961922Y-112738337D01*
X152991187Y-112694540D01*
X153034984Y-112665275D01*
X153086646Y-112654999D01*
X153456646Y-112654999D01*
X153508308Y-112665275D01*
G37*
G36*
X148328222Y-112318982D02*
G01*
X148373641Y-112349330D01*
X148403989Y-112394749D01*
X148414646Y-112448325D01*
X148414646Y-112728325D01*
X148403989Y-112781901D01*
X148373641Y-112827320D01*
X148328222Y-112857668D01*
X148274646Y-112868325D01*
X147934646Y-112868325D01*
X147881070Y-112857668D01*
X147835651Y-112827320D01*
X147805303Y-112781901D01*
X147794646Y-112728325D01*
X147794646Y-112448325D01*
X147805303Y-112394749D01*
X147835651Y-112349330D01*
X147881070Y-112318982D01*
X147934646Y-112308325D01*
X148274646Y-112308325D01*
X148328222Y-112318982D01*
G37*
G36*
X150038162Y-112163276D02*
G01*
X150081959Y-112192541D01*
X150111224Y-112236338D01*
X150121500Y-112288000D01*
X150121500Y-112558000D01*
X150111224Y-112609662D01*
X150081959Y-112653459D01*
X150038162Y-112682724D01*
X149986500Y-112693000D01*
X149616500Y-112693000D01*
X149564838Y-112682724D01*
X149521041Y-112653459D01*
X149491776Y-112609662D01*
X149481500Y-112558000D01*
X149481500Y-112288000D01*
X149491776Y-112236338D01*
X149521041Y-112192541D01*
X149564838Y-112163276D01*
X149616500Y-112153000D01*
X149986500Y-112153000D01*
X150038162Y-112163276D01*
G37*
G36*
X153508308Y-111645275D02*
G01*
X153552105Y-111674540D01*
X153581370Y-111718337D01*
X153591646Y-111769999D01*
X153591646Y-112039999D01*
X153581370Y-112091661D01*
X153552105Y-112135458D01*
X153508308Y-112164723D01*
X153456646Y-112174999D01*
X153086646Y-112174999D01*
X153034984Y-112164723D01*
X152991187Y-112135458D01*
X152961922Y-112091661D01*
X152951646Y-112039999D01*
X152951646Y-111769999D01*
X152961922Y-111718337D01*
X152991187Y-111674540D01*
X153034984Y-111645275D01*
X153086646Y-111634999D01*
X153456646Y-111634999D01*
X153508308Y-111645275D01*
G37*
G36*
X150038162Y-111143276D02*
G01*
X150081959Y-111172541D01*
X150111224Y-111216338D01*
X150121500Y-111268000D01*
X150121500Y-111538000D01*
X150111224Y-111589662D01*
X150081959Y-111633459D01*
X150038162Y-111662724D01*
X149986500Y-111673000D01*
X149616500Y-111673000D01*
X149564838Y-111662724D01*
X149521041Y-111633459D01*
X149491776Y-111589662D01*
X149481500Y-111538000D01*
X149481500Y-111268000D01*
X149491776Y-111216338D01*
X149521041Y-111172541D01*
X149564838Y-111143276D01*
X149616500Y-111133000D01*
X149986500Y-111133000D01*
X150038162Y-111143276D01*
G37*
G36*
X128066742Y-109566601D02*
G01*
X128220687Y-109630367D01*
X128359234Y-109722941D01*
X128477059Y-109840766D01*
X128569633Y-109979313D01*
X128633399Y-110133258D01*
X128665907Y-110296685D01*
X128665907Y-110463315D01*
X128633399Y-110626742D01*
X128569633Y-110780687D01*
X128477059Y-110919234D01*
X128359234Y-111037059D01*
X128220687Y-111129633D01*
X128066742Y-111193399D01*
X127903315Y-111225907D01*
X127736685Y-111225907D01*
X127573258Y-111193399D01*
X127419313Y-111129633D01*
X127280766Y-111037059D01*
X127162941Y-110919234D01*
X127070367Y-110780687D01*
X127006601Y-110626742D01*
X126974093Y-110463315D01*
X126974093Y-110296685D01*
X127006601Y-110133258D01*
X127070367Y-109979313D01*
X127162941Y-109840766D01*
X127280766Y-109722941D01*
X127419313Y-109630367D01*
X127573258Y-109566601D01*
X127736685Y-109534093D01*
X127903315Y-109534093D01*
X128066742Y-109566601D01*
G37*
G36*
X128066742Y-107026601D02*
G01*
X128220687Y-107090367D01*
X128359234Y-107182941D01*
X128477059Y-107300766D01*
X128569633Y-107439313D01*
X128633399Y-107593258D01*
X128665907Y-107756685D01*
X128665907Y-107923315D01*
X128633399Y-108086742D01*
X128569633Y-108240687D01*
X128477059Y-108379234D01*
X128359234Y-108497059D01*
X128220687Y-108589633D01*
X128066742Y-108653399D01*
X127903315Y-108685907D01*
X127736685Y-108685907D01*
X127573258Y-108653399D01*
X127419313Y-108589633D01*
X127280766Y-108497059D01*
X127162941Y-108379234D01*
X127070367Y-108240687D01*
X127006601Y-108086742D01*
X126974093Y-107923315D01*
X126974093Y-107756685D01*
X127006601Y-107593258D01*
X127070367Y-107439313D01*
X127162941Y-107300766D01*
X127280766Y-107182941D01*
X127419313Y-107090367D01*
X127573258Y-107026601D01*
X127736685Y-106994093D01*
X127903315Y-106994093D01*
X128066742Y-107026601D01*
G37*
G36*
X128066742Y-104486601D02*
G01*
X128220687Y-104550367D01*
X128359234Y-104642941D01*
X128477059Y-104760766D01*
X128569633Y-104899313D01*
X128633399Y-105053258D01*
X128665907Y-105216685D01*
X128665907Y-105383315D01*
X128633399Y-105546742D01*
X128569633Y-105700687D01*
X128477059Y-105839234D01*
X128359234Y-105957059D01*
X128220687Y-106049633D01*
X128066742Y-106113399D01*
X127903315Y-106145907D01*
X127736685Y-106145907D01*
X127573258Y-106113399D01*
X127419313Y-106049633D01*
X127280766Y-105957059D01*
X127162941Y-105839234D01*
X127070367Y-105700687D01*
X127006601Y-105546742D01*
X126974093Y-105383315D01*
X126974093Y-105216685D01*
X127006601Y-105053258D01*
X127070367Y-104899313D01*
X127162941Y-104760766D01*
X127280766Y-104642941D01*
X127419313Y-104550367D01*
X127573258Y-104486601D01*
X127736685Y-104454093D01*
X127903315Y-104454093D01*
X128066742Y-104486601D01*
G37*
G36*
X128066742Y-101946601D02*
G01*
X128220687Y-102010367D01*
X128359234Y-102102941D01*
X128477059Y-102220766D01*
X128569633Y-102359313D01*
X128633399Y-102513258D01*
X128665907Y-102676685D01*
X128665907Y-102843315D01*
X128633399Y-103006742D01*
X128569633Y-103160687D01*
X128477059Y-103299234D01*
X128359234Y-103417059D01*
X128220687Y-103509633D01*
X128066742Y-103573399D01*
X127903315Y-103605907D01*
X127736685Y-103605907D01*
X127573258Y-103573399D01*
X127419313Y-103509633D01*
X127280766Y-103417059D01*
X127162941Y-103299234D01*
X127070367Y-103160687D01*
X127006601Y-103006742D01*
X126974093Y-102843315D01*
X126974093Y-102676685D01*
X127006601Y-102513258D01*
X127070367Y-102359313D01*
X127162941Y-102220766D01*
X127280766Y-102102941D01*
X127419313Y-102010367D01*
X127573258Y-101946601D01*
X127736685Y-101914093D01*
X127903315Y-101914093D01*
X128066742Y-101946601D01*
G37*
G36*
X128066742Y-99406601D02*
G01*
X128220687Y-99470367D01*
X128359234Y-99562941D01*
X128477059Y-99680766D01*
X128569633Y-99819313D01*
X128633399Y-99973258D01*
X128665907Y-100136685D01*
X128665907Y-100303315D01*
X128633399Y-100466742D01*
X128569633Y-100620687D01*
X128477059Y-100759234D01*
X128359234Y-100877059D01*
X128220687Y-100969633D01*
X128066742Y-101033399D01*
X127903315Y-101065907D01*
X127736685Y-101065907D01*
X127573258Y-101033399D01*
X127419313Y-100969633D01*
X127280766Y-100877059D01*
X127162941Y-100759234D01*
X127070367Y-100620687D01*
X127006601Y-100466742D01*
X126974093Y-100303315D01*
X126974093Y-100136685D01*
X127006601Y-99973258D01*
X127070367Y-99819313D01*
X127162941Y-99680766D01*
X127280766Y-99562941D01*
X127419313Y-99470367D01*
X127573258Y-99406601D01*
X127736685Y-99374093D01*
X127903315Y-99374093D01*
X128066742Y-99406601D01*
G37*
G36*
X132900403Y-100168418D02*
G01*
X132949066Y-100200934D01*
X132981582Y-100249597D01*
X132993000Y-100307000D01*
X132993000Y-100607000D01*
X132981582Y-100664403D01*
X132949066Y-100713066D01*
X132900403Y-100745582D01*
X132843000Y-100757000D01*
X131193000Y-100757000D01*
X131135597Y-100745582D01*
X131086934Y-100713066D01*
X131054418Y-100664403D01*
X131043000Y-100607000D01*
X131043000Y-100307000D01*
X131054418Y-100249597D01*
X131086934Y-100200934D01*
X131135597Y-100168418D01*
X131193000Y-100157000D01*
X132843000Y-100157000D01*
X132900403Y-100168418D01*
G37*
G36*
X137850403Y-100168418D02*
G01*
X137899066Y-100200934D01*
X137931582Y-100249597D01*
X137943000Y-100307000D01*
X137943000Y-100607000D01*
X137931582Y-100664403D01*
X137899066Y-100713066D01*
X137850403Y-100745582D01*
X137793000Y-100757000D01*
X136143000Y-100757000D01*
X136085597Y-100745582D01*
X136036934Y-100713066D01*
X136004418Y-100664403D01*
X135993000Y-100607000D01*
X135993000Y-100307000D01*
X136004418Y-100249597D01*
X136036934Y-100200934D01*
X136085597Y-100168418D01*
X136143000Y-100157000D01*
X137793000Y-100157000D01*
X137850403Y-100168418D01*
G37*
G36*
X132900403Y-98898418D02*
G01*
X132949066Y-98930934D01*
X132981582Y-98979597D01*
X132993000Y-99037000D01*
X132993000Y-99337000D01*
X132981582Y-99394403D01*
X132949066Y-99443066D01*
X132900403Y-99475582D01*
X132843000Y-99487000D01*
X131193000Y-99487000D01*
X131135597Y-99475582D01*
X131086934Y-99443066D01*
X131054418Y-99394403D01*
X131043000Y-99337000D01*
X131043000Y-99037000D01*
X131054418Y-98979597D01*
X131086934Y-98930934D01*
X131135597Y-98898418D01*
X131193000Y-98887000D01*
X132843000Y-98887000D01*
X132900403Y-98898418D01*
G37*
G36*
X137850403Y-98898418D02*
G01*
X137899066Y-98930934D01*
X137931582Y-98979597D01*
X137943000Y-99037000D01*
X137943000Y-99337000D01*
X137931582Y-99394403D01*
X137899066Y-99443066D01*
X137850403Y-99475582D01*
X137793000Y-99487000D01*
X136143000Y-99487000D01*
X136085597Y-99475582D01*
X136036934Y-99443066D01*
X136004418Y-99394403D01*
X135993000Y-99337000D01*
X135993000Y-99037000D01*
X136004418Y-98979597D01*
X136036934Y-98930934D01*
X136085597Y-98898418D01*
X136143000Y-98887000D01*
X137793000Y-98887000D01*
X137850403Y-98898418D01*
G37*
G36*
X157869900Y-98300900D02*
G01*
X156880100Y-98300900D01*
X156880100Y-97492900D01*
X157869900Y-97492900D01*
X157869900Y-98300900D01*
G37*
G36*
X155269900Y-98275900D02*
G01*
X154280100Y-98275900D01*
X154280100Y-97467900D01*
X155269900Y-97467900D01*
X155269900Y-98275900D01*
G37*
G36*
X132900403Y-97628418D02*
G01*
X132949066Y-97660934D01*
X132981582Y-97709597D01*
X132993000Y-97767000D01*
X132993000Y-98067000D01*
X132981582Y-98124403D01*
X132949066Y-98173066D01*
X132900403Y-98205582D01*
X132843000Y-98217000D01*
X131193000Y-98217000D01*
X131135597Y-98205582D01*
X131086934Y-98173066D01*
X131054418Y-98124403D01*
X131043000Y-98067000D01*
X131043000Y-97767000D01*
X131054418Y-97709597D01*
X131086934Y-97660934D01*
X131135597Y-97628418D01*
X131193000Y-97617000D01*
X132843000Y-97617000D01*
X132900403Y-97628418D01*
G37*
G36*
X137850403Y-97628418D02*
G01*
X137899066Y-97660934D01*
X137931582Y-97709597D01*
X137943000Y-97767000D01*
X137943000Y-98067000D01*
X137931582Y-98124403D01*
X137899066Y-98173066D01*
X137850403Y-98205582D01*
X137793000Y-98217000D01*
X136143000Y-98217000D01*
X136085597Y-98205582D01*
X136036934Y-98173066D01*
X136004418Y-98124403D01*
X135993000Y-98067000D01*
X135993000Y-97767000D01*
X136004418Y-97709597D01*
X136036934Y-97660934D01*
X136085597Y-97628418D01*
X136143000Y-97617000D01*
X137793000Y-97617000D01*
X137850403Y-97628418D01*
G37*
G36*
X150099500Y-97903579D02*
G01*
X149096200Y-97903579D01*
X149096200Y-97446379D01*
X150099500Y-97446379D01*
X150099500Y-97903579D01*
G37*
G36*
X152753800Y-97903579D02*
G01*
X151750500Y-97903579D01*
X151750500Y-97446379D01*
X152753800Y-97446379D01*
X152753800Y-97903579D01*
G37*
G36*
X143044900Y-97825900D02*
G01*
X142055100Y-97825900D01*
X142055100Y-97017900D01*
X143044900Y-97017900D01*
X143044900Y-97825900D01*
G37*
G36*
X145569900Y-97775900D02*
G01*
X144580100Y-97775900D01*
X144580100Y-96967900D01*
X145569900Y-96967900D01*
X145569900Y-97775900D01*
G37*
G36*
X148030000Y-97625000D02*
G01*
X147070000Y-97625000D01*
X147070000Y-96775000D01*
X148030000Y-96775000D01*
X148030000Y-97625000D01*
G37*
G36*
X150099500Y-97253593D02*
G01*
X149096200Y-97253593D01*
X149096200Y-96796393D01*
X150099500Y-96796393D01*
X150099500Y-97253593D01*
G37*
G36*
X152753800Y-97253593D02*
G01*
X151750500Y-97253593D01*
X151750500Y-96796393D01*
X152753800Y-96796393D01*
X152753800Y-97253593D01*
G37*
G36*
X132900403Y-96358418D02*
G01*
X132949066Y-96390934D01*
X132981582Y-96439597D01*
X132993000Y-96497000D01*
X132993000Y-96797000D01*
X132981582Y-96854403D01*
X132949066Y-96903066D01*
X132900403Y-96935582D01*
X132843000Y-96947000D01*
X131193000Y-96947000D01*
X131135597Y-96935582D01*
X131086934Y-96903066D01*
X131054418Y-96854403D01*
X131043000Y-96797000D01*
X131043000Y-96497000D01*
X131054418Y-96439597D01*
X131086934Y-96390934D01*
X131135597Y-96358418D01*
X131193000Y-96347000D01*
X132843000Y-96347000D01*
X132900403Y-96358418D01*
G37*
G36*
X137850403Y-96358418D02*
G01*
X137899066Y-96390934D01*
X137931582Y-96439597D01*
X137943000Y-96497000D01*
X137943000Y-96797000D01*
X137931582Y-96854403D01*
X137899066Y-96903066D01*
X137850403Y-96935582D01*
X137793000Y-96947000D01*
X136143000Y-96947000D01*
X136085597Y-96935582D01*
X136036934Y-96903066D01*
X136004418Y-96854403D01*
X135993000Y-96797000D01*
X135993000Y-96497000D01*
X136004418Y-96439597D01*
X136036934Y-96390934D01*
X136085597Y-96358418D01*
X136143000Y-96347000D01*
X137793000Y-96347000D01*
X137850403Y-96358418D01*
G37*
G36*
X157869900Y-96807100D02*
G01*
X156880100Y-96807100D01*
X156880100Y-95999100D01*
X157869900Y-95999100D01*
X157869900Y-96807100D01*
G37*
G36*
X155269900Y-96782100D02*
G01*
X154280100Y-96782100D01*
X154280100Y-95974100D01*
X155269900Y-95974100D01*
X155269900Y-96782100D01*
G37*
G36*
X150099500Y-96603607D02*
G01*
X149096200Y-96603607D01*
X149096200Y-96146407D01*
X150099500Y-96146407D01*
X150099500Y-96603607D01*
G37*
G36*
X152753800Y-96603607D02*
G01*
X151750500Y-96603607D01*
X151750500Y-96146407D01*
X152753800Y-96146407D01*
X152753800Y-96603607D01*
G37*
G36*
X143044900Y-96332100D02*
G01*
X142055100Y-96332100D01*
X142055100Y-95524100D01*
X143044900Y-95524100D01*
X143044900Y-96332100D01*
G37*
G36*
X145569900Y-96282100D02*
G01*
X144580100Y-96282100D01*
X144580100Y-95474100D01*
X145569900Y-95474100D01*
X145569900Y-96282100D01*
G37*
G36*
X148030000Y-96025000D02*
G01*
X147070000Y-96025000D01*
X147070000Y-95175000D01*
X148030000Y-95175000D01*
X148030000Y-96025000D01*
G37*
G36*
X150099500Y-95953621D02*
G01*
X149096200Y-95953621D01*
X149096200Y-95496421D01*
X150099500Y-95496421D01*
X150099500Y-95953621D01*
G37*
G36*
X152753800Y-95953621D02*
G01*
X151750500Y-95953621D01*
X151750500Y-95496421D01*
X152753800Y-95496421D01*
X152753800Y-95953621D01*
G37*
G36*
X132900403Y-95088418D02*
G01*
X132949066Y-95120934D01*
X132981582Y-95169597D01*
X132993000Y-95227000D01*
X132993000Y-95527000D01*
X132981582Y-95584403D01*
X132949066Y-95633066D01*
X132900403Y-95665582D01*
X132843000Y-95677000D01*
X131193000Y-95677000D01*
X131135597Y-95665582D01*
X131086934Y-95633066D01*
X131054418Y-95584403D01*
X131043000Y-95527000D01*
X131043000Y-95227000D01*
X131054418Y-95169597D01*
X131086934Y-95120934D01*
X131135597Y-95088418D01*
X131193000Y-95077000D01*
X132843000Y-95077000D01*
X132900403Y-95088418D01*
G37*
G36*
X137850403Y-95088418D02*
G01*
X137899066Y-95120934D01*
X137931582Y-95169597D01*
X137943000Y-95227000D01*
X137943000Y-95527000D01*
X137931582Y-95584403D01*
X137899066Y-95633066D01*
X137850403Y-95665582D01*
X137793000Y-95677000D01*
X136143000Y-95677000D01*
X136085597Y-95665582D01*
X136036934Y-95633066D01*
X136004418Y-95584403D01*
X135993000Y-95527000D01*
X135993000Y-95227000D01*
X136004418Y-95169597D01*
X136036934Y-95120934D01*
X136085597Y-95088418D01*
X136143000Y-95077000D01*
X137793000Y-95077000D01*
X137850403Y-95088418D01*
G37*
G36*
X132900403Y-93818418D02*
G01*
X132949066Y-93850934D01*
X132981582Y-93899597D01*
X132993000Y-93957000D01*
X132993000Y-94257000D01*
X132981582Y-94314403D01*
X132949066Y-94363066D01*
X132900403Y-94395582D01*
X132843000Y-94407000D01*
X131193000Y-94407000D01*
X131135597Y-94395582D01*
X131086934Y-94363066D01*
X131054418Y-94314403D01*
X131043000Y-94257000D01*
X131043000Y-93957000D01*
X131054418Y-93899597D01*
X131086934Y-93850934D01*
X131135597Y-93818418D01*
X131193000Y-93807000D01*
X132843000Y-93807000D01*
X132900403Y-93818418D01*
G37*
G36*
X137850403Y-93818418D02*
G01*
X137899066Y-93850934D01*
X137931582Y-93899597D01*
X137943000Y-93957000D01*
X137943000Y-94257000D01*
X137931582Y-94314403D01*
X137899066Y-94363066D01*
X137850403Y-94395582D01*
X137793000Y-94407000D01*
X136143000Y-94407000D01*
X136085597Y-94395582D01*
X136036934Y-94363066D01*
X136004418Y-94314403D01*
X135993000Y-94257000D01*
X135993000Y-93957000D01*
X136004418Y-93899597D01*
X136036934Y-93850934D01*
X136085597Y-93818418D01*
X136143000Y-93807000D01*
X137793000Y-93807000D01*
X137850403Y-93818418D01*
G37*
G36*
X150405000Y-93825000D02*
G01*
X149445000Y-93825000D01*
X149445000Y-92975000D01*
X150405000Y-92975000D01*
X150405000Y-93825000D01*
G37*
G36*
X154955000Y-93800000D02*
G01*
X153995000Y-93800000D01*
X153995000Y-92950000D01*
X154955000Y-92950000D01*
X154955000Y-93800000D01*
G37*
G36*
X143594900Y-93775900D02*
G01*
X142605100Y-93775900D01*
X142605100Y-92967900D01*
X143594900Y-92967900D01*
X143594900Y-93775900D01*
G37*
G36*
X145930000Y-93725000D02*
G01*
X144970000Y-93725000D01*
X144970000Y-92875000D01*
X145930000Y-92875000D01*
X145930000Y-93725000D01*
G37*
G36*
X148169900Y-93675900D02*
G01*
X147180100Y-93675900D01*
X147180100Y-92867900D01*
X148169900Y-92867900D01*
X148169900Y-93675900D01*
G37*
G36*
X152744900Y-93650900D02*
G01*
X151755100Y-93650900D01*
X151755100Y-92842900D01*
X152744900Y-92842900D01*
X152744900Y-93650900D01*
G37*
G36*
X157169900Y-93625900D02*
G01*
X156180100Y-93625900D01*
X156180100Y-92817900D01*
X157169900Y-92817900D01*
X157169900Y-93625900D01*
G37*
G36*
X159694900Y-93550900D02*
G01*
X158705100Y-93550900D01*
X158705100Y-92742900D01*
X159694900Y-92742900D01*
X159694900Y-93550900D01*
G37*
G36*
X132900403Y-92548418D02*
G01*
X132949066Y-92580934D01*
X132981582Y-92629597D01*
X132993000Y-92687000D01*
X132993000Y-92987000D01*
X132981582Y-93044403D01*
X132949066Y-93093066D01*
X132900403Y-93125582D01*
X132843000Y-93137000D01*
X131193000Y-93137000D01*
X131135597Y-93125582D01*
X131086934Y-93093066D01*
X131054418Y-93044403D01*
X131043000Y-92987000D01*
X131043000Y-92687000D01*
X131054418Y-92629597D01*
X131086934Y-92580934D01*
X131135597Y-92548418D01*
X131193000Y-92537000D01*
X132843000Y-92537000D01*
X132900403Y-92548418D01*
G37*
G36*
X137850403Y-92548418D02*
G01*
X137899066Y-92580934D01*
X137931582Y-92629597D01*
X137943000Y-92687000D01*
X137943000Y-92987000D01*
X137931582Y-93044403D01*
X137899066Y-93093066D01*
X137850403Y-93125582D01*
X137793000Y-93137000D01*
X136143000Y-93137000D01*
X136085597Y-93125582D01*
X136036934Y-93093066D01*
X136004418Y-93044403D01*
X135993000Y-92987000D01*
X135993000Y-92687000D01*
X136004418Y-92629597D01*
X136036934Y-92580934D01*
X136085597Y-92548418D01*
X136143000Y-92537000D01*
X137793000Y-92537000D01*
X137850403Y-92548418D01*
G37*
G36*
X143594900Y-92282100D02*
G01*
X142605100Y-92282100D01*
X142605100Y-91474100D01*
X143594900Y-91474100D01*
X143594900Y-92282100D01*
G37*
G36*
X150405000Y-92225000D02*
G01*
X149445000Y-92225000D01*
X149445000Y-91375000D01*
X150405000Y-91375000D01*
X150405000Y-92225000D01*
G37*
G36*
X154955000Y-92200000D02*
G01*
X153995000Y-92200000D01*
X153995000Y-91350000D01*
X154955000Y-91350000D01*
X154955000Y-92200000D01*
G37*
G36*
X148169900Y-92182100D02*
G01*
X147180100Y-92182100D01*
X147180100Y-91374100D01*
X148169900Y-91374100D01*
X148169900Y-92182100D01*
G37*
G36*
X152744900Y-92157100D02*
G01*
X151755100Y-92157100D01*
X151755100Y-91349100D01*
X152744900Y-91349100D01*
X152744900Y-92157100D01*
G37*
G36*
X157169900Y-92132100D02*
G01*
X156180100Y-92132100D01*
X156180100Y-91324100D01*
X157169900Y-91324100D01*
X157169900Y-92132100D01*
G37*
G36*
X145930000Y-92125000D02*
G01*
X144970000Y-92125000D01*
X144970000Y-91275000D01*
X145930000Y-91275000D01*
X145930000Y-92125000D01*
G37*
G36*
X159694900Y-92057100D02*
G01*
X158705100Y-92057100D01*
X158705100Y-91249100D01*
X159694900Y-91249100D01*
X159694900Y-92057100D01*
G37*
G36*
X132900403Y-91278418D02*
G01*
X132949066Y-91310934D01*
X132981582Y-91359597D01*
X132993000Y-91417000D01*
X132993000Y-91717000D01*
X132981582Y-91774403D01*
X132949066Y-91823066D01*
X132900403Y-91855582D01*
X132843000Y-91867000D01*
X131193000Y-91867000D01*
X131135597Y-91855582D01*
X131086934Y-91823066D01*
X131054418Y-91774403D01*
X131043000Y-91717000D01*
X131043000Y-91417000D01*
X131054418Y-91359597D01*
X131086934Y-91310934D01*
X131135597Y-91278418D01*
X131193000Y-91267000D01*
X132843000Y-91267000D01*
X132900403Y-91278418D01*
G37*
G36*
X137850403Y-91278418D02*
G01*
X137899066Y-91310934D01*
X137931582Y-91359597D01*
X137943000Y-91417000D01*
X137943000Y-91717000D01*
X137931582Y-91774403D01*
X137899066Y-91823066D01*
X137850403Y-91855582D01*
X137793000Y-91867000D01*
X136143000Y-91867000D01*
X136085597Y-91855582D01*
X136036934Y-91823066D01*
X136004418Y-91774403D01*
X135993000Y-91717000D01*
X135993000Y-91417000D01*
X136004418Y-91359597D01*
X136036934Y-91310934D01*
X136085597Y-91278418D01*
X136143000Y-91267000D01*
X137793000Y-91267000D01*
X137850403Y-91278418D01*
G37*
G36*
X129507576Y-90632657D02*
G01*
X129552995Y-90663005D01*
X129583343Y-90708424D01*
X129594000Y-90762000D01*
X129594000Y-91102000D01*
X129583343Y-91155576D01*
X129552995Y-91200995D01*
X129507576Y-91231343D01*
X129454000Y-91242000D01*
X129174000Y-91242000D01*
X129120424Y-91231343D01*
X129075005Y-91200995D01*
X129044657Y-91155576D01*
X129034000Y-91102000D01*
X129034000Y-90762000D01*
X129044657Y-90708424D01*
X129075005Y-90663005D01*
X129120424Y-90632657D01*
X129174000Y-90622000D01*
X129454000Y-90622000D01*
X129507576Y-90632657D01*
G37*
G36*
X130467576Y-90632657D02*
G01*
X130512995Y-90663005D01*
X130543343Y-90708424D01*
X130554000Y-90762000D01*
X130554000Y-91102000D01*
X130543343Y-91155576D01*
X130512995Y-91200995D01*
X130467576Y-91231343D01*
X130414000Y-91242000D01*
X130134000Y-91242000D01*
X130080424Y-91231343D01*
X130035005Y-91200995D01*
X130004657Y-91155576D01*
X129994000Y-91102000D01*
X129994000Y-90762000D01*
X130004657Y-90708424D01*
X130035005Y-90663005D01*
X130080424Y-90632657D01*
X130134000Y-90622000D01*
X130414000Y-90622000D01*
X130467576Y-90632657D01*
G37*
G36*
X146881500Y-90012579D02*
G01*
X145878200Y-90012579D01*
X145878200Y-89555379D01*
X146881500Y-89555379D01*
X146881500Y-90012579D01*
G37*
G36*
X149535800Y-90012579D02*
G01*
X148532500Y-90012579D01*
X148532500Y-89555379D01*
X149535800Y-89555379D01*
X149535800Y-90012579D01*
G37*
G36*
X156792150Y-89976778D02*
G01*
X155832150Y-89976778D01*
X155832150Y-89126778D01*
X156792150Y-89126778D01*
X156792150Y-89976778D01*
G37*
G36*
X142769900Y-89975900D02*
G01*
X141780100Y-89975900D01*
X141780100Y-89167900D01*
X142769900Y-89167900D01*
X142769900Y-89975900D01*
G37*
G36*
X129787403Y-88992418D02*
G01*
X129836066Y-89024934D01*
X129868582Y-89073597D01*
X129880000Y-89131000D01*
X129880000Y-89431000D01*
X129868582Y-89488403D01*
X129836066Y-89537066D01*
X129787403Y-89569582D01*
X129730000Y-89581000D01*
X128080000Y-89581000D01*
X128022597Y-89569582D01*
X127973934Y-89537066D01*
X127941418Y-89488403D01*
X127930000Y-89431000D01*
X127930000Y-89131000D01*
X127941418Y-89073597D01*
X127973934Y-89024934D01*
X128022597Y-88992418D01*
X128080000Y-88981000D01*
X129730000Y-88981000D01*
X129787403Y-88992418D01*
G37*
G36*
X134737403Y-88992418D02*
G01*
X134786066Y-89024934D01*
X134818582Y-89073597D01*
X134830000Y-89131000D01*
X134830000Y-89431000D01*
X134818582Y-89488403D01*
X134786066Y-89537066D01*
X134737403Y-89569582D01*
X134680000Y-89581000D01*
X133030000Y-89581000D01*
X132972597Y-89569582D01*
X132923934Y-89537066D01*
X132891418Y-89488403D01*
X132880000Y-89431000D01*
X132880000Y-89131000D01*
X132891418Y-89073597D01*
X132923934Y-89024934D01*
X132972597Y-88992418D01*
X133030000Y-88981000D01*
X134680000Y-88981000D01*
X134737403Y-88992418D01*
G37*
G36*
X146881500Y-89362593D02*
G01*
X145878200Y-89362593D01*
X145878200Y-88905393D01*
X146881500Y-88905393D01*
X146881500Y-89362593D01*
G37*
G36*
X149535800Y-89362593D02*
G01*
X148532500Y-89362593D01*
X148532500Y-88905393D01*
X149535800Y-88905393D01*
X149535800Y-89362593D01*
G37*
G36*
X146881500Y-88712607D02*
G01*
X145878200Y-88712607D01*
X145878200Y-88255407D01*
X146881500Y-88255407D01*
X146881500Y-88712607D01*
G37*
G36*
X149535800Y-88712607D02*
G01*
X148532500Y-88712607D01*
X148532500Y-88255407D01*
X149535800Y-88255407D01*
X149535800Y-88712607D01*
G37*
G36*
X151600000Y-88655000D02*
G01*
X150750000Y-88655000D01*
X150750000Y-87695000D01*
X151600000Y-87695000D01*
X151600000Y-88655000D01*
G37*
G36*
X153200000Y-88655000D02*
G01*
X152350000Y-88655000D01*
X152350000Y-87695000D01*
X153200000Y-87695000D01*
X153200000Y-88655000D01*
G37*
G36*
X142769900Y-88482100D02*
G01*
X141780100Y-88482100D01*
X141780100Y-87674100D01*
X142769900Y-87674100D01*
X142769900Y-88482100D01*
G37*
G36*
X156792150Y-88376778D02*
G01*
X155832150Y-88376778D01*
X155832150Y-87526778D01*
X156792150Y-87526778D01*
X156792150Y-88376778D01*
G37*
G36*
X129787403Y-87722418D02*
G01*
X129836066Y-87754934D01*
X129868582Y-87803597D01*
X129880000Y-87861000D01*
X129880000Y-88161000D01*
X129868582Y-88218403D01*
X129836066Y-88267066D01*
X129787403Y-88299582D01*
X129730000Y-88311000D01*
X128080000Y-88311000D01*
X128022597Y-88299582D01*
X127973934Y-88267066D01*
X127941418Y-88218403D01*
X127930000Y-88161000D01*
X127930000Y-87861000D01*
X127941418Y-87803597D01*
X127973934Y-87754934D01*
X128022597Y-87722418D01*
X128080000Y-87711000D01*
X129730000Y-87711000D01*
X129787403Y-87722418D01*
G37*
G36*
X134737403Y-87722418D02*
G01*
X134786066Y-87754934D01*
X134818582Y-87803597D01*
X134830000Y-87861000D01*
X134830000Y-88161000D01*
X134818582Y-88218403D01*
X134786066Y-88267066D01*
X134737403Y-88299582D01*
X134680000Y-88311000D01*
X133030000Y-88311000D01*
X132972597Y-88299582D01*
X132923934Y-88267066D01*
X132891418Y-88218403D01*
X132880000Y-88161000D01*
X132880000Y-87861000D01*
X132891418Y-87803597D01*
X132923934Y-87754934D01*
X132972597Y-87722418D01*
X133030000Y-87711000D01*
X134680000Y-87711000D01*
X134737403Y-87722418D01*
G37*
G36*
X146881500Y-88062621D02*
G01*
X145878200Y-88062621D01*
X145878200Y-87605421D01*
X146881500Y-87605421D01*
X146881500Y-88062621D01*
G37*
G36*
X149535800Y-88062621D02*
G01*
X148532500Y-88062621D01*
X148532500Y-87605421D01*
X149535800Y-87605421D01*
X149535800Y-88062621D01*
G37*
G36*
X144885000Y-87844000D02*
G01*
X143925000Y-87844000D01*
X143925000Y-86994000D01*
X144885000Y-86994000D01*
X144885000Y-87844000D01*
G37*
G36*
X129787403Y-86452418D02*
G01*
X129836066Y-86484934D01*
X129868582Y-86533597D01*
X129880000Y-86591000D01*
X129880000Y-86891000D01*
X129868582Y-86948403D01*
X129836066Y-86997066D01*
X129787403Y-87029582D01*
X129730000Y-87041000D01*
X128080000Y-87041000D01*
X128022597Y-87029582D01*
X127973934Y-86997066D01*
X127941418Y-86948403D01*
X127930000Y-86891000D01*
X127930000Y-86591000D01*
X127941418Y-86533597D01*
X127973934Y-86484934D01*
X128022597Y-86452418D01*
X128080000Y-86441000D01*
X129730000Y-86441000D01*
X129787403Y-86452418D01*
G37*
G36*
X134737403Y-86452418D02*
G01*
X134786066Y-86484934D01*
X134818582Y-86533597D01*
X134830000Y-86591000D01*
X134830000Y-86891000D01*
X134818582Y-86948403D01*
X134786066Y-86997066D01*
X134737403Y-87029582D01*
X134680000Y-87041000D01*
X133030000Y-87041000D01*
X132972597Y-87029582D01*
X132923934Y-86997066D01*
X132891418Y-86948403D01*
X132880000Y-86891000D01*
X132880000Y-86591000D01*
X132891418Y-86533597D01*
X132923934Y-86484934D01*
X132972597Y-86452418D01*
X133030000Y-86441000D01*
X134680000Y-86441000D01*
X134737403Y-86452418D01*
G37*
G36*
X151482100Y-86519900D02*
G01*
X150674100Y-86519900D01*
X150674100Y-85530100D01*
X151482100Y-85530100D01*
X151482100Y-86519900D01*
G37*
G36*
X152975900Y-86519900D02*
G01*
X152167900Y-86519900D01*
X152167900Y-85530100D01*
X152975900Y-85530100D01*
X152975900Y-86519900D01*
G37*
G36*
X144885000Y-86244000D02*
G01*
X143925000Y-86244000D01*
X143925000Y-85394000D01*
X144885000Y-85394000D01*
X144885000Y-86244000D01*
G37*
G36*
X129787403Y-85182418D02*
G01*
X129836066Y-85214934D01*
X129868582Y-85263597D01*
X129880000Y-85321000D01*
X129880000Y-85621000D01*
X129868582Y-85678403D01*
X129836066Y-85727066D01*
X129787403Y-85759582D01*
X129730000Y-85771000D01*
X128080000Y-85771000D01*
X128022597Y-85759582D01*
X127973934Y-85727066D01*
X127941418Y-85678403D01*
X127930000Y-85621000D01*
X127930000Y-85321000D01*
X127941418Y-85263597D01*
X127973934Y-85214934D01*
X128022597Y-85182418D01*
X128080000Y-85171000D01*
X129730000Y-85171000D01*
X129787403Y-85182418D01*
G37*
G36*
X134737403Y-85182418D02*
G01*
X134786066Y-85214934D01*
X134818582Y-85263597D01*
X134830000Y-85321000D01*
X134830000Y-85621000D01*
X134818582Y-85678403D01*
X134786066Y-85727066D01*
X134737403Y-85759582D01*
X134680000Y-85771000D01*
X133030000Y-85771000D01*
X132972597Y-85759582D01*
X132923934Y-85727066D01*
X132891418Y-85678403D01*
X132880000Y-85621000D01*
X132880000Y-85321000D01*
X132891418Y-85263597D01*
X132923934Y-85214934D01*
X132972597Y-85182418D01*
X133030000Y-85171000D01*
X134680000Y-85171000D01*
X134737403Y-85182418D01*
G37*
G36*
X158725000Y-85330000D02*
G01*
X157875000Y-85330000D01*
X157875000Y-84370000D01*
X158725000Y-84370000D01*
X158725000Y-85330000D01*
G37*
G36*
X160325000Y-85330000D02*
G01*
X159475000Y-85330000D01*
X159475000Y-84370000D01*
X160325000Y-84370000D01*
X160325000Y-85330000D01*
G37*
G36*
X156330000Y-85250000D02*
G01*
X155370000Y-85250000D01*
X155370000Y-84400000D01*
X156330000Y-84400000D01*
X156330000Y-85250000D01*
G37*
G36*
X129787403Y-83912418D02*
G01*
X129836066Y-83944934D01*
X129868582Y-83993597D01*
X129880000Y-84051000D01*
X129880000Y-84351000D01*
X129868582Y-84408403D01*
X129836066Y-84457066D01*
X129787403Y-84489582D01*
X129730000Y-84501000D01*
X128080000Y-84501000D01*
X128022597Y-84489582D01*
X127973934Y-84457066D01*
X127941418Y-84408403D01*
X127930000Y-84351000D01*
X127930000Y-84051000D01*
X127941418Y-83993597D01*
X127973934Y-83944934D01*
X128022597Y-83912418D01*
X128080000Y-83901000D01*
X129730000Y-83901000D01*
X129787403Y-83912418D01*
G37*
G36*
X134737403Y-83912418D02*
G01*
X134786066Y-83944934D01*
X134818582Y-83993597D01*
X134830000Y-84051000D01*
X134830000Y-84351000D01*
X134818582Y-84408403D01*
X134786066Y-84457066D01*
X134737403Y-84489582D01*
X134680000Y-84501000D01*
X133030000Y-84501000D01*
X132972597Y-84489582D01*
X132923934Y-84457066D01*
X132891418Y-84408403D01*
X132880000Y-84351000D01*
X132880000Y-84051000D01*
X132891418Y-83993597D01*
X132923934Y-83944934D01*
X132972597Y-83912418D01*
X133030000Y-83901000D01*
X134680000Y-83901000D01*
X134737403Y-83912418D01*
G37*
G36*
X150000602Y-83915499D02*
G01*
X148672702Y-83915499D01*
X148672702Y-83484499D01*
X150000602Y-83484499D01*
X150000602Y-83915499D01*
G37*
G36*
X154427298Y-83915499D02*
G01*
X153099398Y-83915499D01*
X153099398Y-83484499D01*
X154427298Y-83484499D01*
X154427298Y-83915499D01*
G37*
G36*
X156330000Y-83650000D02*
G01*
X155370000Y-83650000D01*
X155370000Y-82800000D01*
X156330000Y-82800000D01*
X156330000Y-83650000D01*
G37*
G36*
X147077500Y-83500900D02*
G01*
X145122500Y-83500900D01*
X145122500Y-82595300D01*
X147077500Y-82595300D01*
X147077500Y-83500900D01*
G37*
G36*
X150000602Y-83265501D02*
G01*
X148672702Y-83265501D01*
X148672702Y-82834501D01*
X150000602Y-82834501D01*
X150000602Y-83265501D01*
G37*
G36*
X154427298Y-83265501D02*
G01*
X153099398Y-83265501D01*
X153099398Y-82834501D01*
X154427298Y-82834501D01*
X154427298Y-83265501D01*
G37*
G36*
X129787403Y-82642418D02*
G01*
X129836066Y-82674934D01*
X129868582Y-82723597D01*
X129880000Y-82781000D01*
X129880000Y-83081000D01*
X129868582Y-83138403D01*
X129836066Y-83187066D01*
X129787403Y-83219582D01*
X129730000Y-83231000D01*
X128080000Y-83231000D01*
X128022597Y-83219582D01*
X127973934Y-83187066D01*
X127941418Y-83138403D01*
X127930000Y-83081000D01*
X127930000Y-82781000D01*
X127941418Y-82723597D01*
X127973934Y-82674934D01*
X128022597Y-82642418D01*
X128080000Y-82631000D01*
X129730000Y-82631000D01*
X129787403Y-82642418D01*
G37*
G36*
X134737403Y-82642418D02*
G01*
X134786066Y-82674934D01*
X134818582Y-82723597D01*
X134830000Y-82781000D01*
X134830000Y-83081000D01*
X134818582Y-83138403D01*
X134786066Y-83187066D01*
X134737403Y-83219582D01*
X134680000Y-83231000D01*
X133030000Y-83231000D01*
X132972597Y-83219582D01*
X132923934Y-83187066D01*
X132891418Y-83138403D01*
X132880000Y-83081000D01*
X132880000Y-82781000D01*
X132891418Y-82723597D01*
X132923934Y-82674934D01*
X132972597Y-82642418D01*
X133030000Y-82631000D01*
X134680000Y-82631000D01*
X134737403Y-82642418D01*
G37*
G36*
X158732100Y-83119900D02*
G01*
X157924100Y-83119900D01*
X157924100Y-82130100D01*
X158732100Y-82130100D01*
X158732100Y-83119900D01*
G37*
G36*
X160225900Y-83119900D02*
G01*
X159417900Y-83119900D01*
X159417900Y-82130100D01*
X160225900Y-82130100D01*
X160225900Y-83119900D01*
G37*
G36*
X150000602Y-82615499D02*
G01*
X148672702Y-82615499D01*
X148672702Y-82184499D01*
X150000602Y-82184499D01*
X150000602Y-82615499D01*
G37*
G36*
X154427298Y-82615499D02*
G01*
X153099398Y-82615499D01*
X153099398Y-82184499D01*
X154427298Y-82184499D01*
X154427298Y-82615499D01*
G37*
G36*
X150000602Y-81965501D02*
G01*
X148672702Y-81965501D01*
X148672702Y-81534501D01*
X150000602Y-81534501D01*
X150000602Y-81965501D01*
G37*
G36*
X154427298Y-81965501D02*
G01*
X153099398Y-81965501D01*
X153099398Y-81534501D01*
X154427298Y-81534501D01*
X154427298Y-81965501D01*
G37*
G36*
X129787403Y-81372418D02*
G01*
X129836066Y-81404934D01*
X129868582Y-81453597D01*
X129880000Y-81511000D01*
X129880000Y-81811000D01*
X129868582Y-81868403D01*
X129836066Y-81917066D01*
X129787403Y-81949582D01*
X129730000Y-81961000D01*
X128080000Y-81961000D01*
X128022597Y-81949582D01*
X127973934Y-81917066D01*
X127941418Y-81868403D01*
X127930000Y-81811000D01*
X127930000Y-81511000D01*
X127941418Y-81453597D01*
X127973934Y-81404934D01*
X128022597Y-81372418D01*
X128080000Y-81361000D01*
X129730000Y-81361000D01*
X129787403Y-81372418D01*
G37*
G36*
X134737403Y-81372418D02*
G01*
X134786066Y-81404934D01*
X134818582Y-81453597D01*
X134830000Y-81511000D01*
X134830000Y-81811000D01*
X134818582Y-81868403D01*
X134786066Y-81917066D01*
X134737403Y-81949582D01*
X134680000Y-81961000D01*
X133030000Y-81961000D01*
X132972597Y-81949582D01*
X132923934Y-81917066D01*
X132891418Y-81868403D01*
X132880000Y-81811000D01*
X132880000Y-81511000D01*
X132891418Y-81453597D01*
X132923934Y-81404934D01*
X132972597Y-81372418D01*
X133030000Y-81361000D01*
X134680000Y-81361000D01*
X134737403Y-81372418D01*
G37*
G36*
X147077500Y-81604700D02*
G01*
X145122500Y-81604700D01*
X145122500Y-80699100D01*
X147077500Y-80699100D01*
X147077500Y-81604700D01*
G37*
G36*
X127350576Y-80982657D02*
G01*
X127395995Y-81013005D01*
X127426343Y-81058424D01*
X127437000Y-81112000D01*
X127437000Y-81392000D01*
X127426343Y-81445576D01*
X127395995Y-81490995D01*
X127350576Y-81521343D01*
X127297000Y-81532000D01*
X126957000Y-81532000D01*
X126903424Y-81521343D01*
X126858005Y-81490995D01*
X126827657Y-81445576D01*
X126817000Y-81392000D01*
X126817000Y-81112000D01*
X126827657Y-81058424D01*
X126858005Y-81013005D01*
X126903424Y-80982657D01*
X126957000Y-80972000D01*
X127297000Y-80972000D01*
X127350576Y-80982657D01*
G37*
G36*
X129787403Y-80102418D02*
G01*
X129836066Y-80134934D01*
X129868582Y-80183597D01*
X129880000Y-80241000D01*
X129880000Y-80541000D01*
X129868582Y-80598403D01*
X129836066Y-80647066D01*
X129787403Y-80679582D01*
X129730000Y-80691000D01*
X128080000Y-80691000D01*
X128022597Y-80679582D01*
X127973934Y-80647066D01*
X127941418Y-80598403D01*
X127930000Y-80541000D01*
X127930000Y-80241000D01*
X127941418Y-80183597D01*
X127973934Y-80134934D01*
X128022597Y-80102418D01*
X128080000Y-80091000D01*
X129730000Y-80091000D01*
X129787403Y-80102418D01*
G37*
G36*
X134737403Y-80102418D02*
G01*
X134786066Y-80134934D01*
X134818582Y-80183597D01*
X134830000Y-80241000D01*
X134830000Y-80541000D01*
X134818582Y-80598403D01*
X134786066Y-80647066D01*
X134737403Y-80679582D01*
X134680000Y-80691000D01*
X133030000Y-80691000D01*
X132972597Y-80679582D01*
X132923934Y-80647066D01*
X132891418Y-80598403D01*
X132880000Y-80541000D01*
X132880000Y-80241000D01*
X132891418Y-80183597D01*
X132923934Y-80134934D01*
X132972597Y-80102418D01*
X133030000Y-80091000D01*
X134680000Y-80091000D01*
X134737403Y-80102418D01*
G37*
G36*
X127350576Y-80022657D02*
G01*
X127395995Y-80053005D01*
X127426343Y-80098424D01*
X127437000Y-80152000D01*
X127437000Y-80432000D01*
X127426343Y-80485576D01*
X127395995Y-80530995D01*
X127350576Y-80561343D01*
X127297000Y-80572000D01*
X126957000Y-80572000D01*
X126903424Y-80561343D01*
X126858005Y-80530995D01*
X126827657Y-80485576D01*
X126817000Y-80432000D01*
X126817000Y-80152000D01*
X126827657Y-80098424D01*
X126858005Y-80053005D01*
X126903424Y-80022657D01*
X126957000Y-80012000D01*
X127297000Y-80012000D01*
X127350576Y-80022657D01*
G37*
G36*
X129770672Y-74886508D02*
G01*
X130010735Y-74950833D01*
X130240349Y-75045942D01*
X130455583Y-75170208D01*
X130652757Y-75321504D01*
X130828496Y-75497243D01*
X130979792Y-75694417D01*
X131104058Y-75909651D01*
X131199167Y-76139265D01*
X131263492Y-76379328D01*
X131295932Y-76625734D01*
X131295932Y-76874266D01*
X131263492Y-77120672D01*
X131199167Y-77360735D01*
X131104058Y-77590349D01*
X130979792Y-77805583D01*
X130828496Y-78002757D01*
X130652757Y-78178496D01*
X130455583Y-78329792D01*
X130240349Y-78454058D01*
X130010735Y-78549167D01*
X129770672Y-78613492D01*
X129524266Y-78645932D01*
X129275734Y-78645932D01*
X129029328Y-78613492D01*
X128789265Y-78549167D01*
X128559651Y-78454058D01*
X128344417Y-78329792D01*
X128147243Y-78178496D01*
X127971504Y-78002757D01*
X127820208Y-77805583D01*
X127695942Y-77590349D01*
X127600833Y-77360735D01*
X127536508Y-77120672D01*
X127504068Y-76874266D01*
X127504068Y-76625734D01*
X127536508Y-76379328D01*
X127600833Y-76139265D01*
X127695942Y-75909651D01*
X127820208Y-75694417D01*
X127971504Y-75497243D01*
X128147243Y-75321504D01*
X128344417Y-75170208D01*
X128559651Y-75045942D01*
X128789265Y-74950833D01*
X129029328Y-74886508D01*
X129275734Y-74854068D01*
X129524266Y-74854068D01*
X129770672Y-74886508D01*
G37*
G36*
X163270672Y-74886508D02*
G01*
X163510735Y-74950833D01*
X163740349Y-75045942D01*
X163955583Y-75170208D01*
X164152757Y-75321504D01*
X164328496Y-75497243D01*
X164479792Y-75694417D01*
X164604058Y-75909651D01*
X164699167Y-76139265D01*
X164763492Y-76379328D01*
X164795932Y-76625734D01*
X164795932Y-76874266D01*
X164763492Y-77120672D01*
X164699167Y-77360735D01*
X164604058Y-77590349D01*
X164479792Y-77805583D01*
X164328496Y-78002757D01*
X164152757Y-78178496D01*
X163955583Y-78329792D01*
X163740349Y-78454058D01*
X163510735Y-78549167D01*
X163270672Y-78613492D01*
X163024266Y-78645932D01*
X162775734Y-78645932D01*
X162529328Y-78613492D01*
X162289265Y-78549167D01*
X162059651Y-78454058D01*
X161844417Y-78329792D01*
X161647243Y-78178496D01*
X161471504Y-78002757D01*
X161320208Y-77805583D01*
X161195942Y-77590349D01*
X161100833Y-77360735D01*
X161036508Y-77120672D01*
X161004068Y-76874266D01*
X161004068Y-76625734D01*
X161036508Y-76379328D01*
X161100833Y-76139265D01*
X161195942Y-75909651D01*
X161320208Y-75694417D01*
X161471504Y-75497243D01*
X161647243Y-75321504D01*
X161844417Y-75170208D01*
X162059651Y-75045942D01*
X162289265Y-74950833D01*
X162529328Y-74886508D01*
X162775734Y-74854068D01*
X163024266Y-74854068D01*
X163270672Y-74886508D01*
G37*
G36*
X143483034Y-74914264D02*
G01*
X143516125Y-74936375D01*
X143538236Y-74969466D01*
X143546000Y-75008500D01*
X143546000Y-76516500D01*
X143538236Y-76555534D01*
X143516125Y-76588625D01*
X143483034Y-76610736D01*
X143444000Y-76618500D01*
X141936000Y-76618500D01*
X141896966Y-76610736D01*
X141863875Y-76588625D01*
X141841764Y-76555534D01*
X141834000Y-76516500D01*
X141834000Y-75008500D01*
X141841764Y-74969466D01*
X141863875Y-74936375D01*
X141896966Y-74914264D01*
X141936000Y-74906500D01*
X143444000Y-74906500D01*
X143483034Y-74914264D01*
G37*
G36*
X145478484Y-74943359D02*
G01*
X145633516Y-75007575D01*
X145773041Y-75100803D01*
X145891697Y-75219459D01*
X145984925Y-75358984D01*
X146049141Y-75514016D01*
X146081878Y-75678597D01*
X146081878Y-75846403D01*
X146049141Y-76010984D01*
X145984925Y-76166016D01*
X145891697Y-76305541D01*
X145773041Y-76424197D01*
X145633516Y-76517425D01*
X145478484Y-76581641D01*
X145313903Y-76614378D01*
X145146097Y-76614378D01*
X144981516Y-76581641D01*
X144826484Y-76517425D01*
X144686959Y-76424197D01*
X144568303Y-76305541D01*
X144475075Y-76166016D01*
X144410859Y-76010984D01*
X144378122Y-75846403D01*
X144378122Y-75678597D01*
X144410859Y-75514016D01*
X144475075Y-75358984D01*
X144568303Y-75219459D01*
X144686959Y-75100803D01*
X144826484Y-75007575D01*
X144981516Y-74943359D01*
X145146097Y-74910622D01*
X145313903Y-74910622D01*
X145478484Y-74943359D01*
G37*
G36*
X148018484Y-74943359D02*
G01*
X148173516Y-75007575D01*
X148313041Y-75100803D01*
X148431697Y-75219459D01*
X148524925Y-75358984D01*
X148589141Y-75514016D01*
X148621878Y-75678597D01*
X148621878Y-75846403D01*
X148589141Y-76010984D01*
X148524925Y-76166016D01*
X148431697Y-76305541D01*
X148313041Y-76424197D01*
X148173516Y-76517425D01*
X148018484Y-76581641D01*
X147853903Y-76614378D01*
X147686097Y-76614378D01*
X147521516Y-76581641D01*
X147366484Y-76517425D01*
X147226959Y-76424197D01*
X147108303Y-76305541D01*
X147015075Y-76166016D01*
X146950859Y-76010984D01*
X146918122Y-75846403D01*
X146918122Y-75678597D01*
X146950859Y-75514016D01*
X147015075Y-75358984D01*
X147108303Y-75219459D01*
X147226959Y-75100803D01*
X147366484Y-75007575D01*
X147521516Y-74943359D01*
X147686097Y-74910622D01*
X147853903Y-74910622D01*
X148018484Y-74943359D01*
G37*
G36*
X150558484Y-74943359D02*
G01*
X150713516Y-75007575D01*
X150853041Y-75100803D01*
X150971697Y-75219459D01*
X151064925Y-75358984D01*
X151129141Y-75514016D01*
X151161878Y-75678597D01*
X151161878Y-75846403D01*
X151129141Y-76010984D01*
X151064925Y-76166016D01*
X150971697Y-76305541D01*
X150853041Y-76424197D01*
X150713516Y-76517425D01*
X150558484Y-76581641D01*
X150393903Y-76614378D01*
X150226097Y-76614378D01*
X150061516Y-76581641D01*
X149906484Y-76517425D01*
X149766959Y-76424197D01*
X149648303Y-76305541D01*
X149555075Y-76166016D01*
X149490859Y-76010984D01*
X149458122Y-75846403D01*
X149458122Y-75678597D01*
X149490859Y-75514016D01*
X149555075Y-75358984D01*
X149648303Y-75219459D01*
X149766959Y-75100803D01*
X149906484Y-75007575D01*
X150061516Y-74943359D01*
X150226097Y-74910622D01*
X150393903Y-74910622D01*
X150558484Y-74943359D01*
G37*
M02*
