%TF.GenerationSoftware,KiCad,Pcbnew,9.0.7*%
%TF.CreationDate,2026-04-25T22:31:22-07:00*%
%TF.ProjectId,Primary_Board,5072696d-6172-4795-9f42-6f6172642e6b,rev?*%
%TF.SameCoordinates,Original*%
%TF.FileFunction,Legend,Bot*%
%TF.FilePolarity,Positive*%
%FSLAX46Y46*%
G04 Gerber Fmt 4.6, Leading zero omitted, Abs format (unit mm)*
G04 Created by KiCad (PCBNEW 9.0.7) date 2026-04-25 22:31:22*
%MOMM*%
%LPD*%
G01*
G04 APERTURE LIST*
%ADD10C,0.150000*%
%ADD11C,0.152400*%
%ADD12C,0.120000*%
G04 APERTURE END LIST*
D10*
X157383332Y-99862295D02*
X157649999Y-99481342D01*
X157840475Y-99862295D02*
X157840475Y-99062295D01*
X157840475Y-99062295D02*
X157535713Y-99062295D01*
X157535713Y-99062295D02*
X157459523Y-99100390D01*
X157459523Y-99100390D02*
X157421428Y-99138485D01*
X157421428Y-99138485D02*
X157383332Y-99214676D01*
X157383332Y-99214676D02*
X157383332Y-99328961D01*
X157383332Y-99328961D02*
X157421428Y-99405152D01*
X157421428Y-99405152D02*
X157459523Y-99443247D01*
X157459523Y-99443247D02*
X157535713Y-99481342D01*
X157535713Y-99481342D02*
X157840475Y-99481342D01*
X157002380Y-99862295D02*
X156849999Y-99862295D01*
X156849999Y-99862295D02*
X156773809Y-99824200D01*
X156773809Y-99824200D02*
X156735713Y-99786104D01*
X156735713Y-99786104D02*
X156659523Y-99671819D01*
X156659523Y-99671819D02*
X156621428Y-99519438D01*
X156621428Y-99519438D02*
X156621428Y-99214676D01*
X156621428Y-99214676D02*
X156659523Y-99138485D01*
X156659523Y-99138485D02*
X156697618Y-99100390D01*
X156697618Y-99100390D02*
X156773809Y-99062295D01*
X156773809Y-99062295D02*
X156926190Y-99062295D01*
X156926190Y-99062295D02*
X157002380Y-99100390D01*
X157002380Y-99100390D02*
X157040475Y-99138485D01*
X157040475Y-99138485D02*
X157078571Y-99214676D01*
X157078571Y-99214676D02*
X157078571Y-99405152D01*
X157078571Y-99405152D02*
X157040475Y-99481342D01*
X157040475Y-99481342D02*
X157002380Y-99519438D01*
X157002380Y-99519438D02*
X156926190Y-99557533D01*
X156926190Y-99557533D02*
X156773809Y-99557533D01*
X156773809Y-99557533D02*
X156697618Y-99519438D01*
X156697618Y-99519438D02*
X156659523Y-99481342D01*
X156659523Y-99481342D02*
X156621428Y-99405152D01*
X147833332Y-94987295D02*
X148099999Y-94606342D01*
X148290475Y-94987295D02*
X148290475Y-94187295D01*
X148290475Y-94187295D02*
X147985713Y-94187295D01*
X147985713Y-94187295D02*
X147909523Y-94225390D01*
X147909523Y-94225390D02*
X147871428Y-94263485D01*
X147871428Y-94263485D02*
X147833332Y-94339676D01*
X147833332Y-94339676D02*
X147833332Y-94453961D01*
X147833332Y-94453961D02*
X147871428Y-94530152D01*
X147871428Y-94530152D02*
X147909523Y-94568247D01*
X147909523Y-94568247D02*
X147985713Y-94606342D01*
X147985713Y-94606342D02*
X148290475Y-94606342D01*
X147109523Y-94187295D02*
X147490475Y-94187295D01*
X147490475Y-94187295D02*
X147528571Y-94568247D01*
X147528571Y-94568247D02*
X147490475Y-94530152D01*
X147490475Y-94530152D02*
X147414285Y-94492057D01*
X147414285Y-94492057D02*
X147223809Y-94492057D01*
X147223809Y-94492057D02*
X147147618Y-94530152D01*
X147147618Y-94530152D02*
X147109523Y-94568247D01*
X147109523Y-94568247D02*
X147071428Y-94644438D01*
X147071428Y-94644438D02*
X147071428Y-94834914D01*
X147071428Y-94834914D02*
X147109523Y-94911104D01*
X147109523Y-94911104D02*
X147147618Y-94949200D01*
X147147618Y-94949200D02*
X147223809Y-94987295D01*
X147223809Y-94987295D02*
X147414285Y-94987295D01*
X147414285Y-94987295D02*
X147490475Y-94949200D01*
X147490475Y-94949200D02*
X147528571Y-94911104D01*
X146845238Y-79915895D02*
X147226190Y-79915895D01*
X147226190Y-79915895D02*
X147226190Y-79115895D01*
X146578571Y-79496847D02*
X146311905Y-79496847D01*
X146197619Y-79915895D02*
X146578571Y-79915895D01*
X146578571Y-79915895D02*
X146578571Y-79115895D01*
X146578571Y-79115895D02*
X146197619Y-79115895D01*
X145854761Y-79915895D02*
X145854761Y-79115895D01*
X145854761Y-79115895D02*
X145664285Y-79115895D01*
X145664285Y-79115895D02*
X145549999Y-79153990D01*
X145549999Y-79153990D02*
X145473809Y-79230180D01*
X145473809Y-79230180D02*
X145435714Y-79306371D01*
X145435714Y-79306371D02*
X145397618Y-79458752D01*
X145397618Y-79458752D02*
X145397618Y-79573038D01*
X145397618Y-79573038D02*
X145435714Y-79725419D01*
X145435714Y-79725419D02*
X145473809Y-79801609D01*
X145473809Y-79801609D02*
X145549999Y-79877800D01*
X145549999Y-79877800D02*
X145664285Y-79915895D01*
X145664285Y-79915895D02*
X145854761Y-79915895D01*
X144635714Y-79915895D02*
X145092857Y-79915895D01*
X144864285Y-79915895D02*
X144864285Y-79115895D01*
X144864285Y-79115895D02*
X144940476Y-79230180D01*
X144940476Y-79230180D02*
X145016666Y-79306371D01*
X145016666Y-79306371D02*
X145092857Y-79344466D01*
X152383332Y-90589288D02*
X152649999Y-90208335D01*
X152840475Y-90589288D02*
X152840475Y-89789288D01*
X152840475Y-89789288D02*
X152535713Y-89789288D01*
X152535713Y-89789288D02*
X152459523Y-89827383D01*
X152459523Y-89827383D02*
X152421428Y-89865478D01*
X152421428Y-89865478D02*
X152383332Y-89941669D01*
X152383332Y-89941669D02*
X152383332Y-90055954D01*
X152383332Y-90055954D02*
X152421428Y-90132145D01*
X152421428Y-90132145D02*
X152459523Y-90170240D01*
X152459523Y-90170240D02*
X152535713Y-90208335D01*
X152535713Y-90208335D02*
X152840475Y-90208335D01*
X151697618Y-90055954D02*
X151697618Y-90589288D01*
X151888094Y-89751193D02*
X152078571Y-90322621D01*
X152078571Y-90322621D02*
X151583332Y-90322621D01*
X157464285Y-95237295D02*
X157730952Y-94856342D01*
X157921428Y-95237295D02*
X157921428Y-94437295D01*
X157921428Y-94437295D02*
X157616666Y-94437295D01*
X157616666Y-94437295D02*
X157540476Y-94475390D01*
X157540476Y-94475390D02*
X157502381Y-94513485D01*
X157502381Y-94513485D02*
X157464285Y-94589676D01*
X157464285Y-94589676D02*
X157464285Y-94703961D01*
X157464285Y-94703961D02*
X157502381Y-94780152D01*
X157502381Y-94780152D02*
X157540476Y-94818247D01*
X157540476Y-94818247D02*
X157616666Y-94856342D01*
X157616666Y-94856342D02*
X157921428Y-94856342D01*
X156702381Y-95237295D02*
X157159524Y-95237295D01*
X156930952Y-95237295D02*
X156930952Y-94437295D01*
X156930952Y-94437295D02*
X157007143Y-94551580D01*
X157007143Y-94551580D02*
X157083333Y-94627771D01*
X157083333Y-94627771D02*
X157159524Y-94665866D01*
X156435714Y-94437295D02*
X155902380Y-94437295D01*
X155902380Y-94437295D02*
X156245238Y-95237295D01*
X154907182Y-99655402D02*
X155173849Y-99274449D01*
X155364325Y-99655402D02*
X155364325Y-98855402D01*
X155364325Y-98855402D02*
X155059563Y-98855402D01*
X155059563Y-98855402D02*
X154983373Y-98893497D01*
X154983373Y-98893497D02*
X154945278Y-98931592D01*
X154945278Y-98931592D02*
X154907182Y-99007783D01*
X154907182Y-99007783D02*
X154907182Y-99122068D01*
X154907182Y-99122068D02*
X154945278Y-99198259D01*
X154945278Y-99198259D02*
X154983373Y-99236354D01*
X154983373Y-99236354D02*
X155059563Y-99274449D01*
X155059563Y-99274449D02*
X155364325Y-99274449D01*
X154450040Y-99198259D02*
X154526230Y-99160164D01*
X154526230Y-99160164D02*
X154564325Y-99122068D01*
X154564325Y-99122068D02*
X154602421Y-99045878D01*
X154602421Y-99045878D02*
X154602421Y-99007783D01*
X154602421Y-99007783D02*
X154564325Y-98931592D01*
X154564325Y-98931592D02*
X154526230Y-98893497D01*
X154526230Y-98893497D02*
X154450040Y-98855402D01*
X154450040Y-98855402D02*
X154297659Y-98855402D01*
X154297659Y-98855402D02*
X154221468Y-98893497D01*
X154221468Y-98893497D02*
X154183373Y-98931592D01*
X154183373Y-98931592D02*
X154145278Y-99007783D01*
X154145278Y-99007783D02*
X154145278Y-99045878D01*
X154145278Y-99045878D02*
X154183373Y-99122068D01*
X154183373Y-99122068D02*
X154221468Y-99160164D01*
X154221468Y-99160164D02*
X154297659Y-99198259D01*
X154297659Y-99198259D02*
X154450040Y-99198259D01*
X154450040Y-99198259D02*
X154526230Y-99236354D01*
X154526230Y-99236354D02*
X154564325Y-99274449D01*
X154564325Y-99274449D02*
X154602421Y-99350640D01*
X154602421Y-99350640D02*
X154602421Y-99503021D01*
X154602421Y-99503021D02*
X154564325Y-99579211D01*
X154564325Y-99579211D02*
X154526230Y-99617307D01*
X154526230Y-99617307D02*
X154450040Y-99655402D01*
X154450040Y-99655402D02*
X154297659Y-99655402D01*
X154297659Y-99655402D02*
X154221468Y-99617307D01*
X154221468Y-99617307D02*
X154183373Y-99579211D01*
X154183373Y-99579211D02*
X154145278Y-99503021D01*
X154145278Y-99503021D02*
X154145278Y-99350640D01*
X154145278Y-99350640D02*
X154183373Y-99274449D01*
X154183373Y-99274449D02*
X154221468Y-99236354D01*
X154221468Y-99236354D02*
X154297659Y-99198259D01*
X136899428Y-120075485D02*
X136699428Y-120075485D01*
X136613714Y-120389771D02*
X136899428Y-120389771D01*
X136899428Y-120389771D02*
X136899428Y-119789771D01*
X136899428Y-119789771D02*
X136613714Y-119789771D01*
X136385143Y-120361200D02*
X136299429Y-120389771D01*
X136299429Y-120389771D02*
X136156571Y-120389771D01*
X136156571Y-120389771D02*
X136099429Y-120361200D01*
X136099429Y-120361200D02*
X136070857Y-120332628D01*
X136070857Y-120332628D02*
X136042286Y-120275485D01*
X136042286Y-120275485D02*
X136042286Y-120218342D01*
X136042286Y-120218342D02*
X136070857Y-120161200D01*
X136070857Y-120161200D02*
X136099429Y-120132628D01*
X136099429Y-120132628D02*
X136156571Y-120104057D01*
X136156571Y-120104057D02*
X136270857Y-120075485D01*
X136270857Y-120075485D02*
X136328000Y-120046914D01*
X136328000Y-120046914D02*
X136356571Y-120018342D01*
X136356571Y-120018342D02*
X136385143Y-119961200D01*
X136385143Y-119961200D02*
X136385143Y-119904057D01*
X136385143Y-119904057D02*
X136356571Y-119846914D01*
X136356571Y-119846914D02*
X136328000Y-119818342D01*
X136328000Y-119818342D02*
X136270857Y-119789771D01*
X136270857Y-119789771D02*
X136128000Y-119789771D01*
X136128000Y-119789771D02*
X136042286Y-119818342D01*
X135785142Y-120389771D02*
X135785142Y-119789771D01*
X135785142Y-119789771D02*
X135556571Y-119789771D01*
X135556571Y-119789771D02*
X135499428Y-119818342D01*
X135499428Y-119818342D02*
X135470857Y-119846914D01*
X135470857Y-119846914D02*
X135442285Y-119904057D01*
X135442285Y-119904057D02*
X135442285Y-119989771D01*
X135442285Y-119989771D02*
X135470857Y-120046914D01*
X135470857Y-120046914D02*
X135499428Y-120075485D01*
X135499428Y-120075485D02*
X135556571Y-120104057D01*
X135556571Y-120104057D02*
X135785142Y-120104057D01*
X135328000Y-120446914D02*
X134870857Y-120446914D01*
X134785142Y-119789771D02*
X134413714Y-119789771D01*
X134413714Y-119789771D02*
X134613714Y-120018342D01*
X134613714Y-120018342D02*
X134527999Y-120018342D01*
X134527999Y-120018342D02*
X134470857Y-120046914D01*
X134470857Y-120046914D02*
X134442285Y-120075485D01*
X134442285Y-120075485D02*
X134413714Y-120132628D01*
X134413714Y-120132628D02*
X134413714Y-120275485D01*
X134413714Y-120275485D02*
X134442285Y-120332628D01*
X134442285Y-120332628D02*
X134470857Y-120361200D01*
X134470857Y-120361200D02*
X134527999Y-120389771D01*
X134527999Y-120389771D02*
X134699428Y-120389771D01*
X134699428Y-120389771D02*
X134756571Y-120361200D01*
X134756571Y-120361200D02*
X134785142Y-120332628D01*
X134242285Y-119789771D02*
X134042285Y-120389771D01*
X134042285Y-120389771D02*
X133842285Y-119789771D01*
X133699427Y-119789771D02*
X133327999Y-119789771D01*
X133327999Y-119789771D02*
X133527999Y-120018342D01*
X133527999Y-120018342D02*
X133442284Y-120018342D01*
X133442284Y-120018342D02*
X133385142Y-120046914D01*
X133385142Y-120046914D02*
X133356570Y-120075485D01*
X133356570Y-120075485D02*
X133327999Y-120132628D01*
X133327999Y-120132628D02*
X133327999Y-120275485D01*
X133327999Y-120275485D02*
X133356570Y-120332628D01*
X133356570Y-120332628D02*
X133385142Y-120361200D01*
X133385142Y-120361200D02*
X133442284Y-120389771D01*
X133442284Y-120389771D02*
X133613713Y-120389771D01*
X133613713Y-120389771D02*
X133670856Y-120361200D01*
X133670856Y-120361200D02*
X133699427Y-120332628D01*
X151241271Y-111527285D02*
X150955557Y-111327285D01*
X151241271Y-111184428D02*
X150641271Y-111184428D01*
X150641271Y-111184428D02*
X150641271Y-111412999D01*
X150641271Y-111412999D02*
X150669842Y-111470142D01*
X150669842Y-111470142D02*
X150698414Y-111498713D01*
X150698414Y-111498713D02*
X150755557Y-111527285D01*
X150755557Y-111527285D02*
X150841271Y-111527285D01*
X150841271Y-111527285D02*
X150898414Y-111498713D01*
X150898414Y-111498713D02*
X150926985Y-111470142D01*
X150926985Y-111470142D02*
X150955557Y-111412999D01*
X150955557Y-111412999D02*
X150955557Y-111184428D01*
X151241271Y-112098713D02*
X151241271Y-111755856D01*
X151241271Y-111927285D02*
X150641271Y-111927285D01*
X150641271Y-111927285D02*
X150726985Y-111870142D01*
X150726985Y-111870142D02*
X150784128Y-111812999D01*
X150784128Y-111812999D02*
X150812700Y-111755856D01*
X150898414Y-112441571D02*
X150869842Y-112384428D01*
X150869842Y-112384428D02*
X150841271Y-112355857D01*
X150841271Y-112355857D02*
X150784128Y-112327285D01*
X150784128Y-112327285D02*
X150755557Y-112327285D01*
X150755557Y-112327285D02*
X150698414Y-112355857D01*
X150698414Y-112355857D02*
X150669842Y-112384428D01*
X150669842Y-112384428D02*
X150641271Y-112441571D01*
X150641271Y-112441571D02*
X150641271Y-112555857D01*
X150641271Y-112555857D02*
X150669842Y-112613000D01*
X150669842Y-112613000D02*
X150698414Y-112641571D01*
X150698414Y-112641571D02*
X150755557Y-112670142D01*
X150755557Y-112670142D02*
X150784128Y-112670142D01*
X150784128Y-112670142D02*
X150841271Y-112641571D01*
X150841271Y-112641571D02*
X150869842Y-112613000D01*
X150869842Y-112613000D02*
X150898414Y-112555857D01*
X150898414Y-112555857D02*
X150898414Y-112441571D01*
X150898414Y-112441571D02*
X150926985Y-112384428D01*
X150926985Y-112384428D02*
X150955557Y-112355857D01*
X150955557Y-112355857D02*
X151012700Y-112327285D01*
X151012700Y-112327285D02*
X151126985Y-112327285D01*
X151126985Y-112327285D02*
X151184128Y-112355857D01*
X151184128Y-112355857D02*
X151212700Y-112384428D01*
X151212700Y-112384428D02*
X151241271Y-112441571D01*
X151241271Y-112441571D02*
X151241271Y-112555857D01*
X151241271Y-112555857D02*
X151212700Y-112613000D01*
X151212700Y-112613000D02*
X151184128Y-112641571D01*
X151184128Y-112641571D02*
X151126985Y-112670142D01*
X151126985Y-112670142D02*
X151012700Y-112670142D01*
X151012700Y-112670142D02*
X150955557Y-112641571D01*
X150955557Y-112641571D02*
X150926985Y-112613000D01*
X150926985Y-112613000D02*
X150898414Y-112555857D01*
X156183332Y-82236104D02*
X156221428Y-82274200D01*
X156221428Y-82274200D02*
X156335713Y-82312295D01*
X156335713Y-82312295D02*
X156411904Y-82312295D01*
X156411904Y-82312295D02*
X156526190Y-82274200D01*
X156526190Y-82274200D02*
X156602380Y-82198009D01*
X156602380Y-82198009D02*
X156640475Y-82121819D01*
X156640475Y-82121819D02*
X156678571Y-81969438D01*
X156678571Y-81969438D02*
X156678571Y-81855152D01*
X156678571Y-81855152D02*
X156640475Y-81702771D01*
X156640475Y-81702771D02*
X156602380Y-81626580D01*
X156602380Y-81626580D02*
X156526190Y-81550390D01*
X156526190Y-81550390D02*
X156411904Y-81512295D01*
X156411904Y-81512295D02*
X156335713Y-81512295D01*
X156335713Y-81512295D02*
X156221428Y-81550390D01*
X156221428Y-81550390D02*
X156183332Y-81588485D01*
X155916666Y-81512295D02*
X155421428Y-81512295D01*
X155421428Y-81512295D02*
X155688094Y-81817057D01*
X155688094Y-81817057D02*
X155573809Y-81817057D01*
X155573809Y-81817057D02*
X155497618Y-81855152D01*
X155497618Y-81855152D02*
X155459523Y-81893247D01*
X155459523Y-81893247D02*
X155421428Y-81969438D01*
X155421428Y-81969438D02*
X155421428Y-82159914D01*
X155421428Y-82159914D02*
X155459523Y-82236104D01*
X155459523Y-82236104D02*
X155497618Y-82274200D01*
X155497618Y-82274200D02*
X155573809Y-82312295D01*
X155573809Y-82312295D02*
X155802380Y-82312295D01*
X155802380Y-82312295D02*
X155878571Y-82274200D01*
X155878571Y-82274200D02*
X155916666Y-82236104D01*
X150704285Y-123786104D02*
X150742381Y-123824200D01*
X150742381Y-123824200D02*
X150856666Y-123862295D01*
X150856666Y-123862295D02*
X150932857Y-123862295D01*
X150932857Y-123862295D02*
X151047143Y-123824200D01*
X151047143Y-123824200D02*
X151123333Y-123748009D01*
X151123333Y-123748009D02*
X151161428Y-123671819D01*
X151161428Y-123671819D02*
X151199524Y-123519438D01*
X151199524Y-123519438D02*
X151199524Y-123405152D01*
X151199524Y-123405152D02*
X151161428Y-123252771D01*
X151161428Y-123252771D02*
X151123333Y-123176580D01*
X151123333Y-123176580D02*
X151047143Y-123100390D01*
X151047143Y-123100390D02*
X150932857Y-123062295D01*
X150932857Y-123062295D02*
X150856666Y-123062295D01*
X150856666Y-123062295D02*
X150742381Y-123100390D01*
X150742381Y-123100390D02*
X150704285Y-123138485D01*
X150437619Y-123062295D02*
X149904285Y-123062295D01*
X149904285Y-123062295D02*
X150247143Y-123862295D01*
X149675714Y-123062295D02*
X149180476Y-123062295D01*
X149180476Y-123062295D02*
X149447142Y-123367057D01*
X149447142Y-123367057D02*
X149332857Y-123367057D01*
X149332857Y-123367057D02*
X149256666Y-123405152D01*
X149256666Y-123405152D02*
X149218571Y-123443247D01*
X149218571Y-123443247D02*
X149180476Y-123519438D01*
X149180476Y-123519438D02*
X149180476Y-123709914D01*
X149180476Y-123709914D02*
X149218571Y-123786104D01*
X149218571Y-123786104D02*
X149256666Y-123824200D01*
X149256666Y-123824200D02*
X149332857Y-123862295D01*
X149332857Y-123862295D02*
X149561428Y-123862295D01*
X149561428Y-123862295D02*
X149637619Y-123824200D01*
X149637619Y-123824200D02*
X149675714Y-123786104D01*
X141814285Y-99362295D02*
X142080952Y-98981342D01*
X142271428Y-99362295D02*
X142271428Y-98562295D01*
X142271428Y-98562295D02*
X141966666Y-98562295D01*
X141966666Y-98562295D02*
X141890476Y-98600390D01*
X141890476Y-98600390D02*
X141852381Y-98638485D01*
X141852381Y-98638485D02*
X141814285Y-98714676D01*
X141814285Y-98714676D02*
X141814285Y-98828961D01*
X141814285Y-98828961D02*
X141852381Y-98905152D01*
X141852381Y-98905152D02*
X141890476Y-98943247D01*
X141890476Y-98943247D02*
X141966666Y-98981342D01*
X141966666Y-98981342D02*
X142271428Y-98981342D01*
X141052381Y-99362295D02*
X141509524Y-99362295D01*
X141280952Y-99362295D02*
X141280952Y-98562295D01*
X141280952Y-98562295D02*
X141357143Y-98676580D01*
X141357143Y-98676580D02*
X141433333Y-98752771D01*
X141433333Y-98752771D02*
X141509524Y-98790866D01*
X140557142Y-98562295D02*
X140480952Y-98562295D01*
X140480952Y-98562295D02*
X140404761Y-98600390D01*
X140404761Y-98600390D02*
X140366666Y-98638485D01*
X140366666Y-98638485D02*
X140328571Y-98714676D01*
X140328571Y-98714676D02*
X140290476Y-98867057D01*
X140290476Y-98867057D02*
X140290476Y-99057533D01*
X140290476Y-99057533D02*
X140328571Y-99209914D01*
X140328571Y-99209914D02*
X140366666Y-99286104D01*
X140366666Y-99286104D02*
X140404761Y-99324200D01*
X140404761Y-99324200D02*
X140480952Y-99362295D01*
X140480952Y-99362295D02*
X140557142Y-99362295D01*
X140557142Y-99362295D02*
X140633333Y-99324200D01*
X140633333Y-99324200D02*
X140671428Y-99286104D01*
X140671428Y-99286104D02*
X140709523Y-99209914D01*
X140709523Y-99209914D02*
X140747619Y-99057533D01*
X140747619Y-99057533D02*
X140747619Y-98867057D01*
X140747619Y-98867057D02*
X140709523Y-98714676D01*
X140709523Y-98714676D02*
X140671428Y-98638485D01*
X140671428Y-98638485D02*
X140633333Y-98600390D01*
X140633333Y-98600390D02*
X140557142Y-98562295D01*
X159783332Y-95162295D02*
X160049999Y-94781342D01*
X160240475Y-95162295D02*
X160240475Y-94362295D01*
X160240475Y-94362295D02*
X159935713Y-94362295D01*
X159935713Y-94362295D02*
X159859523Y-94400390D01*
X159859523Y-94400390D02*
X159821428Y-94438485D01*
X159821428Y-94438485D02*
X159783332Y-94514676D01*
X159783332Y-94514676D02*
X159783332Y-94628961D01*
X159783332Y-94628961D02*
X159821428Y-94705152D01*
X159821428Y-94705152D02*
X159859523Y-94743247D01*
X159859523Y-94743247D02*
X159935713Y-94781342D01*
X159935713Y-94781342D02*
X160240475Y-94781342D01*
X159516666Y-94362295D02*
X159021428Y-94362295D01*
X159021428Y-94362295D02*
X159288094Y-94667057D01*
X159288094Y-94667057D02*
X159173809Y-94667057D01*
X159173809Y-94667057D02*
X159097618Y-94705152D01*
X159097618Y-94705152D02*
X159059523Y-94743247D01*
X159059523Y-94743247D02*
X159021428Y-94819438D01*
X159021428Y-94819438D02*
X159021428Y-95009914D01*
X159021428Y-95009914D02*
X159059523Y-95086104D01*
X159059523Y-95086104D02*
X159097618Y-95124200D01*
X159097618Y-95124200D02*
X159173809Y-95162295D01*
X159173809Y-95162295D02*
X159402380Y-95162295D01*
X159402380Y-95162295D02*
X159478571Y-95124200D01*
X159478571Y-95124200D02*
X159516666Y-95086104D01*
X141708332Y-92387295D02*
X141974999Y-92006342D01*
X142165475Y-92387295D02*
X142165475Y-91587295D01*
X142165475Y-91587295D02*
X141860713Y-91587295D01*
X141860713Y-91587295D02*
X141784523Y-91625390D01*
X141784523Y-91625390D02*
X141746428Y-91663485D01*
X141746428Y-91663485D02*
X141708332Y-91739676D01*
X141708332Y-91739676D02*
X141708332Y-91853961D01*
X141708332Y-91853961D02*
X141746428Y-91930152D01*
X141746428Y-91930152D02*
X141784523Y-91968247D01*
X141784523Y-91968247D02*
X141860713Y-92006342D01*
X141860713Y-92006342D02*
X142165475Y-92006342D01*
X141022618Y-91587295D02*
X141174999Y-91587295D01*
X141174999Y-91587295D02*
X141251190Y-91625390D01*
X141251190Y-91625390D02*
X141289285Y-91663485D01*
X141289285Y-91663485D02*
X141365475Y-91777771D01*
X141365475Y-91777771D02*
X141403571Y-91930152D01*
X141403571Y-91930152D02*
X141403571Y-92234914D01*
X141403571Y-92234914D02*
X141365475Y-92311104D01*
X141365475Y-92311104D02*
X141327380Y-92349200D01*
X141327380Y-92349200D02*
X141251190Y-92387295D01*
X141251190Y-92387295D02*
X141098809Y-92387295D01*
X141098809Y-92387295D02*
X141022618Y-92349200D01*
X141022618Y-92349200D02*
X140984523Y-92311104D01*
X140984523Y-92311104D02*
X140946428Y-92234914D01*
X140946428Y-92234914D02*
X140946428Y-92044438D01*
X140946428Y-92044438D02*
X140984523Y-91968247D01*
X140984523Y-91968247D02*
X141022618Y-91930152D01*
X141022618Y-91930152D02*
X141098809Y-91892057D01*
X141098809Y-91892057D02*
X141251190Y-91892057D01*
X141251190Y-91892057D02*
X141327380Y-91930152D01*
X141327380Y-91930152D02*
X141365475Y-91968247D01*
X141365475Y-91968247D02*
X141403571Y-92044438D01*
X150537295Y-95940476D02*
X151184914Y-95940476D01*
X151184914Y-95940476D02*
X151261104Y-95978571D01*
X151261104Y-95978571D02*
X151299200Y-96016666D01*
X151299200Y-96016666D02*
X151337295Y-96092857D01*
X151337295Y-96092857D02*
X151337295Y-96245238D01*
X151337295Y-96245238D02*
X151299200Y-96321428D01*
X151299200Y-96321428D02*
X151261104Y-96359523D01*
X151261104Y-96359523D02*
X151184914Y-96397619D01*
X151184914Y-96397619D02*
X150537295Y-96397619D01*
X150803961Y-97121428D02*
X151337295Y-97121428D01*
X150499200Y-96930952D02*
X151070628Y-96740475D01*
X151070628Y-96740475D02*
X151070628Y-97235714D01*
X152500499Y-94479812D02*
X152500499Y-94717907D01*
X152738594Y-94622669D02*
X152500499Y-94717907D01*
X152500499Y-94717907D02*
X152262404Y-94622669D01*
X152643356Y-94908383D02*
X152500499Y-94717907D01*
X152500499Y-94717907D02*
X152357642Y-94908383D01*
X130424143Y-100998200D02*
X130338429Y-101026771D01*
X130338429Y-101026771D02*
X130195571Y-101026771D01*
X130195571Y-101026771D02*
X130138429Y-100998200D01*
X130138429Y-100998200D02*
X130109857Y-100969628D01*
X130109857Y-100969628D02*
X130081286Y-100912485D01*
X130081286Y-100912485D02*
X130081286Y-100855342D01*
X130081286Y-100855342D02*
X130109857Y-100798200D01*
X130109857Y-100798200D02*
X130138429Y-100769628D01*
X130138429Y-100769628D02*
X130195571Y-100741057D01*
X130195571Y-100741057D02*
X130309857Y-100712485D01*
X130309857Y-100712485D02*
X130367000Y-100683914D01*
X130367000Y-100683914D02*
X130395571Y-100655342D01*
X130395571Y-100655342D02*
X130424143Y-100598200D01*
X130424143Y-100598200D02*
X130424143Y-100541057D01*
X130424143Y-100541057D02*
X130395571Y-100483914D01*
X130395571Y-100483914D02*
X130367000Y-100455342D01*
X130367000Y-100455342D02*
X130309857Y-100426771D01*
X130309857Y-100426771D02*
X130167000Y-100426771D01*
X130167000Y-100426771D02*
X130081286Y-100455342D01*
X129481285Y-101026771D02*
X129681285Y-100741057D01*
X129824142Y-101026771D02*
X129824142Y-100426771D01*
X129824142Y-100426771D02*
X129595571Y-100426771D01*
X129595571Y-100426771D02*
X129538428Y-100455342D01*
X129538428Y-100455342D02*
X129509857Y-100483914D01*
X129509857Y-100483914D02*
X129481285Y-100541057D01*
X129481285Y-100541057D02*
X129481285Y-100626771D01*
X129481285Y-100626771D02*
X129509857Y-100683914D01*
X129509857Y-100683914D02*
X129538428Y-100712485D01*
X129538428Y-100712485D02*
X129595571Y-100741057D01*
X129595571Y-100741057D02*
X129824142Y-100741057D01*
X129252714Y-100483914D02*
X129224142Y-100455342D01*
X129224142Y-100455342D02*
X129167000Y-100426771D01*
X129167000Y-100426771D02*
X129024142Y-100426771D01*
X129024142Y-100426771D02*
X128967000Y-100455342D01*
X128967000Y-100455342D02*
X128938428Y-100483914D01*
X128938428Y-100483914D02*
X128909857Y-100541057D01*
X128909857Y-100541057D02*
X128909857Y-100598200D01*
X128909857Y-100598200D02*
X128938428Y-100683914D01*
X128938428Y-100683914D02*
X129281285Y-101026771D01*
X129281285Y-101026771D02*
X128909857Y-101026771D01*
X154559771Y-114744285D02*
X154274057Y-114544285D01*
X154559771Y-114401428D02*
X153959771Y-114401428D01*
X153959771Y-114401428D02*
X153959771Y-114629999D01*
X153959771Y-114629999D02*
X153988342Y-114687142D01*
X153988342Y-114687142D02*
X154016914Y-114715713D01*
X154016914Y-114715713D02*
X154074057Y-114744285D01*
X154074057Y-114744285D02*
X154159771Y-114744285D01*
X154159771Y-114744285D02*
X154216914Y-114715713D01*
X154216914Y-114715713D02*
X154245485Y-114687142D01*
X154245485Y-114687142D02*
X154274057Y-114629999D01*
X154274057Y-114629999D02*
X154274057Y-114401428D01*
X154016914Y-114972856D02*
X153988342Y-115001428D01*
X153988342Y-115001428D02*
X153959771Y-115058571D01*
X153959771Y-115058571D02*
X153959771Y-115201428D01*
X153959771Y-115201428D02*
X153988342Y-115258571D01*
X153988342Y-115258571D02*
X154016914Y-115287142D01*
X154016914Y-115287142D02*
X154074057Y-115315713D01*
X154074057Y-115315713D02*
X154131200Y-115315713D01*
X154131200Y-115315713D02*
X154216914Y-115287142D01*
X154216914Y-115287142D02*
X154559771Y-114944285D01*
X154559771Y-114944285D02*
X154559771Y-115315713D01*
X153959771Y-115515714D02*
X153959771Y-115887142D01*
X153959771Y-115887142D02*
X154188342Y-115687142D01*
X154188342Y-115687142D02*
X154188342Y-115772857D01*
X154188342Y-115772857D02*
X154216914Y-115830000D01*
X154216914Y-115830000D02*
X154245485Y-115858571D01*
X154245485Y-115858571D02*
X154302628Y-115887142D01*
X154302628Y-115887142D02*
X154445485Y-115887142D01*
X154445485Y-115887142D02*
X154502628Y-115858571D01*
X154502628Y-115858571D02*
X154531200Y-115830000D01*
X154531200Y-115830000D02*
X154559771Y-115772857D01*
X154559771Y-115772857D02*
X154559771Y-115601428D01*
X154559771Y-115601428D02*
X154531200Y-115544285D01*
X154531200Y-115544285D02*
X154502628Y-115515714D01*
X151584214Y-114665628D02*
X151612786Y-114694200D01*
X151612786Y-114694200D02*
X151698500Y-114722771D01*
X151698500Y-114722771D02*
X151755643Y-114722771D01*
X151755643Y-114722771D02*
X151841357Y-114694200D01*
X151841357Y-114694200D02*
X151898500Y-114637057D01*
X151898500Y-114637057D02*
X151927071Y-114579914D01*
X151927071Y-114579914D02*
X151955643Y-114465628D01*
X151955643Y-114465628D02*
X151955643Y-114379914D01*
X151955643Y-114379914D02*
X151927071Y-114265628D01*
X151927071Y-114265628D02*
X151898500Y-114208485D01*
X151898500Y-114208485D02*
X151841357Y-114151342D01*
X151841357Y-114151342D02*
X151755643Y-114122771D01*
X151755643Y-114122771D02*
X151698500Y-114122771D01*
X151698500Y-114122771D02*
X151612786Y-114151342D01*
X151612786Y-114151342D02*
X151584214Y-114179914D01*
X151384214Y-114122771D02*
X150984214Y-114122771D01*
X150984214Y-114122771D02*
X151241357Y-114722771D01*
X150441357Y-114722771D02*
X150784214Y-114722771D01*
X150612785Y-114722771D02*
X150612785Y-114122771D01*
X150612785Y-114122771D02*
X150669928Y-114208485D01*
X150669928Y-114208485D02*
X150727071Y-114265628D01*
X150727071Y-114265628D02*
X150784214Y-114294200D01*
X144614285Y-99387295D02*
X144880952Y-99006342D01*
X145071428Y-99387295D02*
X145071428Y-98587295D01*
X145071428Y-98587295D02*
X144766666Y-98587295D01*
X144766666Y-98587295D02*
X144690476Y-98625390D01*
X144690476Y-98625390D02*
X144652381Y-98663485D01*
X144652381Y-98663485D02*
X144614285Y-98739676D01*
X144614285Y-98739676D02*
X144614285Y-98853961D01*
X144614285Y-98853961D02*
X144652381Y-98930152D01*
X144652381Y-98930152D02*
X144690476Y-98968247D01*
X144690476Y-98968247D02*
X144766666Y-99006342D01*
X144766666Y-99006342D02*
X145071428Y-99006342D01*
X143852381Y-99387295D02*
X144309524Y-99387295D01*
X144080952Y-99387295D02*
X144080952Y-98587295D01*
X144080952Y-98587295D02*
X144157143Y-98701580D01*
X144157143Y-98701580D02*
X144233333Y-98777771D01*
X144233333Y-98777771D02*
X144309524Y-98815866D01*
X143090476Y-99387295D02*
X143547619Y-99387295D01*
X143319047Y-99387295D02*
X143319047Y-98587295D01*
X143319047Y-98587295D02*
X143395238Y-98701580D01*
X143395238Y-98701580D02*
X143471428Y-98777771D01*
X143471428Y-98777771D02*
X143547619Y-98815866D01*
X144517482Y-84670111D02*
X144555578Y-84708207D01*
X144555578Y-84708207D02*
X144669863Y-84746302D01*
X144669863Y-84746302D02*
X144746054Y-84746302D01*
X144746054Y-84746302D02*
X144860340Y-84708207D01*
X144860340Y-84708207D02*
X144936530Y-84632016D01*
X144936530Y-84632016D02*
X144974625Y-84555826D01*
X144974625Y-84555826D02*
X145012721Y-84403445D01*
X145012721Y-84403445D02*
X145012721Y-84289159D01*
X145012721Y-84289159D02*
X144974625Y-84136778D01*
X144974625Y-84136778D02*
X144936530Y-84060587D01*
X144936530Y-84060587D02*
X144860340Y-83984397D01*
X144860340Y-83984397D02*
X144746054Y-83946302D01*
X144746054Y-83946302D02*
X144669863Y-83946302D01*
X144669863Y-83946302D02*
X144555578Y-83984397D01*
X144555578Y-83984397D02*
X144517482Y-84022492D01*
X144060340Y-84289159D02*
X144136530Y-84251064D01*
X144136530Y-84251064D02*
X144174625Y-84212968D01*
X144174625Y-84212968D02*
X144212721Y-84136778D01*
X144212721Y-84136778D02*
X144212721Y-84098683D01*
X144212721Y-84098683D02*
X144174625Y-84022492D01*
X144174625Y-84022492D02*
X144136530Y-83984397D01*
X144136530Y-83984397D02*
X144060340Y-83946302D01*
X144060340Y-83946302D02*
X143907959Y-83946302D01*
X143907959Y-83946302D02*
X143831768Y-83984397D01*
X143831768Y-83984397D02*
X143793673Y-84022492D01*
X143793673Y-84022492D02*
X143755578Y-84098683D01*
X143755578Y-84098683D02*
X143755578Y-84136778D01*
X143755578Y-84136778D02*
X143793673Y-84212968D01*
X143793673Y-84212968D02*
X143831768Y-84251064D01*
X143831768Y-84251064D02*
X143907959Y-84289159D01*
X143907959Y-84289159D02*
X144060340Y-84289159D01*
X144060340Y-84289159D02*
X144136530Y-84327254D01*
X144136530Y-84327254D02*
X144174625Y-84365349D01*
X144174625Y-84365349D02*
X144212721Y-84441540D01*
X144212721Y-84441540D02*
X144212721Y-84593921D01*
X144212721Y-84593921D02*
X144174625Y-84670111D01*
X144174625Y-84670111D02*
X144136530Y-84708207D01*
X144136530Y-84708207D02*
X144060340Y-84746302D01*
X144060340Y-84746302D02*
X143907959Y-84746302D01*
X143907959Y-84746302D02*
X143831768Y-84708207D01*
X143831768Y-84708207D02*
X143793673Y-84670111D01*
X143793673Y-84670111D02*
X143755578Y-84593921D01*
X143755578Y-84593921D02*
X143755578Y-84441540D01*
X143755578Y-84441540D02*
X143793673Y-84365349D01*
X143793673Y-84365349D02*
X143831768Y-84327254D01*
X143831768Y-84327254D02*
X143907959Y-84289159D01*
X159258332Y-86611104D02*
X159296428Y-86649200D01*
X159296428Y-86649200D02*
X159410713Y-86687295D01*
X159410713Y-86687295D02*
X159486904Y-86687295D01*
X159486904Y-86687295D02*
X159601190Y-86649200D01*
X159601190Y-86649200D02*
X159677380Y-86573009D01*
X159677380Y-86573009D02*
X159715475Y-86496819D01*
X159715475Y-86496819D02*
X159753571Y-86344438D01*
X159753571Y-86344438D02*
X159753571Y-86230152D01*
X159753571Y-86230152D02*
X159715475Y-86077771D01*
X159715475Y-86077771D02*
X159677380Y-86001580D01*
X159677380Y-86001580D02*
X159601190Y-85925390D01*
X159601190Y-85925390D02*
X159486904Y-85887295D01*
X159486904Y-85887295D02*
X159410713Y-85887295D01*
X159410713Y-85887295D02*
X159296428Y-85925390D01*
X159296428Y-85925390D02*
X159258332Y-85963485D01*
X158496428Y-86687295D02*
X158953571Y-86687295D01*
X158724999Y-86687295D02*
X158724999Y-85887295D01*
X158724999Y-85887295D02*
X158801190Y-86001580D01*
X158801190Y-86001580D02*
X158877380Y-86077771D01*
X158877380Y-86077771D02*
X158953571Y-86115866D01*
X152275752Y-82837295D02*
X152275752Y-83484914D01*
X152275752Y-83484914D02*
X152237657Y-83561104D01*
X152237657Y-83561104D02*
X152199562Y-83599200D01*
X152199562Y-83599200D02*
X152123371Y-83637295D01*
X152123371Y-83637295D02*
X151970990Y-83637295D01*
X151970990Y-83637295D02*
X151894800Y-83599200D01*
X151894800Y-83599200D02*
X151856705Y-83561104D01*
X151856705Y-83561104D02*
X151818609Y-83484914D01*
X151818609Y-83484914D02*
X151818609Y-82837295D01*
X151018610Y-83637295D02*
X151475753Y-83637295D01*
X151247181Y-83637295D02*
X151247181Y-82837295D01*
X151247181Y-82837295D02*
X151323372Y-82951580D01*
X151323372Y-82951580D02*
X151399562Y-83027771D01*
X151399562Y-83027771D02*
X151475753Y-83065866D01*
X149082649Y-83957819D02*
X149082649Y-84195914D01*
X149320744Y-84100676D02*
X149082649Y-84195914D01*
X149082649Y-84195914D02*
X148844554Y-84100676D01*
X149225506Y-84386390D02*
X149082649Y-84195914D01*
X149082649Y-84195914D02*
X148939792Y-84386390D01*
X152679771Y-111694285D02*
X152394057Y-111494285D01*
X152679771Y-111351428D02*
X152079771Y-111351428D01*
X152079771Y-111351428D02*
X152079771Y-111579999D01*
X152079771Y-111579999D02*
X152108342Y-111637142D01*
X152108342Y-111637142D02*
X152136914Y-111665713D01*
X152136914Y-111665713D02*
X152194057Y-111694285D01*
X152194057Y-111694285D02*
X152279771Y-111694285D01*
X152279771Y-111694285D02*
X152336914Y-111665713D01*
X152336914Y-111665713D02*
X152365485Y-111637142D01*
X152365485Y-111637142D02*
X152394057Y-111579999D01*
X152394057Y-111579999D02*
X152394057Y-111351428D01*
X152136914Y-111922856D02*
X152108342Y-111951428D01*
X152108342Y-111951428D02*
X152079771Y-112008571D01*
X152079771Y-112008571D02*
X152079771Y-112151428D01*
X152079771Y-112151428D02*
X152108342Y-112208571D01*
X152108342Y-112208571D02*
X152136914Y-112237142D01*
X152136914Y-112237142D02*
X152194057Y-112265713D01*
X152194057Y-112265713D02*
X152251200Y-112265713D01*
X152251200Y-112265713D02*
X152336914Y-112237142D01*
X152336914Y-112237142D02*
X152679771Y-111894285D01*
X152679771Y-111894285D02*
X152679771Y-112265713D01*
X152136914Y-112494285D02*
X152108342Y-112522857D01*
X152108342Y-112522857D02*
X152079771Y-112580000D01*
X152079771Y-112580000D02*
X152079771Y-112722857D01*
X152079771Y-112722857D02*
X152108342Y-112780000D01*
X152108342Y-112780000D02*
X152136914Y-112808571D01*
X152136914Y-112808571D02*
X152194057Y-112837142D01*
X152194057Y-112837142D02*
X152251200Y-112837142D01*
X152251200Y-112837142D02*
X152336914Y-112808571D01*
X152336914Y-112808571D02*
X152679771Y-112465714D01*
X152679771Y-112465714D02*
X152679771Y-112837142D01*
X147262295Y-88615476D02*
X147909914Y-88615476D01*
X147909914Y-88615476D02*
X147986104Y-88653571D01*
X147986104Y-88653571D02*
X148024200Y-88691666D01*
X148024200Y-88691666D02*
X148062295Y-88767857D01*
X148062295Y-88767857D02*
X148062295Y-88920238D01*
X148062295Y-88920238D02*
X148024200Y-88996428D01*
X148024200Y-88996428D02*
X147986104Y-89034523D01*
X147986104Y-89034523D02*
X147909914Y-89072619D01*
X147909914Y-89072619D02*
X147262295Y-89072619D01*
X147338485Y-89415475D02*
X147300390Y-89453571D01*
X147300390Y-89453571D02*
X147262295Y-89529761D01*
X147262295Y-89529761D02*
X147262295Y-89720237D01*
X147262295Y-89720237D02*
X147300390Y-89796428D01*
X147300390Y-89796428D02*
X147338485Y-89834523D01*
X147338485Y-89834523D02*
X147414676Y-89872618D01*
X147414676Y-89872618D02*
X147490866Y-89872618D01*
X147490866Y-89872618D02*
X147605152Y-89834523D01*
X147605152Y-89834523D02*
X148062295Y-89377380D01*
X148062295Y-89377380D02*
X148062295Y-89872618D01*
X149288149Y-86573819D02*
X149288149Y-86811914D01*
X149526244Y-86716676D02*
X149288149Y-86811914D01*
X149288149Y-86811914D02*
X149050054Y-86716676D01*
X149431006Y-87002390D02*
X149288149Y-86811914D01*
X149288149Y-86811914D02*
X149145292Y-87002390D01*
X128274714Y-91144628D02*
X128303286Y-91173200D01*
X128303286Y-91173200D02*
X128389000Y-91201771D01*
X128389000Y-91201771D02*
X128446143Y-91201771D01*
X128446143Y-91201771D02*
X128531857Y-91173200D01*
X128531857Y-91173200D02*
X128589000Y-91116057D01*
X128589000Y-91116057D02*
X128617571Y-91058914D01*
X128617571Y-91058914D02*
X128646143Y-90944628D01*
X128646143Y-90944628D02*
X128646143Y-90858914D01*
X128646143Y-90858914D02*
X128617571Y-90744628D01*
X128617571Y-90744628D02*
X128589000Y-90687485D01*
X128589000Y-90687485D02*
X128531857Y-90630342D01*
X128531857Y-90630342D02*
X128446143Y-90601771D01*
X128446143Y-90601771D02*
X128389000Y-90601771D01*
X128389000Y-90601771D02*
X128303286Y-90630342D01*
X128303286Y-90630342D02*
X128274714Y-90658914D01*
X127731857Y-90601771D02*
X128017571Y-90601771D01*
X128017571Y-90601771D02*
X128046143Y-90887485D01*
X128046143Y-90887485D02*
X128017571Y-90858914D01*
X128017571Y-90858914D02*
X127960429Y-90830342D01*
X127960429Y-90830342D02*
X127817571Y-90830342D01*
X127817571Y-90830342D02*
X127760429Y-90858914D01*
X127760429Y-90858914D02*
X127731857Y-90887485D01*
X127731857Y-90887485D02*
X127703286Y-90944628D01*
X127703286Y-90944628D02*
X127703286Y-91087485D01*
X127703286Y-91087485D02*
X127731857Y-91144628D01*
X127731857Y-91144628D02*
X127760429Y-91173200D01*
X127760429Y-91173200D02*
X127817571Y-91201771D01*
X127817571Y-91201771D02*
X127960429Y-91201771D01*
X127960429Y-91201771D02*
X128017571Y-91173200D01*
X128017571Y-91173200D02*
X128046143Y-91144628D01*
X127189000Y-90801771D02*
X127189000Y-91201771D01*
X127331857Y-90573200D02*
X127474714Y-91001771D01*
X127474714Y-91001771D02*
X127103285Y-91001771D01*
X151654285Y-128631195D02*
X151920952Y-128250242D01*
X152111428Y-128631195D02*
X152111428Y-127831195D01*
X152111428Y-127831195D02*
X151806666Y-127831195D01*
X151806666Y-127831195D02*
X151730476Y-127869290D01*
X151730476Y-127869290D02*
X151692381Y-127907385D01*
X151692381Y-127907385D02*
X151654285Y-127983576D01*
X151654285Y-127983576D02*
X151654285Y-128097861D01*
X151654285Y-128097861D02*
X151692381Y-128174052D01*
X151692381Y-128174052D02*
X151730476Y-128212147D01*
X151730476Y-128212147D02*
X151806666Y-128250242D01*
X151806666Y-128250242D02*
X152111428Y-128250242D01*
X151349524Y-127907385D02*
X151311428Y-127869290D01*
X151311428Y-127869290D02*
X151235238Y-127831195D01*
X151235238Y-127831195D02*
X151044762Y-127831195D01*
X151044762Y-127831195D02*
X150968571Y-127869290D01*
X150968571Y-127869290D02*
X150930476Y-127907385D01*
X150930476Y-127907385D02*
X150892381Y-127983576D01*
X150892381Y-127983576D02*
X150892381Y-128059766D01*
X150892381Y-128059766D02*
X150930476Y-128174052D01*
X150930476Y-128174052D02*
X151387619Y-128631195D01*
X151387619Y-128631195D02*
X150892381Y-128631195D01*
X150206666Y-128097861D02*
X150206666Y-128631195D01*
X150397142Y-127793100D02*
X150587619Y-128364528D01*
X150587619Y-128364528D02*
X150092380Y-128364528D01*
X147682182Y-98754211D02*
X147720278Y-98792307D01*
X147720278Y-98792307D02*
X147834563Y-98830402D01*
X147834563Y-98830402D02*
X147910754Y-98830402D01*
X147910754Y-98830402D02*
X148025040Y-98792307D01*
X148025040Y-98792307D02*
X148101230Y-98716116D01*
X148101230Y-98716116D02*
X148139325Y-98639926D01*
X148139325Y-98639926D02*
X148177421Y-98487545D01*
X148177421Y-98487545D02*
X148177421Y-98373259D01*
X148177421Y-98373259D02*
X148139325Y-98220878D01*
X148139325Y-98220878D02*
X148101230Y-98144687D01*
X148101230Y-98144687D02*
X148025040Y-98068497D01*
X148025040Y-98068497D02*
X147910754Y-98030402D01*
X147910754Y-98030402D02*
X147834563Y-98030402D01*
X147834563Y-98030402D02*
X147720278Y-98068497D01*
X147720278Y-98068497D02*
X147682182Y-98106592D01*
X147301230Y-98830402D02*
X147148849Y-98830402D01*
X147148849Y-98830402D02*
X147072659Y-98792307D01*
X147072659Y-98792307D02*
X147034563Y-98754211D01*
X147034563Y-98754211D02*
X146958373Y-98639926D01*
X146958373Y-98639926D02*
X146920278Y-98487545D01*
X146920278Y-98487545D02*
X146920278Y-98182783D01*
X146920278Y-98182783D02*
X146958373Y-98106592D01*
X146958373Y-98106592D02*
X146996468Y-98068497D01*
X146996468Y-98068497D02*
X147072659Y-98030402D01*
X147072659Y-98030402D02*
X147225040Y-98030402D01*
X147225040Y-98030402D02*
X147301230Y-98068497D01*
X147301230Y-98068497D02*
X147339325Y-98106592D01*
X147339325Y-98106592D02*
X147377421Y-98182783D01*
X147377421Y-98182783D02*
X147377421Y-98373259D01*
X147377421Y-98373259D02*
X147339325Y-98449449D01*
X147339325Y-98449449D02*
X147301230Y-98487545D01*
X147301230Y-98487545D02*
X147225040Y-98525640D01*
X147225040Y-98525640D02*
X147072659Y-98525640D01*
X147072659Y-98525640D02*
X146996468Y-98487545D01*
X146996468Y-98487545D02*
X146958373Y-98449449D01*
X146958373Y-98449449D02*
X146920278Y-98373259D01*
X154258332Y-88961104D02*
X154296428Y-88999200D01*
X154296428Y-88999200D02*
X154410713Y-89037295D01*
X154410713Y-89037295D02*
X154486904Y-89037295D01*
X154486904Y-89037295D02*
X154601190Y-88999200D01*
X154601190Y-88999200D02*
X154677380Y-88923009D01*
X154677380Y-88923009D02*
X154715475Y-88846819D01*
X154715475Y-88846819D02*
X154753571Y-88694438D01*
X154753571Y-88694438D02*
X154753571Y-88580152D01*
X154753571Y-88580152D02*
X154715475Y-88427771D01*
X154715475Y-88427771D02*
X154677380Y-88351580D01*
X154677380Y-88351580D02*
X154601190Y-88275390D01*
X154601190Y-88275390D02*
X154486904Y-88237295D01*
X154486904Y-88237295D02*
X154410713Y-88237295D01*
X154410713Y-88237295D02*
X154296428Y-88275390D01*
X154296428Y-88275390D02*
X154258332Y-88313485D01*
X153953571Y-88313485D02*
X153915475Y-88275390D01*
X153915475Y-88275390D02*
X153839285Y-88237295D01*
X153839285Y-88237295D02*
X153648809Y-88237295D01*
X153648809Y-88237295D02*
X153572618Y-88275390D01*
X153572618Y-88275390D02*
X153534523Y-88313485D01*
X153534523Y-88313485D02*
X153496428Y-88389676D01*
X153496428Y-88389676D02*
X153496428Y-88465866D01*
X153496428Y-88465866D02*
X153534523Y-88580152D01*
X153534523Y-88580152D02*
X153991666Y-89037295D01*
X153991666Y-89037295D02*
X153496428Y-89037295D01*
X127052628Y-82834285D02*
X127081200Y-82805713D01*
X127081200Y-82805713D02*
X127109771Y-82719999D01*
X127109771Y-82719999D02*
X127109771Y-82662856D01*
X127109771Y-82662856D02*
X127081200Y-82577142D01*
X127081200Y-82577142D02*
X127024057Y-82519999D01*
X127024057Y-82519999D02*
X126966914Y-82491428D01*
X126966914Y-82491428D02*
X126852628Y-82462856D01*
X126852628Y-82462856D02*
X126766914Y-82462856D01*
X126766914Y-82462856D02*
X126652628Y-82491428D01*
X126652628Y-82491428D02*
X126595485Y-82519999D01*
X126595485Y-82519999D02*
X126538342Y-82577142D01*
X126538342Y-82577142D02*
X126509771Y-82662856D01*
X126509771Y-82662856D02*
X126509771Y-82719999D01*
X126509771Y-82719999D02*
X126538342Y-82805713D01*
X126538342Y-82805713D02*
X126566914Y-82834285D01*
X126709771Y-83348571D02*
X127109771Y-83348571D01*
X126481200Y-83205713D02*
X126909771Y-83062856D01*
X126909771Y-83062856D02*
X126909771Y-83434285D01*
X126766914Y-83748571D02*
X126738342Y-83691428D01*
X126738342Y-83691428D02*
X126709771Y-83662857D01*
X126709771Y-83662857D02*
X126652628Y-83634285D01*
X126652628Y-83634285D02*
X126624057Y-83634285D01*
X126624057Y-83634285D02*
X126566914Y-83662857D01*
X126566914Y-83662857D02*
X126538342Y-83691428D01*
X126538342Y-83691428D02*
X126509771Y-83748571D01*
X126509771Y-83748571D02*
X126509771Y-83862857D01*
X126509771Y-83862857D02*
X126538342Y-83920000D01*
X126538342Y-83920000D02*
X126566914Y-83948571D01*
X126566914Y-83948571D02*
X126624057Y-83977142D01*
X126624057Y-83977142D02*
X126652628Y-83977142D01*
X126652628Y-83977142D02*
X126709771Y-83948571D01*
X126709771Y-83948571D02*
X126738342Y-83920000D01*
X126738342Y-83920000D02*
X126766914Y-83862857D01*
X126766914Y-83862857D02*
X126766914Y-83748571D01*
X126766914Y-83748571D02*
X126795485Y-83691428D01*
X126795485Y-83691428D02*
X126824057Y-83662857D01*
X126824057Y-83662857D02*
X126881200Y-83634285D01*
X126881200Y-83634285D02*
X126995485Y-83634285D01*
X126995485Y-83634285D02*
X127052628Y-83662857D01*
X127052628Y-83662857D02*
X127081200Y-83691428D01*
X127081200Y-83691428D02*
X127109771Y-83748571D01*
X127109771Y-83748571D02*
X127109771Y-83862857D01*
X127109771Y-83862857D02*
X127081200Y-83920000D01*
X127081200Y-83920000D02*
X127052628Y-83948571D01*
X127052628Y-83948571D02*
X126995485Y-83977142D01*
X126995485Y-83977142D02*
X126881200Y-83977142D01*
X126881200Y-83977142D02*
X126824057Y-83948571D01*
X126824057Y-83948571D02*
X126795485Y-83920000D01*
X126795485Y-83920000D02*
X126766914Y-83862857D01*
X150058332Y-94861104D02*
X150096428Y-94899200D01*
X150096428Y-94899200D02*
X150210713Y-94937295D01*
X150210713Y-94937295D02*
X150286904Y-94937295D01*
X150286904Y-94937295D02*
X150401190Y-94899200D01*
X150401190Y-94899200D02*
X150477380Y-94823009D01*
X150477380Y-94823009D02*
X150515475Y-94746819D01*
X150515475Y-94746819D02*
X150553571Y-94594438D01*
X150553571Y-94594438D02*
X150553571Y-94480152D01*
X150553571Y-94480152D02*
X150515475Y-94327771D01*
X150515475Y-94327771D02*
X150477380Y-94251580D01*
X150477380Y-94251580D02*
X150401190Y-94175390D01*
X150401190Y-94175390D02*
X150286904Y-94137295D01*
X150286904Y-94137295D02*
X150210713Y-94137295D01*
X150210713Y-94137295D02*
X150096428Y-94175390D01*
X150096428Y-94175390D02*
X150058332Y-94213485D01*
X149372618Y-94137295D02*
X149524999Y-94137295D01*
X149524999Y-94137295D02*
X149601190Y-94175390D01*
X149601190Y-94175390D02*
X149639285Y-94213485D01*
X149639285Y-94213485D02*
X149715475Y-94327771D01*
X149715475Y-94327771D02*
X149753571Y-94480152D01*
X149753571Y-94480152D02*
X149753571Y-94784914D01*
X149753571Y-94784914D02*
X149715475Y-94861104D01*
X149715475Y-94861104D02*
X149677380Y-94899200D01*
X149677380Y-94899200D02*
X149601190Y-94937295D01*
X149601190Y-94937295D02*
X149448809Y-94937295D01*
X149448809Y-94937295D02*
X149372618Y-94899200D01*
X149372618Y-94899200D02*
X149334523Y-94861104D01*
X149334523Y-94861104D02*
X149296428Y-94784914D01*
X149296428Y-94784914D02*
X149296428Y-94594438D01*
X149296428Y-94594438D02*
X149334523Y-94518247D01*
X149334523Y-94518247D02*
X149372618Y-94480152D01*
X149372618Y-94480152D02*
X149448809Y-94442057D01*
X149448809Y-94442057D02*
X149601190Y-94442057D01*
X149601190Y-94442057D02*
X149677380Y-94480152D01*
X149677380Y-94480152D02*
X149715475Y-94518247D01*
X149715475Y-94518247D02*
X149753571Y-94594438D01*
X159190332Y-81317524D02*
X159456999Y-80936571D01*
X159647475Y-81317524D02*
X159647475Y-80517524D01*
X159647475Y-80517524D02*
X159342713Y-80517524D01*
X159342713Y-80517524D02*
X159266523Y-80555619D01*
X159266523Y-80555619D02*
X159228428Y-80593714D01*
X159228428Y-80593714D02*
X159190332Y-80669905D01*
X159190332Y-80669905D02*
X159190332Y-80784190D01*
X159190332Y-80784190D02*
X159228428Y-80860381D01*
X159228428Y-80860381D02*
X159266523Y-80898476D01*
X159266523Y-80898476D02*
X159342713Y-80936571D01*
X159342713Y-80936571D02*
X159647475Y-80936571D01*
X158428428Y-81317524D02*
X158885571Y-81317524D01*
X158656999Y-81317524D02*
X158656999Y-80517524D01*
X158656999Y-80517524D02*
X158733190Y-80631809D01*
X158733190Y-80631809D02*
X158809380Y-80708000D01*
X158809380Y-80708000D02*
X158885571Y-80746095D01*
X142273482Y-86950302D02*
X142540149Y-86569349D01*
X142730625Y-86950302D02*
X142730625Y-86150302D01*
X142730625Y-86150302D02*
X142425863Y-86150302D01*
X142425863Y-86150302D02*
X142349673Y-86188397D01*
X142349673Y-86188397D02*
X142311578Y-86226492D01*
X142311578Y-86226492D02*
X142273482Y-86302683D01*
X142273482Y-86302683D02*
X142273482Y-86416968D01*
X142273482Y-86416968D02*
X142311578Y-86493159D01*
X142311578Y-86493159D02*
X142349673Y-86531254D01*
X142349673Y-86531254D02*
X142425863Y-86569349D01*
X142425863Y-86569349D02*
X142730625Y-86569349D01*
X142006816Y-86150302D02*
X141473482Y-86150302D01*
X141473482Y-86150302D02*
X141816340Y-86950302D01*
X147135714Y-112582628D02*
X147164286Y-112611200D01*
X147164286Y-112611200D02*
X147250000Y-112639771D01*
X147250000Y-112639771D02*
X147307143Y-112639771D01*
X147307143Y-112639771D02*
X147392857Y-112611200D01*
X147392857Y-112611200D02*
X147450000Y-112554057D01*
X147450000Y-112554057D02*
X147478571Y-112496914D01*
X147478571Y-112496914D02*
X147507143Y-112382628D01*
X147507143Y-112382628D02*
X147507143Y-112296914D01*
X147507143Y-112296914D02*
X147478571Y-112182628D01*
X147478571Y-112182628D02*
X147450000Y-112125485D01*
X147450000Y-112125485D02*
X147392857Y-112068342D01*
X147392857Y-112068342D02*
X147307143Y-112039771D01*
X147307143Y-112039771D02*
X147250000Y-112039771D01*
X147250000Y-112039771D02*
X147164286Y-112068342D01*
X147164286Y-112068342D02*
X147135714Y-112096914D01*
X146621429Y-112039771D02*
X146735714Y-112039771D01*
X146735714Y-112039771D02*
X146792857Y-112068342D01*
X146792857Y-112068342D02*
X146821429Y-112096914D01*
X146821429Y-112096914D02*
X146878571Y-112182628D01*
X146878571Y-112182628D02*
X146907143Y-112296914D01*
X146907143Y-112296914D02*
X146907143Y-112525485D01*
X146907143Y-112525485D02*
X146878571Y-112582628D01*
X146878571Y-112582628D02*
X146850000Y-112611200D01*
X146850000Y-112611200D02*
X146792857Y-112639771D01*
X146792857Y-112639771D02*
X146678571Y-112639771D01*
X146678571Y-112639771D02*
X146621429Y-112611200D01*
X146621429Y-112611200D02*
X146592857Y-112582628D01*
X146592857Y-112582628D02*
X146564286Y-112525485D01*
X146564286Y-112525485D02*
X146564286Y-112382628D01*
X146564286Y-112382628D02*
X146592857Y-112325485D01*
X146592857Y-112325485D02*
X146621429Y-112296914D01*
X146621429Y-112296914D02*
X146678571Y-112268342D01*
X146678571Y-112268342D02*
X146792857Y-112268342D01*
X146792857Y-112268342D02*
X146850000Y-112296914D01*
X146850000Y-112296914D02*
X146878571Y-112325485D01*
X146878571Y-112325485D02*
X146907143Y-112382628D01*
X146050000Y-112239771D02*
X146050000Y-112639771D01*
X146192857Y-112011200D02*
X146335714Y-112439771D01*
X146335714Y-112439771D02*
X145964285Y-112439771D01*
X127682143Y-90116200D02*
X127596429Y-90144771D01*
X127596429Y-90144771D02*
X127453571Y-90144771D01*
X127453571Y-90144771D02*
X127396429Y-90116200D01*
X127396429Y-90116200D02*
X127367857Y-90087628D01*
X127367857Y-90087628D02*
X127339286Y-90030485D01*
X127339286Y-90030485D02*
X127339286Y-89973342D01*
X127339286Y-89973342D02*
X127367857Y-89916200D01*
X127367857Y-89916200D02*
X127396429Y-89887628D01*
X127396429Y-89887628D02*
X127453571Y-89859057D01*
X127453571Y-89859057D02*
X127567857Y-89830485D01*
X127567857Y-89830485D02*
X127625000Y-89801914D01*
X127625000Y-89801914D02*
X127653571Y-89773342D01*
X127653571Y-89773342D02*
X127682143Y-89716200D01*
X127682143Y-89716200D02*
X127682143Y-89659057D01*
X127682143Y-89659057D02*
X127653571Y-89601914D01*
X127653571Y-89601914D02*
X127625000Y-89573342D01*
X127625000Y-89573342D02*
X127567857Y-89544771D01*
X127567857Y-89544771D02*
X127425000Y-89544771D01*
X127425000Y-89544771D02*
X127339286Y-89573342D01*
X126739285Y-90144771D02*
X126939285Y-89859057D01*
X127082142Y-90144771D02*
X127082142Y-89544771D01*
X127082142Y-89544771D02*
X126853571Y-89544771D01*
X126853571Y-89544771D02*
X126796428Y-89573342D01*
X126796428Y-89573342D02*
X126767857Y-89601914D01*
X126767857Y-89601914D02*
X126739285Y-89659057D01*
X126739285Y-89659057D02*
X126739285Y-89744771D01*
X126739285Y-89744771D02*
X126767857Y-89801914D01*
X126767857Y-89801914D02*
X126796428Y-89830485D01*
X126796428Y-89830485D02*
X126853571Y-89859057D01*
X126853571Y-89859057D02*
X127082142Y-89859057D01*
X126167857Y-90144771D02*
X126510714Y-90144771D01*
X126339285Y-90144771D02*
X126339285Y-89544771D01*
X126339285Y-89544771D02*
X126396428Y-89630485D01*
X126396428Y-89630485D02*
X126453571Y-89687628D01*
X126453571Y-89687628D02*
X126510714Y-89716200D01*
X154864285Y-95136104D02*
X154902381Y-95174200D01*
X154902381Y-95174200D02*
X155016666Y-95212295D01*
X155016666Y-95212295D02*
X155092857Y-95212295D01*
X155092857Y-95212295D02*
X155207143Y-95174200D01*
X155207143Y-95174200D02*
X155283333Y-95098009D01*
X155283333Y-95098009D02*
X155321428Y-95021819D01*
X155321428Y-95021819D02*
X155359524Y-94869438D01*
X155359524Y-94869438D02*
X155359524Y-94755152D01*
X155359524Y-94755152D02*
X155321428Y-94602771D01*
X155321428Y-94602771D02*
X155283333Y-94526580D01*
X155283333Y-94526580D02*
X155207143Y-94450390D01*
X155207143Y-94450390D02*
X155092857Y-94412295D01*
X155092857Y-94412295D02*
X155016666Y-94412295D01*
X155016666Y-94412295D02*
X154902381Y-94450390D01*
X154902381Y-94450390D02*
X154864285Y-94488485D01*
X154178571Y-94412295D02*
X154330952Y-94412295D01*
X154330952Y-94412295D02*
X154407143Y-94450390D01*
X154407143Y-94450390D02*
X154445238Y-94488485D01*
X154445238Y-94488485D02*
X154521428Y-94602771D01*
X154521428Y-94602771D02*
X154559524Y-94755152D01*
X154559524Y-94755152D02*
X154559524Y-95059914D01*
X154559524Y-95059914D02*
X154521428Y-95136104D01*
X154521428Y-95136104D02*
X154483333Y-95174200D01*
X154483333Y-95174200D02*
X154407143Y-95212295D01*
X154407143Y-95212295D02*
X154254762Y-95212295D01*
X154254762Y-95212295D02*
X154178571Y-95174200D01*
X154178571Y-95174200D02*
X154140476Y-95136104D01*
X154140476Y-95136104D02*
X154102381Y-95059914D01*
X154102381Y-95059914D02*
X154102381Y-94869438D01*
X154102381Y-94869438D02*
X154140476Y-94793247D01*
X154140476Y-94793247D02*
X154178571Y-94755152D01*
X154178571Y-94755152D02*
X154254762Y-94717057D01*
X154254762Y-94717057D02*
X154407143Y-94717057D01*
X154407143Y-94717057D02*
X154483333Y-94755152D01*
X154483333Y-94755152D02*
X154521428Y-94793247D01*
X154521428Y-94793247D02*
X154559524Y-94869438D01*
X153645238Y-94755152D02*
X153721428Y-94717057D01*
X153721428Y-94717057D02*
X153759523Y-94678961D01*
X153759523Y-94678961D02*
X153797619Y-94602771D01*
X153797619Y-94602771D02*
X153797619Y-94564676D01*
X153797619Y-94564676D02*
X153759523Y-94488485D01*
X153759523Y-94488485D02*
X153721428Y-94450390D01*
X153721428Y-94450390D02*
X153645238Y-94412295D01*
X153645238Y-94412295D02*
X153492857Y-94412295D01*
X153492857Y-94412295D02*
X153416666Y-94450390D01*
X153416666Y-94450390D02*
X153378571Y-94488485D01*
X153378571Y-94488485D02*
X153340476Y-94564676D01*
X153340476Y-94564676D02*
X153340476Y-94602771D01*
X153340476Y-94602771D02*
X153378571Y-94678961D01*
X153378571Y-94678961D02*
X153416666Y-94717057D01*
X153416666Y-94717057D02*
X153492857Y-94755152D01*
X153492857Y-94755152D02*
X153645238Y-94755152D01*
X153645238Y-94755152D02*
X153721428Y-94793247D01*
X153721428Y-94793247D02*
X153759523Y-94831342D01*
X153759523Y-94831342D02*
X153797619Y-94907533D01*
X153797619Y-94907533D02*
X153797619Y-95059914D01*
X153797619Y-95059914D02*
X153759523Y-95136104D01*
X153759523Y-95136104D02*
X153721428Y-95174200D01*
X153721428Y-95174200D02*
X153645238Y-95212295D01*
X153645238Y-95212295D02*
X153492857Y-95212295D01*
X153492857Y-95212295D02*
X153416666Y-95174200D01*
X153416666Y-95174200D02*
X153378571Y-95136104D01*
X153378571Y-95136104D02*
X153340476Y-95059914D01*
X153340476Y-95059914D02*
X153340476Y-94907533D01*
X153340476Y-94907533D02*
X153378571Y-94831342D01*
X153378571Y-94831342D02*
X153416666Y-94793247D01*
X153416666Y-94793247D02*
X153492857Y-94755152D01*
X145533332Y-94861104D02*
X145571428Y-94899200D01*
X145571428Y-94899200D02*
X145685713Y-94937295D01*
X145685713Y-94937295D02*
X145761904Y-94937295D01*
X145761904Y-94937295D02*
X145876190Y-94899200D01*
X145876190Y-94899200D02*
X145952380Y-94823009D01*
X145952380Y-94823009D02*
X145990475Y-94746819D01*
X145990475Y-94746819D02*
X146028571Y-94594438D01*
X146028571Y-94594438D02*
X146028571Y-94480152D01*
X146028571Y-94480152D02*
X145990475Y-94327771D01*
X145990475Y-94327771D02*
X145952380Y-94251580D01*
X145952380Y-94251580D02*
X145876190Y-94175390D01*
X145876190Y-94175390D02*
X145761904Y-94137295D01*
X145761904Y-94137295D02*
X145685713Y-94137295D01*
X145685713Y-94137295D02*
X145571428Y-94175390D01*
X145571428Y-94175390D02*
X145533332Y-94213485D01*
X145266666Y-94137295D02*
X144733332Y-94137295D01*
X144733332Y-94137295D02*
X145076190Y-94937295D01*
X154458332Y-85912295D02*
X154724999Y-85531342D01*
X154915475Y-85912295D02*
X154915475Y-85112295D01*
X154915475Y-85112295D02*
X154610713Y-85112295D01*
X154610713Y-85112295D02*
X154534523Y-85150390D01*
X154534523Y-85150390D02*
X154496428Y-85188485D01*
X154496428Y-85188485D02*
X154458332Y-85264676D01*
X154458332Y-85264676D02*
X154458332Y-85378961D01*
X154458332Y-85378961D02*
X154496428Y-85455152D01*
X154496428Y-85455152D02*
X154534523Y-85493247D01*
X154534523Y-85493247D02*
X154610713Y-85531342D01*
X154610713Y-85531342D02*
X154915475Y-85531342D01*
X154153571Y-85188485D02*
X154115475Y-85150390D01*
X154115475Y-85150390D02*
X154039285Y-85112295D01*
X154039285Y-85112295D02*
X153848809Y-85112295D01*
X153848809Y-85112295D02*
X153772618Y-85150390D01*
X153772618Y-85150390D02*
X153734523Y-85188485D01*
X153734523Y-85188485D02*
X153696428Y-85264676D01*
X153696428Y-85264676D02*
X153696428Y-85340866D01*
X153696428Y-85340866D02*
X153734523Y-85455152D01*
X153734523Y-85455152D02*
X154191666Y-85912295D01*
X154191666Y-85912295D02*
X153696428Y-85912295D01*
X158017482Y-89120111D02*
X158055578Y-89158207D01*
X158055578Y-89158207D02*
X158169863Y-89196302D01*
X158169863Y-89196302D02*
X158246054Y-89196302D01*
X158246054Y-89196302D02*
X158360340Y-89158207D01*
X158360340Y-89158207D02*
X158436530Y-89082016D01*
X158436530Y-89082016D02*
X158474625Y-89005826D01*
X158474625Y-89005826D02*
X158512721Y-88853445D01*
X158512721Y-88853445D02*
X158512721Y-88739159D01*
X158512721Y-88739159D02*
X158474625Y-88586778D01*
X158474625Y-88586778D02*
X158436530Y-88510587D01*
X158436530Y-88510587D02*
X158360340Y-88434397D01*
X158360340Y-88434397D02*
X158246054Y-88396302D01*
X158246054Y-88396302D02*
X158169863Y-88396302D01*
X158169863Y-88396302D02*
X158055578Y-88434397D01*
X158055578Y-88434397D02*
X158017482Y-88472492D01*
X157293673Y-88396302D02*
X157674625Y-88396302D01*
X157674625Y-88396302D02*
X157712721Y-88777254D01*
X157712721Y-88777254D02*
X157674625Y-88739159D01*
X157674625Y-88739159D02*
X157598435Y-88701064D01*
X157598435Y-88701064D02*
X157407959Y-88701064D01*
X157407959Y-88701064D02*
X157331768Y-88739159D01*
X157331768Y-88739159D02*
X157293673Y-88777254D01*
X157293673Y-88777254D02*
X157255578Y-88853445D01*
X157255578Y-88853445D02*
X157255578Y-89043921D01*
X157255578Y-89043921D02*
X157293673Y-89120111D01*
X157293673Y-89120111D02*
X157331768Y-89158207D01*
X157331768Y-89158207D02*
X157407959Y-89196302D01*
X157407959Y-89196302D02*
X157598435Y-89196302D01*
X157598435Y-89196302D02*
X157674625Y-89158207D01*
X157674625Y-89158207D02*
X157712721Y-89120111D01*
X150532271Y-115107143D02*
X151017985Y-115107143D01*
X151017985Y-115107143D02*
X151075128Y-115135714D01*
X151075128Y-115135714D02*
X151103700Y-115164286D01*
X151103700Y-115164286D02*
X151132271Y-115221428D01*
X151132271Y-115221428D02*
X151132271Y-115335714D01*
X151132271Y-115335714D02*
X151103700Y-115392857D01*
X151103700Y-115392857D02*
X151075128Y-115421428D01*
X151075128Y-115421428D02*
X151017985Y-115450000D01*
X151017985Y-115450000D02*
X150532271Y-115450000D01*
X151132271Y-116049999D02*
X151132271Y-115707142D01*
X151132271Y-115878571D02*
X150532271Y-115878571D01*
X150532271Y-115878571D02*
X150617985Y-115821428D01*
X150617985Y-115821428D02*
X150675128Y-115764285D01*
X150675128Y-115764285D02*
X150703700Y-115707142D01*
X150732271Y-116564286D02*
X151132271Y-116564286D01*
X150503700Y-116421428D02*
X150932271Y-116278571D01*
X150932271Y-116278571D02*
X150932271Y-116650000D01*
D11*
%TO.C,LED1*%
X144969700Y-82299719D02*
X144969700Y-81900281D01*
X147230300Y-81900281D02*
X147230300Y-82299719D01*
X146176200Y-84389900D02*
G75*
G02*
X146023800Y-84389900I-76200J0D01*
G01*
X146023800Y-84389900D02*
G75*
G02*
X146176200Y-84389900I76200J0D01*
G01*
D12*
%TO.C,ESP_3V3*%
X133728000Y-120920000D02*
X133728000Y-122920000D01*
X133728000Y-122920000D02*
X136528000Y-122920000D01*
X136528000Y-120920000D02*
X133728000Y-120920000D01*
X136528000Y-122920000D02*
X136528000Y-120920000D01*
%TO.C,R18*%
X149421500Y-112066641D02*
X149421500Y-111759359D01*
X150181500Y-112066641D02*
X150181500Y-111759359D01*
D11*
%TO.C,U4*%
X149972500Y-95099800D02*
X151877500Y-95099800D01*
X151877500Y-98300200D02*
X149972500Y-98300200D01*
D12*
%TO.C,SR2*%
X132433000Y-90952000D02*
X132433000Y-91007000D01*
X132433000Y-101017000D02*
X132433000Y-101072000D01*
X132433000Y-101072000D02*
X136553000Y-101072000D01*
X136553000Y-90952000D02*
X132433000Y-90952000D01*
X136553000Y-91007000D02*
X136553000Y-90952000D01*
X136553000Y-101072000D02*
X136553000Y-101017000D01*
X137093000Y-91002000D02*
X136853000Y-90672000D01*
X137333000Y-90672000D01*
X137093000Y-91002000D01*
G36*
X137093000Y-91002000D02*
G01*
X136853000Y-90672000D01*
X137333000Y-90672000D01*
X137093000Y-91002000D01*
G37*
%TO.C,R23*%
X152891646Y-115108640D02*
X152891646Y-114801358D01*
X153651646Y-115108640D02*
X153651646Y-114801358D01*
%TO.C,C71*%
X150229664Y-113078500D02*
X150445336Y-113078500D01*
X150229664Y-113798500D02*
X150445336Y-113798500D01*
D11*
%TO.C,U1*%
X149873600Y-81048600D02*
X153226400Y-81048600D01*
X153226400Y-84401400D02*
X149873600Y-84401400D01*
D12*
%TO.C,R22*%
X152891646Y-112568640D02*
X152891646Y-112261358D01*
X153651646Y-112568640D02*
X153651646Y-112261358D01*
D11*
%TO.C,U2*%
X146754500Y-87208800D02*
X148659500Y-87208800D01*
X148659500Y-90409200D02*
X146754500Y-90409200D01*
D12*
%TO.C,C54*%
X129901836Y-90572000D02*
X129686164Y-90572000D01*
X129901836Y-91292000D02*
X129686164Y-91292000D01*
%TO.C,C48*%
X126767000Y-80664164D02*
X126767000Y-80879836D01*
X127487000Y-80664164D02*
X127487000Y-80879836D01*
%TO.C,C64*%
X147744646Y-113176161D02*
X147744646Y-112960489D01*
X148464646Y-113176161D02*
X148464646Y-112960489D01*
%TO.C,SR1*%
X129320000Y-79776000D02*
X129320000Y-79831000D01*
X129320000Y-89841000D02*
X129320000Y-89896000D01*
X129320000Y-89896000D02*
X133440000Y-89896000D01*
X133440000Y-79776000D02*
X129320000Y-79776000D01*
X133440000Y-79831000D02*
X133440000Y-79776000D01*
X133440000Y-89896000D02*
X133440000Y-89841000D01*
X133980000Y-79826000D02*
X133740000Y-79496000D01*
X134220000Y-79496000D01*
X133980000Y-79826000D01*
G36*
X133980000Y-79826000D02*
G01*
X133740000Y-79496000D01*
X134220000Y-79496000D01*
X133980000Y-79826000D01*
G37*
%TO.C,U14*%
X147802500Y-115115000D02*
X147802500Y-116585000D01*
X150022500Y-116449252D02*
X150022500Y-115115000D01*
X150222500Y-116880000D02*
X150032500Y-116740000D01*
X150222500Y-116600000D01*
X150222500Y-116880000D01*
G36*
X150222500Y-116880000D02*
G01*
X150032500Y-116740000D01*
X150222500Y-116600000D01*
X150222500Y-116880000D01*
G37*
%TD*%
%LPC*%
G36*
X145446742Y-127308601D02*
G01*
X145600687Y-127372367D01*
X145739234Y-127464941D01*
X145857059Y-127582766D01*
X145949633Y-127721313D01*
X146013399Y-127875258D01*
X146045907Y-128038685D01*
X146045907Y-128205315D01*
X146013399Y-128368742D01*
X145949633Y-128522687D01*
X145857059Y-128661234D01*
X145739234Y-128779059D01*
X145600687Y-128871633D01*
X145446742Y-128935399D01*
X145283315Y-128967907D01*
X145116685Y-128967907D01*
X144953258Y-128935399D01*
X144799313Y-128871633D01*
X144660766Y-128779059D01*
X144542941Y-128661234D01*
X144450367Y-128522687D01*
X144386601Y-128368742D01*
X144354093Y-128205315D01*
X144354093Y-128038685D01*
X144386601Y-127875258D01*
X144450367Y-127721313D01*
X144542941Y-127582766D01*
X144660766Y-127464941D01*
X144799313Y-127372367D01*
X144953258Y-127308601D01*
X145116685Y-127276093D01*
X145283315Y-127276093D01*
X145446742Y-127308601D01*
G37*
G36*
X147986742Y-127308601D02*
G01*
X148140687Y-127372367D01*
X148279234Y-127464941D01*
X148397059Y-127582766D01*
X148489633Y-127721313D01*
X148553399Y-127875258D01*
X148585907Y-128038685D01*
X148585907Y-128205315D01*
X148553399Y-128368742D01*
X148489633Y-128522687D01*
X148397059Y-128661234D01*
X148279234Y-128779059D01*
X148140687Y-128871633D01*
X147986742Y-128935399D01*
X147823315Y-128967907D01*
X147656685Y-128967907D01*
X147493258Y-128935399D01*
X147339313Y-128871633D01*
X147200766Y-128779059D01*
X147082941Y-128661234D01*
X146990367Y-128522687D01*
X146926601Y-128368742D01*
X146894093Y-128205315D01*
X146894093Y-128038685D01*
X146926601Y-127875258D01*
X146990367Y-127721313D01*
X147082941Y-127582766D01*
X147200766Y-127464941D01*
X147339313Y-127372367D01*
X147493258Y-127308601D01*
X147656685Y-127276093D01*
X147823315Y-127276093D01*
X147986742Y-127308601D01*
G37*
G36*
X129770672Y-125186508D02*
G01*
X130010735Y-125250833D01*
X130240349Y-125345942D01*
X130455583Y-125470208D01*
X130652757Y-125621504D01*
X130828496Y-125797243D01*
X130979792Y-125994417D01*
X131104058Y-126209651D01*
X131199167Y-126439265D01*
X131263492Y-126679328D01*
X131295932Y-126925734D01*
X131295932Y-127174266D01*
X131263492Y-127420672D01*
X131199167Y-127660735D01*
X131104058Y-127890349D01*
X130979792Y-128105583D01*
X130828496Y-128302757D01*
X130652757Y-128478496D01*
X130455583Y-128629792D01*
X130240349Y-128754058D01*
X130010735Y-128849167D01*
X129770672Y-128913492D01*
X129524266Y-128945932D01*
X129275734Y-128945932D01*
X129029328Y-128913492D01*
X128789265Y-128849167D01*
X128559651Y-128754058D01*
X128344417Y-128629792D01*
X128147243Y-128478496D01*
X127971504Y-128302757D01*
X127820208Y-128105583D01*
X127695942Y-127890349D01*
X127600833Y-127660735D01*
X127536508Y-127420672D01*
X127504068Y-127174266D01*
X127504068Y-126925734D01*
X127536508Y-126679328D01*
X127600833Y-126439265D01*
X127695942Y-126209651D01*
X127820208Y-125994417D01*
X127971504Y-125797243D01*
X128147243Y-125621504D01*
X128344417Y-125470208D01*
X128559651Y-125345942D01*
X128789265Y-125250833D01*
X129029328Y-125186508D01*
X129275734Y-125154068D01*
X129524266Y-125154068D01*
X129770672Y-125186508D01*
G37*
G36*
X163270672Y-125186508D02*
G01*
X163510735Y-125250833D01*
X163740349Y-125345942D01*
X163955583Y-125470208D01*
X164152757Y-125621504D01*
X164328496Y-125797243D01*
X164479792Y-125994417D01*
X164604058Y-126209651D01*
X164699167Y-126439265D01*
X164763492Y-126679328D01*
X164795932Y-126925734D01*
X164795932Y-127174266D01*
X164763492Y-127420672D01*
X164699167Y-127660735D01*
X164604058Y-127890349D01*
X164479792Y-128105583D01*
X164328496Y-128302757D01*
X164152757Y-128478496D01*
X163955583Y-128629792D01*
X163740349Y-128754058D01*
X163510735Y-128849167D01*
X163270672Y-128913492D01*
X163024266Y-128945932D01*
X162775734Y-128945932D01*
X162529328Y-128913492D01*
X162289265Y-128849167D01*
X162059651Y-128754058D01*
X161844417Y-128629792D01*
X161647243Y-128478496D01*
X161471504Y-128302757D01*
X161320208Y-128105583D01*
X161195942Y-127890349D01*
X161100833Y-127660735D01*
X161036508Y-127420672D01*
X161004068Y-127174266D01*
X161004068Y-126925734D01*
X161036508Y-126679328D01*
X161100833Y-126439265D01*
X161195942Y-126209651D01*
X161320208Y-125994417D01*
X161471504Y-125797243D01*
X161647243Y-125621504D01*
X161844417Y-125470208D01*
X162059651Y-125345942D01*
X162289265Y-125250833D01*
X162529328Y-125186508D01*
X162775734Y-125154068D01*
X163024266Y-125154068D01*
X163270672Y-125186508D01*
G37*
G36*
X150857100Y-127434900D02*
G01*
X150049100Y-127434900D01*
X150049100Y-126445100D01*
X150857100Y-126445100D01*
X150857100Y-127434900D01*
G37*
G36*
X152350900Y-127434900D02*
G01*
X151542900Y-127434900D01*
X151542900Y-126445100D01*
X152350900Y-126445100D01*
X152350900Y-127434900D01*
G37*
G36*
X145446742Y-124768601D02*
G01*
X145600687Y-124832367D01*
X145739234Y-124924941D01*
X145857059Y-125042766D01*
X145949633Y-125181313D01*
X146013399Y-125335258D01*
X146045907Y-125498685D01*
X146045907Y-125665315D01*
X146013399Y-125828742D01*
X145949633Y-125982687D01*
X145857059Y-126121234D01*
X145739234Y-126239059D01*
X145600687Y-126331633D01*
X145446742Y-126395399D01*
X145283315Y-126427907D01*
X145116685Y-126427907D01*
X144953258Y-126395399D01*
X144799313Y-126331633D01*
X144660766Y-126239059D01*
X144542941Y-126121234D01*
X144450367Y-125982687D01*
X144386601Y-125828742D01*
X144354093Y-125665315D01*
X144354093Y-125498685D01*
X144386601Y-125335258D01*
X144450367Y-125181313D01*
X144542941Y-125042766D01*
X144660766Y-124924941D01*
X144799313Y-124832367D01*
X144953258Y-124768601D01*
X145116685Y-124736093D01*
X145283315Y-124736093D01*
X145446742Y-124768601D01*
G37*
G36*
X147986742Y-124768601D02*
G01*
X148140687Y-124832367D01*
X148279234Y-124924941D01*
X148397059Y-125042766D01*
X148489633Y-125181313D01*
X148553399Y-125335258D01*
X148585907Y-125498685D01*
X148585907Y-125665315D01*
X148553399Y-125828742D01*
X148489633Y-125982687D01*
X148397059Y-126121234D01*
X148279234Y-126239059D01*
X148140687Y-126331633D01*
X147986742Y-126395399D01*
X147823315Y-126427907D01*
X147656685Y-126427907D01*
X147493258Y-126395399D01*
X147339313Y-126331633D01*
X147200766Y-126239059D01*
X147082941Y-126121234D01*
X146990367Y-125982687D01*
X146926601Y-125828742D01*
X146894093Y-125665315D01*
X146894093Y-125498685D01*
X146926601Y-125335258D01*
X146990367Y-125181313D01*
X147082941Y-125042766D01*
X147200766Y-124924941D01*
X147339313Y-124832367D01*
X147493258Y-124768601D01*
X147656685Y-124736093D01*
X147823315Y-124736093D01*
X147986742Y-124768601D01*
G37*
G36*
X150795000Y-125170000D02*
G01*
X149945000Y-125170000D01*
X149945000Y-124210000D01*
X150795000Y-124210000D01*
X150795000Y-125170000D01*
G37*
G36*
X152395000Y-125170000D02*
G01*
X151545000Y-125170000D01*
X151545000Y-124210000D01*
X152395000Y-124210000D01*
X152395000Y-125170000D01*
G37*
G36*
X128670000Y-123930000D02*
G01*
X126970000Y-123930000D01*
X126970000Y-122230000D01*
X128670000Y-122230000D01*
X128670000Y-123930000D01*
G37*
G36*
X145446742Y-122228601D02*
G01*
X145600687Y-122292367D01*
X145739234Y-122384941D01*
X145857059Y-122502766D01*
X145949633Y-122641313D01*
X146013399Y-122795258D01*
X146045907Y-122958685D01*
X146045907Y-123125315D01*
X146013399Y-123288742D01*
X145949633Y-123442687D01*
X145857059Y-123581234D01*
X145739234Y-123699059D01*
X145600687Y-123791633D01*
X145446742Y-123855399D01*
X145283315Y-123887907D01*
X145116685Y-123887907D01*
X144953258Y-123855399D01*
X144799313Y-123791633D01*
X144660766Y-123699059D01*
X144542941Y-123581234D01*
X144450367Y-123442687D01*
X144386601Y-123288742D01*
X144354093Y-123125315D01*
X144354093Y-122958685D01*
X144386601Y-122795258D01*
X144450367Y-122641313D01*
X144542941Y-122502766D01*
X144660766Y-122384941D01*
X144799313Y-122292367D01*
X144953258Y-122228601D01*
X145116685Y-122196093D01*
X145283315Y-122196093D01*
X145446742Y-122228601D01*
G37*
G36*
X147986742Y-122228601D02*
G01*
X148140687Y-122292367D01*
X148279234Y-122384941D01*
X148397059Y-122502766D01*
X148489633Y-122641313D01*
X148553399Y-122795258D01*
X148585907Y-122958685D01*
X148585907Y-123125315D01*
X148553399Y-123288742D01*
X148489633Y-123442687D01*
X148397059Y-123581234D01*
X148279234Y-123699059D01*
X148140687Y-123791633D01*
X147986742Y-123855399D01*
X147823315Y-123887907D01*
X147656685Y-123887907D01*
X147493258Y-123855399D01*
X147339313Y-123791633D01*
X147200766Y-123699059D01*
X147082941Y-123581234D01*
X146990367Y-123442687D01*
X146926601Y-123288742D01*
X146894093Y-123125315D01*
X146894093Y-122958685D01*
X146926601Y-122795258D01*
X146990367Y-122641313D01*
X147082941Y-122502766D01*
X147200766Y-122384941D01*
X147339313Y-122292367D01*
X147493258Y-122228601D01*
X147656685Y-122196093D01*
X147823315Y-122196093D01*
X147986742Y-122228601D01*
G37*
G36*
X136278000Y-122670000D02*
G01*
X135278000Y-122670000D01*
X134980105Y-122670000D01*
X134978000Y-122670000D01*
X133978000Y-122670000D01*
X133978000Y-121170000D01*
X134978000Y-121170000D01*
X136272996Y-121170000D01*
X136278000Y-121170000D01*
X136278000Y-122670000D01*
G37*
G36*
X151896507Y-121228294D02*
G01*
X151959937Y-121236644D01*
X151975895Y-121244085D01*
X151995238Y-121247933D01*
X152020859Y-121265052D01*
X152047286Y-121277376D01*
X152063363Y-121293453D01*
X152084454Y-121307546D01*
X152098546Y-121328636D01*
X152114623Y-121344713D01*
X152126944Y-121371136D01*
X152144067Y-121396762D01*
X152147915Y-121416108D01*
X152155353Y-121432059D01*
X152163699Y-121495460D01*
X152165000Y-121502000D01*
X152165000Y-122052000D01*
X152163702Y-122058522D01*
X152155355Y-122121937D01*
X152147915Y-122137891D01*
X152144067Y-122157238D01*
X152126943Y-122182864D01*
X152114623Y-122209286D01*
X152098548Y-122225360D01*
X152084454Y-122246454D01*
X152063360Y-122260548D01*
X152047286Y-122276623D01*
X152020865Y-122288943D01*
X151995238Y-122306067D01*
X151975889Y-122309915D01*
X151959940Y-122317353D01*
X151896541Y-122325698D01*
X151890000Y-122327000D01*
X149940000Y-122327000D01*
X149933479Y-122325702D01*
X149870062Y-122317355D01*
X149854106Y-122309914D01*
X149834762Y-122306067D01*
X149809137Y-122288945D01*
X149782713Y-122276623D01*
X149766636Y-122260546D01*
X149745546Y-122246454D01*
X149731453Y-122225363D01*
X149715376Y-122209286D01*
X149703053Y-122182860D01*
X149685933Y-122157238D01*
X149682085Y-122137893D01*
X149674646Y-122121940D01*
X149666298Y-122058526D01*
X149665000Y-122052000D01*
X149665000Y-121502000D01*
X149666294Y-121495494D01*
X149674644Y-121432062D01*
X149682085Y-121416103D01*
X149685933Y-121396762D01*
X149703051Y-121371142D01*
X149715376Y-121344713D01*
X149731455Y-121328633D01*
X149745546Y-121307546D01*
X149766633Y-121293455D01*
X149782713Y-121277376D01*
X149809141Y-121265052D01*
X149834762Y-121247933D01*
X149854104Y-121244085D01*
X149870059Y-121236646D01*
X149933475Y-121228297D01*
X149940000Y-121227000D01*
X151890000Y-121227000D01*
X151896507Y-121228294D01*
G37*
G36*
X128066742Y-119726601D02*
G01*
X128220687Y-119790367D01*
X128359234Y-119882941D01*
X128477059Y-120000766D01*
X128569633Y-120139313D01*
X128633399Y-120293258D01*
X128665907Y-120456685D01*
X128665907Y-120623315D01*
X128633399Y-120786742D01*
X128569633Y-120940687D01*
X128477059Y-121079234D01*
X128359234Y-121197059D01*
X128220687Y-121289633D01*
X128066742Y-121353399D01*
X127903315Y-121385907D01*
X127736685Y-121385907D01*
X127573258Y-121353399D01*
X127419313Y-121289633D01*
X127280766Y-121197059D01*
X127162941Y-121079234D01*
X127070367Y-120940687D01*
X127006601Y-120786742D01*
X126974093Y-120623315D01*
X126974093Y-120456685D01*
X127006601Y-120293258D01*
X127070367Y-120139313D01*
X127162941Y-120000766D01*
X127280766Y-119882941D01*
X127419313Y-119790367D01*
X127573258Y-119726601D01*
X127736685Y-119694093D01*
X127903315Y-119694093D01*
X128066742Y-119726601D01*
G37*
G36*
X145446742Y-119688601D02*
G01*
X145600687Y-119752367D01*
X145739234Y-119844941D01*
X145857059Y-119962766D01*
X145949633Y-120101313D01*
X146013399Y-120255258D01*
X146045907Y-120418685D01*
X146045907Y-120585315D01*
X146013399Y-120748742D01*
X145949633Y-120902687D01*
X145857059Y-121041234D01*
X145739234Y-121159059D01*
X145600687Y-121251633D01*
X145446742Y-121315399D01*
X145283315Y-121347907D01*
X145116685Y-121347907D01*
X144953258Y-121315399D01*
X144799313Y-121251633D01*
X144660766Y-121159059D01*
X144542941Y-121041234D01*
X144450367Y-120902687D01*
X144386601Y-120748742D01*
X144354093Y-120585315D01*
X144354093Y-120418685D01*
X144386601Y-120255258D01*
X144450367Y-120101313D01*
X144542941Y-119962766D01*
X144660766Y-119844941D01*
X144799313Y-119752367D01*
X144953258Y-119688601D01*
X145116685Y-119656093D01*
X145283315Y-119656093D01*
X145446742Y-119688601D01*
G37*
G36*
X147986742Y-119688601D02*
G01*
X148140687Y-119752367D01*
X148279234Y-119844941D01*
X148397059Y-119962766D01*
X148489633Y-120101313D01*
X148553399Y-120255258D01*
X148585907Y-120418685D01*
X148585907Y-120585315D01*
X148553399Y-120748742D01*
X148489633Y-120902687D01*
X148397059Y-121041234D01*
X148279234Y-121159059D01*
X148140687Y-121251633D01*
X147986742Y-121315399D01*
X147823315Y-121347907D01*
X147656685Y-121347907D01*
X147493258Y-121315399D01*
X147339313Y-121251633D01*
X147200766Y-121159059D01*
X147082941Y-121041234D01*
X146990367Y-120902687D01*
X146926601Y-120748742D01*
X146894093Y-120585315D01*
X146894093Y-120418685D01*
X146926601Y-120255258D01*
X146990367Y-120101313D01*
X147082941Y-119962766D01*
X147200766Y-119844941D01*
X147339313Y-119752367D01*
X147493258Y-119688601D01*
X147656685Y-119656093D01*
X147823315Y-119656093D01*
X147986742Y-119688601D01*
G37*
G36*
X151896507Y-119323294D02*
G01*
X151959937Y-119331644D01*
X151975895Y-119339085D01*
X151995238Y-119342933D01*
X152020859Y-119360052D01*
X152047286Y-119372376D01*
X152063363Y-119388453D01*
X152084454Y-119402546D01*
X152098546Y-119423636D01*
X152114623Y-119439713D01*
X152126944Y-119466136D01*
X152144067Y-119491762D01*
X152147915Y-119511108D01*
X152155353Y-119527059D01*
X152163699Y-119590460D01*
X152165000Y-119597000D01*
X152165000Y-120147000D01*
X152163702Y-120153522D01*
X152155355Y-120216937D01*
X152147915Y-120232891D01*
X152144067Y-120252238D01*
X152126943Y-120277864D01*
X152114623Y-120304286D01*
X152098548Y-120320360D01*
X152084454Y-120341454D01*
X152063360Y-120355548D01*
X152047286Y-120371623D01*
X152020865Y-120383943D01*
X151995238Y-120401067D01*
X151975889Y-120404915D01*
X151959940Y-120412353D01*
X151896541Y-120420698D01*
X151890000Y-120422000D01*
X149940000Y-120422000D01*
X149933479Y-120420702D01*
X149870062Y-120412355D01*
X149854106Y-120404914D01*
X149834762Y-120401067D01*
X149809137Y-120383945D01*
X149782713Y-120371623D01*
X149766636Y-120355546D01*
X149745546Y-120341454D01*
X149731453Y-120320363D01*
X149715376Y-120304286D01*
X149703053Y-120277860D01*
X149685933Y-120252238D01*
X149682085Y-120232893D01*
X149674646Y-120216940D01*
X149666298Y-120153526D01*
X149665000Y-120147000D01*
X149665000Y-119597000D01*
X149666294Y-119590494D01*
X149674644Y-119527062D01*
X149682085Y-119511103D01*
X149685933Y-119491762D01*
X149703051Y-119466142D01*
X149715376Y-119439713D01*
X149731455Y-119423633D01*
X149745546Y-119402546D01*
X149766633Y-119388455D01*
X149782713Y-119372376D01*
X149809141Y-119360052D01*
X149834762Y-119342933D01*
X149854104Y-119339085D01*
X149870059Y-119331646D01*
X149933475Y-119323297D01*
X149940000Y-119322000D01*
X151890000Y-119322000D01*
X151896507Y-119323294D01*
G37*
G36*
X128066742Y-117186601D02*
G01*
X128220687Y-117250367D01*
X128359234Y-117342941D01*
X128477059Y-117460766D01*
X128569633Y-117599313D01*
X128633399Y-117753258D01*
X128665907Y-117916685D01*
X128665907Y-118083315D01*
X128633399Y-118246742D01*
X128569633Y-118400687D01*
X128477059Y-118539234D01*
X128359234Y-118657059D01*
X128220687Y-118749633D01*
X128066742Y-118813399D01*
X127903315Y-118845907D01*
X127736685Y-118845907D01*
X127573258Y-118813399D01*
X127419313Y-118749633D01*
X127280766Y-118657059D01*
X127162941Y-118539234D01*
X127070367Y-118400687D01*
X127006601Y-118246742D01*
X126974093Y-118083315D01*
X126974093Y-117916685D01*
X127006601Y-117753258D01*
X127070367Y-117599313D01*
X127162941Y-117460766D01*
X127280766Y-117342941D01*
X127419313Y-117250367D01*
X127573258Y-117186601D01*
X127736685Y-117154093D01*
X127903315Y-117154093D01*
X128066742Y-117186601D01*
G37*
G36*
X146197772Y-116247695D02*
G01*
X146204782Y-116249731D01*
X146211851Y-116250374D01*
X146278781Y-116271230D01*
X146348217Y-116291403D01*
X146353449Y-116294497D01*
X146356355Y-116295403D01*
X146418312Y-116332857D01*
X146483067Y-116371153D01*
X146485214Y-116373300D01*
X146485220Y-116373304D01*
X146591695Y-116479779D01*
X146591698Y-116479784D01*
X146593847Y-116481933D01*
X146632160Y-116546717D01*
X146669596Y-116608644D01*
X146670500Y-116611547D01*
X146673597Y-116616783D01*
X146693779Y-116686250D01*
X146714625Y-116753148D01*
X146715267Y-116760213D01*
X146717305Y-116767228D01*
X146725000Y-116865000D01*
X146725000Y-118115000D01*
X146717305Y-118212772D01*
X146715266Y-118219787D01*
X146714625Y-118226851D01*
X146693783Y-118293734D01*
X146673597Y-118363217D01*
X146670500Y-118368453D01*
X146669596Y-118371355D01*
X146632187Y-118433236D01*
X146593847Y-118498067D01*
X146591696Y-118500217D01*
X146591695Y-118500220D01*
X146485220Y-118606695D01*
X146485217Y-118606696D01*
X146483067Y-118608847D01*
X146418236Y-118647187D01*
X146356355Y-118684596D01*
X146353453Y-118685500D01*
X146348217Y-118688597D01*
X146278734Y-118708783D01*
X146211851Y-118729625D01*
X146204787Y-118730266D01*
X146197772Y-118732305D01*
X146100000Y-118740000D01*
X144600000Y-118740000D01*
X144502228Y-118732305D01*
X144495213Y-118730267D01*
X144488148Y-118729625D01*
X144421250Y-118708779D01*
X144351783Y-118688597D01*
X144346547Y-118685500D01*
X144343644Y-118684596D01*
X144281717Y-118647160D01*
X144216933Y-118608847D01*
X144214784Y-118606698D01*
X144214779Y-118606695D01*
X144108304Y-118500220D01*
X144108300Y-118500214D01*
X144106153Y-118498067D01*
X144067857Y-118433312D01*
X144030403Y-118371355D01*
X144029497Y-118368449D01*
X144026403Y-118363217D01*
X144006230Y-118293781D01*
X143985374Y-118226851D01*
X143984731Y-118219782D01*
X143982695Y-118212772D01*
X143975000Y-118115000D01*
X143975000Y-116865000D01*
X143982695Y-116767228D01*
X143984731Y-116760218D01*
X143985374Y-116753148D01*
X144006234Y-116686203D01*
X144026403Y-116616783D01*
X144029497Y-116611551D01*
X144030403Y-116608644D01*
X144067884Y-116546640D01*
X144106153Y-116481933D01*
X144108299Y-116479786D01*
X144108304Y-116479779D01*
X144214779Y-116373304D01*
X144214786Y-116373299D01*
X144216933Y-116371153D01*
X144281640Y-116332884D01*
X144343644Y-116295403D01*
X144346551Y-116294497D01*
X144351783Y-116291403D01*
X144421203Y-116271234D01*
X144488148Y-116250374D01*
X144495218Y-116249731D01*
X144502228Y-116247695D01*
X144600000Y-116240000D01*
X146100000Y-116240000D01*
X146197772Y-116247695D01*
G37*
G36*
X148400768Y-116082612D02*
G01*
X148433211Y-116104289D01*
X148454888Y-116136732D01*
X148462500Y-116175000D01*
X148462500Y-117300000D01*
X148454888Y-117338268D01*
X148433211Y-117370711D01*
X148400768Y-117392388D01*
X148362500Y-117400000D01*
X148162500Y-117400000D01*
X148124232Y-117392388D01*
X148091789Y-117370711D01*
X148070112Y-117338268D01*
X148062500Y-117300000D01*
X148062500Y-116175000D01*
X148070112Y-116136732D01*
X148091789Y-116104289D01*
X148124232Y-116082612D01*
X148162500Y-116075000D01*
X148362500Y-116075000D01*
X148400768Y-116082612D01*
G37*
G36*
X149050768Y-116082612D02*
G01*
X149083211Y-116104289D01*
X149104888Y-116136732D01*
X149112500Y-116175000D01*
X149112500Y-117300000D01*
X149104888Y-117338268D01*
X149083211Y-117370711D01*
X149050768Y-117392388D01*
X149012500Y-117400000D01*
X148812500Y-117400000D01*
X148774232Y-117392388D01*
X148741789Y-117370711D01*
X148720112Y-117338268D01*
X148712500Y-117300000D01*
X148712500Y-116175000D01*
X148720112Y-116136732D01*
X148741789Y-116104289D01*
X148774232Y-116082612D01*
X148812500Y-116075000D01*
X149012500Y-116075000D01*
X149050768Y-116082612D01*
G37*
G36*
X149700768Y-116082612D02*
G01*
X149733211Y-116104289D01*
X149754888Y-116136732D01*
X149762500Y-116175000D01*
X149762500Y-117300000D01*
X149754888Y-117338268D01*
X149733211Y-117370711D01*
X149700768Y-117392388D01*
X149662500Y-117400000D01*
X149462500Y-117400000D01*
X149424232Y-117392388D01*
X149391789Y-117370711D01*
X149370112Y-117338268D01*
X149362500Y-117300000D01*
X149362500Y-116175000D01*
X149370112Y-116136732D01*
X149391789Y-116104289D01*
X149424232Y-116082612D01*
X149462500Y-116075000D01*
X149662500Y-116075000D01*
X149700768Y-116082612D01*
G37*
G36*
X128066742Y-114646601D02*
G01*
X128220687Y-114710367D01*
X128359234Y-114802941D01*
X128477059Y-114920766D01*
X128569633Y-115059313D01*
X128633399Y-115213258D01*
X128665907Y-115376685D01*
X128665907Y-115543315D01*
X128633399Y-115706742D01*
X128569633Y-115860687D01*
X128477059Y-115999234D01*
X128359234Y-116117059D01*
X128220687Y-116209633D01*
X128066742Y-116273399D01*
X127903315Y-116305907D01*
X127736685Y-116305907D01*
X127573258Y-116273399D01*
X127419313Y-116209633D01*
X127280766Y-116117059D01*
X127162941Y-115999234D01*
X127070367Y-115860687D01*
X127006601Y-115706742D01*
X126974093Y-115543315D01*
X126974093Y-115376685D01*
X127006601Y-115213258D01*
X127070367Y-115059313D01*
X127162941Y-114920766D01*
X127280766Y-114802941D01*
X127419313Y-114710367D01*
X127573258Y-114646601D01*
X127736685Y-114614093D01*
X127903315Y-114614093D01*
X128066742Y-114646601D01*
G37*
G36*
X153508308Y-115205275D02*
G01*
X153552105Y-115234540D01*
X153581370Y-115278337D01*
X153591646Y-115329999D01*
X153591646Y-115599999D01*
X153581370Y-115651661D01*
X153552105Y-115695458D01*
X153508308Y-115724723D01*
X153456646Y-115734999D01*
X153086646Y-115734999D01*
X153034984Y-115724723D01*
X152991187Y-115695458D01*
X152961922Y-115651661D01*
X152951646Y-115599999D01*
X152951646Y-115329999D01*
X152961922Y-115278337D01*
X152991187Y-115234540D01*
X153034984Y-115205275D01*
X153086646Y-115194999D01*
X153456646Y-115194999D01*
X153508308Y-115205275D01*
G37*
G36*
X148400768Y-114307612D02*
G01*
X148433211Y-114329289D01*
X148454888Y-114361732D01*
X148462500Y-114400000D01*
X148462500Y-115525000D01*
X148454888Y-115563268D01*
X148433211Y-115595711D01*
X148400768Y-115617388D01*
X148362500Y-115625000D01*
X148162500Y-115625000D01*
X148124232Y-115617388D01*
X148091789Y-115595711D01*
X148070112Y-115563268D01*
X148062500Y-115525000D01*
X148062500Y-114400000D01*
X148070112Y-114361732D01*
X148091789Y-114329289D01*
X148124232Y-114307612D01*
X148162500Y-114300000D01*
X148362500Y-114300000D01*
X148400768Y-114307612D01*
G37*
G36*
X149050768Y-114307612D02*
G01*
X149083211Y-114329289D01*
X149104888Y-114361732D01*
X149112500Y-114400000D01*
X149112500Y-115525000D01*
X149104888Y-115563268D01*
X149083211Y-115595711D01*
X149050768Y-115617388D01*
X149012500Y-115625000D01*
X148812500Y-115625000D01*
X148774232Y-115617388D01*
X148741789Y-115595711D01*
X148720112Y-115563268D01*
X148712500Y-115525000D01*
X148712500Y-114400000D01*
X148720112Y-114361732D01*
X148741789Y-114329289D01*
X148774232Y-114307612D01*
X148812500Y-114300000D01*
X149012500Y-114300000D01*
X149050768Y-114307612D01*
G37*
G36*
X149700768Y-114307612D02*
G01*
X149733211Y-114329289D01*
X149754888Y-114361732D01*
X149762500Y-114400000D01*
X149762500Y-115525000D01*
X149754888Y-115563268D01*
X149733211Y-115595711D01*
X149700768Y-115617388D01*
X149662500Y-115625000D01*
X149462500Y-115625000D01*
X149424232Y-115617388D01*
X149391789Y-115595711D01*
X149370112Y-115563268D01*
X149362500Y-115525000D01*
X149362500Y-114400000D01*
X149370112Y-114361732D01*
X149391789Y-114329289D01*
X149424232Y-114307612D01*
X149462500Y-114300000D01*
X149662500Y-114300000D01*
X149700768Y-114307612D01*
G37*
G36*
X153508308Y-114185275D02*
G01*
X153552105Y-114214540D01*
X153581370Y-114258337D01*
X153591646Y-114309999D01*
X153591646Y-114579999D01*
X153581370Y-114631661D01*
X153552105Y-114675458D01*
X153508308Y-114704723D01*
X153456646Y-114714999D01*
X153086646Y-114714999D01*
X153034984Y-114704723D01*
X152991187Y-114675458D01*
X152961922Y-114631661D01*
X152951646Y-114579999D01*
X152951646Y-114309999D01*
X152961922Y-114258337D01*
X152991187Y-114214540D01*
X153034984Y-114185275D01*
X153086646Y-114174999D01*
X153456646Y-114174999D01*
X153508308Y-114185275D01*
G37*
G36*
X148328222Y-113278982D02*
G01*
X148373641Y-113309330D01*
X148403989Y-113354749D01*
X148414646Y-113408325D01*
X148414646Y-113688325D01*
X148403989Y-113741901D01*
X148373641Y-113787320D01*
X148328222Y-113817668D01*
X148274646Y-113828325D01*
X147934646Y-113828325D01*
X147881070Y-113817668D01*
X147835651Y-113787320D01*
X147805303Y-113741901D01*
X147794646Y-113688325D01*
X147794646Y-113408325D01*
X147805303Y-113354749D01*
X147835651Y-113309330D01*
X147881070Y-113278982D01*
X147934646Y-113268325D01*
X148274646Y-113268325D01*
X148328222Y-113278982D01*
G37*
G36*
X128066742Y-112106601D02*
G01*
X128220687Y-112170367D01*
X128359234Y-112262941D01*
X128477059Y-112380766D01*
X128569633Y-112519313D01*
X128633399Y-112673258D01*
X128665907Y-112836685D01*
X128665907Y-113003315D01*
X128633399Y-113166742D01*
X128569633Y-113320687D01*
X128477059Y-113459234D01*
X128359234Y-113577059D01*
X128220687Y-113669633D01*
X128066742Y-113733399D01*
X127903315Y-113765907D01*
X127736685Y-113765907D01*
X127573258Y-113733399D01*
X127419313Y-113669633D01*
X127280766Y-113577059D01*
X127162941Y-113459234D01*
X127070367Y-113320687D01*
X127006601Y-113166742D01*
X126974093Y-113003315D01*
X126974093Y-112836685D01*
X127006601Y-112673258D01*
X127070367Y-112519313D01*
X127162941Y-112380766D01*
X127280766Y-112262941D01*
X127419313Y-112170367D01*
X127573258Y-112106601D01*
X127736685Y-112074093D01*
X127903315Y-112074093D01*
X128066742Y-112106601D01*
G37*
G36*
X150051076Y-113139157D02*
G01*
X150096495Y-113169505D01*
X150126843Y-113214924D01*
X150137500Y-113268500D01*
X150137500Y-113608500D01*
X150126843Y-113662076D01*
X150096495Y-113707495D01*
X150051076Y-113737843D01*
X149997500Y-113748500D01*
X149717500Y-113748500D01*
X149663924Y-113737843D01*
X149618505Y-113707495D01*
X149588157Y-113662076D01*
X149577500Y-113608500D01*
X149577500Y-113268500D01*
X149588157Y-113214924D01*
X149618505Y-113169505D01*
X149663924Y-113139157D01*
X149717500Y-113128500D01*
X149997500Y-113128500D01*
X150051076Y-113139157D01*
G37*
G36*
X151011076Y-113139157D02*
G01*
X151056495Y-113169505D01*
X151086843Y-113214924D01*
X151097500Y-113268500D01*
X151097500Y-113608500D01*
X151086843Y-113662076D01*
X151056495Y-113707495D01*
X151011076Y-113737843D01*
X150957500Y-113748500D01*
X150677500Y-113748500D01*
X150623924Y-113737843D01*
X150578505Y-113707495D01*
X150548157Y-113662076D01*
X150537500Y-113608500D01*
X150537500Y-113268500D01*
X150548157Y-113214924D01*
X150578505Y-113169505D01*
X150623924Y-113139157D01*
X150677500Y-113128500D01*
X150957500Y-113128500D01*
X151011076Y-113139157D01*
G37*
G36*
X153508308Y-112665275D02*
G01*
X153552105Y-112694540D01*
X153581370Y-112738337D01*
X153591646Y-112789999D01*
X153591646Y-113059999D01*
X153581370Y-113111661D01*
X153552105Y-113155458D01*
X153508308Y-113184723D01*
X153456646Y-113194999D01*
X153086646Y-113194999D01*
X153034984Y-113184723D01*
X152991187Y-113155458D01*
X152961922Y-113111661D01*
X152951646Y-113059999D01*
X152951646Y-112789999D01*
X152961922Y-112738337D01*
X152991187Y-112694540D01*
X153034984Y-112665275D01*
X153086646Y-112654999D01*
X153456646Y-112654999D01*
X153508308Y-112665275D01*
G37*
G36*
X148328222Y-112318982D02*
G01*
X148373641Y-112349330D01*
X148403989Y-112394749D01*
X148414646Y-112448325D01*
X148414646Y-112728325D01*
X148403989Y-112781901D01*
X148373641Y-112827320D01*
X148328222Y-112857668D01*
X148274646Y-112868325D01*
X147934646Y-112868325D01*
X147881070Y-112857668D01*
X147835651Y-112827320D01*
X147805303Y-112781901D01*
X147794646Y-112728325D01*
X147794646Y-112448325D01*
X147805303Y-112394749D01*
X147835651Y-112349330D01*
X147881070Y-112318982D01*
X147934646Y-112308325D01*
X148274646Y-112308325D01*
X148328222Y-112318982D01*
G37*
G36*
X150038162Y-112163276D02*
G01*
X150081959Y-112192541D01*
X150111224Y-112236338D01*
X150121500Y-112288000D01*
X150121500Y-112558000D01*
X150111224Y-112609662D01*
X150081959Y-112653459D01*
X150038162Y-112682724D01*
X149986500Y-112693000D01*
X149616500Y-112693000D01*
X149564838Y-112682724D01*
X149521041Y-112653459D01*
X149491776Y-112609662D01*
X149481500Y-112558000D01*
X149481500Y-112288000D01*
X149491776Y-112236338D01*
X149521041Y-112192541D01*
X149564838Y-112163276D01*
X149616500Y-112153000D01*
X149986500Y-112153000D01*
X150038162Y-112163276D01*
G37*
G36*
X153508308Y-111645275D02*
G01*
X153552105Y-111674540D01*
X153581370Y-111718337D01*
X153591646Y-111769999D01*
X153591646Y-112039999D01*
X153581370Y-112091661D01*
X153552105Y-112135458D01*
X153508308Y-112164723D01*
X153456646Y-112174999D01*
X153086646Y-112174999D01*
X153034984Y-112164723D01*
X152991187Y-112135458D01*
X152961922Y-112091661D01*
X152951646Y-112039999D01*
X152951646Y-111769999D01*
X152961922Y-111718337D01*
X152991187Y-111674540D01*
X153034984Y-111645275D01*
X153086646Y-111634999D01*
X153456646Y-111634999D01*
X153508308Y-111645275D01*
G37*
G36*
X150038162Y-111143276D02*
G01*
X150081959Y-111172541D01*
X150111224Y-111216338D01*
X150121500Y-111268000D01*
X150121500Y-111538000D01*
X150111224Y-111589662D01*
X150081959Y-111633459D01*
X150038162Y-111662724D01*
X149986500Y-111673000D01*
X149616500Y-111673000D01*
X149564838Y-111662724D01*
X149521041Y-111633459D01*
X149491776Y-111589662D01*
X149481500Y-111538000D01*
X149481500Y-111268000D01*
X149491776Y-111216338D01*
X149521041Y-111172541D01*
X149564838Y-111143276D01*
X149616500Y-111133000D01*
X149986500Y-111133000D01*
X150038162Y-111143276D01*
G37*
G36*
X128066742Y-109566601D02*
G01*
X128220687Y-109630367D01*
X128359234Y-109722941D01*
X128477059Y-109840766D01*
X128569633Y-109979313D01*
X128633399Y-110133258D01*
X128665907Y-110296685D01*
X128665907Y-110463315D01*
X128633399Y-110626742D01*
X128569633Y-110780687D01*
X128477059Y-110919234D01*
X128359234Y-111037059D01*
X128220687Y-111129633D01*
X128066742Y-111193399D01*
X127903315Y-111225907D01*
X127736685Y-111225907D01*
X127573258Y-111193399D01*
X127419313Y-111129633D01*
X127280766Y-111037059D01*
X127162941Y-110919234D01*
X127070367Y-110780687D01*
X127006601Y-110626742D01*
X126974093Y-110463315D01*
X126974093Y-110296685D01*
X127006601Y-110133258D01*
X127070367Y-109979313D01*
X127162941Y-109840766D01*
X127280766Y-109722941D01*
X127419313Y-109630367D01*
X127573258Y-109566601D01*
X127736685Y-109534093D01*
X127903315Y-109534093D01*
X128066742Y-109566601D01*
G37*
G36*
X128066742Y-107026601D02*
G01*
X128220687Y-107090367D01*
X128359234Y-107182941D01*
X128477059Y-107300766D01*
X128569633Y-107439313D01*
X128633399Y-107593258D01*
X128665907Y-107756685D01*
X128665907Y-107923315D01*
X128633399Y-108086742D01*
X128569633Y-108240687D01*
X128477059Y-108379234D01*
X128359234Y-108497059D01*
X128220687Y-108589633D01*
X128066742Y-108653399D01*
X127903315Y-108685907D01*
X127736685Y-108685907D01*
X127573258Y-108653399D01*
X127419313Y-108589633D01*
X127280766Y-108497059D01*
X127162941Y-108379234D01*
X127070367Y-108240687D01*
X127006601Y-108086742D01*
X126974093Y-107923315D01*
X126974093Y-107756685D01*
X127006601Y-107593258D01*
X127070367Y-107439313D01*
X127162941Y-107300766D01*
X127280766Y-107182941D01*
X127419313Y-107090367D01*
X127573258Y-107026601D01*
X127736685Y-106994093D01*
X127903315Y-106994093D01*
X128066742Y-107026601D01*
G37*
G36*
X128066742Y-104486601D02*
G01*
X128220687Y-104550367D01*
X128359234Y-104642941D01*
X128477059Y-104760766D01*
X128569633Y-104899313D01*
X128633399Y-105053258D01*
X128665907Y-105216685D01*
X128665907Y-105383315D01*
X128633399Y-105546742D01*
X128569633Y-105700687D01*
X128477059Y-105839234D01*
X128359234Y-105957059D01*
X128220687Y-106049633D01*
X128066742Y-106113399D01*
X127903315Y-106145907D01*
X127736685Y-106145907D01*
X127573258Y-106113399D01*
X127419313Y-106049633D01*
X127280766Y-105957059D01*
X127162941Y-105839234D01*
X127070367Y-105700687D01*
X127006601Y-105546742D01*
X126974093Y-105383315D01*
X126974093Y-105216685D01*
X127006601Y-105053258D01*
X127070367Y-104899313D01*
X127162941Y-104760766D01*
X127280766Y-104642941D01*
X127419313Y-104550367D01*
X127573258Y-104486601D01*
X127736685Y-104454093D01*
X127903315Y-104454093D01*
X128066742Y-104486601D01*
G37*
G36*
X128066742Y-101946601D02*
G01*
X128220687Y-102010367D01*
X128359234Y-102102941D01*
X128477059Y-102220766D01*
X128569633Y-102359313D01*
X128633399Y-102513258D01*
X128665907Y-102676685D01*
X128665907Y-102843315D01*
X128633399Y-103006742D01*
X128569633Y-103160687D01*
X128477059Y-103299234D01*
X128359234Y-103417059D01*
X128220687Y-103509633D01*
X128066742Y-103573399D01*
X127903315Y-103605907D01*
X127736685Y-103605907D01*
X127573258Y-103573399D01*
X127419313Y-103509633D01*
X127280766Y-103417059D01*
X127162941Y-103299234D01*
X127070367Y-103160687D01*
X127006601Y-103006742D01*
X126974093Y-102843315D01*
X126974093Y-102676685D01*
X127006601Y-102513258D01*
X127070367Y-102359313D01*
X127162941Y-102220766D01*
X127280766Y-102102941D01*
X127419313Y-102010367D01*
X127573258Y-101946601D01*
X127736685Y-101914093D01*
X127903315Y-101914093D01*
X128066742Y-101946601D01*
G37*
G36*
X128066742Y-99406601D02*
G01*
X128220687Y-99470367D01*
X128359234Y-99562941D01*
X128477059Y-99680766D01*
X128569633Y-99819313D01*
X128633399Y-99973258D01*
X128665907Y-100136685D01*
X128665907Y-100303315D01*
X128633399Y-100466742D01*
X128569633Y-100620687D01*
X128477059Y-100759234D01*
X128359234Y-100877059D01*
X128220687Y-100969633D01*
X128066742Y-101033399D01*
X127903315Y-101065907D01*
X127736685Y-101065907D01*
X127573258Y-101033399D01*
X127419313Y-100969633D01*
X127280766Y-100877059D01*
X127162941Y-100759234D01*
X127070367Y-100620687D01*
X127006601Y-100466742D01*
X126974093Y-100303315D01*
X126974093Y-100136685D01*
X127006601Y-99973258D01*
X127070367Y-99819313D01*
X127162941Y-99680766D01*
X127280766Y-99562941D01*
X127419313Y-99470367D01*
X127573258Y-99406601D01*
X127736685Y-99374093D01*
X127903315Y-99374093D01*
X128066742Y-99406601D01*
G37*
G36*
X132900403Y-100168418D02*
G01*
X132949066Y-100200934D01*
X132981582Y-100249597D01*
X132993000Y-100307000D01*
X132993000Y-100607000D01*
X132981582Y-100664403D01*
X132949066Y-100713066D01*
X132900403Y-100745582D01*
X132843000Y-100757000D01*
X131193000Y-100757000D01*
X131135597Y-100745582D01*
X131086934Y-100713066D01*
X131054418Y-100664403D01*
X131043000Y-100607000D01*
X131043000Y-100307000D01*
X131054418Y-100249597D01*
X131086934Y-100200934D01*
X131135597Y-100168418D01*
X131193000Y-100157000D01*
X132843000Y-100157000D01*
X132900403Y-100168418D01*
G37*
G36*
X137850403Y-100168418D02*
G01*
X137899066Y-100200934D01*
X137931582Y-100249597D01*
X137943000Y-100307000D01*
X137943000Y-100607000D01*
X137931582Y-100664403D01*
X137899066Y-100713066D01*
X137850403Y-100745582D01*
X137793000Y-100757000D01*
X136143000Y-100757000D01*
X136085597Y-100745582D01*
X136036934Y-100713066D01*
X136004418Y-100664403D01*
X135993000Y-100607000D01*
X135993000Y-100307000D01*
X136004418Y-100249597D01*
X136036934Y-100200934D01*
X136085597Y-100168418D01*
X136143000Y-100157000D01*
X137793000Y-100157000D01*
X137850403Y-100168418D01*
G37*
G36*
X132900403Y-98898418D02*
G01*
X132949066Y-98930934D01*
X132981582Y-98979597D01*
X132993000Y-99037000D01*
X132993000Y-99337000D01*
X132981582Y-99394403D01*
X132949066Y-99443066D01*
X132900403Y-99475582D01*
X132843000Y-99487000D01*
X131193000Y-99487000D01*
X131135597Y-99475582D01*
X131086934Y-99443066D01*
X131054418Y-99394403D01*
X131043000Y-99337000D01*
X131043000Y-99037000D01*
X131054418Y-98979597D01*
X131086934Y-98930934D01*
X131135597Y-98898418D01*
X131193000Y-98887000D01*
X132843000Y-98887000D01*
X132900403Y-98898418D01*
G37*
G36*
X137850403Y-98898418D02*
G01*
X137899066Y-98930934D01*
X137931582Y-98979597D01*
X137943000Y-99037000D01*
X137943000Y-99337000D01*
X137931582Y-99394403D01*
X137899066Y-99443066D01*
X137850403Y-99475582D01*
X137793000Y-99487000D01*
X136143000Y-99487000D01*
X136085597Y-99475582D01*
X136036934Y-99443066D01*
X136004418Y-99394403D01*
X135993000Y-99337000D01*
X135993000Y-99037000D01*
X136004418Y-98979597D01*
X136036934Y-98930934D01*
X136085597Y-98898418D01*
X136143000Y-98887000D01*
X137793000Y-98887000D01*
X137850403Y-98898418D01*
G37*
G36*
X157869900Y-98300900D02*
G01*
X156880100Y-98300900D01*
X156880100Y-97492900D01*
X157869900Y-97492900D01*
X157869900Y-98300900D01*
G37*
G36*
X155269900Y-98275900D02*
G01*
X154280100Y-98275900D01*
X154280100Y-97467900D01*
X155269900Y-97467900D01*
X155269900Y-98275900D01*
G37*
G36*
X132900403Y-97628418D02*
G01*
X132949066Y-97660934D01*
X132981582Y-97709597D01*
X132993000Y-97767000D01*
X132993000Y-98067000D01*
X132981582Y-98124403D01*
X132949066Y-98173066D01*
X132900403Y-98205582D01*
X132843000Y-98217000D01*
X131193000Y-98217000D01*
X131135597Y-98205582D01*
X131086934Y-98173066D01*
X131054418Y-98124403D01*
X131043000Y-98067000D01*
X131043000Y-97767000D01*
X131054418Y-97709597D01*
X131086934Y-97660934D01*
X131135597Y-97628418D01*
X131193000Y-97617000D01*
X132843000Y-97617000D01*
X132900403Y-97628418D01*
G37*
G36*
X137850403Y-97628418D02*
G01*
X137899066Y-97660934D01*
X137931582Y-97709597D01*
X137943000Y-97767000D01*
X137943000Y-98067000D01*
X137931582Y-98124403D01*
X137899066Y-98173066D01*
X137850403Y-98205582D01*
X137793000Y-98217000D01*
X136143000Y-98217000D01*
X136085597Y-98205582D01*
X136036934Y-98173066D01*
X136004418Y-98124403D01*
X135993000Y-98067000D01*
X135993000Y-97767000D01*
X136004418Y-97709597D01*
X136036934Y-97660934D01*
X136085597Y-97628418D01*
X136143000Y-97617000D01*
X137793000Y-97617000D01*
X137850403Y-97628418D01*
G37*
G36*
X150099500Y-97903579D02*
G01*
X149096200Y-97903579D01*
X149096200Y-97446379D01*
X150099500Y-97446379D01*
X150099500Y-97903579D01*
G37*
G36*
X152753800Y-97903579D02*
G01*
X151750500Y-97903579D01*
X151750500Y-97446379D01*
X152753800Y-97446379D01*
X152753800Y-97903579D01*
G37*
G36*
X143044900Y-97825900D02*
G01*
X142055100Y-97825900D01*
X142055100Y-97017900D01*
X143044900Y-97017900D01*
X143044900Y-97825900D01*
G37*
G36*
X145569900Y-97775900D02*
G01*
X144580100Y-97775900D01*
X144580100Y-96967900D01*
X145569900Y-96967900D01*
X145569900Y-97775900D01*
G37*
G36*
X148030000Y-97625000D02*
G01*
X147070000Y-97625000D01*
X147070000Y-96775000D01*
X148030000Y-96775000D01*
X148030000Y-97625000D01*
G37*
G36*
X150099500Y-97253593D02*
G01*
X149096200Y-97253593D01*
X149096200Y-96796393D01*
X150099500Y-96796393D01*
X150099500Y-97253593D01*
G37*
G36*
X152753800Y-97253593D02*
G01*
X151750500Y-97253593D01*
X151750500Y-96796393D01*
X152753800Y-96796393D01*
X152753800Y-97253593D01*
G37*
G36*
X132900403Y-96358418D02*
G01*
X132949066Y-96390934D01*
X132981582Y-96439597D01*
X132993000Y-96497000D01*
X132993000Y-96797000D01*
X132981582Y-96854403D01*
X132949066Y-96903066D01*
X132900403Y-96935582D01*
X132843000Y-96947000D01*
X131193000Y-96947000D01*
X131135597Y-96935582D01*
X131086934Y-96903066D01*
X131054418Y-96854403D01*
X131043000Y-96797000D01*
X131043000Y-96497000D01*
X131054418Y-96439597D01*
X131086934Y-96390934D01*
X131135597Y-96358418D01*
X131193000Y-96347000D01*
X132843000Y-96347000D01*
X132900403Y-96358418D01*
G37*
G36*
X137850403Y-96358418D02*
G01*
X137899066Y-96390934D01*
X137931582Y-96439597D01*
X137943000Y-96497000D01*
X137943000Y-96797000D01*
X137931582Y-96854403D01*
X137899066Y-96903066D01*
X137850403Y-96935582D01*
X137793000Y-96947000D01*
X136143000Y-96947000D01*
X136085597Y-96935582D01*
X136036934Y-96903066D01*
X136004418Y-96854403D01*
X135993000Y-96797000D01*
X135993000Y-96497000D01*
X136004418Y-96439597D01*
X136036934Y-96390934D01*
X136085597Y-96358418D01*
X136143000Y-96347000D01*
X137793000Y-96347000D01*
X137850403Y-96358418D01*
G37*
G36*
X157869900Y-96807100D02*
G01*
X156880100Y-96807100D01*
X156880100Y-95999100D01*
X157869900Y-95999100D01*
X157869900Y-96807100D01*
G37*
G36*
X155269900Y-96782100D02*
G01*
X154280100Y-96782100D01*
X154280100Y-95974100D01*
X155269900Y-95974100D01*
X155269900Y-96782100D01*
G37*
G36*
X150099500Y-96603607D02*
G01*
X149096200Y-96603607D01*
X149096200Y-96146407D01*
X150099500Y-96146407D01*
X150099500Y-96603607D01*
G37*
G36*
X152753800Y-96603607D02*
G01*
X151750500Y-96603607D01*
X151750500Y-96146407D01*
X152753800Y-96146407D01*
X152753800Y-96603607D01*
G37*
G36*
X143044900Y-96332100D02*
G01*
X142055100Y-96332100D01*
X142055100Y-95524100D01*
X143044900Y-95524100D01*
X143044900Y-96332100D01*
G37*
G36*
X145569900Y-96282100D02*
G01*
X144580100Y-96282100D01*
X144580100Y-95474100D01*
X145569900Y-95474100D01*
X145569900Y-96282100D01*
G37*
G36*
X148030000Y-96025000D02*
G01*
X147070000Y-96025000D01*
X147070000Y-95175000D01*
X148030000Y-95175000D01*
X148030000Y-96025000D01*
G37*
G36*
X150099500Y-95953621D02*
G01*
X149096200Y-95953621D01*
X149096200Y-95496421D01*
X150099500Y-95496421D01*
X150099500Y-95953621D01*
G37*
G36*
X152753800Y-95953621D02*
G01*
X151750500Y-95953621D01*
X151750500Y-95496421D01*
X152753800Y-95496421D01*
X152753800Y-95953621D01*
G37*
G36*
X132900403Y-95088418D02*
G01*
X132949066Y-95120934D01*
X132981582Y-95169597D01*
X132993000Y-95227000D01*
X132993000Y-95527000D01*
X132981582Y-95584403D01*
X132949066Y-95633066D01*
X132900403Y-95665582D01*
X132843000Y-95677000D01*
X131193000Y-95677000D01*
X131135597Y-95665582D01*
X131086934Y-95633066D01*
X131054418Y-95584403D01*
X131043000Y-95527000D01*
X131043000Y-95227000D01*
X131054418Y-95169597D01*
X131086934Y-95120934D01*
X131135597Y-95088418D01*
X131193000Y-95077000D01*
X132843000Y-95077000D01*
X132900403Y-95088418D01*
G37*
G36*
X137850403Y-95088418D02*
G01*
X137899066Y-95120934D01*
X137931582Y-95169597D01*
X137943000Y-95227000D01*
X137943000Y-95527000D01*
X137931582Y-95584403D01*
X137899066Y-95633066D01*
X137850403Y-95665582D01*
X137793000Y-95677000D01*
X136143000Y-95677000D01*
X136085597Y-95665582D01*
X136036934Y-95633066D01*
X136004418Y-95584403D01*
X135993000Y-95527000D01*
X135993000Y-95227000D01*
X136004418Y-95169597D01*
X136036934Y-95120934D01*
X136085597Y-95088418D01*
X136143000Y-95077000D01*
X137793000Y-95077000D01*
X137850403Y-95088418D01*
G37*
G36*
X132900403Y-93818418D02*
G01*
X132949066Y-93850934D01*
X132981582Y-93899597D01*
X132993000Y-93957000D01*
X132993000Y-94257000D01*
X132981582Y-94314403D01*
X132949066Y-94363066D01*
X132900403Y-94395582D01*
X132843000Y-94407000D01*
X131193000Y-94407000D01*
X131135597Y-94395582D01*
X131086934Y-94363066D01*
X131054418Y-94314403D01*
X131043000Y-94257000D01*
X131043000Y-93957000D01*
X131054418Y-93899597D01*
X131086934Y-93850934D01*
X131135597Y-93818418D01*
X131193000Y-93807000D01*
X132843000Y-93807000D01*
X132900403Y-93818418D01*
G37*
G36*
X137850403Y-93818418D02*
G01*
X137899066Y-93850934D01*
X137931582Y-93899597D01*
X137943000Y-93957000D01*
X137943000Y-94257000D01*
X137931582Y-94314403D01*
X137899066Y-94363066D01*
X137850403Y-94395582D01*
X137793000Y-94407000D01*
X136143000Y-94407000D01*
X136085597Y-94395582D01*
X136036934Y-94363066D01*
X136004418Y-94314403D01*
X135993000Y-94257000D01*
X135993000Y-93957000D01*
X136004418Y-93899597D01*
X136036934Y-93850934D01*
X136085597Y-93818418D01*
X136143000Y-93807000D01*
X137793000Y-93807000D01*
X137850403Y-93818418D01*
G37*
G36*
X150405000Y-93825000D02*
G01*
X149445000Y-93825000D01*
X149445000Y-92975000D01*
X150405000Y-92975000D01*
X150405000Y-93825000D01*
G37*
G36*
X154955000Y-93800000D02*
G01*
X153995000Y-93800000D01*
X153995000Y-92950000D01*
X154955000Y-92950000D01*
X154955000Y-93800000D01*
G37*
G36*
X143594900Y-93775900D02*
G01*
X142605100Y-93775900D01*
X142605100Y-92967900D01*
X143594900Y-92967900D01*
X143594900Y-93775900D01*
G37*
G36*
X145930000Y-93725000D02*
G01*
X144970000Y-93725000D01*
X144970000Y-92875000D01*
X145930000Y-92875000D01*
X145930000Y-93725000D01*
G37*
G36*
X148169900Y-93675900D02*
G01*
X147180100Y-93675900D01*
X147180100Y-92867900D01*
X148169900Y-92867900D01*
X148169900Y-93675900D01*
G37*
G36*
X152744900Y-93650900D02*
G01*
X151755100Y-93650900D01*
X151755100Y-92842900D01*
X152744900Y-92842900D01*
X152744900Y-93650900D01*
G37*
G36*
X157169900Y-93625900D02*
G01*
X156180100Y-93625900D01*
X156180100Y-92817900D01*
X157169900Y-92817900D01*
X157169900Y-93625900D01*
G37*
G36*
X159694900Y-93550900D02*
G01*
X158705100Y-93550900D01*
X158705100Y-92742900D01*
X159694900Y-92742900D01*
X159694900Y-93550900D01*
G37*
G36*
X132900403Y-92548418D02*
G01*
X132949066Y-92580934D01*
X132981582Y-92629597D01*
X132993000Y-92687000D01*
X132993000Y-92987000D01*
X132981582Y-93044403D01*
X132949066Y-93093066D01*
X132900403Y-93125582D01*
X132843000Y-93137000D01*
X131193000Y-93137000D01*
X131135597Y-93125582D01*
X131086934Y-93093066D01*
X131054418Y-93044403D01*
X131043000Y-92987000D01*
X131043000Y-92687000D01*
X131054418Y-92629597D01*
X131086934Y-92580934D01*
X131135597Y-92548418D01*
X131193000Y-92537000D01*
X132843000Y-92537000D01*
X132900403Y-92548418D01*
G37*
G36*
X137850403Y-92548418D02*
G01*
X137899066Y-92580934D01*
X137931582Y-92629597D01*
X137943000Y-92687000D01*
X137943000Y-92987000D01*
X137931582Y-93044403D01*
X137899066Y-93093066D01*
X137850403Y-93125582D01*
X137793000Y-93137000D01*
X136143000Y-93137000D01*
X136085597Y-93125582D01*
X136036934Y-93093066D01*
X136004418Y-93044403D01*
X135993000Y-92987000D01*
X135993000Y-92687000D01*
X136004418Y-92629597D01*
X136036934Y-92580934D01*
X136085597Y-92548418D01*
X136143000Y-92537000D01*
X137793000Y-92537000D01*
X137850403Y-92548418D01*
G37*
G36*
X143594900Y-92282100D02*
G01*
X142605100Y-92282100D01*
X142605100Y-91474100D01*
X143594900Y-91474100D01*
X143594900Y-92282100D01*
G37*
G36*
X150405000Y-92225000D02*
G01*
X149445000Y-92225000D01*
X149445000Y-91375000D01*
X150405000Y-91375000D01*
X150405000Y-92225000D01*
G37*
G36*
X154955000Y-92200000D02*
G01*
X153995000Y-92200000D01*
X153995000Y-91350000D01*
X154955000Y-91350000D01*
X154955000Y-92200000D01*
G37*
G36*
X148169900Y-92182100D02*
G01*
X147180100Y-92182100D01*
X147180100Y-91374100D01*
X148169900Y-91374100D01*
X148169900Y-92182100D01*
G37*
G36*
X152744900Y-92157100D02*
G01*
X151755100Y-92157100D01*
X151755100Y-91349100D01*
X152744900Y-91349100D01*
X152744900Y-92157100D01*
G37*
G36*
X157169900Y-92132100D02*
G01*
X156180100Y-92132100D01*
X156180100Y-91324100D01*
X157169900Y-91324100D01*
X157169900Y-92132100D01*
G37*
G36*
X145930000Y-92125000D02*
G01*
X144970000Y-92125000D01*
X144970000Y-91275000D01*
X145930000Y-91275000D01*
X145930000Y-92125000D01*
G37*
G36*
X159694900Y-92057100D02*
G01*
X158705100Y-92057100D01*
X158705100Y-91249100D01*
X159694900Y-91249100D01*
X159694900Y-92057100D01*
G37*
G36*
X132900403Y-91278418D02*
G01*
X132949066Y-91310934D01*
X132981582Y-91359597D01*
X132993000Y-91417000D01*
X132993000Y-91717000D01*
X132981582Y-91774403D01*
X132949066Y-91823066D01*
X132900403Y-91855582D01*
X132843000Y-91867000D01*
X131193000Y-91867000D01*
X131135597Y-91855582D01*
X131086934Y-91823066D01*
X131054418Y-91774403D01*
X131043000Y-91717000D01*
X131043000Y-91417000D01*
X131054418Y-91359597D01*
X131086934Y-91310934D01*
X131135597Y-91278418D01*
X131193000Y-91267000D01*
X132843000Y-91267000D01*
X132900403Y-91278418D01*
G37*
G36*
X137850403Y-91278418D02*
G01*
X137899066Y-91310934D01*
X137931582Y-91359597D01*
X137943000Y-91417000D01*
X137943000Y-91717000D01*
X137931582Y-91774403D01*
X137899066Y-91823066D01*
X137850403Y-91855582D01*
X137793000Y-91867000D01*
X136143000Y-91867000D01*
X136085597Y-91855582D01*
X136036934Y-91823066D01*
X136004418Y-91774403D01*
X135993000Y-91717000D01*
X135993000Y-91417000D01*
X136004418Y-91359597D01*
X136036934Y-91310934D01*
X136085597Y-91278418D01*
X136143000Y-91267000D01*
X137793000Y-91267000D01*
X137850403Y-91278418D01*
G37*
G36*
X129507576Y-90632657D02*
G01*
X129552995Y-90663005D01*
X129583343Y-90708424D01*
X129594000Y-90762000D01*
X129594000Y-91102000D01*
X129583343Y-91155576D01*
X129552995Y-91200995D01*
X129507576Y-91231343D01*
X129454000Y-91242000D01*
X129174000Y-91242000D01*
X129120424Y-91231343D01*
X129075005Y-91200995D01*
X129044657Y-91155576D01*
X129034000Y-91102000D01*
X129034000Y-90762000D01*
X129044657Y-90708424D01*
X129075005Y-90663005D01*
X129120424Y-90632657D01*
X129174000Y-90622000D01*
X129454000Y-90622000D01*
X129507576Y-90632657D01*
G37*
G36*
X130467576Y-90632657D02*
G01*
X130512995Y-90663005D01*
X130543343Y-90708424D01*
X130554000Y-90762000D01*
X130554000Y-91102000D01*
X130543343Y-91155576D01*
X130512995Y-91200995D01*
X130467576Y-91231343D01*
X130414000Y-91242000D01*
X130134000Y-91242000D01*
X130080424Y-91231343D01*
X130035005Y-91200995D01*
X130004657Y-91155576D01*
X129994000Y-91102000D01*
X129994000Y-90762000D01*
X130004657Y-90708424D01*
X130035005Y-90663005D01*
X130080424Y-90632657D01*
X130134000Y-90622000D01*
X130414000Y-90622000D01*
X130467576Y-90632657D01*
G37*
G36*
X146881500Y-90012579D02*
G01*
X145878200Y-90012579D01*
X145878200Y-89555379D01*
X146881500Y-89555379D01*
X146881500Y-90012579D01*
G37*
G36*
X149535800Y-90012579D02*
G01*
X148532500Y-90012579D01*
X148532500Y-89555379D01*
X149535800Y-89555379D01*
X149535800Y-90012579D01*
G37*
G36*
X156792150Y-89976778D02*
G01*
X155832150Y-89976778D01*
X155832150Y-89126778D01*
X156792150Y-89126778D01*
X156792150Y-89976778D01*
G37*
G36*
X142769900Y-89975900D02*
G01*
X141780100Y-89975900D01*
X141780100Y-89167900D01*
X142769900Y-89167900D01*
X142769900Y-89975900D01*
G37*
G36*
X129787403Y-88992418D02*
G01*
X129836066Y-89024934D01*
X129868582Y-89073597D01*
X129880000Y-89131000D01*
X129880000Y-89431000D01*
X129868582Y-89488403D01*
X129836066Y-89537066D01*
X129787403Y-89569582D01*
X129730000Y-89581000D01*
X128080000Y-89581000D01*
X128022597Y-89569582D01*
X127973934Y-89537066D01*
X127941418Y-89488403D01*
X127930000Y-89431000D01*
X127930000Y-89131000D01*
X127941418Y-89073597D01*
X127973934Y-89024934D01*
X128022597Y-88992418D01*
X128080000Y-88981000D01*
X129730000Y-88981000D01*
X129787403Y-88992418D01*
G37*
G36*
X134737403Y-88992418D02*
G01*
X134786066Y-89024934D01*
X134818582Y-89073597D01*
X134830000Y-89131000D01*
X134830000Y-89431000D01*
X134818582Y-89488403D01*
X134786066Y-89537066D01*
X134737403Y-89569582D01*
X134680000Y-89581000D01*
X133030000Y-89581000D01*
X132972597Y-89569582D01*
X132923934Y-89537066D01*
X132891418Y-89488403D01*
X132880000Y-89431000D01*
X132880000Y-89131000D01*
X132891418Y-89073597D01*
X132923934Y-89024934D01*
X132972597Y-88992418D01*
X133030000Y-88981000D01*
X134680000Y-88981000D01*
X134737403Y-88992418D01*
G37*
G36*
X146881500Y-89362593D02*
G01*
X145878200Y-89362593D01*
X145878200Y-88905393D01*
X146881500Y-88905393D01*
X146881500Y-89362593D01*
G37*
G36*
X149535800Y-89362593D02*
G01*
X148532500Y-89362593D01*
X148532500Y-88905393D01*
X149535800Y-88905393D01*
X149535800Y-89362593D01*
G37*
G36*
X146881500Y-88712607D02*
G01*
X145878200Y-88712607D01*
X145878200Y-88255407D01*
X146881500Y-88255407D01*
X146881500Y-88712607D01*
G37*
G36*
X149535800Y-88712607D02*
G01*
X148532500Y-88712607D01*
X148532500Y-88255407D01*
X149535800Y-88255407D01*
X149535800Y-88712607D01*
G37*
G36*
X151600000Y-88655000D02*
G01*
X150750000Y-88655000D01*
X150750000Y-87695000D01*
X151600000Y-87695000D01*
X151600000Y-88655000D01*
G37*
G36*
X153200000Y-88655000D02*
G01*
X152350000Y-88655000D01*
X152350000Y-87695000D01*
X153200000Y-87695000D01*
X153200000Y-88655000D01*
G37*
G36*
X142769900Y-88482100D02*
G01*
X141780100Y-88482100D01*
X141780100Y-87674100D01*
X142769900Y-87674100D01*
X142769900Y-88482100D01*
G37*
G36*
X156792150Y-88376778D02*
G01*
X155832150Y-88376778D01*
X155832150Y-87526778D01*
X156792150Y-87526778D01*
X156792150Y-88376778D01*
G37*
G36*
X129787403Y-87722418D02*
G01*
X129836066Y-87754934D01*
X129868582Y-87803597D01*
X129880000Y-87861000D01*
X129880000Y-88161000D01*
X129868582Y-88218403D01*
X129836066Y-88267066D01*
X129787403Y-88299582D01*
X129730000Y-88311000D01*
X128080000Y-88311000D01*
X128022597Y-88299582D01*
X127973934Y-88267066D01*
X127941418Y-88218403D01*
X127930000Y-88161000D01*
X127930000Y-87861000D01*
X127941418Y-87803597D01*
X127973934Y-87754934D01*
X128022597Y-87722418D01*
X128080000Y-87711000D01*
X129730000Y-87711000D01*
X129787403Y-87722418D01*
G37*
G36*
X134737403Y-87722418D02*
G01*
X134786066Y-87754934D01*
X134818582Y-87803597D01*
X134830000Y-87861000D01*
X134830000Y-88161000D01*
X134818582Y-88218403D01*
X134786066Y-88267066D01*
X134737403Y-88299582D01*
X134680000Y-88311000D01*
X133030000Y-88311000D01*
X132972597Y-88299582D01*
X132923934Y-88267066D01*
X132891418Y-88218403D01*
X132880000Y-88161000D01*
X132880000Y-87861000D01*
X132891418Y-87803597D01*
X132923934Y-87754934D01*
X132972597Y-87722418D01*
X133030000Y-87711000D01*
X134680000Y-87711000D01*
X134737403Y-87722418D01*
G37*
G36*
X146881500Y-88062621D02*
G01*
X145878200Y-88062621D01*
X145878200Y-87605421D01*
X146881500Y-87605421D01*
X146881500Y-88062621D01*
G37*
G36*
X149535800Y-88062621D02*
G01*
X148532500Y-88062621D01*
X148532500Y-87605421D01*
X149535800Y-87605421D01*
X149535800Y-88062621D01*
G37*
G36*
X144885000Y-87844000D02*
G01*
X143925000Y-87844000D01*
X143925000Y-86994000D01*
X144885000Y-86994000D01*
X144885000Y-87844000D01*
G37*
G36*
X129787403Y-86452418D02*
G01*
X129836066Y-86484934D01*
X129868582Y-86533597D01*
X129880000Y-86591000D01*
X129880000Y-86891000D01*
X129868582Y-86948403D01*
X129836066Y-86997066D01*
X129787403Y-87029582D01*
X129730000Y-87041000D01*
X128080000Y-87041000D01*
X128022597Y-87029582D01*
X127973934Y-86997066D01*
X127941418Y-86948403D01*
X127930000Y-86891000D01*
X127930000Y-86591000D01*
X127941418Y-86533597D01*
X127973934Y-86484934D01*
X128022597Y-86452418D01*
X128080000Y-86441000D01*
X129730000Y-86441000D01*
X129787403Y-86452418D01*
G37*
G36*
X134737403Y-86452418D02*
G01*
X134786066Y-86484934D01*
X134818582Y-86533597D01*
X134830000Y-86591000D01*
X134830000Y-86891000D01*
X134818582Y-86948403D01*
X134786066Y-86997066D01*
X134737403Y-87029582D01*
X134680000Y-87041000D01*
X133030000Y-87041000D01*
X132972597Y-87029582D01*
X132923934Y-86997066D01*
X132891418Y-86948403D01*
X132880000Y-86891000D01*
X132880000Y-86591000D01*
X132891418Y-86533597D01*
X132923934Y-86484934D01*
X132972597Y-86452418D01*
X133030000Y-86441000D01*
X134680000Y-86441000D01*
X134737403Y-86452418D01*
G37*
G36*
X151482100Y-86519900D02*
G01*
X150674100Y-86519900D01*
X150674100Y-85530100D01*
X151482100Y-85530100D01*
X151482100Y-86519900D01*
G37*
G36*
X152975900Y-86519900D02*
G01*
X152167900Y-86519900D01*
X152167900Y-85530100D01*
X152975900Y-85530100D01*
X152975900Y-86519900D01*
G37*
G36*
X144885000Y-86244000D02*
G01*
X143925000Y-86244000D01*
X143925000Y-85394000D01*
X144885000Y-85394000D01*
X144885000Y-86244000D01*
G37*
G36*
X129787403Y-85182418D02*
G01*
X129836066Y-85214934D01*
X129868582Y-85263597D01*
X129880000Y-85321000D01*
X129880000Y-85621000D01*
X129868582Y-85678403D01*
X129836066Y-85727066D01*
X129787403Y-85759582D01*
X129730000Y-85771000D01*
X128080000Y-85771000D01*
X128022597Y-85759582D01*
X127973934Y-85727066D01*
X127941418Y-85678403D01*
X127930000Y-85621000D01*
X127930000Y-85321000D01*
X127941418Y-85263597D01*
X127973934Y-85214934D01*
X128022597Y-85182418D01*
X128080000Y-85171000D01*
X129730000Y-85171000D01*
X129787403Y-85182418D01*
G37*
G36*
X134737403Y-85182418D02*
G01*
X134786066Y-85214934D01*
X134818582Y-85263597D01*
X134830000Y-85321000D01*
X134830000Y-85621000D01*
X134818582Y-85678403D01*
X134786066Y-85727066D01*
X134737403Y-85759582D01*
X134680000Y-85771000D01*
X133030000Y-85771000D01*
X132972597Y-85759582D01*
X132923934Y-85727066D01*
X132891418Y-85678403D01*
X132880000Y-85621000D01*
X132880000Y-85321000D01*
X132891418Y-85263597D01*
X132923934Y-85214934D01*
X132972597Y-85182418D01*
X133030000Y-85171000D01*
X134680000Y-85171000D01*
X134737403Y-85182418D01*
G37*
G36*
X158725000Y-85330000D02*
G01*
X157875000Y-85330000D01*
X157875000Y-84370000D01*
X158725000Y-84370000D01*
X158725000Y-85330000D01*
G37*
G36*
X160325000Y-85330000D02*
G01*
X159475000Y-85330000D01*
X159475000Y-84370000D01*
X160325000Y-84370000D01*
X160325000Y-85330000D01*
G37*
G36*
X156330000Y-85250000D02*
G01*
X155370000Y-85250000D01*
X155370000Y-84400000D01*
X156330000Y-84400000D01*
X156330000Y-85250000D01*
G37*
G36*
X129787403Y-83912418D02*
G01*
X129836066Y-83944934D01*
X129868582Y-83993597D01*
X129880000Y-84051000D01*
X129880000Y-84351000D01*
X129868582Y-84408403D01*
X129836066Y-84457066D01*
X129787403Y-84489582D01*
X129730000Y-84501000D01*
X128080000Y-84501000D01*
X128022597Y-84489582D01*
X127973934Y-84457066D01*
X127941418Y-84408403D01*
X127930000Y-84351000D01*
X127930000Y-84051000D01*
X127941418Y-83993597D01*
X127973934Y-83944934D01*
X128022597Y-83912418D01*
X128080000Y-83901000D01*
X129730000Y-83901000D01*
X129787403Y-83912418D01*
G37*
G36*
X134737403Y-83912418D02*
G01*
X134786066Y-83944934D01*
X134818582Y-83993597D01*
X134830000Y-84051000D01*
X134830000Y-84351000D01*
X134818582Y-84408403D01*
X134786066Y-84457066D01*
X134737403Y-84489582D01*
X134680000Y-84501000D01*
X133030000Y-84501000D01*
X132972597Y-84489582D01*
X132923934Y-84457066D01*
X132891418Y-84408403D01*
X132880000Y-84351000D01*
X132880000Y-84051000D01*
X132891418Y-83993597D01*
X132923934Y-83944934D01*
X132972597Y-83912418D01*
X133030000Y-83901000D01*
X134680000Y-83901000D01*
X134737403Y-83912418D01*
G37*
G36*
X150000602Y-83915499D02*
G01*
X148672702Y-83915499D01*
X148672702Y-83484499D01*
X150000602Y-83484499D01*
X150000602Y-83915499D01*
G37*
G36*
X154427298Y-83915499D02*
G01*
X153099398Y-83915499D01*
X153099398Y-83484499D01*
X154427298Y-83484499D01*
X154427298Y-83915499D01*
G37*
G36*
X156330000Y-83650000D02*
G01*
X155370000Y-83650000D01*
X155370000Y-82800000D01*
X156330000Y-82800000D01*
X156330000Y-83650000D01*
G37*
G36*
X147077500Y-83500900D02*
G01*
X145122500Y-83500900D01*
X145122500Y-82595300D01*
X147077500Y-82595300D01*
X147077500Y-83500900D01*
G37*
G36*
X150000602Y-83265501D02*
G01*
X148672702Y-83265501D01*
X148672702Y-82834501D01*
X150000602Y-82834501D01*
X150000602Y-83265501D01*
G37*
G36*
X154427298Y-83265501D02*
G01*
X153099398Y-83265501D01*
X153099398Y-82834501D01*
X154427298Y-82834501D01*
X154427298Y-83265501D01*
G37*
G36*
X129787403Y-82642418D02*
G01*
X129836066Y-82674934D01*
X129868582Y-82723597D01*
X129880000Y-82781000D01*
X129880000Y-83081000D01*
X129868582Y-83138403D01*
X129836066Y-83187066D01*
X129787403Y-83219582D01*
X129730000Y-83231000D01*
X128080000Y-83231000D01*
X128022597Y-83219582D01*
X127973934Y-83187066D01*
X127941418Y-83138403D01*
X127930000Y-83081000D01*
X127930000Y-82781000D01*
X127941418Y-82723597D01*
X127973934Y-82674934D01*
X128022597Y-82642418D01*
X128080000Y-82631000D01*
X129730000Y-82631000D01*
X129787403Y-82642418D01*
G37*
G36*
X134737403Y-82642418D02*
G01*
X134786066Y-82674934D01*
X134818582Y-82723597D01*
X134830000Y-82781000D01*
X134830000Y-83081000D01*
X134818582Y-83138403D01*
X134786066Y-83187066D01*
X134737403Y-83219582D01*
X134680000Y-83231000D01*
X133030000Y-83231000D01*
X132972597Y-83219582D01*
X132923934Y-83187066D01*
X132891418Y-83138403D01*
X132880000Y-83081000D01*
X132880000Y-82781000D01*
X132891418Y-82723597D01*
X132923934Y-82674934D01*
X132972597Y-82642418D01*
X133030000Y-82631000D01*
X134680000Y-82631000D01*
X134737403Y-82642418D01*
G37*
G36*
X158732100Y-83119900D02*
G01*
X157924100Y-83119900D01*
X157924100Y-82130100D01*
X158732100Y-82130100D01*
X158732100Y-83119900D01*
G37*
G36*
X160225900Y-83119900D02*
G01*
X159417900Y-83119900D01*
X159417900Y-82130100D01*
X160225900Y-82130100D01*
X160225900Y-83119900D01*
G37*
G36*
X150000602Y-82615499D02*
G01*
X148672702Y-82615499D01*
X148672702Y-82184499D01*
X150000602Y-82184499D01*
X150000602Y-82615499D01*
G37*
G36*
X154427298Y-82615499D02*
G01*
X153099398Y-82615499D01*
X153099398Y-82184499D01*
X154427298Y-82184499D01*
X154427298Y-82615499D01*
G37*
G36*
X150000602Y-81965501D02*
G01*
X148672702Y-81965501D01*
X148672702Y-81534501D01*
X150000602Y-81534501D01*
X150000602Y-81965501D01*
G37*
G36*
X154427298Y-81965501D02*
G01*
X153099398Y-81965501D01*
X153099398Y-81534501D01*
X154427298Y-81534501D01*
X154427298Y-81965501D01*
G37*
G36*
X129787403Y-81372418D02*
G01*
X129836066Y-81404934D01*
X129868582Y-81453597D01*
X129880000Y-81511000D01*
X129880000Y-81811000D01*
X129868582Y-81868403D01*
X129836066Y-81917066D01*
X129787403Y-81949582D01*
X129730000Y-81961000D01*
X128080000Y-81961000D01*
X128022597Y-81949582D01*
X127973934Y-81917066D01*
X127941418Y-81868403D01*
X127930000Y-81811000D01*
X127930000Y-81511000D01*
X127941418Y-81453597D01*
X127973934Y-81404934D01*
X128022597Y-81372418D01*
X128080000Y-81361000D01*
X129730000Y-81361000D01*
X129787403Y-81372418D01*
G37*
G36*
X134737403Y-81372418D02*
G01*
X134786066Y-81404934D01*
X134818582Y-81453597D01*
X134830000Y-81511000D01*
X134830000Y-81811000D01*
X134818582Y-81868403D01*
X134786066Y-81917066D01*
X134737403Y-81949582D01*
X134680000Y-81961000D01*
X133030000Y-81961000D01*
X132972597Y-81949582D01*
X132923934Y-81917066D01*
X132891418Y-81868403D01*
X132880000Y-81811000D01*
X132880000Y-81511000D01*
X132891418Y-81453597D01*
X132923934Y-81404934D01*
X132972597Y-81372418D01*
X133030000Y-81361000D01*
X134680000Y-81361000D01*
X134737403Y-81372418D01*
G37*
G36*
X147077500Y-81604700D02*
G01*
X145122500Y-81604700D01*
X145122500Y-80699100D01*
X147077500Y-80699100D01*
X147077500Y-81604700D01*
G37*
G36*
X127350576Y-80982657D02*
G01*
X127395995Y-81013005D01*
X127426343Y-81058424D01*
X127437000Y-81112000D01*
X127437000Y-81392000D01*
X127426343Y-81445576D01*
X127395995Y-81490995D01*
X127350576Y-81521343D01*
X127297000Y-81532000D01*
X126957000Y-81532000D01*
X126903424Y-81521343D01*
X126858005Y-81490995D01*
X126827657Y-81445576D01*
X126817000Y-81392000D01*
X126817000Y-81112000D01*
X126827657Y-81058424D01*
X126858005Y-81013005D01*
X126903424Y-80982657D01*
X126957000Y-80972000D01*
X127297000Y-80972000D01*
X127350576Y-80982657D01*
G37*
G36*
X129787403Y-80102418D02*
G01*
X129836066Y-80134934D01*
X129868582Y-80183597D01*
X129880000Y-80241000D01*
X129880000Y-80541000D01*
X129868582Y-80598403D01*
X129836066Y-80647066D01*
X129787403Y-80679582D01*
X129730000Y-80691000D01*
X128080000Y-80691000D01*
X128022597Y-80679582D01*
X127973934Y-80647066D01*
X127941418Y-80598403D01*
X127930000Y-80541000D01*
X127930000Y-80241000D01*
X127941418Y-80183597D01*
X127973934Y-80134934D01*
X128022597Y-80102418D01*
X128080000Y-80091000D01*
X129730000Y-80091000D01*
X129787403Y-80102418D01*
G37*
G36*
X134737403Y-80102418D02*
G01*
X134786066Y-80134934D01*
X134818582Y-80183597D01*
X134830000Y-80241000D01*
X134830000Y-80541000D01*
X134818582Y-80598403D01*
X134786066Y-80647066D01*
X134737403Y-80679582D01*
X134680000Y-80691000D01*
X133030000Y-80691000D01*
X132972597Y-80679582D01*
X132923934Y-80647066D01*
X132891418Y-80598403D01*
X132880000Y-80541000D01*
X132880000Y-80241000D01*
X132891418Y-80183597D01*
X132923934Y-80134934D01*
X132972597Y-80102418D01*
X133030000Y-80091000D01*
X134680000Y-80091000D01*
X134737403Y-80102418D01*
G37*
G36*
X127350576Y-80022657D02*
G01*
X127395995Y-80053005D01*
X127426343Y-80098424D01*
X127437000Y-80152000D01*
X127437000Y-80432000D01*
X127426343Y-80485576D01*
X127395995Y-80530995D01*
X127350576Y-80561343D01*
X127297000Y-80572000D01*
X126957000Y-80572000D01*
X126903424Y-80561343D01*
X126858005Y-80530995D01*
X126827657Y-80485576D01*
X126817000Y-80432000D01*
X126817000Y-80152000D01*
X126827657Y-80098424D01*
X126858005Y-80053005D01*
X126903424Y-80022657D01*
X126957000Y-80012000D01*
X127297000Y-80012000D01*
X127350576Y-80022657D01*
G37*
G36*
X129770672Y-74886508D02*
G01*
X130010735Y-74950833D01*
X130240349Y-75045942D01*
X130455583Y-75170208D01*
X130652757Y-75321504D01*
X130828496Y-75497243D01*
X130979792Y-75694417D01*
X131104058Y-75909651D01*
X131199167Y-76139265D01*
X131263492Y-76379328D01*
X131295932Y-76625734D01*
X131295932Y-76874266D01*
X131263492Y-77120672D01*
X131199167Y-77360735D01*
X131104058Y-77590349D01*
X130979792Y-77805583D01*
X130828496Y-78002757D01*
X130652757Y-78178496D01*
X130455583Y-78329792D01*
X130240349Y-78454058D01*
X130010735Y-78549167D01*
X129770672Y-78613492D01*
X129524266Y-78645932D01*
X129275734Y-78645932D01*
X129029328Y-78613492D01*
X128789265Y-78549167D01*
X128559651Y-78454058D01*
X128344417Y-78329792D01*
X128147243Y-78178496D01*
X127971504Y-78002757D01*
X127820208Y-77805583D01*
X127695942Y-77590349D01*
X127600833Y-77360735D01*
X127536508Y-77120672D01*
X127504068Y-76874266D01*
X127504068Y-76625734D01*
X127536508Y-76379328D01*
X127600833Y-76139265D01*
X127695942Y-75909651D01*
X127820208Y-75694417D01*
X127971504Y-75497243D01*
X128147243Y-75321504D01*
X128344417Y-75170208D01*
X128559651Y-75045942D01*
X128789265Y-74950833D01*
X129029328Y-74886508D01*
X129275734Y-74854068D01*
X129524266Y-74854068D01*
X129770672Y-74886508D01*
G37*
G36*
X163270672Y-74886508D02*
G01*
X163510735Y-74950833D01*
X163740349Y-75045942D01*
X163955583Y-75170208D01*
X164152757Y-75321504D01*
X164328496Y-75497243D01*
X164479792Y-75694417D01*
X164604058Y-75909651D01*
X164699167Y-76139265D01*
X164763492Y-76379328D01*
X164795932Y-76625734D01*
X164795932Y-76874266D01*
X164763492Y-77120672D01*
X164699167Y-77360735D01*
X164604058Y-77590349D01*
X164479792Y-77805583D01*
X164328496Y-78002757D01*
X164152757Y-78178496D01*
X163955583Y-78329792D01*
X163740349Y-78454058D01*
X163510735Y-78549167D01*
X163270672Y-78613492D01*
X163024266Y-78645932D01*
X162775734Y-78645932D01*
X162529328Y-78613492D01*
X162289265Y-78549167D01*
X162059651Y-78454058D01*
X161844417Y-78329792D01*
X161647243Y-78178496D01*
X161471504Y-78002757D01*
X161320208Y-77805583D01*
X161195942Y-77590349D01*
X161100833Y-77360735D01*
X161036508Y-77120672D01*
X161004068Y-76874266D01*
X161004068Y-76625734D01*
X161036508Y-76379328D01*
X161100833Y-76139265D01*
X161195942Y-75909651D01*
X161320208Y-75694417D01*
X161471504Y-75497243D01*
X161647243Y-75321504D01*
X161844417Y-75170208D01*
X162059651Y-75045942D01*
X162289265Y-74950833D01*
X162529328Y-74886508D01*
X162775734Y-74854068D01*
X163024266Y-74854068D01*
X163270672Y-74886508D01*
G37*
G36*
X143483034Y-74914264D02*
G01*
X143516125Y-74936375D01*
X143538236Y-74969466D01*
X143546000Y-75008500D01*
X143546000Y-76516500D01*
X143538236Y-76555534D01*
X143516125Y-76588625D01*
X143483034Y-76610736D01*
X143444000Y-76618500D01*
X141936000Y-76618500D01*
X141896966Y-76610736D01*
X141863875Y-76588625D01*
X141841764Y-76555534D01*
X141834000Y-76516500D01*
X141834000Y-75008500D01*
X141841764Y-74969466D01*
X141863875Y-74936375D01*
X141896966Y-74914264D01*
X141936000Y-74906500D01*
X143444000Y-74906500D01*
X143483034Y-74914264D01*
G37*
G36*
X145478484Y-74943359D02*
G01*
X145633516Y-75007575D01*
X145773041Y-75100803D01*
X145891697Y-75219459D01*
X145984925Y-75358984D01*
X146049141Y-75514016D01*
X146081878Y-75678597D01*
X146081878Y-75846403D01*
X146049141Y-76010984D01*
X145984925Y-76166016D01*
X145891697Y-76305541D01*
X145773041Y-76424197D01*
X145633516Y-76517425D01*
X145478484Y-76581641D01*
X145313903Y-76614378D01*
X145146097Y-76614378D01*
X144981516Y-76581641D01*
X144826484Y-76517425D01*
X144686959Y-76424197D01*
X144568303Y-76305541D01*
X144475075Y-76166016D01*
X144410859Y-76010984D01*
X144378122Y-75846403D01*
X144378122Y-75678597D01*
X144410859Y-75514016D01*
X144475075Y-75358984D01*
X144568303Y-75219459D01*
X144686959Y-75100803D01*
X144826484Y-75007575D01*
X144981516Y-74943359D01*
X145146097Y-74910622D01*
X145313903Y-74910622D01*
X145478484Y-74943359D01*
G37*
G36*
X148018484Y-74943359D02*
G01*
X148173516Y-75007575D01*
X148313041Y-75100803D01*
X148431697Y-75219459D01*
X148524925Y-75358984D01*
X148589141Y-75514016D01*
X148621878Y-75678597D01*
X148621878Y-75846403D01*
X148589141Y-76010984D01*
X148524925Y-76166016D01*
X148431697Y-76305541D01*
X148313041Y-76424197D01*
X148173516Y-76517425D01*
X148018484Y-76581641D01*
X147853903Y-76614378D01*
X147686097Y-76614378D01*
X147521516Y-76581641D01*
X147366484Y-76517425D01*
X147226959Y-76424197D01*
X147108303Y-76305541D01*
X147015075Y-76166016D01*
X146950859Y-76010984D01*
X146918122Y-75846403D01*
X146918122Y-75678597D01*
X146950859Y-75514016D01*
X147015075Y-75358984D01*
X147108303Y-75219459D01*
X147226959Y-75100803D01*
X147366484Y-75007575D01*
X147521516Y-74943359D01*
X147686097Y-74910622D01*
X147853903Y-74910622D01*
X148018484Y-74943359D01*
G37*
G36*
X150558484Y-74943359D02*
G01*
X150713516Y-75007575D01*
X150853041Y-75100803D01*
X150971697Y-75219459D01*
X151064925Y-75358984D01*
X151129141Y-75514016D01*
X151161878Y-75678597D01*
X151161878Y-75846403D01*
X151129141Y-76010984D01*
X151064925Y-76166016D01*
X150971697Y-76305541D01*
X150853041Y-76424197D01*
X150713516Y-76517425D01*
X150558484Y-76581641D01*
X150393903Y-76614378D01*
X150226097Y-76614378D01*
X150061516Y-76581641D01*
X149906484Y-76517425D01*
X149766959Y-76424197D01*
X149648303Y-76305541D01*
X149555075Y-76166016D01*
X149490859Y-76010984D01*
X149458122Y-75846403D01*
X149458122Y-75678597D01*
X149490859Y-75514016D01*
X149555075Y-75358984D01*
X149648303Y-75219459D01*
X149766959Y-75100803D01*
X149906484Y-75007575D01*
X150061516Y-74943359D01*
X150226097Y-74910622D01*
X150393903Y-74910622D01*
X150558484Y-74943359D01*
G37*
%LPD*%
M02*
