%TF.GenerationSoftware,KiCad,Pcbnew,9.0.7*%
%TF.CreationDate,2026-04-24T04:27:01-07:00*%
%TF.ProjectId,Primary_Board,5072696d-6172-4795-9f42-6f6172642e6b,rev?*%
%TF.SameCoordinates,Original*%
%TF.FileFunction,Soldermask,Top*%
%TF.FilePolarity,Negative*%
%FSLAX46Y46*%
G04 Gerber Fmt 4.6, Leading zero omitted, Abs format (unit mm)*
G04 Created by KiCad (PCBNEW 9.0.7) date 2026-04-24 04:27:01*
%MOMM*%
%LPD*%
G01*
G04 APERTURE LIST*
G04 APERTURE END LIST*
G36*
X129770672Y-125186508D02*
G01*
X130010735Y-125250833D01*
X130240349Y-125345942D01*
X130455583Y-125470208D01*
X130652757Y-125621504D01*
X130828496Y-125797243D01*
X130979792Y-125994417D01*
X131104058Y-126209651D01*
X131199167Y-126439265D01*
X131263492Y-126679328D01*
X131295932Y-126925734D01*
X131295932Y-127174266D01*
X131263492Y-127420672D01*
X131199167Y-127660735D01*
X131104058Y-127890349D01*
X130979792Y-128105583D01*
X130828496Y-128302757D01*
X130652757Y-128478496D01*
X130455583Y-128629792D01*
X130240349Y-128754058D01*
X130010735Y-128849167D01*
X129770672Y-128913492D01*
X129524266Y-128945932D01*
X129275734Y-128945932D01*
X129029328Y-128913492D01*
X128789265Y-128849167D01*
X128559651Y-128754058D01*
X128344417Y-128629792D01*
X128147243Y-128478496D01*
X127971504Y-128302757D01*
X127820208Y-128105583D01*
X127695942Y-127890349D01*
X127600833Y-127660735D01*
X127536508Y-127420672D01*
X127504068Y-127174266D01*
X127504068Y-126925734D01*
X127536508Y-126679328D01*
X127600833Y-126439265D01*
X127695942Y-126209651D01*
X127820208Y-125994417D01*
X127971504Y-125797243D01*
X128147243Y-125621504D01*
X128344417Y-125470208D01*
X128559651Y-125345942D01*
X128789265Y-125250833D01*
X129029328Y-125186508D01*
X129275734Y-125154068D01*
X129524266Y-125154068D01*
X129770672Y-125186508D01*
G37*
G36*
X163270672Y-125186508D02*
G01*
X163510735Y-125250833D01*
X163740349Y-125345942D01*
X163955583Y-125470208D01*
X164152757Y-125621504D01*
X164328496Y-125797243D01*
X164479792Y-125994417D01*
X164604058Y-126209651D01*
X164699167Y-126439265D01*
X164763492Y-126679328D01*
X164795932Y-126925734D01*
X164795932Y-127174266D01*
X164763492Y-127420672D01*
X164699167Y-127660735D01*
X164604058Y-127890349D01*
X164479792Y-128105583D01*
X164328496Y-128302757D01*
X164152757Y-128478496D01*
X163955583Y-128629792D01*
X163740349Y-128754058D01*
X163510735Y-128849167D01*
X163270672Y-128913492D01*
X163024266Y-128945932D01*
X162775734Y-128945932D01*
X162529328Y-128913492D01*
X162289265Y-128849167D01*
X162059651Y-128754058D01*
X161844417Y-128629792D01*
X161647243Y-128478496D01*
X161471504Y-128302757D01*
X161320208Y-128105583D01*
X161195942Y-127890349D01*
X161100833Y-127660735D01*
X161036508Y-127420672D01*
X161004068Y-127174266D01*
X161004068Y-126925734D01*
X161036508Y-126679328D01*
X161100833Y-126439265D01*
X161195942Y-126209651D01*
X161320208Y-125994417D01*
X161471504Y-125797243D01*
X161647243Y-125621504D01*
X161844417Y-125470208D01*
X162059651Y-125345942D01*
X162289265Y-125250833D01*
X162529328Y-125186508D01*
X162775734Y-125154068D01*
X163024266Y-125154068D01*
X163270672Y-125186508D01*
G37*
G36*
X139101420Y-126105685D02*
G01*
X139111738Y-126108637D01*
X139120039Y-126109455D01*
X139210548Y-126136910D01*
X139295950Y-126161347D01*
X139302660Y-126164852D01*
X139307588Y-126166347D01*
X139396361Y-126213797D01*
X139475293Y-126255028D01*
X139478709Y-126257813D01*
X139480435Y-126258736D01*
X139572067Y-126333937D01*
X139632107Y-126382893D01*
X139681090Y-126442966D01*
X139756263Y-126534564D01*
X139757185Y-126536289D01*
X139759972Y-126539707D01*
X139801222Y-126618676D01*
X139848652Y-126707411D01*
X139850146Y-126712336D01*
X139853653Y-126719050D01*
X139878101Y-126804492D01*
X139905544Y-126894960D01*
X139906361Y-126903256D01*
X139909315Y-126913580D01*
X139925000Y-127090000D01*
X139909315Y-127266420D01*
X139906361Y-127276743D01*
X139905544Y-127285039D01*
X139878106Y-127375489D01*
X139853653Y-127460950D01*
X139850145Y-127467665D01*
X139848652Y-127472588D01*
X139801245Y-127561279D01*
X139759972Y-127640293D01*
X139757183Y-127643712D01*
X139756263Y-127645435D01*
X139681217Y-127736878D01*
X139632107Y-127797107D01*
X139571878Y-127846217D01*
X139480435Y-127921263D01*
X139478712Y-127922183D01*
X139475293Y-127924972D01*
X139396279Y-127966245D01*
X139307588Y-128013652D01*
X139302665Y-128015145D01*
X139295950Y-128018653D01*
X139210489Y-128043106D01*
X139120039Y-128070544D01*
X139111743Y-128071361D01*
X139101420Y-128074315D01*
X138925000Y-128090000D01*
X138175000Y-128090000D01*
X137998580Y-128074315D01*
X137988256Y-128071361D01*
X137979960Y-128070544D01*
X137889492Y-128043101D01*
X137804050Y-128018653D01*
X137797336Y-128015146D01*
X137792411Y-128013652D01*
X137703676Y-127966222D01*
X137624707Y-127924972D01*
X137621289Y-127922185D01*
X137619564Y-127921263D01*
X137527966Y-127846090D01*
X137467893Y-127797107D01*
X137418937Y-127737067D01*
X137343736Y-127645435D01*
X137342813Y-127643709D01*
X137340028Y-127640293D01*
X137298797Y-127561361D01*
X137251347Y-127472588D01*
X137249852Y-127467660D01*
X137246347Y-127460950D01*
X137221910Y-127375548D01*
X137194455Y-127285039D01*
X137193637Y-127276738D01*
X137190685Y-127266420D01*
X137175000Y-127090000D01*
X137190685Y-126913580D01*
X137193637Y-126903262D01*
X137194455Y-126894960D01*
X137221915Y-126804434D01*
X137246347Y-126719050D01*
X137249851Y-126712340D01*
X137251347Y-126707411D01*
X137298820Y-126618594D01*
X137340028Y-126539707D01*
X137342811Y-126536292D01*
X137343736Y-126534564D01*
X137419063Y-126442777D01*
X137467893Y-126382893D01*
X137527777Y-126334063D01*
X137619564Y-126258736D01*
X137621292Y-126257811D01*
X137624707Y-126255028D01*
X137703594Y-126213820D01*
X137792411Y-126166347D01*
X137797340Y-126164851D01*
X137804050Y-126161347D01*
X137889434Y-126136915D01*
X137979960Y-126109455D01*
X137988262Y-126108637D01*
X137998580Y-126105685D01*
X138175000Y-126090000D01*
X138925000Y-126090000D01*
X139101420Y-126105685D01*
G37*
G36*
X155266420Y-126105685D02*
G01*
X155276738Y-126108637D01*
X155285039Y-126109455D01*
X155375548Y-126136910D01*
X155460950Y-126161347D01*
X155467660Y-126164852D01*
X155472588Y-126166347D01*
X155561361Y-126213797D01*
X155640293Y-126255028D01*
X155643709Y-126257813D01*
X155645435Y-126258736D01*
X155737067Y-126333937D01*
X155797107Y-126382893D01*
X155846090Y-126442966D01*
X155921263Y-126534564D01*
X155922185Y-126536289D01*
X155924972Y-126539707D01*
X155966222Y-126618676D01*
X156013652Y-126707411D01*
X156015146Y-126712336D01*
X156018653Y-126719050D01*
X156043101Y-126804492D01*
X156070544Y-126894960D01*
X156071361Y-126903256D01*
X156074315Y-126913580D01*
X156090000Y-127090000D01*
X156074315Y-127266420D01*
X156071361Y-127276743D01*
X156070544Y-127285039D01*
X156043106Y-127375489D01*
X156018653Y-127460950D01*
X156015145Y-127467665D01*
X156013652Y-127472588D01*
X155966245Y-127561279D01*
X155924972Y-127640293D01*
X155922183Y-127643712D01*
X155921263Y-127645435D01*
X155846217Y-127736878D01*
X155797107Y-127797107D01*
X155736878Y-127846217D01*
X155645435Y-127921263D01*
X155643712Y-127922183D01*
X155640293Y-127924972D01*
X155561279Y-127966245D01*
X155472588Y-128013652D01*
X155467665Y-128015145D01*
X155460950Y-128018653D01*
X155375489Y-128043106D01*
X155285039Y-128070544D01*
X155276743Y-128071361D01*
X155266420Y-128074315D01*
X155090000Y-128090000D01*
X154340000Y-128090000D01*
X154163580Y-128074315D01*
X154153256Y-128071361D01*
X154144960Y-128070544D01*
X154054492Y-128043101D01*
X153969050Y-128018653D01*
X153962336Y-128015146D01*
X153957411Y-128013652D01*
X153868676Y-127966222D01*
X153789707Y-127924972D01*
X153786289Y-127922185D01*
X153784564Y-127921263D01*
X153692966Y-127846090D01*
X153632893Y-127797107D01*
X153583937Y-127737067D01*
X153508736Y-127645435D01*
X153507813Y-127643709D01*
X153505028Y-127640293D01*
X153463797Y-127561361D01*
X153416347Y-127472588D01*
X153414852Y-127467660D01*
X153411347Y-127460950D01*
X153386910Y-127375548D01*
X153359455Y-127285039D01*
X153358637Y-127276738D01*
X153355685Y-127266420D01*
X153340000Y-127090000D01*
X153355685Y-126913580D01*
X153358637Y-126903262D01*
X153359455Y-126894960D01*
X153386915Y-126804434D01*
X153411347Y-126719050D01*
X153414851Y-126712340D01*
X153416347Y-126707411D01*
X153463820Y-126618594D01*
X153505028Y-126539707D01*
X153507811Y-126536292D01*
X153508736Y-126534564D01*
X153584063Y-126442777D01*
X153632893Y-126382893D01*
X153692777Y-126334063D01*
X153784564Y-126258736D01*
X153786292Y-126257811D01*
X153789707Y-126255028D01*
X153868594Y-126213820D01*
X153957411Y-126166347D01*
X153962340Y-126164851D01*
X153969050Y-126161347D01*
X154054434Y-126136915D01*
X154144960Y-126109455D01*
X154153262Y-126108637D01*
X154163580Y-126105685D01*
X154340000Y-126090000D01*
X155090000Y-126090000D01*
X155266420Y-126105685D01*
G37*
G36*
X139101420Y-123565685D02*
G01*
X139111738Y-123568637D01*
X139120039Y-123569455D01*
X139210548Y-123596910D01*
X139295950Y-123621347D01*
X139302660Y-123624852D01*
X139307588Y-123626347D01*
X139396361Y-123673797D01*
X139475293Y-123715028D01*
X139478709Y-123717813D01*
X139480435Y-123718736D01*
X139572067Y-123793937D01*
X139632107Y-123842893D01*
X139681090Y-123902966D01*
X139756263Y-123994564D01*
X139757185Y-123996289D01*
X139759972Y-123999707D01*
X139801222Y-124078676D01*
X139848652Y-124167411D01*
X139850146Y-124172336D01*
X139853653Y-124179050D01*
X139878101Y-124264492D01*
X139905544Y-124354960D01*
X139906361Y-124363256D01*
X139909315Y-124373580D01*
X139925000Y-124550000D01*
X139909315Y-124726420D01*
X139906361Y-124736743D01*
X139905544Y-124745039D01*
X139878106Y-124835489D01*
X139853653Y-124920950D01*
X139850145Y-124927665D01*
X139848652Y-124932588D01*
X139801245Y-125021279D01*
X139759972Y-125100293D01*
X139757183Y-125103712D01*
X139756263Y-125105435D01*
X139681217Y-125196878D01*
X139632107Y-125257107D01*
X139571878Y-125306217D01*
X139480435Y-125381263D01*
X139478712Y-125382183D01*
X139475293Y-125384972D01*
X139396279Y-125426245D01*
X139307588Y-125473652D01*
X139302665Y-125475145D01*
X139295950Y-125478653D01*
X139210489Y-125503106D01*
X139120039Y-125530544D01*
X139111743Y-125531361D01*
X139101420Y-125534315D01*
X138925000Y-125550000D01*
X138175000Y-125550000D01*
X137998580Y-125534315D01*
X137988256Y-125531361D01*
X137979960Y-125530544D01*
X137889492Y-125503101D01*
X137804050Y-125478653D01*
X137797336Y-125475146D01*
X137792411Y-125473652D01*
X137703676Y-125426222D01*
X137624707Y-125384972D01*
X137621289Y-125382185D01*
X137619564Y-125381263D01*
X137527966Y-125306090D01*
X137467893Y-125257107D01*
X137418937Y-125197067D01*
X137343736Y-125105435D01*
X137342813Y-125103709D01*
X137340028Y-125100293D01*
X137298797Y-125021361D01*
X137251347Y-124932588D01*
X137249852Y-124927660D01*
X137246347Y-124920950D01*
X137221910Y-124835548D01*
X137194455Y-124745039D01*
X137193637Y-124736738D01*
X137190685Y-124726420D01*
X137175000Y-124550000D01*
X137190685Y-124373580D01*
X137193637Y-124363262D01*
X137194455Y-124354960D01*
X137221915Y-124264434D01*
X137246347Y-124179050D01*
X137249851Y-124172340D01*
X137251347Y-124167411D01*
X137298820Y-124078594D01*
X137340028Y-123999707D01*
X137342811Y-123996292D01*
X137343736Y-123994564D01*
X137419063Y-123902777D01*
X137467893Y-123842893D01*
X137527777Y-123794063D01*
X137619564Y-123718736D01*
X137621292Y-123717811D01*
X137624707Y-123715028D01*
X137703594Y-123673820D01*
X137792411Y-123626347D01*
X137797340Y-123624851D01*
X137804050Y-123621347D01*
X137889434Y-123596915D01*
X137979960Y-123569455D01*
X137988262Y-123568637D01*
X137998580Y-123565685D01*
X138175000Y-123550000D01*
X138925000Y-123550000D01*
X139101420Y-123565685D01*
G37*
G36*
X155266420Y-123565685D02*
G01*
X155276738Y-123568637D01*
X155285039Y-123569455D01*
X155375548Y-123596910D01*
X155460950Y-123621347D01*
X155467660Y-123624852D01*
X155472588Y-123626347D01*
X155561361Y-123673797D01*
X155640293Y-123715028D01*
X155643709Y-123717813D01*
X155645435Y-123718736D01*
X155737067Y-123793937D01*
X155797107Y-123842893D01*
X155846090Y-123902966D01*
X155921263Y-123994564D01*
X155922185Y-123996289D01*
X155924972Y-123999707D01*
X155966222Y-124078676D01*
X156013652Y-124167411D01*
X156015146Y-124172336D01*
X156018653Y-124179050D01*
X156043101Y-124264492D01*
X156070544Y-124354960D01*
X156071361Y-124363256D01*
X156074315Y-124373580D01*
X156090000Y-124550000D01*
X156074315Y-124726420D01*
X156071361Y-124736743D01*
X156070544Y-124745039D01*
X156043106Y-124835489D01*
X156018653Y-124920950D01*
X156015145Y-124927665D01*
X156013652Y-124932588D01*
X155966245Y-125021279D01*
X155924972Y-125100293D01*
X155922183Y-125103712D01*
X155921263Y-125105435D01*
X155846217Y-125196878D01*
X155797107Y-125257107D01*
X155736878Y-125306217D01*
X155645435Y-125381263D01*
X155643712Y-125382183D01*
X155640293Y-125384972D01*
X155561279Y-125426245D01*
X155472588Y-125473652D01*
X155467665Y-125475145D01*
X155460950Y-125478653D01*
X155375489Y-125503106D01*
X155285039Y-125530544D01*
X155276743Y-125531361D01*
X155266420Y-125534315D01*
X155090000Y-125550000D01*
X154340000Y-125550000D01*
X154163580Y-125534315D01*
X154153256Y-125531361D01*
X154144960Y-125530544D01*
X154054492Y-125503101D01*
X153969050Y-125478653D01*
X153962336Y-125475146D01*
X153957411Y-125473652D01*
X153868676Y-125426222D01*
X153789707Y-125384972D01*
X153786289Y-125382185D01*
X153784564Y-125381263D01*
X153692966Y-125306090D01*
X153632893Y-125257107D01*
X153583937Y-125197067D01*
X153508736Y-125105435D01*
X153507813Y-125103709D01*
X153505028Y-125100293D01*
X153463797Y-125021361D01*
X153416347Y-124932588D01*
X153414852Y-124927660D01*
X153411347Y-124920950D01*
X153386910Y-124835548D01*
X153359455Y-124745039D01*
X153358637Y-124736738D01*
X153355685Y-124726420D01*
X153340000Y-124550000D01*
X153355685Y-124373580D01*
X153358637Y-124363262D01*
X153359455Y-124354960D01*
X153386915Y-124264434D01*
X153411347Y-124179050D01*
X153414851Y-124172340D01*
X153416347Y-124167411D01*
X153463820Y-124078594D01*
X153505028Y-123999707D01*
X153507811Y-123996292D01*
X153508736Y-123994564D01*
X153584063Y-123902777D01*
X153632893Y-123842893D01*
X153692777Y-123794063D01*
X153784564Y-123718736D01*
X153786292Y-123717811D01*
X153789707Y-123715028D01*
X153868594Y-123673820D01*
X153957411Y-123626347D01*
X153962340Y-123624851D01*
X153969050Y-123621347D01*
X154054434Y-123596915D01*
X154144960Y-123569455D01*
X154153262Y-123568637D01*
X154163580Y-123565685D01*
X154340000Y-123550000D01*
X155090000Y-123550000D01*
X155266420Y-123565685D01*
G37*
G36*
X139101420Y-121025685D02*
G01*
X139111738Y-121028637D01*
X139120039Y-121029455D01*
X139210548Y-121056910D01*
X139295950Y-121081347D01*
X139302660Y-121084852D01*
X139307588Y-121086347D01*
X139396361Y-121133797D01*
X139475293Y-121175028D01*
X139478709Y-121177813D01*
X139480435Y-121178736D01*
X139572067Y-121253937D01*
X139632107Y-121302893D01*
X139681090Y-121362966D01*
X139756263Y-121454564D01*
X139757185Y-121456289D01*
X139759972Y-121459707D01*
X139801222Y-121538676D01*
X139848652Y-121627411D01*
X139850146Y-121632336D01*
X139853653Y-121639050D01*
X139878101Y-121724492D01*
X139905544Y-121814960D01*
X139906361Y-121823256D01*
X139909315Y-121833580D01*
X139925000Y-122010000D01*
X139909315Y-122186420D01*
X139906361Y-122196743D01*
X139905544Y-122205039D01*
X139878106Y-122295489D01*
X139853653Y-122380950D01*
X139850145Y-122387665D01*
X139848652Y-122392588D01*
X139801245Y-122481279D01*
X139759972Y-122560293D01*
X139757183Y-122563712D01*
X139756263Y-122565435D01*
X139681217Y-122656878D01*
X139632107Y-122717107D01*
X139571878Y-122766217D01*
X139480435Y-122841263D01*
X139478712Y-122842183D01*
X139475293Y-122844972D01*
X139396279Y-122886245D01*
X139307588Y-122933652D01*
X139302665Y-122935145D01*
X139295950Y-122938653D01*
X139210489Y-122963106D01*
X139120039Y-122990544D01*
X139111743Y-122991361D01*
X139101420Y-122994315D01*
X138925000Y-123010000D01*
X138175000Y-123010000D01*
X137998580Y-122994315D01*
X137988256Y-122991361D01*
X137979960Y-122990544D01*
X137889492Y-122963101D01*
X137804050Y-122938653D01*
X137797336Y-122935146D01*
X137792411Y-122933652D01*
X137703676Y-122886222D01*
X137624707Y-122844972D01*
X137621289Y-122842185D01*
X137619564Y-122841263D01*
X137527966Y-122766090D01*
X137467893Y-122717107D01*
X137418937Y-122657067D01*
X137343736Y-122565435D01*
X137342813Y-122563709D01*
X137340028Y-122560293D01*
X137298797Y-122481361D01*
X137251347Y-122392588D01*
X137249852Y-122387660D01*
X137246347Y-122380950D01*
X137221910Y-122295548D01*
X137194455Y-122205039D01*
X137193637Y-122196738D01*
X137190685Y-122186420D01*
X137175000Y-122010000D01*
X137190685Y-121833580D01*
X137193637Y-121823262D01*
X137194455Y-121814960D01*
X137221915Y-121724434D01*
X137246347Y-121639050D01*
X137249851Y-121632340D01*
X137251347Y-121627411D01*
X137298820Y-121538594D01*
X137340028Y-121459707D01*
X137342811Y-121456292D01*
X137343736Y-121454564D01*
X137419063Y-121362777D01*
X137467893Y-121302893D01*
X137527777Y-121254063D01*
X137619564Y-121178736D01*
X137621292Y-121177811D01*
X137624707Y-121175028D01*
X137703594Y-121133820D01*
X137792411Y-121086347D01*
X137797340Y-121084851D01*
X137804050Y-121081347D01*
X137889434Y-121056915D01*
X137979960Y-121029455D01*
X137988262Y-121028637D01*
X137998580Y-121025685D01*
X138175000Y-121010000D01*
X138925000Y-121010000D01*
X139101420Y-121025685D01*
G37*
G36*
X155266420Y-121025685D02*
G01*
X155276738Y-121028637D01*
X155285039Y-121029455D01*
X155375548Y-121056910D01*
X155460950Y-121081347D01*
X155467660Y-121084852D01*
X155472588Y-121086347D01*
X155561361Y-121133797D01*
X155640293Y-121175028D01*
X155643709Y-121177813D01*
X155645435Y-121178736D01*
X155737067Y-121253937D01*
X155797107Y-121302893D01*
X155846090Y-121362966D01*
X155921263Y-121454564D01*
X155922185Y-121456289D01*
X155924972Y-121459707D01*
X155966222Y-121538676D01*
X156013652Y-121627411D01*
X156015146Y-121632336D01*
X156018653Y-121639050D01*
X156043101Y-121724492D01*
X156070544Y-121814960D01*
X156071361Y-121823256D01*
X156074315Y-121833580D01*
X156090000Y-122010000D01*
X156074315Y-122186420D01*
X156071361Y-122196743D01*
X156070544Y-122205039D01*
X156043106Y-122295489D01*
X156018653Y-122380950D01*
X156015145Y-122387665D01*
X156013652Y-122392588D01*
X155966245Y-122481279D01*
X155924972Y-122560293D01*
X155922183Y-122563712D01*
X155921263Y-122565435D01*
X155846217Y-122656878D01*
X155797107Y-122717107D01*
X155736878Y-122766217D01*
X155645435Y-122841263D01*
X155643712Y-122842183D01*
X155640293Y-122844972D01*
X155561279Y-122886245D01*
X155472588Y-122933652D01*
X155467665Y-122935145D01*
X155460950Y-122938653D01*
X155375489Y-122963106D01*
X155285039Y-122990544D01*
X155276743Y-122991361D01*
X155266420Y-122994315D01*
X155090000Y-123010000D01*
X154340000Y-123010000D01*
X154163580Y-122994315D01*
X154153256Y-122991361D01*
X154144960Y-122990544D01*
X154054492Y-122963101D01*
X153969050Y-122938653D01*
X153962336Y-122935146D01*
X153957411Y-122933652D01*
X153868676Y-122886222D01*
X153789707Y-122844972D01*
X153786289Y-122842185D01*
X153784564Y-122841263D01*
X153692966Y-122766090D01*
X153632893Y-122717107D01*
X153583937Y-122657067D01*
X153508736Y-122565435D01*
X153507813Y-122563709D01*
X153505028Y-122560293D01*
X153463797Y-122481361D01*
X153416347Y-122392588D01*
X153414852Y-122387660D01*
X153411347Y-122380950D01*
X153386910Y-122295548D01*
X153359455Y-122205039D01*
X153358637Y-122196738D01*
X153355685Y-122186420D01*
X153340000Y-122010000D01*
X153355685Y-121833580D01*
X153358637Y-121823262D01*
X153359455Y-121814960D01*
X153386915Y-121724434D01*
X153411347Y-121639050D01*
X153414851Y-121632340D01*
X153416347Y-121627411D01*
X153463820Y-121538594D01*
X153505028Y-121459707D01*
X153507811Y-121456292D01*
X153508736Y-121454564D01*
X153584063Y-121362777D01*
X153632893Y-121302893D01*
X153692777Y-121254063D01*
X153784564Y-121178736D01*
X153786292Y-121177811D01*
X153789707Y-121175028D01*
X153868594Y-121133820D01*
X153957411Y-121086347D01*
X153962340Y-121084851D01*
X153969050Y-121081347D01*
X154054434Y-121056915D01*
X154144960Y-121029455D01*
X154153262Y-121028637D01*
X154163580Y-121025685D01*
X154340000Y-121010000D01*
X155090000Y-121010000D01*
X155266420Y-121025685D01*
G37*
G36*
X160801687Y-122749483D02*
G01*
X159801687Y-122749483D01*
X159503792Y-122749483D01*
X159501687Y-122749483D01*
X158501687Y-122749483D01*
X158501687Y-121249483D01*
X159501687Y-121249483D01*
X160796683Y-121249483D01*
X160801687Y-121249483D01*
X160801687Y-122749483D01*
G37*
G36*
X129000000Y-121250000D02*
G01*
X127300000Y-121250000D01*
X127300000Y-119550000D01*
X129000000Y-119550000D01*
X129000000Y-121250000D01*
G37*
G36*
X163827263Y-120178140D02*
G01*
X163872682Y-120208488D01*
X163903030Y-120253907D01*
X163913687Y-120307483D01*
X163913687Y-120587483D01*
X163903030Y-120641059D01*
X163872682Y-120686478D01*
X163827263Y-120716826D01*
X163773687Y-120727483D01*
X163433687Y-120727483D01*
X163380111Y-120716826D01*
X163334692Y-120686478D01*
X163304344Y-120641059D01*
X163293687Y-120587483D01*
X163293687Y-120307483D01*
X163304344Y-120253907D01*
X163334692Y-120208488D01*
X163380111Y-120178140D01*
X163433687Y-120167483D01*
X163773687Y-120167483D01*
X163827263Y-120178140D01*
G37*
G36*
X139101420Y-118485685D02*
G01*
X139111738Y-118488637D01*
X139120039Y-118489455D01*
X139210548Y-118516910D01*
X139295950Y-118541347D01*
X139302660Y-118544852D01*
X139307588Y-118546347D01*
X139396361Y-118593797D01*
X139475293Y-118635028D01*
X139478709Y-118637813D01*
X139480435Y-118638736D01*
X139572067Y-118713937D01*
X139632107Y-118762893D01*
X139681090Y-118822966D01*
X139756263Y-118914564D01*
X139757185Y-118916289D01*
X139759972Y-118919707D01*
X139801222Y-118998676D01*
X139848652Y-119087411D01*
X139850146Y-119092336D01*
X139853653Y-119099050D01*
X139878101Y-119184492D01*
X139905544Y-119274960D01*
X139906361Y-119283256D01*
X139909315Y-119293580D01*
X139925000Y-119470000D01*
X139909315Y-119646420D01*
X139906361Y-119656743D01*
X139905544Y-119665039D01*
X139878106Y-119755489D01*
X139853653Y-119840950D01*
X139850145Y-119847665D01*
X139848652Y-119852588D01*
X139801245Y-119941279D01*
X139759972Y-120020293D01*
X139757183Y-120023712D01*
X139756263Y-120025435D01*
X139681217Y-120116878D01*
X139632107Y-120177107D01*
X139571878Y-120226217D01*
X139480435Y-120301263D01*
X139478712Y-120302183D01*
X139475293Y-120304972D01*
X139396279Y-120346245D01*
X139307588Y-120393652D01*
X139302665Y-120395145D01*
X139295950Y-120398653D01*
X139210489Y-120423106D01*
X139120039Y-120450544D01*
X139111743Y-120451361D01*
X139101420Y-120454315D01*
X138925000Y-120470000D01*
X138175000Y-120470000D01*
X137998580Y-120454315D01*
X137988256Y-120451361D01*
X137979960Y-120450544D01*
X137889492Y-120423101D01*
X137804050Y-120398653D01*
X137797336Y-120395146D01*
X137792411Y-120393652D01*
X137703676Y-120346222D01*
X137624707Y-120304972D01*
X137621289Y-120302185D01*
X137619564Y-120301263D01*
X137527966Y-120226090D01*
X137467893Y-120177107D01*
X137418937Y-120117067D01*
X137343736Y-120025435D01*
X137342813Y-120023709D01*
X137340028Y-120020293D01*
X137298797Y-119941361D01*
X137251347Y-119852588D01*
X137249852Y-119847660D01*
X137246347Y-119840950D01*
X137221910Y-119755548D01*
X137194455Y-119665039D01*
X137193637Y-119656738D01*
X137190685Y-119646420D01*
X137175000Y-119470000D01*
X137190685Y-119293580D01*
X137193637Y-119283262D01*
X137194455Y-119274960D01*
X137221915Y-119184434D01*
X137246347Y-119099050D01*
X137249851Y-119092340D01*
X137251347Y-119087411D01*
X137298820Y-118998594D01*
X137340028Y-118919707D01*
X137342811Y-118916292D01*
X137343736Y-118914564D01*
X137419063Y-118822777D01*
X137467893Y-118762893D01*
X137527777Y-118714063D01*
X137619564Y-118638736D01*
X137621292Y-118637811D01*
X137624707Y-118635028D01*
X137703594Y-118593820D01*
X137792411Y-118546347D01*
X137797340Y-118544851D01*
X137804050Y-118541347D01*
X137889434Y-118516915D01*
X137979960Y-118489455D01*
X137988262Y-118488637D01*
X137998580Y-118485685D01*
X138175000Y-118470000D01*
X138925000Y-118470000D01*
X139101420Y-118485685D01*
G37*
G36*
X155266420Y-118485685D02*
G01*
X155276738Y-118488637D01*
X155285039Y-118489455D01*
X155375548Y-118516910D01*
X155460950Y-118541347D01*
X155467660Y-118544852D01*
X155472588Y-118546347D01*
X155561361Y-118593797D01*
X155640293Y-118635028D01*
X155643709Y-118637813D01*
X155645435Y-118638736D01*
X155737067Y-118713937D01*
X155797107Y-118762893D01*
X155846090Y-118822966D01*
X155921263Y-118914564D01*
X155922185Y-118916289D01*
X155924972Y-118919707D01*
X155966222Y-118998676D01*
X156013652Y-119087411D01*
X156015146Y-119092336D01*
X156018653Y-119099050D01*
X156043101Y-119184492D01*
X156070544Y-119274960D01*
X156071361Y-119283256D01*
X156074315Y-119293580D01*
X156090000Y-119470000D01*
X156074315Y-119646420D01*
X156071361Y-119656743D01*
X156070544Y-119665039D01*
X156043106Y-119755489D01*
X156018653Y-119840950D01*
X156015145Y-119847665D01*
X156013652Y-119852588D01*
X155966245Y-119941279D01*
X155924972Y-120020293D01*
X155922183Y-120023712D01*
X155921263Y-120025435D01*
X155846217Y-120116878D01*
X155797107Y-120177107D01*
X155736878Y-120226217D01*
X155645435Y-120301263D01*
X155643712Y-120302183D01*
X155640293Y-120304972D01*
X155561279Y-120346245D01*
X155472588Y-120393652D01*
X155467665Y-120395145D01*
X155460950Y-120398653D01*
X155375489Y-120423106D01*
X155285039Y-120450544D01*
X155276743Y-120451361D01*
X155266420Y-120454315D01*
X155090000Y-120470000D01*
X154340000Y-120470000D01*
X154163580Y-120454315D01*
X154153256Y-120451361D01*
X154144960Y-120450544D01*
X154054492Y-120423101D01*
X153969050Y-120398653D01*
X153962336Y-120395146D01*
X153957411Y-120393652D01*
X153868676Y-120346222D01*
X153789707Y-120304972D01*
X153786289Y-120302185D01*
X153784564Y-120301263D01*
X153692966Y-120226090D01*
X153632893Y-120177107D01*
X153583937Y-120117067D01*
X153508736Y-120025435D01*
X153507813Y-120023709D01*
X153505028Y-120020293D01*
X153463797Y-119941361D01*
X153416347Y-119852588D01*
X153414852Y-119847660D01*
X153411347Y-119840950D01*
X153386910Y-119755548D01*
X153359455Y-119665039D01*
X153358637Y-119656738D01*
X153355685Y-119646420D01*
X153340000Y-119470000D01*
X153355685Y-119293580D01*
X153358637Y-119283262D01*
X153359455Y-119274960D01*
X153386915Y-119184434D01*
X153411347Y-119099050D01*
X153414851Y-119092340D01*
X153416347Y-119087411D01*
X153463820Y-118998594D01*
X153505028Y-118919707D01*
X153507811Y-118916292D01*
X153508736Y-118914564D01*
X153584063Y-118822777D01*
X153632893Y-118762893D01*
X153692777Y-118714063D01*
X153784564Y-118638736D01*
X153786292Y-118637811D01*
X153789707Y-118635028D01*
X153868594Y-118593820D01*
X153957411Y-118546347D01*
X153962340Y-118544851D01*
X153969050Y-118541347D01*
X154054434Y-118516915D01*
X154144960Y-118489455D01*
X154153262Y-118488637D01*
X154163580Y-118485685D01*
X154340000Y-118470000D01*
X155090000Y-118470000D01*
X155266420Y-118485685D01*
G37*
G36*
X160592373Y-118771853D02*
G01*
X160645092Y-118807078D01*
X160680317Y-118859797D01*
X160692687Y-118921983D01*
X160692687Y-120156983D01*
X160680317Y-120219169D01*
X160645092Y-120271888D01*
X160592373Y-120307113D01*
X160530187Y-120319483D01*
X160205187Y-120319483D01*
X160143001Y-120307113D01*
X160090282Y-120271888D01*
X160055057Y-120219169D01*
X160042687Y-120156983D01*
X160042687Y-118921983D01*
X160055057Y-118859797D01*
X160090282Y-118807078D01*
X160143001Y-118771853D01*
X160205187Y-118759483D01*
X160530187Y-118759483D01*
X160592373Y-118771853D01*
G37*
G36*
X162492373Y-118771853D02*
G01*
X162545092Y-118807078D01*
X162580317Y-118859797D01*
X162592687Y-118921983D01*
X162592687Y-120156983D01*
X162580317Y-120219169D01*
X162545092Y-120271888D01*
X162492373Y-120307113D01*
X162430187Y-120319483D01*
X162105187Y-120319483D01*
X162043001Y-120307113D01*
X161990282Y-120271888D01*
X161955057Y-120219169D01*
X161942687Y-120156983D01*
X161942687Y-118921983D01*
X161955057Y-118859797D01*
X161990282Y-118807078D01*
X162043001Y-118771853D01*
X162105187Y-118759483D01*
X162430187Y-118759483D01*
X162492373Y-118771853D01*
G37*
G36*
X163827263Y-119218140D02*
G01*
X163872682Y-119248488D01*
X163903030Y-119293907D01*
X163913687Y-119347483D01*
X163913687Y-119627483D01*
X163903030Y-119681059D01*
X163872682Y-119726478D01*
X163827263Y-119756826D01*
X163773687Y-119767483D01*
X163433687Y-119767483D01*
X163380111Y-119756826D01*
X163334692Y-119726478D01*
X163304344Y-119681059D01*
X163293687Y-119627483D01*
X163293687Y-119347483D01*
X163304344Y-119293907D01*
X163334692Y-119248488D01*
X163380111Y-119218140D01*
X163433687Y-119207483D01*
X163773687Y-119207483D01*
X163827263Y-119218140D01*
G37*
G36*
X128396742Y-117046601D02*
G01*
X128550687Y-117110367D01*
X128689234Y-117202941D01*
X128807059Y-117320766D01*
X128899633Y-117459313D01*
X128963399Y-117613258D01*
X128995907Y-117776685D01*
X128995907Y-117943315D01*
X128963399Y-118106742D01*
X128899633Y-118260687D01*
X128807059Y-118399234D01*
X128689234Y-118517059D01*
X128550687Y-118609633D01*
X128396742Y-118673399D01*
X128233315Y-118705907D01*
X128066685Y-118705907D01*
X127903258Y-118673399D01*
X127749313Y-118609633D01*
X127610766Y-118517059D01*
X127492941Y-118399234D01*
X127400367Y-118260687D01*
X127336601Y-118106742D01*
X127304093Y-117943315D01*
X127304093Y-117776685D01*
X127336601Y-117613258D01*
X127400367Y-117459313D01*
X127492941Y-117320766D01*
X127610766Y-117202941D01*
X127749313Y-117110367D01*
X127903258Y-117046601D01*
X128066685Y-117014093D01*
X128233315Y-117014093D01*
X128396742Y-117046601D01*
G37*
G36*
X139101420Y-115945685D02*
G01*
X139111738Y-115948637D01*
X139120039Y-115949455D01*
X139210548Y-115976910D01*
X139295950Y-116001347D01*
X139302660Y-116004852D01*
X139307588Y-116006347D01*
X139396361Y-116053797D01*
X139475293Y-116095028D01*
X139478709Y-116097813D01*
X139480435Y-116098736D01*
X139572067Y-116173937D01*
X139632107Y-116222893D01*
X139681090Y-116282966D01*
X139756263Y-116374564D01*
X139757185Y-116376289D01*
X139759972Y-116379707D01*
X139801222Y-116458676D01*
X139848652Y-116547411D01*
X139850146Y-116552336D01*
X139853653Y-116559050D01*
X139878101Y-116644492D01*
X139905544Y-116734960D01*
X139906361Y-116743256D01*
X139909315Y-116753580D01*
X139925000Y-116930000D01*
X139909315Y-117106420D01*
X139906361Y-117116743D01*
X139905544Y-117125039D01*
X139878106Y-117215489D01*
X139853653Y-117300950D01*
X139850145Y-117307665D01*
X139848652Y-117312588D01*
X139801245Y-117401279D01*
X139759972Y-117480293D01*
X139757183Y-117483712D01*
X139756263Y-117485435D01*
X139681217Y-117576878D01*
X139632107Y-117637107D01*
X139571878Y-117686217D01*
X139480435Y-117761263D01*
X139478712Y-117762183D01*
X139475293Y-117764972D01*
X139396279Y-117806245D01*
X139307588Y-117853652D01*
X139302665Y-117855145D01*
X139295950Y-117858653D01*
X139210489Y-117883106D01*
X139120039Y-117910544D01*
X139111743Y-117911361D01*
X139101420Y-117914315D01*
X138925000Y-117930000D01*
X138175000Y-117930000D01*
X137998580Y-117914315D01*
X137988256Y-117911361D01*
X137979960Y-117910544D01*
X137889492Y-117883101D01*
X137804050Y-117858653D01*
X137797336Y-117855146D01*
X137792411Y-117853652D01*
X137703676Y-117806222D01*
X137624707Y-117764972D01*
X137621289Y-117762185D01*
X137619564Y-117761263D01*
X137527966Y-117686090D01*
X137467893Y-117637107D01*
X137418937Y-117577067D01*
X137343736Y-117485435D01*
X137342813Y-117483709D01*
X137340028Y-117480293D01*
X137298797Y-117401361D01*
X137251347Y-117312588D01*
X137249852Y-117307660D01*
X137246347Y-117300950D01*
X137221910Y-117215548D01*
X137194455Y-117125039D01*
X137193637Y-117116738D01*
X137190685Y-117106420D01*
X137175000Y-116930000D01*
X137190685Y-116753580D01*
X137193637Y-116743262D01*
X137194455Y-116734960D01*
X137221915Y-116644434D01*
X137246347Y-116559050D01*
X137249851Y-116552340D01*
X137251347Y-116547411D01*
X137298820Y-116458594D01*
X137340028Y-116379707D01*
X137342811Y-116376292D01*
X137343736Y-116374564D01*
X137419063Y-116282777D01*
X137467893Y-116222893D01*
X137527777Y-116174063D01*
X137619564Y-116098736D01*
X137621292Y-116097811D01*
X137624707Y-116095028D01*
X137703594Y-116053820D01*
X137792411Y-116006347D01*
X137797340Y-116004851D01*
X137804050Y-116001347D01*
X137889434Y-115976915D01*
X137979960Y-115949455D01*
X137988262Y-115948637D01*
X137998580Y-115945685D01*
X138175000Y-115930000D01*
X138925000Y-115930000D01*
X139101420Y-115945685D01*
G37*
G36*
X155266420Y-115945685D02*
G01*
X155276738Y-115948637D01*
X155285039Y-115949455D01*
X155375548Y-115976910D01*
X155460950Y-116001347D01*
X155467660Y-116004852D01*
X155472588Y-116006347D01*
X155561361Y-116053797D01*
X155640293Y-116095028D01*
X155643709Y-116097813D01*
X155645435Y-116098736D01*
X155737067Y-116173937D01*
X155797107Y-116222893D01*
X155846090Y-116282966D01*
X155921263Y-116374564D01*
X155922185Y-116376289D01*
X155924972Y-116379707D01*
X155966222Y-116458676D01*
X156013652Y-116547411D01*
X156015146Y-116552336D01*
X156018653Y-116559050D01*
X156043101Y-116644492D01*
X156070544Y-116734960D01*
X156071361Y-116743256D01*
X156074315Y-116753580D01*
X156090000Y-116930000D01*
X156074315Y-117106420D01*
X156071361Y-117116743D01*
X156070544Y-117125039D01*
X156043106Y-117215489D01*
X156018653Y-117300950D01*
X156015145Y-117307665D01*
X156013652Y-117312588D01*
X155966245Y-117401279D01*
X155924972Y-117480293D01*
X155922183Y-117483712D01*
X155921263Y-117485435D01*
X155846217Y-117576878D01*
X155797107Y-117637107D01*
X155736878Y-117686217D01*
X155645435Y-117761263D01*
X155643712Y-117762183D01*
X155640293Y-117764972D01*
X155561279Y-117806245D01*
X155472588Y-117853652D01*
X155467665Y-117855145D01*
X155460950Y-117858653D01*
X155375489Y-117883106D01*
X155285039Y-117910544D01*
X155276743Y-117911361D01*
X155266420Y-117914315D01*
X155090000Y-117930000D01*
X154340000Y-117930000D01*
X154163580Y-117914315D01*
X154153256Y-117911361D01*
X154144960Y-117910544D01*
X154054492Y-117883101D01*
X153969050Y-117858653D01*
X153962336Y-117855146D01*
X153957411Y-117853652D01*
X153868676Y-117806222D01*
X153789707Y-117764972D01*
X153786289Y-117762185D01*
X153784564Y-117761263D01*
X153692966Y-117686090D01*
X153632893Y-117637107D01*
X153583937Y-117577067D01*
X153508736Y-117485435D01*
X153507813Y-117483709D01*
X153505028Y-117480293D01*
X153463797Y-117401361D01*
X153416347Y-117312588D01*
X153414852Y-117307660D01*
X153411347Y-117300950D01*
X153386910Y-117215548D01*
X153359455Y-117125039D01*
X153358637Y-117116738D01*
X153355685Y-117106420D01*
X153340000Y-116930000D01*
X153355685Y-116753580D01*
X153358637Y-116743262D01*
X153359455Y-116734960D01*
X153386915Y-116644434D01*
X153411347Y-116559050D01*
X153414851Y-116552340D01*
X153416347Y-116547411D01*
X153463820Y-116458594D01*
X153505028Y-116379707D01*
X153507811Y-116376292D01*
X153508736Y-116374564D01*
X153584063Y-116282777D01*
X153632893Y-116222893D01*
X153692777Y-116174063D01*
X153784564Y-116098736D01*
X153786292Y-116097811D01*
X153789707Y-116095028D01*
X153868594Y-116053820D01*
X153957411Y-116006347D01*
X153962340Y-116004851D01*
X153969050Y-116001347D01*
X154054434Y-115976915D01*
X154144960Y-115949455D01*
X154153262Y-115948637D01*
X154163580Y-115945685D01*
X154340000Y-115930000D01*
X155090000Y-115930000D01*
X155266420Y-115945685D01*
G37*
G36*
X160592373Y-116071853D02*
G01*
X160645092Y-116107078D01*
X160680317Y-116159797D01*
X160692687Y-116221983D01*
X160692687Y-117456983D01*
X160680317Y-117519169D01*
X160645092Y-117571888D01*
X160592373Y-117607113D01*
X160530187Y-117619483D01*
X160205187Y-117619483D01*
X160143001Y-117607113D01*
X160090282Y-117571888D01*
X160055057Y-117519169D01*
X160042687Y-117456983D01*
X160042687Y-116221983D01*
X160055057Y-116159797D01*
X160090282Y-116107078D01*
X160143001Y-116071853D01*
X160205187Y-116059483D01*
X160530187Y-116059483D01*
X160592373Y-116071853D01*
G37*
G36*
X161542373Y-116071853D02*
G01*
X161595092Y-116107078D01*
X161630317Y-116159797D01*
X161642687Y-116221983D01*
X161642687Y-117456983D01*
X161630317Y-117519169D01*
X161595092Y-117571888D01*
X161542373Y-117607113D01*
X161480187Y-117619483D01*
X161155187Y-117619483D01*
X161093001Y-117607113D01*
X161040282Y-117571888D01*
X161005057Y-117519169D01*
X160992687Y-117456983D01*
X160992687Y-116221983D01*
X161005057Y-116159797D01*
X161040282Y-116107078D01*
X161093001Y-116071853D01*
X161155187Y-116059483D01*
X161480187Y-116059483D01*
X161542373Y-116071853D01*
G37*
G36*
X162492373Y-116071853D02*
G01*
X162545092Y-116107078D01*
X162580317Y-116159797D01*
X162592687Y-116221983D01*
X162592687Y-117456983D01*
X162580317Y-117519169D01*
X162545092Y-117571888D01*
X162492373Y-117607113D01*
X162430187Y-117619483D01*
X162105187Y-117619483D01*
X162043001Y-117607113D01*
X161990282Y-117571888D01*
X161955057Y-117519169D01*
X161942687Y-117456983D01*
X161942687Y-116221983D01*
X161955057Y-116159797D01*
X161990282Y-116107078D01*
X162043001Y-116071853D01*
X162105187Y-116059483D01*
X162430187Y-116059483D01*
X162492373Y-116071853D01*
G37*
G36*
X128396742Y-114506601D02*
G01*
X128550687Y-114570367D01*
X128689234Y-114662941D01*
X128807059Y-114780766D01*
X128899633Y-114919313D01*
X128963399Y-115073258D01*
X128995907Y-115236685D01*
X128995907Y-115403315D01*
X128963399Y-115566742D01*
X128899633Y-115720687D01*
X128807059Y-115859234D01*
X128689234Y-115977059D01*
X128550687Y-116069633D01*
X128396742Y-116133399D01*
X128233315Y-116165907D01*
X128066685Y-116165907D01*
X127903258Y-116133399D01*
X127749313Y-116069633D01*
X127610766Y-115977059D01*
X127492941Y-115859234D01*
X127400367Y-115720687D01*
X127336601Y-115566742D01*
X127304093Y-115403315D01*
X127304093Y-115236685D01*
X127336601Y-115073258D01*
X127400367Y-114919313D01*
X127492941Y-114780766D01*
X127610766Y-114662941D01*
X127749313Y-114570367D01*
X127903258Y-114506601D01*
X128066685Y-114474093D01*
X128233315Y-114474093D01*
X128396742Y-114506601D01*
G37*
G36*
X160170263Y-114842140D02*
G01*
X160215682Y-114872488D01*
X160246030Y-114917907D01*
X160256687Y-114971483D01*
X160256687Y-115311483D01*
X160246030Y-115365059D01*
X160215682Y-115410478D01*
X160170263Y-115440826D01*
X160116687Y-115451483D01*
X159836687Y-115451483D01*
X159783111Y-115440826D01*
X159737692Y-115410478D01*
X159707344Y-115365059D01*
X159696687Y-115311483D01*
X159696687Y-114971483D01*
X159707344Y-114917907D01*
X159737692Y-114872488D01*
X159783111Y-114842140D01*
X159836687Y-114831483D01*
X160116687Y-114831483D01*
X160170263Y-114842140D01*
G37*
G36*
X161130263Y-114842140D02*
G01*
X161175682Y-114872488D01*
X161206030Y-114917907D01*
X161216687Y-114971483D01*
X161216687Y-115311483D01*
X161206030Y-115365059D01*
X161175682Y-115410478D01*
X161130263Y-115440826D01*
X161076687Y-115451483D01*
X160796687Y-115451483D01*
X160743111Y-115440826D01*
X160697692Y-115410478D01*
X160667344Y-115365059D01*
X160656687Y-115311483D01*
X160656687Y-114971483D01*
X160667344Y-114917907D01*
X160697692Y-114872488D01*
X160743111Y-114842140D01*
X160796687Y-114831483D01*
X161076687Y-114831483D01*
X161130263Y-114842140D01*
G37*
G36*
X157755711Y-114795156D02*
G01*
X157799508Y-114824421D01*
X157828773Y-114868218D01*
X157839049Y-114919880D01*
X157839049Y-115289880D01*
X157828773Y-115341542D01*
X157799508Y-115385339D01*
X157755711Y-115414604D01*
X157704049Y-115424880D01*
X157434049Y-115424880D01*
X157382387Y-115414604D01*
X157338590Y-115385339D01*
X157309325Y-115341542D01*
X157299049Y-115289880D01*
X157299049Y-114919880D01*
X157309325Y-114868218D01*
X157338590Y-114824421D01*
X157382387Y-114795156D01*
X157434049Y-114784880D01*
X157704049Y-114784880D01*
X157755711Y-114795156D01*
G37*
G36*
X158775711Y-114795156D02*
G01*
X158819508Y-114824421D01*
X158848773Y-114868218D01*
X158859049Y-114919880D01*
X158859049Y-115289880D01*
X158848773Y-115341542D01*
X158819508Y-115385339D01*
X158775711Y-115414604D01*
X158724049Y-115424880D01*
X158454049Y-115424880D01*
X158402387Y-115414604D01*
X158358590Y-115385339D01*
X158329325Y-115341542D01*
X158319049Y-115289880D01*
X158319049Y-114919880D01*
X158329325Y-114868218D01*
X158358590Y-114824421D01*
X158402387Y-114795156D01*
X158454049Y-114784880D01*
X158724049Y-114784880D01*
X158775711Y-114795156D01*
G37*
G36*
X139101420Y-113405685D02*
G01*
X139111738Y-113408637D01*
X139120039Y-113409455D01*
X139210548Y-113436910D01*
X139295950Y-113461347D01*
X139302660Y-113464852D01*
X139307588Y-113466347D01*
X139396361Y-113513797D01*
X139475293Y-113555028D01*
X139478709Y-113557813D01*
X139480435Y-113558736D01*
X139572067Y-113633937D01*
X139632107Y-113682893D01*
X139681090Y-113742966D01*
X139756263Y-113834564D01*
X139757185Y-113836289D01*
X139759972Y-113839707D01*
X139801222Y-113918676D01*
X139848652Y-114007411D01*
X139850146Y-114012336D01*
X139853653Y-114019050D01*
X139878101Y-114104492D01*
X139905544Y-114194960D01*
X139906361Y-114203256D01*
X139909315Y-114213580D01*
X139925000Y-114390000D01*
X139909315Y-114566420D01*
X139906361Y-114576743D01*
X139905544Y-114585039D01*
X139878106Y-114675489D01*
X139853653Y-114760950D01*
X139850145Y-114767665D01*
X139848652Y-114772588D01*
X139801245Y-114861279D01*
X139759972Y-114940293D01*
X139757183Y-114943712D01*
X139756263Y-114945435D01*
X139681217Y-115036878D01*
X139632107Y-115097107D01*
X139571878Y-115146217D01*
X139480435Y-115221263D01*
X139478712Y-115222183D01*
X139475293Y-115224972D01*
X139396279Y-115266245D01*
X139307588Y-115313652D01*
X139302665Y-115315145D01*
X139295950Y-115318653D01*
X139210489Y-115343106D01*
X139120039Y-115370544D01*
X139111743Y-115371361D01*
X139101420Y-115374315D01*
X138925000Y-115390000D01*
X138175000Y-115390000D01*
X137998580Y-115374315D01*
X137988256Y-115371361D01*
X137979960Y-115370544D01*
X137889492Y-115343101D01*
X137804050Y-115318653D01*
X137797336Y-115315146D01*
X137792411Y-115313652D01*
X137703676Y-115266222D01*
X137624707Y-115224972D01*
X137621289Y-115222185D01*
X137619564Y-115221263D01*
X137527966Y-115146090D01*
X137467893Y-115097107D01*
X137418937Y-115037067D01*
X137343736Y-114945435D01*
X137342813Y-114943709D01*
X137340028Y-114940293D01*
X137298797Y-114861361D01*
X137251347Y-114772588D01*
X137249852Y-114767660D01*
X137246347Y-114760950D01*
X137221910Y-114675548D01*
X137194455Y-114585039D01*
X137193637Y-114576738D01*
X137190685Y-114566420D01*
X137175000Y-114390000D01*
X137190685Y-114213580D01*
X137193637Y-114203262D01*
X137194455Y-114194960D01*
X137221915Y-114104434D01*
X137246347Y-114019050D01*
X137249851Y-114012340D01*
X137251347Y-114007411D01*
X137298820Y-113918594D01*
X137340028Y-113839707D01*
X137342811Y-113836292D01*
X137343736Y-113834564D01*
X137419063Y-113742777D01*
X137467893Y-113682893D01*
X137527777Y-113634063D01*
X137619564Y-113558736D01*
X137621292Y-113557811D01*
X137624707Y-113555028D01*
X137703594Y-113513820D01*
X137792411Y-113466347D01*
X137797340Y-113464851D01*
X137804050Y-113461347D01*
X137889434Y-113436915D01*
X137979960Y-113409455D01*
X137988262Y-113408637D01*
X137998580Y-113405685D01*
X138175000Y-113390000D01*
X138925000Y-113390000D01*
X139101420Y-113405685D01*
G37*
G36*
X155266420Y-113405685D02*
G01*
X155276738Y-113408637D01*
X155285039Y-113409455D01*
X155375548Y-113436910D01*
X155460950Y-113461347D01*
X155467660Y-113464852D01*
X155472588Y-113466347D01*
X155561361Y-113513797D01*
X155640293Y-113555028D01*
X155643709Y-113557813D01*
X155645435Y-113558736D01*
X155737067Y-113633937D01*
X155797107Y-113682893D01*
X155846090Y-113742966D01*
X155921263Y-113834564D01*
X155922185Y-113836289D01*
X155924972Y-113839707D01*
X155966222Y-113918676D01*
X156013652Y-114007411D01*
X156015146Y-114012336D01*
X156018653Y-114019050D01*
X156043101Y-114104492D01*
X156070544Y-114194960D01*
X156071361Y-114203256D01*
X156074315Y-114213580D01*
X156090000Y-114390000D01*
X156074315Y-114566420D01*
X156071361Y-114576743D01*
X156070544Y-114585039D01*
X156043106Y-114675489D01*
X156018653Y-114760950D01*
X156015145Y-114767665D01*
X156013652Y-114772588D01*
X155966245Y-114861279D01*
X155924972Y-114940293D01*
X155922183Y-114943712D01*
X155921263Y-114945435D01*
X155846217Y-115036878D01*
X155797107Y-115097107D01*
X155736878Y-115146217D01*
X155645435Y-115221263D01*
X155643712Y-115222183D01*
X155640293Y-115224972D01*
X155561279Y-115266245D01*
X155472588Y-115313652D01*
X155467665Y-115315145D01*
X155460950Y-115318653D01*
X155375489Y-115343106D01*
X155285039Y-115370544D01*
X155276743Y-115371361D01*
X155266420Y-115374315D01*
X155090000Y-115390000D01*
X154340000Y-115390000D01*
X154163580Y-115374315D01*
X154153256Y-115371361D01*
X154144960Y-115370544D01*
X154054492Y-115343101D01*
X153969050Y-115318653D01*
X153962336Y-115315146D01*
X153957411Y-115313652D01*
X153868676Y-115266222D01*
X153789707Y-115224972D01*
X153786289Y-115222185D01*
X153784564Y-115221263D01*
X153692966Y-115146090D01*
X153632893Y-115097107D01*
X153583937Y-115037067D01*
X153508736Y-114945435D01*
X153507813Y-114943709D01*
X153505028Y-114940293D01*
X153463797Y-114861361D01*
X153416347Y-114772588D01*
X153414852Y-114767660D01*
X153411347Y-114760950D01*
X153386910Y-114675548D01*
X153359455Y-114585039D01*
X153358637Y-114576738D01*
X153355685Y-114566420D01*
X153340000Y-114390000D01*
X153355685Y-114213580D01*
X153358637Y-114203262D01*
X153359455Y-114194960D01*
X153386915Y-114104434D01*
X153411347Y-114019050D01*
X153414851Y-114012340D01*
X153416347Y-114007411D01*
X153463820Y-113918594D01*
X153505028Y-113839707D01*
X153507811Y-113836292D01*
X153508736Y-113834564D01*
X153584063Y-113742777D01*
X153632893Y-113682893D01*
X153692777Y-113634063D01*
X153784564Y-113558736D01*
X153786292Y-113557811D01*
X153789707Y-113555028D01*
X153868594Y-113513820D01*
X153957411Y-113466347D01*
X153962340Y-113464851D01*
X153969050Y-113461347D01*
X154054434Y-113436915D01*
X154144960Y-113409455D01*
X154153262Y-113408637D01*
X154163580Y-113405685D01*
X154340000Y-113390000D01*
X155090000Y-113390000D01*
X155266420Y-113405685D01*
G37*
G36*
X164838000Y-115129483D02*
G01*
X163838000Y-115129483D01*
X163540105Y-115129483D01*
X163538000Y-115129483D01*
X162538000Y-115129483D01*
X162538000Y-113629483D01*
X163538000Y-113629483D01*
X164832996Y-113629483D01*
X164838000Y-113629483D01*
X164838000Y-115129483D01*
G37*
G36*
X158814373Y-112722853D02*
G01*
X158867092Y-112758078D01*
X158902317Y-112810797D01*
X158914687Y-112872983D01*
X158914687Y-114107983D01*
X158902317Y-114170169D01*
X158867092Y-114222888D01*
X158814373Y-114258113D01*
X158752187Y-114270483D01*
X158427187Y-114270483D01*
X158365001Y-114258113D01*
X158312282Y-114222888D01*
X158277057Y-114170169D01*
X158264687Y-114107983D01*
X158264687Y-112872983D01*
X158277057Y-112810797D01*
X158312282Y-112758078D01*
X158365001Y-112722853D01*
X158427187Y-112710483D01*
X158752187Y-112710483D01*
X158814373Y-112722853D01*
G37*
G36*
X159764373Y-112722853D02*
G01*
X159817092Y-112758078D01*
X159852317Y-112810797D01*
X159864687Y-112872983D01*
X159864687Y-114107983D01*
X159852317Y-114170169D01*
X159817092Y-114222888D01*
X159764373Y-114258113D01*
X159702187Y-114270483D01*
X159377187Y-114270483D01*
X159315001Y-114258113D01*
X159262282Y-114222888D01*
X159227057Y-114170169D01*
X159214687Y-114107983D01*
X159214687Y-112872983D01*
X159227057Y-112810797D01*
X159262282Y-112758078D01*
X159315001Y-112722853D01*
X159377187Y-112710483D01*
X159702187Y-112710483D01*
X159764373Y-112722853D01*
G37*
G36*
X160714373Y-112722853D02*
G01*
X160767092Y-112758078D01*
X160802317Y-112810797D01*
X160814687Y-112872983D01*
X160814687Y-114107983D01*
X160802317Y-114170169D01*
X160767092Y-114222888D01*
X160714373Y-114258113D01*
X160652187Y-114270483D01*
X160327187Y-114270483D01*
X160265001Y-114258113D01*
X160212282Y-114222888D01*
X160177057Y-114170169D01*
X160164687Y-114107983D01*
X160164687Y-112872983D01*
X160177057Y-112810797D01*
X160212282Y-112758078D01*
X160265001Y-112722853D01*
X160327187Y-112710483D01*
X160652187Y-112710483D01*
X160714373Y-112722853D01*
G37*
G36*
X128396742Y-111966601D02*
G01*
X128550687Y-112030367D01*
X128689234Y-112122941D01*
X128807059Y-112240766D01*
X128899633Y-112379313D01*
X128963399Y-112533258D01*
X128995907Y-112696685D01*
X128995907Y-112863315D01*
X128963399Y-113026742D01*
X128899633Y-113180687D01*
X128807059Y-113319234D01*
X128689234Y-113437059D01*
X128550687Y-113529633D01*
X128396742Y-113593399D01*
X128233315Y-113625907D01*
X128066685Y-113625907D01*
X127903258Y-113593399D01*
X127749313Y-113529633D01*
X127610766Y-113437059D01*
X127492941Y-113319234D01*
X127400367Y-113180687D01*
X127336601Y-113026742D01*
X127304093Y-112863315D01*
X127304093Y-112696685D01*
X127336601Y-112533258D01*
X127400367Y-112379313D01*
X127492941Y-112240766D01*
X127610766Y-112122941D01*
X127749313Y-112030367D01*
X127903258Y-111966601D01*
X128066685Y-111934093D01*
X128233315Y-111934093D01*
X128396742Y-111966601D01*
G37*
G36*
X139101420Y-110865685D02*
G01*
X139111738Y-110868637D01*
X139120039Y-110869455D01*
X139210548Y-110896910D01*
X139295950Y-110921347D01*
X139302660Y-110924852D01*
X139307588Y-110926347D01*
X139396361Y-110973797D01*
X139475293Y-111015028D01*
X139478709Y-111017813D01*
X139480435Y-111018736D01*
X139572067Y-111093937D01*
X139632107Y-111142893D01*
X139681090Y-111202966D01*
X139756263Y-111294564D01*
X139757185Y-111296289D01*
X139759972Y-111299707D01*
X139801222Y-111378676D01*
X139848652Y-111467411D01*
X139850146Y-111472336D01*
X139853653Y-111479050D01*
X139878101Y-111564492D01*
X139905544Y-111654960D01*
X139906361Y-111663256D01*
X139909315Y-111673580D01*
X139925000Y-111850000D01*
X139909315Y-112026420D01*
X139906361Y-112036743D01*
X139905544Y-112045039D01*
X139878106Y-112135489D01*
X139853653Y-112220950D01*
X139850145Y-112227665D01*
X139848652Y-112232588D01*
X139801245Y-112321279D01*
X139759972Y-112400293D01*
X139757183Y-112403712D01*
X139756263Y-112405435D01*
X139681217Y-112496878D01*
X139632107Y-112557107D01*
X139571878Y-112606217D01*
X139480435Y-112681263D01*
X139478712Y-112682183D01*
X139475293Y-112684972D01*
X139396279Y-112726245D01*
X139307588Y-112773652D01*
X139302665Y-112775145D01*
X139295950Y-112778653D01*
X139210489Y-112803106D01*
X139120039Y-112830544D01*
X139111743Y-112831361D01*
X139101420Y-112834315D01*
X138925000Y-112850000D01*
X138175000Y-112850000D01*
X137998580Y-112834315D01*
X137988256Y-112831361D01*
X137979960Y-112830544D01*
X137889492Y-112803101D01*
X137804050Y-112778653D01*
X137797336Y-112775146D01*
X137792411Y-112773652D01*
X137703676Y-112726222D01*
X137624707Y-112684972D01*
X137621289Y-112682185D01*
X137619564Y-112681263D01*
X137527966Y-112606090D01*
X137467893Y-112557107D01*
X137418937Y-112497067D01*
X137343736Y-112405435D01*
X137342813Y-112403709D01*
X137340028Y-112400293D01*
X137298797Y-112321361D01*
X137251347Y-112232588D01*
X137249852Y-112227660D01*
X137246347Y-112220950D01*
X137221910Y-112135548D01*
X137194455Y-112045039D01*
X137193637Y-112036738D01*
X137190685Y-112026420D01*
X137175000Y-111850000D01*
X137190685Y-111673580D01*
X137193637Y-111663262D01*
X137194455Y-111654960D01*
X137221915Y-111564434D01*
X137246347Y-111479050D01*
X137249851Y-111472340D01*
X137251347Y-111467411D01*
X137298820Y-111378594D01*
X137340028Y-111299707D01*
X137342811Y-111296292D01*
X137343736Y-111294564D01*
X137419063Y-111202777D01*
X137467893Y-111142893D01*
X137527777Y-111094063D01*
X137619564Y-111018736D01*
X137621292Y-111017811D01*
X137624707Y-111015028D01*
X137703594Y-110973820D01*
X137792411Y-110926347D01*
X137797340Y-110924851D01*
X137804050Y-110921347D01*
X137889434Y-110896915D01*
X137979960Y-110869455D01*
X137988262Y-110868637D01*
X137998580Y-110865685D01*
X138175000Y-110850000D01*
X138925000Y-110850000D01*
X139101420Y-110865685D01*
G37*
G36*
X155266420Y-110865685D02*
G01*
X155276738Y-110868637D01*
X155285039Y-110869455D01*
X155375548Y-110896910D01*
X155460950Y-110921347D01*
X155467660Y-110924852D01*
X155472588Y-110926347D01*
X155561361Y-110973797D01*
X155640293Y-111015028D01*
X155643709Y-111017813D01*
X155645435Y-111018736D01*
X155737067Y-111093937D01*
X155797107Y-111142893D01*
X155846090Y-111202966D01*
X155921263Y-111294564D01*
X155922185Y-111296289D01*
X155924972Y-111299707D01*
X155966222Y-111378676D01*
X156013652Y-111467411D01*
X156015146Y-111472336D01*
X156018653Y-111479050D01*
X156043101Y-111564492D01*
X156070544Y-111654960D01*
X156071361Y-111663256D01*
X156074315Y-111673580D01*
X156090000Y-111850000D01*
X156074315Y-112026420D01*
X156071361Y-112036743D01*
X156070544Y-112045039D01*
X156043106Y-112135489D01*
X156018653Y-112220950D01*
X156015145Y-112227665D01*
X156013652Y-112232588D01*
X155966245Y-112321279D01*
X155924972Y-112400293D01*
X155922183Y-112403712D01*
X155921263Y-112405435D01*
X155846217Y-112496878D01*
X155797107Y-112557107D01*
X155736878Y-112606217D01*
X155645435Y-112681263D01*
X155643712Y-112682183D01*
X155640293Y-112684972D01*
X155561279Y-112726245D01*
X155472588Y-112773652D01*
X155467665Y-112775145D01*
X155460950Y-112778653D01*
X155375489Y-112803106D01*
X155285039Y-112830544D01*
X155276743Y-112831361D01*
X155266420Y-112834315D01*
X155090000Y-112850000D01*
X154340000Y-112850000D01*
X154163580Y-112834315D01*
X154153256Y-112831361D01*
X154144960Y-112830544D01*
X154054492Y-112803101D01*
X153969050Y-112778653D01*
X153962336Y-112775146D01*
X153957411Y-112773652D01*
X153868676Y-112726222D01*
X153789707Y-112684972D01*
X153786289Y-112682185D01*
X153784564Y-112681263D01*
X153692966Y-112606090D01*
X153632893Y-112557107D01*
X153583937Y-112497067D01*
X153508736Y-112405435D01*
X153507813Y-112403709D01*
X153505028Y-112400293D01*
X153463797Y-112321361D01*
X153416347Y-112232588D01*
X153414852Y-112227660D01*
X153411347Y-112220950D01*
X153386910Y-112135548D01*
X153359455Y-112045039D01*
X153358637Y-112036738D01*
X153355685Y-112026420D01*
X153340000Y-111850000D01*
X153355685Y-111673580D01*
X153358637Y-111663262D01*
X153359455Y-111654960D01*
X153386915Y-111564434D01*
X153411347Y-111479050D01*
X153414851Y-111472340D01*
X153416347Y-111467411D01*
X153463820Y-111378594D01*
X153505028Y-111299707D01*
X153507811Y-111296292D01*
X153508736Y-111294564D01*
X153584063Y-111202777D01*
X153632893Y-111142893D01*
X153692777Y-111094063D01*
X153784564Y-111018736D01*
X153786292Y-111017811D01*
X153789707Y-111015028D01*
X153868594Y-110973820D01*
X153957411Y-110926347D01*
X153962340Y-110924851D01*
X153969050Y-110921347D01*
X154054434Y-110896915D01*
X154144960Y-110869455D01*
X154153262Y-110868637D01*
X154163580Y-110865685D01*
X154340000Y-110850000D01*
X155090000Y-110850000D01*
X155266420Y-110865685D01*
G37*
G36*
X134550662Y-111211276D02*
G01*
X134594459Y-111240541D01*
X134623724Y-111284338D01*
X134634000Y-111336000D01*
X134634000Y-111706000D01*
X134623724Y-111757662D01*
X134594459Y-111801459D01*
X134550662Y-111830724D01*
X134499000Y-111841000D01*
X134229000Y-111841000D01*
X134177338Y-111830724D01*
X134133541Y-111801459D01*
X134104276Y-111757662D01*
X134094000Y-111706000D01*
X134094000Y-111336000D01*
X134104276Y-111284338D01*
X134133541Y-111240541D01*
X134177338Y-111211276D01*
X134229000Y-111201000D01*
X134499000Y-111201000D01*
X134550662Y-111211276D01*
G37*
G36*
X135570662Y-111211276D02*
G01*
X135614459Y-111240541D01*
X135643724Y-111284338D01*
X135654000Y-111336000D01*
X135654000Y-111706000D01*
X135643724Y-111757662D01*
X135614459Y-111801459D01*
X135570662Y-111830724D01*
X135519000Y-111841000D01*
X135249000Y-111841000D01*
X135197338Y-111830724D01*
X135153541Y-111801459D01*
X135124276Y-111757662D01*
X135114000Y-111706000D01*
X135114000Y-111336000D01*
X135124276Y-111284338D01*
X135153541Y-111240541D01*
X135197338Y-111211276D01*
X135249000Y-111201000D01*
X135519000Y-111201000D01*
X135570662Y-111211276D01*
G37*
G36*
X158814373Y-110022853D02*
G01*
X158867092Y-110058078D01*
X158902317Y-110110797D01*
X158914687Y-110172983D01*
X158914687Y-111407983D01*
X158902317Y-111470169D01*
X158867092Y-111522888D01*
X158814373Y-111558113D01*
X158752187Y-111570483D01*
X158427187Y-111570483D01*
X158365001Y-111558113D01*
X158312282Y-111522888D01*
X158277057Y-111470169D01*
X158264687Y-111407983D01*
X158264687Y-110172983D01*
X158277057Y-110110797D01*
X158312282Y-110058078D01*
X158365001Y-110022853D01*
X158427187Y-110010483D01*
X158752187Y-110010483D01*
X158814373Y-110022853D01*
G37*
G36*
X159764373Y-110022853D02*
G01*
X159817092Y-110058078D01*
X159852317Y-110110797D01*
X159864687Y-110172983D01*
X159864687Y-111407983D01*
X159852317Y-111470169D01*
X159817092Y-111522888D01*
X159764373Y-111558113D01*
X159702187Y-111570483D01*
X159377187Y-111570483D01*
X159315001Y-111558113D01*
X159262282Y-111522888D01*
X159227057Y-111470169D01*
X159214687Y-111407983D01*
X159214687Y-110172983D01*
X159227057Y-110110797D01*
X159262282Y-110058078D01*
X159315001Y-110022853D01*
X159377187Y-110010483D01*
X159702187Y-110010483D01*
X159764373Y-110022853D01*
G37*
G36*
X160714373Y-110022853D02*
G01*
X160767092Y-110058078D01*
X160802317Y-110110797D01*
X160814687Y-110172983D01*
X160814687Y-111407983D01*
X160802317Y-111470169D01*
X160767092Y-111522888D01*
X160714373Y-111558113D01*
X160652187Y-111570483D01*
X160327187Y-111570483D01*
X160265001Y-111558113D01*
X160212282Y-111522888D01*
X160177057Y-111470169D01*
X160164687Y-111407983D01*
X160164687Y-110172983D01*
X160177057Y-110110797D01*
X160212282Y-110058078D01*
X160265001Y-110022853D01*
X160327187Y-110010483D01*
X160652187Y-110010483D01*
X160714373Y-110022853D01*
G37*
G36*
X128396742Y-109426601D02*
G01*
X128550687Y-109490367D01*
X128689234Y-109582941D01*
X128807059Y-109700766D01*
X128899633Y-109839313D01*
X128963399Y-109993258D01*
X128995907Y-110156685D01*
X128995907Y-110323315D01*
X128963399Y-110486742D01*
X128899633Y-110640687D01*
X128807059Y-110779234D01*
X128689234Y-110897059D01*
X128550687Y-110989633D01*
X128396742Y-111053399D01*
X128233315Y-111085907D01*
X128066685Y-111085907D01*
X127903258Y-111053399D01*
X127749313Y-110989633D01*
X127610766Y-110897059D01*
X127492941Y-110779234D01*
X127400367Y-110640687D01*
X127336601Y-110486742D01*
X127304093Y-110323315D01*
X127304093Y-110156685D01*
X127336601Y-109993258D01*
X127400367Y-109839313D01*
X127492941Y-109700766D01*
X127610766Y-109582941D01*
X127749313Y-109490367D01*
X127903258Y-109426601D01*
X128066685Y-109394093D01*
X128233315Y-109394093D01*
X128396742Y-109426601D01*
G37*
G36*
X134550662Y-110180276D02*
G01*
X134594459Y-110209541D01*
X134623724Y-110253338D01*
X134634000Y-110305000D01*
X134634000Y-110675000D01*
X134623724Y-110726662D01*
X134594459Y-110770459D01*
X134550662Y-110799724D01*
X134499000Y-110810000D01*
X134229000Y-110810000D01*
X134177338Y-110799724D01*
X134133541Y-110770459D01*
X134104276Y-110726662D01*
X134094000Y-110675000D01*
X134094000Y-110305000D01*
X134104276Y-110253338D01*
X134133541Y-110209541D01*
X134177338Y-110180276D01*
X134229000Y-110170000D01*
X134499000Y-110170000D01*
X134550662Y-110180276D01*
G37*
G36*
X135570662Y-110180276D02*
G01*
X135614459Y-110209541D01*
X135643724Y-110253338D01*
X135654000Y-110305000D01*
X135654000Y-110675000D01*
X135643724Y-110726662D01*
X135614459Y-110770459D01*
X135570662Y-110799724D01*
X135519000Y-110810000D01*
X135249000Y-110810000D01*
X135197338Y-110799724D01*
X135153541Y-110770459D01*
X135124276Y-110726662D01*
X135114000Y-110675000D01*
X135114000Y-110305000D01*
X135124276Y-110253338D01*
X135153541Y-110209541D01*
X135197338Y-110180276D01*
X135249000Y-110170000D01*
X135519000Y-110170000D01*
X135570662Y-110180276D01*
G37*
G36*
X157701263Y-108873140D02*
G01*
X157746682Y-108903488D01*
X157777030Y-108948907D01*
X157787687Y-109002483D01*
X157787687Y-109342483D01*
X157777030Y-109396059D01*
X157746682Y-109441478D01*
X157701263Y-109471826D01*
X157647687Y-109482483D01*
X157367687Y-109482483D01*
X157314111Y-109471826D01*
X157268692Y-109441478D01*
X157238344Y-109396059D01*
X157227687Y-109342483D01*
X157227687Y-109002483D01*
X157238344Y-108948907D01*
X157268692Y-108903488D01*
X157314111Y-108873140D01*
X157367687Y-108862483D01*
X157647687Y-108862483D01*
X157701263Y-108873140D01*
G37*
G36*
X158661263Y-108873140D02*
G01*
X158706682Y-108903488D01*
X158737030Y-108948907D01*
X158747687Y-109002483D01*
X158747687Y-109342483D01*
X158737030Y-109396059D01*
X158706682Y-109441478D01*
X158661263Y-109471826D01*
X158607687Y-109482483D01*
X158327687Y-109482483D01*
X158274111Y-109471826D01*
X158228692Y-109441478D01*
X158198344Y-109396059D01*
X158187687Y-109342483D01*
X158187687Y-109002483D01*
X158198344Y-108948907D01*
X158228692Y-108903488D01*
X158274111Y-108873140D01*
X158327687Y-108862483D01*
X158607687Y-108862483D01*
X158661263Y-108873140D01*
G37*
G36*
X135624000Y-107612000D02*
G01*
X135624000Y-108053999D01*
X135624000Y-108054000D01*
X135624000Y-108354000D01*
X135624000Y-109354000D01*
X134124000Y-109354000D01*
X134124000Y-108354000D01*
X134124000Y-108054000D01*
X134124000Y-107054000D01*
X135624000Y-107054000D01*
X135624000Y-107612000D01*
G37*
G36*
X128396742Y-106886601D02*
G01*
X128550687Y-106950367D01*
X128689234Y-107042941D01*
X128807059Y-107160766D01*
X128899633Y-107299313D01*
X128963399Y-107453258D01*
X128995907Y-107616685D01*
X128995907Y-107783315D01*
X128963399Y-107946742D01*
X128899633Y-108100687D01*
X128807059Y-108239234D01*
X128689234Y-108357059D01*
X128550687Y-108449633D01*
X128396742Y-108513399D01*
X128233315Y-108545907D01*
X128066685Y-108545907D01*
X127903258Y-108513399D01*
X127749313Y-108449633D01*
X127610766Y-108357059D01*
X127492941Y-108239234D01*
X127400367Y-108100687D01*
X127336601Y-107946742D01*
X127304093Y-107783315D01*
X127304093Y-107616685D01*
X127336601Y-107453258D01*
X127400367Y-107299313D01*
X127492941Y-107160766D01*
X127610766Y-107042941D01*
X127749313Y-106950367D01*
X127903258Y-106886601D01*
X128066685Y-106854093D01*
X128233315Y-106854093D01*
X128396742Y-106886601D01*
G37*
G36*
X147110737Y-107895590D02*
G01*
X147156156Y-107925938D01*
X147186504Y-107971357D01*
X147197161Y-108024933D01*
X147197161Y-108304933D01*
X147186504Y-108358509D01*
X147156156Y-108403928D01*
X147110737Y-108434276D01*
X147057161Y-108444933D01*
X146717161Y-108444933D01*
X146663585Y-108434276D01*
X146618166Y-108403928D01*
X146587818Y-108358509D01*
X146577161Y-108304933D01*
X146577161Y-108024933D01*
X146587818Y-107971357D01*
X146618166Y-107925938D01*
X146663585Y-107895590D01*
X146717161Y-107884933D01*
X147057161Y-107884933D01*
X147110737Y-107895590D01*
G37*
G36*
X139082342Y-107935738D02*
G01*
X139106674Y-107951996D01*
X139122932Y-107976328D01*
X139128641Y-108005029D01*
X139128641Y-108155029D01*
X139122932Y-108183730D01*
X139106674Y-108208062D01*
X139082342Y-108224320D01*
X139053641Y-108230029D01*
X137753641Y-108230029D01*
X137724940Y-108224320D01*
X137700608Y-108208062D01*
X137684350Y-108183730D01*
X137678641Y-108155029D01*
X137678641Y-108005029D01*
X137684350Y-107976328D01*
X137700608Y-107951996D01*
X137724940Y-107935738D01*
X137753641Y-107930029D01*
X139053641Y-107930029D01*
X139082342Y-107935738D01*
G37*
G36*
X143482342Y-107935738D02*
G01*
X143506674Y-107951996D01*
X143522932Y-107976328D01*
X143528641Y-108005029D01*
X143528641Y-108155029D01*
X143522932Y-108183730D01*
X143506674Y-108208062D01*
X143482342Y-108224320D01*
X143453641Y-108230029D01*
X142153641Y-108230029D01*
X142124940Y-108224320D01*
X142100608Y-108208062D01*
X142084350Y-108183730D01*
X142078641Y-108155029D01*
X142078641Y-108005029D01*
X142084350Y-107976328D01*
X142100608Y-107951996D01*
X142124940Y-107935738D01*
X142153641Y-107930029D01*
X143453641Y-107930029D01*
X143482342Y-107935738D01*
G37*
G36*
X149128768Y-107619612D02*
G01*
X149161211Y-107641289D01*
X149182888Y-107673732D01*
X149190500Y-107712000D01*
X149190500Y-107912000D01*
X149182888Y-107950268D01*
X149161211Y-107982711D01*
X149128768Y-108004388D01*
X149090500Y-108012000D01*
X147815500Y-108012000D01*
X147777232Y-108004388D01*
X147744789Y-107982711D01*
X147723112Y-107950268D01*
X147715500Y-107912000D01*
X147715500Y-107712000D01*
X147723112Y-107673732D01*
X147744789Y-107641289D01*
X147777232Y-107619612D01*
X147815500Y-107612000D01*
X149090500Y-107612000D01*
X149128768Y-107619612D01*
G37*
G36*
X154853768Y-107619612D02*
G01*
X154886211Y-107641289D01*
X154907888Y-107673732D01*
X154915500Y-107712000D01*
X154915500Y-107912000D01*
X154907888Y-107950268D01*
X154886211Y-107982711D01*
X154853768Y-108004388D01*
X154815500Y-108012000D01*
X153540500Y-108012000D01*
X153502232Y-108004388D01*
X153469789Y-107982711D01*
X153448112Y-107950268D01*
X153440500Y-107912000D01*
X153440500Y-107712000D01*
X153448112Y-107673732D01*
X153469789Y-107641289D01*
X153502232Y-107619612D01*
X153540500Y-107612000D01*
X154815500Y-107612000D01*
X154853768Y-107619612D01*
G37*
G36*
X139082342Y-107435738D02*
G01*
X139106674Y-107451996D01*
X139122932Y-107476328D01*
X139128641Y-107505029D01*
X139128641Y-107655029D01*
X139122932Y-107683730D01*
X139106674Y-107708062D01*
X139082342Y-107724320D01*
X139053641Y-107730029D01*
X137753641Y-107730029D01*
X137724940Y-107724320D01*
X137700608Y-107708062D01*
X137684350Y-107683730D01*
X137678641Y-107655029D01*
X137678641Y-107505029D01*
X137684350Y-107476328D01*
X137700608Y-107451996D01*
X137724940Y-107435738D01*
X137753641Y-107430029D01*
X139053641Y-107430029D01*
X139082342Y-107435738D01*
G37*
G36*
X143482342Y-107435738D02*
G01*
X143506674Y-107451996D01*
X143522932Y-107476328D01*
X143528641Y-107505029D01*
X143528641Y-107655029D01*
X143522932Y-107683730D01*
X143506674Y-107708062D01*
X143482342Y-107724320D01*
X143453641Y-107730029D01*
X142153641Y-107730029D01*
X142124940Y-107724320D01*
X142100608Y-107708062D01*
X142084350Y-107683730D01*
X142078641Y-107655029D01*
X142078641Y-107505029D01*
X142084350Y-107476328D01*
X142100608Y-107451996D01*
X142124940Y-107435738D01*
X142153641Y-107430029D01*
X143453641Y-107430029D01*
X143482342Y-107435738D01*
G37*
G36*
X160890941Y-107678000D02*
G01*
X159890941Y-107678000D01*
X159593046Y-107678000D01*
X159590941Y-107678000D01*
X158590941Y-107678000D01*
X158590941Y-106178000D01*
X159590941Y-106178000D01*
X160885937Y-106178000D01*
X160890941Y-106178000D01*
X160890941Y-107678000D01*
G37*
G36*
X147110737Y-106935590D02*
G01*
X147156156Y-106965938D01*
X147186504Y-107011357D01*
X147197161Y-107064933D01*
X147197161Y-107344933D01*
X147186504Y-107398509D01*
X147156156Y-107443928D01*
X147110737Y-107474276D01*
X147057161Y-107484933D01*
X146717161Y-107484933D01*
X146663585Y-107474276D01*
X146618166Y-107443928D01*
X146587818Y-107398509D01*
X146577161Y-107344933D01*
X146577161Y-107064933D01*
X146587818Y-107011357D01*
X146618166Y-106965938D01*
X146663585Y-106935590D01*
X146717161Y-106924933D01*
X147057161Y-106924933D01*
X147110737Y-106935590D01*
G37*
G36*
X149128768Y-106969612D02*
G01*
X149161211Y-106991289D01*
X149182888Y-107023732D01*
X149190500Y-107062000D01*
X149190500Y-107262000D01*
X149182888Y-107300268D01*
X149161211Y-107332711D01*
X149128768Y-107354388D01*
X149090500Y-107362000D01*
X147815500Y-107362000D01*
X147777232Y-107354388D01*
X147744789Y-107332711D01*
X147723112Y-107300268D01*
X147715500Y-107262000D01*
X147715500Y-107062000D01*
X147723112Y-107023732D01*
X147744789Y-106991289D01*
X147777232Y-106969612D01*
X147815500Y-106962000D01*
X149090500Y-106962000D01*
X149128768Y-106969612D01*
G37*
G36*
X154853768Y-106969612D02*
G01*
X154886211Y-106991289D01*
X154907888Y-107023732D01*
X154915500Y-107062000D01*
X154915500Y-107262000D01*
X154907888Y-107300268D01*
X154886211Y-107332711D01*
X154853768Y-107354388D01*
X154815500Y-107362000D01*
X153540500Y-107362000D01*
X153502232Y-107354388D01*
X153469789Y-107332711D01*
X153448112Y-107300268D01*
X153440500Y-107262000D01*
X153440500Y-107062000D01*
X153448112Y-107023732D01*
X153469789Y-106991289D01*
X153502232Y-106969612D01*
X153540500Y-106962000D01*
X154815500Y-106962000D01*
X154853768Y-106969612D01*
G37*
G36*
X139082342Y-106935738D02*
G01*
X139106674Y-106951996D01*
X139122932Y-106976328D01*
X139128641Y-107005029D01*
X139128641Y-107155029D01*
X139122932Y-107183730D01*
X139106674Y-107208062D01*
X139082342Y-107224320D01*
X139053641Y-107230029D01*
X137753641Y-107230029D01*
X137724940Y-107224320D01*
X137700608Y-107208062D01*
X137684350Y-107183730D01*
X137678641Y-107155029D01*
X137678641Y-107005029D01*
X137684350Y-106976328D01*
X137700608Y-106951996D01*
X137724940Y-106935738D01*
X137753641Y-106930029D01*
X139053641Y-106930029D01*
X139082342Y-106935738D01*
G37*
G36*
X143482342Y-106935738D02*
G01*
X143506674Y-106951996D01*
X143522932Y-106976328D01*
X143528641Y-107005029D01*
X143528641Y-107155029D01*
X143522932Y-107183730D01*
X143506674Y-107208062D01*
X143482342Y-107224320D01*
X143453641Y-107230029D01*
X142153641Y-107230029D01*
X142124940Y-107224320D01*
X142100608Y-107208062D01*
X142084350Y-107183730D01*
X142078641Y-107155029D01*
X142078641Y-107005029D01*
X142084350Y-106976328D01*
X142100608Y-106951996D01*
X142124940Y-106935738D01*
X142153641Y-106930029D01*
X143453641Y-106930029D01*
X143482342Y-106935738D01*
G37*
G36*
X139082342Y-106435738D02*
G01*
X139106674Y-106451996D01*
X139122932Y-106476328D01*
X139128641Y-106505029D01*
X139128641Y-106655029D01*
X139122932Y-106683730D01*
X139106674Y-106708062D01*
X139082342Y-106724320D01*
X139053641Y-106730029D01*
X137753641Y-106730029D01*
X137724940Y-106724320D01*
X137700608Y-106708062D01*
X137684350Y-106683730D01*
X137678641Y-106655029D01*
X137678641Y-106505029D01*
X137684350Y-106476328D01*
X137700608Y-106451996D01*
X137724940Y-106435738D01*
X137753641Y-106430029D01*
X139053641Y-106430029D01*
X139082342Y-106435738D01*
G37*
G36*
X143482342Y-106435738D02*
G01*
X143506674Y-106451996D01*
X143522932Y-106476328D01*
X143528641Y-106505029D01*
X143528641Y-106655029D01*
X143522932Y-106683730D01*
X143506674Y-106708062D01*
X143482342Y-106724320D01*
X143453641Y-106730029D01*
X142153641Y-106730029D01*
X142124940Y-106724320D01*
X142100608Y-106708062D01*
X142084350Y-106683730D01*
X142078641Y-106655029D01*
X142078641Y-106505029D01*
X142084350Y-106476328D01*
X142100608Y-106451996D01*
X142124940Y-106435738D01*
X142153641Y-106430029D01*
X143453641Y-106430029D01*
X143482342Y-106435738D01*
G37*
G36*
X149128768Y-106319612D02*
G01*
X149161211Y-106341289D01*
X149182888Y-106373732D01*
X149190500Y-106412000D01*
X149190500Y-106612000D01*
X149182888Y-106650268D01*
X149161211Y-106682711D01*
X149128768Y-106704388D01*
X149090500Y-106712000D01*
X147815500Y-106712000D01*
X147777232Y-106704388D01*
X147744789Y-106682711D01*
X147723112Y-106650268D01*
X147715500Y-106612000D01*
X147715500Y-106412000D01*
X147723112Y-106373732D01*
X147744789Y-106341289D01*
X147777232Y-106319612D01*
X147815500Y-106312000D01*
X149090500Y-106312000D01*
X149128768Y-106319612D01*
G37*
G36*
X154853768Y-106319612D02*
G01*
X154886211Y-106341289D01*
X154907888Y-106373732D01*
X154915500Y-106412000D01*
X154915500Y-106612000D01*
X154907888Y-106650268D01*
X154886211Y-106682711D01*
X154853768Y-106704388D01*
X154815500Y-106712000D01*
X153540500Y-106712000D01*
X153502232Y-106704388D01*
X153469789Y-106682711D01*
X153448112Y-106650268D01*
X153440500Y-106612000D01*
X153440500Y-106412000D01*
X153448112Y-106373732D01*
X153469789Y-106341289D01*
X153502232Y-106319612D01*
X153540500Y-106312000D01*
X154815500Y-106312000D01*
X154853768Y-106319612D01*
G37*
G36*
X139082342Y-105935738D02*
G01*
X139106674Y-105951996D01*
X139122932Y-105976328D01*
X139128641Y-106005029D01*
X139128641Y-106155029D01*
X139122932Y-106183730D01*
X139106674Y-106208062D01*
X139082342Y-106224320D01*
X139053641Y-106230029D01*
X137753641Y-106230029D01*
X137724940Y-106224320D01*
X137700608Y-106208062D01*
X137684350Y-106183730D01*
X137678641Y-106155029D01*
X137678641Y-106005029D01*
X137684350Y-105976328D01*
X137700608Y-105951996D01*
X137724940Y-105935738D01*
X137753641Y-105930029D01*
X139053641Y-105930029D01*
X139082342Y-105935738D01*
G37*
G36*
X143482342Y-105935738D02*
G01*
X143506674Y-105951996D01*
X143522932Y-105976328D01*
X143528641Y-106005029D01*
X143528641Y-106155029D01*
X143522932Y-106183730D01*
X143506674Y-106208062D01*
X143482342Y-106224320D01*
X143453641Y-106230029D01*
X142153641Y-106230029D01*
X142124940Y-106224320D01*
X142100608Y-106208062D01*
X142084350Y-106183730D01*
X142078641Y-106155029D01*
X142078641Y-106005029D01*
X142084350Y-105976328D01*
X142100608Y-105951996D01*
X142124940Y-105935738D01*
X142153641Y-105930029D01*
X143453641Y-105930029D01*
X143482342Y-105935738D01*
G37*
G36*
X149128768Y-105669612D02*
G01*
X149161211Y-105691289D01*
X149182888Y-105723732D01*
X149190500Y-105762000D01*
X149190500Y-105962000D01*
X149182888Y-106000268D01*
X149161211Y-106032711D01*
X149128768Y-106054388D01*
X149090500Y-106062000D01*
X147815500Y-106062000D01*
X147777232Y-106054388D01*
X147744789Y-106032711D01*
X147723112Y-106000268D01*
X147715500Y-105962000D01*
X147715500Y-105762000D01*
X147723112Y-105723732D01*
X147744789Y-105691289D01*
X147777232Y-105669612D01*
X147815500Y-105662000D01*
X149090500Y-105662000D01*
X149128768Y-105669612D01*
G37*
G36*
X154853768Y-105669612D02*
G01*
X154886211Y-105691289D01*
X154907888Y-105723732D01*
X154915500Y-105762000D01*
X154915500Y-105962000D01*
X154907888Y-106000268D01*
X154886211Y-106032711D01*
X154853768Y-106054388D01*
X154815500Y-106062000D01*
X153540500Y-106062000D01*
X153502232Y-106054388D01*
X153469789Y-106032711D01*
X153448112Y-106000268D01*
X153440500Y-105962000D01*
X153440500Y-105762000D01*
X153448112Y-105723732D01*
X153469789Y-105691289D01*
X153502232Y-105669612D01*
X153540500Y-105662000D01*
X154815500Y-105662000D01*
X154853768Y-105669612D01*
G37*
G36*
X144490893Y-105396622D02*
G01*
X144534690Y-105425887D01*
X144563955Y-105469684D01*
X144574231Y-105521346D01*
X144574231Y-105891346D01*
X144563955Y-105943008D01*
X144534690Y-105986805D01*
X144490893Y-106016070D01*
X144439231Y-106026346D01*
X144169231Y-106026346D01*
X144117569Y-106016070D01*
X144073772Y-105986805D01*
X144044507Y-105943008D01*
X144034231Y-105891346D01*
X144034231Y-105521346D01*
X144044507Y-105469684D01*
X144073772Y-105425887D01*
X144117569Y-105396622D01*
X144169231Y-105386346D01*
X144439231Y-105386346D01*
X144490893Y-105396622D01*
G37*
G36*
X145510893Y-105396622D02*
G01*
X145554690Y-105425887D01*
X145583955Y-105469684D01*
X145594231Y-105521346D01*
X145594231Y-105891346D01*
X145583955Y-105943008D01*
X145554690Y-105986805D01*
X145510893Y-106016070D01*
X145459231Y-106026346D01*
X145189231Y-106026346D01*
X145137569Y-106016070D01*
X145093772Y-105986805D01*
X145064507Y-105943008D01*
X145054231Y-105891346D01*
X145054231Y-105521346D01*
X145064507Y-105469684D01*
X145093772Y-105425887D01*
X145137569Y-105396622D01*
X145189231Y-105386346D01*
X145459231Y-105386346D01*
X145510893Y-105396622D01*
G37*
G36*
X128396742Y-104346601D02*
G01*
X128550687Y-104410367D01*
X128689234Y-104502941D01*
X128807059Y-104620766D01*
X128899633Y-104759313D01*
X128963399Y-104913258D01*
X128995907Y-105076685D01*
X128995907Y-105243315D01*
X128963399Y-105406742D01*
X128899633Y-105560687D01*
X128807059Y-105699234D01*
X128689234Y-105817059D01*
X128550687Y-105909633D01*
X128396742Y-105973399D01*
X128233315Y-106005907D01*
X128066685Y-106005907D01*
X127903258Y-105973399D01*
X127749313Y-105909633D01*
X127610766Y-105817059D01*
X127492941Y-105699234D01*
X127400367Y-105560687D01*
X127336601Y-105406742D01*
X127304093Y-105243315D01*
X127304093Y-105076685D01*
X127336601Y-104913258D01*
X127400367Y-104759313D01*
X127492941Y-104620766D01*
X127610766Y-104502941D01*
X127749313Y-104410367D01*
X127903258Y-104346601D01*
X128066685Y-104314093D01*
X128233315Y-104314093D01*
X128396742Y-104346601D01*
G37*
G36*
X149128768Y-105019612D02*
G01*
X149161211Y-105041289D01*
X149182888Y-105073732D01*
X149190500Y-105112000D01*
X149190500Y-105312000D01*
X149182888Y-105350268D01*
X149161211Y-105382711D01*
X149128768Y-105404388D01*
X149090500Y-105412000D01*
X147815500Y-105412000D01*
X147777232Y-105404388D01*
X147744789Y-105382711D01*
X147723112Y-105350268D01*
X147715500Y-105312000D01*
X147715500Y-105112000D01*
X147723112Y-105073732D01*
X147744789Y-105041289D01*
X147777232Y-105019612D01*
X147815500Y-105012000D01*
X149090500Y-105012000D01*
X149128768Y-105019612D01*
G37*
G36*
X154853768Y-105019612D02*
G01*
X154886211Y-105041289D01*
X154907888Y-105073732D01*
X154915500Y-105112000D01*
X154915500Y-105312000D01*
X154907888Y-105350268D01*
X154886211Y-105382711D01*
X154853768Y-105404388D01*
X154815500Y-105412000D01*
X153540500Y-105412000D01*
X153502232Y-105404388D01*
X153469789Y-105382711D01*
X153448112Y-105350268D01*
X153440500Y-105312000D01*
X153440500Y-105112000D01*
X153448112Y-105073732D01*
X153469789Y-105041289D01*
X153502232Y-105019612D01*
X153540500Y-105012000D01*
X154815500Y-105012000D01*
X154853768Y-105019612D01*
G37*
G36*
X138070525Y-104834566D02*
G01*
X138115944Y-104864914D01*
X138146292Y-104910333D01*
X138156949Y-104963909D01*
X138156949Y-105243909D01*
X138146292Y-105297485D01*
X138115944Y-105342904D01*
X138070525Y-105373252D01*
X138016949Y-105383909D01*
X137676949Y-105383909D01*
X137623373Y-105373252D01*
X137577954Y-105342904D01*
X137547606Y-105297485D01*
X137536949Y-105243909D01*
X137536949Y-104963909D01*
X137547606Y-104910333D01*
X137577954Y-104864914D01*
X137623373Y-104834566D01*
X137676949Y-104823909D01*
X138016949Y-104823909D01*
X138070525Y-104834566D01*
G37*
G36*
X162850686Y-103464334D02*
G01*
X162903405Y-103499559D01*
X162938630Y-103552278D01*
X162951000Y-103614464D01*
X162951000Y-104849464D01*
X162938630Y-104911650D01*
X162903405Y-104964369D01*
X162850686Y-104999594D01*
X162788500Y-105011964D01*
X162463500Y-105011964D01*
X162401314Y-104999594D01*
X162348595Y-104964369D01*
X162313370Y-104911650D01*
X162301000Y-104849464D01*
X162301000Y-103614464D01*
X162313370Y-103552278D01*
X162348595Y-103499559D01*
X162401314Y-103464334D01*
X162463500Y-103451964D01*
X162788500Y-103451964D01*
X162850686Y-103464334D01*
G37*
G36*
X164750686Y-103464334D02*
G01*
X164803405Y-103499559D01*
X164838630Y-103552278D01*
X164851000Y-103614464D01*
X164851000Y-104849464D01*
X164838630Y-104911650D01*
X164803405Y-104964369D01*
X164750686Y-104999594D01*
X164688500Y-105011964D01*
X164363500Y-105011964D01*
X164301314Y-104999594D01*
X164248595Y-104964369D01*
X164213370Y-104911650D01*
X164201000Y-104849464D01*
X164201000Y-103614464D01*
X164213370Y-103552278D01*
X164248595Y-103499559D01*
X164301314Y-103464334D01*
X164363500Y-103451964D01*
X164688500Y-103451964D01*
X164750686Y-103464334D01*
G37*
G36*
X160890941Y-105011000D02*
G01*
X159890941Y-105011000D01*
X159593046Y-105011000D01*
X159590941Y-105011000D01*
X158590941Y-105011000D01*
X158590941Y-103511000D01*
X159590941Y-103511000D01*
X160885937Y-103511000D01*
X160890941Y-103511000D01*
X160890941Y-105011000D01*
G37*
G36*
X140379104Y-103936127D02*
G01*
X140452099Y-103984901D01*
X140500873Y-104057896D01*
X140518000Y-104144000D01*
X140518000Y-104644000D01*
X140500873Y-104730104D01*
X140452099Y-104803099D01*
X140379104Y-104851873D01*
X140293000Y-104869000D01*
X139843000Y-104869000D01*
X139756896Y-104851873D01*
X139683901Y-104803099D01*
X139635127Y-104730104D01*
X139618000Y-104644000D01*
X139618000Y-104144000D01*
X139635127Y-104057896D01*
X139683901Y-103984901D01*
X139756896Y-103936127D01*
X139843000Y-103919000D01*
X140293000Y-103919000D01*
X140379104Y-103936127D01*
G37*
G36*
X141929104Y-103936127D02*
G01*
X142002099Y-103984901D01*
X142050873Y-104057896D01*
X142068000Y-104144000D01*
X142068000Y-104644000D01*
X142050873Y-104730104D01*
X142002099Y-104803099D01*
X141929104Y-104851873D01*
X141843000Y-104869000D01*
X141393000Y-104869000D01*
X141306896Y-104851873D01*
X141233901Y-104803099D01*
X141185127Y-104730104D01*
X141168000Y-104644000D01*
X141168000Y-104144000D01*
X141185127Y-104057896D01*
X141233901Y-103984901D01*
X141306896Y-103936127D01*
X141393000Y-103919000D01*
X141843000Y-103919000D01*
X141929104Y-103936127D01*
G37*
G36*
X143425745Y-103926927D02*
G01*
X143498740Y-103975701D01*
X143547514Y-104048696D01*
X143564641Y-104134800D01*
X143564641Y-104634800D01*
X143547514Y-104720904D01*
X143498740Y-104793899D01*
X143425745Y-104842673D01*
X143339641Y-104859800D01*
X142889641Y-104859800D01*
X142803537Y-104842673D01*
X142730542Y-104793899D01*
X142681768Y-104720904D01*
X142664641Y-104634800D01*
X142664641Y-104134800D01*
X142681768Y-104048696D01*
X142730542Y-103975701D01*
X142803537Y-103926927D01*
X142889641Y-103909800D01*
X143339641Y-103909800D01*
X143425745Y-103926927D01*
G37*
G36*
X144975745Y-103926927D02*
G01*
X145048740Y-103975701D01*
X145097514Y-104048696D01*
X145114641Y-104134800D01*
X145114641Y-104634800D01*
X145097514Y-104720904D01*
X145048740Y-104793899D01*
X144975745Y-104842673D01*
X144889641Y-104859800D01*
X144439641Y-104859800D01*
X144353537Y-104842673D01*
X144280542Y-104793899D01*
X144231768Y-104720904D01*
X144214641Y-104634800D01*
X144214641Y-104134800D01*
X144231768Y-104048696D01*
X144280542Y-103975701D01*
X144353537Y-103926927D01*
X144439641Y-103909800D01*
X144889641Y-103909800D01*
X144975745Y-103926927D01*
G37*
G36*
X149128768Y-104369612D02*
G01*
X149161211Y-104391289D01*
X149182888Y-104423732D01*
X149190500Y-104462000D01*
X149190500Y-104662000D01*
X149182888Y-104700268D01*
X149161211Y-104732711D01*
X149128768Y-104754388D01*
X149090500Y-104762000D01*
X147815500Y-104762000D01*
X147777232Y-104754388D01*
X147744789Y-104732711D01*
X147723112Y-104700268D01*
X147715500Y-104662000D01*
X147715500Y-104462000D01*
X147723112Y-104423732D01*
X147744789Y-104391289D01*
X147777232Y-104369612D01*
X147815500Y-104362000D01*
X149090500Y-104362000D01*
X149128768Y-104369612D01*
G37*
G36*
X154853768Y-104369612D02*
G01*
X154886211Y-104391289D01*
X154907888Y-104423732D01*
X154915500Y-104462000D01*
X154915500Y-104662000D01*
X154907888Y-104700268D01*
X154886211Y-104732711D01*
X154853768Y-104754388D01*
X154815500Y-104762000D01*
X153540500Y-104762000D01*
X153502232Y-104754388D01*
X153469789Y-104732711D01*
X153448112Y-104700268D01*
X153440500Y-104662000D01*
X153440500Y-104462000D01*
X153448112Y-104423732D01*
X153469789Y-104391289D01*
X153502232Y-104369612D01*
X153540500Y-104362000D01*
X154815500Y-104362000D01*
X154853768Y-104369612D01*
G37*
G36*
X155984076Y-103952657D02*
G01*
X156029495Y-103983005D01*
X156059843Y-104028424D01*
X156070500Y-104082000D01*
X156070500Y-104362000D01*
X156059843Y-104415576D01*
X156029495Y-104460995D01*
X155984076Y-104491343D01*
X155930500Y-104502000D01*
X155590500Y-104502000D01*
X155536924Y-104491343D01*
X155491505Y-104460995D01*
X155461157Y-104415576D01*
X155450500Y-104362000D01*
X155450500Y-104082000D01*
X155461157Y-104028424D01*
X155491505Y-103983005D01*
X155536924Y-103952657D01*
X155590500Y-103942000D01*
X155930500Y-103942000D01*
X155984076Y-103952657D01*
G37*
G36*
X138070525Y-103874566D02*
G01*
X138115944Y-103904914D01*
X138146292Y-103950333D01*
X138156949Y-104003909D01*
X138156949Y-104283909D01*
X138146292Y-104337485D01*
X138115944Y-104382904D01*
X138070525Y-104413252D01*
X138016949Y-104423909D01*
X137676949Y-104423909D01*
X137623373Y-104413252D01*
X137577954Y-104382904D01*
X137547606Y-104337485D01*
X137536949Y-104283909D01*
X137536949Y-104003909D01*
X137547606Y-103950333D01*
X137577954Y-103904914D01*
X137623373Y-103874566D01*
X137676949Y-103863909D01*
X138016949Y-103863909D01*
X138070525Y-103874566D01*
G37*
G36*
X149128768Y-103719612D02*
G01*
X149161211Y-103741289D01*
X149182888Y-103773732D01*
X149190500Y-103812000D01*
X149190500Y-104012000D01*
X149182888Y-104050268D01*
X149161211Y-104082711D01*
X149128768Y-104104388D01*
X149090500Y-104112000D01*
X147815500Y-104112000D01*
X147777232Y-104104388D01*
X147744789Y-104082711D01*
X147723112Y-104050268D01*
X147715500Y-104012000D01*
X147715500Y-103812000D01*
X147723112Y-103773732D01*
X147744789Y-103741289D01*
X147777232Y-103719612D01*
X147815500Y-103712000D01*
X149090500Y-103712000D01*
X149128768Y-103719612D01*
G37*
G36*
X154853768Y-103719612D02*
G01*
X154886211Y-103741289D01*
X154907888Y-103773732D01*
X154915500Y-103812000D01*
X154915500Y-104012000D01*
X154907888Y-104050268D01*
X154886211Y-104082711D01*
X154853768Y-104104388D01*
X154815500Y-104112000D01*
X153540500Y-104112000D01*
X153502232Y-104104388D01*
X153469789Y-104082711D01*
X153448112Y-104050268D01*
X153440500Y-104012000D01*
X153440500Y-103812000D01*
X153448112Y-103773732D01*
X153469789Y-103741289D01*
X153502232Y-103719612D01*
X153540500Y-103712000D01*
X154815500Y-103712000D01*
X154853768Y-103719612D01*
G37*
G36*
X155984076Y-102992657D02*
G01*
X156029495Y-103023005D01*
X156059843Y-103068424D01*
X156070500Y-103122000D01*
X156070500Y-103402000D01*
X156059843Y-103455576D01*
X156029495Y-103500995D01*
X155984076Y-103531343D01*
X155930500Y-103542000D01*
X155590500Y-103542000D01*
X155536924Y-103531343D01*
X155491505Y-103500995D01*
X155461157Y-103455576D01*
X155450500Y-103402000D01*
X155450500Y-103122000D01*
X155461157Y-103068424D01*
X155491505Y-103023005D01*
X155536924Y-102992657D01*
X155590500Y-102982000D01*
X155930500Y-102982000D01*
X155984076Y-102992657D01*
G37*
G36*
X128396742Y-101806601D02*
G01*
X128550687Y-101870367D01*
X128689234Y-101962941D01*
X128807059Y-102080766D01*
X128899633Y-102219313D01*
X128963399Y-102373258D01*
X128995907Y-102536685D01*
X128995907Y-102703315D01*
X128963399Y-102866742D01*
X128899633Y-103020687D01*
X128807059Y-103159234D01*
X128689234Y-103277059D01*
X128550687Y-103369633D01*
X128396742Y-103433399D01*
X128233315Y-103465907D01*
X128066685Y-103465907D01*
X127903258Y-103433399D01*
X127749313Y-103369633D01*
X127610766Y-103277059D01*
X127492941Y-103159234D01*
X127400367Y-103020687D01*
X127336601Y-102866742D01*
X127304093Y-102703315D01*
X127304093Y-102536685D01*
X127336601Y-102373258D01*
X127400367Y-102219313D01*
X127492941Y-102080766D01*
X127610766Y-101962941D01*
X127749313Y-101870367D01*
X127903258Y-101806601D01*
X128066685Y-101774093D01*
X128233315Y-101774093D01*
X128396742Y-101806601D01*
G37*
G36*
X149128768Y-103069612D02*
G01*
X149161211Y-103091289D01*
X149182888Y-103123732D01*
X149190500Y-103162000D01*
X149190500Y-103362000D01*
X149182888Y-103400268D01*
X149161211Y-103432711D01*
X149128768Y-103454388D01*
X149090500Y-103462000D01*
X147815500Y-103462000D01*
X147777232Y-103454388D01*
X147744789Y-103432711D01*
X147723112Y-103400268D01*
X147715500Y-103362000D01*
X147715500Y-103162000D01*
X147723112Y-103123732D01*
X147744789Y-103091289D01*
X147777232Y-103069612D01*
X147815500Y-103062000D01*
X149090500Y-103062000D01*
X149128768Y-103069612D01*
G37*
G36*
X154853768Y-103069612D02*
G01*
X154886211Y-103091289D01*
X154907888Y-103123732D01*
X154915500Y-103162000D01*
X154915500Y-103362000D01*
X154907888Y-103400268D01*
X154886211Y-103432711D01*
X154853768Y-103454388D01*
X154815500Y-103462000D01*
X153540500Y-103462000D01*
X153502232Y-103454388D01*
X153469789Y-103432711D01*
X153448112Y-103400268D01*
X153440500Y-103362000D01*
X153440500Y-103162000D01*
X153448112Y-103123732D01*
X153469789Y-103091289D01*
X153502232Y-103069612D01*
X153540500Y-103062000D01*
X154815500Y-103062000D01*
X154853768Y-103069612D01*
G37*
G36*
X142094303Y-102859076D02*
G01*
X142138100Y-102888341D01*
X142167365Y-102932138D01*
X142177641Y-102983800D01*
X142177641Y-103253800D01*
X142167365Y-103305462D01*
X142138100Y-103349259D01*
X142094303Y-103378524D01*
X142042641Y-103388800D01*
X141672641Y-103388800D01*
X141620979Y-103378524D01*
X141577182Y-103349259D01*
X141547917Y-103305462D01*
X141537641Y-103253800D01*
X141537641Y-102983800D01*
X141547917Y-102932138D01*
X141577182Y-102888341D01*
X141620979Y-102859076D01*
X141672641Y-102848800D01*
X142042641Y-102848800D01*
X142094303Y-102859076D01*
G37*
G36*
X143110303Y-102859076D02*
G01*
X143154100Y-102888341D01*
X143183365Y-102932138D01*
X143193641Y-102983800D01*
X143193641Y-103253800D01*
X143183365Y-103305462D01*
X143154100Y-103349259D01*
X143110303Y-103378524D01*
X143058641Y-103388800D01*
X142688641Y-103388800D01*
X142636979Y-103378524D01*
X142593182Y-103349259D01*
X142563917Y-103305462D01*
X142553641Y-103253800D01*
X142553641Y-102983800D01*
X142563917Y-102932138D01*
X142593182Y-102888341D01*
X142636979Y-102859076D01*
X142688641Y-102848800D01*
X143058641Y-102848800D01*
X143110303Y-102859076D01*
G37*
G36*
X136315104Y-102363469D02*
G01*
X136388099Y-102412243D01*
X136436873Y-102485238D01*
X136454000Y-102571342D01*
X136454000Y-103071342D01*
X136436873Y-103157446D01*
X136388099Y-103230441D01*
X136315104Y-103279215D01*
X136229000Y-103296342D01*
X135779000Y-103296342D01*
X135692896Y-103279215D01*
X135619901Y-103230441D01*
X135571127Y-103157446D01*
X135554000Y-103071342D01*
X135554000Y-102571342D01*
X135571127Y-102485238D01*
X135619901Y-102412243D01*
X135692896Y-102363469D01*
X135779000Y-102346342D01*
X136229000Y-102346342D01*
X136315104Y-102363469D01*
G37*
G36*
X137865104Y-102363469D02*
G01*
X137938099Y-102412243D01*
X137986873Y-102485238D01*
X138004000Y-102571342D01*
X138004000Y-103071342D01*
X137986873Y-103157446D01*
X137938099Y-103230441D01*
X137865104Y-103279215D01*
X137779000Y-103296342D01*
X137329000Y-103296342D01*
X137242896Y-103279215D01*
X137169901Y-103230441D01*
X137121127Y-103157446D01*
X137104000Y-103071342D01*
X137104000Y-102571342D01*
X137121127Y-102485238D01*
X137169901Y-102412243D01*
X137242896Y-102363469D01*
X137329000Y-102346342D01*
X137779000Y-102346342D01*
X137865104Y-102363469D01*
G37*
G36*
X139376104Y-102363469D02*
G01*
X139449099Y-102412243D01*
X139497873Y-102485238D01*
X139515000Y-102571342D01*
X139515000Y-103071342D01*
X139497873Y-103157446D01*
X139449099Y-103230441D01*
X139376104Y-103279215D01*
X139290000Y-103296342D01*
X138840000Y-103296342D01*
X138753896Y-103279215D01*
X138680901Y-103230441D01*
X138632127Y-103157446D01*
X138615000Y-103071342D01*
X138615000Y-102571342D01*
X138632127Y-102485238D01*
X138680901Y-102412243D01*
X138753896Y-102363469D01*
X138840000Y-102346342D01*
X139290000Y-102346342D01*
X139376104Y-102363469D01*
G37*
G36*
X140926104Y-102363469D02*
G01*
X140999099Y-102412243D01*
X141047873Y-102485238D01*
X141065000Y-102571342D01*
X141065000Y-103071342D01*
X141047873Y-103157446D01*
X140999099Y-103230441D01*
X140926104Y-103279215D01*
X140840000Y-103296342D01*
X140390000Y-103296342D01*
X140303896Y-103279215D01*
X140230901Y-103230441D01*
X140182127Y-103157446D01*
X140165000Y-103071342D01*
X140165000Y-102571342D01*
X140182127Y-102485238D01*
X140230901Y-102412243D01*
X140303896Y-102363469D01*
X140390000Y-102346342D01*
X140840000Y-102346342D01*
X140926104Y-102363469D01*
G37*
G36*
X147162576Y-102163657D02*
G01*
X147207995Y-102194005D01*
X147238343Y-102239424D01*
X147249000Y-102293000D01*
X147249000Y-102573000D01*
X147238343Y-102626576D01*
X147207995Y-102671995D01*
X147162576Y-102702343D01*
X147109000Y-102713000D01*
X146769000Y-102713000D01*
X146715424Y-102702343D01*
X146670005Y-102671995D01*
X146639657Y-102626576D01*
X146629000Y-102573000D01*
X146629000Y-102293000D01*
X146639657Y-102239424D01*
X146670005Y-102194005D01*
X146715424Y-102163657D01*
X146769000Y-102153000D01*
X147109000Y-102153000D01*
X147162576Y-102163657D01*
G37*
G36*
X142094303Y-101839076D02*
G01*
X142138100Y-101868341D01*
X142167365Y-101912138D01*
X142177641Y-101963800D01*
X142177641Y-102233800D01*
X142167365Y-102285462D01*
X142138100Y-102329259D01*
X142094303Y-102358524D01*
X142042641Y-102368800D01*
X141672641Y-102368800D01*
X141620979Y-102358524D01*
X141577182Y-102329259D01*
X141547917Y-102285462D01*
X141537641Y-102233800D01*
X141537641Y-101963800D01*
X141547917Y-101912138D01*
X141577182Y-101868341D01*
X141620979Y-101839076D01*
X141672641Y-101828800D01*
X142042641Y-101828800D01*
X142094303Y-101839076D01*
G37*
G36*
X143110303Y-101839076D02*
G01*
X143154100Y-101868341D01*
X143183365Y-101912138D01*
X143193641Y-101963800D01*
X143193641Y-102233800D01*
X143183365Y-102285462D01*
X143154100Y-102329259D01*
X143110303Y-102358524D01*
X143058641Y-102368800D01*
X142688641Y-102368800D01*
X142636979Y-102358524D01*
X142593182Y-102329259D01*
X142563917Y-102285462D01*
X142553641Y-102233800D01*
X142553641Y-101963800D01*
X142563917Y-101912138D01*
X142593182Y-101868341D01*
X142636979Y-101839076D01*
X142688641Y-101828800D01*
X143058641Y-101828800D01*
X143110303Y-101839076D01*
G37*
G36*
X160890941Y-102350000D02*
G01*
X159890941Y-102350000D01*
X159593046Y-102350000D01*
X159590941Y-102350000D01*
X158590941Y-102350000D01*
X158590941Y-100850000D01*
X159590941Y-100850000D01*
X160885937Y-100850000D01*
X160890941Y-100850000D01*
X160890941Y-102350000D01*
G37*
G36*
X162850686Y-100764334D02*
G01*
X162903405Y-100799559D01*
X162938630Y-100852278D01*
X162951000Y-100914464D01*
X162951000Y-102149464D01*
X162938630Y-102211650D01*
X162903405Y-102264369D01*
X162850686Y-102299594D01*
X162788500Y-102311964D01*
X162463500Y-102311964D01*
X162401314Y-102299594D01*
X162348595Y-102264369D01*
X162313370Y-102211650D01*
X162301000Y-102149464D01*
X162301000Y-100914464D01*
X162313370Y-100852278D01*
X162348595Y-100799559D01*
X162401314Y-100764334D01*
X162463500Y-100751964D01*
X162788500Y-100751964D01*
X162850686Y-100764334D01*
G37*
G36*
X163800686Y-100764334D02*
G01*
X163853405Y-100799559D01*
X163888630Y-100852278D01*
X163901000Y-100914464D01*
X163901000Y-102149464D01*
X163888630Y-102211650D01*
X163853405Y-102264369D01*
X163800686Y-102299594D01*
X163738500Y-102311964D01*
X163413500Y-102311964D01*
X163351314Y-102299594D01*
X163298595Y-102264369D01*
X163263370Y-102211650D01*
X163251000Y-102149464D01*
X163251000Y-100914464D01*
X163263370Y-100852278D01*
X163298595Y-100799559D01*
X163351314Y-100764334D01*
X163413500Y-100751964D01*
X163738500Y-100751964D01*
X163800686Y-100764334D01*
G37*
G36*
X164750686Y-100764334D02*
G01*
X164803405Y-100799559D01*
X164838630Y-100852278D01*
X164851000Y-100914464D01*
X164851000Y-102149464D01*
X164838630Y-102211650D01*
X164803405Y-102264369D01*
X164750686Y-102299594D01*
X164688500Y-102311964D01*
X164363500Y-102311964D01*
X164301314Y-102299594D01*
X164248595Y-102264369D01*
X164213370Y-102211650D01*
X164201000Y-102149464D01*
X164201000Y-100914464D01*
X164213370Y-100852278D01*
X164248595Y-100799559D01*
X164301314Y-100764334D01*
X164363500Y-100751964D01*
X164688500Y-100751964D01*
X164750686Y-100764334D01*
G37*
G36*
X149218212Y-101904612D02*
G01*
X149250655Y-101926289D01*
X149272332Y-101958732D01*
X149279944Y-101997000D01*
X149279944Y-102197000D01*
X149272332Y-102235268D01*
X149250655Y-102267711D01*
X149218212Y-102289388D01*
X149179944Y-102297000D01*
X147904944Y-102297000D01*
X147866676Y-102289388D01*
X147834233Y-102267711D01*
X147812556Y-102235268D01*
X147804944Y-102197000D01*
X147804944Y-101997000D01*
X147812556Y-101958732D01*
X147834233Y-101926289D01*
X147866676Y-101904612D01*
X147904944Y-101897000D01*
X149179944Y-101897000D01*
X149218212Y-101904612D01*
G37*
G36*
X154943212Y-101904612D02*
G01*
X154975655Y-101926289D01*
X154997332Y-101958732D01*
X155004944Y-101997000D01*
X155004944Y-102197000D01*
X154997332Y-102235268D01*
X154975655Y-102267711D01*
X154943212Y-102289388D01*
X154904944Y-102297000D01*
X153629944Y-102297000D01*
X153591676Y-102289388D01*
X153559233Y-102267711D01*
X153537556Y-102235268D01*
X153529944Y-102197000D01*
X153529944Y-101997000D01*
X153537556Y-101958732D01*
X153559233Y-101926289D01*
X153591676Y-101904612D01*
X153629944Y-101897000D01*
X154904944Y-101897000D01*
X154943212Y-101904612D01*
G37*
G36*
X138031662Y-101292133D02*
G01*
X138075459Y-101321398D01*
X138104724Y-101365195D01*
X138115000Y-101416857D01*
X138115000Y-101686857D01*
X138104724Y-101738519D01*
X138075459Y-101782316D01*
X138031662Y-101811581D01*
X137980000Y-101821857D01*
X137610000Y-101821857D01*
X137558338Y-101811581D01*
X137514541Y-101782316D01*
X137485276Y-101738519D01*
X137475000Y-101686857D01*
X137475000Y-101416857D01*
X137485276Y-101365195D01*
X137514541Y-101321398D01*
X137558338Y-101292133D01*
X137610000Y-101281857D01*
X137980000Y-101281857D01*
X138031662Y-101292133D01*
G37*
G36*
X139047662Y-101292133D02*
G01*
X139091459Y-101321398D01*
X139120724Y-101365195D01*
X139131000Y-101416857D01*
X139131000Y-101686857D01*
X139120724Y-101738519D01*
X139091459Y-101782316D01*
X139047662Y-101811581D01*
X138996000Y-101821857D01*
X138626000Y-101821857D01*
X138574338Y-101811581D01*
X138530541Y-101782316D01*
X138501276Y-101738519D01*
X138491000Y-101686857D01*
X138491000Y-101416857D01*
X138501276Y-101365195D01*
X138530541Y-101321398D01*
X138574338Y-101292133D01*
X138626000Y-101281857D01*
X138996000Y-101281857D01*
X139047662Y-101292133D01*
G37*
G36*
X147162576Y-101203657D02*
G01*
X147207995Y-101234005D01*
X147238343Y-101279424D01*
X147249000Y-101333000D01*
X147249000Y-101613000D01*
X147238343Y-101666576D01*
X147207995Y-101711995D01*
X147162576Y-101742343D01*
X147109000Y-101753000D01*
X146769000Y-101753000D01*
X146715424Y-101742343D01*
X146670005Y-101711995D01*
X146639657Y-101666576D01*
X146629000Y-101613000D01*
X146629000Y-101333000D01*
X146639657Y-101279424D01*
X146670005Y-101234005D01*
X146715424Y-101203657D01*
X146769000Y-101193000D01*
X147109000Y-101193000D01*
X147162576Y-101203657D01*
G37*
G36*
X135952748Y-101113518D02*
G01*
X135998167Y-101143866D01*
X136028515Y-101189285D01*
X136039172Y-101242861D01*
X136039172Y-101582861D01*
X136028515Y-101636437D01*
X135998167Y-101681856D01*
X135952748Y-101712204D01*
X135899172Y-101722861D01*
X135619172Y-101722861D01*
X135565596Y-101712204D01*
X135520177Y-101681856D01*
X135489829Y-101636437D01*
X135479172Y-101582861D01*
X135479172Y-101242861D01*
X135489829Y-101189285D01*
X135520177Y-101143866D01*
X135565596Y-101113518D01*
X135619172Y-101102861D01*
X135899172Y-101102861D01*
X135952748Y-101113518D01*
G37*
G36*
X136912748Y-101113518D02*
G01*
X136958167Y-101143866D01*
X136988515Y-101189285D01*
X136999172Y-101242861D01*
X136999172Y-101582861D01*
X136988515Y-101636437D01*
X136958167Y-101681856D01*
X136912748Y-101712204D01*
X136859172Y-101722861D01*
X136579172Y-101722861D01*
X136525596Y-101712204D01*
X136480177Y-101681856D01*
X136449829Y-101636437D01*
X136439172Y-101582861D01*
X136439172Y-101242861D01*
X136449829Y-101189285D01*
X136480177Y-101143866D01*
X136525596Y-101113518D01*
X136579172Y-101102861D01*
X136859172Y-101102861D01*
X136912748Y-101113518D01*
G37*
G36*
X149218212Y-101254612D02*
G01*
X149250655Y-101276289D01*
X149272332Y-101308732D01*
X149279944Y-101347000D01*
X149279944Y-101547000D01*
X149272332Y-101585268D01*
X149250655Y-101617711D01*
X149218212Y-101639388D01*
X149179944Y-101647000D01*
X147904944Y-101647000D01*
X147866676Y-101639388D01*
X147834233Y-101617711D01*
X147812556Y-101585268D01*
X147804944Y-101547000D01*
X147804944Y-101347000D01*
X147812556Y-101308732D01*
X147834233Y-101276289D01*
X147866676Y-101254612D01*
X147904944Y-101247000D01*
X149179944Y-101247000D01*
X149218212Y-101254612D01*
G37*
G36*
X154943212Y-101254612D02*
G01*
X154975655Y-101276289D01*
X154997332Y-101308732D01*
X155004944Y-101347000D01*
X155004944Y-101547000D01*
X154997332Y-101585268D01*
X154975655Y-101617711D01*
X154943212Y-101639388D01*
X154904944Y-101647000D01*
X153629944Y-101647000D01*
X153591676Y-101639388D01*
X153559233Y-101617711D01*
X153537556Y-101585268D01*
X153529944Y-101547000D01*
X153529944Y-101347000D01*
X153537556Y-101308732D01*
X153559233Y-101276289D01*
X153591676Y-101254612D01*
X153629944Y-101247000D01*
X154904944Y-101247000D01*
X154943212Y-101254612D01*
G37*
G36*
X149218212Y-100604612D02*
G01*
X149250655Y-100626289D01*
X149272332Y-100658732D01*
X149279944Y-100697000D01*
X149279944Y-100897000D01*
X149272332Y-100935268D01*
X149250655Y-100967711D01*
X149218212Y-100989388D01*
X149179944Y-100997000D01*
X147904944Y-100997000D01*
X147866676Y-100989388D01*
X147834233Y-100967711D01*
X147812556Y-100935268D01*
X147804944Y-100897000D01*
X147804944Y-100697000D01*
X147812556Y-100658732D01*
X147834233Y-100626289D01*
X147866676Y-100604612D01*
X147904944Y-100597000D01*
X149179944Y-100597000D01*
X149218212Y-100604612D01*
G37*
G36*
X154943212Y-100604612D02*
G01*
X154975655Y-100626289D01*
X154997332Y-100658732D01*
X155004944Y-100697000D01*
X155004944Y-100897000D01*
X154997332Y-100935268D01*
X154975655Y-100967711D01*
X154943212Y-100989388D01*
X154904944Y-100997000D01*
X153629944Y-100997000D01*
X153591676Y-100989388D01*
X153559233Y-100967711D01*
X153537556Y-100935268D01*
X153529944Y-100897000D01*
X153529944Y-100697000D01*
X153537556Y-100658732D01*
X153559233Y-100626289D01*
X153591676Y-100604612D01*
X153629944Y-100597000D01*
X154904944Y-100597000D01*
X154943212Y-100604612D01*
G37*
G36*
X138031662Y-100272133D02*
G01*
X138075459Y-100301398D01*
X138104724Y-100345195D01*
X138115000Y-100396857D01*
X138115000Y-100666857D01*
X138104724Y-100718519D01*
X138075459Y-100762316D01*
X138031662Y-100791581D01*
X137980000Y-100801857D01*
X137610000Y-100801857D01*
X137558338Y-100791581D01*
X137514541Y-100762316D01*
X137485276Y-100718519D01*
X137475000Y-100666857D01*
X137475000Y-100396857D01*
X137485276Y-100345195D01*
X137514541Y-100301398D01*
X137558338Y-100272133D01*
X137610000Y-100261857D01*
X137980000Y-100261857D01*
X138031662Y-100272133D01*
G37*
G36*
X139047662Y-100272133D02*
G01*
X139091459Y-100301398D01*
X139120724Y-100345195D01*
X139131000Y-100396857D01*
X139131000Y-100666857D01*
X139120724Y-100718519D01*
X139091459Y-100762316D01*
X139047662Y-100791581D01*
X138996000Y-100801857D01*
X138626000Y-100801857D01*
X138574338Y-100791581D01*
X138530541Y-100762316D01*
X138501276Y-100718519D01*
X138491000Y-100666857D01*
X138491000Y-100396857D01*
X138501276Y-100345195D01*
X138530541Y-100301398D01*
X138574338Y-100272133D01*
X138626000Y-100261857D01*
X138996000Y-100261857D01*
X139047662Y-100272133D01*
G37*
G36*
X135572383Y-99821210D02*
G01*
X135621046Y-99853726D01*
X135653562Y-99902389D01*
X135664980Y-99959792D01*
X135664980Y-100259792D01*
X135653562Y-100317195D01*
X135621046Y-100365858D01*
X135572383Y-100398374D01*
X135514980Y-100409792D01*
X134489980Y-100409792D01*
X134432577Y-100398374D01*
X134383914Y-100365858D01*
X134351398Y-100317195D01*
X134339980Y-100259792D01*
X134339980Y-99959792D01*
X134351398Y-99902389D01*
X134383914Y-99853726D01*
X134432577Y-99821210D01*
X134489980Y-99809792D01*
X135514980Y-99809792D01*
X135572383Y-99821210D01*
G37*
G36*
X149218212Y-99954612D02*
G01*
X149250655Y-99976289D01*
X149272332Y-100008732D01*
X149279944Y-100047000D01*
X149279944Y-100247000D01*
X149272332Y-100285268D01*
X149250655Y-100317711D01*
X149218212Y-100339388D01*
X149179944Y-100347000D01*
X147904944Y-100347000D01*
X147866676Y-100339388D01*
X147834233Y-100317711D01*
X147812556Y-100285268D01*
X147804944Y-100247000D01*
X147804944Y-100047000D01*
X147812556Y-100008732D01*
X147834233Y-99976289D01*
X147866676Y-99954612D01*
X147904944Y-99947000D01*
X149179944Y-99947000D01*
X149218212Y-99954612D01*
G37*
G36*
X154943212Y-99954612D02*
G01*
X154975655Y-99976289D01*
X154997332Y-100008732D01*
X155004944Y-100047000D01*
X155004944Y-100247000D01*
X154997332Y-100285268D01*
X154975655Y-100317711D01*
X154943212Y-100339388D01*
X154904944Y-100347000D01*
X153629944Y-100347000D01*
X153591676Y-100339388D01*
X153559233Y-100317711D01*
X153537556Y-100285268D01*
X153529944Y-100247000D01*
X153529944Y-100047000D01*
X153537556Y-100008732D01*
X153559233Y-99976289D01*
X153591676Y-99954612D01*
X153629944Y-99947000D01*
X154904944Y-99947000D01*
X154943212Y-99954612D01*
G37*
G36*
X163769576Y-99522657D02*
G01*
X163814995Y-99553005D01*
X163845343Y-99598424D01*
X163856000Y-99652000D01*
X163856000Y-99992000D01*
X163845343Y-100045576D01*
X163814995Y-100090995D01*
X163769576Y-100121343D01*
X163716000Y-100132000D01*
X163436000Y-100132000D01*
X163382424Y-100121343D01*
X163337005Y-100090995D01*
X163306657Y-100045576D01*
X163296000Y-99992000D01*
X163296000Y-99652000D01*
X163306657Y-99598424D01*
X163337005Y-99553005D01*
X163382424Y-99522657D01*
X163436000Y-99512000D01*
X163716000Y-99512000D01*
X163769576Y-99522657D01*
G37*
G36*
X164729576Y-99522657D02*
G01*
X164774995Y-99553005D01*
X164805343Y-99598424D01*
X164816000Y-99652000D01*
X164816000Y-99992000D01*
X164805343Y-100045576D01*
X164774995Y-100090995D01*
X164729576Y-100121343D01*
X164676000Y-100132000D01*
X164396000Y-100132000D01*
X164342424Y-100121343D01*
X164297005Y-100090995D01*
X164266657Y-100045576D01*
X164256000Y-99992000D01*
X164256000Y-99652000D01*
X164266657Y-99598424D01*
X164297005Y-99553005D01*
X164342424Y-99522657D01*
X164396000Y-99512000D01*
X164676000Y-99512000D01*
X164729576Y-99522657D01*
G37*
G36*
X133761038Y-99366756D02*
G01*
X133806457Y-99397104D01*
X133836805Y-99442523D01*
X133847462Y-99496099D01*
X133847462Y-99776099D01*
X133836805Y-99829675D01*
X133806457Y-99875094D01*
X133761038Y-99905442D01*
X133707462Y-99916099D01*
X133367462Y-99916099D01*
X133313886Y-99905442D01*
X133268467Y-99875094D01*
X133238119Y-99829675D01*
X133227462Y-99776099D01*
X133227462Y-99496099D01*
X133238119Y-99442523D01*
X133268467Y-99397104D01*
X133313886Y-99366756D01*
X133367462Y-99356099D01*
X133707462Y-99356099D01*
X133761038Y-99366756D01*
G37*
G36*
X149218212Y-99304612D02*
G01*
X149250655Y-99326289D01*
X149272332Y-99358732D01*
X149279944Y-99397000D01*
X149279944Y-99597000D01*
X149272332Y-99635268D01*
X149250655Y-99667711D01*
X149218212Y-99689388D01*
X149179944Y-99697000D01*
X147904944Y-99697000D01*
X147866676Y-99689388D01*
X147834233Y-99667711D01*
X147812556Y-99635268D01*
X147804944Y-99597000D01*
X147804944Y-99397000D01*
X147812556Y-99358732D01*
X147834233Y-99326289D01*
X147866676Y-99304612D01*
X147904944Y-99297000D01*
X149179944Y-99297000D01*
X149218212Y-99304612D01*
G37*
G36*
X154943212Y-99304612D02*
G01*
X154975655Y-99326289D01*
X154997332Y-99358732D01*
X155004944Y-99397000D01*
X155004944Y-99597000D01*
X154997332Y-99635268D01*
X154975655Y-99667711D01*
X154943212Y-99689388D01*
X154904944Y-99697000D01*
X153629944Y-99697000D01*
X153591676Y-99689388D01*
X153559233Y-99667711D01*
X153537556Y-99635268D01*
X153529944Y-99597000D01*
X153529944Y-99397000D01*
X153537556Y-99358732D01*
X153559233Y-99326289D01*
X153591676Y-99304612D01*
X153629944Y-99297000D01*
X154904944Y-99297000D01*
X154943212Y-99304612D01*
G37*
G36*
X160890941Y-99683000D02*
G01*
X159890941Y-99683000D01*
X159593046Y-99683000D01*
X159590941Y-99683000D01*
X158590941Y-99683000D01*
X158590941Y-98183000D01*
X159590941Y-98183000D01*
X160885937Y-98183000D01*
X160890941Y-98183000D01*
X160890941Y-99683000D01*
G37*
G36*
X139766576Y-98887657D02*
G01*
X139811995Y-98918005D01*
X139842343Y-98963424D01*
X139853000Y-99017000D01*
X139853000Y-99357000D01*
X139842343Y-99410576D01*
X139811995Y-99455995D01*
X139766576Y-99486343D01*
X139713000Y-99497000D01*
X139433000Y-99497000D01*
X139379424Y-99486343D01*
X139334005Y-99455995D01*
X139303657Y-99410576D01*
X139293000Y-99357000D01*
X139293000Y-99017000D01*
X139303657Y-98963424D01*
X139334005Y-98918005D01*
X139379424Y-98887657D01*
X139433000Y-98877000D01*
X139713000Y-98877000D01*
X139766576Y-98887657D01*
G37*
G36*
X140726576Y-98887657D02*
G01*
X140771995Y-98918005D01*
X140802343Y-98963424D01*
X140813000Y-99017000D01*
X140813000Y-99357000D01*
X140802343Y-99410576D01*
X140771995Y-99455995D01*
X140726576Y-99486343D01*
X140673000Y-99497000D01*
X140393000Y-99497000D01*
X140339424Y-99486343D01*
X140294005Y-99455995D01*
X140263657Y-99410576D01*
X140253000Y-99357000D01*
X140253000Y-99017000D01*
X140263657Y-98963424D01*
X140294005Y-98918005D01*
X140339424Y-98887657D01*
X140393000Y-98877000D01*
X140673000Y-98877000D01*
X140726576Y-98887657D01*
G37*
G36*
X137847383Y-98871210D02*
G01*
X137896046Y-98903726D01*
X137928562Y-98952389D01*
X137939980Y-99009792D01*
X137939980Y-99309792D01*
X137928562Y-99367195D01*
X137896046Y-99415858D01*
X137847383Y-99448374D01*
X137789980Y-99459792D01*
X136764980Y-99459792D01*
X136707577Y-99448374D01*
X136658914Y-99415858D01*
X136626398Y-99367195D01*
X136614980Y-99309792D01*
X136614980Y-99009792D01*
X136626398Y-98952389D01*
X136658914Y-98903726D01*
X136707577Y-98871210D01*
X136764980Y-98859792D01*
X137789980Y-98859792D01*
X137847383Y-98871210D01*
G37*
G36*
X149218212Y-98654612D02*
G01*
X149250655Y-98676289D01*
X149272332Y-98708732D01*
X149279944Y-98747000D01*
X149279944Y-98947000D01*
X149272332Y-98985268D01*
X149250655Y-99017711D01*
X149218212Y-99039388D01*
X149179944Y-99047000D01*
X147904944Y-99047000D01*
X147866676Y-99039388D01*
X147834233Y-99017711D01*
X147812556Y-98985268D01*
X147804944Y-98947000D01*
X147804944Y-98747000D01*
X147812556Y-98708732D01*
X147834233Y-98676289D01*
X147866676Y-98654612D01*
X147904944Y-98647000D01*
X149179944Y-98647000D01*
X149218212Y-98654612D01*
G37*
G36*
X154943212Y-98654612D02*
G01*
X154975655Y-98676289D01*
X154997332Y-98708732D01*
X155004944Y-98747000D01*
X155004944Y-98947000D01*
X154997332Y-98985268D01*
X154975655Y-99017711D01*
X154943212Y-99039388D01*
X154904944Y-99047000D01*
X153629944Y-99047000D01*
X153591676Y-99039388D01*
X153559233Y-99017711D01*
X153537556Y-98985268D01*
X153529944Y-98947000D01*
X153529944Y-98747000D01*
X153537556Y-98708732D01*
X153559233Y-98676289D01*
X153591676Y-98654612D01*
X153629944Y-98647000D01*
X154904944Y-98647000D01*
X154943212Y-98654612D01*
G37*
G36*
X133761038Y-98406756D02*
G01*
X133806457Y-98437104D01*
X133836805Y-98482523D01*
X133847462Y-98536099D01*
X133847462Y-98816099D01*
X133836805Y-98869675D01*
X133806457Y-98915094D01*
X133761038Y-98945442D01*
X133707462Y-98956099D01*
X133367462Y-98956099D01*
X133313886Y-98945442D01*
X133268467Y-98915094D01*
X133238119Y-98869675D01*
X133227462Y-98816099D01*
X133227462Y-98536099D01*
X133238119Y-98482523D01*
X133268467Y-98437104D01*
X133313886Y-98406756D01*
X133367462Y-98396099D01*
X133707462Y-98396099D01*
X133761038Y-98406756D01*
G37*
G36*
X156052576Y-98325657D02*
G01*
X156097995Y-98356005D01*
X156128343Y-98401424D01*
X156139000Y-98455000D01*
X156139000Y-98735000D01*
X156128343Y-98788576D01*
X156097995Y-98833995D01*
X156052576Y-98864343D01*
X155999000Y-98875000D01*
X155659000Y-98875000D01*
X155605424Y-98864343D01*
X155560005Y-98833995D01*
X155529657Y-98788576D01*
X155519000Y-98735000D01*
X155519000Y-98455000D01*
X155529657Y-98401424D01*
X155560005Y-98356005D01*
X155605424Y-98325657D01*
X155659000Y-98315000D01*
X155999000Y-98315000D01*
X156052576Y-98325657D01*
G37*
G36*
X135572383Y-97921210D02*
G01*
X135621046Y-97953726D01*
X135653562Y-98002389D01*
X135664980Y-98059792D01*
X135664980Y-98359792D01*
X135653562Y-98417195D01*
X135621046Y-98465858D01*
X135572383Y-98498374D01*
X135514980Y-98509792D01*
X134489980Y-98509792D01*
X134432577Y-98498374D01*
X134383914Y-98465858D01*
X134351398Y-98417195D01*
X134339980Y-98359792D01*
X134339980Y-98059792D01*
X134351398Y-98002389D01*
X134383914Y-97953726D01*
X134432577Y-97921210D01*
X134489980Y-97909792D01*
X135514980Y-97909792D01*
X135572383Y-97921210D01*
G37*
G36*
X149218212Y-98004612D02*
G01*
X149250655Y-98026289D01*
X149272332Y-98058732D01*
X149279944Y-98097000D01*
X149279944Y-98297000D01*
X149272332Y-98335268D01*
X149250655Y-98367711D01*
X149218212Y-98389388D01*
X149179944Y-98397000D01*
X147904944Y-98397000D01*
X147866676Y-98389388D01*
X147834233Y-98367711D01*
X147812556Y-98335268D01*
X147804944Y-98297000D01*
X147804944Y-98097000D01*
X147812556Y-98058732D01*
X147834233Y-98026289D01*
X147866676Y-98004612D01*
X147904944Y-97997000D01*
X149179944Y-97997000D01*
X149218212Y-98004612D01*
G37*
G36*
X154943212Y-98004612D02*
G01*
X154975655Y-98026289D01*
X154997332Y-98058732D01*
X155004944Y-98097000D01*
X155004944Y-98297000D01*
X154997332Y-98335268D01*
X154975655Y-98367711D01*
X154943212Y-98389388D01*
X154904944Y-98397000D01*
X153629944Y-98397000D01*
X153591676Y-98389388D01*
X153559233Y-98367711D01*
X153537556Y-98335268D01*
X153529944Y-98297000D01*
X153529944Y-98097000D01*
X153537556Y-98058732D01*
X153559233Y-98026289D01*
X153591676Y-98004612D01*
X153629944Y-97997000D01*
X154904944Y-97997000D01*
X154943212Y-98004612D01*
G37*
G36*
X140277712Y-97973213D02*
G01*
X140310155Y-97994890D01*
X140331832Y-98027333D01*
X140339444Y-98065601D01*
X140339444Y-98265601D01*
X140331832Y-98303869D01*
X140310155Y-98336312D01*
X140277712Y-98357989D01*
X140239444Y-98365601D01*
X138964444Y-98365601D01*
X138926176Y-98357989D01*
X138893733Y-98336312D01*
X138872056Y-98303869D01*
X138864444Y-98265601D01*
X138864444Y-98065601D01*
X138872056Y-98027333D01*
X138893733Y-97994890D01*
X138926176Y-97973213D01*
X138964444Y-97965601D01*
X140239444Y-97965601D01*
X140277712Y-97973213D01*
G37*
G36*
X146002712Y-97973213D02*
G01*
X146035155Y-97994890D01*
X146056832Y-98027333D01*
X146064444Y-98065601D01*
X146064444Y-98265601D01*
X146056832Y-98303869D01*
X146035155Y-98336312D01*
X146002712Y-98357989D01*
X145964444Y-98365601D01*
X144689444Y-98365601D01*
X144651176Y-98357989D01*
X144618733Y-98336312D01*
X144597056Y-98303869D01*
X144589444Y-98265601D01*
X144589444Y-98065601D01*
X144597056Y-98027333D01*
X144618733Y-97994890D01*
X144651176Y-97973213D01*
X144689444Y-97965601D01*
X145964444Y-97965601D01*
X146002712Y-97973213D01*
G37*
G36*
X127600000Y-98239988D02*
G01*
X126600000Y-98239988D01*
X126600000Y-97939988D01*
X127600000Y-97939988D01*
X127600000Y-98239988D01*
G37*
G36*
X156052576Y-97365657D02*
G01*
X156097995Y-97396005D01*
X156128343Y-97441424D01*
X156139000Y-97495000D01*
X156139000Y-97775000D01*
X156128343Y-97828576D01*
X156097995Y-97873995D01*
X156052576Y-97904343D01*
X155999000Y-97915000D01*
X155659000Y-97915000D01*
X155605424Y-97904343D01*
X155560005Y-97873995D01*
X155529657Y-97828576D01*
X155519000Y-97775000D01*
X155519000Y-97495000D01*
X155529657Y-97441424D01*
X155560005Y-97396005D01*
X155605424Y-97365657D01*
X155659000Y-97355000D01*
X155999000Y-97355000D01*
X156052576Y-97365657D01*
G37*
G36*
X149218212Y-97354612D02*
G01*
X149250655Y-97376289D01*
X149272332Y-97408732D01*
X149279944Y-97447000D01*
X149279944Y-97647000D01*
X149272332Y-97685268D01*
X149250655Y-97717711D01*
X149218212Y-97739388D01*
X149179944Y-97747000D01*
X147904944Y-97747000D01*
X147866676Y-97739388D01*
X147834233Y-97717711D01*
X147812556Y-97685268D01*
X147804944Y-97647000D01*
X147804944Y-97447000D01*
X147812556Y-97408732D01*
X147834233Y-97376289D01*
X147866676Y-97354612D01*
X147904944Y-97347000D01*
X149179944Y-97347000D01*
X149218212Y-97354612D01*
G37*
G36*
X154943212Y-97354612D02*
G01*
X154975655Y-97376289D01*
X154997332Y-97408732D01*
X155004944Y-97447000D01*
X155004944Y-97647000D01*
X154997332Y-97685268D01*
X154975655Y-97717711D01*
X154943212Y-97739388D01*
X154904944Y-97747000D01*
X153629944Y-97747000D01*
X153591676Y-97739388D01*
X153559233Y-97717711D01*
X153537556Y-97685268D01*
X153529944Y-97647000D01*
X153529944Y-97447000D01*
X153537556Y-97408732D01*
X153559233Y-97376289D01*
X153591676Y-97354612D01*
X153629944Y-97347000D01*
X154904944Y-97347000D01*
X154943212Y-97354612D01*
G37*
G36*
X140277712Y-97323213D02*
G01*
X140310155Y-97344890D01*
X140331832Y-97377333D01*
X140339444Y-97415601D01*
X140339444Y-97615601D01*
X140331832Y-97653869D01*
X140310155Y-97686312D01*
X140277712Y-97707989D01*
X140239444Y-97715601D01*
X138964444Y-97715601D01*
X138926176Y-97707989D01*
X138893733Y-97686312D01*
X138872056Y-97653869D01*
X138864444Y-97615601D01*
X138864444Y-97415601D01*
X138872056Y-97377333D01*
X138893733Y-97344890D01*
X138926176Y-97323213D01*
X138964444Y-97315601D01*
X140239444Y-97315601D01*
X140277712Y-97323213D01*
G37*
G36*
X146002712Y-97323213D02*
G01*
X146035155Y-97344890D01*
X146056832Y-97377333D01*
X146064444Y-97415601D01*
X146064444Y-97615601D01*
X146056832Y-97653869D01*
X146035155Y-97686312D01*
X146002712Y-97707989D01*
X145964444Y-97715601D01*
X144689444Y-97715601D01*
X144651176Y-97707989D01*
X144618733Y-97686312D01*
X144597056Y-97653869D01*
X144589444Y-97615601D01*
X144589444Y-97415601D01*
X144597056Y-97377333D01*
X144618733Y-97344890D01*
X144651176Y-97323213D01*
X144689444Y-97315601D01*
X145964444Y-97315601D01*
X146002712Y-97323213D01*
G37*
G36*
X130100000Y-97450000D02*
G01*
X129400000Y-97450000D01*
X129400000Y-97150000D01*
X130100000Y-97150000D01*
X130100000Y-97450000D01*
G37*
G36*
X140277712Y-96673213D02*
G01*
X140310155Y-96694890D01*
X140331832Y-96727333D01*
X140339444Y-96765601D01*
X140339444Y-96965601D01*
X140331832Y-97003869D01*
X140310155Y-97036312D01*
X140277712Y-97057989D01*
X140239444Y-97065601D01*
X138964444Y-97065601D01*
X138926176Y-97057989D01*
X138893733Y-97036312D01*
X138872056Y-97003869D01*
X138864444Y-96965601D01*
X138864444Y-96765601D01*
X138872056Y-96727333D01*
X138893733Y-96694890D01*
X138926176Y-96673213D01*
X138964444Y-96665601D01*
X140239444Y-96665601D01*
X140277712Y-96673213D01*
G37*
G36*
X146002712Y-96673213D02*
G01*
X146035155Y-96694890D01*
X146056832Y-96727333D01*
X146064444Y-96765601D01*
X146064444Y-96965601D01*
X146056832Y-97003869D01*
X146035155Y-97036312D01*
X146002712Y-97057989D01*
X145964444Y-97065601D01*
X144689444Y-97065601D01*
X144651176Y-97057989D01*
X144618733Y-97036312D01*
X144597056Y-97003869D01*
X144589444Y-96965601D01*
X144589444Y-96765601D01*
X144597056Y-96727333D01*
X144618733Y-96694890D01*
X144651176Y-96673213D01*
X144689444Y-96665601D01*
X145964444Y-96665601D01*
X146002712Y-96673213D01*
G37*
G36*
X130100000Y-96949998D02*
G01*
X129400000Y-96949998D01*
X129400000Y-96649998D01*
X130100000Y-96649998D01*
X130100000Y-96949998D01*
G37*
G36*
X130100000Y-96449999D02*
G01*
X129400000Y-96449999D01*
X129400000Y-96149999D01*
X130100000Y-96149999D01*
X130100000Y-96449999D01*
G37*
G36*
X140277712Y-96023213D02*
G01*
X140310155Y-96044890D01*
X140331832Y-96077333D01*
X140339444Y-96115601D01*
X140339444Y-96315601D01*
X140331832Y-96353869D01*
X140310155Y-96386312D01*
X140277712Y-96407989D01*
X140239444Y-96415601D01*
X138964444Y-96415601D01*
X138926176Y-96407989D01*
X138893733Y-96386312D01*
X138872056Y-96353869D01*
X138864444Y-96315601D01*
X138864444Y-96115601D01*
X138872056Y-96077333D01*
X138893733Y-96044890D01*
X138926176Y-96023213D01*
X138964444Y-96015601D01*
X140239444Y-96015601D01*
X140277712Y-96023213D01*
G37*
G36*
X146002712Y-96023213D02*
G01*
X146035155Y-96044890D01*
X146056832Y-96077333D01*
X146064444Y-96115601D01*
X146064444Y-96315601D01*
X146056832Y-96353869D01*
X146035155Y-96386312D01*
X146002712Y-96407989D01*
X145964444Y-96415601D01*
X144689444Y-96415601D01*
X144651176Y-96407989D01*
X144618733Y-96386312D01*
X144597056Y-96353869D01*
X144589444Y-96315601D01*
X144589444Y-96115601D01*
X144597056Y-96077333D01*
X144618733Y-96044890D01*
X144651176Y-96023213D01*
X144689444Y-96015601D01*
X145964444Y-96015601D01*
X146002712Y-96023213D01*
G37*
G36*
X130100000Y-95950000D02*
G01*
X129400000Y-95950000D01*
X129400000Y-95650000D01*
X130100000Y-95650000D01*
X130100000Y-95950000D01*
G37*
G36*
X140277712Y-95373213D02*
G01*
X140310155Y-95394890D01*
X140331832Y-95427333D01*
X140339444Y-95465601D01*
X140339444Y-95665601D01*
X140331832Y-95703869D01*
X140310155Y-95736312D01*
X140277712Y-95757989D01*
X140239444Y-95765601D01*
X138964444Y-95765601D01*
X138926176Y-95757989D01*
X138893733Y-95736312D01*
X138872056Y-95703869D01*
X138864444Y-95665601D01*
X138864444Y-95465601D01*
X138872056Y-95427333D01*
X138893733Y-95394890D01*
X138926176Y-95373213D01*
X138964444Y-95365601D01*
X140239444Y-95365601D01*
X140277712Y-95373213D01*
G37*
G36*
X146002712Y-95373213D02*
G01*
X146035155Y-95394890D01*
X146056832Y-95427333D01*
X146064444Y-95465601D01*
X146064444Y-95665601D01*
X146056832Y-95703869D01*
X146035155Y-95736312D01*
X146002712Y-95757989D01*
X145964444Y-95765601D01*
X144689444Y-95765601D01*
X144651176Y-95757989D01*
X144618733Y-95736312D01*
X144597056Y-95703869D01*
X144589444Y-95665601D01*
X144589444Y-95465601D01*
X144597056Y-95427333D01*
X144618733Y-95394890D01*
X144651176Y-95373213D01*
X144689444Y-95365601D01*
X145964444Y-95365601D01*
X146002712Y-95373213D01*
G37*
G36*
X130100000Y-95449999D02*
G01*
X129400000Y-95449999D01*
X129400000Y-95149999D01*
X130100000Y-95149999D01*
X130100000Y-95449999D01*
G37*
G36*
X140277712Y-94723213D02*
G01*
X140310155Y-94744890D01*
X140331832Y-94777333D01*
X140339444Y-94815601D01*
X140339444Y-95015601D01*
X140331832Y-95053869D01*
X140310155Y-95086312D01*
X140277712Y-95107989D01*
X140239444Y-95115601D01*
X138964444Y-95115601D01*
X138926176Y-95107989D01*
X138893733Y-95086312D01*
X138872056Y-95053869D01*
X138864444Y-95015601D01*
X138864444Y-94815601D01*
X138872056Y-94777333D01*
X138893733Y-94744890D01*
X138926176Y-94723213D01*
X138964444Y-94715601D01*
X140239444Y-94715601D01*
X140277712Y-94723213D01*
G37*
G36*
X146002712Y-94723213D02*
G01*
X146035155Y-94744890D01*
X146056832Y-94777333D01*
X146064444Y-94815601D01*
X146064444Y-95015601D01*
X146056832Y-95053869D01*
X146035155Y-95086312D01*
X146002712Y-95107989D01*
X145964444Y-95115601D01*
X144689444Y-95115601D01*
X144651176Y-95107989D01*
X144618733Y-95086312D01*
X144597056Y-95053869D01*
X144589444Y-95015601D01*
X144589444Y-94815601D01*
X144597056Y-94777333D01*
X144618733Y-94744890D01*
X144651176Y-94723213D01*
X144689444Y-94715601D01*
X145964444Y-94715601D01*
X146002712Y-94723213D01*
G37*
G36*
X149942104Y-94195125D02*
G01*
X150015099Y-94243899D01*
X150063873Y-94316894D01*
X150081000Y-94402998D01*
X150081000Y-94852998D01*
X150063873Y-94939102D01*
X150015099Y-95012097D01*
X149942104Y-95060871D01*
X149856000Y-95077998D01*
X149356000Y-95077998D01*
X149269896Y-95060871D01*
X149196901Y-95012097D01*
X149148127Y-94939102D01*
X149131000Y-94852998D01*
X149131000Y-94402998D01*
X149148127Y-94316894D01*
X149196901Y-94243899D01*
X149269896Y-94195125D01*
X149356000Y-94177998D01*
X149856000Y-94177998D01*
X149942104Y-94195125D01*
G37*
G36*
X151466104Y-94195125D02*
G01*
X151539099Y-94243899D01*
X151587873Y-94316894D01*
X151605000Y-94402998D01*
X151605000Y-94852998D01*
X151587873Y-94939102D01*
X151539099Y-95012097D01*
X151466104Y-95060871D01*
X151380000Y-95077998D01*
X150880000Y-95077998D01*
X150793896Y-95060871D01*
X150720901Y-95012097D01*
X150672127Y-94939102D01*
X150655000Y-94852998D01*
X150655000Y-94402998D01*
X150672127Y-94316894D01*
X150720901Y-94243899D01*
X150793896Y-94195125D01*
X150880000Y-94177998D01*
X151380000Y-94177998D01*
X151466104Y-94195125D01*
G37*
G36*
X152990104Y-94195125D02*
G01*
X153063099Y-94243899D01*
X153111873Y-94316894D01*
X153129000Y-94402998D01*
X153129000Y-94852998D01*
X153111873Y-94939102D01*
X153063099Y-95012097D01*
X152990104Y-95060871D01*
X152904000Y-95077998D01*
X152404000Y-95077998D01*
X152317896Y-95060871D01*
X152244901Y-95012097D01*
X152196127Y-94939102D01*
X152179000Y-94852998D01*
X152179000Y-94402998D01*
X152196127Y-94316894D01*
X152244901Y-94243899D01*
X152317896Y-94195125D01*
X152404000Y-94177998D01*
X152904000Y-94177998D01*
X152990104Y-94195125D01*
G37*
G36*
X154514104Y-94195125D02*
G01*
X154587099Y-94243899D01*
X154635873Y-94316894D01*
X154653000Y-94402998D01*
X154653000Y-94852998D01*
X154635873Y-94939102D01*
X154587099Y-95012097D01*
X154514104Y-95060871D01*
X154428000Y-95077998D01*
X153928000Y-95077998D01*
X153841896Y-95060871D01*
X153768901Y-95012097D01*
X153720127Y-94939102D01*
X153703000Y-94852998D01*
X153703000Y-94402998D01*
X153720127Y-94316894D01*
X153768901Y-94243899D01*
X153841896Y-94195125D01*
X153928000Y-94177998D01*
X154428000Y-94177998D01*
X154514104Y-94195125D01*
G37*
G36*
X156038104Y-94195125D02*
G01*
X156111099Y-94243899D01*
X156159873Y-94316894D01*
X156177000Y-94402998D01*
X156177000Y-94852998D01*
X156159873Y-94939102D01*
X156111099Y-95012097D01*
X156038104Y-95060871D01*
X155952000Y-95077998D01*
X155452000Y-95077998D01*
X155365896Y-95060871D01*
X155292901Y-95012097D01*
X155244127Y-94939102D01*
X155227000Y-94852998D01*
X155227000Y-94402998D01*
X155244127Y-94316894D01*
X155292901Y-94243899D01*
X155365896Y-94195125D01*
X155452000Y-94177998D01*
X155952000Y-94177998D01*
X156038104Y-94195125D01*
G37*
G36*
X157562104Y-94195125D02*
G01*
X157635099Y-94243899D01*
X157683873Y-94316894D01*
X157701000Y-94402998D01*
X157701000Y-94852998D01*
X157683873Y-94939102D01*
X157635099Y-95012097D01*
X157562104Y-95060871D01*
X157476000Y-95077998D01*
X156976000Y-95077998D01*
X156889896Y-95060871D01*
X156816901Y-95012097D01*
X156768127Y-94939102D01*
X156751000Y-94852998D01*
X156751000Y-94402998D01*
X156768127Y-94316894D01*
X156816901Y-94243899D01*
X156889896Y-94195125D01*
X156976000Y-94177998D01*
X157476000Y-94177998D01*
X157562104Y-94195125D01*
G37*
G36*
X159086104Y-94195125D02*
G01*
X159159099Y-94243899D01*
X159207873Y-94316894D01*
X159225000Y-94402998D01*
X159225000Y-94852998D01*
X159207873Y-94939102D01*
X159159099Y-95012097D01*
X159086104Y-95060871D01*
X159000000Y-95077998D01*
X158500000Y-95077998D01*
X158413896Y-95060871D01*
X158340901Y-95012097D01*
X158292127Y-94939102D01*
X158275000Y-94852998D01*
X158275000Y-94402998D01*
X158292127Y-94316894D01*
X158340901Y-94243899D01*
X158413896Y-94195125D01*
X158500000Y-94177998D01*
X159000000Y-94177998D01*
X159086104Y-94195125D01*
G37*
G36*
X160610104Y-94195125D02*
G01*
X160683099Y-94243899D01*
X160731873Y-94316894D01*
X160749000Y-94402998D01*
X160749000Y-94852998D01*
X160731873Y-94939102D01*
X160683099Y-95012097D01*
X160610104Y-95060871D01*
X160524000Y-95077998D01*
X160024000Y-95077998D01*
X159937896Y-95060871D01*
X159864901Y-95012097D01*
X159816127Y-94939102D01*
X159799000Y-94852998D01*
X159799000Y-94402998D01*
X159816127Y-94316894D01*
X159864901Y-94243899D01*
X159937896Y-94195125D01*
X160024000Y-94177998D01*
X160524000Y-94177998D01*
X160610104Y-94195125D01*
G37*
G36*
X130100000Y-94950000D02*
G01*
X129400000Y-94950000D01*
X129400000Y-94650000D01*
X130100000Y-94650000D01*
X130100000Y-94950000D01*
G37*
G36*
X140277712Y-94073213D02*
G01*
X140310155Y-94094890D01*
X140331832Y-94127333D01*
X140339444Y-94165601D01*
X140339444Y-94365601D01*
X140331832Y-94403869D01*
X140310155Y-94436312D01*
X140277712Y-94457989D01*
X140239444Y-94465601D01*
X138964444Y-94465601D01*
X138926176Y-94457989D01*
X138893733Y-94436312D01*
X138872056Y-94403869D01*
X138864444Y-94365601D01*
X138864444Y-94165601D01*
X138872056Y-94127333D01*
X138893733Y-94094890D01*
X138926176Y-94073213D01*
X138964444Y-94065601D01*
X140239444Y-94065601D01*
X140277712Y-94073213D01*
G37*
G36*
X146002712Y-94073213D02*
G01*
X146035155Y-94094890D01*
X146056832Y-94127333D01*
X146064444Y-94165601D01*
X146064444Y-94365601D01*
X146056832Y-94403869D01*
X146035155Y-94436312D01*
X146002712Y-94457989D01*
X145964444Y-94465601D01*
X144689444Y-94465601D01*
X144651176Y-94457989D01*
X144618733Y-94436312D01*
X144597056Y-94403869D01*
X144589444Y-94365601D01*
X144589444Y-94165601D01*
X144597056Y-94127333D01*
X144618733Y-94094890D01*
X144651176Y-94073213D01*
X144689444Y-94065601D01*
X145964444Y-94065601D01*
X146002712Y-94073213D01*
G37*
G36*
X130100000Y-94449998D02*
G01*
X129400000Y-94449998D01*
X129400000Y-94149998D01*
X130100000Y-94149998D01*
X130100000Y-94449998D01*
G37*
G36*
X130100000Y-93949999D02*
G01*
X129400000Y-93949999D01*
X129400000Y-93649999D01*
X130100000Y-93649999D01*
X130100000Y-93949999D01*
G37*
G36*
X140277712Y-93423213D02*
G01*
X140310155Y-93444890D01*
X140331832Y-93477333D01*
X140339444Y-93515601D01*
X140339444Y-93715601D01*
X140331832Y-93753869D01*
X140310155Y-93786312D01*
X140277712Y-93807989D01*
X140239444Y-93815601D01*
X138964444Y-93815601D01*
X138926176Y-93807989D01*
X138893733Y-93786312D01*
X138872056Y-93753869D01*
X138864444Y-93715601D01*
X138864444Y-93515601D01*
X138872056Y-93477333D01*
X138893733Y-93444890D01*
X138926176Y-93423213D01*
X138964444Y-93415601D01*
X140239444Y-93415601D01*
X140277712Y-93423213D01*
G37*
G36*
X146002712Y-93423213D02*
G01*
X146035155Y-93444890D01*
X146056832Y-93477333D01*
X146064444Y-93515601D01*
X146064444Y-93715601D01*
X146056832Y-93753869D01*
X146035155Y-93786312D01*
X146002712Y-93807989D01*
X145964444Y-93815601D01*
X144689444Y-93815601D01*
X144651176Y-93807989D01*
X144618733Y-93786312D01*
X144597056Y-93753869D01*
X144589444Y-93715601D01*
X144589444Y-93515601D01*
X144597056Y-93477333D01*
X144618733Y-93444890D01*
X144651176Y-93423213D01*
X144689444Y-93415601D01*
X145964444Y-93415601D01*
X146002712Y-93423213D01*
G37*
G36*
X162083104Y-92633127D02*
G01*
X162156099Y-92681901D01*
X162204873Y-92754896D01*
X162222000Y-92841000D01*
X162222000Y-93341000D01*
X162204873Y-93427104D01*
X162156099Y-93500099D01*
X162083104Y-93548873D01*
X161997000Y-93566000D01*
X161547000Y-93566000D01*
X161460896Y-93548873D01*
X161387901Y-93500099D01*
X161339127Y-93427104D01*
X161322000Y-93341000D01*
X161322000Y-92841000D01*
X161339127Y-92754896D01*
X161387901Y-92681901D01*
X161460896Y-92633127D01*
X161547000Y-92616000D01*
X161997000Y-92616000D01*
X162083104Y-92633127D01*
G37*
G36*
X163633104Y-92633127D02*
G01*
X163706099Y-92681901D01*
X163754873Y-92754896D01*
X163772000Y-92841000D01*
X163772000Y-93341000D01*
X163754873Y-93427104D01*
X163706099Y-93500099D01*
X163633104Y-93548873D01*
X163547000Y-93566000D01*
X163097000Y-93566000D01*
X163010896Y-93548873D01*
X162937901Y-93500099D01*
X162889127Y-93427104D01*
X162872000Y-93341000D01*
X162872000Y-92841000D01*
X162889127Y-92754896D01*
X162937901Y-92681901D01*
X163010896Y-92633127D01*
X163097000Y-92616000D01*
X163547000Y-92616000D01*
X163633104Y-92633127D01*
G37*
G36*
X149942104Y-92645125D02*
G01*
X150015099Y-92693899D01*
X150063873Y-92766894D01*
X150081000Y-92852998D01*
X150081000Y-93302998D01*
X150063873Y-93389102D01*
X150015099Y-93462097D01*
X149942104Y-93510871D01*
X149856000Y-93527998D01*
X149356000Y-93527998D01*
X149269896Y-93510871D01*
X149196901Y-93462097D01*
X149148127Y-93389102D01*
X149131000Y-93302998D01*
X149131000Y-92852998D01*
X149148127Y-92766894D01*
X149196901Y-92693899D01*
X149269896Y-92645125D01*
X149356000Y-92627998D01*
X149856000Y-92627998D01*
X149942104Y-92645125D01*
G37*
G36*
X151466104Y-92645125D02*
G01*
X151539099Y-92693899D01*
X151587873Y-92766894D01*
X151605000Y-92852998D01*
X151605000Y-93302998D01*
X151587873Y-93389102D01*
X151539099Y-93462097D01*
X151466104Y-93510871D01*
X151380000Y-93527998D01*
X150880000Y-93527998D01*
X150793896Y-93510871D01*
X150720901Y-93462097D01*
X150672127Y-93389102D01*
X150655000Y-93302998D01*
X150655000Y-92852998D01*
X150672127Y-92766894D01*
X150720901Y-92693899D01*
X150793896Y-92645125D01*
X150880000Y-92627998D01*
X151380000Y-92627998D01*
X151466104Y-92645125D01*
G37*
G36*
X152990104Y-92645125D02*
G01*
X153063099Y-92693899D01*
X153111873Y-92766894D01*
X153129000Y-92852998D01*
X153129000Y-93302998D01*
X153111873Y-93389102D01*
X153063099Y-93462097D01*
X152990104Y-93510871D01*
X152904000Y-93527998D01*
X152404000Y-93527998D01*
X152317896Y-93510871D01*
X152244901Y-93462097D01*
X152196127Y-93389102D01*
X152179000Y-93302998D01*
X152179000Y-92852998D01*
X152196127Y-92766894D01*
X152244901Y-92693899D01*
X152317896Y-92645125D01*
X152404000Y-92627998D01*
X152904000Y-92627998D01*
X152990104Y-92645125D01*
G37*
G36*
X154514104Y-92645125D02*
G01*
X154587099Y-92693899D01*
X154635873Y-92766894D01*
X154653000Y-92852998D01*
X154653000Y-93302998D01*
X154635873Y-93389102D01*
X154587099Y-93462097D01*
X154514104Y-93510871D01*
X154428000Y-93527998D01*
X153928000Y-93527998D01*
X153841896Y-93510871D01*
X153768901Y-93462097D01*
X153720127Y-93389102D01*
X153703000Y-93302998D01*
X153703000Y-92852998D01*
X153720127Y-92766894D01*
X153768901Y-92693899D01*
X153841896Y-92645125D01*
X153928000Y-92627998D01*
X154428000Y-92627998D01*
X154514104Y-92645125D01*
G37*
G36*
X156038104Y-92645125D02*
G01*
X156111099Y-92693899D01*
X156159873Y-92766894D01*
X156177000Y-92852998D01*
X156177000Y-93302998D01*
X156159873Y-93389102D01*
X156111099Y-93462097D01*
X156038104Y-93510871D01*
X155952000Y-93527998D01*
X155452000Y-93527998D01*
X155365896Y-93510871D01*
X155292901Y-93462097D01*
X155244127Y-93389102D01*
X155227000Y-93302998D01*
X155227000Y-92852998D01*
X155244127Y-92766894D01*
X155292901Y-92693899D01*
X155365896Y-92645125D01*
X155452000Y-92627998D01*
X155952000Y-92627998D01*
X156038104Y-92645125D01*
G37*
G36*
X157562104Y-92645125D02*
G01*
X157635099Y-92693899D01*
X157683873Y-92766894D01*
X157701000Y-92852998D01*
X157701000Y-93302998D01*
X157683873Y-93389102D01*
X157635099Y-93462097D01*
X157562104Y-93510871D01*
X157476000Y-93527998D01*
X156976000Y-93527998D01*
X156889896Y-93510871D01*
X156816901Y-93462097D01*
X156768127Y-93389102D01*
X156751000Y-93302998D01*
X156751000Y-92852998D01*
X156768127Y-92766894D01*
X156816901Y-92693899D01*
X156889896Y-92645125D01*
X156976000Y-92627998D01*
X157476000Y-92627998D01*
X157562104Y-92645125D01*
G37*
G36*
X159086104Y-92645125D02*
G01*
X159159099Y-92693899D01*
X159207873Y-92766894D01*
X159225000Y-92852998D01*
X159225000Y-93302998D01*
X159207873Y-93389102D01*
X159159099Y-93462097D01*
X159086104Y-93510871D01*
X159000000Y-93527998D01*
X158500000Y-93527998D01*
X158413896Y-93510871D01*
X158340901Y-93462097D01*
X158292127Y-93389102D01*
X158275000Y-93302998D01*
X158275000Y-92852998D01*
X158292127Y-92766894D01*
X158340901Y-92693899D01*
X158413896Y-92645125D01*
X158500000Y-92627998D01*
X159000000Y-92627998D01*
X159086104Y-92645125D01*
G37*
G36*
X160610104Y-92645125D02*
G01*
X160683099Y-92693899D01*
X160731873Y-92766894D01*
X160749000Y-92852998D01*
X160749000Y-93302998D01*
X160731873Y-93389102D01*
X160683099Y-93462097D01*
X160610104Y-93510871D01*
X160524000Y-93527998D01*
X160024000Y-93527998D01*
X159937896Y-93510871D01*
X159864901Y-93462097D01*
X159816127Y-93389102D01*
X159799000Y-93302998D01*
X159799000Y-92852998D01*
X159816127Y-92766894D01*
X159864901Y-92693899D01*
X159937896Y-92645125D01*
X160024000Y-92627998D01*
X160524000Y-92627998D01*
X160610104Y-92645125D01*
G37*
G36*
X127600000Y-93159999D02*
G01*
X126600000Y-93159999D01*
X126600000Y-92859999D01*
X127600000Y-92859999D01*
X127600000Y-93159999D01*
G37*
G36*
X143409520Y-92289258D02*
G01*
X143454939Y-92319606D01*
X143485287Y-92365025D01*
X143495944Y-92418601D01*
X143495944Y-92758601D01*
X143485287Y-92812177D01*
X143454939Y-92857596D01*
X143409520Y-92887944D01*
X143355944Y-92898601D01*
X143075944Y-92898601D01*
X143022368Y-92887944D01*
X142976949Y-92857596D01*
X142946601Y-92812177D01*
X142935944Y-92758601D01*
X142935944Y-92418601D01*
X142946601Y-92365025D01*
X142976949Y-92319606D01*
X143022368Y-92289258D01*
X143075944Y-92278601D01*
X143355944Y-92278601D01*
X143409520Y-92289258D01*
G37*
G36*
X144369520Y-92289258D02*
G01*
X144414939Y-92319606D01*
X144445287Y-92365025D01*
X144455944Y-92418601D01*
X144455944Y-92758601D01*
X144445287Y-92812177D01*
X144414939Y-92857596D01*
X144369520Y-92887944D01*
X144315944Y-92898601D01*
X144035944Y-92898601D01*
X143982368Y-92887944D01*
X143936949Y-92857596D01*
X143906601Y-92812177D01*
X143895944Y-92758601D01*
X143895944Y-92418601D01*
X143906601Y-92365025D01*
X143936949Y-92319606D01*
X143982368Y-92289258D01*
X144035944Y-92278601D01*
X144315944Y-92278601D01*
X144369520Y-92289258D01*
G37*
G36*
X138806576Y-91775657D02*
G01*
X138851995Y-91806005D01*
X138882343Y-91851424D01*
X138893000Y-91905000D01*
X138893000Y-92245000D01*
X138882343Y-92298576D01*
X138851995Y-92343995D01*
X138806576Y-92374343D01*
X138753000Y-92385000D01*
X138473000Y-92385000D01*
X138419424Y-92374343D01*
X138374005Y-92343995D01*
X138343657Y-92298576D01*
X138333000Y-92245000D01*
X138333000Y-91905000D01*
X138343657Y-91851424D01*
X138374005Y-91806005D01*
X138419424Y-91775657D01*
X138473000Y-91765000D01*
X138753000Y-91765000D01*
X138806576Y-91775657D01*
G37*
G36*
X139766576Y-91775657D02*
G01*
X139811995Y-91806005D01*
X139842343Y-91851424D01*
X139853000Y-91905000D01*
X139853000Y-92245000D01*
X139842343Y-92298576D01*
X139811995Y-92343995D01*
X139766576Y-92374343D01*
X139713000Y-92385000D01*
X139433000Y-92385000D01*
X139379424Y-92374343D01*
X139334005Y-92343995D01*
X139303657Y-92298576D01*
X139293000Y-92245000D01*
X139293000Y-91905000D01*
X139303657Y-91851424D01*
X139334005Y-91806005D01*
X139379424Y-91775657D01*
X139433000Y-91765000D01*
X139713000Y-91765000D01*
X139766576Y-91775657D01*
G37*
G36*
X162083104Y-91109127D02*
G01*
X162156099Y-91157901D01*
X162204873Y-91230896D01*
X162222000Y-91317000D01*
X162222000Y-91817000D01*
X162204873Y-91903104D01*
X162156099Y-91976099D01*
X162083104Y-92024873D01*
X161997000Y-92042000D01*
X161547000Y-92042000D01*
X161460896Y-92024873D01*
X161387901Y-91976099D01*
X161339127Y-91903104D01*
X161322000Y-91817000D01*
X161322000Y-91317000D01*
X161339127Y-91230896D01*
X161387901Y-91157901D01*
X161460896Y-91109127D01*
X161547000Y-91092000D01*
X161997000Y-91092000D01*
X162083104Y-91109127D01*
G37*
G36*
X163633104Y-91109127D02*
G01*
X163706099Y-91157901D01*
X163754873Y-91230896D01*
X163772000Y-91317000D01*
X163772000Y-91817000D01*
X163754873Y-91903104D01*
X163706099Y-91976099D01*
X163633104Y-92024873D01*
X163547000Y-92042000D01*
X163097000Y-92042000D01*
X163010896Y-92024873D01*
X162937901Y-91976099D01*
X162889127Y-91903104D01*
X162872000Y-91817000D01*
X162872000Y-91317000D01*
X162889127Y-91230896D01*
X162937901Y-91157901D01*
X163010896Y-91109127D01*
X163097000Y-91092000D01*
X163547000Y-91092000D01*
X163633104Y-91109127D01*
G37*
G36*
X149942104Y-91134127D02*
G01*
X150015099Y-91182901D01*
X150063873Y-91255896D01*
X150081000Y-91342000D01*
X150081000Y-91792000D01*
X150063873Y-91878104D01*
X150015099Y-91951099D01*
X149942104Y-91999873D01*
X149856000Y-92017000D01*
X149356000Y-92017000D01*
X149269896Y-91999873D01*
X149196901Y-91951099D01*
X149148127Y-91878104D01*
X149131000Y-91792000D01*
X149131000Y-91342000D01*
X149148127Y-91255896D01*
X149196901Y-91182901D01*
X149269896Y-91134127D01*
X149356000Y-91117000D01*
X149856000Y-91117000D01*
X149942104Y-91134127D01*
G37*
G36*
X151466104Y-91134127D02*
G01*
X151539099Y-91182901D01*
X151587873Y-91255896D01*
X151605000Y-91342000D01*
X151605000Y-91792000D01*
X151587873Y-91878104D01*
X151539099Y-91951099D01*
X151466104Y-91999873D01*
X151380000Y-92017000D01*
X150880000Y-92017000D01*
X150793896Y-91999873D01*
X150720901Y-91951099D01*
X150672127Y-91878104D01*
X150655000Y-91792000D01*
X150655000Y-91342000D01*
X150672127Y-91255896D01*
X150720901Y-91182901D01*
X150793896Y-91134127D01*
X150880000Y-91117000D01*
X151380000Y-91117000D01*
X151466104Y-91134127D01*
G37*
G36*
X152990104Y-91134127D02*
G01*
X153063099Y-91182901D01*
X153111873Y-91255896D01*
X153129000Y-91342000D01*
X153129000Y-91792000D01*
X153111873Y-91878104D01*
X153063099Y-91951099D01*
X152990104Y-91999873D01*
X152904000Y-92017000D01*
X152404000Y-92017000D01*
X152317896Y-91999873D01*
X152244901Y-91951099D01*
X152196127Y-91878104D01*
X152179000Y-91792000D01*
X152179000Y-91342000D01*
X152196127Y-91255896D01*
X152244901Y-91182901D01*
X152317896Y-91134127D01*
X152404000Y-91117000D01*
X152904000Y-91117000D01*
X152990104Y-91134127D01*
G37*
G36*
X154514104Y-91134127D02*
G01*
X154587099Y-91182901D01*
X154635873Y-91255896D01*
X154653000Y-91342000D01*
X154653000Y-91792000D01*
X154635873Y-91878104D01*
X154587099Y-91951099D01*
X154514104Y-91999873D01*
X154428000Y-92017000D01*
X153928000Y-92017000D01*
X153841896Y-91999873D01*
X153768901Y-91951099D01*
X153720127Y-91878104D01*
X153703000Y-91792000D01*
X153703000Y-91342000D01*
X153720127Y-91255896D01*
X153768901Y-91182901D01*
X153841896Y-91134127D01*
X153928000Y-91117000D01*
X154428000Y-91117000D01*
X154514104Y-91134127D01*
G37*
G36*
X156038104Y-91134127D02*
G01*
X156111099Y-91182901D01*
X156159873Y-91255896D01*
X156177000Y-91342000D01*
X156177000Y-91792000D01*
X156159873Y-91878104D01*
X156111099Y-91951099D01*
X156038104Y-91999873D01*
X155952000Y-92017000D01*
X155452000Y-92017000D01*
X155365896Y-91999873D01*
X155292901Y-91951099D01*
X155244127Y-91878104D01*
X155227000Y-91792000D01*
X155227000Y-91342000D01*
X155244127Y-91255896D01*
X155292901Y-91182901D01*
X155365896Y-91134127D01*
X155452000Y-91117000D01*
X155952000Y-91117000D01*
X156038104Y-91134127D01*
G37*
G36*
X157562104Y-91134127D02*
G01*
X157635099Y-91182901D01*
X157683873Y-91255896D01*
X157701000Y-91342000D01*
X157701000Y-91792000D01*
X157683873Y-91878104D01*
X157635099Y-91951099D01*
X157562104Y-91999873D01*
X157476000Y-92017000D01*
X156976000Y-92017000D01*
X156889896Y-91999873D01*
X156816901Y-91951099D01*
X156768127Y-91878104D01*
X156751000Y-91792000D01*
X156751000Y-91342000D01*
X156768127Y-91255896D01*
X156816901Y-91182901D01*
X156889896Y-91134127D01*
X156976000Y-91117000D01*
X157476000Y-91117000D01*
X157562104Y-91134127D01*
G37*
G36*
X159079104Y-91134127D02*
G01*
X159152099Y-91182901D01*
X159200873Y-91255896D01*
X159218000Y-91342000D01*
X159218000Y-91792000D01*
X159200873Y-91878104D01*
X159152099Y-91951099D01*
X159079104Y-91999873D01*
X158993000Y-92017000D01*
X158493000Y-92017000D01*
X158406896Y-91999873D01*
X158333901Y-91951099D01*
X158285127Y-91878104D01*
X158268000Y-91792000D01*
X158268000Y-91342000D01*
X158285127Y-91255896D01*
X158333901Y-91182901D01*
X158406896Y-91134127D01*
X158493000Y-91117000D01*
X158993000Y-91117000D01*
X159079104Y-91134127D01*
G37*
G36*
X160603104Y-91134127D02*
G01*
X160676099Y-91182901D01*
X160724873Y-91255896D01*
X160742000Y-91342000D01*
X160742000Y-91792000D01*
X160724873Y-91878104D01*
X160676099Y-91951099D01*
X160603104Y-91999873D01*
X160517000Y-92017000D01*
X160017000Y-92017000D01*
X159930896Y-91999873D01*
X159857901Y-91951099D01*
X159809127Y-91878104D01*
X159792000Y-91792000D01*
X159792000Y-91342000D01*
X159809127Y-91255896D01*
X159857901Y-91182901D01*
X159930896Y-91134127D01*
X160017000Y-91117000D01*
X160517000Y-91117000D01*
X160603104Y-91134127D01*
G37*
G36*
X140277712Y-90861213D02*
G01*
X140310155Y-90882890D01*
X140331832Y-90915333D01*
X140339444Y-90953601D01*
X140339444Y-91153601D01*
X140331832Y-91191869D01*
X140310155Y-91224312D01*
X140277712Y-91245989D01*
X140239444Y-91253601D01*
X138964444Y-91253601D01*
X138926176Y-91245989D01*
X138893733Y-91224312D01*
X138872056Y-91191869D01*
X138864444Y-91153601D01*
X138864444Y-90953601D01*
X138872056Y-90915333D01*
X138893733Y-90882890D01*
X138926176Y-90861213D01*
X138964444Y-90853601D01*
X140239444Y-90853601D01*
X140277712Y-90861213D01*
G37*
G36*
X146002712Y-90861213D02*
G01*
X146035155Y-90882890D01*
X146056832Y-90915333D01*
X146064444Y-90953601D01*
X146064444Y-91153601D01*
X146056832Y-91191869D01*
X146035155Y-91224312D01*
X146002712Y-91245989D01*
X145964444Y-91253601D01*
X144689444Y-91253601D01*
X144651176Y-91245989D01*
X144618733Y-91224312D01*
X144597056Y-91191869D01*
X144589444Y-91153601D01*
X144589444Y-90953601D01*
X144597056Y-90915333D01*
X144618733Y-90882890D01*
X144651176Y-90861213D01*
X144689444Y-90853601D01*
X145964444Y-90853601D01*
X146002712Y-90861213D01*
G37*
G36*
X140277712Y-90211213D02*
G01*
X140310155Y-90232890D01*
X140331832Y-90265333D01*
X140339444Y-90303601D01*
X140339444Y-90503601D01*
X140331832Y-90541869D01*
X140310155Y-90574312D01*
X140277712Y-90595989D01*
X140239444Y-90603601D01*
X138964444Y-90603601D01*
X138926176Y-90595989D01*
X138893733Y-90574312D01*
X138872056Y-90541869D01*
X138864444Y-90503601D01*
X138864444Y-90303601D01*
X138872056Y-90265333D01*
X138893733Y-90232890D01*
X138926176Y-90211213D01*
X138964444Y-90203601D01*
X140239444Y-90203601D01*
X140277712Y-90211213D01*
G37*
G36*
X146002712Y-90211213D02*
G01*
X146035155Y-90232890D01*
X146056832Y-90265333D01*
X146064444Y-90303601D01*
X146064444Y-90503601D01*
X146056832Y-90541869D01*
X146035155Y-90574312D01*
X146002712Y-90595989D01*
X145964444Y-90603601D01*
X144689444Y-90603601D01*
X144651176Y-90595989D01*
X144618733Y-90574312D01*
X144597056Y-90541869D01*
X144589444Y-90503601D01*
X144589444Y-90303601D01*
X144597056Y-90265333D01*
X144618733Y-90232890D01*
X144651176Y-90211213D01*
X144689444Y-90203601D01*
X145964444Y-90203601D01*
X146002712Y-90211213D01*
G37*
G36*
X162083104Y-89572125D02*
G01*
X162156099Y-89620899D01*
X162204873Y-89693894D01*
X162222000Y-89779998D01*
X162222000Y-90279998D01*
X162204873Y-90366102D01*
X162156099Y-90439097D01*
X162083104Y-90487871D01*
X161997000Y-90504998D01*
X161547000Y-90504998D01*
X161460896Y-90487871D01*
X161387901Y-90439097D01*
X161339127Y-90366102D01*
X161322000Y-90279998D01*
X161322000Y-89779998D01*
X161339127Y-89693894D01*
X161387901Y-89620899D01*
X161460896Y-89572125D01*
X161547000Y-89554998D01*
X161997000Y-89554998D01*
X162083104Y-89572125D01*
G37*
G36*
X163633104Y-89572125D02*
G01*
X163706099Y-89620899D01*
X163754873Y-89693894D01*
X163772000Y-89779998D01*
X163772000Y-90279998D01*
X163754873Y-90366102D01*
X163706099Y-90439097D01*
X163633104Y-90487871D01*
X163547000Y-90504998D01*
X163097000Y-90504998D01*
X163010896Y-90487871D01*
X162937901Y-90439097D01*
X162889127Y-90366102D01*
X162872000Y-90279998D01*
X162872000Y-89779998D01*
X162889127Y-89693894D01*
X162937901Y-89620899D01*
X163010896Y-89572125D01*
X163097000Y-89554998D01*
X163547000Y-89554998D01*
X163633104Y-89572125D01*
G37*
G36*
X149942104Y-89584127D02*
G01*
X150015099Y-89632901D01*
X150063873Y-89705896D01*
X150081000Y-89792000D01*
X150081000Y-90242000D01*
X150063873Y-90328104D01*
X150015099Y-90401099D01*
X149942104Y-90449873D01*
X149856000Y-90467000D01*
X149356000Y-90467000D01*
X149269896Y-90449873D01*
X149196901Y-90401099D01*
X149148127Y-90328104D01*
X149131000Y-90242000D01*
X149131000Y-89792000D01*
X149148127Y-89705896D01*
X149196901Y-89632901D01*
X149269896Y-89584127D01*
X149356000Y-89567000D01*
X149856000Y-89567000D01*
X149942104Y-89584127D01*
G37*
G36*
X151466104Y-89584127D02*
G01*
X151539099Y-89632901D01*
X151587873Y-89705896D01*
X151605000Y-89792000D01*
X151605000Y-90242000D01*
X151587873Y-90328104D01*
X151539099Y-90401099D01*
X151466104Y-90449873D01*
X151380000Y-90467000D01*
X150880000Y-90467000D01*
X150793896Y-90449873D01*
X150720901Y-90401099D01*
X150672127Y-90328104D01*
X150655000Y-90242000D01*
X150655000Y-89792000D01*
X150672127Y-89705896D01*
X150720901Y-89632901D01*
X150793896Y-89584127D01*
X150880000Y-89567000D01*
X151380000Y-89567000D01*
X151466104Y-89584127D01*
G37*
G36*
X152990104Y-89584127D02*
G01*
X153063099Y-89632901D01*
X153111873Y-89705896D01*
X153129000Y-89792000D01*
X153129000Y-90242000D01*
X153111873Y-90328104D01*
X153063099Y-90401099D01*
X152990104Y-90449873D01*
X152904000Y-90467000D01*
X152404000Y-90467000D01*
X152317896Y-90449873D01*
X152244901Y-90401099D01*
X152196127Y-90328104D01*
X152179000Y-90242000D01*
X152179000Y-89792000D01*
X152196127Y-89705896D01*
X152244901Y-89632901D01*
X152317896Y-89584127D01*
X152404000Y-89567000D01*
X152904000Y-89567000D01*
X152990104Y-89584127D01*
G37*
G36*
X154514104Y-89584127D02*
G01*
X154587099Y-89632901D01*
X154635873Y-89705896D01*
X154653000Y-89792000D01*
X154653000Y-90242000D01*
X154635873Y-90328104D01*
X154587099Y-90401099D01*
X154514104Y-90449873D01*
X154428000Y-90467000D01*
X153928000Y-90467000D01*
X153841896Y-90449873D01*
X153768901Y-90401099D01*
X153720127Y-90328104D01*
X153703000Y-90242000D01*
X153703000Y-89792000D01*
X153720127Y-89705896D01*
X153768901Y-89632901D01*
X153841896Y-89584127D01*
X153928000Y-89567000D01*
X154428000Y-89567000D01*
X154514104Y-89584127D01*
G37*
G36*
X156038104Y-89584127D02*
G01*
X156111099Y-89632901D01*
X156159873Y-89705896D01*
X156177000Y-89792000D01*
X156177000Y-90242000D01*
X156159873Y-90328104D01*
X156111099Y-90401099D01*
X156038104Y-90449873D01*
X155952000Y-90467000D01*
X155452000Y-90467000D01*
X155365896Y-90449873D01*
X155292901Y-90401099D01*
X155244127Y-90328104D01*
X155227000Y-90242000D01*
X155227000Y-89792000D01*
X155244127Y-89705896D01*
X155292901Y-89632901D01*
X155365896Y-89584127D01*
X155452000Y-89567000D01*
X155952000Y-89567000D01*
X156038104Y-89584127D01*
G37*
G36*
X157562104Y-89584127D02*
G01*
X157635099Y-89632901D01*
X157683873Y-89705896D01*
X157701000Y-89792000D01*
X157701000Y-90242000D01*
X157683873Y-90328104D01*
X157635099Y-90401099D01*
X157562104Y-90449873D01*
X157476000Y-90467000D01*
X156976000Y-90467000D01*
X156889896Y-90449873D01*
X156816901Y-90401099D01*
X156768127Y-90328104D01*
X156751000Y-90242000D01*
X156751000Y-89792000D01*
X156768127Y-89705896D01*
X156816901Y-89632901D01*
X156889896Y-89584127D01*
X156976000Y-89567000D01*
X157476000Y-89567000D01*
X157562104Y-89584127D01*
G37*
G36*
X159079104Y-89584127D02*
G01*
X159152099Y-89632901D01*
X159200873Y-89705896D01*
X159218000Y-89792000D01*
X159218000Y-90242000D01*
X159200873Y-90328104D01*
X159152099Y-90401099D01*
X159079104Y-90449873D01*
X158993000Y-90467000D01*
X158493000Y-90467000D01*
X158406896Y-90449873D01*
X158333901Y-90401099D01*
X158285127Y-90328104D01*
X158268000Y-90242000D01*
X158268000Y-89792000D01*
X158285127Y-89705896D01*
X158333901Y-89632901D01*
X158406896Y-89584127D01*
X158493000Y-89567000D01*
X158993000Y-89567000D01*
X159079104Y-89584127D01*
G37*
G36*
X160603104Y-89584127D02*
G01*
X160676099Y-89632901D01*
X160724873Y-89705896D01*
X160742000Y-89792000D01*
X160742000Y-90242000D01*
X160724873Y-90328104D01*
X160676099Y-90401099D01*
X160603104Y-90449873D01*
X160517000Y-90467000D01*
X160017000Y-90467000D01*
X159930896Y-90449873D01*
X159857901Y-90401099D01*
X159809127Y-90328104D01*
X159792000Y-90242000D01*
X159792000Y-89792000D01*
X159809127Y-89705896D01*
X159857901Y-89632901D01*
X159930896Y-89584127D01*
X160017000Y-89567000D01*
X160517000Y-89567000D01*
X160603104Y-89584127D01*
G37*
G36*
X140277712Y-89561213D02*
G01*
X140310155Y-89582890D01*
X140331832Y-89615333D01*
X140339444Y-89653601D01*
X140339444Y-89853601D01*
X140331832Y-89891869D01*
X140310155Y-89924312D01*
X140277712Y-89945989D01*
X140239444Y-89953601D01*
X138964444Y-89953601D01*
X138926176Y-89945989D01*
X138893733Y-89924312D01*
X138872056Y-89891869D01*
X138864444Y-89853601D01*
X138864444Y-89653601D01*
X138872056Y-89615333D01*
X138893733Y-89582890D01*
X138926176Y-89561213D01*
X138964444Y-89553601D01*
X140239444Y-89553601D01*
X140277712Y-89561213D01*
G37*
G36*
X146002712Y-89561213D02*
G01*
X146035155Y-89582890D01*
X146056832Y-89615333D01*
X146064444Y-89653601D01*
X146064444Y-89853601D01*
X146056832Y-89891869D01*
X146035155Y-89924312D01*
X146002712Y-89945989D01*
X145964444Y-89953601D01*
X144689444Y-89953601D01*
X144651176Y-89945989D01*
X144618733Y-89924312D01*
X144597056Y-89891869D01*
X144589444Y-89853601D01*
X144589444Y-89653601D01*
X144597056Y-89615333D01*
X144618733Y-89582890D01*
X144651176Y-89561213D01*
X144689444Y-89553601D01*
X145964444Y-89553601D01*
X146002712Y-89561213D01*
G37*
G36*
X140277712Y-88911213D02*
G01*
X140310155Y-88932890D01*
X140331832Y-88965333D01*
X140339444Y-89003601D01*
X140339444Y-89203601D01*
X140331832Y-89241869D01*
X140310155Y-89274312D01*
X140277712Y-89295989D01*
X140239444Y-89303601D01*
X138964444Y-89303601D01*
X138926176Y-89295989D01*
X138893733Y-89274312D01*
X138872056Y-89241869D01*
X138864444Y-89203601D01*
X138864444Y-89003601D01*
X138872056Y-88965333D01*
X138893733Y-88932890D01*
X138926176Y-88911213D01*
X138964444Y-88903601D01*
X140239444Y-88903601D01*
X140277712Y-88911213D01*
G37*
G36*
X146002712Y-88911213D02*
G01*
X146035155Y-88932890D01*
X146056832Y-88965333D01*
X146064444Y-89003601D01*
X146064444Y-89203601D01*
X146056832Y-89241869D01*
X146035155Y-89274312D01*
X146002712Y-89295989D01*
X145964444Y-89303601D01*
X144689444Y-89303601D01*
X144651176Y-89295989D01*
X144618733Y-89274312D01*
X144597056Y-89241869D01*
X144589444Y-89203601D01*
X144589444Y-89003601D01*
X144597056Y-88965333D01*
X144618733Y-88932890D01*
X144651176Y-88911213D01*
X144689444Y-88903601D01*
X145964444Y-88903601D01*
X146002712Y-88911213D01*
G37*
G36*
X140277712Y-88261213D02*
G01*
X140310155Y-88282890D01*
X140331832Y-88315333D01*
X140339444Y-88353601D01*
X140339444Y-88553601D01*
X140331832Y-88591869D01*
X140310155Y-88624312D01*
X140277712Y-88645989D01*
X140239444Y-88653601D01*
X138964444Y-88653601D01*
X138926176Y-88645989D01*
X138893733Y-88624312D01*
X138872056Y-88591869D01*
X138864444Y-88553601D01*
X138864444Y-88353601D01*
X138872056Y-88315333D01*
X138893733Y-88282890D01*
X138926176Y-88261213D01*
X138964444Y-88253601D01*
X140239444Y-88253601D01*
X140277712Y-88261213D01*
G37*
G36*
X146002712Y-88261213D02*
G01*
X146035155Y-88282890D01*
X146056832Y-88315333D01*
X146064444Y-88353601D01*
X146064444Y-88553601D01*
X146056832Y-88591869D01*
X146035155Y-88624312D01*
X146002712Y-88645989D01*
X145964444Y-88653601D01*
X144689444Y-88653601D01*
X144651176Y-88645989D01*
X144618733Y-88624312D01*
X144597056Y-88591869D01*
X144589444Y-88553601D01*
X144589444Y-88353601D01*
X144597056Y-88315333D01*
X144618733Y-88282890D01*
X144651176Y-88261213D01*
X144689444Y-88253601D01*
X145964444Y-88253601D01*
X146002712Y-88261213D01*
G37*
G36*
X163785104Y-87210127D02*
G01*
X163858099Y-87258901D01*
X163906873Y-87331896D01*
X163924000Y-87418000D01*
X163924000Y-87868000D01*
X163906873Y-87954104D01*
X163858099Y-88027099D01*
X163785104Y-88075873D01*
X163699000Y-88093000D01*
X163199000Y-88093000D01*
X163112896Y-88075873D01*
X163039901Y-88027099D01*
X162991127Y-87954104D01*
X162974000Y-87868000D01*
X162974000Y-87418000D01*
X162991127Y-87331896D01*
X163039901Y-87258901D01*
X163112896Y-87210127D01*
X163199000Y-87193000D01*
X163699000Y-87193000D01*
X163785104Y-87210127D01*
G37*
G36*
X140277712Y-87611213D02*
G01*
X140310155Y-87632890D01*
X140331832Y-87665333D01*
X140339444Y-87703601D01*
X140339444Y-87903601D01*
X140331832Y-87941869D01*
X140310155Y-87974312D01*
X140277712Y-87995989D01*
X140239444Y-88003601D01*
X138964444Y-88003601D01*
X138926176Y-87995989D01*
X138893733Y-87974312D01*
X138872056Y-87941869D01*
X138864444Y-87903601D01*
X138864444Y-87703601D01*
X138872056Y-87665333D01*
X138893733Y-87632890D01*
X138926176Y-87611213D01*
X138964444Y-87603601D01*
X140239444Y-87603601D01*
X140277712Y-87611213D01*
G37*
G36*
X146002712Y-87611213D02*
G01*
X146035155Y-87632890D01*
X146056832Y-87665333D01*
X146064444Y-87703601D01*
X146064444Y-87903601D01*
X146056832Y-87941869D01*
X146035155Y-87974312D01*
X146002712Y-87995989D01*
X145964444Y-88003601D01*
X144689444Y-88003601D01*
X144651176Y-87995989D01*
X144618733Y-87974312D01*
X144597056Y-87941869D01*
X144589444Y-87903601D01*
X144589444Y-87703601D01*
X144597056Y-87665333D01*
X144618733Y-87632890D01*
X144651176Y-87611213D01*
X144689444Y-87603601D01*
X145964444Y-87603601D01*
X146002712Y-87611213D01*
G37*
G36*
X140277712Y-86961213D02*
G01*
X140310155Y-86982890D01*
X140331832Y-87015333D01*
X140339444Y-87053601D01*
X140339444Y-87253601D01*
X140331832Y-87291869D01*
X140310155Y-87324312D01*
X140277712Y-87345989D01*
X140239444Y-87353601D01*
X138964444Y-87353601D01*
X138926176Y-87345989D01*
X138893733Y-87324312D01*
X138872056Y-87291869D01*
X138864444Y-87253601D01*
X138864444Y-87053601D01*
X138872056Y-87015333D01*
X138893733Y-86982890D01*
X138926176Y-86961213D01*
X138964444Y-86953601D01*
X140239444Y-86953601D01*
X140277712Y-86961213D01*
G37*
G36*
X146002712Y-86961213D02*
G01*
X146035155Y-86982890D01*
X146056832Y-87015333D01*
X146064444Y-87053601D01*
X146064444Y-87253601D01*
X146056832Y-87291869D01*
X146035155Y-87324312D01*
X146002712Y-87345989D01*
X145964444Y-87353601D01*
X144689444Y-87353601D01*
X144651176Y-87345989D01*
X144618733Y-87324312D01*
X144597056Y-87291869D01*
X144589444Y-87253601D01*
X144589444Y-87053601D01*
X144597056Y-87015333D01*
X144618733Y-86982890D01*
X144651176Y-86961213D01*
X144689444Y-86953601D01*
X145964444Y-86953601D01*
X146002712Y-86961213D01*
G37*
G36*
X140277712Y-86311213D02*
G01*
X140310155Y-86332890D01*
X140331832Y-86365333D01*
X140339444Y-86403601D01*
X140339444Y-86603601D01*
X140331832Y-86641869D01*
X140310155Y-86674312D01*
X140277712Y-86695989D01*
X140239444Y-86703601D01*
X138964444Y-86703601D01*
X138926176Y-86695989D01*
X138893733Y-86674312D01*
X138872056Y-86641869D01*
X138864444Y-86603601D01*
X138864444Y-86403601D01*
X138872056Y-86365333D01*
X138893733Y-86332890D01*
X138926176Y-86311213D01*
X138964444Y-86303601D01*
X140239444Y-86303601D01*
X140277712Y-86311213D01*
G37*
G36*
X146002712Y-86311213D02*
G01*
X146035155Y-86332890D01*
X146056832Y-86365333D01*
X146064444Y-86403601D01*
X146064444Y-86603601D01*
X146056832Y-86641869D01*
X146035155Y-86674312D01*
X146002712Y-86695989D01*
X145964444Y-86703601D01*
X144689444Y-86703601D01*
X144651176Y-86695989D01*
X144618733Y-86674312D01*
X144597056Y-86641869D01*
X144589444Y-86603601D01*
X144589444Y-86403601D01*
X144597056Y-86365333D01*
X144618733Y-86332890D01*
X144651176Y-86311213D01*
X144689444Y-86303601D01*
X145964444Y-86303601D01*
X146002712Y-86311213D01*
G37*
G36*
X163785104Y-85660127D02*
G01*
X163858099Y-85708901D01*
X163906873Y-85781896D01*
X163924000Y-85868000D01*
X163924000Y-86318000D01*
X163906873Y-86404104D01*
X163858099Y-86477099D01*
X163785104Y-86525873D01*
X163699000Y-86543000D01*
X163199000Y-86543000D01*
X163112896Y-86525873D01*
X163039901Y-86477099D01*
X162991127Y-86404104D01*
X162974000Y-86318000D01*
X162974000Y-85868000D01*
X162991127Y-85781896D01*
X163039901Y-85708901D01*
X163112896Y-85660127D01*
X163199000Y-85643000D01*
X163699000Y-85643000D01*
X163785104Y-85660127D01*
G37*
G36*
X143409520Y-85177258D02*
G01*
X143454939Y-85207606D01*
X143485287Y-85253025D01*
X143495944Y-85306601D01*
X143495944Y-85646601D01*
X143485287Y-85700177D01*
X143454939Y-85745596D01*
X143409520Y-85775944D01*
X143355944Y-85786601D01*
X143075944Y-85786601D01*
X143022368Y-85775944D01*
X142976949Y-85745596D01*
X142946601Y-85700177D01*
X142935944Y-85646601D01*
X142935944Y-85306601D01*
X142946601Y-85253025D01*
X142976949Y-85207606D01*
X143022368Y-85177258D01*
X143075944Y-85166601D01*
X143355944Y-85166601D01*
X143409520Y-85177258D01*
G37*
G36*
X144369520Y-85177258D02*
G01*
X144414939Y-85207606D01*
X144445287Y-85253025D01*
X144455944Y-85306601D01*
X144455944Y-85646601D01*
X144445287Y-85700177D01*
X144414939Y-85745596D01*
X144369520Y-85775944D01*
X144315944Y-85786601D01*
X144035944Y-85786601D01*
X143982368Y-85775944D01*
X143936949Y-85745596D01*
X143906601Y-85700177D01*
X143895944Y-85646601D01*
X143895944Y-85306601D01*
X143906601Y-85253025D01*
X143936949Y-85207606D01*
X143982368Y-85177258D01*
X144035944Y-85166601D01*
X144315944Y-85166601D01*
X144369520Y-85177258D01*
G37*
G36*
X149942104Y-84683127D02*
G01*
X150015099Y-84731901D01*
X150063873Y-84804896D01*
X150081000Y-84891000D01*
X150081000Y-85341000D01*
X150063873Y-85427104D01*
X150015099Y-85500099D01*
X149942104Y-85548873D01*
X149856000Y-85566000D01*
X149356000Y-85566000D01*
X149269896Y-85548873D01*
X149196901Y-85500099D01*
X149148127Y-85427104D01*
X149131000Y-85341000D01*
X149131000Y-84891000D01*
X149148127Y-84804896D01*
X149196901Y-84731901D01*
X149269896Y-84683127D01*
X149356000Y-84666000D01*
X149856000Y-84666000D01*
X149942104Y-84683127D01*
G37*
G36*
X151466104Y-84683127D02*
G01*
X151539099Y-84731901D01*
X151587873Y-84804896D01*
X151605000Y-84891000D01*
X151605000Y-85341000D01*
X151587873Y-85427104D01*
X151539099Y-85500099D01*
X151466104Y-85548873D01*
X151380000Y-85566000D01*
X150880000Y-85566000D01*
X150793896Y-85548873D01*
X150720901Y-85500099D01*
X150672127Y-85427104D01*
X150655000Y-85341000D01*
X150655000Y-84891000D01*
X150672127Y-84804896D01*
X150720901Y-84731901D01*
X150793896Y-84683127D01*
X150880000Y-84666000D01*
X151380000Y-84666000D01*
X151466104Y-84683127D01*
G37*
G36*
X152990104Y-84683127D02*
G01*
X153063099Y-84731901D01*
X153111873Y-84804896D01*
X153129000Y-84891000D01*
X153129000Y-85341000D01*
X153111873Y-85427104D01*
X153063099Y-85500099D01*
X152990104Y-85548873D01*
X152904000Y-85566000D01*
X152404000Y-85566000D01*
X152317896Y-85548873D01*
X152244901Y-85500099D01*
X152196127Y-85427104D01*
X152179000Y-85341000D01*
X152179000Y-84891000D01*
X152196127Y-84804896D01*
X152244901Y-84731901D01*
X152317896Y-84683127D01*
X152404000Y-84666000D01*
X152904000Y-84666000D01*
X152990104Y-84683127D01*
G37*
G36*
X154514104Y-84683127D02*
G01*
X154587099Y-84731901D01*
X154635873Y-84804896D01*
X154653000Y-84891000D01*
X154653000Y-85341000D01*
X154635873Y-85427104D01*
X154587099Y-85500099D01*
X154514104Y-85548873D01*
X154428000Y-85566000D01*
X153928000Y-85566000D01*
X153841896Y-85548873D01*
X153768901Y-85500099D01*
X153720127Y-85427104D01*
X153703000Y-85341000D01*
X153703000Y-84891000D01*
X153720127Y-84804896D01*
X153768901Y-84731901D01*
X153841896Y-84683127D01*
X153928000Y-84666000D01*
X154428000Y-84666000D01*
X154514104Y-84683127D01*
G37*
G36*
X156038104Y-84683127D02*
G01*
X156111099Y-84731901D01*
X156159873Y-84804896D01*
X156177000Y-84891000D01*
X156177000Y-85341000D01*
X156159873Y-85427104D01*
X156111099Y-85500099D01*
X156038104Y-85548873D01*
X155952000Y-85566000D01*
X155452000Y-85566000D01*
X155365896Y-85548873D01*
X155292901Y-85500099D01*
X155244127Y-85427104D01*
X155227000Y-85341000D01*
X155227000Y-84891000D01*
X155244127Y-84804896D01*
X155292901Y-84731901D01*
X155365896Y-84683127D01*
X155452000Y-84666000D01*
X155952000Y-84666000D01*
X156038104Y-84683127D01*
G37*
G36*
X157562104Y-84683127D02*
G01*
X157635099Y-84731901D01*
X157683873Y-84804896D01*
X157701000Y-84891000D01*
X157701000Y-85341000D01*
X157683873Y-85427104D01*
X157635099Y-85500099D01*
X157562104Y-85548873D01*
X157476000Y-85566000D01*
X156976000Y-85566000D01*
X156889896Y-85548873D01*
X156816901Y-85500099D01*
X156768127Y-85427104D01*
X156751000Y-85341000D01*
X156751000Y-84891000D01*
X156768127Y-84804896D01*
X156816901Y-84731901D01*
X156889896Y-84683127D01*
X156976000Y-84666000D01*
X157476000Y-84666000D01*
X157562104Y-84683127D01*
G37*
G36*
X159086104Y-84683127D02*
G01*
X159159099Y-84731901D01*
X159207873Y-84804896D01*
X159225000Y-84891000D01*
X159225000Y-85341000D01*
X159207873Y-85427104D01*
X159159099Y-85500099D01*
X159086104Y-85548873D01*
X159000000Y-85566000D01*
X158500000Y-85566000D01*
X158413896Y-85548873D01*
X158340901Y-85500099D01*
X158292127Y-85427104D01*
X158275000Y-85341000D01*
X158275000Y-84891000D01*
X158292127Y-84804896D01*
X158340901Y-84731901D01*
X158413896Y-84683127D01*
X158500000Y-84666000D01*
X159000000Y-84666000D01*
X159086104Y-84683127D01*
G37*
G36*
X160610104Y-84683127D02*
G01*
X160683099Y-84731901D01*
X160731873Y-84804896D01*
X160749000Y-84891000D01*
X160749000Y-85341000D01*
X160731873Y-85427104D01*
X160683099Y-85500099D01*
X160610104Y-85548873D01*
X160524000Y-85566000D01*
X160024000Y-85566000D01*
X159937896Y-85548873D01*
X159864901Y-85500099D01*
X159816127Y-85427104D01*
X159799000Y-85341000D01*
X159799000Y-84891000D01*
X159816127Y-84804896D01*
X159864901Y-84731901D01*
X159937896Y-84683127D01*
X160024000Y-84666000D01*
X160524000Y-84666000D01*
X160610104Y-84683127D01*
G37*
G36*
X138778576Y-84536657D02*
G01*
X138823995Y-84567005D01*
X138854343Y-84612424D01*
X138865000Y-84666000D01*
X138865000Y-85006000D01*
X138854343Y-85059576D01*
X138823995Y-85104995D01*
X138778576Y-85135343D01*
X138725000Y-85146000D01*
X138445000Y-85146000D01*
X138391424Y-85135343D01*
X138346005Y-85104995D01*
X138315657Y-85059576D01*
X138305000Y-85006000D01*
X138305000Y-84666000D01*
X138315657Y-84612424D01*
X138346005Y-84567005D01*
X138391424Y-84536657D01*
X138445000Y-84526000D01*
X138725000Y-84526000D01*
X138778576Y-84536657D01*
G37*
G36*
X139738576Y-84536657D02*
G01*
X139783995Y-84567005D01*
X139814343Y-84612424D01*
X139825000Y-84666000D01*
X139825000Y-85006000D01*
X139814343Y-85059576D01*
X139783995Y-85104995D01*
X139738576Y-85135343D01*
X139685000Y-85146000D01*
X139405000Y-85146000D01*
X139351424Y-85135343D01*
X139306005Y-85104995D01*
X139275657Y-85059576D01*
X139265000Y-85006000D01*
X139265000Y-84666000D01*
X139275657Y-84612424D01*
X139306005Y-84567005D01*
X139351424Y-84536657D01*
X139405000Y-84526000D01*
X139685000Y-84526000D01*
X139738576Y-84536657D01*
G37*
G36*
X162083104Y-83121129D02*
G01*
X162156099Y-83169903D01*
X162204873Y-83242898D01*
X162222000Y-83329002D01*
X162222000Y-83829002D01*
X162204873Y-83915106D01*
X162156099Y-83988101D01*
X162083104Y-84036875D01*
X161997000Y-84054002D01*
X161547000Y-84054002D01*
X161460896Y-84036875D01*
X161387901Y-83988101D01*
X161339127Y-83915106D01*
X161322000Y-83829002D01*
X161322000Y-83329002D01*
X161339127Y-83242898D01*
X161387901Y-83169903D01*
X161460896Y-83121129D01*
X161547000Y-83104002D01*
X161997000Y-83104002D01*
X162083104Y-83121129D01*
G37*
G36*
X163633104Y-83121129D02*
G01*
X163706099Y-83169903D01*
X163754873Y-83242898D01*
X163772000Y-83329002D01*
X163772000Y-83829002D01*
X163754873Y-83915106D01*
X163706099Y-83988101D01*
X163633104Y-84036875D01*
X163547000Y-84054002D01*
X163097000Y-84054002D01*
X163010896Y-84036875D01*
X162937901Y-83988101D01*
X162889127Y-83915106D01*
X162872000Y-83829002D01*
X162872000Y-83329002D01*
X162889127Y-83242898D01*
X162937901Y-83169903D01*
X163010896Y-83121129D01*
X163097000Y-83104002D01*
X163547000Y-83104002D01*
X163633104Y-83121129D01*
G37*
G36*
X149942104Y-83133127D02*
G01*
X150015099Y-83181901D01*
X150063873Y-83254896D01*
X150081000Y-83341000D01*
X150081000Y-83791000D01*
X150063873Y-83877104D01*
X150015099Y-83950099D01*
X149942104Y-83998873D01*
X149856000Y-84016000D01*
X149356000Y-84016000D01*
X149269896Y-83998873D01*
X149196901Y-83950099D01*
X149148127Y-83877104D01*
X149131000Y-83791000D01*
X149131000Y-83341000D01*
X149148127Y-83254896D01*
X149196901Y-83181901D01*
X149269896Y-83133127D01*
X149356000Y-83116000D01*
X149856000Y-83116000D01*
X149942104Y-83133127D01*
G37*
G36*
X151466104Y-83133127D02*
G01*
X151539099Y-83181901D01*
X151587873Y-83254896D01*
X151605000Y-83341000D01*
X151605000Y-83791000D01*
X151587873Y-83877104D01*
X151539099Y-83950099D01*
X151466104Y-83998873D01*
X151380000Y-84016000D01*
X150880000Y-84016000D01*
X150793896Y-83998873D01*
X150720901Y-83950099D01*
X150672127Y-83877104D01*
X150655000Y-83791000D01*
X150655000Y-83341000D01*
X150672127Y-83254896D01*
X150720901Y-83181901D01*
X150793896Y-83133127D01*
X150880000Y-83116000D01*
X151380000Y-83116000D01*
X151466104Y-83133127D01*
G37*
G36*
X152990104Y-83133127D02*
G01*
X153063099Y-83181901D01*
X153111873Y-83254896D01*
X153129000Y-83341000D01*
X153129000Y-83791000D01*
X153111873Y-83877104D01*
X153063099Y-83950099D01*
X152990104Y-83998873D01*
X152904000Y-84016000D01*
X152404000Y-84016000D01*
X152317896Y-83998873D01*
X152244901Y-83950099D01*
X152196127Y-83877104D01*
X152179000Y-83791000D01*
X152179000Y-83341000D01*
X152196127Y-83254896D01*
X152244901Y-83181901D01*
X152317896Y-83133127D01*
X152404000Y-83116000D01*
X152904000Y-83116000D01*
X152990104Y-83133127D01*
G37*
G36*
X154514104Y-83133127D02*
G01*
X154587099Y-83181901D01*
X154635873Y-83254896D01*
X154653000Y-83341000D01*
X154653000Y-83791000D01*
X154635873Y-83877104D01*
X154587099Y-83950099D01*
X154514104Y-83998873D01*
X154428000Y-84016000D01*
X153928000Y-84016000D01*
X153841896Y-83998873D01*
X153768901Y-83950099D01*
X153720127Y-83877104D01*
X153703000Y-83791000D01*
X153703000Y-83341000D01*
X153720127Y-83254896D01*
X153768901Y-83181901D01*
X153841896Y-83133127D01*
X153928000Y-83116000D01*
X154428000Y-83116000D01*
X154514104Y-83133127D01*
G37*
G36*
X156038104Y-83133127D02*
G01*
X156111099Y-83181901D01*
X156159873Y-83254896D01*
X156177000Y-83341000D01*
X156177000Y-83791000D01*
X156159873Y-83877104D01*
X156111099Y-83950099D01*
X156038104Y-83998873D01*
X155952000Y-84016000D01*
X155452000Y-84016000D01*
X155365896Y-83998873D01*
X155292901Y-83950099D01*
X155244127Y-83877104D01*
X155227000Y-83791000D01*
X155227000Y-83341000D01*
X155244127Y-83254896D01*
X155292901Y-83181901D01*
X155365896Y-83133127D01*
X155452000Y-83116000D01*
X155952000Y-83116000D01*
X156038104Y-83133127D01*
G37*
G36*
X157562104Y-83133127D02*
G01*
X157635099Y-83181901D01*
X157683873Y-83254896D01*
X157701000Y-83341000D01*
X157701000Y-83791000D01*
X157683873Y-83877104D01*
X157635099Y-83950099D01*
X157562104Y-83998873D01*
X157476000Y-84016000D01*
X156976000Y-84016000D01*
X156889896Y-83998873D01*
X156816901Y-83950099D01*
X156768127Y-83877104D01*
X156751000Y-83791000D01*
X156751000Y-83341000D01*
X156768127Y-83254896D01*
X156816901Y-83181901D01*
X156889896Y-83133127D01*
X156976000Y-83116000D01*
X157476000Y-83116000D01*
X157562104Y-83133127D01*
G37*
G36*
X159086104Y-83133127D02*
G01*
X159159099Y-83181901D01*
X159207873Y-83254896D01*
X159225000Y-83341000D01*
X159225000Y-83791000D01*
X159207873Y-83877104D01*
X159159099Y-83950099D01*
X159086104Y-83998873D01*
X159000000Y-84016000D01*
X158500000Y-84016000D01*
X158413896Y-83998873D01*
X158340901Y-83950099D01*
X158292127Y-83877104D01*
X158275000Y-83791000D01*
X158275000Y-83341000D01*
X158292127Y-83254896D01*
X158340901Y-83181901D01*
X158413896Y-83133127D01*
X158500000Y-83116000D01*
X159000000Y-83116000D01*
X159086104Y-83133127D01*
G37*
G36*
X160610104Y-83133127D02*
G01*
X160683099Y-83181901D01*
X160731873Y-83254896D01*
X160749000Y-83341000D01*
X160749000Y-83791000D01*
X160731873Y-83877104D01*
X160683099Y-83950099D01*
X160610104Y-83998873D01*
X160524000Y-84016000D01*
X160024000Y-84016000D01*
X159937896Y-83998873D01*
X159864901Y-83950099D01*
X159816127Y-83877104D01*
X159799000Y-83791000D01*
X159799000Y-83341000D01*
X159816127Y-83254896D01*
X159864901Y-83181901D01*
X159937896Y-83133127D01*
X160024000Y-83116000D01*
X160524000Y-83116000D01*
X160610104Y-83133127D01*
G37*
G36*
X140269712Y-83622213D02*
G01*
X140302155Y-83643890D01*
X140323832Y-83676333D01*
X140331444Y-83714601D01*
X140331444Y-83914601D01*
X140323832Y-83952869D01*
X140302155Y-83985312D01*
X140269712Y-84006989D01*
X140231444Y-84014601D01*
X138956444Y-84014601D01*
X138918176Y-84006989D01*
X138885733Y-83985312D01*
X138864056Y-83952869D01*
X138856444Y-83914601D01*
X138856444Y-83714601D01*
X138864056Y-83676333D01*
X138885733Y-83643890D01*
X138918176Y-83622213D01*
X138956444Y-83614601D01*
X140231444Y-83614601D01*
X140269712Y-83622213D01*
G37*
G36*
X145994712Y-83622213D02*
G01*
X146027155Y-83643890D01*
X146048832Y-83676333D01*
X146056444Y-83714601D01*
X146056444Y-83914601D01*
X146048832Y-83952869D01*
X146027155Y-83985312D01*
X145994712Y-84006989D01*
X145956444Y-84014601D01*
X144681444Y-84014601D01*
X144643176Y-84006989D01*
X144610733Y-83985312D01*
X144589056Y-83952869D01*
X144581444Y-83914601D01*
X144581444Y-83714601D01*
X144589056Y-83676333D01*
X144610733Y-83643890D01*
X144643176Y-83622213D01*
X144681444Y-83614601D01*
X145956444Y-83614601D01*
X145994712Y-83622213D01*
G37*
G36*
X140269712Y-82972213D02*
G01*
X140302155Y-82993890D01*
X140323832Y-83026333D01*
X140331444Y-83064601D01*
X140331444Y-83264601D01*
X140323832Y-83302869D01*
X140302155Y-83335312D01*
X140269712Y-83356989D01*
X140231444Y-83364601D01*
X138956444Y-83364601D01*
X138918176Y-83356989D01*
X138885733Y-83335312D01*
X138864056Y-83302869D01*
X138856444Y-83264601D01*
X138856444Y-83064601D01*
X138864056Y-83026333D01*
X138885733Y-82993890D01*
X138918176Y-82972213D01*
X138956444Y-82964601D01*
X140231444Y-82964601D01*
X140269712Y-82972213D01*
G37*
G36*
X145994712Y-82972213D02*
G01*
X146027155Y-82993890D01*
X146048832Y-83026333D01*
X146056444Y-83064601D01*
X146056444Y-83264601D01*
X146048832Y-83302869D01*
X146027155Y-83335312D01*
X145994712Y-83356989D01*
X145956444Y-83364601D01*
X144681444Y-83364601D01*
X144643176Y-83356989D01*
X144610733Y-83335312D01*
X144589056Y-83302869D01*
X144581444Y-83264601D01*
X144581444Y-83064601D01*
X144589056Y-83026333D01*
X144610733Y-82993890D01*
X144643176Y-82972213D01*
X144681444Y-82964601D01*
X145956444Y-82964601D01*
X145994712Y-82972213D01*
G37*
G36*
X140269712Y-82322213D02*
G01*
X140302155Y-82343890D01*
X140323832Y-82376333D01*
X140331444Y-82414601D01*
X140331444Y-82614601D01*
X140323832Y-82652869D01*
X140302155Y-82685312D01*
X140269712Y-82706989D01*
X140231444Y-82714601D01*
X138956444Y-82714601D01*
X138918176Y-82706989D01*
X138885733Y-82685312D01*
X138864056Y-82652869D01*
X138856444Y-82614601D01*
X138856444Y-82414601D01*
X138864056Y-82376333D01*
X138885733Y-82343890D01*
X138918176Y-82322213D01*
X138956444Y-82314601D01*
X140231444Y-82314601D01*
X140269712Y-82322213D01*
G37*
G36*
X145994712Y-82322213D02*
G01*
X146027155Y-82343890D01*
X146048832Y-82376333D01*
X146056444Y-82414601D01*
X146056444Y-82614601D01*
X146048832Y-82652869D01*
X146027155Y-82685312D01*
X145994712Y-82706989D01*
X145956444Y-82714601D01*
X144681444Y-82714601D01*
X144643176Y-82706989D01*
X144610733Y-82685312D01*
X144589056Y-82652869D01*
X144581444Y-82614601D01*
X144581444Y-82414601D01*
X144589056Y-82376333D01*
X144610733Y-82343890D01*
X144643176Y-82322213D01*
X144681444Y-82314601D01*
X145956444Y-82314601D01*
X145994712Y-82322213D01*
G37*
G36*
X162083104Y-81597129D02*
G01*
X162156099Y-81645903D01*
X162204873Y-81718898D01*
X162222000Y-81805002D01*
X162222000Y-82305002D01*
X162204873Y-82391106D01*
X162156099Y-82464101D01*
X162083104Y-82512875D01*
X161997000Y-82530002D01*
X161547000Y-82530002D01*
X161460896Y-82512875D01*
X161387901Y-82464101D01*
X161339127Y-82391106D01*
X161322000Y-82305002D01*
X161322000Y-81805002D01*
X161339127Y-81718898D01*
X161387901Y-81645903D01*
X161460896Y-81597129D01*
X161547000Y-81580002D01*
X161997000Y-81580002D01*
X162083104Y-81597129D01*
G37*
G36*
X163633104Y-81597129D02*
G01*
X163706099Y-81645903D01*
X163754873Y-81718898D01*
X163772000Y-81805002D01*
X163772000Y-82305002D01*
X163754873Y-82391106D01*
X163706099Y-82464101D01*
X163633104Y-82512875D01*
X163547000Y-82530002D01*
X163097000Y-82530002D01*
X163010896Y-82512875D01*
X162937901Y-82464101D01*
X162889127Y-82391106D01*
X162872000Y-82305002D01*
X162872000Y-81805002D01*
X162889127Y-81718898D01*
X162937901Y-81645903D01*
X163010896Y-81597129D01*
X163097000Y-81580002D01*
X163547000Y-81580002D01*
X163633104Y-81597129D01*
G37*
G36*
X149942104Y-81622129D02*
G01*
X150015099Y-81670903D01*
X150063873Y-81743898D01*
X150081000Y-81830002D01*
X150081000Y-82280002D01*
X150063873Y-82366106D01*
X150015099Y-82439101D01*
X149942104Y-82487875D01*
X149856000Y-82505002D01*
X149356000Y-82505002D01*
X149269896Y-82487875D01*
X149196901Y-82439101D01*
X149148127Y-82366106D01*
X149131000Y-82280002D01*
X149131000Y-81830002D01*
X149148127Y-81743898D01*
X149196901Y-81670903D01*
X149269896Y-81622129D01*
X149356000Y-81605002D01*
X149856000Y-81605002D01*
X149942104Y-81622129D01*
G37*
G36*
X151466104Y-81622129D02*
G01*
X151539099Y-81670903D01*
X151587873Y-81743898D01*
X151605000Y-81830002D01*
X151605000Y-82280002D01*
X151587873Y-82366106D01*
X151539099Y-82439101D01*
X151466104Y-82487875D01*
X151380000Y-82505002D01*
X150880000Y-82505002D01*
X150793896Y-82487875D01*
X150720901Y-82439101D01*
X150672127Y-82366106D01*
X150655000Y-82280002D01*
X150655000Y-81830002D01*
X150672127Y-81743898D01*
X150720901Y-81670903D01*
X150793896Y-81622129D01*
X150880000Y-81605002D01*
X151380000Y-81605002D01*
X151466104Y-81622129D01*
G37*
G36*
X152990104Y-81622129D02*
G01*
X153063099Y-81670903D01*
X153111873Y-81743898D01*
X153129000Y-81830002D01*
X153129000Y-82280002D01*
X153111873Y-82366106D01*
X153063099Y-82439101D01*
X152990104Y-82487875D01*
X152904000Y-82505002D01*
X152404000Y-82505002D01*
X152317896Y-82487875D01*
X152244901Y-82439101D01*
X152196127Y-82366106D01*
X152179000Y-82280002D01*
X152179000Y-81830002D01*
X152196127Y-81743898D01*
X152244901Y-81670903D01*
X152317896Y-81622129D01*
X152404000Y-81605002D01*
X152904000Y-81605002D01*
X152990104Y-81622129D01*
G37*
G36*
X154514104Y-81622129D02*
G01*
X154587099Y-81670903D01*
X154635873Y-81743898D01*
X154653000Y-81830002D01*
X154653000Y-82280002D01*
X154635873Y-82366106D01*
X154587099Y-82439101D01*
X154514104Y-82487875D01*
X154428000Y-82505002D01*
X153928000Y-82505002D01*
X153841896Y-82487875D01*
X153768901Y-82439101D01*
X153720127Y-82366106D01*
X153703000Y-82280002D01*
X153703000Y-81830002D01*
X153720127Y-81743898D01*
X153768901Y-81670903D01*
X153841896Y-81622129D01*
X153928000Y-81605002D01*
X154428000Y-81605002D01*
X154514104Y-81622129D01*
G37*
G36*
X156038104Y-81622129D02*
G01*
X156111099Y-81670903D01*
X156159873Y-81743898D01*
X156177000Y-81830002D01*
X156177000Y-82280002D01*
X156159873Y-82366106D01*
X156111099Y-82439101D01*
X156038104Y-82487875D01*
X155952000Y-82505002D01*
X155452000Y-82505002D01*
X155365896Y-82487875D01*
X155292901Y-82439101D01*
X155244127Y-82366106D01*
X155227000Y-82280002D01*
X155227000Y-81830002D01*
X155244127Y-81743898D01*
X155292901Y-81670903D01*
X155365896Y-81622129D01*
X155452000Y-81605002D01*
X155952000Y-81605002D01*
X156038104Y-81622129D01*
G37*
G36*
X157562104Y-81622129D02*
G01*
X157635099Y-81670903D01*
X157683873Y-81743898D01*
X157701000Y-81830002D01*
X157701000Y-82280002D01*
X157683873Y-82366106D01*
X157635099Y-82439101D01*
X157562104Y-82487875D01*
X157476000Y-82505002D01*
X156976000Y-82505002D01*
X156889896Y-82487875D01*
X156816901Y-82439101D01*
X156768127Y-82366106D01*
X156751000Y-82280002D01*
X156751000Y-81830002D01*
X156768127Y-81743898D01*
X156816901Y-81670903D01*
X156889896Y-81622129D01*
X156976000Y-81605002D01*
X157476000Y-81605002D01*
X157562104Y-81622129D01*
G37*
G36*
X159079104Y-81622129D02*
G01*
X159152099Y-81670903D01*
X159200873Y-81743898D01*
X159218000Y-81830002D01*
X159218000Y-82280002D01*
X159200873Y-82366106D01*
X159152099Y-82439101D01*
X159079104Y-82487875D01*
X158993000Y-82505002D01*
X158493000Y-82505002D01*
X158406896Y-82487875D01*
X158333901Y-82439101D01*
X158285127Y-82366106D01*
X158268000Y-82280002D01*
X158268000Y-81830002D01*
X158285127Y-81743898D01*
X158333901Y-81670903D01*
X158406896Y-81622129D01*
X158493000Y-81605002D01*
X158993000Y-81605002D01*
X159079104Y-81622129D01*
G37*
G36*
X160603104Y-81622129D02*
G01*
X160676099Y-81670903D01*
X160724873Y-81743898D01*
X160742000Y-81830002D01*
X160742000Y-82280002D01*
X160724873Y-82366106D01*
X160676099Y-82439101D01*
X160603104Y-82487875D01*
X160517000Y-82505002D01*
X160017000Y-82505002D01*
X159930896Y-82487875D01*
X159857901Y-82439101D01*
X159809127Y-82366106D01*
X159792000Y-82280002D01*
X159792000Y-81830002D01*
X159809127Y-81743898D01*
X159857901Y-81670903D01*
X159930896Y-81622129D01*
X160017000Y-81605002D01*
X160517000Y-81605002D01*
X160603104Y-81622129D01*
G37*
G36*
X140269712Y-81672213D02*
G01*
X140302155Y-81693890D01*
X140323832Y-81726333D01*
X140331444Y-81764601D01*
X140331444Y-81964601D01*
X140323832Y-82002869D01*
X140302155Y-82035312D01*
X140269712Y-82056989D01*
X140231444Y-82064601D01*
X138956444Y-82064601D01*
X138918176Y-82056989D01*
X138885733Y-82035312D01*
X138864056Y-82002869D01*
X138856444Y-81964601D01*
X138856444Y-81764601D01*
X138864056Y-81726333D01*
X138885733Y-81693890D01*
X138918176Y-81672213D01*
X138956444Y-81664601D01*
X140231444Y-81664601D01*
X140269712Y-81672213D01*
G37*
G36*
X145994712Y-81672213D02*
G01*
X146027155Y-81693890D01*
X146048832Y-81726333D01*
X146056444Y-81764601D01*
X146056444Y-81964601D01*
X146048832Y-82002869D01*
X146027155Y-82035312D01*
X145994712Y-82056989D01*
X145956444Y-82064601D01*
X144681444Y-82064601D01*
X144643176Y-82056989D01*
X144610733Y-82035312D01*
X144589056Y-82002869D01*
X144581444Y-81964601D01*
X144581444Y-81764601D01*
X144589056Y-81726333D01*
X144610733Y-81693890D01*
X144643176Y-81672213D01*
X144681444Y-81664601D01*
X145956444Y-81664601D01*
X145994712Y-81672213D01*
G37*
G36*
X140269712Y-81022213D02*
G01*
X140302155Y-81043890D01*
X140323832Y-81076333D01*
X140331444Y-81114601D01*
X140331444Y-81314601D01*
X140323832Y-81352869D01*
X140302155Y-81385312D01*
X140269712Y-81406989D01*
X140231444Y-81414601D01*
X138956444Y-81414601D01*
X138918176Y-81406989D01*
X138885733Y-81385312D01*
X138864056Y-81352869D01*
X138856444Y-81314601D01*
X138856444Y-81114601D01*
X138864056Y-81076333D01*
X138885733Y-81043890D01*
X138918176Y-81022213D01*
X138956444Y-81014601D01*
X140231444Y-81014601D01*
X140269712Y-81022213D01*
G37*
G36*
X145994712Y-81022213D02*
G01*
X146027155Y-81043890D01*
X146048832Y-81076333D01*
X146056444Y-81114601D01*
X146056444Y-81314601D01*
X146048832Y-81352869D01*
X146027155Y-81385312D01*
X145994712Y-81406989D01*
X145956444Y-81414601D01*
X144681444Y-81414601D01*
X144643176Y-81406989D01*
X144610733Y-81385312D01*
X144589056Y-81352869D01*
X144581444Y-81314601D01*
X144581444Y-81114601D01*
X144589056Y-81076333D01*
X144610733Y-81043890D01*
X144643176Y-81022213D01*
X144681444Y-81014601D01*
X145956444Y-81014601D01*
X145994712Y-81022213D01*
G37*
G36*
X149942104Y-80072129D02*
G01*
X150015099Y-80120903D01*
X150063873Y-80193898D01*
X150081000Y-80280002D01*
X150081000Y-80730002D01*
X150063873Y-80816106D01*
X150015099Y-80889101D01*
X149942104Y-80937875D01*
X149856000Y-80955002D01*
X149356000Y-80955002D01*
X149269896Y-80937875D01*
X149196901Y-80889101D01*
X149148127Y-80816106D01*
X149131000Y-80730002D01*
X149131000Y-80280002D01*
X149148127Y-80193898D01*
X149196901Y-80120903D01*
X149269896Y-80072129D01*
X149356000Y-80055002D01*
X149856000Y-80055002D01*
X149942104Y-80072129D01*
G37*
G36*
X151466104Y-80072129D02*
G01*
X151539099Y-80120903D01*
X151587873Y-80193898D01*
X151605000Y-80280002D01*
X151605000Y-80730002D01*
X151587873Y-80816106D01*
X151539099Y-80889101D01*
X151466104Y-80937875D01*
X151380000Y-80955002D01*
X150880000Y-80955002D01*
X150793896Y-80937875D01*
X150720901Y-80889101D01*
X150672127Y-80816106D01*
X150655000Y-80730002D01*
X150655000Y-80280002D01*
X150672127Y-80193898D01*
X150720901Y-80120903D01*
X150793896Y-80072129D01*
X150880000Y-80055002D01*
X151380000Y-80055002D01*
X151466104Y-80072129D01*
G37*
G36*
X152990104Y-80072129D02*
G01*
X153063099Y-80120903D01*
X153111873Y-80193898D01*
X153129000Y-80280002D01*
X153129000Y-80730002D01*
X153111873Y-80816106D01*
X153063099Y-80889101D01*
X152990104Y-80937875D01*
X152904000Y-80955002D01*
X152404000Y-80955002D01*
X152317896Y-80937875D01*
X152244901Y-80889101D01*
X152196127Y-80816106D01*
X152179000Y-80730002D01*
X152179000Y-80280002D01*
X152196127Y-80193898D01*
X152244901Y-80120903D01*
X152317896Y-80072129D01*
X152404000Y-80055002D01*
X152904000Y-80055002D01*
X152990104Y-80072129D01*
G37*
G36*
X154514104Y-80072129D02*
G01*
X154587099Y-80120903D01*
X154635873Y-80193898D01*
X154653000Y-80280002D01*
X154653000Y-80730002D01*
X154635873Y-80816106D01*
X154587099Y-80889101D01*
X154514104Y-80937875D01*
X154428000Y-80955002D01*
X153928000Y-80955002D01*
X153841896Y-80937875D01*
X153768901Y-80889101D01*
X153720127Y-80816106D01*
X153703000Y-80730002D01*
X153703000Y-80280002D01*
X153720127Y-80193898D01*
X153768901Y-80120903D01*
X153841896Y-80072129D01*
X153928000Y-80055002D01*
X154428000Y-80055002D01*
X154514104Y-80072129D01*
G37*
G36*
X156038104Y-80072129D02*
G01*
X156111099Y-80120903D01*
X156159873Y-80193898D01*
X156177000Y-80280002D01*
X156177000Y-80730002D01*
X156159873Y-80816106D01*
X156111099Y-80889101D01*
X156038104Y-80937875D01*
X155952000Y-80955002D01*
X155452000Y-80955002D01*
X155365896Y-80937875D01*
X155292901Y-80889101D01*
X155244127Y-80816106D01*
X155227000Y-80730002D01*
X155227000Y-80280002D01*
X155244127Y-80193898D01*
X155292901Y-80120903D01*
X155365896Y-80072129D01*
X155452000Y-80055002D01*
X155952000Y-80055002D01*
X156038104Y-80072129D01*
G37*
G36*
X157562104Y-80072129D02*
G01*
X157635099Y-80120903D01*
X157683873Y-80193898D01*
X157701000Y-80280002D01*
X157701000Y-80730002D01*
X157683873Y-80816106D01*
X157635099Y-80889101D01*
X157562104Y-80937875D01*
X157476000Y-80955002D01*
X156976000Y-80955002D01*
X156889896Y-80937875D01*
X156816901Y-80889101D01*
X156768127Y-80816106D01*
X156751000Y-80730002D01*
X156751000Y-80280002D01*
X156768127Y-80193898D01*
X156816901Y-80120903D01*
X156889896Y-80072129D01*
X156976000Y-80055002D01*
X157476000Y-80055002D01*
X157562104Y-80072129D01*
G37*
G36*
X159079104Y-80072129D02*
G01*
X159152099Y-80120903D01*
X159200873Y-80193898D01*
X159218000Y-80280002D01*
X159218000Y-80730002D01*
X159200873Y-80816106D01*
X159152099Y-80889101D01*
X159079104Y-80937875D01*
X158993000Y-80955002D01*
X158493000Y-80955002D01*
X158406896Y-80937875D01*
X158333901Y-80889101D01*
X158285127Y-80816106D01*
X158268000Y-80730002D01*
X158268000Y-80280002D01*
X158285127Y-80193898D01*
X158333901Y-80120903D01*
X158406896Y-80072129D01*
X158493000Y-80055002D01*
X158993000Y-80055002D01*
X159079104Y-80072129D01*
G37*
G36*
X160603104Y-80072129D02*
G01*
X160676099Y-80120903D01*
X160724873Y-80193898D01*
X160742000Y-80280002D01*
X160742000Y-80730002D01*
X160724873Y-80816106D01*
X160676099Y-80889101D01*
X160603104Y-80937875D01*
X160517000Y-80955002D01*
X160017000Y-80955002D01*
X159930896Y-80937875D01*
X159857901Y-80889101D01*
X159809127Y-80816106D01*
X159792000Y-80730002D01*
X159792000Y-80280002D01*
X159809127Y-80193898D01*
X159857901Y-80120903D01*
X159930896Y-80072129D01*
X160017000Y-80055002D01*
X160517000Y-80055002D01*
X160603104Y-80072129D01*
G37*
G36*
X140269712Y-80372213D02*
G01*
X140302155Y-80393890D01*
X140323832Y-80426333D01*
X140331444Y-80464601D01*
X140331444Y-80664601D01*
X140323832Y-80702869D01*
X140302155Y-80735312D01*
X140269712Y-80756989D01*
X140231444Y-80764601D01*
X138956444Y-80764601D01*
X138918176Y-80756989D01*
X138885733Y-80735312D01*
X138864056Y-80702869D01*
X138856444Y-80664601D01*
X138856444Y-80464601D01*
X138864056Y-80426333D01*
X138885733Y-80393890D01*
X138918176Y-80372213D01*
X138956444Y-80364601D01*
X140231444Y-80364601D01*
X140269712Y-80372213D01*
G37*
G36*
X145994712Y-80372213D02*
G01*
X146027155Y-80393890D01*
X146048832Y-80426333D01*
X146056444Y-80464601D01*
X146056444Y-80664601D01*
X146048832Y-80702869D01*
X146027155Y-80735312D01*
X145994712Y-80756989D01*
X145956444Y-80764601D01*
X144681444Y-80764601D01*
X144643176Y-80756989D01*
X144610733Y-80735312D01*
X144589056Y-80702869D01*
X144581444Y-80664601D01*
X144581444Y-80464601D01*
X144589056Y-80426333D01*
X144610733Y-80393890D01*
X144643176Y-80372213D01*
X144681444Y-80364601D01*
X145956444Y-80364601D01*
X145994712Y-80372213D01*
G37*
G36*
X140269712Y-79722213D02*
G01*
X140302155Y-79743890D01*
X140323832Y-79776333D01*
X140331444Y-79814601D01*
X140331444Y-80014601D01*
X140323832Y-80052869D01*
X140302155Y-80085312D01*
X140269712Y-80106989D01*
X140231444Y-80114601D01*
X138956444Y-80114601D01*
X138918176Y-80106989D01*
X138885733Y-80085312D01*
X138864056Y-80052869D01*
X138856444Y-80014601D01*
X138856444Y-79814601D01*
X138864056Y-79776333D01*
X138885733Y-79743890D01*
X138918176Y-79722213D01*
X138956444Y-79714601D01*
X140231444Y-79714601D01*
X140269712Y-79722213D01*
G37*
G36*
X145994712Y-79722213D02*
G01*
X146027155Y-79743890D01*
X146048832Y-79776333D01*
X146056444Y-79814601D01*
X146056444Y-80014601D01*
X146048832Y-80052869D01*
X146027155Y-80085312D01*
X145994712Y-80106989D01*
X145956444Y-80114601D01*
X144681444Y-80114601D01*
X144643176Y-80106989D01*
X144610733Y-80085312D01*
X144589056Y-80052869D01*
X144581444Y-80014601D01*
X144581444Y-79814601D01*
X144589056Y-79776333D01*
X144610733Y-79743890D01*
X144643176Y-79722213D01*
X144681444Y-79714601D01*
X145956444Y-79714601D01*
X145994712Y-79722213D01*
G37*
G36*
X140269712Y-79072213D02*
G01*
X140302155Y-79093890D01*
X140323832Y-79126333D01*
X140331444Y-79164601D01*
X140331444Y-79364601D01*
X140323832Y-79402869D01*
X140302155Y-79435312D01*
X140269712Y-79456989D01*
X140231444Y-79464601D01*
X138956444Y-79464601D01*
X138918176Y-79456989D01*
X138885733Y-79435312D01*
X138864056Y-79402869D01*
X138856444Y-79364601D01*
X138856444Y-79164601D01*
X138864056Y-79126333D01*
X138885733Y-79093890D01*
X138918176Y-79072213D01*
X138956444Y-79064601D01*
X140231444Y-79064601D01*
X140269712Y-79072213D01*
G37*
G36*
X145994712Y-79072213D02*
G01*
X146027155Y-79093890D01*
X146048832Y-79126333D01*
X146056444Y-79164601D01*
X146056444Y-79364601D01*
X146048832Y-79402869D01*
X146027155Y-79435312D01*
X145994712Y-79456989D01*
X145956444Y-79464601D01*
X144681444Y-79464601D01*
X144643176Y-79456989D01*
X144610733Y-79435312D01*
X144589056Y-79402869D01*
X144581444Y-79364601D01*
X144581444Y-79164601D01*
X144589056Y-79126333D01*
X144610733Y-79093890D01*
X144643176Y-79072213D01*
X144681444Y-79064601D01*
X145956444Y-79064601D01*
X145994712Y-79072213D01*
G37*
G36*
X129770672Y-74886508D02*
G01*
X130010735Y-74950833D01*
X130240349Y-75045942D01*
X130455583Y-75170208D01*
X130652757Y-75321504D01*
X130828496Y-75497243D01*
X130979792Y-75694417D01*
X131104058Y-75909651D01*
X131199167Y-76139265D01*
X131263492Y-76379328D01*
X131295932Y-76625734D01*
X131295932Y-76874266D01*
X131263492Y-77120672D01*
X131199167Y-77360735D01*
X131104058Y-77590349D01*
X130979792Y-77805583D01*
X130828496Y-78002757D01*
X130652757Y-78178496D01*
X130455583Y-78329792D01*
X130240349Y-78454058D01*
X130010735Y-78549167D01*
X129770672Y-78613492D01*
X129524266Y-78645932D01*
X129275734Y-78645932D01*
X129029328Y-78613492D01*
X128789265Y-78549167D01*
X128559651Y-78454058D01*
X128344417Y-78329792D01*
X128147243Y-78178496D01*
X127971504Y-78002757D01*
X127820208Y-77805583D01*
X127695942Y-77590349D01*
X127600833Y-77360735D01*
X127536508Y-77120672D01*
X127504068Y-76874266D01*
X127504068Y-76625734D01*
X127536508Y-76379328D01*
X127600833Y-76139265D01*
X127695942Y-75909651D01*
X127820208Y-75694417D01*
X127971504Y-75497243D01*
X128147243Y-75321504D01*
X128344417Y-75170208D01*
X128559651Y-75045942D01*
X128789265Y-74950833D01*
X129029328Y-74886508D01*
X129275734Y-74854068D01*
X129524266Y-74854068D01*
X129770672Y-74886508D01*
G37*
G36*
X163270672Y-74886508D02*
G01*
X163510735Y-74950833D01*
X163740349Y-75045942D01*
X163955583Y-75170208D01*
X164152757Y-75321504D01*
X164328496Y-75497243D01*
X164479792Y-75694417D01*
X164604058Y-75909651D01*
X164699167Y-76139265D01*
X164763492Y-76379328D01*
X164795932Y-76625734D01*
X164795932Y-76874266D01*
X164763492Y-77120672D01*
X164699167Y-77360735D01*
X164604058Y-77590349D01*
X164479792Y-77805583D01*
X164328496Y-78002757D01*
X164152757Y-78178496D01*
X163955583Y-78329792D01*
X163740349Y-78454058D01*
X163510735Y-78549167D01*
X163270672Y-78613492D01*
X163024266Y-78645932D01*
X162775734Y-78645932D01*
X162529328Y-78613492D01*
X162289265Y-78549167D01*
X162059651Y-78454058D01*
X161844417Y-78329792D01*
X161647243Y-78178496D01*
X161471504Y-78002757D01*
X161320208Y-77805583D01*
X161195942Y-77590349D01*
X161100833Y-77360735D01*
X161036508Y-77120672D01*
X161004068Y-76874266D01*
X161004068Y-76625734D01*
X161036508Y-76379328D01*
X161100833Y-76139265D01*
X161195942Y-75909651D01*
X161320208Y-75694417D01*
X161471504Y-75497243D01*
X161647243Y-75321504D01*
X161844417Y-75170208D01*
X162059651Y-75045942D01*
X162289265Y-74950833D01*
X162529328Y-74886508D01*
X162775734Y-74854068D01*
X163024266Y-74854068D01*
X163270672Y-74886508D01*
G37*
G36*
X143409520Y-77938258D02*
G01*
X143454939Y-77968606D01*
X143485287Y-78014025D01*
X143495944Y-78067601D01*
X143495944Y-78407601D01*
X143485287Y-78461177D01*
X143454939Y-78506596D01*
X143409520Y-78536944D01*
X143355944Y-78547601D01*
X143075944Y-78547601D01*
X143022368Y-78536944D01*
X142976949Y-78506596D01*
X142946601Y-78461177D01*
X142935944Y-78407601D01*
X142935944Y-78067601D01*
X142946601Y-78014025D01*
X142976949Y-77968606D01*
X143022368Y-77938258D01*
X143075944Y-77927601D01*
X143355944Y-77927601D01*
X143409520Y-77938258D01*
G37*
G36*
X144369520Y-77938258D02*
G01*
X144414939Y-77968606D01*
X144445287Y-78014025D01*
X144455944Y-78067601D01*
X144455944Y-78407601D01*
X144445287Y-78461177D01*
X144414939Y-78506596D01*
X144369520Y-78536944D01*
X144315944Y-78547601D01*
X144035944Y-78547601D01*
X143982368Y-78536944D01*
X143936949Y-78506596D01*
X143906601Y-78461177D01*
X143895944Y-78407601D01*
X143895944Y-78067601D01*
X143906601Y-78014025D01*
X143936949Y-77968606D01*
X143982368Y-77938258D01*
X144035944Y-77927601D01*
X144315944Y-77927601D01*
X144369520Y-77938258D01*
G37*
G36*
X143483034Y-74914264D02*
G01*
X143516125Y-74936375D01*
X143538236Y-74969466D01*
X143546000Y-75008500D01*
X143546000Y-76516500D01*
X143538236Y-76555534D01*
X143516125Y-76588625D01*
X143483034Y-76610736D01*
X143444000Y-76618500D01*
X141936000Y-76618500D01*
X141896966Y-76610736D01*
X141863875Y-76588625D01*
X141841764Y-76555534D01*
X141834000Y-76516500D01*
X141834000Y-75008500D01*
X141841764Y-74969466D01*
X141863875Y-74936375D01*
X141896966Y-74914264D01*
X141936000Y-74906500D01*
X143444000Y-74906500D01*
X143483034Y-74914264D01*
G37*
G36*
X145478484Y-74943359D02*
G01*
X145633516Y-75007575D01*
X145773041Y-75100803D01*
X145891697Y-75219459D01*
X145984925Y-75358984D01*
X146049141Y-75514016D01*
X146081878Y-75678597D01*
X146081878Y-75846403D01*
X146049141Y-76010984D01*
X145984925Y-76166016D01*
X145891697Y-76305541D01*
X145773041Y-76424197D01*
X145633516Y-76517425D01*
X145478484Y-76581641D01*
X145313903Y-76614378D01*
X145146097Y-76614378D01*
X144981516Y-76581641D01*
X144826484Y-76517425D01*
X144686959Y-76424197D01*
X144568303Y-76305541D01*
X144475075Y-76166016D01*
X144410859Y-76010984D01*
X144378122Y-75846403D01*
X144378122Y-75678597D01*
X144410859Y-75514016D01*
X144475075Y-75358984D01*
X144568303Y-75219459D01*
X144686959Y-75100803D01*
X144826484Y-75007575D01*
X144981516Y-74943359D01*
X145146097Y-74910622D01*
X145313903Y-74910622D01*
X145478484Y-74943359D01*
G37*
G36*
X148018484Y-74943359D02*
G01*
X148173516Y-75007575D01*
X148313041Y-75100803D01*
X148431697Y-75219459D01*
X148524925Y-75358984D01*
X148589141Y-75514016D01*
X148621878Y-75678597D01*
X148621878Y-75846403D01*
X148589141Y-76010984D01*
X148524925Y-76166016D01*
X148431697Y-76305541D01*
X148313041Y-76424197D01*
X148173516Y-76517425D01*
X148018484Y-76581641D01*
X147853903Y-76614378D01*
X147686097Y-76614378D01*
X147521516Y-76581641D01*
X147366484Y-76517425D01*
X147226959Y-76424197D01*
X147108303Y-76305541D01*
X147015075Y-76166016D01*
X146950859Y-76010984D01*
X146918122Y-75846403D01*
X146918122Y-75678597D01*
X146950859Y-75514016D01*
X147015075Y-75358984D01*
X147108303Y-75219459D01*
X147226959Y-75100803D01*
X147366484Y-75007575D01*
X147521516Y-74943359D01*
X147686097Y-74910622D01*
X147853903Y-74910622D01*
X148018484Y-74943359D01*
G37*
G36*
X150558484Y-74943359D02*
G01*
X150713516Y-75007575D01*
X150853041Y-75100803D01*
X150971697Y-75219459D01*
X151064925Y-75358984D01*
X151129141Y-75514016D01*
X151161878Y-75678597D01*
X151161878Y-75846403D01*
X151129141Y-76010984D01*
X151064925Y-76166016D01*
X150971697Y-76305541D01*
X150853041Y-76424197D01*
X150713516Y-76517425D01*
X150558484Y-76581641D01*
X150393903Y-76614378D01*
X150226097Y-76614378D01*
X150061516Y-76581641D01*
X149906484Y-76517425D01*
X149766959Y-76424197D01*
X149648303Y-76305541D01*
X149555075Y-76166016D01*
X149490859Y-76010984D01*
X149458122Y-75846403D01*
X149458122Y-75678597D01*
X149490859Y-75514016D01*
X149555075Y-75358984D01*
X149648303Y-75219459D01*
X149766959Y-75100803D01*
X149906484Y-75007575D01*
X150061516Y-74943359D01*
X150226097Y-74910622D01*
X150393903Y-74910622D01*
X150558484Y-74943359D01*
G37*
M02*
