%TF.GenerationSoftware,KiCad,Pcbnew,9.0.7*%
%TF.CreationDate,2026-04-24T04:27:01-07:00*%
%TF.ProjectId,Primary_Board,5072696d-6172-4795-9f42-6f6172642e6b,rev?*%
%TF.SameCoordinates,Original*%
%TF.FileFunction,Copper,L1,Top*%
%TF.FilePolarity,Positive*%
%FSLAX46Y46*%
G04 Gerber Fmt 4.6, Leading zero omitted, Abs format (unit mm)*
G04 Created by KiCad (PCBNEW 9.0.7) date 2026-04-24 04:27:01*
%MOMM*%
%LPD*%
G01*
G04 APERTURE LIST*
G04 Aperture macros list*
%AMRoundRect*
0 Rectangle with rounded corners*
0 $1 Rounding radius*
0 $2 $3 $4 $5 $6 $7 $8 $9 X,Y pos of 4 corners*
0 Add a 4 corners polygon primitive as box body*
4,1,4,$2,$3,$4,$5,$6,$7,$8,$9,$2,$3,0*
0 Add four circle primitives for the rounded corners*
1,1,$1+$1,$2,$3*
1,1,$1+$1,$4,$5*
1,1,$1+$1,$6,$7*
1,1,$1+$1,$8,$9*
0 Add four rect primitives between the rounded corners*
20,1,$1+$1,$2,$3,$4,$5,0*
20,1,$1+$1,$4,$5,$6,$7,0*
20,1,$1+$1,$6,$7,$8,$9,0*
20,1,$1+$1,$8,$9,$2,$3,0*%
G04 Aperture macros list end*
%TA.AperFunction,Conductor*%
%ADD10C,0.000000*%
%TD*%
%TA.AperFunction,SMDPad,CuDef*%
%ADD11RoundRect,0.075000X0.650000X0.075000X-0.650000X0.075000X-0.650000X-0.075000X0.650000X-0.075000X0*%
%TD*%
%TA.AperFunction,SMDPad,CuDef*%
%ADD12RoundRect,0.140000X-0.140000X-0.170000X0.140000X-0.170000X0.140000X0.170000X-0.140000X0.170000X0*%
%TD*%
%TA.AperFunction,SMDPad,CuDef*%
%ADD13RoundRect,0.225000X0.250000X-0.225000X0.250000X0.225000X-0.250000X0.225000X-0.250000X-0.225000X0*%
%TD*%
%TA.AperFunction,SMDPad,CuDef*%
%ADD14RoundRect,0.140000X-0.170000X0.140000X-0.170000X-0.140000X0.170000X-0.140000X0.170000X0.140000X0*%
%TD*%
%TA.AperFunction,ComponentPad*%
%ADD15C,3.800000*%
%TD*%
%TA.AperFunction,SMDPad,CuDef*%
%ADD16RoundRect,0.225000X-0.225000X-0.250000X0.225000X-0.250000X0.225000X0.250000X-0.225000X0.250000X0*%
%TD*%
%TA.AperFunction,SMDPad,CuDef*%
%ADD17RoundRect,0.162500X0.162500X-0.617500X0.162500X0.617500X-0.162500X0.617500X-0.162500X-0.617500X0*%
%TD*%
%TA.AperFunction,SMDPad,CuDef*%
%ADD18RoundRect,0.225000X-0.250000X0.225000X-0.250000X-0.225000X0.250000X-0.225000X0.250000X0.225000X0*%
%TD*%
%TA.AperFunction,SMDPad,CuDef*%
%ADD19RoundRect,0.162500X-0.162500X0.617500X-0.162500X-0.617500X0.162500X-0.617500X0.162500X0.617500X0*%
%TD*%
%TA.AperFunction,SMDPad,CuDef*%
%ADD20RoundRect,0.140000X0.140000X0.170000X-0.140000X0.170000X-0.140000X-0.170000X0.140000X-0.170000X0*%
%TD*%
%TA.AperFunction,SMDPad,CuDef*%
%ADD21RoundRect,0.225000X0.225000X0.250000X-0.225000X0.250000X-0.225000X-0.250000X0.225000X-0.250000X0*%
%TD*%
%TA.AperFunction,SMDPad,CuDef*%
%ADD22RoundRect,0.100000X0.637500X0.100000X-0.637500X0.100000X-0.637500X-0.100000X0.637500X-0.100000X0*%
%TD*%
%TA.AperFunction,SMDPad,CuDef*%
%ADD23RoundRect,0.135000X-0.185000X0.135000X-0.185000X-0.135000X0.185000X-0.135000X0.185000X0.135000X0*%
%TD*%
%TA.AperFunction,ComponentPad*%
%ADD24R,1.508000X1.508000*%
%TD*%
%TA.AperFunction,ComponentPad*%
%ADD25C,1.508000*%
%TD*%
%TA.AperFunction,SMDPad,CuDef*%
%ADD26R,1.000000X1.500000*%
%TD*%
%TA.AperFunction,SMDPad,CuDef*%
%ADD27RoundRect,0.135000X-0.135000X-0.185000X0.135000X-0.185000X0.135000X0.185000X-0.135000X0.185000X0*%
%TD*%
%TA.AperFunction,SMDPad,CuDef*%
%ADD28R,1.500000X1.000000*%
%TD*%
%TA.AperFunction,SMDPad,CuDef*%
%ADD29RoundRect,0.140000X0.170000X-0.140000X0.170000X0.140000X-0.170000X0.140000X-0.170000X-0.140000X0*%
%TD*%
%TA.AperFunction,SMDPad,CuDef*%
%ADD30RoundRect,1.000000X0.375000X0.000010X-0.375000X0.000010X-0.375000X-0.000010X0.375000X-0.000010X0*%
%TD*%
%TA.AperFunction,SMDPad,CuDef*%
%ADD31RoundRect,0.100000X-0.637500X-0.100000X0.637500X-0.100000X0.637500X0.100000X-0.637500X0.100000X0*%
%TD*%
%TA.AperFunction,SMDPad,CuDef*%
%ADD32R,0.700000X0.300000*%
%TD*%
%TA.AperFunction,SMDPad,CuDef*%
%ADD33R,1.000000X0.300000*%
%TD*%
%TA.AperFunction,SMDPad,CuDef*%
%ADD34RoundRect,0.150000X-0.512500X-0.150000X0.512500X-0.150000X0.512500X0.150000X-0.512500X0.150000X0*%
%TD*%
%TA.AperFunction,SMDPad,CuDef*%
%ADD35RoundRect,0.135000X0.135000X0.185000X-0.135000X0.185000X-0.135000X-0.185000X0.135000X-0.185000X0*%
%TD*%
%TA.AperFunction,ComponentPad*%
%ADD36R,1.700000X1.700000*%
%TD*%
%TA.AperFunction,ComponentPad*%
%ADD37C,1.700000*%
%TD*%
%TA.AperFunction,ViaPad*%
%ADD38C,0.450000*%
%TD*%
%TA.AperFunction,ViaPad*%
%ADD39C,0.500000*%
%TD*%
%TA.AperFunction,ViaPad*%
%ADD40C,0.600000*%
%TD*%
%TA.AperFunction,Conductor*%
%ADD41C,0.200000*%
%TD*%
%TA.AperFunction,Conductor*%
%ADD42C,0.500000*%
%TD*%
%TA.AperFunction,Conductor*%
%ADD43C,0.381000*%
%TD*%
%TA.AperFunction,Conductor*%
%ADD44C,0.254000*%
%TD*%
%TA.AperFunction,Conductor*%
%ADD45C,0.600000*%
%TD*%
G04 APERTURE END LIST*
D10*
%TA.AperFunction,Conductor*%
%TO.N,+3V3A*%
G36*
X158747687Y-109482483D02*
G01*
X158914687Y-109649483D01*
X158914687Y-111570483D01*
X158264687Y-111570483D01*
X158264687Y-110010483D01*
X158187687Y-109933483D01*
X158187687Y-108862483D01*
X158747687Y-108862483D01*
X158747687Y-109482483D01*
G37*
%TD.AperFunction*%
%TA.AperFunction,Conductor*%
G36*
X163040687Y-119207483D02*
G01*
X163913687Y-119207483D01*
X163913687Y-119767483D01*
X163293687Y-119767483D01*
X162741687Y-120319483D01*
X161942687Y-120319483D01*
X161942687Y-118759483D01*
X162592687Y-118759483D01*
X163040687Y-119207483D01*
G37*
%TD.AperFunction*%
%TA.AperFunction,Conductor*%
%TO.N,/ADC/HOLD*%
G36*
X160814687Y-114270483D02*
G01*
X161216687Y-114672483D01*
X161216687Y-115451483D01*
X161642687Y-115877483D01*
X161642687Y-117619483D01*
X160992687Y-117619483D01*
X160992687Y-116059483D01*
X160656687Y-115723483D01*
X160656687Y-114831483D01*
X160164687Y-114339483D01*
X160164687Y-112710483D01*
X160814687Y-112710483D01*
X160814687Y-114270483D01*
G37*
%TD.AperFunction*%
%TA.AperFunction,Conductor*%
%TO.N,+3V3A*%
G36*
X138115000Y-99034812D02*
G01*
X138115000Y-100261857D01*
X137280176Y-100261857D01*
X136614980Y-99596661D01*
X136614980Y-98859792D01*
X137939980Y-98859792D01*
X138115000Y-99034812D01*
G37*
%TD.AperFunction*%
%TA.AperFunction,Conductor*%
%TO.N,/ADC/VSMP*%
G36*
X137140971Y-107080029D02*
G01*
X136906000Y-107315000D01*
X136398000Y-107315000D01*
X135659000Y-108054000D01*
X134124000Y-108054000D01*
X134124000Y-107054000D01*
X137114942Y-107054000D01*
X137140971Y-107080029D01*
G37*
%TD.AperFunction*%
%TA.AperFunction,Conductor*%
G36*
X143192844Y-97697267D02*
G01*
X143192844Y-97697267D01*
G75*
G03*
X142663072Y-98227038I56J-529833D01*
G01*
X142663072Y-97697267D01*
X143192844Y-97697267D01*
G37*
%TD.AperFunction*%
%TA.AperFunction,Conductor*%
G36*
X146003779Y-101628658D02*
G01*
X146003779Y-101628658D01*
G75*
G03*
X145474008Y-101098886I-529779J-42D01*
G01*
X146003779Y-101098886D01*
X146003779Y-101628658D01*
G37*
%TD.AperFunction*%
%TA.AperFunction,Conductor*%
%TO.N,+3V3*%
G36*
X138156949Y-105683337D02*
G01*
X138403641Y-105930029D01*
X139128641Y-105930029D01*
X139128641Y-106230029D01*
X137678641Y-106230029D01*
X137536949Y-106088337D01*
X137536949Y-104823909D01*
X138156949Y-104823909D01*
X138156949Y-105683337D01*
G37*
%TD.AperFunction*%
%TA.AperFunction,Conductor*%
%TO.N,/ADC/VSMP*%
G36*
X143210417Y-95741463D02*
G01*
X143210417Y-95741463D01*
G75*
G03*
X142680645Y-96271234I-17J-529837D01*
G01*
X142680645Y-95741463D01*
X143210417Y-95741463D01*
G37*
%TD.AperFunction*%
%TA.AperFunction,Conductor*%
G36*
X142919774Y-82459970D02*
G01*
X142919774Y-82459970D01*
G75*
G03*
X143449545Y-82989742I529826J70D01*
G01*
X142919774Y-82989742D01*
X142919774Y-82459970D01*
G37*
%TD.AperFunction*%
%TA.AperFunction,Conductor*%
G36*
X142799701Y-87747273D02*
G01*
X142799701Y-87747273D01*
G75*
G03*
X143329472Y-88277045I529799J-27D01*
G01*
X142799701Y-88277045D01*
X142799701Y-87747273D01*
G37*
%TD.AperFunction*%
%TA.AperFunction,Conductor*%
G36*
X143336637Y-88630837D02*
G01*
X143336637Y-88630837D01*
G75*
G03*
X142806865Y-89160608I63J-529763D01*
G01*
X142806865Y-88630837D01*
X143336637Y-88630837D01*
G37*
%TD.AperFunction*%
%TA.AperFunction,Conductor*%
G36*
X142572142Y-81902907D02*
G01*
X142572142Y-81902907D01*
G75*
G03*
X142042371Y-81373135I-529842J7D01*
G01*
X142572142Y-81373135D01*
X142572142Y-81902907D01*
G37*
%TD.AperFunction*%
%TA.AperFunction,Conductor*%
%TO.N,+3V3A*%
G36*
X138115000Y-100801857D02*
G01*
X137300176Y-100801857D01*
X136999172Y-101102861D01*
X136999172Y-101722861D01*
X136439172Y-101722861D01*
X136439172Y-101102861D01*
X137280176Y-100261857D01*
X138115000Y-100261857D01*
X138115000Y-100801857D01*
G37*
%TD.AperFunction*%
%TA.AperFunction,Conductor*%
%TO.N,/ADC/VSMP*%
G36*
X142673481Y-94857899D02*
G01*
X142673481Y-94857899D01*
G75*
G03*
X143203252Y-95387671I529819J-1D01*
G01*
X142673481Y-95387671D01*
X142673481Y-94857899D01*
G37*
%TD.AperFunction*%
%TA.AperFunction,Conductor*%
G36*
X142648846Y-96829434D02*
G01*
X142648846Y-96829434D01*
G75*
G03*
X143178617Y-97359206I529754J34D01*
G01*
X142648846Y-97359206D01*
X142648846Y-96829434D01*
G37*
%TD.AperFunction*%
%TA.AperFunction,Conductor*%
G36*
X142438437Y-88277668D02*
G01*
X141908665Y-88277668D01*
G75*
G03*
X142438437Y-87747897I-65J529768D01*
G01*
X142438437Y-88277668D01*
G37*
%TD.AperFunction*%
%TA.AperFunction,Conductor*%
G36*
X143446956Y-83323081D02*
G01*
X143446956Y-83323081D01*
G75*
G03*
X142917184Y-83852852I44J-529819D01*
G01*
X142917184Y-83323081D01*
X143446956Y-83323081D01*
G37*
%TD.AperFunction*%
%TA.AperFunction,Conductor*%
G36*
X143418577Y-81385226D02*
G01*
X143418577Y-81385226D01*
G75*
G03*
X142888805Y-81914997I23J-529774D01*
G01*
X142888805Y-81385226D01*
X143418577Y-81385226D01*
G37*
%TD.AperFunction*%
%TA.AperFunction,Conductor*%
G36*
X142436257Y-89160609D02*
G01*
X142436257Y-89160609D01*
G75*
G03*
X141906486Y-88630837I-529757J9D01*
G01*
X142436257Y-88630837D01*
X142436257Y-89160609D01*
G37*
%TD.AperFunction*%
%TD*%
D11*
%TO.P,U7,1,A0*%
%TO.N,/ADC/A0*%
X142803641Y-108080029D03*
%TO.P,U7,2,S1*%
%TO.N,Net-(U7-S1)*%
X142803641Y-107580029D03*
%TO.P,U7,3,GND*%
%TO.N,GND*%
X142803641Y-107080029D03*
%TO.P,U7,4,S3*%
%TO.N,Net-(U7-S3)*%
X142803641Y-106580029D03*
%TO.P,U7,5,EN*%
%TO.N,Net-(U7-EN)*%
X142803641Y-106080029D03*
%TO.P,U7,6,VDD*%
%TO.N,+3V3*%
X138403641Y-106080029D03*
%TO.P,U7,7,S4*%
%TO.N,Net-(U7-S4)*%
X138403641Y-106580029D03*
%TO.P,U7,8,D*%
%TO.N,/ADC/VSMP*%
X138403641Y-107080029D03*
%TO.P,U7,9,S2*%
%TO.N,Net-(U7-S2)*%
X138403641Y-107580029D03*
%TO.P,U7,10,A1*%
%TO.N,/ADC/A1*%
X138403641Y-108080029D03*
%TD*%
D12*
%TO.P,C59,1*%
%TO.N,GND*%
X143215944Y-85476601D03*
%TO.P,C59,2*%
%TO.N,Net-(U9-VSS)*%
X144175944Y-85476601D03*
%TD*%
D13*
%TO.P,C26,1*%
%TO.N,/ADC/LSB_TOP*%
X157226000Y-91567000D03*
%TO.P,C26,2*%
%TO.N,/ADC/BIT_6_BOT*%
X157226000Y-90017000D03*
%TD*%
D14*
%TO.P,C10,1*%
%TO.N,+5V*%
X133537462Y-98676099D03*
%TO.P,C10,2*%
%TO.N,GND*%
X133537462Y-99636099D03*
%TD*%
D15*
%TO.P,H1,1,1*%
%TO.N,GND*%
X129400000Y-76750000D03*
%TD*%
D13*
%TO.P,C21,1*%
%TO.N,/ADC/LSB_TOP*%
X149606000Y-91567000D03*
%TO.P,C21,2*%
%TO.N,/ADC/BIT_6_BOT*%
X149606000Y-90017000D03*
%TD*%
D16*
%TO.P,C30,1*%
%TO.N,Net-(U7-S2)*%
X139065000Y-102821342D03*
%TO.P,C30,2*%
%TO.N,GND*%
X140615000Y-102821342D03*
%TD*%
%TO.P,C53,1*%
%TO.N,/ADC/LSB_TOP*%
X161772000Y-93091000D03*
%TO.P,C53,2*%
%TO.N,/ADC/BIT_1_BOT*%
X163322000Y-93091000D03*
%TD*%
D14*
%TO.P,C63,1*%
%TO.N,+3V3*%
X155829000Y-97635000D03*
%TO.P,C63,2*%
%TO.N,GND*%
X155829000Y-98595000D03*
%TD*%
D17*
%TO.P,U13,1*%
%TO.N,Net-(U13A--)*%
X158589687Y-113490483D03*
%TO.P,U13,2,V-*%
%TO.N,GND*%
X159539687Y-113490483D03*
%TO.P,U13,3,+*%
%TO.N,/ADC/HOLD*%
X160489687Y-113490483D03*
%TO.P,U13,4,-*%
%TO.N,Net-(U13A--)*%
X160489687Y-110790483D03*
%TO.P,U13,5*%
%TO.N,N/C*%
X159539687Y-110790483D03*
%TO.P,U13,6,V+*%
%TO.N,+3V3A*%
X158589687Y-110790483D03*
%TD*%
D18*
%TO.P,C36,1*%
%TO.N,/ADC/MSB_TOP*%
X154178000Y-83566000D03*
%TO.P,C36,2*%
%TO.N,/ADC/BIT_12_BOT*%
X154178000Y-85116000D03*
%TD*%
D19*
%TO.P,SH1,1,D*%
%TO.N,Net-(S/H1-B)*%
X162267687Y-116839483D03*
%TO.P,SH1,2,S*%
%TO.N,/ADC/HOLD*%
X161317687Y-116839483D03*
%TO.P,SH1,3,GND*%
%TO.N,GND*%
X160367687Y-116839483D03*
%TO.P,SH1,4,IN*%
%TO.N,Net-(S/H_EN1-B)*%
X160367687Y-119539483D03*
%TO.P,SH1,5,VDD*%
%TO.N,+3V3A*%
X162267687Y-119539483D03*
%TD*%
D13*
%TO.P,C15,1*%
%TO.N,/ADC/MSB_TOP*%
X152654000Y-82055002D03*
%TO.P,C15,2*%
%TO.N,/ADC/BIT_13_BOT*%
X152654000Y-80505002D03*
%TD*%
D20*
%TO.P,C55,1*%
%TO.N,+3V3*%
X139573000Y-92075000D03*
%TO.P,C55,2*%
%TO.N,GND*%
X138613000Y-92075000D03*
%TD*%
D13*
%TO.P,C22,1*%
%TO.N,/ADC/LSB_TOP*%
X151130000Y-91567000D03*
%TO.P,C22,2*%
%TO.N,/ADC/BIT_6_BOT*%
X151130000Y-90017000D03*
%TD*%
D18*
%TO.P,C46,1*%
%TO.N,/ADC/MSB_TOP*%
X158750000Y-83566000D03*
%TO.P,C46,2*%
%TO.N,/ADC/BIT_10_BOT*%
X158750000Y-85116000D03*
%TD*%
D21*
%TO.P,C29,1*%
%TO.N,Net-(U7-S1)*%
X141618000Y-104394000D03*
%TO.P,C29,2*%
%TO.N,GND*%
X140068000Y-104394000D03*
%TD*%
D13*
%TO.P,C18,1*%
%TO.N,/ADC/MSB_TOP*%
X157226000Y-82055002D03*
%TO.P,C18,2*%
%TO.N,/ADC/BIT_13_BOT*%
X157226000Y-80505002D03*
%TD*%
%TO.P,C24,1*%
%TO.N,/ADC/LSB_TOP*%
X154178000Y-91567000D03*
%TO.P,C24,2*%
%TO.N,/ADC/BIT_6_BOT*%
X154178000Y-90017000D03*
%TD*%
D20*
%TO.P,C45,1*%
%TO.N,+3V3*%
X139545000Y-84836000D03*
%TO.P,C45,2*%
%TO.N,GND*%
X138585000Y-84836000D03*
%TD*%
D13*
%TO.P,C19,1*%
%TO.N,/ADC/MSB_TOP*%
X158743000Y-82055002D03*
%TO.P,C19,2*%
%TO.N,/ADC/BIT_13_BOT*%
X158743000Y-80505002D03*
%TD*%
D16*
%TO.P,C31,1*%
%TO.N,Net-(U7-S3)*%
X143114641Y-104384800D03*
%TO.P,C31,2*%
%TO.N,GND*%
X144664641Y-104384800D03*
%TD*%
D22*
%TO.P,U9,1,S2B*%
%TO.N,GND*%
X145326944Y-91053601D03*
%TO.P,U9,2,S2A*%
%TO.N,/ADC/VSMP*%
X145326944Y-90403601D03*
%TO.P,U9,3,S3B*%
%TO.N,GND*%
X145326944Y-89753601D03*
%TO.P,U9,4,D3*%
%TO.N,/ADC/BIT_8_BOT*%
X145326944Y-89103601D03*
%TO.P,U9,5,S3A*%
%TO.N,/ADC/VSMP*%
X145326944Y-88453601D03*
%TO.P,U9,6,~{EN}*%
%TO.N,GND*%
X145326944Y-87803601D03*
%TO.P,U9,7,VSS*%
%TO.N,Net-(U9-VSS)*%
X145326944Y-87153601D03*
%TO.P,U9,8,GND*%
%TO.N,GND*%
X145326944Y-86503601D03*
%TO.P,U9,9,SEL3*%
%TO.N,/ADC/BIT_8_SEL*%
X139601944Y-86503601D03*
%TO.P,U9,10,SEL2*%
%TO.N,/ADC/BIT_9_SEL*%
X139601944Y-87153601D03*
%TO.P,U9,11,SEL1*%
%TO.N,/ADC/BIT_10_SEL*%
X139601944Y-87803601D03*
%TO.P,U9,12,S1A*%
%TO.N,/ADC/VSMP*%
X139601944Y-88453601D03*
%TO.P,U9,13,S1B*%
%TO.N,GND*%
X139601944Y-89103601D03*
%TO.P,U9,14,D1*%
%TO.N,/ADC/BIT_10_BOT*%
X139601944Y-89753601D03*
%TO.P,U9,15,D2*%
%TO.N,/ADC/BIT_9_BOT*%
X139601944Y-90403601D03*
%TO.P,U9,16,VDD*%
%TO.N,+3V3*%
X139601944Y-91053601D03*
%TD*%
D18*
%TO.P,C40,1*%
%TO.N,/ADC/LSB_TOP*%
X154178000Y-93077998D03*
%TO.P,C40,2*%
%TO.N,/ADC/BIT_5_BOT*%
X154178000Y-94627998D03*
%TD*%
D13*
%TO.P,C14,1*%
%TO.N,/ADC/MSB_TOP*%
X151130000Y-82055002D03*
%TO.P,C14,2*%
%TO.N,/ADC/BIT_13_BOT*%
X151130000Y-80505002D03*
%TD*%
D16*
%TO.P,C52,1*%
%TO.N,/ADC/MSB_TOP*%
X161772000Y-83579002D03*
%TO.P,C52,2*%
%TO.N,/ADC/BIT_8_BOT*%
X163322000Y-83579002D03*
%TD*%
D18*
%TO.P,C47,1*%
%TO.N,/ADC/LSB_TOP*%
X158750000Y-93077998D03*
%TO.P,C47,2*%
%TO.N,/ADC/BIT_3_BOT*%
X158750000Y-94627998D03*
%TD*%
%TO.P,C44,1*%
%TO.N,/ADC/LSB_TOP*%
X157226000Y-93077998D03*
%TO.P,C44,2*%
%TO.N,/ADC/BIT_4_BOT*%
X157226000Y-94627998D03*
%TD*%
D20*
%TO.P,C72,1*%
%TO.N,+3V3A*%
X158467687Y-109172483D03*
%TO.P,C72,2*%
%TO.N,GND*%
X157507687Y-109172483D03*
%TD*%
D23*
%TO.P,R13,1*%
%TO.N,/ADC/ADC_Input1*%
X141857641Y-102098800D03*
%TO.P,R13,2*%
%TO.N,Net-(U7-S1)*%
X141857641Y-103118800D03*
%TD*%
D24*
%TO.P,U6,1,GND*%
%TO.N,GND*%
X142690000Y-75762500D03*
D25*
%TO.P,U6,2,VCC_IN*%
%TO.N,+5V*%
X145230000Y-75762500D03*
%TO.P,U6,3,SCL*%
%TO.N,Net-(U5-PA9_A5_D5_SCL)*%
X147770000Y-75762500D03*
%TO.P,U6,4,SDA*%
%TO.N,Net-(U5-PA8_A4_D4_SDA)*%
X150310000Y-75762500D03*
%TD*%
D26*
%TO.P,VG2,1,A*%
%TO.N,/ADC/DAC_OUT*%
X159090941Y-106928000D03*
%TO.P,VG2,2,B*%
%TO.N,Net-(CAP2-B)*%
X160390941Y-106928000D03*
%TD*%
D23*
%TO.P,R15,1*%
%TO.N,/ADC/ADC_Input3*%
X142873641Y-102098800D03*
%TO.P,R15,2*%
%TO.N,Net-(U7-S3)*%
X142873641Y-103118800D03*
%TD*%
D27*
%TO.P,R21,1*%
%TO.N,GND*%
X134364000Y-111521000D03*
%TO.P,R21,2*%
%TO.N,/ADC/ADC_OUT*%
X135384000Y-111521000D03*
%TD*%
D22*
%TO.P,U10,1,S2B*%
%TO.N,GND*%
X145326944Y-98165601D03*
%TO.P,U10,2,S2A*%
%TO.N,/ADC/VSMP*%
X145326944Y-97515601D03*
%TO.P,U10,3,S3B*%
%TO.N,GND*%
X145326944Y-96865601D03*
%TO.P,U10,4,D3*%
%TO.N,/ADC/BIT_5_BOT*%
X145326944Y-96215601D03*
%TO.P,U10,5,S3A*%
%TO.N,/ADC/VSMP*%
X145326944Y-95565601D03*
%TO.P,U10,6,~{EN}*%
%TO.N,GND*%
X145326944Y-94915601D03*
%TO.P,U10,7,VSS*%
%TO.N,Net-(U10-VSS)*%
X145326944Y-94265601D03*
%TO.P,U10,8,GND*%
%TO.N,GND*%
X145326944Y-93615601D03*
%TO.P,U10,9,SEL3*%
%TO.N,/ADC/BIT_5_SEL*%
X139601944Y-93615601D03*
%TO.P,U10,10,SEL2*%
%TO.N,/ADC/BIT_6_SEL*%
X139601944Y-94265601D03*
%TO.P,U10,11,SEL1*%
%TO.N,/ADC/BIT_7_SEL*%
X139601944Y-94915601D03*
%TO.P,U10,12,S1A*%
%TO.N,/ADC/VSMP*%
X139601944Y-95565601D03*
%TO.P,U10,13,S1B*%
%TO.N,GND*%
X139601944Y-96215601D03*
%TO.P,U10,14,D1*%
%TO.N,/ADC/BIT_7_BOT*%
X139601944Y-96865601D03*
%TO.P,U10,15,D2*%
%TO.N,/ADC/BIT_6_BOT*%
X139601944Y-97515601D03*
%TO.P,U10,16,VDD*%
%TO.N,+3V3*%
X139601944Y-98165601D03*
%TD*%
D18*
%TO.P,C39,1*%
%TO.N,/ADC/LSB_TOP*%
X152654000Y-93077998D03*
%TO.P,C39,2*%
%TO.N,/ADC/BIT_5_BOT*%
X152654000Y-94627998D03*
%TD*%
D13*
%TO.P,C20,1*%
%TO.N,/ADC/MSB_TOP*%
X160267000Y-82055002D03*
%TO.P,C20,2*%
%TO.N,/ADC/BIT_13_BOT*%
X160267000Y-80505002D03*
%TD*%
D20*
%TO.P,C65,1*%
%TO.N,/ADC/HOLD*%
X160936687Y-115141483D03*
%TO.P,C65,2*%
%TO.N,GND*%
X159976687Y-115141483D03*
%TD*%
D12*
%TO.P,C60,1*%
%TO.N,+3V3*%
X139573000Y-99187000D03*
%TO.P,C60,2*%
%TO.N,GND*%
X140533000Y-99187000D03*
%TD*%
D18*
%TO.P,C34,1*%
%TO.N,/ADC/MSB_TOP*%
X151130000Y-83566000D03*
%TO.P,C34,2*%
%TO.N,/ADC/BIT_12_BOT*%
X151130000Y-85116000D03*
%TD*%
D26*
%TO.P,S/H1,1,A*%
%TO.N,/ADC/VSMP*%
X164338000Y-114379483D03*
%TO.P,S/H1,2,B*%
%TO.N,Net-(S/H1-B)*%
X163038000Y-114379483D03*
%TD*%
D27*
%TO.P,R19,1*%
%TO.N,/ADC/S{slash}H_OUT*%
X157569049Y-115104880D03*
%TO.P,R19,2*%
%TO.N,Net-(U13A--)*%
X158589049Y-115104880D03*
%TD*%
D14*
%TO.P,C67,1*%
%TO.N,+3V3*%
X155760500Y-103262000D03*
%TO.P,C67,2*%
%TO.N,GND*%
X155760500Y-104222000D03*
%TD*%
D28*
%TO.P,ADC_BY1,1,A*%
%TO.N,/ADC/VSMP*%
X134874000Y-107554000D03*
%TO.P,ADC_BY1,2,B*%
%TO.N,Net-(ADC_BY1-B)*%
X134874000Y-108854000D03*
%TD*%
D12*
%TO.P,C61,1*%
%TO.N,+3V3*%
X163576000Y-99822000D03*
%TO.P,C61,2*%
%TO.N,GND*%
X164536000Y-99822000D03*
%TD*%
D16*
%TO.P,C58,1*%
%TO.N,/ADC/LSB_TOP*%
X161772000Y-90029998D03*
%TO.P,C58,2*%
%TO.N,GND*%
X163322000Y-90029998D03*
%TD*%
D18*
%TO.P,C42,1*%
%TO.N,/ADC/MSB_TOP*%
X157226000Y-83566000D03*
%TO.P,C42,2*%
%TO.N,/ADC/BIT_11_BOT*%
X157226000Y-85116000D03*
%TD*%
D29*
%TO.P,C66,1*%
%TO.N,GND*%
X146939000Y-102433000D03*
%TO.P,C66,2*%
%TO.N,Net-(U12-VSS)*%
X146939000Y-101473000D03*
%TD*%
D26*
%TO.P,S/H_EN1,1,A*%
%TO.N,/ADC/LATCH*%
X159001687Y-121999483D03*
%TO.P,S/H_EN1,2,B*%
%TO.N,Net-(S/H_EN1-B)*%
X160301687Y-121999483D03*
%TD*%
D18*
%TO.P,C4,1*%
%TO.N,/ADC/MSB_TOP*%
X163449000Y-86093000D03*
%TO.P,C4,2*%
%TO.N,/ADC/LSB_TOP*%
X163449000Y-87643000D03*
%TD*%
D13*
%TO.P,C13,1*%
%TO.N,/ADC/MSB_TOP*%
X149606000Y-82055002D03*
%TO.P,C13,2*%
%TO.N,/ADC/BIT_13_BOT*%
X149606000Y-80505002D03*
%TD*%
D29*
%TO.P,C69,1*%
%TO.N,GND*%
X146887161Y-108164933D03*
%TO.P,C69,2*%
%TO.N,Net-(U15-VSS)*%
X146887161Y-107204933D03*
%TD*%
D30*
%TO.P,U5,1,PA02_A0_D0*%
%TO.N,/ADC/ADC_OUT*%
X154715000Y-127090000D03*
%TO.P,U5,2,PA4_A1_D1*%
%TO.N,/ADC/CS*%
X154715000Y-124550000D03*
%TO.P,U5,3,PA10_A2_D2*%
%TO.N,/ADC/LATCH*%
X154715000Y-122010000D03*
%TO.P,U5,4,PA11_A3_D3*%
%TO.N,unconnected-(U5-PA11_A3_D3-Pad4)*%
X154715000Y-119470000D03*
%TO.P,U5,5,PA8_A4_D4_SDA*%
%TO.N,Net-(U5-PA8_A4_D4_SDA)*%
X154715000Y-116930000D03*
%TO.P,U5,6,PA9_A5_D5_SCL*%
%TO.N,Net-(U5-PA9_A5_D5_SCL)*%
X154715000Y-114390000D03*
%TO.P,U5,7,PB08_A6_D6_TX*%
%TO.N,unconnected-(U5-PB08_A6_D6_TX-Pad7)*%
X154715000Y-111850000D03*
%TO.P,U5,8,PB09_A7_D7_RX*%
%TO.N,/ADC/A1*%
X138550000Y-111850000D03*
%TO.P,U5,9,PA7_A8_D8_SCK*%
%TO.N,/ADC/sCLK*%
X138550000Y-114390000D03*
%TO.P,U5,10,PA5_A9_D9_MISO*%
%TO.N,/ADC/A0*%
X138550000Y-116930000D03*
%TO.P,U5,11,PA6_A10_D10_MOSI*%
%TO.N,/ADC/MOSI*%
X138550000Y-119470000D03*
%TO.P,U5,12,3V3*%
%TO.N,Net-(ESP_3V3-A)*%
X138550000Y-122010000D03*
%TO.P,U5,13,GND*%
%TO.N,GND*%
X138550000Y-124550000D03*
%TO.P,U5,14,5V*%
%TO.N,+5V*%
X138550000Y-127090000D03*
%TD*%
D21*
%TO.P,C32,1*%
%TO.N,Net-(U7-S4)*%
X137554000Y-102821342D03*
%TO.P,C32,2*%
%TO.N,GND*%
X136004000Y-102821342D03*
%TD*%
D19*
%TO.P,U11,1*%
%TO.N,/ADC/ADC_OUT*%
X164526000Y-101531964D03*
%TO.P,U11,2,VDD*%
%TO.N,+3V3*%
X163576000Y-101531964D03*
%TO.P,U11,3,+*%
%TO.N,Net-(CAP1-B)*%
X162626000Y-101531964D03*
%TO.P,U11,4,-*%
%TO.N,Net-(CAP2-B)*%
X162626000Y-104231964D03*
%TO.P,U11,5,VSS*%
%TO.N,GND*%
X164526000Y-104231964D03*
%TD*%
D26*
%TO.P,CAP2,1,A*%
%TO.N,/AFE/+1.65V*%
X159090941Y-104261000D03*
%TO.P,CAP2,2,B*%
%TO.N,Net-(CAP2-B)*%
X160390941Y-104261000D03*
%TD*%
D14*
%TO.P,C70,1*%
%TO.N,+3V3A*%
X163603687Y-119487483D03*
%TO.P,C70,2*%
%TO.N,GND*%
X163603687Y-120447483D03*
%TD*%
D18*
%TO.P,C50,1*%
%TO.N,/ADC/LSB_TOP*%
X160274000Y-93077998D03*
%TO.P,C50,2*%
%TO.N,/ADC/BIT_2_BOT*%
X160274000Y-94627998D03*
%TD*%
D23*
%TO.P,R16,1*%
%TO.N,+3V3A*%
X137795000Y-100531857D03*
%TO.P,R16,2*%
%TO.N,Net-(U7-S4)*%
X137795000Y-101551857D03*
%TD*%
D31*
%TO.P,U15,1,S2B*%
%TO.N,GND*%
X148453000Y-103262000D03*
%TO.P,U15,2,S2A*%
%TO.N,/ADC/VSMP*%
X148453000Y-103912000D03*
%TO.P,U15,3,S3B*%
%TO.N,unconnected-(U15-S3B-Pad3)*%
X148453000Y-104562000D03*
%TO.P,U15,4,D3*%
%TO.N,/ADC/MSB_TOP*%
X148453000Y-105212000D03*
%TO.P,U15,5,S3A*%
%TO.N,/AFE/+1.65V*%
X148453000Y-105862000D03*
%TO.P,U15,6,~{EN}*%
%TO.N,GND*%
X148453000Y-106512000D03*
%TO.P,U15,7,VSS*%
%TO.N,Net-(U15-VSS)*%
X148453000Y-107162000D03*
%TO.P,U15,8,GND*%
%TO.N,GND*%
X148453000Y-107812000D03*
%TO.P,U15,9,SEL3*%
%TO.N,/ADC/TOP_RESET*%
X154178000Y-107812000D03*
%TO.P,U15,10,SEL2*%
%TO.N,/ADC/BIT_0_SEL*%
X154178000Y-107162000D03*
%TO.P,U15,11,SEL1*%
%TO.N,/ADC/BIT_1_SEL*%
X154178000Y-106512000D03*
%TO.P,U15,12,S1A*%
%TO.N,/ADC/VSMP*%
X154178000Y-105862000D03*
%TO.P,U15,13,S1B*%
%TO.N,GND*%
X154178000Y-105212000D03*
%TO.P,U15,14,D1*%
%TO.N,/ADC/BIT_1_BOT*%
X154178000Y-104562000D03*
%TO.P,U15,15,D2*%
%TO.N,/ADC/BIT_0_BOT*%
X154178000Y-103912000D03*
%TO.P,U15,16,VDD*%
%TO.N,+3V3*%
X154178000Y-103262000D03*
%TD*%
D13*
%TO.P,C27,1*%
%TO.N,/ADC/LSB_TOP*%
X158743000Y-91567000D03*
%TO.P,C27,2*%
%TO.N,/ADC/BIT_6_BOT*%
X158743000Y-90017000D03*
%TD*%
D27*
%TO.P,R12,1*%
%TO.N,Net-(U7-EN)*%
X144304231Y-105706346D03*
%TO.P,R12,2*%
%TO.N,+3V3*%
X145324231Y-105706346D03*
%TD*%
D16*
%TO.P,C56,1*%
%TO.N,/ADC/MSB_TOP*%
X161772000Y-82055002D03*
%TO.P,C56,2*%
%TO.N,/ADC/BIT_7_BOT*%
X163322000Y-82055002D03*
%TD*%
D15*
%TO.P,H4,1,1*%
%TO.N,GND*%
X162900000Y-127050000D03*
%TD*%
D32*
%TO.P,J1,1,1*%
%TO.N,+3V3*%
X129750000Y-93799999D03*
%TO.P,J1,2,2*%
%TO.N,+5V*%
X129750000Y-94299998D03*
%TO.P,J1,3,3*%
%TO.N,/PWM_Red*%
X129750000Y-94800000D03*
%TO.P,J1,4,4*%
%TO.N,/PWM_IR*%
X129750000Y-95299999D03*
%TO.P,J1,5,5*%
%TO.N,GND*%
X129750000Y-95800000D03*
%TO.P,J1,6,6*%
%TO.N,/V_ptat*%
X129750000Y-96299999D03*
%TO.P,J1,7,7*%
%TO.N,/V_bandgap*%
X129750000Y-96799998D03*
%TO.P,J1,8,8*%
%TO.N,GND*%
X129750000Y-97300000D03*
D33*
%TO.P,J1,P1,P1*%
%TO.N,unconnected-(J1-PadP1)*%
X127100000Y-93009999D03*
%TO.P,J1,P2,P2*%
%TO.N,unconnected-(J1-PadP2)*%
X127100000Y-98089988D03*
%TD*%
D13*
%TO.P,C16,1*%
%TO.N,/ADC/MSB_TOP*%
X154178000Y-82055002D03*
%TO.P,C16,2*%
%TO.N,/ADC/BIT_13_BOT*%
X154178000Y-80505002D03*
%TD*%
D34*
%TO.P,U3,1,Vin*%
%TO.N,+5V*%
X135002480Y-98209792D03*
%TO.P,U3,2,GND*%
%TO.N,GND*%
X135002480Y-100109792D03*
%TO.P,U3,3,Vout*%
%TO.N,+3V3A*%
X137277480Y-99159792D03*
%TD*%
D35*
%TO.P,R20,1*%
%TO.N,/ADC/ADC_OUT*%
X135384000Y-110490000D03*
%TO.P,R20,2*%
%TO.N,Net-(ADC_BY1-B)*%
X134364000Y-110490000D03*
%TD*%
D26*
%TO.P,VG1,1,A*%
%TO.N,/ADC/S{slash}H_OUT*%
X159090941Y-101600000D03*
%TO.P,VG1,2,B*%
%TO.N,Net-(CAP1-B)*%
X160390941Y-101600000D03*
%TD*%
D18*
%TO.P,C35,1*%
%TO.N,/ADC/MSB_TOP*%
X152654000Y-83566000D03*
%TO.P,C35,2*%
%TO.N,/ADC/BIT_12_BOT*%
X152654000Y-85116000D03*
%TD*%
D29*
%TO.P,C12,1*%
%TO.N,+3V3*%
X137846949Y-105103909D03*
%TO.P,C12,2*%
%TO.N,GND*%
X137846949Y-104143909D03*
%TD*%
D31*
%TO.P,U12,1,S2B*%
%TO.N,GND*%
X148542444Y-97547000D03*
%TO.P,U12,2,S2A*%
%TO.N,/ADC/VSMP*%
X148542444Y-98197000D03*
%TO.P,U12,3,S3B*%
%TO.N,GND*%
X148542444Y-98847000D03*
%TO.P,U12,4,D3*%
%TO.N,/ADC/BIT_2_BOT*%
X148542444Y-99497000D03*
%TO.P,U12,5,S3A*%
%TO.N,/ADC/VSMP*%
X148542444Y-100147000D03*
%TO.P,U12,6,~{EN}*%
%TO.N,GND*%
X148542444Y-100797000D03*
%TO.P,U12,7,VSS*%
%TO.N,Net-(U12-VSS)*%
X148542444Y-101447000D03*
%TO.P,U12,8,GND*%
%TO.N,GND*%
X148542444Y-102097000D03*
%TO.P,U12,9,SEL3*%
%TO.N,/ADC/BIT_2_SEL*%
X154267444Y-102097000D03*
%TO.P,U12,10,SEL2*%
%TO.N,/ADC/BIT_3_SEL*%
X154267444Y-101447000D03*
%TO.P,U12,11,SEL1*%
%TO.N,/ADC/BIT_4_SEL*%
X154267444Y-100797000D03*
%TO.P,U12,12,S1A*%
%TO.N,/ADC/VSMP*%
X154267444Y-100147000D03*
%TO.P,U12,13,S1B*%
%TO.N,GND*%
X154267444Y-99497000D03*
%TO.P,U12,14,D1*%
%TO.N,/ADC/BIT_4_BOT*%
X154267444Y-98847000D03*
%TO.P,U12,15,D2*%
%TO.N,/ADC/BIT_3_BOT*%
X154267444Y-98197000D03*
%TO.P,U12,16,VDD*%
%TO.N,+3V3*%
X154267444Y-97547000D03*
%TD*%
D18*
%TO.P,C49,1*%
%TO.N,/ADC/MSB_TOP*%
X160274000Y-83566000D03*
%TO.P,C49,2*%
%TO.N,/ADC/BIT_9_BOT*%
X160274000Y-85116000D03*
%TD*%
D13*
%TO.P,C28,1*%
%TO.N,/ADC/LSB_TOP*%
X160267000Y-91567000D03*
%TO.P,C28,2*%
%TO.N,/ADC/BIT_6_BOT*%
X160267000Y-90017000D03*
%TD*%
D15*
%TO.P,H3,1,1*%
%TO.N,GND*%
X129400000Y-127050000D03*
%TD*%
%TO.P,H2,1,1*%
%TO.N,GND*%
X162900000Y-76750000D03*
%TD*%
D18*
%TO.P,C41,1*%
%TO.N,/ADC/MSB_TOP*%
X155702000Y-83566000D03*
%TO.P,C41,2*%
%TO.N,/ADC/BIT_11_BOT*%
X155702000Y-85116000D03*
%TD*%
D12*
%TO.P,C51,1*%
%TO.N,GND*%
X143215944Y-78237601D03*
%TO.P,C51,2*%
%TO.N,Net-(U8-VSS)*%
X144175944Y-78237601D03*
%TD*%
D36*
%TO.P,J2,1,Pin_1*%
%TO.N,+3V3*%
X128150000Y-120400000D03*
D37*
%TO.P,J2,2,Pin_2*%
%TO.N,+5V*%
X128150000Y-117860000D03*
%TO.P,J2,3,Pin_3*%
%TO.N,/PWM_Red*%
X128150000Y-115320000D03*
%TO.P,J2,4,Pin_4*%
%TO.N,/PWM_IR*%
X128150000Y-112780000D03*
%TO.P,J2,5,Pin_5*%
%TO.N,GND*%
X128150000Y-110240000D03*
%TO.P,J2,6,Pin_6*%
%TO.N,/V_ptat*%
X128150000Y-107700000D03*
%TO.P,J2,7,Pin_7*%
%TO.N,/V_bandgap*%
X128150000Y-105160000D03*
%TO.P,J2,8,Pin_8*%
%TO.N,GND*%
X128150000Y-102620000D03*
%TD*%
D26*
%TO.P,CAP1,1,A*%
%TO.N,/ADC/MSB_TOP*%
X159090941Y-98933000D03*
%TO.P,CAP1,2,B*%
%TO.N,Net-(CAP1-B)*%
X160390941Y-98933000D03*
%TD*%
D23*
%TO.P,R14,1*%
%TO.N,/AFE/TIA_OUT*%
X138811000Y-100531857D03*
%TO.P,R14,2*%
%TO.N,Net-(U7-S2)*%
X138811000Y-101551857D03*
%TD*%
D16*
%TO.P,C57,1*%
%TO.N,/ADC/LSB_TOP*%
X161772000Y-91567000D03*
%TO.P,C57,2*%
%TO.N,/ADC/BIT_0_BOT*%
X163322000Y-91567000D03*
%TD*%
D13*
%TO.P,C25,1*%
%TO.N,/ADC/LSB_TOP*%
X155702000Y-91567000D03*
%TO.P,C25,2*%
%TO.N,/ADC/BIT_6_BOT*%
X155702000Y-90017000D03*
%TD*%
D18*
%TO.P,C33,1*%
%TO.N,/ADC/MSB_TOP*%
X149606000Y-83566000D03*
%TO.P,C33,2*%
%TO.N,/ADC/BIT_12_BOT*%
X149606000Y-85116000D03*
%TD*%
%TO.P,C37,1*%
%TO.N,/ADC/LSB_TOP*%
X149606000Y-93077998D03*
%TO.P,C37,2*%
%TO.N,/ADC/BIT_5_BOT*%
X149606000Y-94627998D03*
%TD*%
%TO.P,C43,1*%
%TO.N,/ADC/LSB_TOP*%
X155702000Y-93077998D03*
%TO.P,C43,2*%
%TO.N,/ADC/BIT_4_BOT*%
X155702000Y-94627998D03*
%TD*%
%TO.P,C38,1*%
%TO.N,/ADC/LSB_TOP*%
X151130000Y-93077998D03*
%TO.P,C38,2*%
%TO.N,/ADC/BIT_5_BOT*%
X151130000Y-94627998D03*
%TD*%
D20*
%TO.P,C11,1*%
%TO.N,+3V3A*%
X136719172Y-101412861D03*
%TO.P,C11,2*%
%TO.N,GND*%
X135759172Y-101412861D03*
%TD*%
D22*
%TO.P,U8,1,S2B*%
%TO.N,GND*%
X145318944Y-83814601D03*
%TO.P,U8,2,S2A*%
%TO.N,/ADC/VSMP*%
X145318944Y-83164601D03*
%TO.P,U8,3,S3B*%
%TO.N,GND*%
X145318944Y-82514601D03*
%TO.P,U8,4,D3*%
%TO.N,/ADC/BIT_11_BOT*%
X145318944Y-81864601D03*
%TO.P,U8,5,S3A*%
%TO.N,/ADC/VSMP*%
X145318944Y-81214601D03*
%TO.P,U8,6,~{EN}*%
%TO.N,GND*%
X145318944Y-80564601D03*
%TO.P,U8,7,VSS*%
%TO.N,Net-(U8-VSS)*%
X145318944Y-79914601D03*
%TO.P,U8,8,GND*%
%TO.N,GND*%
X145318944Y-79264601D03*
%TO.P,U8,9,SEL3*%
%TO.N,/ADC/BIT_11_SEL*%
X139593944Y-79264601D03*
%TO.P,U8,10,SEL2*%
%TO.N,/ADC/BIT_12_SEL*%
X139593944Y-79914601D03*
%TO.P,U8,11,SEL1*%
%TO.N,/ADC/BIT_13_SEL*%
X139593944Y-80564601D03*
%TO.P,U8,12,S1A*%
%TO.N,/ADC/VSMP*%
X139593944Y-81214601D03*
%TO.P,U8,13,S1B*%
%TO.N,GND*%
X139593944Y-81864601D03*
%TO.P,U8,14,D1*%
%TO.N,/ADC/BIT_13_BOT*%
X139593944Y-82514601D03*
%TO.P,U8,15,D2*%
%TO.N,/ADC/BIT_12_BOT*%
X139593944Y-83164601D03*
%TO.P,U8,16,VDD*%
%TO.N,+3V3*%
X139593944Y-83814601D03*
%TD*%
D13*
%TO.P,C17,1*%
%TO.N,/ADC/MSB_TOP*%
X155702000Y-82055002D03*
%TO.P,C17,2*%
%TO.N,/ADC/BIT_13_BOT*%
X155702000Y-80505002D03*
%TD*%
D12*
%TO.P,C62,1*%
%TO.N,GND*%
X143215944Y-92588601D03*
%TO.P,C62,2*%
%TO.N,Net-(U10-VSS)*%
X144175944Y-92588601D03*
%TD*%
D13*
%TO.P,C23,1*%
%TO.N,/ADC/LSB_TOP*%
X152654000Y-91567000D03*
%TO.P,C23,2*%
%TO.N,/ADC/BIT_6_BOT*%
X152654000Y-90017000D03*
%TD*%
D38*
%TO.N,GND*%
X164465000Y-105410000D03*
X135255000Y-102870000D03*
X146812000Y-91186000D03*
%TO.N,+3V3*%
X145288000Y-105156000D03*
%TO.N,GND*%
X134366000Y-112268000D03*
%TO.N,+5V*%
X130429000Y-93218000D03*
%TO.N,/ADC/MSB_TOP*%
X157861000Y-100711000D03*
%TO.N,/AFE/+1.65V*%
X157988000Y-104521000D03*
%TO.N,Net-(U5-PA8_A4_D4_SDA)*%
X151257000Y-109982000D03*
%TO.N,Net-(U5-PA9_A5_D5_SCL)*%
X149987000Y-109474000D03*
%TO.N,+3V3*%
X151511000Y-113411000D03*
X151638000Y-115951000D03*
%TO.N,Net-(U5-PA9_A5_D5_SCL)*%
X152527000Y-114426674D03*
%TO.N,Net-(U5-PA8_A4_D4_SDA)*%
X152527000Y-116966674D03*
%TO.N,/ADC/CS*%
X155956000Y-123317000D03*
%TO.N,/ADC/MOSI*%
X140335000Y-119507000D03*
%TO.N,/ADC/sCLK*%
X140335000Y-114427000D03*
%TO.N,/ADC/A0*%
X140245000Y-116930000D03*
X141478000Y-108077000D03*
%TO.N,/ADC/A1*%
X139192000Y-108077000D03*
X138557000Y-110490000D03*
%TO.N,/ADC/sCLK*%
X133604000Y-104648000D03*
%TO.N,/ADC/MOSI*%
X132969000Y-105537000D03*
D39*
%TO.N,Net-(ESP_3V3-A)*%
X135890000Y-121920000D03*
%TO.N,GND*%
X136271000Y-124587000D03*
D38*
%TO.N,/ADC/ADC_OUT*%
X148336000Y-121158000D03*
%TO.N,/ADC/LATCH*%
X140970000Y-113284000D03*
%TO.N,/ADC/ADC_OUT*%
X156718000Y-127127000D03*
X161671000Y-113284000D03*
%TO.N,+3V3A*%
X164465000Y-119380000D03*
D39*
X136779000Y-102108000D03*
D38*
%TO.N,/ADC/VSMP*%
X164338000Y-112776000D03*
X155956000Y-106172000D03*
%TO.N,/ADC/DAC_OUT*%
X157734000Y-107061000D03*
%TO.N,GND*%
X150114000Y-115697000D03*
X145669000Y-114935000D03*
%TO.N,+3V3A*%
X145669000Y-115951000D03*
%TO.N,/AFE/+1.65V*%
X149860000Y-106045000D03*
%TO.N,/ADC/BIT_7_BOT*%
X164338000Y-82042000D03*
%TO.N,/ADC/BIT_9_BOT*%
X160274000Y-85852000D03*
%TO.N,/ADC/BIT_10_BOT*%
X158750000Y-85852000D03*
%TO.N,/ADC/BIT_13_BOT*%
X149606000Y-79629000D03*
%TO.N,/ADC/BIT_12_BOT*%
X148463000Y-84836000D03*
%TO.N,/ADC/BIT_6_BOT*%
X148082000Y-90678000D03*
%TO.N,/AFE/TIA_OUT*%
X138811000Y-99949000D03*
X158242000Y-87884000D03*
%TO.N,GND*%
X133350000Y-95377000D03*
%TO.N,/ADC/BIT_4_SEL*%
X152781000Y-100838000D03*
%TO.N,/ADC/ADC_Input1*%
X141859000Y-93472000D03*
%TO.N,/ADC/BIT_1_BOT*%
X163449000Y-93980000D03*
%TO.N,/ADC/BIT_2_BOT*%
X159385000Y-95885000D03*
%TO.N,GND*%
X164566941Y-99054000D03*
%TO.N,+3V3*%
X163550941Y-99054000D03*
%TO.N,GND*%
X164338000Y-120396000D03*
X159385000Y-116840000D03*
%TO.N,+3V3A*%
X158369000Y-108331000D03*
%TO.N,GND*%
X157480000Y-110363000D03*
X149860000Y-100965000D03*
X147320000Y-99060000D03*
X151700000Y-98475000D03*
%TO.N,/AFE/+1.65V*%
X151003000Y-95758000D03*
%TO.N,GND*%
X146177000Y-108585000D03*
%TO.N,/ADC/BIT_2_BOT*%
X149860000Y-99060000D03*
%TO.N,/ADC/BIT_8_BOT*%
X161798000Y-86233000D03*
X164211000Y-83693000D03*
%TO.N,GND*%
X146558000Y-97282000D03*
X164211000Y-90043000D03*
X146558000Y-79248000D03*
X144145000Y-84328000D03*
X144018000Y-82169000D03*
X143510000Y-87503000D03*
X144145000Y-91059000D03*
X143637000Y-94742000D03*
%TO.N,+3V3*%
X156591000Y-99060000D03*
%TO.N,GND*%
X155829000Y-99314000D03*
X155702000Y-104902000D03*
%TO.N,+3V3*%
X155702000Y-102616000D03*
%TO.N,GND*%
X149225000Y-102616000D03*
X139827000Y-100076000D03*
%TO.N,+3V3*%
X138684000Y-99187000D03*
%TO.N,GND*%
X138430000Y-91440000D03*
%TO.N,+3V3*%
X139573000Y-92837000D03*
X139573000Y-85471000D03*
%TO.N,GND*%
X138557000Y-85471000D03*
%TO.N,/ADC/sCLK*%
X131318000Y-86741000D03*
X134874000Y-96139000D03*
%TO.N,/ADC/LATCH*%
X133477000Y-96647000D03*
X130302000Y-85471000D03*
%TO.N,+3V3*%
X129794000Y-99187000D03*
X130302000Y-88011000D03*
%TO.N,Net-(SR1-QH')*%
X130429000Y-89281000D03*
X133350000Y-94107000D03*
%TO.N,GND*%
X128651000Y-90932000D03*
%TO.N,+3V3*%
X131064000Y-90932000D03*
%TO.N,GND*%
X135255000Y-89281000D03*
X127508000Y-84201000D03*
X127127000Y-82042000D03*
%TO.N,+3V3*%
X127127000Y-79756000D03*
%TO.N,/ADC/BIT_5_SEL*%
X135255000Y-90932000D03*
%TO.N,/ADC/BIT_12_SEL*%
X131826000Y-80772000D03*
%TO.N,/ADC/TOP_RESET*%
X151638000Y-107950000D03*
%TO.N,/ADC/BIT_3_SEL*%
X152146000Y-101473000D03*
%TO.N,/ADC/BIT_2_SEL*%
X152908000Y-102108000D03*
%TO.N,/ADC/BIT_1_SEL*%
X150876000Y-106553000D03*
%TO.N,/ADC/BIT_0_SEL*%
X152146000Y-107188000D03*
%TO.N,/ADC/BIT_11_SEL*%
X130937000Y-80772000D03*
%TO.N,GND*%
X137163909Y-104143909D03*
D40*
X128650000Y-94850000D03*
X148596902Y-91567000D03*
X143910000Y-80160000D03*
D38*
X143891000Y-103632000D03*
D40*
X145775000Y-98950000D03*
X159520000Y-87210000D03*
X155175000Y-85970180D03*
X148270000Y-80900000D03*
X158975000Y-97300000D03*
D38*
X133540500Y-100393500D03*
X161798000Y-115316000D03*
D40*
X128270000Y-97409000D03*
D38*
X144018000Y-107061000D03*
X140615000Y-103759000D03*
X135001000Y-100838000D03*
D40*
X146600000Y-85600000D03*
%TO.N,+3V3*%
X156425000Y-86475000D03*
X146560000Y-96330000D03*
D38*
X137160000Y-105103909D03*
D40*
X128800000Y-93350000D03*
X152019000Y-99314000D03*
X146875000Y-86750000D03*
%TO.N,/V_bandgap*%
X127750000Y-96300000D03*
D38*
%TO.N,/ADC/BIT_13_BOT*%
X140716000Y-82423000D03*
%TO.N,/ADC/MSB_TOP*%
X149733000Y-105283000D03*
%TO.N,/ADC/BIT_12_BOT*%
X140716000Y-83185000D03*
%TO.N,/ADC/BIT_10_BOT*%
X140843000Y-89662000D03*
%TO.N,/ADC/BIT_9_BOT*%
X140716000Y-90424000D03*
%TO.N,/ADC/BIT_7_BOT*%
X140716000Y-96774000D03*
%TO.N,/ADC/BIT_6_BOT*%
X140716000Y-97536000D03*
%TO.N,/ADC/BIT_1_BOT*%
X152654000Y-104648000D03*
%TO.N,/ADC/BIT_0_BOT*%
X152527000Y-103759000D03*
%TO.N,/ADC/BIT_7_SEL*%
X132334000Y-86741000D03*
%TO.N,/ADC/BIT_13_SEL*%
X130429000Y-81661000D03*
%TO.N,/ADC/BIT_8_SEL*%
X130302000Y-82677000D03*
%TO.N,/ADC/BIT_10_SEL*%
X132080000Y-83566000D03*
%TO.N,/ADC/BIT_9_SEL*%
X131191000Y-82931000D03*
%TO.N,/ADC/BIT_6_SEL*%
X132334000Y-88011000D03*
%TO.N,/ADC/BIT_0_BOT*%
X164211000Y-91567000D03*
%TD*%
D41*
%TO.N,GND*%
X164526000Y-105349000D02*
X164465000Y-105410000D01*
X164526000Y-104231964D02*
X164526000Y-105349000D01*
%TO.N,/ADC/BIT_0_BOT*%
X152527000Y-103759000D02*
X152602000Y-103759000D01*
X152602000Y-103759000D02*
X152755000Y-103912000D01*
X152755000Y-103912000D02*
X154178000Y-103912000D01*
%TO.N,/ADC/BIT_7_BOT*%
X140716000Y-96830202D02*
X140680601Y-96865601D01*
X140680601Y-96865601D02*
X139601944Y-96865601D01*
X140716000Y-96774000D02*
X140716000Y-96830202D01*
%TO.N,/ADC/BIT_10_BOT*%
X140680601Y-89753601D02*
X139601944Y-89753601D01*
X140772202Y-89662000D02*
X140680601Y-89753601D01*
X140843000Y-89662000D02*
X140772202Y-89662000D01*
%TO.N,/ADC/BIT_13_BOT*%
X140716000Y-82423000D02*
X140716000Y-82479202D01*
X140716000Y-82479202D02*
X140680601Y-82514601D01*
X140680601Y-82514601D02*
X139593944Y-82514601D01*
%TO.N,/ADC/LATCH*%
X153035000Y-119557000D02*
X152778500Y-119300500D01*
X152778500Y-119300500D02*
X149478400Y-119300500D01*
X153035000Y-120330000D02*
X153035000Y-119557000D01*
X149478400Y-119300500D02*
X149243500Y-119535400D01*
X154715000Y-122010000D02*
X153035000Y-120330000D01*
X149243500Y-121031000D02*
X148370500Y-121904000D01*
X149243500Y-119535400D02*
X149243500Y-121031000D01*
X142224000Y-121904000D02*
X140970000Y-120650000D01*
X148370500Y-121904000D02*
X142224000Y-121904000D01*
X140970000Y-120650000D02*
X140970000Y-113284000D01*
D42*
%TO.N,/ADC/ADC_OUT*%
X141986000Y-120523000D02*
X141986000Y-112141000D01*
X148209000Y-121031000D02*
X142494000Y-121031000D01*
X148336000Y-121158000D02*
X148209000Y-121031000D01*
X142494000Y-121031000D02*
X141986000Y-120523000D01*
X141986000Y-112141000D02*
X139700000Y-109855000D01*
X139700000Y-109855000D02*
X136019000Y-109855000D01*
X136019000Y-109855000D02*
X135384000Y-110490000D01*
D41*
%TO.N,GND*%
X161798000Y-115316000D02*
X161798000Y-114808000D01*
X159539687Y-112494313D02*
X159539687Y-113490483D01*
X161163000Y-112649000D02*
X160909000Y-112395000D01*
X161798000Y-114808000D02*
X161163000Y-114173000D01*
X161163000Y-114173000D02*
X161163000Y-112649000D01*
X160909000Y-112395000D02*
X159639000Y-112395000D01*
X159639000Y-112395000D02*
X159539687Y-112494313D01*
%TO.N,+3V3*%
X145324231Y-105192231D02*
X145324231Y-105706346D01*
X145288000Y-105156000D02*
X145324231Y-105192231D01*
%TO.N,GND*%
X135303658Y-102821342D02*
X135255000Y-102870000D01*
X136004000Y-102821342D02*
X135303658Y-102821342D01*
X146812000Y-90684523D02*
X146812000Y-91186000D01*
X145881078Y-89753601D02*
X146812000Y-90684523D01*
X145326944Y-89753601D02*
X145881078Y-89753601D01*
%TO.N,+5V*%
X128150000Y-117860000D02*
X126746000Y-116456000D01*
X127889000Y-98425000D02*
X127889000Y-97790000D01*
X126746000Y-116456000D02*
X126746000Y-99568000D01*
X126746000Y-99568000D02*
X127889000Y-98425000D01*
X127889000Y-97790000D02*
X126873000Y-96774000D01*
X126873000Y-96774000D02*
X126873000Y-95377000D01*
X126873000Y-95377000D02*
X127950002Y-94299998D01*
X127950002Y-94299998D02*
X129750000Y-94299998D01*
D42*
%TO.N,GND*%
X134364000Y-112266000D02*
X134366000Y-112268000D01*
X134364000Y-111521000D02*
X134364000Y-112266000D01*
D41*
%TO.N,+5V*%
X130429000Y-94299998D02*
X131002998Y-94299998D01*
X130429000Y-94299998D02*
X130429000Y-93218000D01*
D43*
%TO.N,/ADC/MSB_TOP*%
X157861000Y-100711000D02*
X157861000Y-100162941D01*
X157861000Y-100162941D02*
X159090941Y-98933000D01*
D44*
%TO.N,/AFE/+1.65V*%
X157988000Y-104521000D02*
X158830941Y-104521000D01*
X158830941Y-104521000D02*
X159090941Y-104261000D01*
D41*
%TO.N,Net-(U5-PA9_A5_D5_SCL)*%
X151892000Y-109474000D02*
X152527000Y-110109000D01*
X152527000Y-110109000D02*
X152527000Y-114426674D01*
X149987000Y-109474000D02*
X151892000Y-109474000D01*
%TO.N,Net-(U5-PA8_A4_D4_SDA)*%
X152527000Y-116966674D02*
X152527000Y-115510571D01*
X152527000Y-115510571D02*
X151966000Y-114949571D01*
X151966000Y-114949571D02*
X151966000Y-110691000D01*
X151966000Y-110691000D02*
X151257000Y-109982000D01*
X152527000Y-116966674D02*
X152563674Y-116930000D01*
X152563674Y-116930000D02*
X154715000Y-116930000D01*
%TO.N,Net-(U5-PA9_A5_D5_SCL)*%
X152527000Y-114426674D02*
X152563674Y-114390000D01*
X152563674Y-114390000D02*
X154715000Y-114390000D01*
D43*
%TO.N,GND*%
X157480000Y-110363000D02*
X157480000Y-109200170D01*
X157480000Y-109200170D02*
X157507687Y-109172483D01*
D41*
%TO.N,/ADC/CS*%
X154715000Y-124550000D02*
X154723000Y-124550000D01*
X154723000Y-124550000D02*
X155956000Y-123317000D01*
D44*
%TO.N,/ADC/MOSI*%
X140298000Y-119470000D02*
X140335000Y-119507000D01*
X138550000Y-119470000D02*
X140298000Y-119470000D01*
D41*
%TO.N,/ADC/sCLK*%
X140298000Y-114390000D02*
X140335000Y-114427000D01*
X138550000Y-114390000D02*
X140298000Y-114390000D01*
D44*
%TO.N,/ADC/A0*%
X140245000Y-116930000D02*
X138550000Y-116930000D01*
X141481029Y-108080029D02*
X141478000Y-108077000D01*
X142803641Y-108080029D02*
X141481029Y-108080029D01*
%TO.N,/ADC/A1*%
X139192000Y-108077000D02*
X138406670Y-108077000D01*
X138406670Y-108077000D02*
X138403641Y-108080029D01*
X138557000Y-110490000D02*
X138557000Y-111843000D01*
X138557000Y-111843000D02*
X138550000Y-111850000D01*
D41*
%TO.N,/ADC/sCLK*%
X133604000Y-104648000D02*
X133604000Y-112903000D01*
X133604000Y-112903000D02*
X135091000Y-114390000D01*
X135091000Y-114390000D02*
X138550000Y-114390000D01*
D44*
%TO.N,/ADC/MOSI*%
X132969000Y-105537000D02*
X132969000Y-116205000D01*
X132969000Y-116205000D02*
X136234000Y-119470000D01*
X136234000Y-119470000D02*
X138550000Y-119470000D01*
D45*
%TO.N,Net-(ESP_3V3-A)*%
X135980000Y-122010000D02*
X135890000Y-121920000D01*
X138550000Y-122010000D02*
X135980000Y-122010000D01*
%TO.N,GND*%
X136308000Y-124550000D02*
X136271000Y-124587000D01*
X138550000Y-124550000D02*
X136308000Y-124550000D01*
%TO.N,+5V*%
X135218000Y-127090000D02*
X134493000Y-126365000D01*
X134493000Y-124203000D02*
X128150000Y-117860000D01*
X138550000Y-127090000D02*
X135218000Y-127090000D01*
X134493000Y-126365000D02*
X134493000Y-124203000D01*
D42*
%TO.N,/ADC/ADC_OUT*%
X135384000Y-110490000D02*
X135384000Y-111521000D01*
%TO.N,Net-(ADC_BY1-B)*%
X134874000Y-108854000D02*
X134364000Y-109364000D01*
X134364000Y-109364000D02*
X134364000Y-110490000D01*
%TO.N,/ADC/LATCH*%
X154715000Y-122010000D02*
X158991170Y-122010000D01*
X158991170Y-122010000D02*
X159001687Y-121999483D01*
%TO.N,/ADC/ADC_OUT*%
X154715000Y-127090000D02*
X156681000Y-127090000D01*
X156681000Y-127090000D02*
X156718000Y-127127000D01*
D41*
X162179000Y-112776000D02*
X161671000Y-113284000D01*
D42*
%TO.N,+3V3A*%
X164357517Y-119487483D02*
X164465000Y-119380000D01*
X163603687Y-119487483D02*
X164357517Y-119487483D01*
D45*
X136719172Y-101412861D02*
X136719172Y-102048172D01*
X136719172Y-102048172D02*
X136779000Y-102108000D01*
D43*
%TO.N,/ADC/VSMP*%
X164338000Y-112776000D02*
X164338000Y-114379483D01*
X155956000Y-106172000D02*
X155448000Y-106172000D01*
X155138000Y-105862000D02*
X154178000Y-105862000D01*
X155448000Y-106172000D02*
X155138000Y-105862000D01*
D41*
%TO.N,/ADC/DAC_OUT*%
X157734000Y-107061000D02*
X158957941Y-107061000D01*
X158957941Y-107061000D02*
X159090941Y-106928000D01*
%TO.N,/ADC/MSB_TOP*%
X163449000Y-86093000D02*
X164452000Y-86093000D01*
X164452000Y-86093000D02*
X164973000Y-86614000D01*
X160845500Y-96266000D02*
X159090941Y-98020559D01*
X163068000Y-96266000D02*
X160845500Y-96266000D01*
X164973000Y-86614000D02*
X164973000Y-94361000D01*
X164973000Y-94361000D02*
X163068000Y-96266000D01*
X159090941Y-98020559D02*
X159090941Y-98933000D01*
D43*
%TO.N,/AFE/+1.65V*%
X149677000Y-105862000D02*
X149860000Y-106045000D01*
X148453000Y-105862000D02*
X149677000Y-105862000D01*
D41*
%TO.N,/ADC/BIT_7_BOT*%
X164338000Y-82042000D02*
X163335002Y-82042000D01*
X163335002Y-82042000D02*
X163322000Y-82055002D01*
D43*
%TO.N,/ADC/BIT_9_BOT*%
X160274000Y-85116000D02*
X160274000Y-85852000D01*
%TO.N,/ADC/BIT_10_BOT*%
X158750000Y-85116000D02*
X158750000Y-85852000D01*
%TO.N,/ADC/BIT_13_BOT*%
X149606000Y-80505002D02*
X149606000Y-79629000D01*
%TO.N,/ADC/BIT_12_BOT*%
X148743000Y-85116000D02*
X148463000Y-84836000D01*
X149606000Y-85116000D02*
X148743000Y-85116000D01*
%TO.N,/ADC/BIT_6_BOT*%
X149606000Y-90017000D02*
X148743000Y-90017000D01*
X148743000Y-90017000D02*
X148082000Y-90678000D01*
D44*
%TO.N,/AFE/TIA_OUT*%
X138811000Y-100531857D02*
X138811000Y-99949000D01*
D41*
%TO.N,/ADC/BIT_4_SEL*%
X152781000Y-100838000D02*
X154226444Y-100838000D01*
X154226444Y-100838000D02*
X154267444Y-100797000D01*
%TO.N,/ADC/ADC_Input1*%
X141859000Y-93472000D02*
X141859000Y-93599000D01*
X141859000Y-93599000D02*
X141857641Y-93600359D01*
X141857641Y-93600359D02*
X141857641Y-102098800D01*
%TO.N,/ADC/BIT_1_BOT*%
X163322000Y-93853000D02*
X163449000Y-93980000D01*
X163322000Y-93091000D02*
X163322000Y-93853000D01*
%TO.N,/ADC/BIT_2_BOT*%
X160274000Y-94627998D02*
X160274000Y-95377000D01*
X160274000Y-95377000D02*
X159766000Y-95885000D01*
X159766000Y-95885000D02*
X159385000Y-95885000D01*
%TO.N,/ADC/ADC_OUT*%
X164526000Y-101531964D02*
X164526000Y-102555000D01*
X163703000Y-103378000D02*
X163703000Y-104648000D01*
X163703000Y-104648000D02*
X162179000Y-106172000D01*
X164526000Y-102555000D02*
X163703000Y-103378000D01*
X162179000Y-106172000D02*
X162179000Y-112776000D01*
%TO.N,GND*%
X164536000Y-99822000D02*
X164536000Y-99084941D01*
%TO.N,+3V3*%
X163576000Y-99822000D02*
X163576000Y-99079059D01*
X163576000Y-99822000D02*
X163576000Y-101288977D01*
%TO.N,GND*%
X164439941Y-104318023D02*
X164526000Y-104231964D01*
%TO.N,Net-(U13A--)*%
X160489687Y-110790483D02*
X160489687Y-111755156D01*
X160489687Y-111755156D02*
X160230843Y-112014000D01*
X160230843Y-112014000D02*
X159004000Y-112014000D01*
X159004000Y-112014000D02*
X158589687Y-112428313D01*
X158589687Y-112428313D02*
X158589687Y-113490483D01*
%TO.N,GND*%
X164286517Y-120447483D02*
X164338000Y-120396000D01*
X163603687Y-120447483D02*
X164286517Y-120447483D01*
X159385517Y-116839483D02*
X159385000Y-116840000D01*
X160367687Y-116839483D02*
X159385517Y-116839483D01*
D43*
%TO.N,+3V3A*%
X158467687Y-108429687D02*
X158369000Y-108331000D01*
X158467687Y-109172483D02*
X158467687Y-108429687D01*
%TO.N,/ADC/S{slash}H_OUT*%
X159090941Y-101600000D02*
X156718000Y-103972941D01*
X156718000Y-103972941D02*
X156718000Y-114253831D01*
X156718000Y-114253831D02*
X157569049Y-115104880D01*
D41*
%TO.N,Net-(U13A--)*%
X158589687Y-113490483D02*
X158589687Y-115104242D01*
X158589687Y-115104242D02*
X158589049Y-115104880D01*
%TO.N,Net-(S/H_EN1-B)*%
X160367687Y-119539483D02*
X160367687Y-121933483D01*
X160367687Y-121933483D02*
X160301687Y-121999483D01*
%TO.N,Net-(S/H1-B)*%
X162267687Y-116839483D02*
X162267687Y-115989313D01*
X163038000Y-115219000D02*
X163038000Y-114379483D01*
X162267687Y-115989313D02*
X163038000Y-115219000D01*
%TO.N,GND*%
X149692000Y-100797000D02*
X149860000Y-100965000D01*
X148542444Y-100797000D02*
X149692000Y-100797000D01*
X147533000Y-98847000D02*
X147320000Y-99060000D01*
X148542444Y-98847000D02*
X147533000Y-98847000D01*
X148453000Y-106512000D02*
X149311000Y-106512000D01*
X149311000Y-106512000D02*
X149606000Y-106807000D01*
X149363000Y-107812000D02*
X148453000Y-107812000D01*
X149606000Y-106807000D02*
X149606000Y-107569000D01*
X149606000Y-107569000D02*
X149363000Y-107812000D01*
X145326944Y-86503601D02*
X145696399Y-86503601D01*
X145696399Y-86503601D02*
X146600000Y-85600000D01*
X146597067Y-108164933D02*
X146177000Y-108585000D01*
X146887161Y-108164933D02*
X146597067Y-108164933D01*
X148453000Y-107812000D02*
X147240094Y-107812000D01*
X147240094Y-107812000D02*
X146887161Y-108164933D01*
%TO.N,Net-(U15-VSS)*%
X148453000Y-107162000D02*
X146930094Y-107162000D01*
X146930094Y-107162000D02*
X146887161Y-107204933D01*
%TO.N,/ADC/BIT_3_BOT*%
X154267444Y-98197000D02*
X152934000Y-98197000D01*
X152781000Y-97028000D02*
X153543000Y-96266000D01*
X152934000Y-98197000D02*
X152781000Y-98044000D01*
X157111998Y-96266000D02*
X158750000Y-94627998D01*
X152781000Y-98044000D02*
X152781000Y-97028000D01*
X153543000Y-96266000D02*
X157111998Y-96266000D01*
%TO.N,/ADC/BIT_4_BOT*%
X154267444Y-98847000D02*
X152822000Y-98847000D01*
X152822000Y-98847000D02*
X152400000Y-98425000D01*
X154444998Y-95885000D02*
X155702000Y-94627998D01*
X152400000Y-98425000D02*
X152400000Y-96774000D01*
X152400000Y-96774000D02*
X153289000Y-95885000D01*
X153289000Y-95885000D02*
X154444998Y-95885000D01*
%TO.N,/ADC/BIT_2_BOT*%
X149423000Y-99497000D02*
X149860000Y-99060000D01*
X148542444Y-99497000D02*
X149423000Y-99497000D01*
%TO.N,/ADC/BIT_11_BOT*%
X145318944Y-81864601D02*
X146380601Y-81864601D01*
X146380601Y-81864601D02*
X147701000Y-83185000D01*
X147701000Y-85979000D02*
X148844000Y-87122000D01*
X147701000Y-83185000D02*
X147701000Y-85979000D01*
X148844000Y-87122000D02*
X154813000Y-87122000D01*
X154813000Y-87122000D02*
X155702000Y-86233000D01*
X155702000Y-86233000D02*
X155702000Y-85116000D01*
%TO.N,/ADC/BIT_8_BOT*%
X158927399Y-89103601D02*
X145326944Y-89103601D01*
X161798000Y-86233000D02*
X158927399Y-89103601D01*
X164211000Y-83693000D02*
X163435998Y-83693000D01*
X163435998Y-83693000D02*
X163322000Y-83579002D01*
%TO.N,GND*%
X139601944Y-89103601D02*
X138734399Y-89103601D01*
X138430000Y-89408000D02*
X138430000Y-91440000D01*
X138734399Y-89103601D02*
X138430000Y-89408000D01*
X146141601Y-96865601D02*
X146558000Y-97282000D01*
X145326944Y-96865601D02*
X146141601Y-96865601D01*
X145775000Y-98950000D02*
X147178000Y-97547000D01*
X147178000Y-97547000D02*
X148542444Y-97547000D01*
D43*
%TO.N,/ADC/VSMP*%
X150749000Y-100147000D02*
X150749000Y-98806000D01*
X150749000Y-98806000D02*
X150140000Y-98197000D01*
X150140000Y-98197000D02*
X148542444Y-98197000D01*
X150749000Y-100147000D02*
X154267444Y-100147000D01*
D42*
%TO.N,Net-(CAP2-B)*%
X160390941Y-104261000D02*
X162596964Y-104261000D01*
X162596964Y-104261000D02*
X162626000Y-104231964D01*
X160390941Y-106928000D02*
X160390941Y-104261000D01*
%TO.N,Net-(CAP1-B)*%
X162626000Y-101531964D02*
X160458977Y-101531964D01*
X160458977Y-101531964D02*
X160390941Y-101600000D01*
X160390941Y-98933000D02*
X160390941Y-101600000D01*
D41*
%TO.N,GND*%
X164197998Y-90029998D02*
X164211000Y-90043000D01*
X163322000Y-90029998D02*
X164197998Y-90029998D01*
%TO.N,/ADC/BIT_5_BOT*%
X145326944Y-96215601D02*
X145927694Y-96215601D01*
X147515297Y-94627998D02*
X149606000Y-94627998D01*
X145927694Y-96215601D02*
X147515297Y-94627998D01*
%TO.N,GND*%
X145326944Y-98165601D02*
X145326944Y-98501944D01*
X145326944Y-98501944D02*
X145775000Y-98950000D01*
X146541399Y-79264601D02*
X146558000Y-79248000D01*
X145318944Y-79264601D02*
X146541399Y-79264601D01*
%TO.N,Net-(U8-VSS)*%
X144175944Y-78237601D02*
X144175944Y-79679239D01*
X144175944Y-79679239D02*
X144411306Y-79914601D01*
X144411306Y-79914601D02*
X145318944Y-79914601D01*
%TO.N,GND*%
X143215944Y-78237601D02*
X143215944Y-79465944D01*
X143215944Y-79465944D02*
X143910000Y-80160000D01*
X145318944Y-80564601D02*
X144314601Y-80564601D01*
X144314601Y-80564601D02*
X143910000Y-80160000D01*
X144658399Y-83814601D02*
X144145000Y-84328000D01*
X145318944Y-83814601D02*
X144658399Y-83814601D01*
X144363601Y-82514601D02*
X144018000Y-82169000D01*
X145318944Y-82514601D02*
X144363601Y-82514601D01*
X143637000Y-87503000D02*
X143510000Y-87503000D01*
X143215944Y-86430100D02*
X143962922Y-87177078D01*
X143962922Y-87177078D02*
X143637000Y-87503000D01*
X143215944Y-85476601D02*
X143215944Y-86430100D01*
X143962922Y-87177078D02*
X144589445Y-87803601D01*
X144589445Y-87803601D02*
X145326944Y-87803601D01*
%TO.N,Net-(U9-VSS)*%
X144175944Y-85476601D02*
X144175944Y-86740100D01*
X144589445Y-87153601D02*
X145326944Y-87153601D01*
X144175944Y-86740100D02*
X144589445Y-87153601D01*
%TO.N,GND*%
X144150399Y-91053601D02*
X144145000Y-91059000D01*
X145326944Y-91053601D02*
X144150399Y-91053601D01*
X143215944Y-93542100D02*
X144026422Y-94352578D01*
X144026422Y-94352578D02*
X143637000Y-94742000D01*
X143215944Y-92588601D02*
X143215944Y-93542100D01*
X144026422Y-94352578D02*
X144589445Y-94915601D01*
X144589445Y-94915601D02*
X145326944Y-94915601D01*
%TO.N,Net-(U10-VSS)*%
X144175944Y-92588601D02*
X144175944Y-93852100D01*
X144589445Y-94265601D02*
X145326944Y-94265601D01*
X144175944Y-93852100D02*
X144589445Y-94265601D01*
%TO.N,GND*%
X145326944Y-93615601D02*
X145326944Y-91053601D01*
X139601944Y-96215601D02*
X141173601Y-96215601D01*
X141173601Y-96215601D02*
X141478000Y-96520000D01*
X141478000Y-96520000D02*
X141478000Y-98242000D01*
X141478000Y-98242000D02*
X140533000Y-99187000D01*
X139593944Y-81864601D02*
X138856445Y-81864601D01*
X138856445Y-81864601D02*
X138585000Y-82136046D01*
X138585000Y-82136046D02*
X138585000Y-84836000D01*
%TO.N,+3V3*%
X156591000Y-98397000D02*
X156591000Y-99060000D01*
X155829000Y-97635000D02*
X156591000Y-98397000D01*
X155829000Y-97635000D02*
X154355444Y-97635000D01*
X154355444Y-97635000D02*
X154267444Y-97547000D01*
%TO.N,GND*%
X155829000Y-98595000D02*
X155829000Y-99314000D01*
X155829000Y-98595000D02*
X154927000Y-99497000D01*
X154927000Y-99497000D02*
X154267444Y-99497000D01*
X155702000Y-104902000D02*
X155392000Y-105212000D01*
X155392000Y-105212000D02*
X154178000Y-105212000D01*
X155760500Y-104843500D02*
X155702000Y-104902000D01*
X155760500Y-104222000D02*
X155760500Y-104843500D01*
%TO.N,+3V3*%
X155760500Y-102674500D02*
X155702000Y-102616000D01*
X155760500Y-103262000D02*
X155760500Y-102674500D01*
X154178000Y-103262000D02*
X155760500Y-103262000D01*
%TO.N,GND*%
X148542444Y-102616000D02*
X149225000Y-102616000D01*
X148542444Y-102097000D02*
X148542444Y-102616000D01*
X148542444Y-102616000D02*
X148542444Y-103172556D01*
X148542444Y-103172556D02*
X148453000Y-103262000D01*
X148542444Y-102097000D02*
X147275000Y-102097000D01*
X147275000Y-102097000D02*
X146939000Y-102433000D01*
%TO.N,Net-(U12-VSS)*%
X146939000Y-101473000D02*
X148516444Y-101473000D01*
X148516444Y-101473000D02*
X148542444Y-101447000D01*
%TO.N,GND*%
X140533000Y-99370000D02*
X139827000Y-100076000D01*
X140533000Y-99187000D02*
X140533000Y-99370000D01*
%TO.N,+3V3*%
X139573000Y-99187000D02*
X138684000Y-99187000D01*
X139573000Y-99187000D02*
X139573000Y-98194545D01*
X139573000Y-98194545D02*
X139601944Y-98165601D01*
%TO.N,GND*%
X138430000Y-91440000D02*
X138430000Y-91892000D01*
X138430000Y-91892000D02*
X138613000Y-92075000D01*
%TO.N,+3V3*%
X139573000Y-92075000D02*
X139573000Y-92837000D01*
X139573000Y-92075000D02*
X139573000Y-91082545D01*
X139573000Y-91082545D02*
X139601944Y-91053601D01*
X139545000Y-85443000D02*
X139573000Y-85471000D01*
X139545000Y-84836000D02*
X139545000Y-85443000D01*
%TO.N,GND*%
X138585000Y-85443000D02*
X138557000Y-85471000D01*
X138585000Y-84836000D02*
X138585000Y-85443000D01*
%TO.N,+3V3*%
X139593944Y-83814601D02*
X139593944Y-84787056D01*
X139593944Y-84787056D02*
X139545000Y-84836000D01*
%TO.N,/ADC/sCLK*%
X131318000Y-88900000D02*
X131318000Y-86741000D01*
%TO.N,/ADC/LATCH*%
X133477000Y-96647000D02*
X133858000Y-96266000D01*
X133858000Y-96266000D02*
X133858000Y-91948000D01*
X133858000Y-91948000D02*
X130810000Y-88900000D01*
X130810000Y-88900000D02*
X130810000Y-85979000D01*
X130810000Y-85979000D02*
X130302000Y-85471000D01*
%TO.N,/ADC/sCLK*%
X131318000Y-88900000D02*
X134874000Y-92456000D01*
X134874000Y-96139000D02*
X134874000Y-92456000D01*
%TO.N,GND*%
X128270000Y-97409000D02*
X128311000Y-97450000D01*
X128950000Y-97300000D02*
X129850000Y-97300000D01*
X128311000Y-97450000D02*
X128800000Y-97450000D01*
X128800000Y-97450000D02*
X128950000Y-97300000D01*
%TO.N,Net-(SR1-QH')*%
X133350000Y-94107000D02*
X133350000Y-92202000D01*
X130429000Y-89281000D02*
X133350000Y-92202000D01*
%TO.N,/ADC/BIT_5_SEL*%
X135255000Y-90932000D02*
X137938601Y-93615601D01*
X137938601Y-93615601D02*
X139601944Y-93615601D01*
%TO.N,/ADC/BIT_6_SEL*%
X139601944Y-94265601D02*
X137826601Y-94265601D01*
X137826601Y-94265601D02*
X132334000Y-88773000D01*
X132334000Y-88773000D02*
X132334000Y-88011000D01*
%TO.N,/ADC/BIT_7_SEL*%
X139601944Y-94915601D02*
X137968601Y-94915601D01*
X137968601Y-94915601D02*
X131699000Y-88646000D01*
X131699000Y-88646000D02*
X131699000Y-87376000D01*
X131699000Y-87376000D02*
X132334000Y-86741000D01*
%TO.N,/ADC/BIT_12_SEL*%
X131826000Y-80772000D02*
X132424364Y-80772000D01*
X132424364Y-80772000D02*
X133281763Y-79914601D01*
X133281763Y-79914601D02*
X139593944Y-79914601D01*
%TO.N,/ADC/BIT_11_SEL*%
X130937000Y-80772000D02*
X132444399Y-79264601D01*
X132444399Y-79264601D02*
X139593944Y-79264601D01*
%TO.N,/ADC/TOP_RESET*%
X151638000Y-107950000D02*
X152273000Y-107950000D01*
X152273000Y-107950000D02*
X152411000Y-107812000D01*
X152411000Y-107812000D02*
X154178000Y-107812000D01*
%TO.N,/ADC/BIT_3_SEL*%
X152146000Y-101473000D02*
X152172000Y-101447000D01*
X152172000Y-101447000D02*
X154267444Y-101447000D01*
%TO.N,/ADC/BIT_2_SEL*%
X152908000Y-102108000D02*
X154256444Y-102108000D01*
X154256444Y-102108000D02*
X154267444Y-102097000D01*
%TO.N,GND*%
X143891000Y-103632000D02*
X143911841Y-103632000D01*
X143911841Y-103632000D02*
X144664641Y-104384800D01*
%TO.N,/ADC/BIT_1_SEL*%
X150876000Y-106553000D02*
X150917000Y-106512000D01*
X150917000Y-106512000D02*
X154178000Y-106512000D01*
%TO.N,/ADC/BIT_0_SEL*%
X152146000Y-107188000D02*
X152172000Y-107162000D01*
X152172000Y-107162000D02*
X154178000Y-107162000D01*
%TO.N,/ADC/BIT_8_SEL*%
X130302000Y-82677000D02*
X130576000Y-82403000D01*
X132822000Y-82403000D02*
X136922601Y-86503601D01*
X130576000Y-82403000D02*
X132822000Y-82403000D01*
X136922601Y-86503601D02*
X139601944Y-86503601D01*
%TO.N,/ADC/BIT_10_SEL*%
X132080000Y-83566000D02*
X132969000Y-83566000D01*
X132969000Y-83566000D02*
X137206601Y-87803601D01*
X137206601Y-87803601D02*
X139601944Y-87803601D01*
%TO.N,/ADC/BIT_9_SEL*%
X139601944Y-87153601D02*
X137064601Y-87153601D01*
X132842000Y-82931000D02*
X131191000Y-82931000D01*
X137064601Y-87153601D02*
X132842000Y-82931000D01*
%TO.N,/ADC/BIT_13_SEL*%
X130429000Y-81661000D02*
X132461000Y-81661000D01*
X132461000Y-81661000D02*
X133557399Y-80564601D01*
X133557399Y-80564601D02*
X139593944Y-80564601D01*
%TO.N,GND*%
X140615000Y-102821342D02*
X140615000Y-103759000D01*
X133537462Y-100390462D02*
X133537462Y-99636099D01*
X142803641Y-107080029D02*
X143998971Y-107080029D01*
X160367687Y-115532483D02*
X159976687Y-115141483D01*
X140615000Y-103759000D02*
X140615000Y-103847000D01*
X143998971Y-107080029D02*
X144018000Y-107061000D01*
X140615000Y-103847000D02*
X140068000Y-104394000D01*
X160367687Y-116839483D02*
X160367687Y-115532483D01*
X159539687Y-114704483D02*
X159976687Y-115141483D01*
X135575861Y-101412861D02*
X135001000Y-100838000D01*
X137163909Y-104143909D02*
X137846949Y-104143909D01*
X128650000Y-94850000D02*
X128650000Y-95350000D01*
X133540500Y-100393500D02*
X133537462Y-100390462D01*
X129100000Y-95800000D02*
X129750000Y-95800000D01*
X159539687Y-113490483D02*
X159539687Y-114704483D01*
X128650000Y-95350000D02*
X129100000Y-95800000D01*
X135759172Y-101412861D02*
X135575861Y-101412861D01*
X135002480Y-100109792D02*
X135002480Y-100836520D01*
X135002480Y-100836520D02*
X135001000Y-100838000D01*
%TO.N,+3V3*%
X129750000Y-93799999D02*
X129249999Y-93799999D01*
X137160000Y-105103909D02*
X137846949Y-105103909D01*
X129249999Y-93799999D02*
X128800000Y-93350000D01*
%TO.N,/V_bandgap*%
X128249998Y-96799998D02*
X127750000Y-96300000D01*
X130429000Y-102881000D02*
X128150000Y-105160000D01*
X130299998Y-96799998D02*
X130429000Y-96929000D01*
X130429000Y-96929000D02*
X130429000Y-102881000D01*
X129850000Y-96799998D02*
X130299998Y-96799998D01*
X129750000Y-96799998D02*
X128249998Y-96799998D01*
%TO.N,/PWM_IR*%
X131191000Y-95941000D02*
X131191000Y-109739000D01*
X130549999Y-95299999D02*
X131191000Y-95941000D01*
X131191000Y-109739000D02*
X128150000Y-112780000D01*
X129750000Y-95299999D02*
X130549999Y-95299999D01*
%TO.N,/PWM_Red*%
X129750000Y-94800000D02*
X130950000Y-94800000D01*
X130950000Y-94800000D02*
X131699000Y-95549000D01*
X131699000Y-95549000D02*
X131699000Y-111771000D01*
X131699000Y-111771000D02*
X128150000Y-115320000D01*
%TO.N,/V_ptat*%
X130810000Y-105040000D02*
X128150000Y-107700000D01*
X130599999Y-96299999D02*
X129750000Y-96299999D01*
X130810000Y-96510000D02*
X130810000Y-105040000D01*
X130599999Y-96299999D02*
X130810000Y-96510000D01*
D43*
%TO.N,/ADC/BIT_13_BOT*%
X160267000Y-80505002D02*
X149606000Y-80505002D01*
%TO.N,/ADC/MSB_TOP*%
X161772000Y-82055002D02*
X149606000Y-82055002D01*
D41*
X149662000Y-105212000D02*
X149733000Y-105283000D01*
D45*
X161772000Y-83579002D02*
X161772000Y-84416000D01*
D41*
X148453000Y-105212000D02*
X149662000Y-105212000D01*
D43*
X149606000Y-82055002D02*
X149606000Y-83566000D01*
X149606000Y-83566000D02*
X161758998Y-83566000D01*
X161758998Y-83566000D02*
X161772000Y-83579002D01*
D45*
X161772000Y-84416000D02*
X163449000Y-86093000D01*
D41*
%TO.N,/ADC/BIT_12_BOT*%
X140695601Y-83164601D02*
X140716000Y-83185000D01*
D43*
X149606000Y-85116000D02*
X154178000Y-85116000D01*
D41*
X139593944Y-83164601D02*
X140695601Y-83164601D01*
D43*
%TO.N,/ADC/BIT_11_BOT*%
X155702000Y-85116000D02*
X157226000Y-85116000D01*
D41*
%TO.N,/ADC/BIT_9_BOT*%
X140695601Y-90403601D02*
X140716000Y-90424000D01*
X139601944Y-90403601D02*
X140695601Y-90403601D01*
D43*
%TO.N,/ADC/LSB_TOP*%
X149606000Y-93077998D02*
X149606000Y-91567000D01*
D45*
X161772000Y-90029998D02*
X161772000Y-89320000D01*
D43*
X161772000Y-91567000D02*
X161772000Y-90029998D01*
X149619002Y-93091000D02*
X149606000Y-93077998D01*
D45*
X161772000Y-89320000D02*
X163449000Y-87643000D01*
D43*
X149606000Y-91567000D02*
X161772000Y-91567000D01*
X161772000Y-93091000D02*
X149619002Y-93091000D01*
D41*
%TO.N,/ADC/BIT_6_BOT*%
X139601944Y-97515601D02*
X140695601Y-97515601D01*
D43*
X160267000Y-90017000D02*
X149606000Y-90017000D01*
D41*
X140695601Y-97515601D02*
X140716000Y-97536000D01*
D43*
%TO.N,/ADC/BIT_5_BOT*%
X149606000Y-94627998D02*
X154178000Y-94627998D01*
%TO.N,/ADC/BIT_4_BOT*%
X155702000Y-94627998D02*
X157226000Y-94627998D01*
D41*
%TO.N,/ADC/BIT_1_BOT*%
X154178000Y-104562000D02*
X152740000Y-104562000D01*
X152740000Y-104562000D02*
X152654000Y-104648000D01*
%TO.N,+5V*%
X135002480Y-98209792D02*
X134003769Y-98209792D01*
X132715000Y-96012000D02*
X132715000Y-97853500D01*
X129750000Y-94299998D02*
X130429000Y-94299998D01*
X132715000Y-97853500D02*
X133537462Y-98675962D01*
X131002998Y-94299998D02*
X132715000Y-96012000D01*
X133537462Y-98675962D02*
X133537462Y-98676099D01*
X134003769Y-98209792D02*
X133537462Y-98676099D01*
D43*
%TO.N,/ADC/VSMP*%
X148453000Y-103912000D02*
X150013000Y-103912000D01*
X148542444Y-100147000D02*
X150749000Y-100147000D01*
X150013000Y-103912000D02*
X151963000Y-105862000D01*
X151963000Y-105862000D02*
X154178000Y-105862000D01*
D41*
%TO.N,Net-(U7-S1)*%
X141857641Y-104154359D02*
X141618000Y-104394000D01*
X141522641Y-107024028D02*
X141522641Y-104489359D01*
X141857641Y-103118800D02*
X141857641Y-104154359D01*
X142803641Y-107580029D02*
X142078642Y-107580029D01*
X141522641Y-104489359D02*
X141618000Y-104394000D01*
X142078642Y-107580029D02*
X141522641Y-107024028D01*
%TO.N,Net-(U7-S2)*%
X138811000Y-102567342D02*
X139065000Y-102821342D01*
X139573000Y-105537000D02*
X139573000Y-107066256D01*
X138811000Y-101551857D02*
X138811000Y-102567342D01*
X139573000Y-107066256D02*
X139059227Y-107580029D01*
X139059227Y-107580029D02*
X138403641Y-107580029D01*
X139065000Y-105029000D02*
X139573000Y-105537000D01*
X139065000Y-102821342D02*
X139065000Y-105029000D01*
%TO.N,Net-(U7-S3)*%
X142873641Y-104143800D02*
X143114641Y-104384800D01*
X142078642Y-106580029D02*
X141850641Y-106352028D01*
X141850641Y-105648800D02*
X143114641Y-104384800D01*
X141850641Y-106352028D02*
X141850641Y-105648800D01*
X142873641Y-103118800D02*
X142873641Y-104143800D01*
X142803641Y-106580029D02*
X142078642Y-106580029D01*
%TO.N,Net-(U7-S4)*%
X137795000Y-101551857D02*
X137795000Y-102580342D01*
X136652000Y-105553387D02*
X137678642Y-106580029D01*
X137554000Y-102821342D02*
X136652000Y-103723342D01*
X137678642Y-106580029D02*
X138403641Y-106580029D01*
X137795000Y-102580342D02*
X137554000Y-102821342D01*
X136652000Y-103723342D02*
X136652000Y-105553387D01*
%TO.N,Net-(U7-EN)*%
X142803641Y-106080029D02*
X143930548Y-106080029D01*
X143930548Y-106080029D02*
X144304231Y-105706346D01*
%TO.N,/ADC/BIT_0_BOT*%
X163322000Y-91567000D02*
X164211000Y-91567000D01*
D43*
%TO.N,/ADC/VSMP*%
X142621000Y-90170000D02*
X142854601Y-90403601D01*
X142621000Y-90170000D02*
X142621000Y-88519000D01*
X142854601Y-90403601D02*
X145326944Y-90403601D01*
X140843000Y-93218000D02*
X140843000Y-95269665D01*
X140547064Y-95565601D02*
X139601944Y-95565601D01*
X140843000Y-95269665D02*
X140547064Y-95565601D01*
X141224000Y-92837000D02*
X140843000Y-93218000D01*
X142240000Y-92837000D02*
X141224000Y-92837000D01*
X146685000Y-104942501D02*
X146177000Y-104434501D01*
D41*
X137140971Y-107080029D02*
X136906000Y-107315000D01*
D43*
X142748000Y-81280000D02*
X142682601Y-81214601D01*
X142555601Y-88453601D02*
X139601944Y-88453601D01*
X142748000Y-81280000D02*
X142813399Y-81214601D01*
X142621000Y-88519000D02*
X142621000Y-86360000D01*
X142895399Y-83164601D02*
X145318944Y-83164601D01*
X142494000Y-93091000D02*
X142240000Y-92837000D01*
X142813399Y-81214601D02*
X145318944Y-81214601D01*
X142494000Y-97536000D02*
X142514399Y-97515601D01*
D41*
X136906000Y-107315000D02*
X136906000Y-107823000D01*
D43*
X146177000Y-104434501D02*
X146177000Y-100965000D01*
X142494000Y-99314000D02*
X142494000Y-97536000D01*
X142621000Y-90678000D02*
X142621000Y-90170000D01*
X136906000Y-108712000D02*
X137287000Y-109093000D01*
X142367000Y-86106000D02*
X142367000Y-84201000D01*
X144145000Y-100965000D02*
X142494000Y-99314000D01*
X142240000Y-92837000D02*
X142240000Y-91059000D01*
X142748000Y-83312000D02*
X142895399Y-83164601D01*
X146685000Y-105918000D02*
X146685000Y-104942501D01*
X136906000Y-107823000D02*
X136906000Y-108712000D01*
X142494000Y-95504000D02*
X142494000Y-93091000D01*
X147715501Y-103912000D02*
X148453000Y-103912000D01*
X142494000Y-97536000D02*
X142494000Y-95504000D01*
X143510000Y-109093000D02*
X146685000Y-105918000D01*
X146995000Y-100147000D02*
X148542444Y-100147000D01*
X142240000Y-91059000D02*
X142621000Y-90678000D01*
X146177000Y-100965000D02*
X146995000Y-100147000D01*
X142686399Y-88453601D02*
X145326944Y-88453601D01*
X142682601Y-81214601D02*
X139593944Y-81214601D01*
X142621000Y-86360000D02*
X142367000Y-86106000D01*
X142621000Y-88519000D02*
X142686399Y-88453601D01*
X142555601Y-95565601D02*
X145326944Y-95565601D01*
D41*
X138403641Y-107080029D02*
X137140971Y-107080029D01*
D43*
X146685000Y-104942501D02*
X147715501Y-103912000D01*
X142748000Y-83820000D02*
X142748000Y-83312000D01*
X142748000Y-83312000D02*
X142748000Y-81280000D01*
X142367000Y-84201000D02*
X142748000Y-83820000D01*
X142514399Y-97515601D02*
X145326944Y-97515601D01*
X142621000Y-88519000D02*
X142555601Y-88453601D01*
X146177000Y-100965000D02*
X144145000Y-100965000D01*
X142494000Y-95504000D02*
X142555601Y-95565601D01*
X137287000Y-109093000D02*
X143510000Y-109093000D01*
%TD*%
M02*
