%TF.GenerationSoftware,KiCad,Pcbnew,9.0.7*%
%TF.CreationDate,2026-04-25T22:31:22-07:00*%
%TF.ProjectId,Primary_Board,5072696d-6172-4795-9f42-6f6172642e6b,rev?*%
%TF.SameCoordinates,Original*%
%TF.FileFunction,Copper,L3,Inr*%
%TF.FilePolarity,Positive*%
%FSLAX46Y46*%
G04 Gerber Fmt 4.6, Leading zero omitted, Abs format (unit mm)*
G04 Created by KiCad (PCBNEW 9.0.7) date 2026-04-25 22:31:22*
%MOMM*%
%LPD*%
G01*
G04 APERTURE LIST*
G04 Aperture macros list*
%AMRoundRect*
0 Rectangle with rounded corners*
0 $1 Rounding radius*
0 $2 $3 $4 $5 $6 $7 $8 $9 X,Y pos of 4 corners*
0 Add a 4 corners polygon primitive as box body*
4,1,4,$2,$3,$4,$5,$6,$7,$8,$9,$2,$3,0*
0 Add four circle primitives for the rounded corners*
1,1,$1+$1,$2,$3*
1,1,$1+$1,$4,$5*
1,1,$1+$1,$6,$7*
1,1,$1+$1,$8,$9*
0 Add four rect primitives between the rounded corners*
20,1,$1+$1,$2,$3,$4,$5,0*
20,1,$1+$1,$4,$5,$6,$7,0*
20,1,$1+$1,$6,$7,$8,$9,0*
20,1,$1+$1,$8,$9,$2,$3,0*%
G04 Aperture macros list end*
%TA.AperFunction,ComponentPad*%
%ADD10C,3.800000*%
%TD*%
%TA.AperFunction,ComponentPad*%
%ADD11R,1.508000X1.508000*%
%TD*%
%TA.AperFunction,ComponentPad*%
%ADD12C,1.508000*%
%TD*%
%TA.AperFunction,ComponentPad*%
%ADD13R,1.700000X1.700000*%
%TD*%
%TA.AperFunction,ComponentPad*%
%ADD14C,1.700000*%
%TD*%
%TA.AperFunction,ComponentPad*%
%ADD15RoundRect,0.275000X-0.975000X-0.275000X0.975000X-0.275000X0.975000X0.275000X-0.975000X0.275000X0*%
%TD*%
%TA.AperFunction,ComponentPad*%
%ADD16RoundRect,0.625000X0.750000X0.625000X-0.750000X0.625000X-0.750000X-0.625000X0.750000X-0.625000X0*%
%TD*%
%TA.AperFunction,ViaPad*%
%ADD17C,0.450000*%
%TD*%
%TA.AperFunction,ViaPad*%
%ADD18C,0.600000*%
%TD*%
%TA.AperFunction,ViaPad*%
%ADD19C,0.500000*%
%TD*%
%TA.AperFunction,Conductor*%
%ADD20C,0.254000*%
%TD*%
%TA.AperFunction,Conductor*%
%ADD21C,0.200000*%
%TD*%
%TA.AperFunction,Conductor*%
%ADD22C,0.381000*%
%TD*%
%TA.AperFunction,Conductor*%
%ADD23C,0.500000*%
%TD*%
%TA.AperFunction,Conductor*%
%ADD24C,0.600000*%
%TD*%
G04 APERTURE END LIST*
D10*
%TO.N,GND*%
%TO.C,H1*%
X129400000Y-76750000D03*
%TD*%
D11*
%TO.N,GND*%
%TO.C,U6*%
X142690000Y-75762500D03*
D12*
%TO.N,+5V*%
X145230000Y-75762500D03*
%TO.N,Net-(U16-GPIO6_A5_D5_SCL)*%
X147770000Y-75762500D03*
%TO.N,Net-(U16-GPIO5_A4_D4_SDA)*%
X150310000Y-75762500D03*
%TD*%
D13*
%TO.N,+3V7*%
%TO.C,J4*%
X127820000Y-123080000D03*
D14*
%TO.N,+3V3*%
X127820000Y-120540000D03*
%TO.N,+5V*%
X127820000Y-118000000D03*
%TO.N,GND*%
X127820000Y-115460000D03*
%TO.N,/PWM_Red*%
X127820000Y-112920000D03*
%TO.N,/PWM_IR*%
X127820000Y-110380000D03*
%TO.N,/OP_CTRL*%
X127820000Y-107840000D03*
%TO.N,GND*%
X127820000Y-105300000D03*
%TO.N,/V_ptat*%
X127820000Y-102760000D03*
%TO.N,/V_bandgap*%
X127820000Y-100220000D03*
%TD*%
%TO.N,unconnected-(U16-GPIO41_MTDI-Pad15)*%
%TO.C,U16*%
X147740000Y-128122000D03*
%TO.N,unconnected-(U16-GPIO40_MTDO-Pad16)*%
X145200000Y-128122000D03*
%TO.N,Net-(U16-CHIP_EN)*%
X147740000Y-125582000D03*
%TO.N,GND*%
X145200000Y-125582000D03*
%TO.N,unconnected-(U16-GPIO42_MTMS-Pad19)*%
X147740000Y-123042000D03*
%TO.N,/OP_CTRL*%
X145200000Y-123042000D03*
%TO.N,/PWM_Red*%
X147740000Y-120502000D03*
%TO.N,/PWM_IR*%
X145200000Y-120502000D03*
D15*
%TO.N,+3V7*%
X150915000Y-119872000D03*
%TO.N,GND*%
X150915000Y-121777000D03*
D16*
X145350000Y-117490000D03*
%TD*%
D10*
%TO.N,GND*%
%TO.C,H4*%
X162900000Y-127050000D03*
%TD*%
%TO.N,GND*%
%TO.C,H3*%
X129400000Y-127050000D03*
%TD*%
%TO.N,GND*%
%TO.C,H2*%
X162900000Y-76750000D03*
%TD*%
D17*
%TO.N,GND*%
X137163909Y-104143909D03*
X149860000Y-100965000D03*
X155702000Y-104902000D03*
D18*
X148596902Y-91567000D03*
D17*
X127127000Y-82042000D03*
D18*
X143910000Y-80160000D03*
D17*
X149225000Y-102616000D03*
X143637000Y-94742000D03*
X143891000Y-103632000D03*
X127508000Y-84201000D03*
X150858646Y-114195325D03*
D18*
X145775000Y-98950000D03*
D17*
X146558000Y-97282000D03*
D19*
X136271000Y-124587000D03*
D18*
X159520000Y-87210000D03*
D17*
X128360000Y-91610000D03*
X155829000Y-99314000D03*
X144018000Y-82169000D03*
X159385000Y-116840000D03*
X143510000Y-87503000D03*
X133350000Y-95377000D03*
X147840000Y-108680000D03*
X139827000Y-100076000D03*
X135255000Y-89281000D03*
D18*
X155175000Y-85970180D03*
D17*
X157480000Y-110363000D03*
D18*
X148270000Y-80900000D03*
D17*
X134366000Y-112268000D03*
X147320000Y-99060000D03*
X148140000Y-111810000D03*
X146558000Y-79248000D03*
X146812000Y-91186000D03*
D18*
X158975000Y-97300000D03*
D17*
X135255000Y-102870000D03*
X148970000Y-113620000D03*
X164338000Y-120396000D03*
X133540500Y-100393500D03*
X161798000Y-115316000D03*
X144145000Y-84328000D03*
X164465000Y-105410000D03*
X144018000Y-107061000D03*
X140615000Y-103759000D03*
X128490000Y-95030000D03*
X138557000Y-85471000D03*
X144145000Y-91059000D03*
X164211000Y-90043000D03*
X151700000Y-98475000D03*
X164566941Y-99054000D03*
X135001000Y-100838000D03*
X138430000Y-91440000D03*
D18*
X146600000Y-85600000D03*
D17*
%TO.N,+3V3*%
X139573000Y-92837000D03*
D18*
X156425000Y-86475000D03*
X146560000Y-96330000D03*
D17*
X163550941Y-99054000D03*
X137160000Y-105103909D03*
X127127000Y-79756000D03*
X134330000Y-99180000D03*
X145288000Y-105156000D03*
X154130000Y-110020000D03*
D18*
X152019000Y-99314000D03*
D17*
X128580000Y-92430000D03*
X152330000Y-123520000D03*
D18*
X146875000Y-86750000D03*
D17*
X152310000Y-115110000D03*
X130302000Y-88011000D03*
X138684000Y-99187000D03*
X156591000Y-99060000D03*
X155702000Y-102616000D03*
X131090000Y-90650000D03*
X139573000Y-85471000D03*
%TO.N,/AFE/+1.65V*%
X151003000Y-95758000D03*
X157988000Y-104521000D03*
X149860000Y-106045000D03*
%TO.N,Net-(U16-GPIO6_A5_D5_SCL)*%
X152590000Y-113560000D03*
X149987000Y-109474000D03*
%TO.N,Net-(U16-GPIO5_A4_D4_SDA)*%
X151257000Y-109982000D03*
X152520000Y-116110000D03*
D18*
%TO.N,/V_bandgap*%
X129120000Y-96650000D03*
D17*
%TO.N,/PWM_IR*%
X134239000Y-119507000D03*
%TO.N,/PWM_Red*%
X134175500Y-120205500D03*
%TO.N,/V_ptat*%
X135460000Y-104570000D03*
X141200000Y-101600000D03*
X127310000Y-98450000D03*
X134320000Y-106280000D03*
%TO.N,/ADC/BIT_13_BOT*%
X149606000Y-79629000D03*
X140716000Y-82423000D03*
%TO.N,/ADC/MSB_TOP*%
X157861000Y-100711000D03*
X149733000Y-105283000D03*
%TO.N,/ADC/BIT_12_BOT*%
X148463000Y-84836000D03*
X140716000Y-83185000D03*
%TO.N,/ADC/BIT_10_BOT*%
X158750000Y-85852000D03*
X140843000Y-89662000D03*
%TO.N,/ADC/BIT_9_BOT*%
X140716000Y-90424000D03*
X160274000Y-85852000D03*
%TO.N,/ADC/BIT_8_BOT*%
X164211000Y-83693000D03*
X161798000Y-86233000D03*
%TO.N,/ADC/BIT_7_BOT*%
X164338000Y-82042000D03*
X140716000Y-96774000D03*
%TO.N,/ADC/BIT_6_BOT*%
X140716000Y-97536000D03*
X148082000Y-90678000D03*
%TO.N,/ADC/BIT_2_BOT*%
X159385000Y-95885000D03*
X149860000Y-99060000D03*
%TO.N,/ADC/BIT_1_BOT*%
X163449000Y-93980000D03*
X152654000Y-104648000D03*
%TO.N,/ADC/BIT_0_BOT*%
X152527000Y-103759000D03*
X164211000Y-91567000D03*
%TO.N,+5V*%
X130550000Y-92520000D03*
%TO.N,+3V3A*%
X146774646Y-113528325D03*
X164465000Y-119380000D03*
X158369000Y-108331000D03*
D19*
X136779000Y-102108000D03*
D17*
%TO.N,/ADC/ADC_Input1*%
X141859000Y-93472000D03*
%TO.N,/ADC/BIT_12_SEL*%
X131826000Y-80772000D03*
%TO.N,/ADC/MOSI*%
X140610000Y-119510000D03*
X132969000Y-105537000D03*
%TO.N,/ADC/BIT_7_SEL*%
X132334000Y-86741000D03*
%TO.N,/ADC/BIT_13_SEL*%
X130429000Y-81661000D03*
%TO.N,/ADC/sCLK*%
X134874000Y-96139000D03*
X131318000Y-86741000D03*
X133604000Y-103664000D03*
X140490000Y-114450000D03*
%TO.N,/ADC/BIT_8_SEL*%
X130302000Y-82677000D03*
%TO.N,/ADC/BIT_11_SEL*%
X130937000Y-80772000D03*
%TO.N,/ADC/BIT_10_SEL*%
X132080000Y-83566000D03*
%TO.N,/ADC/BIT_9_SEL*%
X131191000Y-82931000D03*
%TO.N,/ADC/BIT_6_SEL*%
X132334000Y-88011000D03*
%TO.N,/ADC/LATCH*%
X130302000Y-85471000D03*
X140670000Y-113284000D03*
X133477000Y-96647000D03*
%TO.N,Net-(SR1-QH')*%
X130429000Y-89281000D03*
X133350000Y-94107000D03*
%TO.N,/ADC/BIT_2_SEL*%
X152908000Y-102108000D03*
%TO.N,/ADC/BIT_0_SEL*%
X152146000Y-107188000D03*
%TO.N,/ADC/BIT_1_SEL*%
X150876000Y-106553000D03*
%TO.N,/ADC/BIT_3_SEL*%
X152146000Y-101473000D03*
%TO.N,/ADC/TOP_RESET*%
X151638000Y-107950000D03*
%TO.N,/ADC/BIT_4_SEL*%
X152781000Y-100838000D03*
%TO.N,/ADC/BIT_5_SEL*%
X135255000Y-90932000D03*
%TO.N,/ADC/VSMP*%
X164338000Y-112776000D03*
X155956000Y-106172000D03*
%TO.N,/ADC/A1*%
X138557000Y-110330000D03*
X139192000Y-108077000D03*
%TO.N,/ADC/A0*%
X141478000Y-108077000D03*
X140689500Y-116930000D03*
%TO.N,/AFE/TIA_OUT*%
X138811000Y-99949000D03*
X158242000Y-87884000D03*
%TO.N,/ADC/CS*%
X155956000Y-123317000D03*
%TO.N,/ADC/DAC_OUT*%
X157734000Y-107061000D03*
%TO.N,/ADC/ADC_OUT*%
X156718000Y-127127000D03*
X161671000Y-113284000D03*
X150530000Y-118390000D03*
D19*
%TO.N,Net-(ESP_3V3-A)*%
X141190000Y-122590000D03*
D17*
%TO.N,+3V7*%
X151520000Y-128940000D03*
%TO.N,/OP_CTRL*%
X135001000Y-119634000D03*
%TD*%
D20*
%TO.N,/AFE/+1.65V*%
X147320000Y-105029000D02*
X148336000Y-106045000D01*
X148336000Y-106045000D02*
X149860000Y-106045000D01*
X151003000Y-96774000D02*
X147320000Y-100457000D01*
X150215000Y-105690000D02*
X156819000Y-105690000D01*
X149860000Y-106045000D02*
X150215000Y-105690000D01*
X147320000Y-100457000D02*
X147320000Y-105029000D01*
X156819000Y-105690000D02*
X157988000Y-104521000D01*
X151003000Y-95758000D02*
X151003000Y-96774000D01*
D21*
%TO.N,Net-(U16-GPIO6_A5_D5_SCL)*%
X146812000Y-106299000D02*
X143764000Y-106299000D01*
X136652000Y-83439000D02*
X142621000Y-77470000D01*
X141070000Y-103570532D02*
X140803468Y-103304000D01*
X141070000Y-103605000D02*
X141070000Y-103570532D01*
X142621000Y-77470000D02*
X146062500Y-77470000D01*
X146062500Y-77470000D02*
X147770000Y-75762500D01*
X143764000Y-106299000D02*
X141070000Y-103605000D01*
X140803468Y-103304000D02*
X140769000Y-103304000D01*
X136652000Y-99187000D02*
X136652000Y-83439000D01*
X149987000Y-109474000D02*
X146812000Y-106299000D01*
X140769000Y-103304000D02*
X136652000Y-99187000D01*
%TO.N,Net-(U16-GPIO5_A4_D4_SDA)*%
X150310000Y-75762500D02*
X148094500Y-77978000D01*
X143935678Y-105918000D02*
X147193000Y-105918000D01*
X147193000Y-105918000D02*
X151257000Y-109982000D01*
X148094500Y-77978000D02*
X142748000Y-77978000D01*
X142748000Y-77978000D02*
X137160000Y-83566000D01*
X137160000Y-99142322D02*
X143935678Y-105918000D01*
X137160000Y-83566000D02*
X137160000Y-99142322D01*
%TO.N,/PWM_IR*%
X134239000Y-119507000D02*
X134874000Y-118872000D01*
X143570000Y-118872000D02*
X145200000Y-120502000D01*
X134874000Y-118872000D02*
X143570000Y-118872000D01*
%TO.N,/PWM_Red*%
X134175500Y-120205500D02*
X137922000Y-120205500D01*
X137922000Y-120205500D02*
X141922500Y-124206000D01*
X146431000Y-123952000D02*
X146431000Y-121811000D01*
X146431000Y-121811000D02*
X147740000Y-120502000D01*
X146177000Y-124206000D02*
X146431000Y-123952000D01*
X141922500Y-124206000D02*
X146177000Y-124206000D01*
%TO.N,/ADC/BIT_13_BOT*%
X147020178Y-80690822D02*
X148082000Y-79629000D01*
X148082000Y-79629000D02*
X149606000Y-79629000D01*
X140716000Y-82423000D02*
X140843000Y-82423000D01*
X140843000Y-82423000D02*
X142575178Y-80690822D01*
X142575178Y-80690822D02*
X147020178Y-80690822D01*
D22*
%TO.N,/ADC/MSB_TOP*%
X149733000Y-105283000D02*
X149822500Y-105193500D01*
X149822500Y-105193500D02*
X154521500Y-105193500D01*
X154521500Y-105193500D02*
X157861000Y-101854000D01*
X157861000Y-101854000D02*
X157861000Y-100711000D01*
D21*
%TO.N,/ADC/BIT_12_BOT*%
X140716000Y-83185000D02*
X142367000Y-84836000D01*
X142367000Y-84836000D02*
X148463000Y-84836000D01*
%TO.N,/ADC/BIT_10_BOT*%
X158115000Y-85852000D02*
X158750000Y-85852000D01*
X142284138Y-89027000D02*
X154940000Y-89027000D01*
X142030138Y-89281000D02*
X142284138Y-89027000D01*
X154940000Y-89027000D02*
X158115000Y-85852000D01*
X141224000Y-89281000D02*
X142030138Y-89281000D01*
X140843000Y-89662000D02*
X141224000Y-89281000D01*
%TO.N,/ADC/BIT_9_BOT*%
X142541000Y-89408000D02*
X155194000Y-89408000D01*
X142367000Y-89582000D02*
X142541000Y-89408000D01*
X141351000Y-90424000D02*
X142193000Y-89582000D01*
X158286138Y-86360000D02*
X158313138Y-86333000D01*
X140716000Y-90424000D02*
X141351000Y-90424000D01*
X155194000Y-89408000D02*
X158242000Y-86360000D01*
X158242000Y-86360000D02*
X158286138Y-86360000D01*
X159793000Y-86333000D02*
X160274000Y-85852000D01*
X142193000Y-89582000D02*
X142367000Y-89582000D01*
X158313138Y-86333000D02*
X159793000Y-86333000D01*
%TO.N,/ADC/BIT_7_BOT*%
X140716000Y-91948000D02*
X142781000Y-89883000D01*
X142781000Y-89883000D02*
X155227000Y-89883000D01*
X158449000Y-86661000D02*
X160108468Y-86661000D01*
X155227000Y-89883000D02*
X158449000Y-86661000D01*
X160108468Y-86661000D02*
X164338000Y-82431468D01*
X140716000Y-96774000D02*
X140716000Y-91948000D01*
X164338000Y-82431468D02*
X164338000Y-82042000D01*
%TO.N,/ADC/BIT_6_BOT*%
X142961000Y-90211000D02*
X147460000Y-90211000D01*
X140716000Y-97536000D02*
X140724468Y-97536000D01*
X147460000Y-90211000D02*
X147927000Y-90678000D01*
X141224000Y-91948000D02*
X142961000Y-90211000D01*
X140724468Y-97536000D02*
X141224000Y-97036468D01*
X147927000Y-90678000D02*
X148082000Y-90678000D01*
X141224000Y-97036468D02*
X141224000Y-91948000D01*
%TO.N,/ADC/BIT_2_BOT*%
X149860000Y-99060000D02*
X153035000Y-95885000D01*
X153035000Y-95885000D02*
X159385000Y-95885000D01*
%TO.N,/ADC/BIT_1_BOT*%
X152654000Y-104648000D02*
X152825678Y-104648000D01*
X152825678Y-104648000D02*
X163449000Y-94024678D01*
%TO.N,/ADC/BIT_0_BOT*%
X158447000Y-97518705D02*
X158447000Y-97081295D01*
X159503000Y-97506816D02*
X162814000Y-94195816D01*
X162814000Y-94195816D02*
X162814000Y-92964000D01*
X152781000Y-104013000D02*
X152996816Y-104013000D01*
X159503000Y-97081295D02*
X159503000Y-97506816D01*
X152527000Y-103759000D02*
X152781000Y-104013000D01*
X159181816Y-97828000D02*
X158756295Y-97828000D01*
X158756295Y-96772000D02*
X159193705Y-96772000D01*
X158447000Y-97081295D02*
X158756295Y-96772000D01*
X158756295Y-97828000D02*
X158447000Y-97518705D01*
X162814000Y-92964000D02*
X164211000Y-91567000D01*
X159193705Y-96772000D02*
X159503000Y-97081295D01*
X152996816Y-104013000D02*
X159181816Y-97828000D01*
D23*
%TO.N,+5V*%
X133477000Y-85471000D02*
X141980500Y-76967500D01*
X144025000Y-76967500D02*
X145230000Y-75762500D01*
X130550000Y-92520000D02*
X132016000Y-92520000D01*
X132016000Y-92520000D02*
X133477000Y-91059000D01*
X141980500Y-76967500D02*
X144025000Y-76967500D01*
X133477000Y-91059000D02*
X133477000Y-85471000D01*
D24*
%TO.N,+3V3A*%
X146774646Y-111635354D02*
X146774646Y-113528325D01*
X139960000Y-110242000D02*
X139960000Y-105289000D01*
X164465000Y-114046000D02*
X164465000Y-119380000D01*
X155322000Y-110870000D02*
X147540000Y-110870000D01*
X158369000Y-108331000D02*
X157861000Y-108331000D01*
X139960000Y-105289000D02*
X136779000Y-102108000D01*
X158369000Y-108331000D02*
X158750000Y-108331000D01*
X158750000Y-108331000D02*
X164465000Y-114046000D01*
X157861000Y-108331000D02*
X155322000Y-110870000D01*
X147540000Y-110870000D02*
X146774646Y-111635354D01*
X146774646Y-113528325D02*
X143246325Y-113528325D01*
X143246325Y-113528325D02*
X139960000Y-110242000D01*
D21*
%TO.N,/AFE/TIA_OUT*%
X158242000Y-87884000D02*
X150929000Y-95197000D01*
X143817000Y-95197000D02*
X139065000Y-99949000D01*
X150929000Y-95197000D02*
X143817000Y-95197000D01*
X139065000Y-99949000D02*
X138811000Y-99949000D01*
%TO.N,/OP_CTRL*%
X135001000Y-119634000D02*
X138948178Y-119634000D01*
X142356178Y-123042000D02*
X145200000Y-123042000D01*
X138948178Y-119634000D02*
X142356178Y-123042000D01*
%TD*%
%TA.AperFunction,Conductor*%
%TO.N,+3V3*%
G36*
X161291351Y-73500559D02*
G01*
X161696877Y-73518264D01*
X161702295Y-73518739D01*
X162103374Y-73571542D01*
X162108706Y-73572482D01*
X162503658Y-73660042D01*
X162508919Y-73661451D01*
X162894726Y-73783096D01*
X162899840Y-73784957D01*
X163273579Y-73939765D01*
X163278509Y-73942063D01*
X163637338Y-74128858D01*
X163642038Y-74131571D01*
X163983213Y-74348924D01*
X163987680Y-74352051D01*
X164308621Y-74598317D01*
X164312797Y-74601822D01*
X164611035Y-74875108D01*
X164614891Y-74878964D01*
X164888177Y-75177202D01*
X164891682Y-75181378D01*
X165137948Y-75502319D01*
X165141075Y-75506786D01*
X165358421Y-75847950D01*
X165361147Y-75852672D01*
X165547933Y-76211485D01*
X165550237Y-76216426D01*
X165705040Y-76590154D01*
X165706905Y-76595278D01*
X165828547Y-76981078D01*
X165829958Y-76986344D01*
X165917513Y-77381274D01*
X165918460Y-77386644D01*
X165971259Y-77787697D01*
X165971735Y-77793129D01*
X165989441Y-78198648D01*
X165989500Y-78201374D01*
X165989500Y-125266869D01*
X165989499Y-125266873D01*
X165989499Y-125283252D01*
X165989499Y-125293863D01*
X165989499Y-125313094D01*
X165989440Y-125315820D01*
X165971738Y-125721340D01*
X165971262Y-125726771D01*
X165918466Y-126127818D01*
X165917520Y-126133188D01*
X165829963Y-126528137D01*
X165828551Y-126533404D01*
X165706916Y-126919191D01*
X165705052Y-126924314D01*
X165550245Y-127298057D01*
X165547940Y-127302999D01*
X165361158Y-127661809D01*
X165358432Y-127666531D01*
X165141082Y-128007703D01*
X165137955Y-128012169D01*
X164891697Y-128333102D01*
X164888192Y-128337279D01*
X164614908Y-128635519D01*
X164611053Y-128639375D01*
X164312796Y-128912679D01*
X164308619Y-128916183D01*
X163987699Y-129162435D01*
X163983232Y-129165563D01*
X163642058Y-129382916D01*
X163637336Y-129385642D01*
X163278522Y-129572430D01*
X163273581Y-129574734D01*
X162899851Y-129729538D01*
X162894727Y-129731403D01*
X162508924Y-129853047D01*
X162503668Y-129854456D01*
X162108724Y-129942013D01*
X162103361Y-129942958D01*
X161702304Y-129995759D01*
X161696872Y-129996235D01*
X161292130Y-130013907D01*
X161289404Y-130013966D01*
X131001375Y-130013966D01*
X130998649Y-130013907D01*
X130593130Y-129996201D01*
X130587698Y-129995725D01*
X130186647Y-129942926D01*
X130181277Y-129941979D01*
X129786348Y-129854424D01*
X129781082Y-129853013D01*
X129395283Y-129731371D01*
X129390159Y-129729506D01*
X129016433Y-129574703D01*
X129011492Y-129572399D01*
X128652680Y-129385613D01*
X128647958Y-129382887D01*
X128306787Y-129165535D01*
X128302320Y-129162407D01*
X127981396Y-128916152D01*
X127977227Y-128912655D01*
X127678972Y-128639353D01*
X127675120Y-128635500D01*
X127401833Y-128337257D01*
X127398328Y-128333080D01*
X127152072Y-128012150D01*
X127148945Y-128007684D01*
X126931597Y-127666514D01*
X126928871Y-127661792D01*
X126816745Y-127446397D01*
X126742086Y-127302977D01*
X126739792Y-127298057D01*
X126584976Y-126924296D01*
X126583115Y-126919180D01*
X126582461Y-126917106D01*
X127372500Y-126917106D01*
X127372500Y-127182893D01*
X127407191Y-127446397D01*
X127407191Y-127446398D01*
X127475974Y-127703100D01*
X127475978Y-127703111D01*
X127475980Y-127703117D01*
X127530117Y-127833816D01*
X127577686Y-127948658D01*
X127577692Y-127948670D01*
X127710576Y-128178832D01*
X127710578Y-128178835D01*
X127872374Y-128389692D01*
X128060308Y-128577626D01*
X128060311Y-128577628D01*
X128060313Y-128577630D01*
X128102053Y-128609658D01*
X128271165Y-128739422D01*
X128501336Y-128872311D01*
X128746883Y-128974020D01*
X128746893Y-128974022D01*
X128746899Y-128974025D01*
X129003602Y-129042808D01*
X129003606Y-129042809D01*
X129267111Y-129077500D01*
X129267117Y-129077500D01*
X129532883Y-129077500D01*
X129532889Y-129077500D01*
X129796394Y-129042809D01*
X129796398Y-129042808D01*
X130053100Y-128974025D01*
X130053103Y-128974023D01*
X130053117Y-128974020D01*
X130298664Y-128872311D01*
X130528835Y-128739422D01*
X130739692Y-128577626D01*
X130927626Y-128389692D01*
X131089422Y-128178835D01*
X131177820Y-128025724D01*
X144222500Y-128025724D01*
X144222500Y-128218275D01*
X144260064Y-128407126D01*
X144260066Y-128407134D01*
X144333750Y-128585020D01*
X144333751Y-128585022D01*
X144440725Y-128745119D01*
X144440726Y-128745120D01*
X144576880Y-128881274D01*
X144736980Y-128988250D01*
X144816299Y-129021105D01*
X144914865Y-129061933D01*
X144914869Y-129061934D01*
X144914874Y-129061936D01*
X145103725Y-129099500D01*
X145296275Y-129099500D01*
X145485126Y-129061936D01*
X145485132Y-129061933D01*
X145485134Y-129061933D01*
X145531305Y-129042808D01*
X145663020Y-128988250D01*
X145823120Y-128881274D01*
X145959274Y-128745120D01*
X146066250Y-128585020D01*
X146139936Y-128407126D01*
X146177500Y-128218275D01*
X146177500Y-128025725D01*
X146177500Y-128025724D01*
X146762500Y-128025724D01*
X146762500Y-128218275D01*
X146800064Y-128407126D01*
X146800066Y-128407134D01*
X146873750Y-128585020D01*
X146873751Y-128585022D01*
X146980725Y-128745119D01*
X146980726Y-128745120D01*
X147116880Y-128881274D01*
X147276980Y-128988250D01*
X147356299Y-129021105D01*
X147454865Y-129061933D01*
X147454869Y-129061934D01*
X147454874Y-129061936D01*
X147643725Y-129099500D01*
X147836275Y-129099500D01*
X148025126Y-129061936D01*
X148025132Y-129061933D01*
X148025134Y-129061933D01*
X148071305Y-129042808D01*
X148203020Y-128988250D01*
X148345087Y-128893323D01*
X151165500Y-128893323D01*
X151165500Y-128986676D01*
X151186679Y-129065711D01*
X151189659Y-129076832D01*
X151236329Y-129157668D01*
X151302332Y-129223671D01*
X151383168Y-129270341D01*
X151425415Y-129281661D01*
X151473323Y-129294499D01*
X151473329Y-129294500D01*
X151566671Y-129294500D01*
X151566676Y-129294499D01*
X151593460Y-129287321D01*
X151656832Y-129270341D01*
X151737668Y-129223671D01*
X151803671Y-129157668D01*
X151850341Y-129076832D01*
X151874077Y-128988249D01*
X151874499Y-128986676D01*
X151874500Y-128986670D01*
X151874500Y-128893329D01*
X151874499Y-128893323D01*
X151861560Y-128845038D01*
X151850341Y-128803168D01*
X151803671Y-128722332D01*
X151737668Y-128656329D01*
X151656832Y-128609659D01*
X151656829Y-128609658D01*
X151566676Y-128585500D01*
X151566671Y-128585500D01*
X151473329Y-128585500D01*
X151473323Y-128585500D01*
X151383170Y-128609658D01*
X151383168Y-128609659D01*
X151302331Y-128656329D01*
X151236329Y-128722331D01*
X151189659Y-128803168D01*
X151189658Y-128803170D01*
X151165500Y-128893323D01*
X148345087Y-128893323D01*
X148363120Y-128881274D01*
X148499274Y-128745120D01*
X148606250Y-128585020D01*
X148679936Y-128407126D01*
X148717500Y-128218275D01*
X148717500Y-128025725D01*
X148679936Y-127836874D01*
X148679934Y-127836869D01*
X148679933Y-127836865D01*
X148639105Y-127738299D01*
X148606250Y-127658980D01*
X148499274Y-127498880D01*
X148363120Y-127362726D01*
X148363119Y-127362725D01*
X148203022Y-127255751D01*
X148203020Y-127255750D01*
X148025134Y-127182066D01*
X148025126Y-127182064D01*
X147836275Y-127144500D01*
X147643725Y-127144500D01*
X147454873Y-127182064D01*
X147454865Y-127182066D01*
X147276979Y-127255750D01*
X147276977Y-127255751D01*
X147116880Y-127362725D01*
X146980725Y-127498880D01*
X146873751Y-127658977D01*
X146873750Y-127658979D01*
X146800066Y-127836865D01*
X146800064Y-127836873D01*
X146762500Y-128025724D01*
X146177500Y-128025724D01*
X146139936Y-127836874D01*
X146139934Y-127836869D01*
X146139933Y-127836865D01*
X146099105Y-127738299D01*
X146066250Y-127658980D01*
X145959274Y-127498880D01*
X145823120Y-127362726D01*
X145823119Y-127362725D01*
X145663022Y-127255751D01*
X145663020Y-127255750D01*
X145485134Y-127182066D01*
X145485126Y-127182064D01*
X145296275Y-127144500D01*
X145103725Y-127144500D01*
X144914873Y-127182064D01*
X144914865Y-127182066D01*
X144736979Y-127255750D01*
X144736977Y-127255751D01*
X144576880Y-127362725D01*
X144440725Y-127498880D01*
X144333751Y-127658977D01*
X144333750Y-127658979D01*
X144260066Y-127836865D01*
X144260064Y-127836873D01*
X144222500Y-128025724D01*
X131177820Y-128025724D01*
X131222311Y-127948664D01*
X131324020Y-127703117D01*
X131333824Y-127666531D01*
X131392808Y-127446398D01*
X131392808Y-127446397D01*
X131392809Y-127446394D01*
X131427500Y-127182889D01*
X131427500Y-127080323D01*
X156363500Y-127080323D01*
X156363500Y-127173676D01*
X156387658Y-127263829D01*
X156387659Y-127263832D01*
X156434329Y-127344668D01*
X156500332Y-127410671D01*
X156581168Y-127457341D01*
X156623415Y-127468661D01*
X156671323Y-127481499D01*
X156671329Y-127481500D01*
X156764671Y-127481500D01*
X156764676Y-127481499D01*
X156791460Y-127474321D01*
X156854832Y-127457341D01*
X156935668Y-127410671D01*
X157001671Y-127344668D01*
X157048341Y-127263832D01*
X157072500Y-127173671D01*
X157072500Y-127080329D01*
X157072499Y-127080323D01*
X157059661Y-127032415D01*
X157048341Y-126990168D01*
X157006159Y-126917106D01*
X160872500Y-126917106D01*
X160872500Y-127182893D01*
X160907191Y-127446397D01*
X160907191Y-127446398D01*
X160975974Y-127703100D01*
X160975978Y-127703111D01*
X160975980Y-127703117D01*
X161030117Y-127833816D01*
X161077686Y-127948658D01*
X161077692Y-127948670D01*
X161210576Y-128178832D01*
X161210578Y-128178835D01*
X161372374Y-128389692D01*
X161560308Y-128577626D01*
X161560311Y-128577628D01*
X161560313Y-128577630D01*
X161602053Y-128609658D01*
X161771165Y-128739422D01*
X162001336Y-128872311D01*
X162246883Y-128974020D01*
X162246893Y-128974022D01*
X162246899Y-128974025D01*
X162503602Y-129042808D01*
X162503606Y-129042809D01*
X162767111Y-129077500D01*
X162767117Y-129077500D01*
X163032883Y-129077500D01*
X163032889Y-129077500D01*
X163296394Y-129042809D01*
X163296398Y-129042808D01*
X163553100Y-128974025D01*
X163553103Y-128974023D01*
X163553117Y-128974020D01*
X163798664Y-128872311D01*
X164028835Y-128739422D01*
X164239692Y-128577626D01*
X164427626Y-128389692D01*
X164589422Y-128178835D01*
X164722311Y-127948664D01*
X164824020Y-127703117D01*
X164833824Y-127666531D01*
X164892808Y-127446398D01*
X164892808Y-127446397D01*
X164892809Y-127446394D01*
X164927500Y-127182889D01*
X164927500Y-126917111D01*
X164892809Y-126653606D01*
X164892808Y-126653601D01*
X164824025Y-126396899D01*
X164824022Y-126396893D01*
X164824020Y-126396883D01*
X164722311Y-126151336D01*
X164589422Y-125921165D01*
X164465497Y-125759663D01*
X164427630Y-125710313D01*
X164427621Y-125710303D01*
X164239696Y-125522378D01*
X164239686Y-125522369D01*
X164028832Y-125360576D01*
X163798670Y-125227692D01*
X163798658Y-125227686D01*
X163683816Y-125180117D01*
X163553117Y-125125980D01*
X163553111Y-125125978D01*
X163553100Y-125125974D01*
X163296397Y-125057191D01*
X163032893Y-125022500D01*
X163032889Y-125022500D01*
X162767111Y-125022500D01*
X162767106Y-125022500D01*
X162503602Y-125057191D01*
X162503601Y-125057191D01*
X162246899Y-125125974D01*
X162246884Y-125125979D01*
X162246883Y-125125980D01*
X162246881Y-125125981D01*
X162001341Y-125227686D01*
X162001329Y-125227692D01*
X161771167Y-125360576D01*
X161560313Y-125522369D01*
X161560303Y-125522378D01*
X161372378Y-125710303D01*
X161372369Y-125710313D01*
X161210576Y-125921167D01*
X161077692Y-126151329D01*
X161077686Y-126151341D01*
X160975981Y-126396881D01*
X160975974Y-126396899D01*
X160907191Y-126653601D01*
X160907191Y-126653602D01*
X160872500Y-126917106D01*
X157006159Y-126917106D01*
X157001671Y-126909332D01*
X156935668Y-126843329D01*
X156854832Y-126796659D01*
X156854829Y-126796658D01*
X156764676Y-126772500D01*
X156764671Y-126772500D01*
X156671329Y-126772500D01*
X156671323Y-126772500D01*
X156581170Y-126796658D01*
X156581168Y-126796659D01*
X156500331Y-126843329D01*
X156434329Y-126909331D01*
X156387659Y-126990168D01*
X156387658Y-126990170D01*
X156363500Y-127080323D01*
X131427500Y-127080323D01*
X131427500Y-126917111D01*
X131392809Y-126653606D01*
X131392808Y-126653601D01*
X131324025Y-126396899D01*
X131324022Y-126396893D01*
X131324020Y-126396883D01*
X131222311Y-126151336D01*
X131089422Y-125921165D01*
X130965497Y-125759663D01*
X130927630Y-125710313D01*
X130927621Y-125710303D01*
X130739696Y-125522378D01*
X130739686Y-125522369D01*
X130691929Y-125485724D01*
X144222500Y-125485724D01*
X144222500Y-125678275D01*
X144260064Y-125867126D01*
X144260066Y-125867134D01*
X144333750Y-126045020D01*
X144333751Y-126045022D01*
X144440725Y-126205119D01*
X144440726Y-126205120D01*
X144576880Y-126341274D01*
X144736980Y-126448250D01*
X144816299Y-126481105D01*
X144914865Y-126521933D01*
X144914869Y-126521934D01*
X144914874Y-126521936D01*
X145103725Y-126559500D01*
X145296275Y-126559500D01*
X145485126Y-126521936D01*
X145485132Y-126521933D01*
X145485134Y-126521933D01*
X145527611Y-126504337D01*
X145663020Y-126448250D01*
X145823120Y-126341274D01*
X145959274Y-126205120D01*
X146066250Y-126045020D01*
X146139936Y-125867126D01*
X146177500Y-125678275D01*
X146177500Y-125485725D01*
X146177500Y-125485724D01*
X146762500Y-125485724D01*
X146762500Y-125678275D01*
X146800064Y-125867126D01*
X146800066Y-125867134D01*
X146873750Y-126045020D01*
X146873751Y-126045022D01*
X146980725Y-126205119D01*
X146980726Y-126205120D01*
X147116880Y-126341274D01*
X147276980Y-126448250D01*
X147356299Y-126481105D01*
X147454865Y-126521933D01*
X147454869Y-126521934D01*
X147454874Y-126521936D01*
X147643725Y-126559500D01*
X147836275Y-126559500D01*
X148025126Y-126521936D01*
X148025132Y-126521933D01*
X148025134Y-126521933D01*
X148067611Y-126504337D01*
X148203020Y-126448250D01*
X148363120Y-126341274D01*
X148499274Y-126205120D01*
X148606250Y-126045020D01*
X148679936Y-125867126D01*
X148717500Y-125678275D01*
X148717500Y-125485725D01*
X148679936Y-125296874D01*
X148679934Y-125296869D01*
X148679933Y-125296865D01*
X148639105Y-125198299D01*
X148606250Y-125118980D01*
X148499274Y-124958880D01*
X148363120Y-124822726D01*
X148244006Y-124743136D01*
X148203022Y-124715751D01*
X148203020Y-124715750D01*
X148025134Y-124642066D01*
X148025126Y-124642064D01*
X147836275Y-124604500D01*
X147643725Y-124604500D01*
X147454873Y-124642064D01*
X147454865Y-124642066D01*
X147276979Y-124715750D01*
X147276977Y-124715751D01*
X147116880Y-124822725D01*
X146980725Y-124958880D01*
X146873751Y-125118977D01*
X146873750Y-125118979D01*
X146800066Y-125296865D01*
X146800064Y-125296873D01*
X146762500Y-125485724D01*
X146177500Y-125485724D01*
X146139936Y-125296874D01*
X146139934Y-125296869D01*
X146139933Y-125296865D01*
X146099105Y-125198299D01*
X146066250Y-125118980D01*
X145959274Y-124958880D01*
X145823120Y-124822726D01*
X145704006Y-124743136D01*
X145663022Y-124715751D01*
X145663020Y-124715750D01*
X145485134Y-124642066D01*
X145485126Y-124642064D01*
X145296275Y-124604500D01*
X145103725Y-124604500D01*
X144914873Y-124642064D01*
X144914865Y-124642066D01*
X144736979Y-124715750D01*
X144736977Y-124715751D01*
X144576880Y-124822725D01*
X144440725Y-124958880D01*
X144333751Y-125118977D01*
X144333750Y-125118979D01*
X144260066Y-125296865D01*
X144260064Y-125296873D01*
X144222500Y-125485724D01*
X130691929Y-125485724D01*
X130528832Y-125360576D01*
X130298670Y-125227692D01*
X130298658Y-125227686D01*
X130183816Y-125180117D01*
X130053117Y-125125980D01*
X130053111Y-125125978D01*
X130053100Y-125125974D01*
X129796397Y-125057191D01*
X129532893Y-125022500D01*
X129532889Y-125022500D01*
X129267111Y-125022500D01*
X129267106Y-125022500D01*
X129003602Y-125057191D01*
X129003601Y-125057191D01*
X128746899Y-125125974D01*
X128746884Y-125125979D01*
X128746883Y-125125980D01*
X128746881Y-125125981D01*
X128501341Y-125227686D01*
X128501329Y-125227692D01*
X128271167Y-125360576D01*
X128060313Y-125522369D01*
X128060303Y-125522378D01*
X127872378Y-125710303D01*
X127872369Y-125710313D01*
X127710576Y-125921167D01*
X127577692Y-126151329D01*
X127577686Y-126151341D01*
X127475981Y-126396881D01*
X127475974Y-126396899D01*
X127407191Y-126653601D01*
X127407191Y-126653602D01*
X127372500Y-126917106D01*
X126582461Y-126917106D01*
X126544485Y-126796659D01*
X126469711Y-126559499D01*
X126461481Y-126533396D01*
X126460069Y-126528129D01*
X126442361Y-126448250D01*
X126372509Y-126133164D01*
X126371568Y-126127818D01*
X126318770Y-125726762D01*
X126318295Y-125721337D01*
X126317814Y-125710308D01*
X126300558Y-125315026D01*
X126300500Y-125312329D01*
X126300500Y-125293863D01*
X126300501Y-125266873D01*
X126300500Y-125266869D01*
X126300500Y-124533748D01*
X135866500Y-124533748D01*
X135866500Y-124640251D01*
X135866501Y-124640259D01*
X135894064Y-124743127D01*
X135894068Y-124743136D01*
X135947317Y-124835365D01*
X135947324Y-124835374D01*
X136022625Y-124910675D01*
X136022634Y-124910682D01*
X136114863Y-124963931D01*
X136114866Y-124963932D01*
X136114869Y-124963934D01*
X136114870Y-124963934D01*
X136114872Y-124963935D01*
X136177826Y-124980803D01*
X136217747Y-124991500D01*
X136217748Y-124991500D01*
X136324252Y-124991500D01*
X136324253Y-124991500D01*
X136427131Y-124963934D01*
X136519369Y-124910680D01*
X136594680Y-124835369D01*
X136647934Y-124743131D01*
X136675500Y-124640253D01*
X136675500Y-124533747D01*
X136647934Y-124430869D01*
X136629456Y-124398865D01*
X136594682Y-124338634D01*
X136594675Y-124338625D01*
X136519374Y-124263324D01*
X136519365Y-124263317D01*
X136427136Y-124210068D01*
X136427127Y-124210064D01*
X136324259Y-124182501D01*
X136324254Y-124182500D01*
X136324253Y-124182500D01*
X136217747Y-124182500D01*
X136217746Y-124182500D01*
X136217740Y-124182501D01*
X136114872Y-124210064D01*
X136114863Y-124210068D01*
X136022634Y-124263317D01*
X136022625Y-124263324D01*
X135947324Y-124338625D01*
X135947317Y-124338634D01*
X135894068Y-124430863D01*
X135894064Y-124430872D01*
X135866501Y-124533740D01*
X135866500Y-124533748D01*
X126300500Y-124533748D01*
X126300500Y-122217442D01*
X126842500Y-122217442D01*
X126842500Y-123942557D01*
X126849898Y-123979748D01*
X126849898Y-123979749D01*
X126878077Y-124021922D01*
X126906257Y-124040750D01*
X126920252Y-124050102D01*
X126957442Y-124057500D01*
X126957443Y-124057500D01*
X128682557Y-124057500D01*
X128682558Y-124057500D01*
X128719748Y-124050102D01*
X128761922Y-124021922D01*
X128790102Y-123979748D01*
X128797500Y-123942558D01*
X128797500Y-122217442D01*
X128790102Y-122180252D01*
X128788551Y-122177931D01*
X128761922Y-122138077D01*
X128719748Y-122109898D01*
X128682558Y-122102500D01*
X126957442Y-122102500D01*
X126938847Y-122106199D01*
X126920251Y-122109898D01*
X126920250Y-122109898D01*
X126878077Y-122138077D01*
X126849898Y-122180250D01*
X126849898Y-122180251D01*
X126842500Y-122217442D01*
X126300500Y-122217442D01*
X126300500Y-120158823D01*
X133821000Y-120158823D01*
X133821000Y-120252176D01*
X133838333Y-120316858D01*
X133845159Y-120342332D01*
X133891829Y-120423168D01*
X133957832Y-120489171D01*
X134038668Y-120535841D01*
X134080915Y-120547161D01*
X134128823Y-120559999D01*
X134128829Y-120560000D01*
X134222171Y-120560000D01*
X134222176Y-120559999D01*
X134248960Y-120552821D01*
X134312332Y-120535841D01*
X134393168Y-120489171D01*
X134431033Y-120451306D01*
X134475227Y-120433000D01*
X137801879Y-120433000D01*
X137846073Y-120451306D01*
X141729635Y-124334868D01*
X141793632Y-124398865D01*
X141793633Y-124398865D01*
X141793635Y-124398867D01*
X141877244Y-124433499D01*
X141877247Y-124433500D01*
X146222253Y-124433500D01*
X146250124Y-124421955D01*
X146305864Y-124398867D01*
X146305864Y-124398866D01*
X146305868Y-124398865D01*
X146623865Y-124080868D01*
X146633545Y-124057500D01*
X146658499Y-123997255D01*
X146658500Y-123997252D01*
X146658500Y-123250006D01*
X146676806Y-123205812D01*
X146721000Y-123187506D01*
X146765194Y-123205812D01*
X146782299Y-123237813D01*
X146800064Y-123327126D01*
X146800066Y-123327134D01*
X146873750Y-123505020D01*
X146873751Y-123505022D01*
X146968846Y-123647341D01*
X146980726Y-123665120D01*
X147116880Y-123801274D01*
X147276980Y-123908250D01*
X147356299Y-123941105D01*
X147454865Y-123981933D01*
X147454869Y-123981934D01*
X147454874Y-123981936D01*
X147643725Y-124019500D01*
X147836275Y-124019500D01*
X148025126Y-123981936D01*
X148025132Y-123981933D01*
X148025134Y-123981933D01*
X148077616Y-123960194D01*
X148203020Y-123908250D01*
X148363120Y-123801274D01*
X148499274Y-123665120D01*
X148606250Y-123505020D01*
X148679936Y-123327126D01*
X148691234Y-123270323D01*
X155601500Y-123270323D01*
X155601500Y-123363676D01*
X155619309Y-123430134D01*
X155625659Y-123453832D01*
X155672329Y-123534668D01*
X155738332Y-123600671D01*
X155819168Y-123647341D01*
X155861415Y-123658661D01*
X155909323Y-123671499D01*
X155909329Y-123671500D01*
X156002671Y-123671500D01*
X156002676Y-123671499D01*
X156029460Y-123664321D01*
X156092832Y-123647341D01*
X156173668Y-123600671D01*
X156239671Y-123534668D01*
X156286341Y-123453832D01*
X156310500Y-123363671D01*
X156310500Y-123270329D01*
X156310499Y-123270323D01*
X156288307Y-123187506D01*
X156286341Y-123180168D01*
X156239671Y-123099332D01*
X156173668Y-123033329D01*
X156092832Y-122986659D01*
X156092829Y-122986658D01*
X156002676Y-122962500D01*
X156002671Y-122962500D01*
X155909329Y-122962500D01*
X155909323Y-122962500D01*
X155819170Y-122986658D01*
X155819168Y-122986659D01*
X155738331Y-123033329D01*
X155672329Y-123099331D01*
X155625659Y-123180168D01*
X155625658Y-123180170D01*
X155601500Y-123270323D01*
X148691234Y-123270323D01*
X148691398Y-123269500D01*
X148694474Y-123254039D01*
X148704066Y-123205812D01*
X148717500Y-123138275D01*
X148717500Y-122945725D01*
X148679936Y-122756874D01*
X148679934Y-122756869D01*
X148679933Y-122756865D01*
X148632873Y-122643253D01*
X148606250Y-122578980D01*
X148499274Y-122418880D01*
X148363120Y-122282726D01*
X148338567Y-122266320D01*
X148203022Y-122175751D01*
X148203020Y-122175750D01*
X148025134Y-122102066D01*
X148025126Y-122102064D01*
X147836275Y-122064500D01*
X147643725Y-122064500D01*
X147454873Y-122102064D01*
X147454865Y-122102066D01*
X147276979Y-122175750D01*
X147276977Y-122175751D01*
X147116880Y-122282725D01*
X146980725Y-122418880D01*
X146873751Y-122578977D01*
X146873750Y-122578979D01*
X146800066Y-122756865D01*
X146800064Y-122756873D01*
X146782299Y-122846186D01*
X146755723Y-122885960D01*
X146708807Y-122895292D01*
X146669033Y-122868716D01*
X146658500Y-122833993D01*
X146658500Y-121931120D01*
X146676805Y-121886927D01*
X147191857Y-121371874D01*
X147236050Y-121353569D01*
X147270772Y-121364102D01*
X147276980Y-121368250D01*
X147276985Y-121368252D01*
X147454865Y-121441933D01*
X147454869Y-121441934D01*
X147454874Y-121441936D01*
X147643725Y-121479500D01*
X147836275Y-121479500D01*
X147882402Y-121470325D01*
X149537500Y-121470325D01*
X149537500Y-122083672D01*
X149537501Y-122083676D01*
X149552428Y-122177930D01*
X149552428Y-122177931D01*
X149597464Y-122266317D01*
X149610312Y-122291532D01*
X149700468Y-122381688D01*
X149814070Y-122439572D01*
X149814073Y-122439572D01*
X149814075Y-122439573D01*
X149908309Y-122454498D01*
X149908311Y-122454498D01*
X149908323Y-122454500D01*
X151921676Y-122454499D01*
X152015930Y-122439572D01*
X152129532Y-122381688D01*
X152219688Y-122291532D01*
X152277572Y-122177930D01*
X152292500Y-122083677D01*
X152292499Y-121470324D01*
X152277572Y-121376070D01*
X152219688Y-121262468D01*
X152129532Y-121172312D01*
X152015931Y-121114428D01*
X152015924Y-121114426D01*
X151921690Y-121099501D01*
X151921678Y-121099500D01*
X151921677Y-121099500D01*
X151921674Y-121099500D01*
X149908327Y-121099500D01*
X149908323Y-121099501D01*
X149814069Y-121114428D01*
X149814068Y-121114428D01*
X149700467Y-121172312D01*
X149610312Y-121262467D01*
X149552428Y-121376068D01*
X149552426Y-121376075D01*
X149537501Y-121470309D01*
X149537500Y-121470325D01*
X147882402Y-121470325D01*
X148025126Y-121441936D01*
X148025132Y-121441933D01*
X148025134Y-121441933D01*
X148101926Y-121410125D01*
X148138015Y-121395175D01*
X148203020Y-121368250D01*
X148363120Y-121261274D01*
X148499274Y-121125120D01*
X148606250Y-120965020D01*
X148679936Y-120787126D01*
X148717500Y-120598275D01*
X148717500Y-120405725D01*
X148679936Y-120216874D01*
X148679934Y-120216869D01*
X148679933Y-120216865D01*
X148618547Y-120068668D01*
X148606250Y-120038980D01*
X148499274Y-119878880D01*
X148363120Y-119742726D01*
X148363119Y-119742725D01*
X148203022Y-119635751D01*
X148203020Y-119635750D01*
X148166466Y-119620609D01*
X148033001Y-119565325D01*
X149537500Y-119565325D01*
X149537500Y-120178672D01*
X149537501Y-120178676D01*
X149552428Y-120272930D01*
X149552428Y-120272931D01*
X149591353Y-120349323D01*
X149610312Y-120386532D01*
X149700468Y-120476688D01*
X149814070Y-120534572D01*
X149814073Y-120534572D01*
X149814075Y-120534573D01*
X149908309Y-120549498D01*
X149908311Y-120549498D01*
X149908323Y-120549500D01*
X151921676Y-120549499D01*
X152015930Y-120534572D01*
X152129532Y-120476688D01*
X152219688Y-120386532D01*
X152238647Y-120349323D01*
X163983500Y-120349323D01*
X163983500Y-120442676D01*
X164007658Y-120532829D01*
X164007659Y-120532832D01*
X164054329Y-120613668D01*
X164120332Y-120679671D01*
X164201168Y-120726341D01*
X164243415Y-120737661D01*
X164291323Y-120750499D01*
X164291329Y-120750500D01*
X164384671Y-120750500D01*
X164384676Y-120750499D01*
X164411460Y-120743321D01*
X164474832Y-120726341D01*
X164555668Y-120679671D01*
X164621671Y-120613668D01*
X164668341Y-120532832D01*
X164692500Y-120442671D01*
X164692500Y-120349329D01*
X164692499Y-120349323D01*
X164679661Y-120301415D01*
X164668341Y-120259168D01*
X164621671Y-120178332D01*
X164555668Y-120112329D01*
X164474832Y-120065659D01*
X164474829Y-120065658D01*
X164384676Y-120041500D01*
X164384671Y-120041500D01*
X164291329Y-120041500D01*
X164291323Y-120041500D01*
X164201170Y-120065658D01*
X164201168Y-120065659D01*
X164120331Y-120112329D01*
X164054329Y-120178331D01*
X164007659Y-120259168D01*
X164007658Y-120259170D01*
X163983500Y-120349323D01*
X152238647Y-120349323D01*
X152277572Y-120272930D01*
X152292500Y-120178677D01*
X152292499Y-119565324D01*
X152277572Y-119471070D01*
X152219688Y-119357468D01*
X152129532Y-119267312D01*
X152015931Y-119209428D01*
X152015924Y-119209426D01*
X151921690Y-119194501D01*
X151921678Y-119194500D01*
X151921677Y-119194500D01*
X151921674Y-119194500D01*
X149908327Y-119194500D01*
X149908323Y-119194501D01*
X149814069Y-119209428D01*
X149814068Y-119209428D01*
X149700467Y-119267312D01*
X149610312Y-119357467D01*
X149552428Y-119471068D01*
X149552426Y-119471075D01*
X149537501Y-119565309D01*
X149537500Y-119565325D01*
X148033001Y-119565325D01*
X148025133Y-119562066D01*
X148025126Y-119562064D01*
X147836275Y-119524500D01*
X147643725Y-119524500D01*
X147454873Y-119562064D01*
X147454865Y-119562066D01*
X147276979Y-119635750D01*
X147276977Y-119635751D01*
X147116880Y-119742725D01*
X146980725Y-119878880D01*
X146873751Y-120038977D01*
X146873750Y-120038979D01*
X146800066Y-120216865D01*
X146800064Y-120216873D01*
X146762500Y-120405724D01*
X146762500Y-120598275D01*
X146800064Y-120787126D01*
X146800066Y-120787134D01*
X146873749Y-120965018D01*
X146873750Y-120965020D01*
X146877896Y-120971225D01*
X146887228Y-121018141D01*
X146870123Y-121050142D01*
X146302132Y-121618135D01*
X146238136Y-121682130D01*
X146238132Y-121682135D01*
X146203500Y-121765744D01*
X146203500Y-122596123D01*
X146185194Y-122640317D01*
X146141000Y-122658623D01*
X146096806Y-122640317D01*
X146083258Y-122620041D01*
X146073351Y-122596123D01*
X146066250Y-122578980D01*
X145959274Y-122418880D01*
X145823120Y-122282726D01*
X145798567Y-122266320D01*
X145663022Y-122175751D01*
X145663020Y-122175750D01*
X145485134Y-122102066D01*
X145485126Y-122102064D01*
X145296275Y-122064500D01*
X145103725Y-122064500D01*
X144914873Y-122102064D01*
X144914865Y-122102066D01*
X144736979Y-122175750D01*
X144736977Y-122175751D01*
X144576880Y-122282725D01*
X144440725Y-122418880D01*
X144333751Y-122578977D01*
X144333750Y-122578979D01*
X144260066Y-122756865D01*
X144260064Y-122756872D01*
X144258608Y-122764194D01*
X144232031Y-122803968D01*
X144197309Y-122814500D01*
X142476300Y-122814500D01*
X142432106Y-122796194D01*
X139077047Y-119441136D01*
X139077042Y-119441132D01*
X138993433Y-119406500D01*
X138993431Y-119406500D01*
X135300727Y-119406500D01*
X135256533Y-119388194D01*
X135218668Y-119350329D01*
X135137832Y-119303659D01*
X135137829Y-119303658D01*
X135047676Y-119279500D01*
X135047671Y-119279500D01*
X134954329Y-119279500D01*
X134954318Y-119279501D01*
X134952737Y-119279925D01*
X134951918Y-119279817D01*
X134950264Y-119280035D01*
X134950205Y-119279591D01*
X134905312Y-119273676D01*
X134876196Y-119235722D01*
X134882445Y-119188297D01*
X134892368Y-119175365D01*
X134949929Y-119117804D01*
X134994122Y-119099500D01*
X140378753Y-119099500D01*
X140422947Y-119117806D01*
X140441253Y-119162000D01*
X140422947Y-119206194D01*
X140410003Y-119216127D01*
X140392331Y-119226329D01*
X140326329Y-119292331D01*
X140279659Y-119373168D01*
X140279658Y-119373170D01*
X140255500Y-119463323D01*
X140255500Y-119556676D01*
X140278496Y-119642491D01*
X140279659Y-119646832D01*
X140326329Y-119727668D01*
X140392332Y-119793671D01*
X140473168Y-119840341D01*
X140512947Y-119851000D01*
X140563323Y-119864499D01*
X140563329Y-119864500D01*
X140656671Y-119864500D01*
X140656676Y-119864499D01*
X140683460Y-119857321D01*
X140746832Y-119840341D01*
X140827668Y-119793671D01*
X140893671Y-119727668D01*
X140940341Y-119646832D01*
X140962181Y-119565325D01*
X140964499Y-119556676D01*
X140964500Y-119556670D01*
X140964500Y-119463329D01*
X140964499Y-119463323D01*
X140944367Y-119388194D01*
X140940341Y-119373168D01*
X140893671Y-119292332D01*
X140827668Y-119226329D01*
X140809996Y-119216126D01*
X140780877Y-119178177D01*
X140787120Y-119130750D01*
X140825070Y-119101630D01*
X140841247Y-119099500D01*
X143449879Y-119099500D01*
X143494073Y-119117806D01*
X144330123Y-119953856D01*
X144348429Y-119998050D01*
X144337899Y-120032768D01*
X144333754Y-120038971D01*
X144333750Y-120038979D01*
X144260066Y-120216865D01*
X144260064Y-120216873D01*
X144222500Y-120405724D01*
X144222500Y-120598275D01*
X144260064Y-120787126D01*
X144260066Y-120787134D01*
X144333750Y-120965020D01*
X144333751Y-120965022D01*
X144440725Y-121125119D01*
X144440726Y-121125120D01*
X144576880Y-121261274D01*
X144736980Y-121368250D01*
X144816299Y-121401105D01*
X144914865Y-121441933D01*
X144914869Y-121441934D01*
X144914874Y-121441936D01*
X145103725Y-121479500D01*
X145296275Y-121479500D01*
X145485126Y-121441936D01*
X145485132Y-121441933D01*
X145485134Y-121441933D01*
X145527611Y-121424337D01*
X145663020Y-121368250D01*
X145823120Y-121261274D01*
X145959274Y-121125120D01*
X146066250Y-120965020D01*
X146139936Y-120787126D01*
X146177500Y-120598275D01*
X146177500Y-120405725D01*
X146139936Y-120216874D01*
X146139934Y-120216869D01*
X146139933Y-120216865D01*
X146078547Y-120068668D01*
X146066250Y-120038980D01*
X145959274Y-119878880D01*
X145823120Y-119742726D01*
X145823119Y-119742725D01*
X145663022Y-119635751D01*
X145663020Y-119635750D01*
X145485134Y-119562066D01*
X145485126Y-119562064D01*
X145296275Y-119524500D01*
X145103725Y-119524500D01*
X144914873Y-119562064D01*
X144914865Y-119562066D01*
X144736979Y-119635750D01*
X144736971Y-119635754D01*
X144730768Y-119639899D01*
X144683851Y-119649227D01*
X144651856Y-119632123D01*
X143698869Y-118679136D01*
X143698864Y-118679132D01*
X143615255Y-118644500D01*
X143615253Y-118644500D01*
X134828747Y-118644500D01*
X134828745Y-118644500D01*
X134804255Y-118654644D01*
X134745135Y-118679131D01*
X134745131Y-118679134D01*
X134290073Y-119134194D01*
X134245879Y-119152500D01*
X134192323Y-119152500D01*
X134102170Y-119176658D01*
X134102168Y-119176659D01*
X134021331Y-119223329D01*
X133955329Y-119289331D01*
X133908659Y-119370168D01*
X133908658Y-119370170D01*
X133884500Y-119460323D01*
X133884500Y-119553676D01*
X133908301Y-119642496D01*
X133908659Y-119643832D01*
X133922839Y-119668393D01*
X133955329Y-119724668D01*
X134023645Y-119792984D01*
X134041951Y-119837178D01*
X134023645Y-119881372D01*
X134010701Y-119891305D01*
X133957831Y-119921829D01*
X133891829Y-119987831D01*
X133845159Y-120068668D01*
X133845158Y-120068670D01*
X133821000Y-120158823D01*
X126300500Y-120158823D01*
X126300500Y-117903724D01*
X126842500Y-117903724D01*
X126842500Y-118096275D01*
X126880064Y-118285126D01*
X126880066Y-118285134D01*
X126953750Y-118463020D01*
X126953751Y-118463022D01*
X127035191Y-118584905D01*
X127060726Y-118623120D01*
X127196880Y-118759274D01*
X127356980Y-118866250D01*
X127436299Y-118899105D01*
X127534865Y-118939933D01*
X127534869Y-118939934D01*
X127534874Y-118939936D01*
X127723725Y-118977500D01*
X127916275Y-118977500D01*
X128105126Y-118939936D01*
X128105132Y-118939933D01*
X128105134Y-118939933D01*
X128147611Y-118922337D01*
X128283020Y-118866250D01*
X128443120Y-118759274D01*
X128579274Y-118623120D01*
X128686250Y-118463020D01*
X128759936Y-118285126D01*
X128797500Y-118096275D01*
X128797500Y-117903725D01*
X128759936Y-117714874D01*
X128759934Y-117714869D01*
X128759933Y-117714865D01*
X128719105Y-117616299D01*
X128686250Y-117536980D01*
X128579274Y-117376880D01*
X128443120Y-117240726D01*
X128402630Y-117213671D01*
X128283022Y-117133751D01*
X128283020Y-117133750D01*
X128105134Y-117060066D01*
X128105126Y-117060064D01*
X127916275Y-117022500D01*
X127723725Y-117022500D01*
X127534873Y-117060064D01*
X127534865Y-117060066D01*
X127356979Y-117133750D01*
X127356977Y-117133751D01*
X127196880Y-117240725D01*
X127060725Y-117376880D01*
X126953751Y-117536977D01*
X126953750Y-117536979D01*
X126880066Y-117714865D01*
X126880064Y-117714873D01*
X126842500Y-117903724D01*
X126300500Y-117903724D01*
X126300500Y-116883323D01*
X140335000Y-116883323D01*
X140335000Y-116976676D01*
X140356703Y-117057668D01*
X140359159Y-117066832D01*
X140405829Y-117147668D01*
X140471832Y-117213671D01*
X140552668Y-117260341D01*
X140594915Y-117271661D01*
X140642823Y-117284499D01*
X140642829Y-117284500D01*
X140736171Y-117284500D01*
X140736176Y-117284499D01*
X140762960Y-117277321D01*
X140826332Y-117260341D01*
X140907168Y-117213671D01*
X140973171Y-117147668D01*
X141019841Y-117066832D01*
X141044000Y-116976671D01*
X141044000Y-116883329D01*
X141043999Y-116883323D01*
X141029561Y-116829441D01*
X141025650Y-116814847D01*
X143847500Y-116814847D01*
X143847500Y-118165141D01*
X143847501Y-118165153D01*
X143858027Y-118268196D01*
X143858028Y-118268203D01*
X143875050Y-118319573D01*
X143913360Y-118435185D01*
X144005709Y-118584905D01*
X144130095Y-118709291D01*
X144279815Y-118801640D01*
X144446795Y-118856971D01*
X144446796Y-118856971D01*
X144446799Y-118856972D01*
X144494228Y-118861816D01*
X144549855Y-118867500D01*
X146150144Y-118867499D01*
X146201674Y-118862235D01*
X146253196Y-118856972D01*
X146253197Y-118856971D01*
X146253205Y-118856971D01*
X146420185Y-118801640D01*
X146569905Y-118709291D01*
X146694291Y-118584905D01*
X146786640Y-118435185D01*
X146817080Y-118343323D01*
X150175500Y-118343323D01*
X150175500Y-118436676D01*
X150199658Y-118526829D01*
X150199659Y-118526832D01*
X150246329Y-118607668D01*
X150312332Y-118673671D01*
X150393168Y-118720341D01*
X150435415Y-118731661D01*
X150483323Y-118744499D01*
X150483329Y-118744500D01*
X150576671Y-118744500D01*
X150576676Y-118744499D01*
X150603460Y-118737321D01*
X150666832Y-118720341D01*
X150747668Y-118673671D01*
X150813671Y-118607668D01*
X150860341Y-118526832D01*
X150884500Y-118436671D01*
X150884500Y-118343329D01*
X150884499Y-118343323D01*
X150864370Y-118268205D01*
X150860341Y-118253168D01*
X150813671Y-118172332D01*
X150747668Y-118106329D01*
X150666832Y-118059659D01*
X150666829Y-118059658D01*
X150576676Y-118035500D01*
X150576671Y-118035500D01*
X150483329Y-118035500D01*
X150483323Y-118035500D01*
X150393170Y-118059658D01*
X150393168Y-118059659D01*
X150312331Y-118106329D01*
X150246329Y-118172331D01*
X150199659Y-118253168D01*
X150199658Y-118253170D01*
X150175500Y-118343323D01*
X146817080Y-118343323D01*
X146841971Y-118268205D01*
X146843508Y-118253168D01*
X146852499Y-118165152D01*
X146852500Y-118165145D01*
X146852499Y-116814856D01*
X146850299Y-116793323D01*
X159030500Y-116793323D01*
X159030500Y-116886676D01*
X159054616Y-116976671D01*
X159054659Y-116976832D01*
X159101329Y-117057668D01*
X159167332Y-117123671D01*
X159248168Y-117170341D01*
X159290415Y-117181661D01*
X159338323Y-117194499D01*
X159338329Y-117194500D01*
X159431671Y-117194500D01*
X159431676Y-117194499D01*
X159458460Y-117187321D01*
X159521832Y-117170341D01*
X159602668Y-117123671D01*
X159668671Y-117057668D01*
X159715341Y-116976832D01*
X159739500Y-116886671D01*
X159739500Y-116793329D01*
X159739499Y-116793323D01*
X159726661Y-116745415D01*
X159715341Y-116703168D01*
X159668671Y-116622332D01*
X159602668Y-116556329D01*
X159521832Y-116509659D01*
X159521829Y-116509658D01*
X159431676Y-116485500D01*
X159431671Y-116485500D01*
X159338329Y-116485500D01*
X159338323Y-116485500D01*
X159248170Y-116509658D01*
X159248168Y-116509659D01*
X159167331Y-116556329D01*
X159101329Y-116622331D01*
X159054659Y-116703168D01*
X159054658Y-116703170D01*
X159030500Y-116793323D01*
X146850299Y-116793323D01*
X146841971Y-116711799D01*
X146841971Y-116711796D01*
X146812326Y-116622332D01*
X146786640Y-116544815D01*
X146694291Y-116395095D01*
X146569905Y-116270709D01*
X146569904Y-116270708D01*
X146420185Y-116178360D01*
X146253200Y-116123027D01*
X146237346Y-116121408D01*
X146150147Y-116112500D01*
X144549858Y-116112500D01*
X144549846Y-116112501D01*
X144446803Y-116123027D01*
X144446796Y-116123028D01*
X144279814Y-116178360D01*
X144130095Y-116270708D01*
X144005708Y-116395095D01*
X143913360Y-116544814D01*
X143858027Y-116711799D01*
X143847500Y-116814847D01*
X141025650Y-116814847D01*
X141024846Y-116811847D01*
X141019841Y-116793168D01*
X140973171Y-116712332D01*
X140907168Y-116646329D01*
X140826332Y-116599659D01*
X140826329Y-116599658D01*
X140736176Y-116575500D01*
X140736171Y-116575500D01*
X140642829Y-116575500D01*
X140642823Y-116575500D01*
X140552670Y-116599658D01*
X140552668Y-116599659D01*
X140471831Y-116646329D01*
X140405829Y-116712331D01*
X140359159Y-116793168D01*
X140359158Y-116793170D01*
X140335000Y-116883323D01*
X126300500Y-116883323D01*
X126300500Y-115363724D01*
X126842500Y-115363724D01*
X126842500Y-115556275D01*
X126880064Y-115745126D01*
X126880066Y-115745134D01*
X126953750Y-115923020D01*
X127060726Y-116083120D01*
X127196880Y-116219274D01*
X127356980Y-116326250D01*
X127436299Y-116359105D01*
X127534865Y-116399933D01*
X127534869Y-116399934D01*
X127534874Y-116399936D01*
X127723725Y-116437500D01*
X127916275Y-116437500D01*
X128105126Y-116399936D01*
X128105132Y-116399933D01*
X128105134Y-116399933D01*
X128147611Y-116382337D01*
X128283020Y-116326250D01*
X128443120Y-116219274D01*
X128579274Y-116083120D01*
X128592502Y-116063323D01*
X152165500Y-116063323D01*
X152165500Y-116156676D01*
X152189658Y-116246829D01*
X152189659Y-116246832D01*
X152236329Y-116327668D01*
X152302332Y-116393671D01*
X152383168Y-116440341D01*
X152425415Y-116451661D01*
X152473323Y-116464499D01*
X152473329Y-116464500D01*
X152566671Y-116464500D01*
X152566676Y-116464499D01*
X152593460Y-116457321D01*
X152656832Y-116440341D01*
X152737668Y-116393671D01*
X152803671Y-116327668D01*
X152850341Y-116246832D01*
X152874500Y-116156671D01*
X152874500Y-116063329D01*
X152874499Y-116063323D01*
X152861661Y-116015415D01*
X152850341Y-115973168D01*
X152803671Y-115892332D01*
X152737668Y-115826329D01*
X152656832Y-115779659D01*
X152656829Y-115779658D01*
X152566676Y-115755500D01*
X152566671Y-115755500D01*
X152473329Y-115755500D01*
X152473323Y-115755500D01*
X152383170Y-115779658D01*
X152383168Y-115779659D01*
X152302331Y-115826329D01*
X152236329Y-115892331D01*
X152189659Y-115973168D01*
X152189658Y-115973170D01*
X152165500Y-116063323D01*
X128592502Y-116063323D01*
X128686250Y-115923020D01*
X128759936Y-115745126D01*
X128797500Y-115556275D01*
X128797500Y-115363725D01*
X128778723Y-115269323D01*
X161443500Y-115269323D01*
X161443500Y-115362676D01*
X161467658Y-115452829D01*
X161467659Y-115452832D01*
X161514329Y-115533668D01*
X161580332Y-115599671D01*
X161661168Y-115646341D01*
X161703415Y-115657661D01*
X161751323Y-115670499D01*
X161751329Y-115670500D01*
X161844671Y-115670500D01*
X161844676Y-115670499D01*
X161871460Y-115663321D01*
X161934832Y-115646341D01*
X162015668Y-115599671D01*
X162081671Y-115533668D01*
X162128341Y-115452832D01*
X162152500Y-115362671D01*
X162152500Y-115269329D01*
X162152499Y-115269323D01*
X162139661Y-115221415D01*
X162128341Y-115179168D01*
X162081671Y-115098332D01*
X162015668Y-115032329D01*
X161934832Y-114985659D01*
X161934829Y-114985658D01*
X161844676Y-114961500D01*
X161844671Y-114961500D01*
X161751329Y-114961500D01*
X161751323Y-114961500D01*
X161661170Y-114985658D01*
X161661168Y-114985659D01*
X161580331Y-115032329D01*
X161514329Y-115098331D01*
X161467659Y-115179168D01*
X161467658Y-115179170D01*
X161443500Y-115269323D01*
X128778723Y-115269323D01*
X128759936Y-115174874D01*
X128759934Y-115174869D01*
X128759933Y-115174865D01*
X128700892Y-115032329D01*
X128686250Y-114996980D01*
X128579274Y-114836880D01*
X128443120Y-114700726D01*
X128443119Y-114700725D01*
X128283022Y-114593751D01*
X128283020Y-114593750D01*
X128105134Y-114520066D01*
X128105126Y-114520064D01*
X127916275Y-114482500D01*
X127723725Y-114482500D01*
X127534873Y-114520064D01*
X127534865Y-114520066D01*
X127356979Y-114593750D01*
X127356977Y-114593751D01*
X127196880Y-114700725D01*
X127060725Y-114836880D01*
X126953751Y-114996977D01*
X126953750Y-114996979D01*
X126880066Y-115174865D01*
X126880064Y-115174873D01*
X126842500Y-115363724D01*
X126300500Y-115363724D01*
X126300500Y-114403323D01*
X140135500Y-114403323D01*
X140135500Y-114496676D01*
X140159658Y-114586829D01*
X140159659Y-114586832D01*
X140206329Y-114667668D01*
X140272332Y-114733671D01*
X140353168Y-114780341D01*
X140395415Y-114791661D01*
X140443323Y-114804499D01*
X140443329Y-114804500D01*
X140536671Y-114804500D01*
X140536676Y-114804499D01*
X140563460Y-114797321D01*
X140626832Y-114780341D01*
X140707668Y-114733671D01*
X140773671Y-114667668D01*
X140820341Y-114586832D01*
X140844500Y-114496671D01*
X140844500Y-114403329D01*
X140844499Y-114403323D01*
X140825428Y-114332154D01*
X140820341Y-114313168D01*
X140773671Y-114232332D01*
X140707668Y-114166329D01*
X140677043Y-114148648D01*
X150504146Y-114148648D01*
X150504146Y-114242001D01*
X150523217Y-114313170D01*
X150528305Y-114332157D01*
X150574975Y-114412993D01*
X150640978Y-114478996D01*
X150721814Y-114525666D01*
X150764061Y-114536986D01*
X150811969Y-114549824D01*
X150811975Y-114549825D01*
X150905317Y-114549825D01*
X150905322Y-114549824D01*
X150932106Y-114542646D01*
X150995478Y-114525666D01*
X151076314Y-114478996D01*
X151142317Y-114412993D01*
X151188987Y-114332157D01*
X151213146Y-114241996D01*
X151213146Y-114148654D01*
X151213145Y-114148648D01*
X151198903Y-114095500D01*
X151188987Y-114058493D01*
X151142317Y-113977657D01*
X151076314Y-113911654D01*
X150995478Y-113864984D01*
X150995475Y-113864983D01*
X150905322Y-113840825D01*
X150905317Y-113840825D01*
X150811975Y-113840825D01*
X150811969Y-113840825D01*
X150721816Y-113864983D01*
X150721814Y-113864984D01*
X150640977Y-113911654D01*
X150574975Y-113977656D01*
X150528305Y-114058493D01*
X150528304Y-114058495D01*
X150504146Y-114148648D01*
X140677043Y-114148648D01*
X140626832Y-114119659D01*
X140626829Y-114119658D01*
X140536676Y-114095500D01*
X140536671Y-114095500D01*
X140443329Y-114095500D01*
X140443323Y-114095500D01*
X140353170Y-114119658D01*
X140353168Y-114119659D01*
X140272331Y-114166329D01*
X140206329Y-114232331D01*
X140159659Y-114313168D01*
X140159658Y-114313170D01*
X140135500Y-114403323D01*
X126300500Y-114403323D01*
X126300500Y-112823724D01*
X126842500Y-112823724D01*
X126842500Y-113016275D01*
X126880064Y-113205126D01*
X126880066Y-113205134D01*
X126953750Y-113383020D01*
X126953751Y-113383022D01*
X127060725Y-113543119D01*
X127060726Y-113543120D01*
X127196880Y-113679274D01*
X127356980Y-113786250D01*
X127436299Y-113819105D01*
X127534865Y-113859933D01*
X127534869Y-113859934D01*
X127534874Y-113859936D01*
X127723725Y-113897500D01*
X127916275Y-113897500D01*
X128105126Y-113859936D01*
X128105132Y-113859933D01*
X128105134Y-113859933D01*
X128158886Y-113837668D01*
X128283020Y-113786250D01*
X128443120Y-113679274D01*
X128579274Y-113543120D01*
X128686250Y-113383020D01*
X128734928Y-113265500D01*
X128746600Y-113237323D01*
X140315500Y-113237323D01*
X140315500Y-113330676D01*
X140339658Y-113420829D01*
X140339659Y-113420832D01*
X140386329Y-113501668D01*
X140452332Y-113567671D01*
X140533168Y-113614341D01*
X140575415Y-113625661D01*
X140623323Y-113638499D01*
X140623329Y-113638500D01*
X140716671Y-113638500D01*
X140716676Y-113638499D01*
X140743460Y-113631321D01*
X140806832Y-113614341D01*
X140887668Y-113567671D01*
X140953671Y-113501668D01*
X141000341Y-113420832D01*
X141017321Y-113357460D01*
X141024499Y-113330676D01*
X141024500Y-113330670D01*
X141024500Y-113237329D01*
X141024499Y-113237323D01*
X141011661Y-113189415D01*
X141000341Y-113147168D01*
X140953671Y-113066332D01*
X140887668Y-113000329D01*
X140806832Y-112953659D01*
X140806829Y-112953658D01*
X140716676Y-112929500D01*
X140716671Y-112929500D01*
X140623329Y-112929500D01*
X140623323Y-112929500D01*
X140533170Y-112953658D01*
X140533168Y-112953659D01*
X140452331Y-113000329D01*
X140386329Y-113066331D01*
X140339659Y-113147168D01*
X140339658Y-113147170D01*
X140315500Y-113237323D01*
X128746600Y-113237323D01*
X128758202Y-113209314D01*
X128758202Y-113209313D01*
X128758704Y-113208098D01*
X128759936Y-113205126D01*
X128797500Y-113016275D01*
X128797500Y-112823725D01*
X128759936Y-112634874D01*
X128759934Y-112634869D01*
X128759933Y-112634865D01*
X128698133Y-112485668D01*
X128686250Y-112456980D01*
X128579274Y-112296880D01*
X128503717Y-112221323D01*
X134011500Y-112221323D01*
X134011500Y-112314676D01*
X134035658Y-112404829D01*
X134035659Y-112404832D01*
X134082329Y-112485668D01*
X134148332Y-112551671D01*
X134229168Y-112598341D01*
X134271415Y-112609661D01*
X134319323Y-112622499D01*
X134319329Y-112622500D01*
X134412671Y-112622500D01*
X134412676Y-112622499D01*
X134439460Y-112615321D01*
X134502832Y-112598341D01*
X134583668Y-112551671D01*
X134649671Y-112485668D01*
X134696341Y-112404832D01*
X134720500Y-112314671D01*
X134720500Y-112221329D01*
X134720499Y-112221323D01*
X134698799Y-112140341D01*
X134696341Y-112131168D01*
X134649671Y-112050332D01*
X134583668Y-111984329D01*
X134502832Y-111937659D01*
X134502829Y-111937658D01*
X134412676Y-111913500D01*
X134412671Y-111913500D01*
X134319329Y-111913500D01*
X134319323Y-111913500D01*
X134229170Y-111937658D01*
X134229168Y-111937659D01*
X134148331Y-111984329D01*
X134082329Y-112050331D01*
X134035659Y-112131168D01*
X134035658Y-112131170D01*
X134011500Y-112221323D01*
X128503717Y-112221323D01*
X128443120Y-112160726D01*
X128412612Y-112140341D01*
X128283022Y-112053751D01*
X128283020Y-112053750D01*
X128105134Y-111980066D01*
X128105126Y-111980064D01*
X127916275Y-111942500D01*
X127723725Y-111942500D01*
X127534873Y-111980064D01*
X127534865Y-111980066D01*
X127356979Y-112053750D01*
X127356977Y-112053751D01*
X127196880Y-112160725D01*
X127060725Y-112296880D01*
X126953751Y-112456977D01*
X126953750Y-112456979D01*
X126880066Y-112634865D01*
X126880064Y-112634873D01*
X126842500Y-112823724D01*
X126300500Y-112823724D01*
X126300500Y-110283724D01*
X126842500Y-110283724D01*
X126842500Y-110476275D01*
X126880064Y-110665126D01*
X126880066Y-110665134D01*
X126953750Y-110843020D01*
X127060726Y-111003120D01*
X127196880Y-111139274D01*
X127356980Y-111246250D01*
X127436299Y-111279105D01*
X127534865Y-111319933D01*
X127534869Y-111319934D01*
X127534874Y-111319936D01*
X127723725Y-111357500D01*
X127916275Y-111357500D01*
X128105126Y-111319936D01*
X128105132Y-111319933D01*
X128105134Y-111319933D01*
X128169506Y-111293269D01*
X128283020Y-111246250D01*
X128443120Y-111139274D01*
X128579274Y-111003120D01*
X128686250Y-110843020D01*
X128748249Y-110693341D01*
X128759933Y-110665134D01*
X128759933Y-110665132D01*
X128759936Y-110665126D01*
X128797500Y-110476275D01*
X128797500Y-110283725D01*
X128797420Y-110283323D01*
X138202500Y-110283323D01*
X138202500Y-110376676D01*
X138220139Y-110442500D01*
X138226659Y-110466832D01*
X138273329Y-110547668D01*
X138339332Y-110613671D01*
X138420168Y-110660341D01*
X138462415Y-110671661D01*
X138510323Y-110684499D01*
X138510329Y-110684500D01*
X138603671Y-110684500D01*
X138603676Y-110684499D01*
X138630460Y-110677321D01*
X138693832Y-110660341D01*
X138774668Y-110613671D01*
X138840671Y-110547668D01*
X138887341Y-110466832D01*
X138911500Y-110376671D01*
X138911500Y-110283329D01*
X138911499Y-110283323D01*
X138896183Y-110226168D01*
X138887341Y-110193168D01*
X138840671Y-110112332D01*
X138774668Y-110046329D01*
X138693832Y-109999659D01*
X138693829Y-109999658D01*
X138603676Y-109975500D01*
X138603671Y-109975500D01*
X138510329Y-109975500D01*
X138510323Y-109975500D01*
X138420170Y-109999658D01*
X138420168Y-109999659D01*
X138339331Y-110046329D01*
X138273329Y-110112331D01*
X138226659Y-110193168D01*
X138226658Y-110193170D01*
X138202500Y-110283323D01*
X128797420Y-110283323D01*
X128759936Y-110094874D01*
X128759934Y-110094869D01*
X128759933Y-110094865D01*
X128710333Y-109975121D01*
X128686250Y-109916980D01*
X128579274Y-109756880D01*
X128443120Y-109620726D01*
X128428313Y-109610832D01*
X128283022Y-109513751D01*
X128283020Y-109513750D01*
X128105134Y-109440066D01*
X128105126Y-109440064D01*
X127916275Y-109402500D01*
X127723725Y-109402500D01*
X127534873Y-109440064D01*
X127534865Y-109440066D01*
X127356979Y-109513750D01*
X127356977Y-109513751D01*
X127196880Y-109620725D01*
X127060725Y-109756880D01*
X126953751Y-109916977D01*
X126953750Y-109916979D01*
X126880066Y-110094865D01*
X126880064Y-110094873D01*
X126842500Y-110283724D01*
X126300500Y-110283724D01*
X126300500Y-107743724D01*
X126842500Y-107743724D01*
X126842500Y-107936275D01*
X126880064Y-108125126D01*
X126880066Y-108125134D01*
X126953750Y-108303020D01*
X126953751Y-108303022D01*
X127060199Y-108462332D01*
X127060726Y-108463120D01*
X127196880Y-108599274D01*
X127356980Y-108706250D01*
X127406281Y-108726671D01*
X127534865Y-108779933D01*
X127534869Y-108779934D01*
X127534874Y-108779936D01*
X127723725Y-108817500D01*
X127916275Y-108817500D01*
X128105126Y-108779936D01*
X128105132Y-108779933D01*
X128105134Y-108779933D01*
X128156877Y-108758500D01*
X128283020Y-108706250D01*
X128443120Y-108599274D01*
X128579274Y-108463120D01*
X128686250Y-108303020D01*
X128759936Y-108125126D01*
X128797500Y-107936275D01*
X128797500Y-107743725D01*
X128759936Y-107554874D01*
X128759934Y-107554869D01*
X128759933Y-107554865D01*
X128698133Y-107405668D01*
X128686250Y-107376980D01*
X128579274Y-107216880D01*
X128443120Y-107080726D01*
X128398881Y-107051166D01*
X128283022Y-106973751D01*
X128283020Y-106973750D01*
X128105134Y-106900066D01*
X128105126Y-106900064D01*
X127916275Y-106862500D01*
X127723725Y-106862500D01*
X127534873Y-106900064D01*
X127534865Y-106900066D01*
X127356979Y-106973750D01*
X127356977Y-106973751D01*
X127196880Y-107080725D01*
X127060725Y-107216880D01*
X126953751Y-107376977D01*
X126953750Y-107376979D01*
X126880066Y-107554865D01*
X126880064Y-107554873D01*
X126842500Y-107743724D01*
X126300500Y-107743724D01*
X126300500Y-105203724D01*
X126842500Y-105203724D01*
X126842500Y-105396275D01*
X126880064Y-105585126D01*
X126880066Y-105585134D01*
X126953750Y-105763020D01*
X126953751Y-105763022D01*
X127049123Y-105905755D01*
X127060726Y-105923120D01*
X127196880Y-106059274D01*
X127356980Y-106166250D01*
X127412297Y-106189163D01*
X127534865Y-106239933D01*
X127534869Y-106239934D01*
X127534874Y-106239936D01*
X127723725Y-106277500D01*
X127916275Y-106277500D01*
X128105126Y-106239936D01*
X128105132Y-106239933D01*
X128105134Y-106239933D01*
X128121092Y-106233323D01*
X133965500Y-106233323D01*
X133965500Y-106326676D01*
X133989658Y-106416829D01*
X133989659Y-106416832D01*
X134036329Y-106497668D01*
X134102332Y-106563671D01*
X134183168Y-106610341D01*
X134225415Y-106621661D01*
X134273323Y-106634499D01*
X134273329Y-106634500D01*
X134366671Y-106634500D01*
X134366676Y-106634499D01*
X134393460Y-106627321D01*
X134456832Y-106610341D01*
X134537668Y-106563671D01*
X134603671Y-106497668D01*
X134650341Y-106416832D01*
X134673964Y-106328671D01*
X134674499Y-106326676D01*
X134674500Y-106326670D01*
X134674500Y-106233329D01*
X134674499Y-106233323D01*
X134656526Y-106166250D01*
X134650341Y-106143168D01*
X134603671Y-106062332D01*
X134537668Y-105996329D01*
X134456832Y-105949659D01*
X134456829Y-105949658D01*
X134366676Y-105925500D01*
X134366671Y-105925500D01*
X134273329Y-105925500D01*
X134273323Y-105925500D01*
X134183170Y-105949658D01*
X134183168Y-105949659D01*
X134102331Y-105996329D01*
X134036329Y-106062331D01*
X133989659Y-106143168D01*
X133989658Y-106143170D01*
X133965500Y-106233323D01*
X128121092Y-106233323D01*
X128227703Y-106189163D01*
X128283020Y-106166250D01*
X128443120Y-106059274D01*
X128579274Y-105923120D01*
X128686250Y-105763020D01*
X128748249Y-105613341D01*
X128759933Y-105585134D01*
X128759933Y-105585132D01*
X128759936Y-105585126D01*
X128778793Y-105490323D01*
X132614500Y-105490323D01*
X132614500Y-105583676D01*
X132634622Y-105658767D01*
X132638659Y-105673832D01*
X132685329Y-105754668D01*
X132751332Y-105820671D01*
X132832168Y-105867341D01*
X132874415Y-105878661D01*
X132922323Y-105891499D01*
X132922329Y-105891500D01*
X133015671Y-105891500D01*
X133015676Y-105891499D01*
X133042460Y-105884321D01*
X133105832Y-105867341D01*
X133186668Y-105820671D01*
X133252671Y-105754668D01*
X133299341Y-105673832D01*
X133323500Y-105583671D01*
X133323500Y-105490329D01*
X133323499Y-105490323D01*
X133304610Y-105419832D01*
X133299341Y-105400168D01*
X133252671Y-105319332D01*
X133186668Y-105253329D01*
X133105832Y-105206659D01*
X133105829Y-105206658D01*
X133015676Y-105182500D01*
X133015671Y-105182500D01*
X132922329Y-105182500D01*
X132922323Y-105182500D01*
X132832170Y-105206658D01*
X132832168Y-105206659D01*
X132751331Y-105253329D01*
X132685329Y-105319331D01*
X132638659Y-105400168D01*
X132638658Y-105400170D01*
X132614500Y-105490323D01*
X128778793Y-105490323D01*
X128797500Y-105396275D01*
X128797500Y-105203725D01*
X128759936Y-105014874D01*
X128759934Y-105014869D01*
X128759933Y-105014865D01*
X128712495Y-104900341D01*
X128686250Y-104836980D01*
X128579274Y-104676880D01*
X128443120Y-104540726D01*
X128443119Y-104540725D01*
X128417075Y-104523323D01*
X135105500Y-104523323D01*
X135105500Y-104616676D01*
X135129658Y-104706829D01*
X135129659Y-104706832D01*
X135176329Y-104787668D01*
X135242332Y-104853671D01*
X135323168Y-104900341D01*
X135365415Y-104911661D01*
X135413323Y-104924499D01*
X135413329Y-104924500D01*
X135506671Y-104924500D01*
X135506676Y-104924499D01*
X135533460Y-104917321D01*
X135596832Y-104900341D01*
X135677668Y-104853671D01*
X135743671Y-104787668D01*
X135790341Y-104706832D01*
X135814500Y-104616671D01*
X135814500Y-104523329D01*
X135814499Y-104523323D01*
X135790497Y-104433751D01*
X135790341Y-104433168D01*
X135743671Y-104352332D01*
X135677668Y-104286329D01*
X135596832Y-104239659D01*
X135596829Y-104239658D01*
X135506676Y-104215500D01*
X135506671Y-104215500D01*
X135413329Y-104215500D01*
X135413323Y-104215500D01*
X135323170Y-104239658D01*
X135323168Y-104239659D01*
X135242331Y-104286329D01*
X135176329Y-104352331D01*
X135129659Y-104433168D01*
X135129658Y-104433170D01*
X135105500Y-104523323D01*
X128417075Y-104523323D01*
X128283022Y-104433751D01*
X128283020Y-104433750D01*
X128105134Y-104360066D01*
X128105126Y-104360064D01*
X127916275Y-104322500D01*
X127723725Y-104322500D01*
X127534873Y-104360064D01*
X127534865Y-104360066D01*
X127356979Y-104433750D01*
X127356977Y-104433751D01*
X127196880Y-104540725D01*
X127060725Y-104676880D01*
X126953751Y-104836977D01*
X126953750Y-104836979D01*
X126880066Y-105014865D01*
X126880064Y-105014873D01*
X126842500Y-105203724D01*
X126300500Y-105203724D01*
X126300500Y-104097232D01*
X136809409Y-104097232D01*
X136809409Y-104190585D01*
X136822785Y-104240500D01*
X136833568Y-104280741D01*
X136880238Y-104361577D01*
X136946241Y-104427580D01*
X137027077Y-104474250D01*
X137069324Y-104485570D01*
X137117232Y-104498408D01*
X137117238Y-104498409D01*
X137210580Y-104498409D01*
X137210585Y-104498408D01*
X137243104Y-104489694D01*
X137300741Y-104474250D01*
X137381577Y-104427580D01*
X137447580Y-104361577D01*
X137494250Y-104280741D01*
X137518409Y-104190580D01*
X137518409Y-104097238D01*
X137518408Y-104097232D01*
X137505570Y-104049324D01*
X137494250Y-104007077D01*
X137447580Y-103926241D01*
X137381577Y-103860238D01*
X137300741Y-103813568D01*
X137300738Y-103813567D01*
X137210585Y-103789409D01*
X137210580Y-103789409D01*
X137117238Y-103789409D01*
X137117232Y-103789409D01*
X137027079Y-103813567D01*
X137027077Y-103813568D01*
X136946240Y-103860238D01*
X136880238Y-103926240D01*
X136833568Y-104007077D01*
X136833567Y-104007079D01*
X136809409Y-104097232D01*
X126300500Y-104097232D01*
X126300500Y-102663724D01*
X126842500Y-102663724D01*
X126842500Y-102856275D01*
X126880064Y-103045126D01*
X126880066Y-103045134D01*
X126953750Y-103223020D01*
X126953751Y-103223022D01*
X127037479Y-103348329D01*
X127060726Y-103383120D01*
X127196880Y-103519274D01*
X127356980Y-103626250D01*
X127436299Y-103659105D01*
X127534865Y-103699933D01*
X127534869Y-103699934D01*
X127534874Y-103699936D01*
X127723725Y-103737500D01*
X127916275Y-103737500D01*
X128105126Y-103699936D01*
X128105132Y-103699933D01*
X128105134Y-103699933D01*
X128156467Y-103678670D01*
X128283020Y-103626250D01*
X128296380Y-103617323D01*
X133249500Y-103617323D01*
X133249500Y-103710676D01*
X133270598Y-103789409D01*
X133273659Y-103800832D01*
X133320329Y-103881668D01*
X133386332Y-103947671D01*
X133467168Y-103994341D01*
X133509415Y-104005661D01*
X133557323Y-104018499D01*
X133557329Y-104018500D01*
X133650671Y-104018500D01*
X133650676Y-104018499D01*
X133677460Y-104011321D01*
X133740832Y-103994341D01*
X133821668Y-103947671D01*
X133887671Y-103881668D01*
X133934341Y-103800832D01*
X133958056Y-103712329D01*
X133958499Y-103710676D01*
X133958500Y-103710670D01*
X133958500Y-103617329D01*
X133958499Y-103617323D01*
X133938136Y-103541331D01*
X133934341Y-103527168D01*
X133887671Y-103446332D01*
X133821668Y-103380329D01*
X133740832Y-103333659D01*
X133740829Y-103333658D01*
X133650676Y-103309500D01*
X133650671Y-103309500D01*
X133557329Y-103309500D01*
X133557323Y-103309500D01*
X133467170Y-103333658D01*
X133467168Y-103333659D01*
X133386331Y-103380329D01*
X133320329Y-103446331D01*
X133273659Y-103527168D01*
X133273658Y-103527170D01*
X133249500Y-103617323D01*
X128296380Y-103617323D01*
X128443120Y-103519274D01*
X128579274Y-103383120D01*
X128686250Y-103223020D01*
X128759936Y-103045126D01*
X128797500Y-102856275D01*
X128797500Y-102823323D01*
X134900500Y-102823323D01*
X134900500Y-102916676D01*
X134924658Y-103006829D01*
X134924659Y-103006832D01*
X134971329Y-103087668D01*
X135037332Y-103153671D01*
X135118168Y-103200341D01*
X135160415Y-103211661D01*
X135208323Y-103224499D01*
X135208329Y-103224500D01*
X135301671Y-103224500D01*
X135301676Y-103224499D01*
X135328460Y-103217321D01*
X135391832Y-103200341D01*
X135472668Y-103153671D01*
X135538671Y-103087668D01*
X135585341Y-103006832D01*
X135609500Y-102916671D01*
X135609500Y-102823329D01*
X135609499Y-102823323D01*
X135590610Y-102752832D01*
X135585341Y-102733168D01*
X135538671Y-102652332D01*
X135472668Y-102586329D01*
X135391832Y-102539659D01*
X135391829Y-102539658D01*
X135301676Y-102515500D01*
X135301671Y-102515500D01*
X135208329Y-102515500D01*
X135208323Y-102515500D01*
X135118170Y-102539658D01*
X135118168Y-102539659D01*
X135037331Y-102586329D01*
X134971329Y-102652331D01*
X134924659Y-102733168D01*
X134924658Y-102733170D01*
X134900500Y-102823323D01*
X128797500Y-102823323D01*
X128797500Y-102663725D01*
X128759936Y-102474874D01*
X128759934Y-102474869D01*
X128759933Y-102474865D01*
X128698133Y-102325668D01*
X128686250Y-102296980D01*
X128579274Y-102136880D01*
X128443120Y-102000726D01*
X128407229Y-101976744D01*
X128283022Y-101893751D01*
X128283020Y-101893750D01*
X128105134Y-101820066D01*
X128105126Y-101820064D01*
X127916275Y-101782500D01*
X127723725Y-101782500D01*
X127534873Y-101820064D01*
X127534865Y-101820066D01*
X127356979Y-101893750D01*
X127356977Y-101893751D01*
X127196880Y-102000725D01*
X127060725Y-102136880D01*
X126953751Y-102296977D01*
X126953750Y-102296979D01*
X126880066Y-102474865D01*
X126880064Y-102474873D01*
X126842500Y-102663724D01*
X126300500Y-102663724D01*
X126300500Y-100123724D01*
X126842500Y-100123724D01*
X126842500Y-100316275D01*
X126880064Y-100505126D01*
X126880066Y-100505134D01*
X126953750Y-100683020D01*
X126953751Y-100683022D01*
X127060725Y-100843119D01*
X127060726Y-100843120D01*
X127196880Y-100979274D01*
X127356980Y-101086250D01*
X127434839Y-101118500D01*
X127534865Y-101159933D01*
X127534869Y-101159934D01*
X127534874Y-101159936D01*
X127723725Y-101197500D01*
X127916275Y-101197500D01*
X128105126Y-101159936D01*
X128105132Y-101159933D01*
X128105134Y-101159933D01*
X128147611Y-101142337D01*
X128283020Y-101086250D01*
X128443120Y-100979274D01*
X128579274Y-100843120D01*
X128613884Y-100791323D01*
X134646500Y-100791323D01*
X134646500Y-100884676D01*
X134670658Y-100974829D01*
X134670659Y-100974832D01*
X134717329Y-101055668D01*
X134783332Y-101121671D01*
X134864168Y-101168341D01*
X134906415Y-101179661D01*
X134954323Y-101192499D01*
X134954329Y-101192500D01*
X135047671Y-101192500D01*
X135047676Y-101192499D01*
X135074460Y-101185321D01*
X135137832Y-101168341D01*
X135218668Y-101121671D01*
X135284671Y-101055668D01*
X135331341Y-100974832D01*
X135348321Y-100911460D01*
X135355499Y-100884676D01*
X135355500Y-100884670D01*
X135355500Y-100791329D01*
X135355499Y-100791323D01*
X135337416Y-100723840D01*
X135331341Y-100701168D01*
X135284671Y-100620332D01*
X135218668Y-100554329D01*
X135137832Y-100507659D01*
X135137829Y-100507658D01*
X135047676Y-100483500D01*
X135047671Y-100483500D01*
X134954329Y-100483500D01*
X134954323Y-100483500D01*
X134864170Y-100507658D01*
X134864168Y-100507659D01*
X134783331Y-100554329D01*
X134717329Y-100620331D01*
X134670659Y-100701168D01*
X134670658Y-100701170D01*
X134646500Y-100791323D01*
X128613884Y-100791323D01*
X128686250Y-100683020D01*
X128758887Y-100507659D01*
X128759933Y-100505134D01*
X128759933Y-100505132D01*
X128759936Y-100505126D01*
X128791424Y-100346823D01*
X133186000Y-100346823D01*
X133186000Y-100440176D01*
X133210158Y-100530329D01*
X133210159Y-100530332D01*
X133256829Y-100611168D01*
X133322832Y-100677171D01*
X133403668Y-100723841D01*
X133445915Y-100735161D01*
X133493823Y-100747999D01*
X133493829Y-100748000D01*
X133587171Y-100748000D01*
X133587176Y-100747999D01*
X133666058Y-100726862D01*
X133667155Y-100726567D01*
X133677332Y-100723841D01*
X133758168Y-100677171D01*
X133824171Y-100611168D01*
X133870841Y-100530332D01*
X133895000Y-100440171D01*
X133895000Y-100346829D01*
X133894999Y-100346823D01*
X133876916Y-100279340D01*
X133870841Y-100256668D01*
X133824171Y-100175832D01*
X133758168Y-100109829D01*
X133677332Y-100063159D01*
X133677329Y-100063158D01*
X133587176Y-100039000D01*
X133587171Y-100039000D01*
X133493829Y-100039000D01*
X133493823Y-100039000D01*
X133403670Y-100063158D01*
X133403668Y-100063159D01*
X133322831Y-100109829D01*
X133256829Y-100175831D01*
X133210159Y-100256668D01*
X133210158Y-100256670D01*
X133186000Y-100346823D01*
X128791424Y-100346823D01*
X128797500Y-100316275D01*
X128797500Y-100123725D01*
X128759936Y-99934874D01*
X128759934Y-99934869D01*
X128759933Y-99934865D01*
X128709110Y-99812170D01*
X128686250Y-99756980D01*
X128579274Y-99596880D01*
X128443120Y-99460726D01*
X128428313Y-99450832D01*
X128283022Y-99353751D01*
X128283020Y-99353750D01*
X128105134Y-99280066D01*
X128105126Y-99280064D01*
X127916275Y-99242500D01*
X127723725Y-99242500D01*
X127534873Y-99280064D01*
X127534865Y-99280066D01*
X127356979Y-99353750D01*
X127356977Y-99353751D01*
X127196880Y-99460725D01*
X127060725Y-99596880D01*
X126953751Y-99756977D01*
X126953750Y-99756979D01*
X126880066Y-99934865D01*
X126880064Y-99934873D01*
X126842500Y-100123724D01*
X126300500Y-100123724D01*
X126300500Y-98403323D01*
X126955500Y-98403323D01*
X126955500Y-98496676D01*
X126970227Y-98551633D01*
X126979659Y-98586832D01*
X127026329Y-98667668D01*
X127092332Y-98733671D01*
X127173168Y-98780341D01*
X127215415Y-98791661D01*
X127263323Y-98804499D01*
X127263329Y-98804500D01*
X127356671Y-98804500D01*
X127356676Y-98804499D01*
X127383460Y-98797321D01*
X127446832Y-98780341D01*
X127527668Y-98733671D01*
X127593671Y-98667668D01*
X127640341Y-98586832D01*
X127664500Y-98496671D01*
X127664500Y-98403329D01*
X127664499Y-98403323D01*
X127647040Y-98338168D01*
X127640341Y-98313168D01*
X127593671Y-98232332D01*
X127527668Y-98166329D01*
X127446832Y-98119659D01*
X127446829Y-98119658D01*
X127356676Y-98095500D01*
X127356671Y-98095500D01*
X127263329Y-98095500D01*
X127263323Y-98095500D01*
X127173170Y-98119658D01*
X127173168Y-98119659D01*
X127092331Y-98166329D01*
X127026329Y-98232331D01*
X126979659Y-98313168D01*
X126979658Y-98313170D01*
X126955500Y-98403323D01*
X126300500Y-98403323D01*
X126300500Y-96593720D01*
X128692500Y-96593720D01*
X128692500Y-96706279D01*
X128692501Y-96706287D01*
X128721632Y-96815008D01*
X128721633Y-96815011D01*
X128777914Y-96912490D01*
X128777919Y-96912496D01*
X128857503Y-96992080D01*
X128857509Y-96992085D01*
X128954988Y-97048366D01*
X128954991Y-97048367D01*
X129063719Y-97077500D01*
X129063720Y-97077500D01*
X129176280Y-97077500D01*
X129176281Y-97077500D01*
X129285009Y-97048367D01*
X129382491Y-96992085D01*
X129462085Y-96912491D01*
X129518367Y-96815009D01*
X129547500Y-96706281D01*
X129547500Y-96600323D01*
X133122500Y-96600323D01*
X133122500Y-96693676D01*
X133146658Y-96783829D01*
X133146659Y-96783832D01*
X133193329Y-96864668D01*
X133259332Y-96930671D01*
X133340168Y-96977341D01*
X133382415Y-96988661D01*
X133430323Y-97001499D01*
X133430329Y-97001500D01*
X133523671Y-97001500D01*
X133523676Y-97001499D01*
X133550460Y-96994321D01*
X133613832Y-96977341D01*
X133694668Y-96930671D01*
X133760671Y-96864668D01*
X133807341Y-96783832D01*
X133824892Y-96718331D01*
X133831499Y-96693676D01*
X133831500Y-96693670D01*
X133831500Y-96600329D01*
X133831499Y-96600323D01*
X133816540Y-96544500D01*
X133807341Y-96510168D01*
X133760671Y-96429332D01*
X133694668Y-96363329D01*
X133613832Y-96316659D01*
X133613829Y-96316658D01*
X133523676Y-96292500D01*
X133523671Y-96292500D01*
X133430329Y-96292500D01*
X133430323Y-96292500D01*
X133340170Y-96316658D01*
X133340168Y-96316659D01*
X133259331Y-96363329D01*
X133193329Y-96429331D01*
X133146659Y-96510168D01*
X133146658Y-96510170D01*
X133122500Y-96600323D01*
X129547500Y-96600323D01*
X129547500Y-96593719D01*
X129518367Y-96484991D01*
X129518366Y-96484988D01*
X129462085Y-96387509D01*
X129462080Y-96387503D01*
X129382496Y-96307919D01*
X129382490Y-96307914D01*
X129285011Y-96251633D01*
X129285008Y-96251632D01*
X129176287Y-96222501D01*
X129176282Y-96222500D01*
X129176281Y-96222500D01*
X129063719Y-96222500D01*
X129063718Y-96222500D01*
X129063712Y-96222501D01*
X128954991Y-96251632D01*
X128954988Y-96251633D01*
X128857509Y-96307914D01*
X128857503Y-96307919D01*
X128777919Y-96387503D01*
X128777914Y-96387509D01*
X128721633Y-96484988D01*
X128721632Y-96484991D01*
X128692501Y-96593712D01*
X128692500Y-96593720D01*
X126300500Y-96593720D01*
X126300500Y-96092323D01*
X134519500Y-96092323D01*
X134519500Y-96185676D01*
X134543658Y-96275829D01*
X134543659Y-96275832D01*
X134590329Y-96356668D01*
X134656332Y-96422671D01*
X134737168Y-96469341D01*
X134779415Y-96480661D01*
X134827323Y-96493499D01*
X134827329Y-96493500D01*
X134920671Y-96493500D01*
X134920676Y-96493499D01*
X134952426Y-96484991D01*
X135010832Y-96469341D01*
X135091668Y-96422671D01*
X135157671Y-96356668D01*
X135204341Y-96275832D01*
X135228500Y-96185671D01*
X135228500Y-96092329D01*
X135228499Y-96092323D01*
X135209610Y-96021832D01*
X135204341Y-96002168D01*
X135157671Y-95921332D01*
X135091668Y-95855329D01*
X135010832Y-95808659D01*
X135010829Y-95808658D01*
X134920676Y-95784500D01*
X134920671Y-95784500D01*
X134827329Y-95784500D01*
X134827323Y-95784500D01*
X134737170Y-95808658D01*
X134737168Y-95808659D01*
X134656331Y-95855329D01*
X134590329Y-95921331D01*
X134543659Y-96002168D01*
X134543658Y-96002170D01*
X134519500Y-96092323D01*
X126300500Y-96092323D01*
X126300500Y-94983323D01*
X128135500Y-94983323D01*
X128135500Y-95076676D01*
X128157649Y-95159331D01*
X128159659Y-95166832D01*
X128206329Y-95247668D01*
X128272332Y-95313671D01*
X128353168Y-95360341D01*
X128395415Y-95371661D01*
X128443323Y-95384499D01*
X128443329Y-95384500D01*
X128536671Y-95384500D01*
X128536676Y-95384499D01*
X128563460Y-95377321D01*
X128626832Y-95360341D01*
X128678825Y-95330323D01*
X132995500Y-95330323D01*
X132995500Y-95423676D01*
X133012469Y-95487000D01*
X133019659Y-95513832D01*
X133066329Y-95594668D01*
X133132332Y-95660671D01*
X133213168Y-95707341D01*
X133255415Y-95718661D01*
X133303323Y-95731499D01*
X133303329Y-95731500D01*
X133396671Y-95731500D01*
X133396676Y-95731499D01*
X133423460Y-95724321D01*
X133486832Y-95707341D01*
X133567668Y-95660671D01*
X133633671Y-95594668D01*
X133680341Y-95513832D01*
X133699373Y-95442806D01*
X133704499Y-95423676D01*
X133704500Y-95423670D01*
X133704500Y-95330329D01*
X133704499Y-95330323D01*
X133691560Y-95282038D01*
X133680341Y-95240168D01*
X133633671Y-95159332D01*
X133567668Y-95093329D01*
X133486832Y-95046659D01*
X133486829Y-95046658D01*
X133396676Y-95022500D01*
X133396671Y-95022500D01*
X133303329Y-95022500D01*
X133303323Y-95022500D01*
X133213170Y-95046658D01*
X133213168Y-95046659D01*
X133132331Y-95093329D01*
X133066329Y-95159331D01*
X133019659Y-95240168D01*
X133019658Y-95240170D01*
X132995500Y-95330323D01*
X128678825Y-95330323D01*
X128707668Y-95313671D01*
X128773671Y-95247668D01*
X128820341Y-95166832D01*
X128839187Y-95096500D01*
X128844499Y-95076676D01*
X128844500Y-95076670D01*
X128844500Y-94983329D01*
X128844499Y-94983323D01*
X128824047Y-94907000D01*
X128820341Y-94893168D01*
X128773671Y-94812332D01*
X128707668Y-94746329D01*
X128626832Y-94699659D01*
X128626829Y-94699658D01*
X128536676Y-94675500D01*
X128536671Y-94675500D01*
X128443329Y-94675500D01*
X128443323Y-94675500D01*
X128353170Y-94699658D01*
X128353168Y-94699659D01*
X128272331Y-94746329D01*
X128206329Y-94812331D01*
X128159659Y-94893168D01*
X128159658Y-94893170D01*
X128135500Y-94983323D01*
X126300500Y-94983323D01*
X126300500Y-94060323D01*
X132995500Y-94060323D01*
X132995500Y-94153676D01*
X133019658Y-94243829D01*
X133019659Y-94243832D01*
X133066329Y-94324668D01*
X133132332Y-94390671D01*
X133213168Y-94437341D01*
X133255415Y-94448661D01*
X133303323Y-94461499D01*
X133303329Y-94461500D01*
X133396671Y-94461500D01*
X133396676Y-94461499D01*
X133423460Y-94454321D01*
X133486832Y-94437341D01*
X133567668Y-94390671D01*
X133633671Y-94324668D01*
X133680341Y-94243832D01*
X133704500Y-94153671D01*
X133704500Y-94060329D01*
X133704499Y-94060323D01*
X133691661Y-94012415D01*
X133680341Y-93970168D01*
X133633671Y-93889332D01*
X133567668Y-93823329D01*
X133486832Y-93776659D01*
X133486829Y-93776658D01*
X133396676Y-93752500D01*
X133396671Y-93752500D01*
X133303329Y-93752500D01*
X133303323Y-93752500D01*
X133213170Y-93776658D01*
X133213168Y-93776659D01*
X133132331Y-93823329D01*
X133066329Y-93889331D01*
X133019659Y-93970168D01*
X133019658Y-93970170D01*
X132995500Y-94060323D01*
X126300500Y-94060323D01*
X126300500Y-92470296D01*
X130172500Y-92470296D01*
X130172500Y-92569703D01*
X130198225Y-92665706D01*
X130198225Y-92665708D01*
X130247926Y-92751791D01*
X130247929Y-92751795D01*
X130318204Y-92822070D01*
X130318208Y-92822073D01*
X130318210Y-92822075D01*
X130404291Y-92871774D01*
X130446622Y-92883116D01*
X130500296Y-92897499D01*
X130500299Y-92897499D01*
X130500301Y-92897500D01*
X130500302Y-92897500D01*
X132065698Y-92897500D01*
X132065699Y-92897500D01*
X132161710Y-92871774D01*
X132247790Y-92822075D01*
X133779075Y-91290790D01*
X133828774Y-91204710D01*
X133854500Y-91108699D01*
X133854500Y-91009301D01*
X133854500Y-90885323D01*
X134900500Y-90885323D01*
X134900500Y-90978676D01*
X134919390Y-91049168D01*
X134924659Y-91068832D01*
X134971329Y-91149668D01*
X135037332Y-91215671D01*
X135118168Y-91262341D01*
X135160415Y-91273661D01*
X135208323Y-91286499D01*
X135208329Y-91286500D01*
X135301671Y-91286500D01*
X135301676Y-91286499D01*
X135328460Y-91279321D01*
X135391832Y-91262341D01*
X135472668Y-91215671D01*
X135538671Y-91149668D01*
X135585341Y-91068832D01*
X135609500Y-90978671D01*
X135609500Y-90885329D01*
X135609499Y-90885323D01*
X135590610Y-90814832D01*
X135585341Y-90795168D01*
X135538671Y-90714332D01*
X135472668Y-90648329D01*
X135391832Y-90601659D01*
X135391829Y-90601658D01*
X135301676Y-90577500D01*
X135301671Y-90577500D01*
X135208329Y-90577500D01*
X135208323Y-90577500D01*
X135118170Y-90601658D01*
X135118168Y-90601659D01*
X135037331Y-90648329D01*
X134971329Y-90714331D01*
X134924659Y-90795168D01*
X134924658Y-90795170D01*
X134900500Y-90885323D01*
X133854500Y-90885323D01*
X133854500Y-89234323D01*
X134900500Y-89234323D01*
X134900500Y-89327676D01*
X134924658Y-89417829D01*
X134924659Y-89417832D01*
X134971329Y-89498668D01*
X135037332Y-89564671D01*
X135118168Y-89611341D01*
X135160415Y-89622661D01*
X135208323Y-89635499D01*
X135208329Y-89635500D01*
X135301671Y-89635500D01*
X135301676Y-89635499D01*
X135328460Y-89628321D01*
X135391832Y-89611341D01*
X135472668Y-89564671D01*
X135538671Y-89498668D01*
X135585341Y-89417832D01*
X135602321Y-89354460D01*
X135609499Y-89327676D01*
X135609500Y-89327670D01*
X135609500Y-89234329D01*
X135609499Y-89234323D01*
X135596661Y-89186415D01*
X135585341Y-89144168D01*
X135538671Y-89063332D01*
X135472668Y-88997329D01*
X135391832Y-88950659D01*
X135391829Y-88950658D01*
X135301676Y-88926500D01*
X135301671Y-88926500D01*
X135208329Y-88926500D01*
X135208323Y-88926500D01*
X135118170Y-88950658D01*
X135118168Y-88950659D01*
X135037331Y-88997329D01*
X134971329Y-89063331D01*
X134924659Y-89144168D01*
X134924658Y-89144170D01*
X134900500Y-89234323D01*
X133854500Y-89234323D01*
X133854500Y-85653253D01*
X133872806Y-85609059D01*
X142118559Y-77363306D01*
X142162753Y-77345000D01*
X142273378Y-77345000D01*
X142317572Y-77363306D01*
X142335878Y-77407500D01*
X142317572Y-77451694D01*
X136523132Y-83246135D01*
X136459136Y-83310130D01*
X136459132Y-83310135D01*
X136424500Y-83393744D01*
X136424500Y-99232255D01*
X136459132Y-99315864D01*
X136459136Y-99315869D01*
X140480013Y-103336746D01*
X140498319Y-103380940D01*
X140480013Y-103425134D01*
X140467069Y-103435067D01*
X140397331Y-103475329D01*
X140331329Y-103541331D01*
X140284659Y-103622168D01*
X140284658Y-103622170D01*
X140260500Y-103712323D01*
X140260500Y-103805676D01*
X140284164Y-103893986D01*
X140284659Y-103895832D01*
X140331329Y-103976668D01*
X140397332Y-104042671D01*
X140478168Y-104089341D01*
X140520415Y-104100661D01*
X140568323Y-104113499D01*
X140568329Y-104113500D01*
X140661671Y-104113500D01*
X140661676Y-104113499D01*
X140688460Y-104106321D01*
X140751832Y-104089341D01*
X140832668Y-104042671D01*
X140898671Y-103976668D01*
X140938933Y-103906929D01*
X140976882Y-103877810D01*
X141024308Y-103884053D01*
X141037253Y-103893986D01*
X143571135Y-106427868D01*
X143635132Y-106491865D01*
X143635133Y-106491865D01*
X143635135Y-106491867D01*
X143718744Y-106526499D01*
X143718747Y-106526500D01*
X146691879Y-106526500D01*
X146736073Y-106544806D01*
X149614194Y-109422927D01*
X149632500Y-109467121D01*
X149632500Y-109520676D01*
X149656220Y-109609194D01*
X149656659Y-109610832D01*
X149703329Y-109691668D01*
X149769332Y-109757671D01*
X149850168Y-109804341D01*
X149892415Y-109815661D01*
X149940323Y-109828499D01*
X149940329Y-109828500D01*
X150033671Y-109828500D01*
X150033676Y-109828499D01*
X150060460Y-109821321D01*
X150123832Y-109804341D01*
X150204668Y-109757671D01*
X150270671Y-109691668D01*
X150317341Y-109610832D01*
X150341470Y-109520784D01*
X150370590Y-109482834D01*
X150418017Y-109476591D01*
X150446032Y-109492765D01*
X150644935Y-109691668D01*
X150884194Y-109930927D01*
X150902500Y-109975121D01*
X150902500Y-110028676D01*
X150920239Y-110094873D01*
X150926659Y-110118832D01*
X150973329Y-110199668D01*
X151039332Y-110265671D01*
X151120168Y-110312341D01*
X151142548Y-110318337D01*
X151147370Y-110319630D01*
X151185320Y-110348750D01*
X151191563Y-110396177D01*
X151162443Y-110434127D01*
X151131193Y-110442500D01*
X147596281Y-110442500D01*
X147483719Y-110442500D01*
X147483718Y-110442500D01*
X147483712Y-110442501D01*
X147374991Y-110471632D01*
X147374988Y-110471633D01*
X147277509Y-110527914D01*
X147277503Y-110527919D01*
X146512155Y-111293269D01*
X146432565Y-111372858D01*
X146432560Y-111372863D01*
X146376279Y-111470342D01*
X146376278Y-111470345D01*
X146347147Y-111579066D01*
X146347146Y-111579074D01*
X146347146Y-113038325D01*
X146328840Y-113082519D01*
X146284646Y-113100825D01*
X143449290Y-113100825D01*
X143405096Y-113082519D01*
X140405806Y-110083229D01*
X140387500Y-110039035D01*
X140387500Y-108633323D01*
X147485500Y-108633323D01*
X147485500Y-108726676D01*
X147509658Y-108816829D01*
X147509659Y-108816832D01*
X147556329Y-108897668D01*
X147622332Y-108963671D01*
X147703168Y-109010341D01*
X147745415Y-109021661D01*
X147793323Y-109034499D01*
X147793329Y-109034500D01*
X147886671Y-109034500D01*
X147886676Y-109034499D01*
X147913460Y-109027321D01*
X147976832Y-109010341D01*
X148057668Y-108963671D01*
X148123671Y-108897668D01*
X148170341Y-108816832D01*
X148194500Y-108726671D01*
X148194500Y-108633329D01*
X148194499Y-108633323D01*
X148181661Y-108585415D01*
X148170341Y-108543168D01*
X148123671Y-108462332D01*
X148057668Y-108396329D01*
X147976832Y-108349659D01*
X147976829Y-108349658D01*
X147886676Y-108325500D01*
X147886671Y-108325500D01*
X147793329Y-108325500D01*
X147793323Y-108325500D01*
X147703170Y-108349658D01*
X147703168Y-108349659D01*
X147622331Y-108396329D01*
X147556329Y-108462331D01*
X147509659Y-108543168D01*
X147509658Y-108543170D01*
X147485500Y-108633323D01*
X140387500Y-108633323D01*
X140387500Y-108030323D01*
X141123500Y-108030323D01*
X141123500Y-108123676D01*
X141147658Y-108213829D01*
X141147659Y-108213832D01*
X141194329Y-108294668D01*
X141260332Y-108360671D01*
X141341168Y-108407341D01*
X141383415Y-108418661D01*
X141431323Y-108431499D01*
X141431329Y-108431500D01*
X141524671Y-108431500D01*
X141524676Y-108431499D01*
X141551460Y-108424321D01*
X141614832Y-108407341D01*
X141695668Y-108360671D01*
X141761671Y-108294668D01*
X141808341Y-108213832D01*
X141832500Y-108123671D01*
X141832500Y-108030329D01*
X141832499Y-108030323D01*
X141818500Y-107978081D01*
X141808341Y-107940168D01*
X141761671Y-107859332D01*
X141695668Y-107793329D01*
X141614832Y-107746659D01*
X141614829Y-107746658D01*
X141524676Y-107722500D01*
X141524671Y-107722500D01*
X141431329Y-107722500D01*
X141431323Y-107722500D01*
X141341170Y-107746658D01*
X141341168Y-107746659D01*
X141260331Y-107793329D01*
X141194329Y-107859331D01*
X141147659Y-107940168D01*
X141147658Y-107940170D01*
X141123500Y-108030323D01*
X140387500Y-108030323D01*
X140387500Y-107014323D01*
X143663500Y-107014323D01*
X143663500Y-107107676D01*
X143687658Y-107197829D01*
X143687659Y-107197832D01*
X143734329Y-107278668D01*
X143800332Y-107344671D01*
X143881168Y-107391341D01*
X143923415Y-107402661D01*
X143971323Y-107415499D01*
X143971329Y-107415500D01*
X144064671Y-107415500D01*
X144064676Y-107415499D01*
X144091460Y-107408321D01*
X144154832Y-107391341D01*
X144235668Y-107344671D01*
X144301671Y-107278668D01*
X144348341Y-107197832D01*
X144372500Y-107107671D01*
X144372500Y-107014329D01*
X144372499Y-107014323D01*
X144359661Y-106966415D01*
X144348341Y-106924168D01*
X144301671Y-106843332D01*
X144235668Y-106777329D01*
X144154832Y-106730659D01*
X144154829Y-106730658D01*
X144064676Y-106706500D01*
X144064671Y-106706500D01*
X143971329Y-106706500D01*
X143971323Y-106706500D01*
X143881170Y-106730658D01*
X143881168Y-106730659D01*
X143800331Y-106777329D01*
X143734329Y-106843331D01*
X143687659Y-106924168D01*
X143687658Y-106924170D01*
X143663500Y-107014323D01*
X140387500Y-107014323D01*
X140387500Y-105232719D01*
X140380517Y-105206659D01*
X140380517Y-105206658D01*
X140380517Y-105206657D01*
X140358368Y-105123994D01*
X140358367Y-105123991D01*
X140355871Y-105119668D01*
X140302085Y-105026508D01*
X140302083Y-105026506D01*
X140302080Y-105026502D01*
X137041496Y-101765919D01*
X137041490Y-101765914D01*
X136944011Y-101709633D01*
X136944008Y-101709632D01*
X136835287Y-101680501D01*
X136835282Y-101680500D01*
X136835281Y-101680500D01*
X136722719Y-101680500D01*
X136722718Y-101680500D01*
X136722712Y-101680501D01*
X136613991Y-101709632D01*
X136613988Y-101709633D01*
X136516509Y-101765914D01*
X136516503Y-101765919D01*
X136436919Y-101845503D01*
X136436914Y-101845509D01*
X136380633Y-101942988D01*
X136380632Y-101942991D01*
X136351501Y-102051712D01*
X136351500Y-102051720D01*
X136351500Y-102164279D01*
X136351501Y-102164287D01*
X136380632Y-102273008D01*
X136380633Y-102273011D01*
X136436914Y-102370490D01*
X136436919Y-102370496D01*
X139514194Y-105447770D01*
X139532500Y-105491964D01*
X139532500Y-107765273D01*
X139514194Y-107809467D01*
X139470000Y-107827773D01*
X139425806Y-107809467D01*
X139409668Y-107793329D01*
X139328832Y-107746659D01*
X139328829Y-107746658D01*
X139238676Y-107722500D01*
X139238671Y-107722500D01*
X139145329Y-107722500D01*
X139145323Y-107722500D01*
X139055170Y-107746658D01*
X139055168Y-107746659D01*
X138974331Y-107793329D01*
X138908329Y-107859331D01*
X138861659Y-107940168D01*
X138861658Y-107940170D01*
X138837500Y-108030323D01*
X138837500Y-108123676D01*
X138861658Y-108213829D01*
X138861659Y-108213832D01*
X138908329Y-108294668D01*
X138974332Y-108360671D01*
X139055168Y-108407341D01*
X139097415Y-108418661D01*
X139145323Y-108431499D01*
X139145329Y-108431500D01*
X139238671Y-108431500D01*
X139238676Y-108431499D01*
X139265460Y-108424321D01*
X139328832Y-108407341D01*
X139409668Y-108360671D01*
X139425806Y-108344533D01*
X139470000Y-108326227D01*
X139514194Y-108344533D01*
X139532500Y-108388727D01*
X139532500Y-110298279D01*
X139532501Y-110298287D01*
X139561632Y-110407008D01*
X139561633Y-110407011D01*
X139617914Y-110504490D01*
X139617919Y-110504496D01*
X142983827Y-113870405D01*
X142983831Y-113870408D01*
X142983833Y-113870410D01*
X143060197Y-113914499D01*
X143081316Y-113926692D01*
X143081319Y-113926693D01*
X143147851Y-113944519D01*
X143190043Y-113955825D01*
X143190044Y-113955825D01*
X146830926Y-113955825D01*
X146830927Y-113955825D01*
X146939655Y-113926692D01*
X147037137Y-113870410D01*
X147116731Y-113790816D01*
X147166904Y-113703915D01*
X147173012Y-113693336D01*
X147173013Y-113693333D01*
X147187705Y-113638500D01*
X147202146Y-113584606D01*
X147202146Y-113573323D01*
X148615500Y-113573323D01*
X148615500Y-113666676D01*
X148639658Y-113756829D01*
X148639659Y-113756832D01*
X148686329Y-113837668D01*
X148752332Y-113903671D01*
X148833168Y-113950341D01*
X148875415Y-113961661D01*
X148923323Y-113974499D01*
X148923329Y-113974500D01*
X149016671Y-113974500D01*
X149016676Y-113974499D01*
X149043460Y-113967321D01*
X149106832Y-113950341D01*
X149187668Y-113903671D01*
X149253671Y-113837668D01*
X149300341Y-113756832D01*
X149324500Y-113666671D01*
X149324500Y-113573329D01*
X149324499Y-113573323D01*
X149311660Y-113525409D01*
X149308421Y-113513323D01*
X152235500Y-113513323D01*
X152235500Y-113606676D01*
X152258722Y-113693336D01*
X152259659Y-113696832D01*
X152306329Y-113777668D01*
X152372332Y-113843671D01*
X152453168Y-113890341D01*
X152495415Y-113901661D01*
X152543323Y-113914499D01*
X152543329Y-113914500D01*
X152636671Y-113914500D01*
X152636676Y-113914499D01*
X152663460Y-113907321D01*
X152726832Y-113890341D01*
X152807668Y-113843671D01*
X152873671Y-113777668D01*
X152920341Y-113696832D01*
X152944500Y-113606671D01*
X152944500Y-113513329D01*
X152944499Y-113513323D01*
X152931661Y-113465415D01*
X152920341Y-113423168D01*
X152873671Y-113342332D01*
X152807668Y-113276329D01*
X152740107Y-113237323D01*
X161316500Y-113237323D01*
X161316500Y-113330676D01*
X161340658Y-113420829D01*
X161340659Y-113420832D01*
X161387329Y-113501668D01*
X161453332Y-113567671D01*
X161534168Y-113614341D01*
X161576415Y-113625661D01*
X161624323Y-113638499D01*
X161624329Y-113638500D01*
X161717671Y-113638500D01*
X161717676Y-113638499D01*
X161744460Y-113631321D01*
X161807832Y-113614341D01*
X161888668Y-113567671D01*
X161954671Y-113501668D01*
X162001341Y-113420832D01*
X162018321Y-113357460D01*
X162025499Y-113330676D01*
X162025500Y-113330670D01*
X162025500Y-113237329D01*
X162025499Y-113237323D01*
X162012661Y-113189415D01*
X162001341Y-113147168D01*
X161954671Y-113066332D01*
X161888668Y-113000329D01*
X161807832Y-112953659D01*
X161807829Y-112953658D01*
X161717676Y-112929500D01*
X161717671Y-112929500D01*
X161624329Y-112929500D01*
X161624323Y-112929500D01*
X161534170Y-112953658D01*
X161534168Y-112953659D01*
X161453331Y-113000329D01*
X161387329Y-113066331D01*
X161340659Y-113147168D01*
X161340658Y-113147170D01*
X161316500Y-113237323D01*
X152740107Y-113237323D01*
X152726832Y-113229659D01*
X152726829Y-113229658D01*
X152636676Y-113205500D01*
X152636671Y-113205500D01*
X152543329Y-113205500D01*
X152543323Y-113205500D01*
X152453170Y-113229658D01*
X152453168Y-113229659D01*
X152372331Y-113276329D01*
X152306329Y-113342331D01*
X152259659Y-113423168D01*
X152259658Y-113423170D01*
X152235500Y-113513323D01*
X149308421Y-113513323D01*
X149305298Y-113501668D01*
X149300341Y-113483168D01*
X149253671Y-113402332D01*
X149187668Y-113336329D01*
X149106832Y-113289659D01*
X149106829Y-113289658D01*
X149016676Y-113265500D01*
X149016671Y-113265500D01*
X148923329Y-113265500D01*
X148923323Y-113265500D01*
X148833170Y-113289658D01*
X148833168Y-113289659D01*
X148752331Y-113336329D01*
X148686329Y-113402331D01*
X148639659Y-113483168D01*
X148639658Y-113483170D01*
X148615500Y-113573323D01*
X147202146Y-113573323D01*
X147202146Y-111838318D01*
X147220452Y-111794124D01*
X147251253Y-111763323D01*
X147785500Y-111763323D01*
X147785500Y-111856676D01*
X147807201Y-111937659D01*
X147809659Y-111946832D01*
X147856329Y-112027668D01*
X147922332Y-112093671D01*
X148003168Y-112140341D01*
X148045415Y-112151661D01*
X148093323Y-112164499D01*
X148093329Y-112164500D01*
X148186671Y-112164500D01*
X148186676Y-112164499D01*
X148213460Y-112157321D01*
X148276832Y-112140341D01*
X148357668Y-112093671D01*
X148423671Y-112027668D01*
X148470341Y-111946832D01*
X148494500Y-111856671D01*
X148494500Y-111763329D01*
X148494499Y-111763323D01*
X148481661Y-111715415D01*
X148470341Y-111673168D01*
X148423671Y-111592332D01*
X148357668Y-111526329D01*
X148276832Y-111479659D01*
X148276829Y-111479658D01*
X148186676Y-111455500D01*
X148186671Y-111455500D01*
X148093329Y-111455500D01*
X148093323Y-111455500D01*
X148003170Y-111479658D01*
X148003168Y-111479659D01*
X147922331Y-111526329D01*
X147856329Y-111592331D01*
X147809659Y-111673168D01*
X147809658Y-111673170D01*
X147785500Y-111763323D01*
X147251253Y-111763323D01*
X147698770Y-111315806D01*
X147742964Y-111297500D01*
X155378280Y-111297500D01*
X155378281Y-111297500D01*
X155487009Y-111268367D01*
X155584491Y-111212085D01*
X155953556Y-110843020D01*
X156480254Y-110316323D01*
X157125500Y-110316323D01*
X157125500Y-110409676D01*
X157149658Y-110499829D01*
X157149659Y-110499832D01*
X157196329Y-110580668D01*
X157262332Y-110646671D01*
X157343168Y-110693341D01*
X157385415Y-110704661D01*
X157433323Y-110717499D01*
X157433329Y-110717500D01*
X157526671Y-110717500D01*
X157526676Y-110717499D01*
X157553460Y-110710321D01*
X157616832Y-110693341D01*
X157697668Y-110646671D01*
X157763671Y-110580668D01*
X157810341Y-110499832D01*
X157834500Y-110409671D01*
X157834500Y-110316329D01*
X157834499Y-110316323D01*
X157820926Y-110265670D01*
X157810341Y-110226168D01*
X157763671Y-110145332D01*
X157697668Y-110079329D01*
X157616832Y-110032659D01*
X157616829Y-110032658D01*
X157526676Y-110008500D01*
X157526671Y-110008500D01*
X157433329Y-110008500D01*
X157433323Y-110008500D01*
X157343170Y-110032658D01*
X157343168Y-110032659D01*
X157262331Y-110079329D01*
X157196329Y-110145331D01*
X157149659Y-110226168D01*
X157149658Y-110226170D01*
X157125500Y-110316323D01*
X156480254Y-110316323D01*
X156528539Y-110268038D01*
X158019771Y-108776806D01*
X158063965Y-108758500D01*
X158312719Y-108758500D01*
X158547036Y-108758500D01*
X158591230Y-108776806D01*
X164019194Y-114204770D01*
X164037500Y-114248964D01*
X164037500Y-119436279D01*
X164037501Y-119436287D01*
X164066632Y-119545008D01*
X164066633Y-119545011D01*
X164122914Y-119642490D01*
X164122919Y-119642496D01*
X164202503Y-119722080D01*
X164202509Y-119722085D01*
X164299988Y-119778366D01*
X164299991Y-119778367D01*
X164408719Y-119807500D01*
X164408720Y-119807500D01*
X164521280Y-119807500D01*
X164521281Y-119807500D01*
X164630009Y-119778367D01*
X164727491Y-119722085D01*
X164807085Y-119642491D01*
X164863367Y-119545009D01*
X164892500Y-119436281D01*
X164892500Y-113989719D01*
X164863367Y-113880991D01*
X164863366Y-113880988D01*
X164807085Y-113783509D01*
X164260770Y-113237194D01*
X164242464Y-113193000D01*
X164260770Y-113148806D01*
X164304964Y-113130500D01*
X164384671Y-113130500D01*
X164384676Y-113130499D01*
X164411460Y-113123321D01*
X164474832Y-113106341D01*
X164555668Y-113059671D01*
X164621671Y-112993668D01*
X164668341Y-112912832D01*
X164692500Y-112822671D01*
X164692500Y-112729329D01*
X164692499Y-112729323D01*
X164679661Y-112681415D01*
X164668341Y-112639168D01*
X164621671Y-112558332D01*
X164555668Y-112492329D01*
X164474832Y-112445659D01*
X164474829Y-112445658D01*
X164384676Y-112421500D01*
X164384671Y-112421500D01*
X164291329Y-112421500D01*
X164291323Y-112421500D01*
X164201170Y-112445658D01*
X164201168Y-112445659D01*
X164120331Y-112492329D01*
X164054329Y-112558331D01*
X164007659Y-112639168D01*
X164007658Y-112639170D01*
X163983500Y-112729323D01*
X163983500Y-112809035D01*
X163965194Y-112853229D01*
X163921000Y-112871535D01*
X163876806Y-112853229D01*
X159012496Y-107988919D01*
X159012490Y-107988914D01*
X158915011Y-107932633D01*
X158915008Y-107932632D01*
X158806287Y-107903501D01*
X158806282Y-107903500D01*
X158806281Y-107903500D01*
X158425281Y-107903500D01*
X157917281Y-107903500D01*
X157804718Y-107903500D01*
X157804717Y-107903500D01*
X157804711Y-107903501D01*
X157695994Y-107932631D01*
X157695991Y-107932632D01*
X157598506Y-107988916D01*
X157598502Y-107988919D01*
X155163230Y-110424194D01*
X155119036Y-110442500D01*
X151382807Y-110442500D01*
X151338613Y-110424194D01*
X151320307Y-110380000D01*
X151338613Y-110335806D01*
X151366630Y-110319630D01*
X151370046Y-110318714D01*
X151393832Y-110312341D01*
X151474668Y-110265671D01*
X151540671Y-110199668D01*
X151587341Y-110118832D01*
X151604321Y-110055460D01*
X151611499Y-110028676D01*
X151611500Y-110028670D01*
X151611500Y-109935329D01*
X151611499Y-109935323D01*
X151598661Y-109887415D01*
X151587341Y-109845168D01*
X151540671Y-109764332D01*
X151474668Y-109698329D01*
X151393832Y-109651659D01*
X151393829Y-109651658D01*
X151303676Y-109627500D01*
X151303671Y-109627500D01*
X151250122Y-109627500D01*
X151205928Y-109609194D01*
X150373540Y-108776806D01*
X149500057Y-107903323D01*
X151283500Y-107903323D01*
X151283500Y-107996676D01*
X151307658Y-108086829D01*
X151307659Y-108086832D01*
X151354329Y-108167668D01*
X151420332Y-108233671D01*
X151501168Y-108280341D01*
X151543415Y-108291661D01*
X151591323Y-108304499D01*
X151591329Y-108304500D01*
X151684671Y-108304500D01*
X151684676Y-108304499D01*
X151711460Y-108297321D01*
X151774832Y-108280341D01*
X151855668Y-108233671D01*
X151921671Y-108167668D01*
X151968341Y-108086832D01*
X151992500Y-107996671D01*
X151992500Y-107903329D01*
X151992499Y-107903323D01*
X151972254Y-107827773D01*
X151968341Y-107813168D01*
X151921671Y-107732332D01*
X151855668Y-107666329D01*
X151774832Y-107619659D01*
X151774829Y-107619658D01*
X151684676Y-107595500D01*
X151684671Y-107595500D01*
X151591329Y-107595500D01*
X151591323Y-107595500D01*
X151501170Y-107619658D01*
X151501168Y-107619659D01*
X151420331Y-107666329D01*
X151354329Y-107732331D01*
X151307659Y-107813168D01*
X151307658Y-107813170D01*
X151283500Y-107903323D01*
X149500057Y-107903323D01*
X148738056Y-107141323D01*
X151791500Y-107141323D01*
X151791500Y-107234676D01*
X151815658Y-107324829D01*
X151815659Y-107324832D01*
X151862329Y-107405668D01*
X151928332Y-107471671D01*
X152009168Y-107518341D01*
X152051415Y-107529661D01*
X152099323Y-107542499D01*
X152099329Y-107542500D01*
X152192671Y-107542500D01*
X152192676Y-107542499D01*
X152219460Y-107535321D01*
X152282832Y-107518341D01*
X152363668Y-107471671D01*
X152429671Y-107405668D01*
X152476341Y-107324832D01*
X152500500Y-107234671D01*
X152500500Y-107141329D01*
X152500499Y-107141323D01*
X152484261Y-107080725D01*
X152476341Y-107051168D01*
X152455069Y-107014323D01*
X157379500Y-107014323D01*
X157379500Y-107107676D01*
X157403658Y-107197829D01*
X157403659Y-107197832D01*
X157450329Y-107278668D01*
X157516332Y-107344671D01*
X157597168Y-107391341D01*
X157639415Y-107402661D01*
X157687323Y-107415499D01*
X157687329Y-107415500D01*
X157780671Y-107415500D01*
X157780676Y-107415499D01*
X157807460Y-107408321D01*
X157870832Y-107391341D01*
X157951668Y-107344671D01*
X158017671Y-107278668D01*
X158064341Y-107197832D01*
X158088500Y-107107671D01*
X158088500Y-107014329D01*
X158088499Y-107014323D01*
X158075661Y-106966415D01*
X158064341Y-106924168D01*
X158017671Y-106843332D01*
X157951668Y-106777329D01*
X157870832Y-106730659D01*
X157870829Y-106730658D01*
X157780676Y-106706500D01*
X157780671Y-106706500D01*
X157687329Y-106706500D01*
X157687323Y-106706500D01*
X157597170Y-106730658D01*
X157597168Y-106730659D01*
X157516331Y-106777329D01*
X157450329Y-106843331D01*
X157403659Y-106924168D01*
X157403658Y-106924170D01*
X157379500Y-107014323D01*
X152455069Y-107014323D01*
X152429671Y-106970332D01*
X152363668Y-106904329D01*
X152282832Y-106857659D01*
X152282829Y-106857658D01*
X152192676Y-106833500D01*
X152192671Y-106833500D01*
X152099329Y-106833500D01*
X152099323Y-106833500D01*
X152009170Y-106857658D01*
X152009168Y-106857659D01*
X151928331Y-106904329D01*
X151862329Y-106970331D01*
X151815659Y-107051168D01*
X151815658Y-107051170D01*
X151791500Y-107141323D01*
X148738056Y-107141323D01*
X148103056Y-106506323D01*
X150521500Y-106506323D01*
X150521500Y-106599676D01*
X150545658Y-106689829D01*
X150545659Y-106689832D01*
X150592329Y-106770668D01*
X150658332Y-106836671D01*
X150739168Y-106883341D01*
X150781415Y-106894661D01*
X150829323Y-106907499D01*
X150829329Y-106907500D01*
X150922671Y-106907500D01*
X150922676Y-106907499D01*
X150950422Y-106900064D01*
X151012832Y-106883341D01*
X151093668Y-106836671D01*
X151159671Y-106770668D01*
X151206341Y-106689832D01*
X151230500Y-106599671D01*
X151230500Y-106506329D01*
X151230499Y-106506323D01*
X151209476Y-106427868D01*
X151206341Y-106416168D01*
X151159671Y-106335332D01*
X151093668Y-106269329D01*
X151012832Y-106222659D01*
X151012829Y-106222658D01*
X150922676Y-106198500D01*
X150922671Y-106198500D01*
X150829329Y-106198500D01*
X150829323Y-106198500D01*
X150739170Y-106222658D01*
X150739168Y-106222659D01*
X150658331Y-106269329D01*
X150592329Y-106335331D01*
X150545659Y-106416168D01*
X150545658Y-106416170D01*
X150521500Y-106506323D01*
X148103056Y-106506323D01*
X147321868Y-105725135D01*
X147321867Y-105725134D01*
X147321864Y-105725132D01*
X147238255Y-105690500D01*
X147238253Y-105690500D01*
X144055800Y-105690500D01*
X144011606Y-105672194D01*
X141924735Y-103585323D01*
X143536500Y-103585323D01*
X143536500Y-103678676D01*
X143552263Y-103737499D01*
X143560659Y-103768832D01*
X143607329Y-103849668D01*
X143673332Y-103915671D01*
X143754168Y-103962341D01*
X143796415Y-103973661D01*
X143844323Y-103986499D01*
X143844329Y-103986500D01*
X143937671Y-103986500D01*
X143937676Y-103986499D01*
X143964460Y-103979321D01*
X144027832Y-103962341D01*
X144108668Y-103915671D01*
X144174671Y-103849668D01*
X144221341Y-103768832D01*
X144245500Y-103678671D01*
X144245500Y-103585329D01*
X144245499Y-103585323D01*
X144229916Y-103527170D01*
X144221341Y-103495168D01*
X144174671Y-103414332D01*
X144108668Y-103348329D01*
X144027832Y-103301659D01*
X144027829Y-103301658D01*
X143937676Y-103277500D01*
X143937671Y-103277500D01*
X143844329Y-103277500D01*
X143844323Y-103277500D01*
X143754170Y-103301658D01*
X143754168Y-103301659D01*
X143673331Y-103348329D01*
X143607329Y-103414331D01*
X143560659Y-103495168D01*
X143560658Y-103495170D01*
X143536500Y-103585323D01*
X141924735Y-103585323D01*
X139892735Y-101553323D01*
X140845500Y-101553323D01*
X140845500Y-101646676D01*
X140869658Y-101736829D01*
X140869659Y-101736832D01*
X140916329Y-101817668D01*
X140982332Y-101883671D01*
X141063168Y-101930341D01*
X141105415Y-101941661D01*
X141153323Y-101954499D01*
X141153329Y-101954500D01*
X141246671Y-101954500D01*
X141246676Y-101954499D01*
X141289622Y-101942991D01*
X141336832Y-101930341D01*
X141417668Y-101883671D01*
X141483671Y-101817668D01*
X141530341Y-101736832D01*
X141554500Y-101646671D01*
X141554500Y-101553329D01*
X141554499Y-101553323D01*
X141541661Y-101505415D01*
X141530341Y-101463168D01*
X141483671Y-101382332D01*
X141417668Y-101316329D01*
X141336832Y-101269659D01*
X141336829Y-101269658D01*
X141246676Y-101245500D01*
X141246671Y-101245500D01*
X141153329Y-101245500D01*
X141153323Y-101245500D01*
X141063170Y-101269658D01*
X141063168Y-101269659D01*
X140982331Y-101316329D01*
X140916329Y-101382331D01*
X140869659Y-101463168D01*
X140869658Y-101463170D01*
X140845500Y-101553323D01*
X139892735Y-101553323D01*
X138749606Y-100410194D01*
X138731300Y-100366000D01*
X138749606Y-100321806D01*
X138793800Y-100303500D01*
X138857671Y-100303500D01*
X138857676Y-100303499D01*
X138884460Y-100296321D01*
X138947832Y-100279341D01*
X139028668Y-100232671D01*
X139066533Y-100194806D01*
X139104490Y-100179083D01*
X139104215Y-100177701D01*
X139110250Y-100176500D01*
X139110253Y-100176500D01*
X139138124Y-100164955D01*
X139193864Y-100141867D01*
X139193865Y-100141866D01*
X139193868Y-100141865D01*
X139368361Y-99967371D01*
X139412554Y-99949066D01*
X139456748Y-99967372D01*
X139475054Y-100011566D01*
X139472925Y-100027740D01*
X139472500Y-100029323D01*
X139472500Y-100122676D01*
X139496658Y-100212829D01*
X139496659Y-100212832D01*
X139543329Y-100293668D01*
X139609332Y-100359671D01*
X139690168Y-100406341D01*
X139732415Y-100417661D01*
X139780323Y-100430499D01*
X139780329Y-100430500D01*
X139873671Y-100430500D01*
X139873676Y-100430499D01*
X139900460Y-100423321D01*
X139963832Y-100406341D01*
X140044668Y-100359671D01*
X140110671Y-100293668D01*
X140157341Y-100212832D01*
X140181500Y-100122671D01*
X140181500Y-100029329D01*
X140181499Y-100029323D01*
X140159993Y-99949066D01*
X140157341Y-99939168D01*
X140110671Y-99858332D01*
X140044668Y-99792329D01*
X139963832Y-99745659D01*
X139963829Y-99745658D01*
X139873676Y-99721500D01*
X139873671Y-99721500D01*
X139780329Y-99721500D01*
X139780321Y-99721501D01*
X139778743Y-99721924D01*
X139777925Y-99721816D01*
X139776264Y-99722035D01*
X139776205Y-99721589D01*
X139731317Y-99715681D01*
X139702197Y-99677730D01*
X139708440Y-99630304D01*
X139718373Y-99617360D01*
X140442013Y-98893720D01*
X145347500Y-98893720D01*
X145347500Y-99006279D01*
X145347501Y-99006287D01*
X145376632Y-99115008D01*
X145376633Y-99115011D01*
X145432914Y-99212490D01*
X145432919Y-99212496D01*
X145512503Y-99292080D01*
X145512509Y-99292085D01*
X145609988Y-99348366D01*
X145609991Y-99348367D01*
X145718719Y-99377500D01*
X145718720Y-99377500D01*
X145831280Y-99377500D01*
X145831281Y-99377500D01*
X145940009Y-99348367D01*
X146037491Y-99292085D01*
X146117085Y-99212491D01*
X146173367Y-99115009D01*
X146200613Y-99013323D01*
X146965500Y-99013323D01*
X146965500Y-99106676D01*
X146984390Y-99177168D01*
X146989659Y-99196832D01*
X147036329Y-99277668D01*
X147102332Y-99343671D01*
X147183168Y-99390341D01*
X147225415Y-99401661D01*
X147273323Y-99414499D01*
X147273329Y-99414500D01*
X147366671Y-99414500D01*
X147366676Y-99414499D01*
X147393460Y-99407321D01*
X147456832Y-99390341D01*
X147537668Y-99343671D01*
X147603671Y-99277668D01*
X147650341Y-99196832D01*
X147674500Y-99106671D01*
X147674500Y-99013329D01*
X147674499Y-99013323D01*
X147660076Y-98959500D01*
X147650341Y-98923168D01*
X147603671Y-98842332D01*
X147537668Y-98776329D01*
X147456832Y-98729659D01*
X147456829Y-98729658D01*
X147366676Y-98705500D01*
X147366671Y-98705500D01*
X147273329Y-98705500D01*
X147273323Y-98705500D01*
X147183170Y-98729658D01*
X147183168Y-98729659D01*
X147102331Y-98776329D01*
X147036329Y-98842331D01*
X146989659Y-98923168D01*
X146989658Y-98923170D01*
X146965500Y-99013323D01*
X146200613Y-99013323D01*
X146202500Y-99006281D01*
X146202500Y-98893719D01*
X146173367Y-98784991D01*
X146173366Y-98784988D01*
X146117085Y-98687509D01*
X146117080Y-98687503D01*
X146037496Y-98607919D01*
X146037490Y-98607914D01*
X145940011Y-98551633D01*
X145940008Y-98551632D01*
X145831287Y-98522501D01*
X145831282Y-98522500D01*
X145831281Y-98522500D01*
X145718719Y-98522500D01*
X145718718Y-98522500D01*
X145718712Y-98522501D01*
X145609991Y-98551632D01*
X145609988Y-98551633D01*
X145512509Y-98607914D01*
X145512503Y-98607919D01*
X145432919Y-98687503D01*
X145432914Y-98687509D01*
X145376633Y-98784988D01*
X145376632Y-98784991D01*
X145347501Y-98893712D01*
X145347500Y-98893720D01*
X140442013Y-98893720D01*
X141516063Y-97819670D01*
X142100410Y-97235323D01*
X146203500Y-97235323D01*
X146203500Y-97328676D01*
X146222390Y-97399168D01*
X146227659Y-97418832D01*
X146274329Y-97499668D01*
X146340332Y-97565671D01*
X146421168Y-97612341D01*
X146463415Y-97623661D01*
X146511323Y-97636499D01*
X146511329Y-97636500D01*
X146604671Y-97636500D01*
X146604676Y-97636499D01*
X146631460Y-97629321D01*
X146694832Y-97612341D01*
X146775668Y-97565671D01*
X146841671Y-97499668D01*
X146888341Y-97418832D01*
X146912500Y-97328671D01*
X146912500Y-97235329D01*
X146912499Y-97235323D01*
X146893745Y-97165336D01*
X146888341Y-97145168D01*
X146841671Y-97064332D01*
X146775668Y-96998329D01*
X146694832Y-96951659D01*
X146694829Y-96951658D01*
X146604676Y-96927500D01*
X146604671Y-96927500D01*
X146511329Y-96927500D01*
X146511323Y-96927500D01*
X146421170Y-96951658D01*
X146421168Y-96951659D01*
X146340331Y-96998329D01*
X146274329Y-97064331D01*
X146227659Y-97145168D01*
X146227658Y-97145170D01*
X146203500Y-97235323D01*
X142100410Y-97235323D01*
X143892928Y-95442806D01*
X143937122Y-95424500D01*
X150684273Y-95424500D01*
X150728467Y-95442806D01*
X150746773Y-95487000D01*
X150728467Y-95531194D01*
X150719329Y-95540331D01*
X150672659Y-95621168D01*
X150672658Y-95621170D01*
X150648500Y-95711323D01*
X150648500Y-95804676D01*
X150672658Y-95894829D01*
X150672659Y-95894832D01*
X150687958Y-95921331D01*
X150719329Y-95975668D01*
X150730194Y-95986533D01*
X150748500Y-96030727D01*
X150748500Y-96642693D01*
X150730194Y-96686887D01*
X147167045Y-100250035D01*
X147167046Y-100250036D01*
X147104244Y-100312838D01*
X147065515Y-100406340D01*
X147065500Y-100406377D01*
X147065500Y-104978377D01*
X147065500Y-105079623D01*
X147104245Y-105173163D01*
X148120245Y-106189163D01*
X148191837Y-106260755D01*
X148285377Y-106299500D01*
X149587273Y-106299500D01*
X149631467Y-106317806D01*
X149642332Y-106328671D01*
X149723168Y-106375341D01*
X149765415Y-106386661D01*
X149813323Y-106399499D01*
X149813329Y-106399500D01*
X149906671Y-106399500D01*
X149906676Y-106399499D01*
X149933460Y-106392321D01*
X149996832Y-106375341D01*
X150077668Y-106328671D01*
X150143671Y-106262668D01*
X150190341Y-106181832D01*
X150214500Y-106091671D01*
X150214500Y-106076306D01*
X150232806Y-106032112D01*
X150302112Y-105962806D01*
X150346306Y-105944500D01*
X155569753Y-105944500D01*
X155613947Y-105962806D01*
X155632253Y-106007000D01*
X155625871Y-106030821D01*
X155627227Y-106031383D01*
X155625658Y-106035170D01*
X155601500Y-106125323D01*
X155601500Y-106218676D01*
X155617263Y-106277499D01*
X155625659Y-106308832D01*
X155672329Y-106389668D01*
X155738332Y-106455671D01*
X155819168Y-106502341D01*
X155861415Y-106513661D01*
X155909323Y-106526499D01*
X155909329Y-106526500D01*
X156002671Y-106526500D01*
X156002676Y-106526499D01*
X156029460Y-106519321D01*
X156092832Y-106502341D01*
X156173668Y-106455671D01*
X156239671Y-106389668D01*
X156286341Y-106308832D01*
X156306574Y-106233323D01*
X156310499Y-106218676D01*
X156310500Y-106218670D01*
X156310500Y-106125329D01*
X156310499Y-106125323D01*
X156290427Y-106050418D01*
X156286341Y-106035168D01*
X156286338Y-106035162D01*
X156284773Y-106031383D01*
X156287088Y-106030423D01*
X156281878Y-105990819D01*
X156311001Y-105952871D01*
X156342247Y-105944500D01*
X156869621Y-105944500D01*
X156869623Y-105944500D01*
X156963163Y-105905755D01*
X157505595Y-105363323D01*
X164110500Y-105363323D01*
X164110500Y-105456676D01*
X164134658Y-105546829D01*
X164134659Y-105546832D01*
X164181329Y-105627668D01*
X164247332Y-105693671D01*
X164328168Y-105740341D01*
X164370415Y-105751661D01*
X164418323Y-105764499D01*
X164418329Y-105764500D01*
X164511671Y-105764500D01*
X164511676Y-105764499D01*
X164538460Y-105757321D01*
X164601832Y-105740341D01*
X164682668Y-105693671D01*
X164748671Y-105627668D01*
X164795341Y-105546832D01*
X164819500Y-105456671D01*
X164819500Y-105363329D01*
X164819499Y-105363323D01*
X164806560Y-105315038D01*
X164795341Y-105273168D01*
X164748671Y-105192332D01*
X164682668Y-105126329D01*
X164601832Y-105079659D01*
X164601829Y-105079658D01*
X164511676Y-105055500D01*
X164511671Y-105055500D01*
X164418329Y-105055500D01*
X164418323Y-105055500D01*
X164328170Y-105079658D01*
X164328168Y-105079659D01*
X164247331Y-105126329D01*
X164181329Y-105192331D01*
X164134659Y-105273168D01*
X164134658Y-105273170D01*
X164110500Y-105363323D01*
X157505595Y-105363323D01*
X157975112Y-104893806D01*
X158019306Y-104875500D01*
X158034671Y-104875500D01*
X158034676Y-104875499D01*
X158065911Y-104867129D01*
X158124832Y-104851341D01*
X158205668Y-104804671D01*
X158271671Y-104738668D01*
X158318341Y-104657832D01*
X158335321Y-104594460D01*
X158342499Y-104567676D01*
X158342500Y-104567670D01*
X158342500Y-104474329D01*
X158342499Y-104474323D01*
X158329661Y-104426415D01*
X158318341Y-104384168D01*
X158271671Y-104303332D01*
X158205668Y-104237329D01*
X158124832Y-104190659D01*
X158124829Y-104190658D01*
X158034676Y-104166500D01*
X158034671Y-104166500D01*
X157941329Y-104166500D01*
X157941323Y-104166500D01*
X157851170Y-104190658D01*
X157851168Y-104190659D01*
X157770331Y-104237329D01*
X157704329Y-104303331D01*
X157657659Y-104384168D01*
X157657658Y-104384170D01*
X157633500Y-104474323D01*
X157633500Y-104489694D01*
X157615194Y-104533888D01*
X156731888Y-105417194D01*
X156687694Y-105435500D01*
X154880108Y-105435500D01*
X154835914Y-105417194D01*
X154817608Y-105373000D01*
X154835914Y-105328806D01*
X155038391Y-105126329D01*
X155243174Y-104921544D01*
X155287368Y-104903239D01*
X155331562Y-104921545D01*
X155347738Y-104949562D01*
X155371658Y-105038829D01*
X155371659Y-105038832D01*
X155418329Y-105119668D01*
X155484332Y-105185671D01*
X155565168Y-105232341D01*
X155607415Y-105243661D01*
X155655323Y-105256499D01*
X155655329Y-105256500D01*
X155748671Y-105256500D01*
X155748676Y-105256499D01*
X155775460Y-105249321D01*
X155838832Y-105232341D01*
X155919668Y-105185671D01*
X155985671Y-105119668D01*
X156032341Y-105038832D01*
X156049321Y-104975460D01*
X156056499Y-104948676D01*
X156056500Y-104948670D01*
X156056500Y-104855329D01*
X156056499Y-104855323D01*
X156037609Y-104784829D01*
X156032341Y-104765168D01*
X155985671Y-104684332D01*
X155919668Y-104618329D01*
X155838832Y-104571659D01*
X155838829Y-104571658D01*
X155749562Y-104547738D01*
X155711612Y-104518617D01*
X155705369Y-104471191D01*
X155721545Y-104443174D01*
X156863061Y-103301659D01*
X158115463Y-102049257D01*
X158157329Y-101976744D01*
X158179000Y-101895865D01*
X158179000Y-101812135D01*
X158179000Y-100885954D01*
X158187375Y-100854702D01*
X158191339Y-100847835D01*
X158191341Y-100847832D01*
X158215500Y-100757671D01*
X158215500Y-100664329D01*
X158215499Y-100664323D01*
X158201076Y-100610500D01*
X158191341Y-100574168D01*
X158144671Y-100493332D01*
X158078668Y-100427329D01*
X157997832Y-100380659D01*
X157997829Y-100380658D01*
X157907676Y-100356500D01*
X157907671Y-100356500D01*
X157814329Y-100356500D01*
X157814323Y-100356500D01*
X157724170Y-100380658D01*
X157724168Y-100380659D01*
X157643331Y-100427329D01*
X157577329Y-100493331D01*
X157530659Y-100574168D01*
X157530658Y-100574170D01*
X157506500Y-100664323D01*
X157506500Y-100757676D01*
X157530659Y-100847832D01*
X157530660Y-100847835D01*
X157534625Y-100854702D01*
X157543000Y-100885954D01*
X157543000Y-101696392D01*
X157524694Y-101740586D01*
X154408086Y-104857194D01*
X154363892Y-104875500D01*
X153070799Y-104875500D01*
X153026605Y-104857194D01*
X153008299Y-104813000D01*
X153026605Y-104768806D01*
X158788088Y-99007323D01*
X164212441Y-99007323D01*
X164212441Y-99100676D01*
X164232939Y-99177170D01*
X164236600Y-99190832D01*
X164283270Y-99271668D01*
X164349273Y-99337671D01*
X164430109Y-99384341D01*
X164472356Y-99395661D01*
X164520264Y-99408499D01*
X164520270Y-99408500D01*
X164613612Y-99408500D01*
X164613617Y-99408499D01*
X164640401Y-99401321D01*
X164703773Y-99384341D01*
X164784609Y-99337671D01*
X164850612Y-99271668D01*
X164897282Y-99190832D01*
X164917599Y-99115009D01*
X164921440Y-99100676D01*
X164921441Y-99100670D01*
X164921441Y-99007329D01*
X164921440Y-99007323D01*
X164898890Y-98923170D01*
X164897282Y-98917168D01*
X164850612Y-98836332D01*
X164784609Y-98770329D01*
X164703773Y-98723659D01*
X164703770Y-98723658D01*
X164613617Y-98699500D01*
X164613612Y-98699500D01*
X164520270Y-98699500D01*
X164520264Y-98699500D01*
X164430111Y-98723658D01*
X164430109Y-98723659D01*
X164349272Y-98770329D01*
X164283270Y-98836331D01*
X164236600Y-98917168D01*
X164236599Y-98917170D01*
X164212441Y-99007323D01*
X158788088Y-99007323D01*
X163442605Y-94352806D01*
X163486799Y-94334500D01*
X163495671Y-94334500D01*
X163495676Y-94334499D01*
X163522460Y-94327321D01*
X163585832Y-94310341D01*
X163666668Y-94263671D01*
X163732671Y-94197668D01*
X163779341Y-94116832D01*
X163803500Y-94026671D01*
X163803500Y-93933329D01*
X163803499Y-93933323D01*
X163790661Y-93885415D01*
X163779341Y-93843168D01*
X163732671Y-93762332D01*
X163666668Y-93696329D01*
X163585832Y-93649659D01*
X163585829Y-93649658D01*
X163495676Y-93625500D01*
X163495671Y-93625500D01*
X163402329Y-93625500D01*
X163402323Y-93625500D01*
X163312170Y-93649658D01*
X163312168Y-93649659D01*
X163231331Y-93696329D01*
X163165328Y-93762332D01*
X163158126Y-93774807D01*
X163120175Y-93803927D01*
X163072749Y-93797682D01*
X163043629Y-93759731D01*
X163041500Y-93743556D01*
X163041500Y-93084121D01*
X163059806Y-93039927D01*
X164159927Y-91939806D01*
X164204121Y-91921500D01*
X164257671Y-91921500D01*
X164257676Y-91921499D01*
X164284460Y-91914321D01*
X164347832Y-91897341D01*
X164428668Y-91850671D01*
X164494671Y-91784668D01*
X164541341Y-91703832D01*
X164558321Y-91640460D01*
X164565499Y-91613676D01*
X164565500Y-91613670D01*
X164565500Y-91520329D01*
X164565499Y-91520323D01*
X164549985Y-91462429D01*
X164541341Y-91430168D01*
X164494671Y-91349332D01*
X164428668Y-91283329D01*
X164347832Y-91236659D01*
X164347829Y-91236658D01*
X164257676Y-91212500D01*
X164257671Y-91212500D01*
X164164329Y-91212500D01*
X164164323Y-91212500D01*
X164074170Y-91236658D01*
X164074168Y-91236659D01*
X163993331Y-91283329D01*
X163927329Y-91349331D01*
X163880659Y-91430168D01*
X163880658Y-91430170D01*
X163856500Y-91520323D01*
X163856500Y-91573879D01*
X163838194Y-91618073D01*
X162621136Y-92835130D01*
X162621132Y-92835135D01*
X162586500Y-92918744D01*
X162586500Y-94075694D01*
X162568194Y-94119888D01*
X159759954Y-96928128D01*
X159715760Y-96946434D01*
X159671566Y-96928128D01*
X159322574Y-96579136D01*
X159322569Y-96579132D01*
X159238960Y-96544500D01*
X159238958Y-96544500D01*
X158711042Y-96544500D01*
X158711039Y-96544500D01*
X158627430Y-96579132D01*
X158627425Y-96579136D01*
X158254136Y-96952425D01*
X158254132Y-96952430D01*
X158219500Y-97036039D01*
X158219500Y-97563960D01*
X158254132Y-97647569D01*
X158254136Y-97647574D01*
X158603127Y-97996565D01*
X158621433Y-98040759D01*
X158603127Y-98084953D01*
X152977964Y-103710118D01*
X152933770Y-103728424D01*
X152889576Y-103710118D01*
X152873400Y-103682100D01*
X152857342Y-103622171D01*
X152857341Y-103622170D01*
X152857341Y-103622168D01*
X152810671Y-103541332D01*
X152744668Y-103475329D01*
X152663832Y-103428659D01*
X152663829Y-103428658D01*
X152573676Y-103404500D01*
X152573671Y-103404500D01*
X152480329Y-103404500D01*
X152480323Y-103404500D01*
X152390170Y-103428658D01*
X152390168Y-103428659D01*
X152309331Y-103475329D01*
X152243329Y-103541331D01*
X152196659Y-103622168D01*
X152196658Y-103622170D01*
X152172500Y-103712323D01*
X152172500Y-103805676D01*
X152196164Y-103893986D01*
X152196659Y-103895832D01*
X152243329Y-103976668D01*
X152309332Y-104042671D01*
X152390168Y-104089341D01*
X152432415Y-104100661D01*
X152480323Y-104113499D01*
X152480329Y-104113500D01*
X152533879Y-104113500D01*
X152578073Y-104131806D01*
X152635232Y-104188965D01*
X152653538Y-104233159D01*
X152635232Y-104277353D01*
X152607215Y-104293529D01*
X152517170Y-104317658D01*
X152517168Y-104317659D01*
X152436331Y-104364329D01*
X152370329Y-104430331D01*
X152323659Y-104511168D01*
X152323658Y-104511170D01*
X152299500Y-104601323D01*
X152299500Y-104694676D01*
X152323658Y-104784829D01*
X152325227Y-104788617D01*
X152322911Y-104789576D01*
X152328122Y-104829181D01*
X152298999Y-104867129D01*
X152267753Y-104875500D01*
X149864365Y-104875500D01*
X149780635Y-104875500D01*
X149780634Y-104875500D01*
X149780628Y-104875501D01*
X149699756Y-104897170D01*
X149699750Y-104897173D01*
X149627242Y-104939036D01*
X149626492Y-104939612D01*
X149624803Y-104940444D01*
X149623696Y-104941084D01*
X149623654Y-104941011D01*
X149604635Y-104950389D01*
X149596170Y-104952657D01*
X149596167Y-104952658D01*
X149515331Y-104999329D01*
X149449329Y-105065331D01*
X149402659Y-105146168D01*
X149402658Y-105146170D01*
X149378500Y-105236323D01*
X149378500Y-105329676D01*
X149397390Y-105400168D01*
X149402659Y-105419832D01*
X149449329Y-105500668D01*
X149515332Y-105566671D01*
X149596168Y-105613341D01*
X149596170Y-105613341D01*
X149596171Y-105613342D01*
X149657022Y-105629647D01*
X149673859Y-105642566D01*
X149691832Y-105653868D01*
X149692519Y-105656884D01*
X149694973Y-105658767D01*
X149697743Y-105679811D01*
X149702459Y-105700508D01*
X149700784Y-105702914D01*
X149701216Y-105706193D01*
X149676995Y-105741003D01*
X149674612Y-105742691D01*
X149642332Y-105761329D01*
X149627727Y-105775933D01*
X149623422Y-105778986D01*
X149604858Y-105783215D01*
X149587273Y-105790500D01*
X148467306Y-105790500D01*
X148423112Y-105772194D01*
X147592806Y-104941888D01*
X147574500Y-104897694D01*
X147574500Y-102569323D01*
X148870500Y-102569323D01*
X148870500Y-102662676D01*
X148889390Y-102733168D01*
X148894659Y-102752832D01*
X148941329Y-102833668D01*
X149007332Y-102899671D01*
X149088168Y-102946341D01*
X149130415Y-102957661D01*
X149178323Y-102970499D01*
X149178329Y-102970500D01*
X149271671Y-102970500D01*
X149271676Y-102970499D01*
X149298460Y-102963321D01*
X149361832Y-102946341D01*
X149442668Y-102899671D01*
X149508671Y-102833668D01*
X149555341Y-102752832D01*
X149579500Y-102662671D01*
X149579500Y-102569329D01*
X149579499Y-102569323D01*
X149565076Y-102515500D01*
X149555341Y-102479168D01*
X149508671Y-102398332D01*
X149442668Y-102332329D01*
X149361832Y-102285659D01*
X149361829Y-102285658D01*
X149271676Y-102261500D01*
X149271671Y-102261500D01*
X149178329Y-102261500D01*
X149178323Y-102261500D01*
X149088170Y-102285658D01*
X149088168Y-102285659D01*
X149007331Y-102332329D01*
X148941329Y-102398331D01*
X148894659Y-102479168D01*
X148894658Y-102479170D01*
X148870500Y-102569323D01*
X147574500Y-102569323D01*
X147574500Y-102061323D01*
X152553500Y-102061323D01*
X152553500Y-102154676D01*
X152577658Y-102244829D01*
X152577659Y-102244832D01*
X152624329Y-102325668D01*
X152690332Y-102391671D01*
X152771168Y-102438341D01*
X152813415Y-102449661D01*
X152861323Y-102462499D01*
X152861329Y-102462500D01*
X152954671Y-102462500D01*
X152954676Y-102462499D01*
X152981460Y-102455321D01*
X153044832Y-102438341D01*
X153125668Y-102391671D01*
X153191671Y-102325668D01*
X153238341Y-102244832D01*
X153255321Y-102181460D01*
X153262499Y-102154676D01*
X153262500Y-102154670D01*
X153262500Y-102061329D01*
X153262499Y-102061323D01*
X153246261Y-102000725D01*
X153238341Y-101971168D01*
X153191671Y-101890332D01*
X153125668Y-101824329D01*
X153044832Y-101777659D01*
X153044829Y-101777658D01*
X152954676Y-101753500D01*
X152954671Y-101753500D01*
X152861329Y-101753500D01*
X152861323Y-101753500D01*
X152771170Y-101777658D01*
X152771168Y-101777659D01*
X152690331Y-101824329D01*
X152624329Y-101890331D01*
X152577659Y-101971168D01*
X152577658Y-101971170D01*
X152553500Y-102061323D01*
X147574500Y-102061323D01*
X147574500Y-101426323D01*
X151791500Y-101426323D01*
X151791500Y-101519676D01*
X151815658Y-101609829D01*
X151815659Y-101609832D01*
X151862329Y-101690668D01*
X151928332Y-101756671D01*
X152009168Y-101803341D01*
X152051415Y-101814661D01*
X152099323Y-101827499D01*
X152099329Y-101827500D01*
X152192671Y-101827500D01*
X152192676Y-101827499D01*
X152220422Y-101820064D01*
X152282832Y-101803341D01*
X152363668Y-101756671D01*
X152429671Y-101690668D01*
X152476341Y-101609832D01*
X152500500Y-101519671D01*
X152500500Y-101426329D01*
X152500499Y-101426323D01*
X152487661Y-101378415D01*
X152476341Y-101336168D01*
X152429671Y-101255332D01*
X152363668Y-101189329D01*
X152282832Y-101142659D01*
X152282829Y-101142658D01*
X152192676Y-101118500D01*
X152192671Y-101118500D01*
X152099329Y-101118500D01*
X152099323Y-101118500D01*
X152009170Y-101142658D01*
X152009168Y-101142659D01*
X151928331Y-101189329D01*
X151862329Y-101255331D01*
X151815659Y-101336168D01*
X151815658Y-101336170D01*
X151791500Y-101426323D01*
X147574500Y-101426323D01*
X147574500Y-100918323D01*
X149505500Y-100918323D01*
X149505500Y-101011676D01*
X149529658Y-101101829D01*
X149529659Y-101101832D01*
X149576329Y-101182668D01*
X149642332Y-101248671D01*
X149723168Y-101295341D01*
X149765415Y-101306661D01*
X149813323Y-101319499D01*
X149813329Y-101319500D01*
X149906671Y-101319500D01*
X149906676Y-101319499D01*
X149933460Y-101312321D01*
X149996832Y-101295341D01*
X150077668Y-101248671D01*
X150143671Y-101182668D01*
X150190341Y-101101832D01*
X150214500Y-101011671D01*
X150214500Y-100918329D01*
X150214499Y-100918323D01*
X150194347Y-100843119D01*
X150190341Y-100828168D01*
X150169069Y-100791323D01*
X152426500Y-100791323D01*
X152426500Y-100884676D01*
X152450658Y-100974829D01*
X152450659Y-100974832D01*
X152497329Y-101055668D01*
X152563332Y-101121671D01*
X152644168Y-101168341D01*
X152686415Y-101179661D01*
X152734323Y-101192499D01*
X152734329Y-101192500D01*
X152827671Y-101192500D01*
X152827676Y-101192499D01*
X152854460Y-101185321D01*
X152917832Y-101168341D01*
X152998668Y-101121671D01*
X153064671Y-101055668D01*
X153111341Y-100974832D01*
X153128321Y-100911460D01*
X153135499Y-100884676D01*
X153135500Y-100884670D01*
X153135500Y-100791329D01*
X153135499Y-100791323D01*
X153117416Y-100723840D01*
X153111341Y-100701168D01*
X153064671Y-100620332D01*
X152998668Y-100554329D01*
X152917832Y-100507659D01*
X152917829Y-100507658D01*
X152827676Y-100483500D01*
X152827671Y-100483500D01*
X152734329Y-100483500D01*
X152734323Y-100483500D01*
X152644170Y-100507658D01*
X152644168Y-100507659D01*
X152563331Y-100554329D01*
X152497329Y-100620331D01*
X152450659Y-100701168D01*
X152450658Y-100701170D01*
X152426500Y-100791323D01*
X150169069Y-100791323D01*
X150143671Y-100747332D01*
X150077668Y-100681329D01*
X149996832Y-100634659D01*
X149996829Y-100634658D01*
X149906676Y-100610500D01*
X149906671Y-100610500D01*
X149813329Y-100610500D01*
X149813323Y-100610500D01*
X149723170Y-100634658D01*
X149723168Y-100634659D01*
X149642331Y-100681329D01*
X149576329Y-100747331D01*
X149529659Y-100828168D01*
X149529658Y-100828170D01*
X149505500Y-100918323D01*
X147574500Y-100918323D01*
X147574500Y-100588304D01*
X147592805Y-100544111D01*
X149123593Y-99013323D01*
X149505500Y-99013323D01*
X149505500Y-99106676D01*
X149524390Y-99177168D01*
X149529659Y-99196832D01*
X149576329Y-99277668D01*
X149642332Y-99343671D01*
X149723168Y-99390341D01*
X149765415Y-99401661D01*
X149813323Y-99414499D01*
X149813329Y-99414500D01*
X149906671Y-99414500D01*
X149906676Y-99414499D01*
X149933460Y-99407321D01*
X149996832Y-99390341D01*
X150077668Y-99343671D01*
X150143671Y-99277668D01*
X150149644Y-99267323D01*
X155474500Y-99267323D01*
X155474500Y-99360676D01*
X155498658Y-99450829D01*
X155498659Y-99450832D01*
X155545329Y-99531668D01*
X155611332Y-99597671D01*
X155692168Y-99644341D01*
X155734415Y-99655661D01*
X155782323Y-99668499D01*
X155782329Y-99668500D01*
X155875671Y-99668500D01*
X155875676Y-99668499D01*
X155902460Y-99661321D01*
X155965832Y-99644341D01*
X156046668Y-99597671D01*
X156112671Y-99531668D01*
X156159341Y-99450832D01*
X156183500Y-99360671D01*
X156183500Y-99267329D01*
X156183499Y-99267323D01*
X156164610Y-99196832D01*
X156159341Y-99177168D01*
X156112671Y-99096332D01*
X156046668Y-99030329D01*
X155965832Y-98983659D01*
X155965829Y-98983658D01*
X155875676Y-98959500D01*
X155875671Y-98959500D01*
X155782329Y-98959500D01*
X155782323Y-98959500D01*
X155692170Y-98983658D01*
X155692168Y-98983659D01*
X155611331Y-99030329D01*
X155545329Y-99096331D01*
X155498659Y-99177168D01*
X155498658Y-99177170D01*
X155474500Y-99267323D01*
X150149644Y-99267323D01*
X150190341Y-99196832D01*
X150214500Y-99106671D01*
X150214500Y-99053121D01*
X150232806Y-99008927D01*
X150813410Y-98428323D01*
X151345500Y-98428323D01*
X151345500Y-98521676D01*
X151362960Y-98586832D01*
X151369659Y-98611832D01*
X151416329Y-98692668D01*
X151482332Y-98758671D01*
X151563168Y-98805341D01*
X151605415Y-98816661D01*
X151653323Y-98829499D01*
X151653329Y-98829500D01*
X151746671Y-98829500D01*
X151746676Y-98829499D01*
X151773460Y-98822321D01*
X151836832Y-98805341D01*
X151917668Y-98758671D01*
X151983671Y-98692668D01*
X152030341Y-98611832D01*
X152054500Y-98521671D01*
X152054500Y-98428329D01*
X152054499Y-98428323D01*
X152041661Y-98380415D01*
X152030341Y-98338168D01*
X151983671Y-98257332D01*
X151917668Y-98191329D01*
X151836832Y-98144659D01*
X151836829Y-98144658D01*
X151746676Y-98120500D01*
X151746671Y-98120500D01*
X151653329Y-98120500D01*
X151653323Y-98120500D01*
X151563170Y-98144658D01*
X151563168Y-98144659D01*
X151482331Y-98191329D01*
X151416329Y-98257331D01*
X151369659Y-98338168D01*
X151369658Y-98338170D01*
X151345500Y-98428323D01*
X150813410Y-98428323D01*
X153110927Y-96130806D01*
X153155121Y-96112500D01*
X159085273Y-96112500D01*
X159129467Y-96130806D01*
X159167332Y-96168671D01*
X159248168Y-96215341D01*
X159290415Y-96226661D01*
X159338323Y-96239499D01*
X159338329Y-96239500D01*
X159431671Y-96239500D01*
X159431676Y-96239499D01*
X159458460Y-96232321D01*
X159521832Y-96215341D01*
X159602668Y-96168671D01*
X159668671Y-96102668D01*
X159715341Y-96021832D01*
X159739500Y-95931671D01*
X159739500Y-95838329D01*
X159739499Y-95838323D01*
X159725076Y-95784500D01*
X159715341Y-95748168D01*
X159668671Y-95667332D01*
X159602668Y-95601329D01*
X159521832Y-95554659D01*
X159521829Y-95554658D01*
X159431676Y-95530500D01*
X159431671Y-95530500D01*
X159338329Y-95530500D01*
X159338323Y-95530500D01*
X159248170Y-95554658D01*
X159248168Y-95554659D01*
X159167331Y-95601329D01*
X159129467Y-95639194D01*
X159085273Y-95657500D01*
X152989744Y-95657500D01*
X152906135Y-95692132D01*
X152906130Y-95692136D01*
X149911073Y-98687194D01*
X149866879Y-98705500D01*
X149813323Y-98705500D01*
X149723170Y-98729658D01*
X149723168Y-98729659D01*
X149642331Y-98776329D01*
X149576329Y-98842331D01*
X149529659Y-98923168D01*
X149529658Y-98923170D01*
X149505500Y-99013323D01*
X149123593Y-99013323D01*
X151138371Y-96998544D01*
X151138374Y-96998543D01*
X151147162Y-96989755D01*
X151147163Y-96989755D01*
X151218755Y-96918163D01*
X151221103Y-96912496D01*
X151249638Y-96843605D01*
X151249639Y-96843602D01*
X151257501Y-96824623D01*
X151257501Y-96723376D01*
X151257501Y-96718345D01*
X151257500Y-96718331D01*
X151257500Y-96030727D01*
X151275806Y-95986533D01*
X151286671Y-95975668D01*
X151333341Y-95894832D01*
X151350321Y-95831460D01*
X151357499Y-95804676D01*
X151357500Y-95804670D01*
X151357500Y-95711329D01*
X151357499Y-95711323D01*
X151338171Y-95639194D01*
X151333341Y-95621168D01*
X151286671Y-95540332D01*
X151220668Y-95474329D01*
X151139832Y-95427659D01*
X151139830Y-95427658D01*
X151136284Y-95425611D01*
X151137202Y-95424019D01*
X151107737Y-95394536D01*
X151107750Y-95346701D01*
X151121292Y-95326441D01*
X156451411Y-89996323D01*
X163856500Y-89996323D01*
X163856500Y-90089676D01*
X163878828Y-90173000D01*
X163880659Y-90179832D01*
X163927329Y-90260668D01*
X163993332Y-90326671D01*
X164074168Y-90373341D01*
X164116415Y-90384661D01*
X164164323Y-90397499D01*
X164164329Y-90397500D01*
X164257671Y-90397500D01*
X164257676Y-90397499D01*
X164284460Y-90390321D01*
X164347832Y-90373341D01*
X164428668Y-90326671D01*
X164494671Y-90260668D01*
X164541341Y-90179832D01*
X164562570Y-90100605D01*
X164565499Y-90089676D01*
X164565500Y-90089670D01*
X164565500Y-89996329D01*
X164565499Y-89996323D01*
X164551926Y-89945670D01*
X164541341Y-89906168D01*
X164494671Y-89825332D01*
X164428668Y-89759329D01*
X164347832Y-89712659D01*
X164347829Y-89712658D01*
X164257676Y-89688500D01*
X164257671Y-89688500D01*
X164164329Y-89688500D01*
X164164323Y-89688500D01*
X164074170Y-89712658D01*
X164074168Y-89712659D01*
X163993331Y-89759329D01*
X163927329Y-89825331D01*
X163880659Y-89906168D01*
X163880658Y-89906170D01*
X163856500Y-89996323D01*
X156451411Y-89996323D01*
X156499696Y-89948038D01*
X158190928Y-88256806D01*
X158235122Y-88238500D01*
X158288671Y-88238500D01*
X158288676Y-88238499D01*
X158315460Y-88231321D01*
X158378832Y-88214341D01*
X158459668Y-88167671D01*
X158525671Y-88101668D01*
X158572341Y-88020832D01*
X158596500Y-87930671D01*
X158596500Y-87837329D01*
X158596499Y-87837323D01*
X158582926Y-87786670D01*
X158572341Y-87747168D01*
X158525671Y-87666332D01*
X158459668Y-87600329D01*
X158378832Y-87553659D01*
X158378829Y-87553658D01*
X158288676Y-87529500D01*
X158288671Y-87529500D01*
X158195329Y-87529500D01*
X158195323Y-87529500D01*
X158105170Y-87553658D01*
X158105168Y-87553659D01*
X158024331Y-87600329D01*
X157958329Y-87666331D01*
X157911659Y-87747168D01*
X157911658Y-87747170D01*
X157887500Y-87837323D01*
X157887500Y-87890878D01*
X157869194Y-87935072D01*
X150853073Y-94951194D01*
X150808879Y-94969500D01*
X144023247Y-94969500D01*
X143979053Y-94951194D01*
X143960747Y-94907000D01*
X143967128Y-94883178D01*
X143965773Y-94882617D01*
X143967336Y-94878839D01*
X143967341Y-94878832D01*
X143991500Y-94788671D01*
X143991500Y-94695329D01*
X143991499Y-94695323D01*
X143978661Y-94647415D01*
X143967341Y-94605168D01*
X143920671Y-94524332D01*
X143854668Y-94458329D01*
X143773832Y-94411659D01*
X143773829Y-94411658D01*
X143683676Y-94387500D01*
X143683671Y-94387500D01*
X143590329Y-94387500D01*
X143590323Y-94387500D01*
X143500170Y-94411658D01*
X143500168Y-94411659D01*
X143419331Y-94458329D01*
X143353329Y-94524331D01*
X143306659Y-94605168D01*
X143306658Y-94605170D01*
X143282500Y-94695323D01*
X143282500Y-94788676D01*
X143306658Y-94878829D01*
X143306659Y-94878832D01*
X143353329Y-94959668D01*
X143419332Y-95025671D01*
X143500168Y-95072341D01*
X143500169Y-95072341D01*
X143503716Y-95074389D01*
X143502794Y-95075984D01*
X143532257Y-95105449D01*
X143532254Y-95153284D01*
X143518707Y-95173558D01*
X141557697Y-97134567D01*
X141513503Y-97152873D01*
X141469309Y-97134567D01*
X141451003Y-97090373D01*
X141451500Y-97085330D01*
X141451500Y-93708443D01*
X141469806Y-93664249D01*
X141514000Y-93645943D01*
X141558194Y-93664249D01*
X141568127Y-93677194D01*
X141575329Y-93689668D01*
X141641332Y-93755671D01*
X141722168Y-93802341D01*
X141764415Y-93813661D01*
X141812323Y-93826499D01*
X141812329Y-93826500D01*
X141905671Y-93826500D01*
X141905676Y-93826499D01*
X141932460Y-93819321D01*
X141995832Y-93802341D01*
X142076668Y-93755671D01*
X142142671Y-93689668D01*
X142189341Y-93608832D01*
X142213500Y-93518671D01*
X142213500Y-93425329D01*
X142213499Y-93425323D01*
X142200661Y-93377415D01*
X142189341Y-93335168D01*
X142142671Y-93254332D01*
X142076668Y-93188329D01*
X141995832Y-93141659D01*
X141995829Y-93141658D01*
X141905676Y-93117500D01*
X141905671Y-93117500D01*
X141812329Y-93117500D01*
X141812323Y-93117500D01*
X141722170Y-93141658D01*
X141722168Y-93141659D01*
X141641331Y-93188329D01*
X141575328Y-93254332D01*
X141568126Y-93266807D01*
X141530175Y-93295927D01*
X141482749Y-93289682D01*
X141453629Y-93251731D01*
X141451500Y-93235556D01*
X141451500Y-92068121D01*
X141469806Y-92023927D01*
X142481411Y-91012323D01*
X143790500Y-91012323D01*
X143790500Y-91105676D01*
X143814658Y-91195829D01*
X143814659Y-91195832D01*
X143861329Y-91276668D01*
X143927332Y-91342671D01*
X144008168Y-91389341D01*
X144050415Y-91400661D01*
X144098323Y-91413499D01*
X144098329Y-91413500D01*
X144191671Y-91413500D01*
X144191676Y-91413499D01*
X144218460Y-91406321D01*
X144281832Y-91389341D01*
X144362668Y-91342671D01*
X144428671Y-91276668D01*
X144475341Y-91195832D01*
X144490483Y-91139323D01*
X146457500Y-91139323D01*
X146457500Y-91232676D01*
X146476749Y-91304509D01*
X146481659Y-91322832D01*
X146528329Y-91403668D01*
X146594332Y-91469671D01*
X146675168Y-91516341D01*
X146717415Y-91527661D01*
X146765323Y-91540499D01*
X146765329Y-91540500D01*
X146858671Y-91540500D01*
X146858676Y-91540499D01*
X146885460Y-91533321D01*
X146948832Y-91516341D01*
X146958568Y-91510720D01*
X148169402Y-91510720D01*
X148169402Y-91623279D01*
X148169403Y-91623287D01*
X148198534Y-91732008D01*
X148198535Y-91732011D01*
X148254816Y-91829490D01*
X148254821Y-91829496D01*
X148334405Y-91909080D01*
X148334411Y-91909085D01*
X148431890Y-91965366D01*
X148431893Y-91965367D01*
X148540621Y-91994500D01*
X148540622Y-91994500D01*
X148653182Y-91994500D01*
X148653183Y-91994500D01*
X148761911Y-91965367D01*
X148763415Y-91964499D01*
X148782514Y-91953471D01*
X148859393Y-91909085D01*
X148938987Y-91829491D01*
X148995269Y-91732009D01*
X149024402Y-91623281D01*
X149024402Y-91510719D01*
X148995269Y-91401991D01*
X148995268Y-91401988D01*
X148938987Y-91304509D01*
X148938982Y-91304503D01*
X148859398Y-91224919D01*
X148859392Y-91224914D01*
X148761913Y-91168633D01*
X148761910Y-91168632D01*
X148653189Y-91139501D01*
X148653184Y-91139500D01*
X148653183Y-91139500D01*
X148540621Y-91139500D01*
X148540620Y-91139500D01*
X148540614Y-91139501D01*
X148431893Y-91168632D01*
X148431890Y-91168633D01*
X148334411Y-91224914D01*
X148334405Y-91224919D01*
X148254821Y-91304503D01*
X148254816Y-91304509D01*
X148198535Y-91401988D01*
X148198534Y-91401991D01*
X148169403Y-91510712D01*
X148169402Y-91510720D01*
X146958568Y-91510720D01*
X147029668Y-91469671D01*
X147095671Y-91403668D01*
X147142341Y-91322832D01*
X147160383Y-91255500D01*
X147166499Y-91232676D01*
X147166500Y-91232670D01*
X147166500Y-91139329D01*
X147166499Y-91139323D01*
X147147610Y-91068832D01*
X147142341Y-91049168D01*
X147095671Y-90968332D01*
X147029668Y-90902329D01*
X146948832Y-90855659D01*
X146948829Y-90855658D01*
X146858676Y-90831500D01*
X146858671Y-90831500D01*
X146765329Y-90831500D01*
X146765323Y-90831500D01*
X146675170Y-90855658D01*
X146675168Y-90855659D01*
X146594331Y-90902329D01*
X146528329Y-90968331D01*
X146481659Y-91049168D01*
X146481658Y-91049170D01*
X146457500Y-91139323D01*
X144490483Y-91139323D01*
X144499500Y-91105671D01*
X144499500Y-91012329D01*
X144499499Y-91012323D01*
X144485926Y-90961670D01*
X144475341Y-90922168D01*
X144428671Y-90841332D01*
X144362668Y-90775329D01*
X144281832Y-90728659D01*
X144281829Y-90728658D01*
X144191676Y-90704500D01*
X144191671Y-90704500D01*
X144098329Y-90704500D01*
X144098323Y-90704500D01*
X144008170Y-90728658D01*
X144008168Y-90728659D01*
X143927331Y-90775329D01*
X143861329Y-90841331D01*
X143814659Y-90922168D01*
X143814658Y-90922170D01*
X143790500Y-91012323D01*
X142481411Y-91012323D01*
X142529696Y-90964038D01*
X143036928Y-90456806D01*
X143081122Y-90438500D01*
X147339879Y-90438500D01*
X147384073Y-90456806D01*
X147758900Y-90831633D01*
X147768833Y-90844578D01*
X147798329Y-90895668D01*
X147864332Y-90961671D01*
X147945168Y-91008341D01*
X147987415Y-91019661D01*
X148035323Y-91032499D01*
X148035329Y-91032500D01*
X148128671Y-91032500D01*
X148128676Y-91032499D01*
X148155460Y-91025321D01*
X148218832Y-91008341D01*
X148299668Y-90961671D01*
X148365671Y-90895668D01*
X148412341Y-90814832D01*
X148429321Y-90751460D01*
X148436499Y-90724676D01*
X148436500Y-90724670D01*
X148436500Y-90631329D01*
X148436499Y-90631323D01*
X148417610Y-90560832D01*
X148412341Y-90541168D01*
X148365671Y-90460332D01*
X148299668Y-90394329D01*
X148218832Y-90347659D01*
X148218829Y-90347658D01*
X148128676Y-90323500D01*
X148128671Y-90323500D01*
X148035329Y-90323500D01*
X148035321Y-90323501D01*
X147958905Y-90343977D01*
X147911479Y-90337734D01*
X147898535Y-90327801D01*
X147857902Y-90287168D01*
X147787926Y-90217193D01*
X147769621Y-90173000D01*
X147787927Y-90128806D01*
X147832121Y-90110500D01*
X155272253Y-90110500D01*
X155322538Y-90089671D01*
X155355864Y-90075867D01*
X155355864Y-90075866D01*
X155355868Y-90075865D01*
X158524927Y-86906806D01*
X158569121Y-86888500D01*
X159103730Y-86888500D01*
X159147924Y-86906806D01*
X159166230Y-86951000D01*
X159157856Y-86982250D01*
X159121635Y-87044985D01*
X159121632Y-87044991D01*
X159092501Y-87153712D01*
X159092500Y-87153720D01*
X159092500Y-87266279D01*
X159092501Y-87266287D01*
X159121632Y-87375008D01*
X159121633Y-87375011D01*
X159177914Y-87472490D01*
X159177919Y-87472496D01*
X159257503Y-87552080D01*
X159257509Y-87552085D01*
X159354988Y-87608366D01*
X159354991Y-87608367D01*
X159463719Y-87637500D01*
X159463720Y-87637500D01*
X159576280Y-87637500D01*
X159576281Y-87637500D01*
X159685009Y-87608367D01*
X159782491Y-87552085D01*
X159862085Y-87472491D01*
X159918367Y-87375009D01*
X159947500Y-87266281D01*
X159947500Y-87153719D01*
X159918367Y-87044991D01*
X159918364Y-87044985D01*
X159882144Y-86982250D01*
X159875900Y-86934824D01*
X159905020Y-86896874D01*
X159936270Y-86888500D01*
X160153721Y-86888500D01*
X160181592Y-86876955D01*
X160237332Y-86853867D01*
X160237332Y-86853866D01*
X160237336Y-86853865D01*
X160904878Y-86186323D01*
X161443500Y-86186323D01*
X161443500Y-86279676D01*
X161467658Y-86369829D01*
X161467659Y-86369832D01*
X161514329Y-86450668D01*
X161580332Y-86516671D01*
X161661168Y-86563341D01*
X161703415Y-86574661D01*
X161751323Y-86587499D01*
X161751329Y-86587500D01*
X161844671Y-86587500D01*
X161844676Y-86587499D01*
X161871460Y-86580321D01*
X161934832Y-86563341D01*
X162015668Y-86516671D01*
X162081671Y-86450668D01*
X162128341Y-86369832D01*
X162152500Y-86279671D01*
X162152500Y-86186329D01*
X162152499Y-86186323D01*
X162138076Y-86132500D01*
X162128341Y-86096168D01*
X162081671Y-86015332D01*
X162015668Y-85949329D01*
X161934832Y-85902659D01*
X161934829Y-85902658D01*
X161844676Y-85878500D01*
X161844671Y-85878500D01*
X161751329Y-85878500D01*
X161751323Y-85878500D01*
X161661170Y-85902658D01*
X161661168Y-85902659D01*
X161580331Y-85949329D01*
X161514329Y-86015331D01*
X161467659Y-86096168D01*
X161467658Y-86096170D01*
X161443500Y-86186323D01*
X160904878Y-86186323D01*
X162208531Y-84882670D01*
X163444879Y-83646323D01*
X163856500Y-83646323D01*
X163856500Y-83739676D01*
X163880658Y-83829829D01*
X163880659Y-83829832D01*
X163927329Y-83910668D01*
X163993332Y-83976671D01*
X164074168Y-84023341D01*
X164116415Y-84034661D01*
X164164323Y-84047499D01*
X164164329Y-84047500D01*
X164257671Y-84047500D01*
X164257676Y-84047499D01*
X164284460Y-84040321D01*
X164347832Y-84023341D01*
X164428668Y-83976671D01*
X164494671Y-83910668D01*
X164541341Y-83829832D01*
X164565500Y-83739671D01*
X164565500Y-83646329D01*
X164565499Y-83646323D01*
X164552560Y-83598038D01*
X164541341Y-83556168D01*
X164494671Y-83475332D01*
X164428668Y-83409329D01*
X164347832Y-83362659D01*
X164347829Y-83362658D01*
X164257676Y-83338500D01*
X164257671Y-83338500D01*
X164164329Y-83338500D01*
X164164323Y-83338500D01*
X164074170Y-83362658D01*
X164074168Y-83362659D01*
X163993331Y-83409329D01*
X163927329Y-83475331D01*
X163880659Y-83556168D01*
X163880658Y-83556170D01*
X163856500Y-83646323D01*
X163444879Y-83646323D01*
X163493164Y-83598038D01*
X163952879Y-83138323D01*
X164530866Y-82560336D01*
X164565500Y-82476720D01*
X164565500Y-82386215D01*
X164565500Y-82341727D01*
X164583806Y-82297533D01*
X164598997Y-82282342D01*
X164621671Y-82259668D01*
X164668341Y-82178832D01*
X164685321Y-82115460D01*
X164692499Y-82088676D01*
X164692500Y-82088670D01*
X164692500Y-81995329D01*
X164692499Y-81995323D01*
X164678926Y-81944670D01*
X164668341Y-81905168D01*
X164621671Y-81824332D01*
X164555668Y-81758329D01*
X164474832Y-81711659D01*
X164474829Y-81711658D01*
X164384676Y-81687500D01*
X164384671Y-81687500D01*
X164291329Y-81687500D01*
X164291323Y-81687500D01*
X164201170Y-81711658D01*
X164201168Y-81711659D01*
X164120331Y-81758329D01*
X164054329Y-81824331D01*
X164007659Y-81905168D01*
X164007658Y-81905170D01*
X163983500Y-81995323D01*
X163983500Y-82088676D01*
X164007658Y-82178829D01*
X164007659Y-82178832D01*
X164022958Y-82205331D01*
X164054329Y-82259668D01*
X164077003Y-82282342D01*
X164095309Y-82326536D01*
X164077003Y-82370730D01*
X160707984Y-85739749D01*
X160663790Y-85758055D01*
X160619596Y-85739749D01*
X160607271Y-85718387D01*
X160605908Y-85718952D01*
X160604342Y-85715174D01*
X160604341Y-85715168D01*
X160557671Y-85634332D01*
X160491668Y-85568329D01*
X160410832Y-85521659D01*
X160410829Y-85521658D01*
X160320676Y-85497500D01*
X160320671Y-85497500D01*
X160227329Y-85497500D01*
X160227323Y-85497500D01*
X160137170Y-85521658D01*
X160137168Y-85521659D01*
X160056331Y-85568329D01*
X159990329Y-85634331D01*
X159943659Y-85715168D01*
X159943658Y-85715170D01*
X159919500Y-85805323D01*
X159919500Y-85858878D01*
X159901194Y-85903072D01*
X159717073Y-86087194D01*
X159672879Y-86105500D01*
X159121236Y-86105500D01*
X159077042Y-86087194D01*
X159058736Y-86043000D01*
X159067109Y-86011750D01*
X159074836Y-85998367D01*
X159080341Y-85988832D01*
X159100420Y-85913899D01*
X159104499Y-85898676D01*
X159104500Y-85898670D01*
X159104500Y-85805329D01*
X159104499Y-85805323D01*
X159090926Y-85754670D01*
X159080341Y-85715168D01*
X159033671Y-85634332D01*
X158967668Y-85568329D01*
X158886832Y-85521659D01*
X158886829Y-85521658D01*
X158796676Y-85497500D01*
X158796671Y-85497500D01*
X158703329Y-85497500D01*
X158703323Y-85497500D01*
X158613170Y-85521658D01*
X158613168Y-85521659D01*
X158532331Y-85568329D01*
X158494467Y-85606194D01*
X158450273Y-85624500D01*
X158069744Y-85624500D01*
X157986135Y-85659132D01*
X157986130Y-85659136D01*
X154864073Y-88781194D01*
X154819879Y-88799500D01*
X151676281Y-88799500D01*
X151632087Y-88781194D01*
X151613781Y-88737000D01*
X151625143Y-88709263D01*
X151624999Y-88700000D01*
X151625000Y-88700000D01*
X151604458Y-87375009D01*
X151581805Y-85913900D01*
X154747500Y-85913900D01*
X154747500Y-86026459D01*
X154747501Y-86026467D01*
X154776632Y-86135188D01*
X154776633Y-86135191D01*
X154832914Y-86232670D01*
X154832919Y-86232676D01*
X154912503Y-86312260D01*
X154912509Y-86312265D01*
X155009988Y-86368546D01*
X155009991Y-86368547D01*
X155118719Y-86397680D01*
X155118720Y-86397680D01*
X155231280Y-86397680D01*
X155231281Y-86397680D01*
X155340009Y-86368547D01*
X155437491Y-86312265D01*
X155517085Y-86232671D01*
X155573367Y-86135189D01*
X155602500Y-86026461D01*
X155602500Y-85913899D01*
X155573367Y-85805171D01*
X155573366Y-85805168D01*
X155517085Y-85707689D01*
X155517080Y-85707683D01*
X155437496Y-85628099D01*
X155437490Y-85628094D01*
X155340011Y-85571813D01*
X155340008Y-85571812D01*
X155231287Y-85542681D01*
X155231282Y-85542680D01*
X155231281Y-85542680D01*
X155118719Y-85542680D01*
X155118718Y-85542680D01*
X155118712Y-85542681D01*
X155009991Y-85571812D01*
X155009988Y-85571813D01*
X154912509Y-85628094D01*
X154912503Y-85628099D01*
X154832919Y-85707683D01*
X154832914Y-85707689D01*
X154776633Y-85805168D01*
X154776632Y-85805171D01*
X154747501Y-85913892D01*
X154747500Y-85913900D01*
X151581805Y-85913900D01*
X151581757Y-85910772D01*
X151575000Y-85475000D01*
X151287500Y-85475000D01*
X151243306Y-85456694D01*
X151225000Y-85412500D01*
X151225000Y-83500001D01*
X151225000Y-83500000D01*
X151194850Y-83475332D01*
X150485150Y-82894668D01*
X150400000Y-82825000D01*
X150399999Y-82825000D01*
X148655011Y-82825000D01*
X148645059Y-82824203D01*
X147099995Y-82574999D01*
X145075000Y-82549999D01*
X145075000Y-82550000D01*
X145075000Y-83550000D01*
X147074997Y-83550000D01*
X147075000Y-83550000D01*
X148519707Y-83305511D01*
X148694824Y-83275876D01*
X148705253Y-83275000D01*
X150375000Y-83275000D01*
X150418103Y-83292241D01*
X150905603Y-83756527D01*
X150924981Y-83800261D01*
X150925000Y-83801785D01*
X150925000Y-85412500D01*
X150906694Y-85456694D01*
X150862500Y-85475000D01*
X150650000Y-85475000D01*
X150700168Y-88710943D01*
X150710994Y-88736515D01*
X150693032Y-88780850D01*
X150648981Y-88799498D01*
X150648496Y-88799500D01*
X142238882Y-88799500D01*
X142155273Y-88834132D01*
X142155268Y-88834136D01*
X141954211Y-89035194D01*
X141910017Y-89053500D01*
X141178744Y-89053500D01*
X141095135Y-89088132D01*
X141095130Y-89088136D01*
X140894073Y-89289194D01*
X140849879Y-89307500D01*
X140796323Y-89307500D01*
X140706170Y-89331658D01*
X140706168Y-89331659D01*
X140625331Y-89378329D01*
X140559329Y-89444331D01*
X140512659Y-89525168D01*
X140512658Y-89525170D01*
X140488500Y-89615323D01*
X140488500Y-89708676D01*
X140512658Y-89798829D01*
X140512659Y-89798832D01*
X140559329Y-89879668D01*
X140625332Y-89945671D01*
X140629432Y-89948038D01*
X140655096Y-89962855D01*
X140684216Y-90000806D01*
X140677973Y-90048232D01*
X140640023Y-90077352D01*
X140579170Y-90093658D01*
X140579168Y-90093659D01*
X140498331Y-90140329D01*
X140432329Y-90206331D01*
X140385659Y-90287168D01*
X140385658Y-90287170D01*
X140361500Y-90377323D01*
X140361500Y-90470676D01*
X140380390Y-90541168D01*
X140385659Y-90560832D01*
X140432329Y-90641668D01*
X140498332Y-90707671D01*
X140579168Y-90754341D01*
X140621415Y-90765661D01*
X140669323Y-90778499D01*
X140669329Y-90778500D01*
X140762671Y-90778500D01*
X140762676Y-90778499D01*
X140789460Y-90771321D01*
X140852832Y-90754341D01*
X140933668Y-90707671D01*
X140971533Y-90669806D01*
X141015727Y-90651500D01*
X141396253Y-90651500D01*
X141424124Y-90639955D01*
X141479864Y-90616867D01*
X141479864Y-90616866D01*
X141479868Y-90616865D01*
X142268928Y-89827806D01*
X142313122Y-89809500D01*
X142381879Y-89809500D01*
X142426073Y-89827806D01*
X142444379Y-89872000D01*
X142426073Y-89916194D01*
X140523136Y-91819130D01*
X140523132Y-91819135D01*
X140488500Y-91902744D01*
X140488500Y-96474273D01*
X140470194Y-96518467D01*
X140432329Y-96556331D01*
X140385659Y-96637168D01*
X140385658Y-96637170D01*
X140361500Y-96727323D01*
X140361500Y-96820676D01*
X140379656Y-96888430D01*
X140385659Y-96910832D01*
X140432329Y-96991668D01*
X140498332Y-97057671D01*
X140554974Y-97090373D01*
X140573161Y-97100873D01*
X140602281Y-97138824D01*
X140596038Y-97186250D01*
X140573161Y-97209127D01*
X140498331Y-97252329D01*
X140432329Y-97318331D01*
X140385659Y-97399168D01*
X140385658Y-97399170D01*
X140361500Y-97489323D01*
X140361500Y-97582676D01*
X140378891Y-97647574D01*
X140385659Y-97672832D01*
X140432329Y-97753668D01*
X140498332Y-97819671D01*
X140579168Y-97866341D01*
X140579170Y-97866341D01*
X140579171Y-97866342D01*
X140669213Y-97890469D01*
X140707164Y-97919589D01*
X140713407Y-97967015D01*
X140697231Y-97995033D01*
X139061481Y-99630784D01*
X139017287Y-99649090D01*
X138986040Y-99640717D01*
X138947832Y-99618659D01*
X138947831Y-99618658D01*
X138947830Y-99618658D01*
X138857676Y-99594500D01*
X138857671Y-99594500D01*
X138764329Y-99594500D01*
X138764323Y-99594500D01*
X138674170Y-99618658D01*
X138674168Y-99618659D01*
X138593331Y-99665329D01*
X138527329Y-99731331D01*
X138480659Y-99812168D01*
X138480658Y-99812170D01*
X138456500Y-99902323D01*
X138456500Y-99966200D01*
X138438194Y-100010394D01*
X138394000Y-100028700D01*
X138349806Y-100010394D01*
X137405806Y-99066394D01*
X137387500Y-99022200D01*
X137387500Y-91393323D01*
X138075500Y-91393323D01*
X138075500Y-91486676D01*
X138099658Y-91576829D01*
X138099659Y-91576832D01*
X138146329Y-91657668D01*
X138212332Y-91723671D01*
X138293168Y-91770341D01*
X138335415Y-91781661D01*
X138383323Y-91794499D01*
X138383329Y-91794500D01*
X138476671Y-91794500D01*
X138476676Y-91794499D01*
X138503460Y-91787321D01*
X138566832Y-91770341D01*
X138647668Y-91723671D01*
X138713671Y-91657668D01*
X138760341Y-91576832D01*
X138784500Y-91486671D01*
X138784500Y-91393329D01*
X138784499Y-91393323D01*
X138765610Y-91322832D01*
X138760341Y-91303168D01*
X138713671Y-91222332D01*
X138647668Y-91156329D01*
X138566832Y-91109659D01*
X138566829Y-91109658D01*
X138476676Y-91085500D01*
X138476671Y-91085500D01*
X138383329Y-91085500D01*
X138383323Y-91085500D01*
X138293170Y-91109658D01*
X138293168Y-91109659D01*
X138212331Y-91156329D01*
X138146329Y-91222331D01*
X138099659Y-91303168D01*
X138099658Y-91303170D01*
X138075500Y-91393323D01*
X137387500Y-91393323D01*
X137387500Y-87456323D01*
X143155500Y-87456323D01*
X143155500Y-87549676D01*
X143179034Y-87637500D01*
X143179659Y-87639832D01*
X143226329Y-87720668D01*
X143292332Y-87786671D01*
X143373168Y-87833341D01*
X143415415Y-87844661D01*
X143463323Y-87857499D01*
X143463329Y-87857500D01*
X143556671Y-87857500D01*
X143556676Y-87857499D01*
X143583460Y-87850321D01*
X143646832Y-87833341D01*
X143727668Y-87786671D01*
X143793671Y-87720668D01*
X143840341Y-87639832D01*
X143857321Y-87576460D01*
X143864499Y-87549676D01*
X143864500Y-87549670D01*
X143864500Y-87456329D01*
X143864499Y-87456323D01*
X143851661Y-87408415D01*
X143840341Y-87366168D01*
X143793671Y-87285332D01*
X143727668Y-87219329D01*
X143646832Y-87172659D01*
X143646829Y-87172658D01*
X143556676Y-87148500D01*
X143556671Y-87148500D01*
X143463329Y-87148500D01*
X143463323Y-87148500D01*
X143373170Y-87172658D01*
X143373168Y-87172659D01*
X143292331Y-87219329D01*
X143226329Y-87285331D01*
X143179659Y-87366168D01*
X143179658Y-87366170D01*
X143155500Y-87456323D01*
X137387500Y-87456323D01*
X137387500Y-85424323D01*
X138202500Y-85424323D01*
X138202500Y-85517676D01*
X138226220Y-85606194D01*
X138226659Y-85607832D01*
X138273329Y-85688668D01*
X138339332Y-85754671D01*
X138420168Y-85801341D01*
X138462415Y-85812661D01*
X138510323Y-85825499D01*
X138510329Y-85825500D01*
X138603671Y-85825500D01*
X138603676Y-85825499D01*
X138630460Y-85818321D01*
X138693832Y-85801341D01*
X138774668Y-85754671D01*
X138840671Y-85688668D01*
X138887341Y-85607832D01*
X138904799Y-85542680D01*
X138911499Y-85517676D01*
X138911500Y-85517670D01*
X138911500Y-85424329D01*
X138911499Y-85424323D01*
X138898661Y-85376415D01*
X138887341Y-85334168D01*
X138840671Y-85253332D01*
X138774668Y-85187329D01*
X138693832Y-85140659D01*
X138693829Y-85140658D01*
X138603676Y-85116500D01*
X138603671Y-85116500D01*
X138510329Y-85116500D01*
X138510323Y-85116500D01*
X138420170Y-85140658D01*
X138420168Y-85140659D01*
X138339331Y-85187329D01*
X138273329Y-85253331D01*
X138226659Y-85334168D01*
X138226658Y-85334170D01*
X138202500Y-85424323D01*
X137387500Y-85424323D01*
X137387500Y-83686121D01*
X137405806Y-83641927D01*
X138671410Y-82376323D01*
X140361500Y-82376323D01*
X140361500Y-82469676D01*
X140378909Y-82534642D01*
X140385659Y-82559832D01*
X140432329Y-82640668D01*
X140498332Y-82706671D01*
X140527786Y-82723676D01*
X140573161Y-82749873D01*
X140602281Y-82787824D01*
X140596038Y-82835250D01*
X140573161Y-82858127D01*
X140498331Y-82901329D01*
X140432329Y-82967331D01*
X140385659Y-83048168D01*
X140385658Y-83048170D01*
X140361500Y-83138323D01*
X140361500Y-83231676D01*
X140385658Y-83321829D01*
X140385659Y-83321832D01*
X140432329Y-83402668D01*
X140498332Y-83468671D01*
X140579168Y-83515341D01*
X140621415Y-83526661D01*
X140669323Y-83539499D01*
X140669329Y-83539500D01*
X140722879Y-83539500D01*
X140767072Y-83557805D01*
X142238132Y-85028866D01*
X142295046Y-85052440D01*
X142321747Y-85063500D01*
X142321748Y-85063500D01*
X142412253Y-85063500D01*
X146475777Y-85063500D01*
X146519971Y-85081806D01*
X146538277Y-85126000D01*
X146519971Y-85170194D01*
X146491953Y-85186370D01*
X146434991Y-85201632D01*
X146434988Y-85201633D01*
X146337509Y-85257914D01*
X146337503Y-85257919D01*
X146257919Y-85337503D01*
X146257916Y-85337508D01*
X146257915Y-85337509D01*
X146246876Y-85356628D01*
X146201633Y-85434988D01*
X146201632Y-85434991D01*
X146172501Y-85543712D01*
X146172500Y-85543720D01*
X146172500Y-85656279D01*
X146172501Y-85656287D01*
X146201632Y-85765008D01*
X146201633Y-85765011D01*
X146257914Y-85862490D01*
X146257919Y-85862496D01*
X146337503Y-85942080D01*
X146337509Y-85942085D01*
X146434988Y-85998366D01*
X146434991Y-85998367D01*
X146543719Y-86027500D01*
X146543720Y-86027500D01*
X146656280Y-86027500D01*
X146656281Y-86027500D01*
X146765009Y-85998367D01*
X146862491Y-85942085D01*
X146942085Y-85862491D01*
X146998367Y-85765009D01*
X147027500Y-85656281D01*
X147027500Y-85543719D01*
X146998367Y-85434991D01*
X146998366Y-85434988D01*
X146962684Y-85373187D01*
X146942085Y-85337509D01*
X146942084Y-85337508D01*
X146942080Y-85337503D01*
X146862496Y-85257919D01*
X146862490Y-85257914D01*
X146765011Y-85201633D01*
X146765008Y-85201632D01*
X146708047Y-85186370D01*
X146670097Y-85157250D01*
X146663853Y-85109824D01*
X146692973Y-85071874D01*
X146724223Y-85063500D01*
X148163273Y-85063500D01*
X148207467Y-85081806D01*
X148245332Y-85119671D01*
X148326168Y-85166341D01*
X148368415Y-85177661D01*
X148416323Y-85190499D01*
X148416329Y-85190500D01*
X148509671Y-85190500D01*
X148509676Y-85190499D01*
X148536460Y-85183321D01*
X148599832Y-85166341D01*
X148680668Y-85119671D01*
X148746671Y-85053668D01*
X148793341Y-84972832D01*
X148817500Y-84882671D01*
X148817500Y-84789329D01*
X148817499Y-84789323D01*
X148804661Y-84741415D01*
X148793341Y-84699168D01*
X148746671Y-84618332D01*
X148680668Y-84552329D01*
X148599832Y-84505659D01*
X148599829Y-84505658D01*
X148509676Y-84481500D01*
X148509671Y-84481500D01*
X148416329Y-84481500D01*
X148416323Y-84481500D01*
X148326170Y-84505658D01*
X148326168Y-84505659D01*
X148245331Y-84552329D01*
X148207467Y-84590194D01*
X148163273Y-84608500D01*
X144500648Y-84608500D01*
X144456454Y-84590194D01*
X144438148Y-84546000D01*
X144446521Y-84514750D01*
X144475341Y-84464832D01*
X144499500Y-84374671D01*
X144499500Y-84281329D01*
X144499499Y-84281323D01*
X144486661Y-84233415D01*
X144475341Y-84191168D01*
X144428671Y-84110332D01*
X144362668Y-84044329D01*
X144281832Y-83997659D01*
X144281829Y-83997658D01*
X144191676Y-83973500D01*
X144191671Y-83973500D01*
X144098329Y-83973500D01*
X144098323Y-83973500D01*
X144008170Y-83997658D01*
X144008168Y-83997659D01*
X143927331Y-84044329D01*
X143861329Y-84110331D01*
X143814659Y-84191168D01*
X143814658Y-84191170D01*
X143790500Y-84281323D01*
X143790500Y-84374676D01*
X143814658Y-84464829D01*
X143814659Y-84464832D01*
X143826113Y-84484671D01*
X143843479Y-84514750D01*
X143849722Y-84562177D01*
X143820602Y-84600127D01*
X143789352Y-84608500D01*
X142487122Y-84608500D01*
X142442928Y-84590194D01*
X141088806Y-83236072D01*
X141070500Y-83191878D01*
X141070500Y-83138329D01*
X141070499Y-83138323D01*
X141051610Y-83067832D01*
X141046341Y-83048168D01*
X140999671Y-82967332D01*
X140933668Y-82901329D01*
X140933667Y-82901328D01*
X140858839Y-82858127D01*
X140829718Y-82820177D01*
X140835961Y-82772751D01*
X140858839Y-82749873D01*
X140869130Y-82743931D01*
X140933668Y-82706671D01*
X140999671Y-82640668D01*
X141046341Y-82559832D01*
X141048756Y-82550819D01*
X141064931Y-82522800D01*
X141465409Y-82122323D01*
X143663500Y-82122323D01*
X143663500Y-82215676D01*
X143682390Y-82286168D01*
X143687659Y-82305832D01*
X143734329Y-82386668D01*
X143800332Y-82452671D01*
X143881168Y-82499341D01*
X143923415Y-82510661D01*
X143971323Y-82523499D01*
X143971329Y-82523500D01*
X144064671Y-82523500D01*
X144064676Y-82523499D01*
X144091460Y-82516321D01*
X144154832Y-82499341D01*
X144235668Y-82452671D01*
X144301671Y-82386668D01*
X144348341Y-82305832D01*
X144372500Y-82215671D01*
X144372500Y-82122329D01*
X144372499Y-82122323D01*
X144357643Y-82066884D01*
X144348341Y-82032168D01*
X144301671Y-81951332D01*
X144235668Y-81885329D01*
X144154832Y-81838659D01*
X144154829Y-81838658D01*
X144064676Y-81814500D01*
X144064671Y-81814500D01*
X143971329Y-81814500D01*
X143971323Y-81814500D01*
X143881170Y-81838658D01*
X143881168Y-81838659D01*
X143800331Y-81885329D01*
X143734329Y-81951331D01*
X143687659Y-82032168D01*
X143687658Y-82032170D01*
X143663500Y-82122323D01*
X141465409Y-82122323D01*
X142651106Y-80936628D01*
X142695300Y-80918322D01*
X147065431Y-80918322D01*
X147093302Y-80906777D01*
X147149042Y-80883689D01*
X147149042Y-80883688D01*
X147149046Y-80883687D01*
X147189013Y-80843720D01*
X147842500Y-80843720D01*
X147842500Y-80956279D01*
X147842501Y-80956287D01*
X147871632Y-81065008D01*
X147871633Y-81065011D01*
X147927914Y-81162490D01*
X147927919Y-81162496D01*
X148007503Y-81242080D01*
X148007509Y-81242085D01*
X148104988Y-81298366D01*
X148104991Y-81298367D01*
X148213719Y-81327500D01*
X148213720Y-81327500D01*
X148326280Y-81327500D01*
X148326281Y-81327500D01*
X148435009Y-81298367D01*
X148532491Y-81242085D01*
X148612085Y-81162491D01*
X148668367Y-81065009D01*
X148697500Y-80956281D01*
X148697500Y-80843719D01*
X148668367Y-80734991D01*
X148668366Y-80734988D01*
X148612085Y-80637509D01*
X148612080Y-80637503D01*
X148532496Y-80557919D01*
X148532490Y-80557914D01*
X148435011Y-80501633D01*
X148435008Y-80501632D01*
X148326287Y-80472501D01*
X148326282Y-80472500D01*
X148326281Y-80472500D01*
X148213719Y-80472500D01*
X148213718Y-80472500D01*
X148213712Y-80472501D01*
X148104991Y-80501632D01*
X148104988Y-80501633D01*
X148007509Y-80557914D01*
X148007503Y-80557919D01*
X147927919Y-80637503D01*
X147927914Y-80637509D01*
X147871633Y-80734988D01*
X147871632Y-80734991D01*
X147842501Y-80843712D01*
X147842500Y-80843720D01*
X147189013Y-80843720D01*
X148157927Y-79874806D01*
X148202121Y-79856500D01*
X149306273Y-79856500D01*
X149350467Y-79874806D01*
X149388332Y-79912671D01*
X149469168Y-79959341D01*
X149511415Y-79970661D01*
X149559323Y-79983499D01*
X149559329Y-79983500D01*
X149652671Y-79983500D01*
X149652676Y-79983499D01*
X149679460Y-79976321D01*
X149742832Y-79959341D01*
X149823668Y-79912671D01*
X149889671Y-79846668D01*
X149936341Y-79765832D01*
X149960500Y-79675671D01*
X149960500Y-79582329D01*
X149960499Y-79582323D01*
X149946926Y-79531670D01*
X149936341Y-79492168D01*
X149889671Y-79411332D01*
X149823668Y-79345329D01*
X149742832Y-79298659D01*
X149742829Y-79298658D01*
X149652676Y-79274500D01*
X149652671Y-79274500D01*
X149559329Y-79274500D01*
X149559323Y-79274500D01*
X149469170Y-79298658D01*
X149469168Y-79298659D01*
X149388331Y-79345329D01*
X149350467Y-79383194D01*
X149306273Y-79401500D01*
X148036744Y-79401500D01*
X147953135Y-79436132D01*
X147953130Y-79436136D01*
X146944251Y-80445016D01*
X146900057Y-80463322D01*
X144336765Y-80463322D01*
X144292571Y-80445016D01*
X144274265Y-80400822D01*
X144282639Y-80369571D01*
X144308366Y-80325011D01*
X144308367Y-80325008D01*
X144337498Y-80216287D01*
X144337500Y-80216279D01*
X144337500Y-80103720D01*
X144337498Y-80103712D01*
X144308367Y-79994991D01*
X144308366Y-79994988D01*
X144252085Y-79897509D01*
X144252080Y-79897503D01*
X144172496Y-79817919D01*
X144172490Y-79817914D01*
X144075011Y-79761633D01*
X144075008Y-79761632D01*
X143966287Y-79732501D01*
X143966282Y-79732500D01*
X143966281Y-79732500D01*
X143853719Y-79732500D01*
X143853718Y-79732500D01*
X143853712Y-79732501D01*
X143744991Y-79761632D01*
X143744988Y-79761633D01*
X143647509Y-79817914D01*
X143647503Y-79817919D01*
X143567919Y-79897503D01*
X143567914Y-79897509D01*
X143511633Y-79994988D01*
X143511632Y-79994991D01*
X143482501Y-80103712D01*
X143482500Y-80103720D01*
X143482500Y-80216279D01*
X143482501Y-80216287D01*
X143511632Y-80325008D01*
X143511633Y-80325011D01*
X143537361Y-80369571D01*
X143543606Y-80416998D01*
X143514486Y-80454948D01*
X143483235Y-80463322D01*
X142529922Y-80463322D01*
X142507769Y-80472499D01*
X142507768Y-80472500D01*
X142446309Y-80497956D01*
X140877381Y-82066884D01*
X140833187Y-82085190D01*
X140817010Y-82083060D01*
X140762675Y-82068500D01*
X140762671Y-82068500D01*
X140669329Y-82068500D01*
X140669323Y-82068500D01*
X140579170Y-82092658D01*
X140579168Y-82092659D01*
X140498331Y-82139329D01*
X140432329Y-82205331D01*
X140385659Y-82286168D01*
X140385658Y-82286170D01*
X140361500Y-82376323D01*
X138671410Y-82376323D01*
X141846410Y-79201323D01*
X146203500Y-79201323D01*
X146203500Y-79294676D01*
X146227220Y-79383194D01*
X146227659Y-79384832D01*
X146274329Y-79465668D01*
X146340332Y-79531671D01*
X146421168Y-79578341D01*
X146463415Y-79589661D01*
X146511323Y-79602499D01*
X146511329Y-79602500D01*
X146604671Y-79602500D01*
X146604676Y-79602499D01*
X146631460Y-79595321D01*
X146694832Y-79578341D01*
X146775668Y-79531671D01*
X146841671Y-79465668D01*
X146888341Y-79384832D01*
X146905321Y-79321460D01*
X146912499Y-79294676D01*
X146912500Y-79294670D01*
X146912500Y-79201329D01*
X146912499Y-79201323D01*
X146899661Y-79153415D01*
X146888341Y-79111168D01*
X146841671Y-79030332D01*
X146775668Y-78964329D01*
X146694832Y-78917659D01*
X146694829Y-78917658D01*
X146604676Y-78893500D01*
X146604671Y-78893500D01*
X146511329Y-78893500D01*
X146511323Y-78893500D01*
X146421170Y-78917658D01*
X146421168Y-78917659D01*
X146340331Y-78964329D01*
X146274329Y-79030331D01*
X146227659Y-79111168D01*
X146227658Y-79111170D01*
X146203500Y-79201323D01*
X141846410Y-79201323D01*
X142823927Y-78223806D01*
X142868121Y-78205500D01*
X148139753Y-78205500D01*
X148167624Y-78193955D01*
X148223364Y-78170867D01*
X148223364Y-78170866D01*
X148223368Y-78170865D01*
X149833299Y-76560932D01*
X149877492Y-76542627D01*
X149901404Y-76547382D01*
X150052876Y-76610124D01*
X150223180Y-76644000D01*
X150396820Y-76644000D01*
X150532024Y-76617106D01*
X160872500Y-76617106D01*
X160872500Y-76882893D01*
X160907191Y-77146397D01*
X160907191Y-77146398D01*
X160975974Y-77403100D01*
X160975978Y-77403111D01*
X160975980Y-77403117D01*
X161030117Y-77533816D01*
X161077686Y-77648658D01*
X161077692Y-77648670D01*
X161210576Y-77878832D01*
X161210578Y-77878835D01*
X161372374Y-78089692D01*
X161560308Y-78277626D01*
X161771165Y-78439422D01*
X162001336Y-78572311D01*
X162246883Y-78674020D01*
X162246893Y-78674022D01*
X162246899Y-78674025D01*
X162503602Y-78742808D01*
X162503606Y-78742809D01*
X162767111Y-78777500D01*
X162767117Y-78777500D01*
X163032883Y-78777500D01*
X163032889Y-78777500D01*
X163296394Y-78742809D01*
X163296398Y-78742808D01*
X163553100Y-78674025D01*
X163553103Y-78674023D01*
X163553117Y-78674020D01*
X163798664Y-78572311D01*
X164028835Y-78439422D01*
X164239692Y-78277626D01*
X164427626Y-78089692D01*
X164589422Y-77878835D01*
X164722311Y-77648664D01*
X164824020Y-77403117D01*
X164829159Y-77383940D01*
X164892808Y-77146398D01*
X164892808Y-77146397D01*
X164892809Y-77146394D01*
X164927500Y-76882889D01*
X164927500Y-76617111D01*
X164892809Y-76353606D01*
X164892808Y-76353601D01*
X164824025Y-76096899D01*
X164824022Y-76096893D01*
X164824020Y-76096883D01*
X164722311Y-75851336D01*
X164589422Y-75621165D01*
X164427626Y-75410308D01*
X164239692Y-75222374D01*
X164239688Y-75222371D01*
X164239686Y-75222369D01*
X164028832Y-75060576D01*
X163798670Y-74927692D01*
X163798658Y-74927686D01*
X163671722Y-74875108D01*
X163553117Y-74825980D01*
X163553111Y-74825978D01*
X163553100Y-74825974D01*
X163296397Y-74757191D01*
X163032893Y-74722500D01*
X163032889Y-74722500D01*
X162767111Y-74722500D01*
X162767106Y-74722500D01*
X162503602Y-74757191D01*
X162503601Y-74757191D01*
X162246899Y-74825974D01*
X162246884Y-74825979D01*
X162246883Y-74825980D01*
X162246881Y-74825981D01*
X162001341Y-74927686D01*
X162001329Y-74927692D01*
X161771167Y-75060576D01*
X161560313Y-75222369D01*
X161560303Y-75222378D01*
X161372378Y-75410303D01*
X161372369Y-75410313D01*
X161210576Y-75621167D01*
X161077692Y-75851329D01*
X161077686Y-75851341D01*
X160975981Y-76096881D01*
X160975974Y-76096899D01*
X160907191Y-76353601D01*
X160907191Y-76353602D01*
X160872500Y-76617106D01*
X150532024Y-76617106D01*
X150567124Y-76610124D01*
X150727547Y-76543675D01*
X150871923Y-76447206D01*
X150994706Y-76324423D01*
X151091175Y-76180047D01*
X151157624Y-76019624D01*
X151191500Y-75849320D01*
X151191500Y-75675680D01*
X151157624Y-75505376D01*
X151091175Y-75344953D01*
X150994706Y-75200577D01*
X150871923Y-75077794D01*
X150871922Y-75077793D01*
X150727548Y-74981325D01*
X150727545Y-74981324D01*
X150694318Y-74967561D01*
X150567124Y-74914876D01*
X150567120Y-74914875D01*
X150396820Y-74881000D01*
X150223180Y-74881000D01*
X150052879Y-74914875D01*
X150052877Y-74914875D01*
X150052876Y-74914876D01*
X150021950Y-74927686D01*
X149892454Y-74981324D01*
X149892451Y-74981325D01*
X149748077Y-75077793D01*
X149625293Y-75200577D01*
X149528825Y-75344951D01*
X149528824Y-75344954D01*
X149462375Y-75505379D01*
X149439344Y-75621165D01*
X149428500Y-75675680D01*
X149428500Y-75849320D01*
X149462376Y-76019624D01*
X149478964Y-76059670D01*
X149525114Y-76171089D01*
X149525113Y-76218924D01*
X149511565Y-76239200D01*
X148018573Y-77732194D01*
X147974379Y-77750500D01*
X146254621Y-77750500D01*
X146210427Y-77732194D01*
X146192121Y-77688000D01*
X146210427Y-77643806D01*
X146742907Y-77111326D01*
X147293300Y-76560932D01*
X147337493Y-76542627D01*
X147361408Y-76547384D01*
X147512876Y-76610124D01*
X147683180Y-76644000D01*
X147856820Y-76644000D01*
X148027124Y-76610124D01*
X148187547Y-76543675D01*
X148331923Y-76447206D01*
X148454706Y-76324423D01*
X148551175Y-76180047D01*
X148617624Y-76019624D01*
X148651500Y-75849320D01*
X148651500Y-75675680D01*
X148617624Y-75505376D01*
X148551175Y-75344953D01*
X148454706Y-75200577D01*
X148331923Y-75077794D01*
X148331922Y-75077793D01*
X148187548Y-74981325D01*
X148187545Y-74981324D01*
X148154318Y-74967561D01*
X148027124Y-74914876D01*
X148027120Y-74914875D01*
X147856820Y-74881000D01*
X147683180Y-74881000D01*
X147512879Y-74914875D01*
X147512877Y-74914875D01*
X147512876Y-74914876D01*
X147481950Y-74927686D01*
X147352454Y-74981324D01*
X147352451Y-74981325D01*
X147208077Y-75077793D01*
X147085293Y-75200577D01*
X146988825Y-75344951D01*
X146988824Y-75344954D01*
X146922375Y-75505379D01*
X146899344Y-75621165D01*
X146888500Y-75675680D01*
X146888500Y-75849320D01*
X146922376Y-76019624D01*
X146938964Y-76059670D01*
X146985114Y-76171088D01*
X146985113Y-76218923D01*
X146971565Y-76239199D01*
X145986573Y-77224194D01*
X145942379Y-77242500D01*
X144434753Y-77242500D01*
X144390559Y-77224194D01*
X144372253Y-77180000D01*
X144390559Y-77135806D01*
X144643483Y-76882882D01*
X144903300Y-76623064D01*
X144947493Y-76604759D01*
X144971410Y-76609516D01*
X144972876Y-76610124D01*
X145143180Y-76644000D01*
X145316820Y-76644000D01*
X145487124Y-76610124D01*
X145647547Y-76543675D01*
X145791923Y-76447206D01*
X145914706Y-76324423D01*
X146011175Y-76180047D01*
X146077624Y-76019624D01*
X146111500Y-75849320D01*
X146111500Y-75675680D01*
X146077624Y-75505376D01*
X146011175Y-75344953D01*
X145914706Y-75200577D01*
X145791923Y-75077794D01*
X145791922Y-75077793D01*
X145647548Y-74981325D01*
X145647545Y-74981324D01*
X145614318Y-74967561D01*
X145487124Y-74914876D01*
X145487120Y-74914875D01*
X145316820Y-74881000D01*
X145143180Y-74881000D01*
X144972879Y-74914875D01*
X144972877Y-74914875D01*
X144972876Y-74914876D01*
X144941950Y-74927686D01*
X144812454Y-74981324D01*
X144812451Y-74981325D01*
X144668077Y-75077793D01*
X144545293Y-75200577D01*
X144448825Y-75344951D01*
X144448824Y-75344954D01*
X144382375Y-75505379D01*
X144348500Y-75675679D01*
X144348500Y-75849320D01*
X144382376Y-76019625D01*
X144382984Y-76021093D01*
X144382983Y-76021629D01*
X144383268Y-76022566D01*
X144382983Y-76022652D01*
X144382979Y-76068929D01*
X144369433Y-76089199D01*
X143886941Y-76571694D01*
X143842747Y-76590000D01*
X143634000Y-76590000D01*
X143589806Y-76571694D01*
X143571500Y-76527500D01*
X143571500Y-74995942D01*
X143568592Y-74981324D01*
X143564102Y-74958752D01*
X143564101Y-74958750D01*
X143535922Y-74916577D01*
X143493748Y-74888398D01*
X143456558Y-74881000D01*
X141923442Y-74881000D01*
X141904847Y-74884699D01*
X141886251Y-74888398D01*
X141886250Y-74888398D01*
X141844077Y-74916577D01*
X141815898Y-74958750D01*
X141815898Y-74958751D01*
X141815898Y-74958752D01*
X141808500Y-74995942D01*
X141808500Y-76529058D01*
X141814841Y-76560933D01*
X141817099Y-76572285D01*
X141815108Y-76572680D01*
X141815106Y-76612180D01*
X141788616Y-76642384D01*
X141748710Y-76665424D01*
X141748704Y-76665429D01*
X133174929Y-85239204D01*
X133174924Y-85239210D01*
X133125227Y-85325286D01*
X133125226Y-85325290D01*
X133121952Y-85337509D01*
X133121952Y-85337510D01*
X133099500Y-85421296D01*
X133099500Y-90876747D01*
X133081194Y-90920941D01*
X131877941Y-92124194D01*
X131833747Y-92142500D01*
X130500296Y-92142500D01*
X130404293Y-92168225D01*
X130404291Y-92168225D01*
X130318208Y-92217926D01*
X130318204Y-92217929D01*
X130247929Y-92288204D01*
X130247926Y-92288208D01*
X130198225Y-92374291D01*
X130198225Y-92374293D01*
X130172500Y-92470296D01*
X126300500Y-92470296D01*
X126300500Y-91563323D01*
X128005500Y-91563323D01*
X128005500Y-91656676D01*
X128029658Y-91746829D01*
X128029659Y-91746832D01*
X128076329Y-91827668D01*
X128142332Y-91893671D01*
X128223168Y-91940341D01*
X128265415Y-91951661D01*
X128313323Y-91964499D01*
X128313329Y-91964500D01*
X128406671Y-91964500D01*
X128406676Y-91964499D01*
X128433460Y-91957321D01*
X128496832Y-91940341D01*
X128577668Y-91893671D01*
X128643671Y-91827668D01*
X128690341Y-91746832D01*
X128714500Y-91656671D01*
X128714500Y-91563329D01*
X128714499Y-91563323D01*
X128700401Y-91510712D01*
X128690341Y-91473168D01*
X128643671Y-91392332D01*
X128577668Y-91326329D01*
X128496832Y-91279659D01*
X128496829Y-91279658D01*
X128406676Y-91255500D01*
X128406671Y-91255500D01*
X128313329Y-91255500D01*
X128313323Y-91255500D01*
X128223170Y-91279658D01*
X128223168Y-91279659D01*
X128142331Y-91326329D01*
X128076329Y-91392331D01*
X128029659Y-91473168D01*
X128029658Y-91473170D01*
X128005500Y-91563323D01*
X126300500Y-91563323D01*
X126300500Y-89234323D01*
X130074500Y-89234323D01*
X130074500Y-89327676D01*
X130098658Y-89417829D01*
X130098659Y-89417832D01*
X130145329Y-89498668D01*
X130211332Y-89564671D01*
X130292168Y-89611341D01*
X130334415Y-89622661D01*
X130382323Y-89635499D01*
X130382329Y-89635500D01*
X130475671Y-89635500D01*
X130475676Y-89635499D01*
X130502460Y-89628321D01*
X130565832Y-89611341D01*
X130646668Y-89564671D01*
X130712671Y-89498668D01*
X130759341Y-89417832D01*
X130776321Y-89354460D01*
X130783499Y-89327676D01*
X130783500Y-89327670D01*
X130783500Y-89234329D01*
X130783499Y-89234323D01*
X130770661Y-89186415D01*
X130759341Y-89144168D01*
X130712671Y-89063332D01*
X130646668Y-88997329D01*
X130565832Y-88950659D01*
X130565829Y-88950658D01*
X130475676Y-88926500D01*
X130475671Y-88926500D01*
X130382329Y-88926500D01*
X130382323Y-88926500D01*
X130292170Y-88950658D01*
X130292168Y-88950659D01*
X130211331Y-88997329D01*
X130145329Y-89063331D01*
X130098659Y-89144168D01*
X130098658Y-89144170D01*
X130074500Y-89234323D01*
X126300500Y-89234323D01*
X126300500Y-87964323D01*
X131979500Y-87964323D01*
X131979500Y-88057676D01*
X132003658Y-88147829D01*
X132003659Y-88147832D01*
X132050329Y-88228668D01*
X132116332Y-88294671D01*
X132197168Y-88341341D01*
X132239415Y-88352661D01*
X132287323Y-88365499D01*
X132287329Y-88365500D01*
X132380671Y-88365500D01*
X132380676Y-88365499D01*
X132407460Y-88358321D01*
X132470832Y-88341341D01*
X132551668Y-88294671D01*
X132617671Y-88228668D01*
X132664341Y-88147832D01*
X132688500Y-88057671D01*
X132688500Y-87964329D01*
X132688499Y-87964323D01*
X132675661Y-87916415D01*
X132664341Y-87874168D01*
X132617671Y-87793332D01*
X132551668Y-87727329D01*
X132470832Y-87680659D01*
X132470829Y-87680658D01*
X132380676Y-87656500D01*
X132380671Y-87656500D01*
X132287329Y-87656500D01*
X132287323Y-87656500D01*
X132197170Y-87680658D01*
X132197168Y-87680659D01*
X132116331Y-87727329D01*
X132050329Y-87793331D01*
X132003659Y-87874168D01*
X132003658Y-87874170D01*
X131979500Y-87964323D01*
X126300500Y-87964323D01*
X126300500Y-86694323D01*
X130963500Y-86694323D01*
X130963500Y-86787676D01*
X130981237Y-86853867D01*
X130987659Y-86877832D01*
X131034329Y-86958668D01*
X131100332Y-87024671D01*
X131181168Y-87071341D01*
X131223415Y-87082661D01*
X131271323Y-87095499D01*
X131271329Y-87095500D01*
X131364671Y-87095500D01*
X131364676Y-87095499D01*
X131391460Y-87088321D01*
X131454832Y-87071341D01*
X131535668Y-87024671D01*
X131601671Y-86958668D01*
X131648341Y-86877832D01*
X131672500Y-86787671D01*
X131672500Y-86694329D01*
X131672499Y-86694323D01*
X131979500Y-86694323D01*
X131979500Y-86787676D01*
X131997237Y-86853867D01*
X132003659Y-86877832D01*
X132050329Y-86958668D01*
X132116332Y-87024671D01*
X132197168Y-87071341D01*
X132239415Y-87082661D01*
X132287323Y-87095499D01*
X132287329Y-87095500D01*
X132380671Y-87095500D01*
X132380676Y-87095499D01*
X132407460Y-87088321D01*
X132470832Y-87071341D01*
X132551668Y-87024671D01*
X132617671Y-86958668D01*
X132664341Y-86877832D01*
X132688500Y-86787671D01*
X132688500Y-86694329D01*
X132688499Y-86694323D01*
X132675661Y-86646415D01*
X132664341Y-86604168D01*
X132617671Y-86523332D01*
X132551668Y-86457329D01*
X132470832Y-86410659D01*
X132470829Y-86410658D01*
X132380676Y-86386500D01*
X132380671Y-86386500D01*
X132287329Y-86386500D01*
X132287323Y-86386500D01*
X132197170Y-86410658D01*
X132197168Y-86410659D01*
X132116331Y-86457329D01*
X132050329Y-86523331D01*
X132003659Y-86604168D01*
X132003658Y-86604170D01*
X131979500Y-86694323D01*
X131672499Y-86694323D01*
X131659661Y-86646415D01*
X131648341Y-86604168D01*
X131601671Y-86523332D01*
X131535668Y-86457329D01*
X131454832Y-86410659D01*
X131454829Y-86410658D01*
X131364676Y-86386500D01*
X131364671Y-86386500D01*
X131271329Y-86386500D01*
X131271323Y-86386500D01*
X131181170Y-86410658D01*
X131181168Y-86410659D01*
X131100331Y-86457329D01*
X131034329Y-86523331D01*
X130987659Y-86604168D01*
X130987658Y-86604170D01*
X130963500Y-86694323D01*
X126300500Y-86694323D01*
X126300500Y-85424323D01*
X129947500Y-85424323D01*
X129947500Y-85517676D01*
X129971220Y-85606194D01*
X129971659Y-85607832D01*
X130018329Y-85688668D01*
X130084332Y-85754671D01*
X130165168Y-85801341D01*
X130207415Y-85812661D01*
X130255323Y-85825499D01*
X130255329Y-85825500D01*
X130348671Y-85825500D01*
X130348676Y-85825499D01*
X130375460Y-85818321D01*
X130438832Y-85801341D01*
X130519668Y-85754671D01*
X130585671Y-85688668D01*
X130632341Y-85607832D01*
X130649799Y-85542680D01*
X130656499Y-85517676D01*
X130656500Y-85517670D01*
X130656500Y-85424329D01*
X130656499Y-85424323D01*
X130643661Y-85376415D01*
X130632341Y-85334168D01*
X130585671Y-85253332D01*
X130519668Y-85187329D01*
X130438832Y-85140659D01*
X130438829Y-85140658D01*
X130348676Y-85116500D01*
X130348671Y-85116500D01*
X130255329Y-85116500D01*
X130255323Y-85116500D01*
X130165170Y-85140658D01*
X130165168Y-85140659D01*
X130084331Y-85187329D01*
X130018329Y-85253331D01*
X129971659Y-85334168D01*
X129971658Y-85334170D01*
X129947500Y-85424323D01*
X126300500Y-85424323D01*
X126300500Y-84154323D01*
X127153500Y-84154323D01*
X127153500Y-84247676D01*
X127177658Y-84337829D01*
X127177659Y-84337832D01*
X127224329Y-84418668D01*
X127290332Y-84484671D01*
X127371168Y-84531341D01*
X127413415Y-84542661D01*
X127461323Y-84555499D01*
X127461329Y-84555500D01*
X127554671Y-84555500D01*
X127554676Y-84555499D01*
X127581460Y-84548321D01*
X127644832Y-84531341D01*
X127725668Y-84484671D01*
X127791671Y-84418668D01*
X127838341Y-84337832D01*
X127862500Y-84247671D01*
X127862500Y-84154329D01*
X127862499Y-84154323D01*
X127849661Y-84106415D01*
X127838341Y-84064168D01*
X127791671Y-83983332D01*
X127725668Y-83917329D01*
X127644832Y-83870659D01*
X127644829Y-83870658D01*
X127554676Y-83846500D01*
X127554671Y-83846500D01*
X127461329Y-83846500D01*
X127461323Y-83846500D01*
X127371170Y-83870658D01*
X127371168Y-83870659D01*
X127290331Y-83917329D01*
X127224329Y-83983331D01*
X127177659Y-84064168D01*
X127177658Y-84064170D01*
X127153500Y-84154323D01*
X126300500Y-84154323D01*
X126300500Y-83519323D01*
X131725500Y-83519323D01*
X131725500Y-83612676D01*
X131738244Y-83660233D01*
X131749659Y-83702832D01*
X131796329Y-83783668D01*
X131862332Y-83849671D01*
X131943168Y-83896341D01*
X131985415Y-83907661D01*
X132033323Y-83920499D01*
X132033329Y-83920500D01*
X132126671Y-83920500D01*
X132126676Y-83920499D01*
X132153460Y-83913321D01*
X132216832Y-83896341D01*
X132297668Y-83849671D01*
X132363671Y-83783668D01*
X132410341Y-83702832D01*
X132434500Y-83612671D01*
X132434500Y-83519329D01*
X132434499Y-83519323D01*
X132416347Y-83451584D01*
X132410341Y-83429168D01*
X132363671Y-83348332D01*
X132297668Y-83282329D01*
X132216832Y-83235659D01*
X132216829Y-83235658D01*
X132126676Y-83211500D01*
X132126671Y-83211500D01*
X132033329Y-83211500D01*
X132033323Y-83211500D01*
X131943170Y-83235658D01*
X131943168Y-83235659D01*
X131862331Y-83282329D01*
X131796329Y-83348331D01*
X131749659Y-83429168D01*
X131749658Y-83429170D01*
X131725500Y-83519323D01*
X126300500Y-83519323D01*
X126300500Y-82630323D01*
X129947500Y-82630323D01*
X129947500Y-82723676D01*
X129964690Y-82787824D01*
X129971659Y-82813832D01*
X130018329Y-82894668D01*
X130084332Y-82960671D01*
X130165168Y-83007341D01*
X130207415Y-83018661D01*
X130255323Y-83031499D01*
X130255329Y-83031500D01*
X130348671Y-83031500D01*
X130348676Y-83031499D01*
X130375460Y-83024321D01*
X130438832Y-83007341D01*
X130519668Y-82960671D01*
X130585671Y-82894668D01*
X130591644Y-82884323D01*
X130836500Y-82884323D01*
X130836500Y-82977676D01*
X130855390Y-83048168D01*
X130860659Y-83067832D01*
X130907329Y-83148668D01*
X130973332Y-83214671D01*
X131054168Y-83261341D01*
X131096415Y-83272661D01*
X131144323Y-83285499D01*
X131144329Y-83285500D01*
X131237671Y-83285500D01*
X131237676Y-83285499D01*
X131264460Y-83278321D01*
X131327832Y-83261341D01*
X131408668Y-83214671D01*
X131474671Y-83148668D01*
X131521341Y-83067832D01*
X131545500Y-82977671D01*
X131545500Y-82884329D01*
X131545499Y-82884323D01*
X131529603Y-82825001D01*
X131521341Y-82794168D01*
X131474671Y-82713332D01*
X131408668Y-82647329D01*
X131327832Y-82600659D01*
X131327829Y-82600658D01*
X131237676Y-82576500D01*
X131237671Y-82576500D01*
X131144329Y-82576500D01*
X131144323Y-82576500D01*
X131054170Y-82600658D01*
X131054168Y-82600659D01*
X130973331Y-82647329D01*
X130907329Y-82713331D01*
X130860659Y-82794168D01*
X130860658Y-82794170D01*
X130836500Y-82884323D01*
X130591644Y-82884323D01*
X130632341Y-82813832D01*
X130656500Y-82723671D01*
X130656500Y-82630329D01*
X130656499Y-82630323D01*
X130637610Y-82559832D01*
X130632341Y-82540168D01*
X130585671Y-82459332D01*
X130519668Y-82393329D01*
X130438832Y-82346659D01*
X130438829Y-82346658D01*
X130348676Y-82322500D01*
X130348671Y-82322500D01*
X130255329Y-82322500D01*
X130255323Y-82322500D01*
X130165170Y-82346658D01*
X130165168Y-82346659D01*
X130084331Y-82393329D01*
X130018329Y-82459331D01*
X129971659Y-82540168D01*
X129971658Y-82540170D01*
X129947500Y-82630323D01*
X126300500Y-82630323D01*
X126300500Y-81995323D01*
X126772500Y-81995323D01*
X126772500Y-82088676D01*
X126796658Y-82178829D01*
X126796659Y-82178832D01*
X126843329Y-82259668D01*
X126909332Y-82325671D01*
X126990168Y-82372341D01*
X127032415Y-82383661D01*
X127080323Y-82396499D01*
X127080329Y-82396500D01*
X127173671Y-82396500D01*
X127173676Y-82396499D01*
X127200460Y-82389321D01*
X127263832Y-82372341D01*
X127344668Y-82325671D01*
X127410671Y-82259668D01*
X127457341Y-82178832D01*
X127474321Y-82115460D01*
X127481499Y-82088676D01*
X127481500Y-82088670D01*
X127481500Y-81995329D01*
X127481499Y-81995323D01*
X127467926Y-81944670D01*
X127457341Y-81905168D01*
X127410671Y-81824332D01*
X127344668Y-81758329D01*
X127263832Y-81711659D01*
X127263829Y-81711658D01*
X127173676Y-81687500D01*
X127173671Y-81687500D01*
X127080329Y-81687500D01*
X127080323Y-81687500D01*
X126990170Y-81711658D01*
X126990168Y-81711659D01*
X126909331Y-81758329D01*
X126843329Y-81824331D01*
X126796659Y-81905168D01*
X126796658Y-81905170D01*
X126772500Y-81995323D01*
X126300500Y-81995323D01*
X126300500Y-81614323D01*
X130074500Y-81614323D01*
X130074500Y-81707676D01*
X130098658Y-81797829D01*
X130098659Y-81797832D01*
X130145329Y-81878668D01*
X130211332Y-81944671D01*
X130292168Y-81991341D01*
X130334415Y-82002661D01*
X130382323Y-82015499D01*
X130382329Y-82015500D01*
X130475671Y-82015500D01*
X130475676Y-82015499D01*
X130502460Y-82008321D01*
X130565832Y-81991341D01*
X130646668Y-81944671D01*
X130712671Y-81878668D01*
X130759341Y-81797832D01*
X130776321Y-81734460D01*
X130783499Y-81707676D01*
X130783500Y-81707670D01*
X130783500Y-81614329D01*
X130783499Y-81614323D01*
X130770661Y-81566415D01*
X130759341Y-81524168D01*
X130712671Y-81443332D01*
X130646668Y-81377329D01*
X130565832Y-81330659D01*
X130565829Y-81330658D01*
X130475676Y-81306500D01*
X130475671Y-81306500D01*
X130382329Y-81306500D01*
X130382323Y-81306500D01*
X130292170Y-81330658D01*
X130292168Y-81330659D01*
X130211331Y-81377329D01*
X130145329Y-81443331D01*
X130098659Y-81524168D01*
X130098658Y-81524170D01*
X130074500Y-81614323D01*
X126300500Y-81614323D01*
X126300500Y-80725323D01*
X130582500Y-80725323D01*
X130582500Y-80818676D01*
X130606658Y-80908829D01*
X130606659Y-80908832D01*
X130653329Y-80989668D01*
X130719332Y-81055671D01*
X130800168Y-81102341D01*
X130842415Y-81113661D01*
X130890323Y-81126499D01*
X130890329Y-81126500D01*
X130983671Y-81126500D01*
X130983676Y-81126499D01*
X131010460Y-81119321D01*
X131073832Y-81102341D01*
X131154668Y-81055671D01*
X131220671Y-80989668D01*
X131267341Y-80908832D01*
X131291500Y-80818671D01*
X131291500Y-80725329D01*
X131291499Y-80725323D01*
X131471500Y-80725323D01*
X131471500Y-80818676D01*
X131495658Y-80908829D01*
X131495659Y-80908832D01*
X131542329Y-80989668D01*
X131608332Y-81055671D01*
X131689168Y-81102341D01*
X131731415Y-81113661D01*
X131779323Y-81126499D01*
X131779329Y-81126500D01*
X131872671Y-81126500D01*
X131872676Y-81126499D01*
X131899460Y-81119321D01*
X131962832Y-81102341D01*
X132043668Y-81055671D01*
X132109671Y-80989668D01*
X132156341Y-80908832D01*
X132180500Y-80818671D01*
X132180500Y-80725329D01*
X132180499Y-80725323D01*
X132156968Y-80637509D01*
X132156341Y-80635168D01*
X132109671Y-80554332D01*
X132043668Y-80488329D01*
X131962832Y-80441659D01*
X131962829Y-80441658D01*
X131872676Y-80417500D01*
X131872671Y-80417500D01*
X131779329Y-80417500D01*
X131779323Y-80417500D01*
X131689170Y-80441658D01*
X131689168Y-80441659D01*
X131608331Y-80488329D01*
X131542329Y-80554331D01*
X131495659Y-80635168D01*
X131495658Y-80635170D01*
X131471500Y-80725323D01*
X131291499Y-80725323D01*
X131267968Y-80637509D01*
X131267341Y-80635168D01*
X131220671Y-80554332D01*
X131154668Y-80488329D01*
X131073832Y-80441659D01*
X131073829Y-80441658D01*
X130983676Y-80417500D01*
X130983671Y-80417500D01*
X130890329Y-80417500D01*
X130890323Y-80417500D01*
X130800170Y-80441658D01*
X130800168Y-80441659D01*
X130719331Y-80488329D01*
X130653329Y-80554331D01*
X130606659Y-80635168D01*
X130606658Y-80635170D01*
X130582500Y-80725323D01*
X126300500Y-80725323D01*
X126300500Y-78201374D01*
X126300559Y-78198648D01*
X126318264Y-77793129D01*
X126318740Y-77787697D01*
X126319866Y-77779147D01*
X126371542Y-77386621D01*
X126372481Y-77381296D01*
X126460043Y-76986335D01*
X126461452Y-76981078D01*
X126560977Y-76665425D01*
X126576212Y-76617106D01*
X127372500Y-76617106D01*
X127372500Y-76882893D01*
X127407191Y-77146397D01*
X127407191Y-77146398D01*
X127475974Y-77403100D01*
X127475978Y-77403111D01*
X127475980Y-77403117D01*
X127530117Y-77533816D01*
X127577686Y-77648658D01*
X127577692Y-77648670D01*
X127710576Y-77878832D01*
X127710578Y-77878835D01*
X127872374Y-78089692D01*
X128060308Y-78277626D01*
X128271165Y-78439422D01*
X128501336Y-78572311D01*
X128746883Y-78674020D01*
X128746893Y-78674022D01*
X128746899Y-78674025D01*
X129003602Y-78742808D01*
X129003606Y-78742809D01*
X129267111Y-78777500D01*
X129267117Y-78777500D01*
X129532883Y-78777500D01*
X129532889Y-78777500D01*
X129796394Y-78742809D01*
X129796398Y-78742808D01*
X130053100Y-78674025D01*
X130053103Y-78674023D01*
X130053117Y-78674020D01*
X130298664Y-78572311D01*
X130528835Y-78439422D01*
X130739692Y-78277626D01*
X130927626Y-78089692D01*
X131089422Y-77878835D01*
X131222311Y-77648664D01*
X131324020Y-77403117D01*
X131329159Y-77383940D01*
X131392808Y-77146398D01*
X131392808Y-77146397D01*
X131392809Y-77146394D01*
X131427500Y-76882889D01*
X131427500Y-76617111D01*
X131392809Y-76353606D01*
X131392808Y-76353601D01*
X131324025Y-76096899D01*
X131324022Y-76096893D01*
X131324020Y-76096883D01*
X131222311Y-75851336D01*
X131089422Y-75621165D01*
X130927626Y-75410308D01*
X130739692Y-75222374D01*
X130739688Y-75222371D01*
X130739686Y-75222369D01*
X130528832Y-75060576D01*
X130298670Y-74927692D01*
X130298658Y-74927686D01*
X130171722Y-74875108D01*
X130053117Y-74825980D01*
X130053111Y-74825978D01*
X130053100Y-74825974D01*
X129796397Y-74757191D01*
X129532893Y-74722500D01*
X129532889Y-74722500D01*
X129267111Y-74722500D01*
X129267106Y-74722500D01*
X129003602Y-74757191D01*
X129003601Y-74757191D01*
X128746899Y-74825974D01*
X128746884Y-74825979D01*
X128746883Y-74825980D01*
X128746881Y-74825981D01*
X128501341Y-74927686D01*
X128501329Y-74927692D01*
X128271167Y-75060576D01*
X128060313Y-75222369D01*
X128060303Y-75222378D01*
X127872378Y-75410303D01*
X127872369Y-75410313D01*
X127710576Y-75621167D01*
X127577692Y-75851329D01*
X127577686Y-75851341D01*
X127475981Y-76096881D01*
X127475974Y-76096899D01*
X127407191Y-76353601D01*
X127407191Y-76353602D01*
X127372500Y-76617106D01*
X126576212Y-76617106D01*
X126583099Y-76595262D01*
X126584954Y-76590166D01*
X126739768Y-76216411D01*
X126742059Y-76211499D01*
X126928864Y-75852651D01*
X126931565Y-75847971D01*
X127148931Y-75506775D01*
X127152044Y-75502328D01*
X127398329Y-75181362D01*
X127401809Y-75177217D01*
X127675112Y-74878959D01*
X127678964Y-74875108D01*
X127977217Y-74601809D01*
X127981362Y-74598329D01*
X128302328Y-74352044D01*
X128306775Y-74348931D01*
X128647971Y-74131565D01*
X128652651Y-74128864D01*
X129011499Y-73942059D01*
X129016411Y-73939768D01*
X129390166Y-73784954D01*
X129395265Y-73783098D01*
X129781086Y-73661449D01*
X129786335Y-73660043D01*
X130181296Y-73572481D01*
X130186621Y-73571542D01*
X130587706Y-73518739D01*
X130593120Y-73518264D01*
X130998649Y-73500559D01*
X131001375Y-73500500D01*
X131047595Y-73500500D01*
X161242405Y-73500500D01*
X161288625Y-73500500D01*
X161291351Y-73500559D01*
G37*
%TD.AperFunction*%
%TD*%
M02*
