M48
; DRILL file {KiCad 9.0.7} date 2026-04-25T22:31:22-0700
; FORMAT={-:-/ absolute / inch / decimal}
; #@! TF.CreationDate,2026-04-25T22:31:22-07:00
; #@! TF.GenerationSoftware,Kicad,Pcbnew,9.0.7
; #@! TF.FileFunction,Plated,1,4,PTH
FMAT,2
INCH
; #@! TA.AperFunction,Plated,PTH,ViaDrill
T1C0.0079
; #@! TA.AperFunction,Plated,PTH,ViaDrill
T2C0.0118
; #@! TA.AperFunction,Plated,PTH,ComponentDrill
T3C0.0276
; #@! TA.AperFunction,Plated,PTH,ComponentDrill
T4C0.0394
; #@! TA.AperFunction,Plated,PTH,ComponentDrill
T5C0.0591
; #@! TA.AperFunction,Plated,PTH,ComponentDrill
T6C0.0866
%
G90
G05
T1
X5.005Y-3.14
X5.005Y-3.23
X5.0122Y-3.876
X5.02Y-3.315
X5.0535Y-3.6067
X5.0587Y-3.7413
X5.0622Y-3.639
X5.13Y-3.255
X5.13Y-3.365
X5.13Y-3.465
X5.135Y-3.215
X5.135Y-3.515
X5.1398Y-3.6425
X5.155Y-3.18
X5.161Y-3.5689
X5.165Y-3.265
X5.17Y-3.415
X5.19Y-3.18
X5.2Y-3.29
X5.21Y-3.415
X5.21Y-3.465
X5.235Y-4.155
X5.25Y-3.705
X5.25Y-3.755
X5.255Y-3.805
X5.2575Y-3.9525
X5.26Y-4.0813
X5.2825Y-4.7325
X5.285Y-4.705
X5.2882Y-4.1843
X5.2886Y-3.9047
X5.29Y-4.42
X5.31Y-3.785
X5.315Y-3.97
X5.315Y-4.71
X5.325Y-3.515
X5.325Y-3.58
X5.325Y-4.05
X5.3331Y-4.1169
X5.4Y-4.1379
X5.4002Y-4.1002
X5.45Y-3.6
X5.455Y-3.365
X5.455Y-4.3437
X5.46Y-3.905
X5.465Y-3.935
X5.48Y-4.255
X5.495Y-3.365
X5.495Y-3.655
X5.505Y-3.94
X5.5311Y-4.5059
X5.5358Y-4.7051
X5.536Y-4.085
X5.5382Y-4.46
X5.539Y-4.6035
X5.54Y-3.245
X5.54Y-3.275
X5.54Y-3.56
X5.54Y-3.81
X5.54Y-3.84
X5.545Y-3.53
X5.5591Y-4.0
X5.57Y-4.255
X5.585Y-3.68
X5.65Y-3.445
X5.655Y-3.73
X5.665Y-4.08
X5.67Y-3.235
X5.67Y-4.215
X5.675Y-3.32
X5.675Y-3.585
X5.72Y-4.14
X5.77Y-3.12
X5.77Y-3.83
X5.7785Y-4.4696
X5.78Y-3.59
X5.8Y-3.9
X5.8205Y-4.2787
X5.83Y-3.57
X5.8323Y-4.402
X5.845Y-3.34
X5.865Y-4.4732
X5.875Y-4.04
X5.89Y-3.135
X5.895Y-4.145
X5.9Y-3.9
X5.9Y-3.975
X5.9Y-4.175
X5.905Y-4.31
X5.9264Y-4.661
X5.9393Y-4.4959
X5.94Y-4.195
X5.945Y-3.77
X5.955Y-4.33
X5.9654Y-5.0764
X5.97Y-4.25
X5.9724Y-3.877
X5.99Y-3.995
X5.99Y-4.22
X5.9965Y-4.5319
X5.9972Y-4.863
X6.0047Y-4.5713
X6.005Y-4.085
X6.0075Y-4.4709
X6.01Y-4.12
X6.015Y-3.97
X6.02Y-4.02
X6.0681Y-4.3315
X6.13Y-4.04
X6.13Y-4.13
X6.135Y-3.91
X6.14Y-4.18
X6.14Y-4.855
X6.165Y-3.9
X6.17Y-5.005
X6.2Y-4.345
X6.21Y-4.215
X6.215Y-3.965
X6.22Y-4.115
X6.23Y-3.46
X6.235Y-4.265
X6.25Y-3.38
X6.275Y-3.775
X6.275Y-4.6
X6.31Y-3.38
X6.365Y-4.46
X6.37Y-3.395
X6.37Y-4.54
X6.435Y-3.7
X6.439Y-3.8998
X6.465Y-3.295
X6.465Y-3.545
X6.465Y-3.605
X6.47Y-3.23
X6.47Y-4.44
X6.47Y-4.74
X6.475Y-4.15
X6.475Y-4.7
X6.479Y-3.8998
T2
X5.0835Y-3.8051
X5.365Y-4.905
X5.385Y-4.02
X5.5587Y-4.8264
X5.6657Y-3.1559
X5.7392Y-3.8957
X5.7701Y-3.7925
X5.7717Y-3.3701
X5.7825Y-3.4154
X5.8374Y-3.185
X5.8503Y-3.605
X5.985Y-3.91
X6.1093Y-3.3847
X6.1585Y-3.4045
X6.2589Y-3.8307
X6.2803Y-3.4335
T3
X5.9415Y-4.7194
X5.9415Y-4.7944
T4
X5.0323Y-3.9457
X5.0323Y-4.0457
X5.0323Y-4.1457
X5.0323Y-4.2457
X5.0323Y-4.3457
X5.0323Y-4.4457
X5.0323Y-4.5457
X5.0323Y-4.6457
X5.0323Y-4.7457
X5.0323Y-4.8457
X5.6177Y-2.9828
X5.7165Y-4.7442
X5.7165Y-4.8442
X5.7165Y-4.9442
X5.7165Y-5.0442
X5.7177Y-2.9828
X5.8165Y-4.7442
X5.8165Y-4.8442
X5.8165Y-4.9442
X5.8165Y-5.0442
X5.8177Y-2.9828
X5.9177Y-2.9828
T5
X5.7224Y-4.6256
T6
X5.0945Y-3.0217
X5.0945Y-5.002
X6.4134Y-3.0217
X6.4134Y-5.002
M30
