%TF.GenerationSoftware,KiCad,Pcbnew,9.0.7*%
%TF.CreationDate,2026-04-24T04:27:01-07:00*%
%TF.ProjectId,Primary_Board,5072696d-6172-4795-9f42-6f6172642e6b,rev?*%
%TF.SameCoordinates,Original*%
%TF.FileFunction,Copper,L2,Inr*%
%TF.FilePolarity,Positive*%
%FSLAX46Y46*%
G04 Gerber Fmt 4.6, Leading zero omitted, Abs format (unit mm)*
G04 Created by KiCad (PCBNEW 9.0.7) date 2026-04-24 04:27:01*
%MOMM*%
%LPD*%
G01*
G04 APERTURE LIST*
%TA.AperFunction,ComponentPad*%
%ADD10C,3.800000*%
%TD*%
%TA.AperFunction,ComponentPad*%
%ADD11R,1.508000X1.508000*%
%TD*%
%TA.AperFunction,ComponentPad*%
%ADD12C,1.508000*%
%TD*%
%TA.AperFunction,ComponentPad*%
%ADD13R,1.700000X1.700000*%
%TD*%
%TA.AperFunction,ComponentPad*%
%ADD14C,1.700000*%
%TD*%
%TA.AperFunction,ViaPad*%
%ADD15C,0.450000*%
%TD*%
%TA.AperFunction,ViaPad*%
%ADD16C,0.500000*%
%TD*%
%TA.AperFunction,ViaPad*%
%ADD17C,0.600000*%
%TD*%
G04 APERTURE END LIST*
D10*
%TO.N,GND*%
%TO.C,H1*%
X129400000Y-76750000D03*
%TD*%
D11*
%TO.N,GND*%
%TO.C,U6*%
X142690000Y-75762500D03*
D12*
%TO.N,+5V*%
X145230000Y-75762500D03*
%TO.N,Net-(U5-PA9_A5_D5_SCL)*%
X147770000Y-75762500D03*
%TO.N,Net-(U5-PA8_A4_D4_SDA)*%
X150310000Y-75762500D03*
%TD*%
D10*
%TO.N,GND*%
%TO.C,H4*%
X162900000Y-127050000D03*
%TD*%
%TO.N,GND*%
%TO.C,H3*%
X129400000Y-127050000D03*
%TD*%
%TO.N,GND*%
%TO.C,H2*%
X162900000Y-76750000D03*
%TD*%
D13*
%TO.N,+3V3*%
%TO.C,J2*%
X128150000Y-120400000D03*
D14*
%TO.N,+5V*%
X128150000Y-117860000D03*
%TO.N,/PWM_Red*%
X128150000Y-115320000D03*
%TO.N,/PWM_IR*%
X128150000Y-112780000D03*
%TO.N,GND*%
X128150000Y-110240000D03*
%TO.N,/V_ptat*%
X128150000Y-107700000D03*
%TO.N,/V_bandgap*%
X128150000Y-105160000D03*
%TO.N,GND*%
X128150000Y-102620000D03*
%TD*%
D15*
%TO.N,GND*%
X164465000Y-105410000D03*
X135255000Y-102870000D03*
X146812000Y-91186000D03*
%TO.N,+3V3*%
X145288000Y-105156000D03*
%TO.N,GND*%
X134366000Y-112268000D03*
%TO.N,+5V*%
X130429000Y-93218000D03*
%TO.N,/ADC/MSB_TOP*%
X157861000Y-100711000D03*
%TO.N,/AFE/+1.65V*%
X157988000Y-104521000D03*
%TO.N,Net-(U5-PA8_A4_D4_SDA)*%
X151257000Y-109982000D03*
%TO.N,Net-(U5-PA9_A5_D5_SCL)*%
X149987000Y-109474000D03*
%TO.N,+3V3*%
X151511000Y-113411000D03*
X151638000Y-115951000D03*
%TO.N,Net-(U5-PA9_A5_D5_SCL)*%
X152527000Y-114426674D03*
%TO.N,Net-(U5-PA8_A4_D4_SDA)*%
X152527000Y-116966674D03*
%TO.N,/ADC/CS*%
X155956000Y-123317000D03*
%TO.N,/ADC/MOSI*%
X140335000Y-119507000D03*
%TO.N,/ADC/sCLK*%
X140335000Y-114427000D03*
%TO.N,/ADC/A0*%
X140245000Y-116930000D03*
X141478000Y-108077000D03*
%TO.N,/ADC/A1*%
X139192000Y-108077000D03*
X138557000Y-110490000D03*
%TO.N,/ADC/sCLK*%
X133604000Y-104648000D03*
%TO.N,/ADC/MOSI*%
X132969000Y-105537000D03*
D16*
%TO.N,Net-(ESP_3V3-A)*%
X135890000Y-121920000D03*
%TO.N,GND*%
X136271000Y-124587000D03*
D15*
%TO.N,/ADC/ADC_OUT*%
X148336000Y-121158000D03*
%TO.N,/ADC/LATCH*%
X140970000Y-113284000D03*
%TO.N,/ADC/ADC_OUT*%
X156718000Y-127127000D03*
X161671000Y-113284000D03*
%TO.N,+3V3A*%
X164465000Y-119380000D03*
D16*
X136779000Y-102108000D03*
D15*
%TO.N,/ADC/VSMP*%
X164338000Y-112776000D03*
X155956000Y-106172000D03*
%TO.N,/ADC/DAC_OUT*%
X157734000Y-107061000D03*
%TO.N,GND*%
X150114000Y-115697000D03*
X145669000Y-114935000D03*
%TO.N,+3V3A*%
X145669000Y-115951000D03*
%TO.N,/AFE/+1.65V*%
X149860000Y-106045000D03*
%TO.N,/ADC/BIT_7_BOT*%
X164338000Y-82042000D03*
%TO.N,/ADC/BIT_9_BOT*%
X160274000Y-85852000D03*
%TO.N,/ADC/BIT_10_BOT*%
X158750000Y-85852000D03*
%TO.N,/ADC/BIT_13_BOT*%
X149606000Y-79629000D03*
%TO.N,/ADC/BIT_12_BOT*%
X148463000Y-84836000D03*
%TO.N,/ADC/BIT_6_BOT*%
X148082000Y-90678000D03*
%TO.N,/AFE/TIA_OUT*%
X138811000Y-99949000D03*
X158242000Y-87884000D03*
%TO.N,GND*%
X133350000Y-95377000D03*
%TO.N,/ADC/BIT_4_SEL*%
X152781000Y-100838000D03*
%TO.N,/ADC/ADC_Input1*%
X141859000Y-93472000D03*
%TO.N,/ADC/BIT_1_BOT*%
X163449000Y-93980000D03*
%TO.N,/ADC/BIT_2_BOT*%
X159385000Y-95885000D03*
%TO.N,GND*%
X164566941Y-99054000D03*
%TO.N,+3V3*%
X163550941Y-99054000D03*
%TO.N,GND*%
X164338000Y-120396000D03*
X159385000Y-116840000D03*
%TO.N,+3V3A*%
X158369000Y-108331000D03*
%TO.N,GND*%
X157480000Y-110363000D03*
X149860000Y-100965000D03*
X147320000Y-99060000D03*
X151700000Y-98475000D03*
%TO.N,/AFE/+1.65V*%
X151003000Y-95758000D03*
%TO.N,GND*%
X146177000Y-108585000D03*
%TO.N,/ADC/BIT_2_BOT*%
X149860000Y-99060000D03*
%TO.N,/ADC/BIT_8_BOT*%
X161798000Y-86233000D03*
X164211000Y-83693000D03*
%TO.N,GND*%
X146558000Y-97282000D03*
X164211000Y-90043000D03*
X146558000Y-79248000D03*
X144145000Y-84328000D03*
X144018000Y-82169000D03*
X143510000Y-87503000D03*
X144145000Y-91059000D03*
X143637000Y-94742000D03*
%TO.N,+3V3*%
X156591000Y-99060000D03*
%TO.N,GND*%
X155829000Y-99314000D03*
X155702000Y-104902000D03*
%TO.N,+3V3*%
X155702000Y-102616000D03*
%TO.N,GND*%
X149225000Y-102616000D03*
X139827000Y-100076000D03*
%TO.N,+3V3*%
X138684000Y-99187000D03*
%TO.N,GND*%
X138430000Y-91440000D03*
%TO.N,+3V3*%
X139573000Y-92837000D03*
X139573000Y-85471000D03*
%TO.N,GND*%
X138557000Y-85471000D03*
%TO.N,/ADC/sCLK*%
X131318000Y-86741000D03*
X134874000Y-96139000D03*
%TO.N,/ADC/LATCH*%
X133477000Y-96647000D03*
X130302000Y-85471000D03*
%TO.N,+3V3*%
X129794000Y-99187000D03*
X130302000Y-88011000D03*
%TO.N,Net-(SR1-QH')*%
X130429000Y-89281000D03*
X133350000Y-94107000D03*
%TO.N,GND*%
X128651000Y-90932000D03*
%TO.N,+3V3*%
X131064000Y-90932000D03*
%TO.N,GND*%
X135255000Y-89281000D03*
X127508000Y-84201000D03*
X127127000Y-82042000D03*
%TO.N,+3V3*%
X127127000Y-79756000D03*
%TO.N,/ADC/BIT_5_SEL*%
X135255000Y-90932000D03*
%TO.N,/ADC/BIT_12_SEL*%
X131826000Y-80772000D03*
%TO.N,/ADC/TOP_RESET*%
X151638000Y-107950000D03*
%TO.N,/ADC/BIT_3_SEL*%
X152146000Y-101473000D03*
%TO.N,/ADC/BIT_2_SEL*%
X152908000Y-102108000D03*
%TO.N,/ADC/BIT_1_SEL*%
X150876000Y-106553000D03*
%TO.N,/ADC/BIT_0_SEL*%
X152146000Y-107188000D03*
%TO.N,/ADC/BIT_11_SEL*%
X130937000Y-80772000D03*
%TO.N,GND*%
X137163909Y-104143909D03*
D17*
X128650000Y-94850000D03*
X148596902Y-91567000D03*
X143910000Y-80160000D03*
D15*
X143891000Y-103632000D03*
D17*
X145775000Y-98950000D03*
X159520000Y-87210000D03*
X155175000Y-85970180D03*
X148270000Y-80900000D03*
X158975000Y-97300000D03*
D15*
X133540500Y-100393500D03*
X161798000Y-115316000D03*
D17*
X128270000Y-97409000D03*
D15*
X144018000Y-107061000D03*
X140615000Y-103759000D03*
X135001000Y-100838000D03*
D17*
X146600000Y-85600000D03*
%TO.N,+3V3*%
X156425000Y-86475000D03*
X146560000Y-96330000D03*
D15*
X137160000Y-105103909D03*
D17*
X128800000Y-93350000D03*
X152019000Y-99314000D03*
X146875000Y-86750000D03*
%TO.N,/V_bandgap*%
X127750000Y-96300000D03*
D15*
%TO.N,/ADC/BIT_13_BOT*%
X140716000Y-82423000D03*
%TO.N,/ADC/MSB_TOP*%
X149733000Y-105283000D03*
%TO.N,/ADC/BIT_12_BOT*%
X140716000Y-83185000D03*
%TO.N,/ADC/BIT_10_BOT*%
X140843000Y-89662000D03*
%TO.N,/ADC/BIT_9_BOT*%
X140716000Y-90424000D03*
%TO.N,/ADC/BIT_7_BOT*%
X140716000Y-96774000D03*
%TO.N,/ADC/BIT_6_BOT*%
X140716000Y-97536000D03*
%TO.N,/ADC/BIT_1_BOT*%
X152654000Y-104648000D03*
%TO.N,/ADC/BIT_0_BOT*%
X152527000Y-103759000D03*
%TO.N,/ADC/BIT_7_SEL*%
X132334000Y-86741000D03*
%TO.N,/ADC/BIT_13_SEL*%
X130429000Y-81661000D03*
%TO.N,/ADC/BIT_8_SEL*%
X130302000Y-82677000D03*
%TO.N,/ADC/BIT_10_SEL*%
X132080000Y-83566000D03*
%TO.N,/ADC/BIT_9_SEL*%
X131191000Y-82931000D03*
%TO.N,/ADC/BIT_6_SEL*%
X132334000Y-88011000D03*
%TO.N,/ADC/BIT_0_BOT*%
X164211000Y-91567000D03*
%TD*%
%TA.AperFunction,Conductor*%
%TO.N,GND*%
G36*
X161292702Y-73500617D02*
G01*
X161694202Y-73518147D01*
X161704937Y-73519087D01*
X162100693Y-73571189D01*
X162111331Y-73573064D01*
X162501043Y-73659462D01*
X162511483Y-73662260D01*
X162892168Y-73782289D01*
X162902315Y-73785982D01*
X163271102Y-73938739D01*
X163280893Y-73943305D01*
X163634942Y-74127611D01*
X163644310Y-74133019D01*
X163980959Y-74347488D01*
X163989820Y-74353693D01*
X164306487Y-74596680D01*
X164314774Y-74603634D01*
X164609056Y-74873294D01*
X164616705Y-74880943D01*
X164886365Y-75175225D01*
X164893319Y-75183512D01*
X165136306Y-75500179D01*
X165142511Y-75509040D01*
X165356980Y-75845689D01*
X165362388Y-75855057D01*
X165546691Y-76209099D01*
X165551263Y-76218903D01*
X165704013Y-76587674D01*
X165707713Y-76597840D01*
X165827738Y-76978512D01*
X165830538Y-76988960D01*
X165916933Y-77378660D01*
X165918811Y-77389314D01*
X165970910Y-77785042D01*
X165971853Y-77795818D01*
X165989382Y-78197297D01*
X165989500Y-78202706D01*
X165989500Y-125266869D01*
X165989499Y-125266873D01*
X165989499Y-125288010D01*
X165989499Y-125310978D01*
X165989499Y-125311764D01*
X165989381Y-125317172D01*
X165971856Y-125718651D01*
X165970913Y-125729428D01*
X165918816Y-126125160D01*
X165916938Y-126135813D01*
X165830546Y-126525511D01*
X165827746Y-126535960D01*
X165707720Y-126916639D01*
X165704020Y-126926804D01*
X165551277Y-127295566D01*
X165546706Y-127305370D01*
X165362397Y-127659428D01*
X165356988Y-127668797D01*
X165142522Y-128005443D01*
X165136317Y-128014304D01*
X164893335Y-128330967D01*
X164886382Y-128339254D01*
X164616711Y-128633551D01*
X164609062Y-128641200D01*
X164314791Y-128910852D01*
X164306504Y-128917806D01*
X163989818Y-129160809D01*
X163980956Y-129167013D01*
X163644327Y-129381470D01*
X163634959Y-129386879D01*
X163280907Y-129571188D01*
X163271103Y-129575760D01*
X162902334Y-129728510D01*
X162892169Y-129732210D01*
X162511490Y-129852238D01*
X162501040Y-129855038D01*
X162111341Y-129941432D01*
X162100689Y-129943310D01*
X161704960Y-129995410D01*
X161694183Y-129996353D01*
X161293482Y-130013848D01*
X161288073Y-130013966D01*
X152296500Y-130013966D01*
X152229461Y-129994281D01*
X152183706Y-129941477D01*
X152172500Y-129889966D01*
X152172500Y-127385002D01*
X152171197Y-127356816D01*
X152171197Y-127356812D01*
X152140472Y-127248827D01*
X152072814Y-127159233D01*
X152072813Y-127159232D01*
X151977360Y-127100130D01*
X151977361Y-127100130D01*
X151922179Y-127089815D01*
X151871435Y-127080329D01*
X156363500Y-127080329D01*
X156363500Y-127173671D01*
X156387659Y-127263832D01*
X156434329Y-127344668D01*
X156500332Y-127410671D01*
X156581168Y-127457341D01*
X156671329Y-127481500D01*
X156671331Y-127481500D01*
X156764669Y-127481500D01*
X156764671Y-127481500D01*
X156854832Y-127457341D01*
X156935668Y-127410671D01*
X157001671Y-127344668D01*
X157048341Y-127263832D01*
X157072500Y-127173671D01*
X157072500Y-127080329D01*
X157048341Y-126990168D01*
X157001671Y-126909332D01*
X156935668Y-126843329D01*
X156854832Y-126796659D01*
X156854833Y-126796659D01*
X156824778Y-126788606D01*
X156764671Y-126772500D01*
X156671329Y-126772500D01*
X156611221Y-126788606D01*
X156581167Y-126796659D01*
X156500333Y-126843328D01*
X156500330Y-126843330D01*
X156434330Y-126909330D01*
X156434328Y-126909333D01*
X156387659Y-126990167D01*
X156387659Y-126990168D01*
X156363500Y-127080329D01*
X151871435Y-127080329D01*
X151867000Y-127079500D01*
X150089000Y-127079500D01*
X150086130Y-127079632D01*
X150060816Y-127080802D01*
X150060807Y-127080804D01*
X149952830Y-127111526D01*
X149952825Y-127111529D01*
X149863232Y-127179186D01*
X149804130Y-127274639D01*
X149793815Y-127329820D01*
X149788770Y-127356812D01*
X149783500Y-127385002D01*
X149783500Y-129889966D01*
X149763815Y-129957005D01*
X149711011Y-130002760D01*
X149659500Y-130013966D01*
X143660500Y-130013966D01*
X143593461Y-129994281D01*
X143547706Y-129941477D01*
X143536500Y-129889966D01*
X143536500Y-129553770D01*
X143556185Y-129486731D01*
X143608989Y-129440976D01*
X143678147Y-129431032D01*
X143741703Y-129460057D01*
X143759450Y-129479039D01*
X143787186Y-129515767D01*
X143882639Y-129574869D01*
X143882641Y-129574870D01*
X143993000Y-129595500D01*
X143993002Y-129595500D01*
X149199998Y-129595500D01*
X149200000Y-129595500D01*
X149228188Y-129594197D01*
X149336173Y-129563472D01*
X149425767Y-129495814D01*
X149484870Y-129400359D01*
X149505500Y-129290000D01*
X149505500Y-123321002D01*
X149783500Y-123321002D01*
X149783500Y-125987997D01*
X149784802Y-126016183D01*
X149784804Y-126016192D01*
X149815526Y-126124169D01*
X149815527Y-126124171D01*
X149815528Y-126124173D01*
X149868118Y-126193814D01*
X149883186Y-126213767D01*
X149978639Y-126272869D01*
X149978641Y-126272870D01*
X150089000Y-126293500D01*
X150089002Y-126293500D01*
X151866998Y-126293500D01*
X151867000Y-126293500D01*
X151895188Y-126292197D01*
X152003173Y-126261472D01*
X152092767Y-126193814D01*
X152151870Y-126098359D01*
X152172500Y-125988000D01*
X152172500Y-123321000D01*
X152171197Y-123292812D01*
X152164800Y-123270329D01*
X155601500Y-123270329D01*
X155601500Y-123363671D01*
X155625659Y-123453832D01*
X155672329Y-123534668D01*
X155738332Y-123600671D01*
X155819168Y-123647341D01*
X155909329Y-123671500D01*
X155909331Y-123671500D01*
X156002669Y-123671500D01*
X156002671Y-123671500D01*
X156092832Y-123647341D01*
X156173668Y-123600671D01*
X156239671Y-123534668D01*
X156286341Y-123453832D01*
X156310500Y-123363671D01*
X156310500Y-123270329D01*
X156286341Y-123180168D01*
X156239671Y-123099332D01*
X156173668Y-123033329D01*
X156092832Y-122986659D01*
X156092833Y-122986659D01*
X156062778Y-122978606D01*
X156002671Y-122962500D01*
X155909329Y-122962500D01*
X155849221Y-122978606D01*
X155819167Y-122986659D01*
X155738333Y-123033328D01*
X155738330Y-123033330D01*
X155672330Y-123099330D01*
X155672328Y-123099333D01*
X155625659Y-123180167D01*
X155624410Y-123184829D01*
X155601500Y-123270329D01*
X152164800Y-123270329D01*
X152147817Y-123210641D01*
X152140473Y-123184829D01*
X152140472Y-123184828D01*
X152140472Y-123184827D01*
X152072814Y-123095233D01*
X152072813Y-123095232D01*
X151977360Y-123036130D01*
X151977361Y-123036130D01*
X151922179Y-123025815D01*
X151867000Y-123015500D01*
X150089000Y-123015500D01*
X150086130Y-123015632D01*
X150060816Y-123016802D01*
X150060807Y-123016804D01*
X149952830Y-123047526D01*
X149952825Y-123047529D01*
X149863232Y-123115186D01*
X149804130Y-123210639D01*
X149804130Y-123210641D01*
X149788770Y-123292812D01*
X149783500Y-123321002D01*
X149505500Y-123321002D01*
X149505500Y-122305000D01*
X149504197Y-122276812D01*
X149479656Y-122190561D01*
X149480242Y-122120695D01*
X149518509Y-122062236D01*
X149582306Y-122033745D01*
X149621705Y-122034738D01*
X149644500Y-122039000D01*
X149644502Y-122039000D01*
X152565498Y-122039000D01*
X152565500Y-122039000D01*
X152593688Y-122037697D01*
X152701673Y-122006972D01*
X152791267Y-121939314D01*
X152850370Y-121843859D01*
X152871000Y-121733500D01*
X152871000Y-119701500D01*
X152869697Y-119673312D01*
X152838972Y-119565327D01*
X152771314Y-119475733D01*
X152771313Y-119475732D01*
X152698467Y-119430628D01*
X152675859Y-119416630D01*
X152565500Y-119396000D01*
X149644500Y-119396000D01*
X149641630Y-119396132D01*
X149616316Y-119397302D01*
X149616307Y-119397304D01*
X149508330Y-119428026D01*
X149508325Y-119428029D01*
X149418732Y-119495686D01*
X149359630Y-119591139D01*
X149349780Y-119643832D01*
X149344270Y-119673312D01*
X149339000Y-119701502D01*
X149339000Y-121733497D01*
X149340302Y-121761683D01*
X149340304Y-121761692D01*
X149364843Y-121847938D01*
X149364256Y-121917805D01*
X149325990Y-121976264D01*
X149262192Y-122004754D01*
X149222794Y-122003761D01*
X149200000Y-121999500D01*
X143993000Y-121999500D01*
X143990130Y-121999632D01*
X143964816Y-122000802D01*
X143964807Y-122000804D01*
X143856830Y-122031526D01*
X143856825Y-122031529D01*
X143767232Y-122099186D01*
X143708130Y-122194639D01*
X143708130Y-122194641D01*
X143692770Y-122276812D01*
X143687500Y-122305002D01*
X143687500Y-123057229D01*
X143667815Y-123124268D01*
X143615011Y-123170023D01*
X143545853Y-123179967D01*
X143482297Y-123150942D01*
X143464546Y-123131956D01*
X143436813Y-123095232D01*
X143341360Y-123036130D01*
X143341361Y-123036130D01*
X143286179Y-123025815D01*
X143231000Y-123015500D01*
X141453000Y-123015500D01*
X141450130Y-123015632D01*
X141424816Y-123016802D01*
X141424807Y-123016804D01*
X141316830Y-123047526D01*
X141316825Y-123047529D01*
X141227232Y-123115186D01*
X141168130Y-123210639D01*
X141168130Y-123210641D01*
X141152770Y-123292812D01*
X141147500Y-123321002D01*
X141147500Y-125987997D01*
X141148802Y-126016183D01*
X141148804Y-126016192D01*
X141179526Y-126124169D01*
X141179527Y-126124171D01*
X141179528Y-126124173D01*
X141232118Y-126193814D01*
X141247186Y-126213767D01*
X141342639Y-126272869D01*
X141342641Y-126272870D01*
X141453000Y-126293500D01*
X141453002Y-126293500D01*
X143230998Y-126293500D01*
X143231000Y-126293500D01*
X143259188Y-126292197D01*
X143367173Y-126261472D01*
X143456767Y-126193814D01*
X143458073Y-126191703D01*
X143461451Y-126188675D01*
X143464508Y-126185323D01*
X143464847Y-126185632D01*
X143510100Y-126145069D01*
X143579081Y-126133965D01*
X143643116Y-126161917D01*
X143681873Y-126220052D01*
X143687500Y-126256982D01*
X143687500Y-127121229D01*
X143667815Y-127188268D01*
X143615011Y-127234023D01*
X143545853Y-127243967D01*
X143482297Y-127214942D01*
X143464546Y-127195956D01*
X143447717Y-127173671D01*
X143436814Y-127159233D01*
X143436813Y-127159232D01*
X143341360Y-127100130D01*
X143341361Y-127100130D01*
X143286179Y-127089815D01*
X143231000Y-127079500D01*
X141453000Y-127079500D01*
X141450130Y-127079632D01*
X141424816Y-127080802D01*
X141424807Y-127080804D01*
X141316830Y-127111526D01*
X141316825Y-127111529D01*
X141227232Y-127179186D01*
X141168130Y-127274639D01*
X141157815Y-127329820D01*
X141152770Y-127356812D01*
X141147500Y-127385002D01*
X141147500Y-129889966D01*
X141127815Y-129957005D01*
X141075011Y-130002760D01*
X141023500Y-130013966D01*
X131002706Y-130013966D01*
X130997297Y-130013848D01*
X130595819Y-129996319D01*
X130585043Y-129995376D01*
X130189317Y-129943277D01*
X130178663Y-129941399D01*
X129788967Y-129855005D01*
X129778518Y-129852205D01*
X129494005Y-129762498D01*
X129397839Y-129732177D01*
X129387676Y-129728478D01*
X129018910Y-129575729D01*
X129009106Y-129571157D01*
X128655057Y-129386850D01*
X128645695Y-129381445D01*
X128309055Y-129166980D01*
X128300201Y-129160781D01*
X127983517Y-128917780D01*
X127975246Y-128910839D01*
X127680956Y-128641171D01*
X127673312Y-128633527D01*
X127403643Y-128339232D01*
X127396690Y-128330945D01*
X127153710Y-128014285D01*
X127147505Y-128005424D01*
X126933040Y-127668780D01*
X126927631Y-127659411D01*
X126822442Y-127457341D01*
X126743318Y-127305344D01*
X126738758Y-127295563D01*
X126612261Y-126990167D01*
X126586011Y-126926793D01*
X126582311Y-126916628D01*
X126554424Y-126828180D01*
X126462281Y-126535935D01*
X126459490Y-126525520D01*
X126373092Y-126135790D01*
X126371220Y-126125171D01*
X126319118Y-125729403D01*
X126318178Y-125718669D01*
X126300618Y-125316388D01*
X126300500Y-125310980D01*
X126300500Y-125310978D01*
X126300501Y-125266873D01*
X126300500Y-125266869D01*
X126300500Y-121866747D01*
X135485500Y-121866747D01*
X135485500Y-121973253D01*
X135513066Y-122076131D01*
X135566320Y-122168369D01*
X135641631Y-122243680D01*
X135733869Y-122296934D01*
X135836747Y-122324500D01*
X135836749Y-122324500D01*
X135943251Y-122324500D01*
X135943253Y-122324500D01*
X136046131Y-122296934D01*
X136138369Y-122243680D01*
X136213680Y-122168369D01*
X136266934Y-122076131D01*
X136294500Y-121973253D01*
X136294500Y-121866747D01*
X136266934Y-121763869D01*
X136213680Y-121671631D01*
X136138369Y-121596320D01*
X136046131Y-121543066D01*
X135943253Y-121515500D01*
X135836747Y-121515500D01*
X135733868Y-121543066D01*
X135641631Y-121596320D01*
X135641628Y-121596322D01*
X135566322Y-121671628D01*
X135566320Y-121671631D01*
X135513066Y-121763868D01*
X135490540Y-121847938D01*
X135485500Y-121866747D01*
X126300500Y-121866747D01*
X126300500Y-119537441D01*
X127172500Y-119537441D01*
X127172500Y-121262558D01*
X127179898Y-121299749D01*
X127208077Y-121341922D01*
X127250250Y-121370101D01*
X127250252Y-121370102D01*
X127278205Y-121375662D01*
X127287441Y-121377500D01*
X127287442Y-121377500D01*
X129012559Y-121377500D01*
X129021762Y-121375669D01*
X129049748Y-121370102D01*
X129091922Y-121341922D01*
X129120102Y-121299748D01*
X129127500Y-121262558D01*
X129127500Y-121111329D01*
X147981500Y-121111329D01*
X147981500Y-121204671D01*
X148005659Y-121294832D01*
X148052329Y-121375668D01*
X148118332Y-121441671D01*
X148199168Y-121488341D01*
X148289329Y-121512500D01*
X148289331Y-121512500D01*
X148382669Y-121512500D01*
X148382671Y-121512500D01*
X148472832Y-121488341D01*
X148553668Y-121441671D01*
X148619671Y-121375668D01*
X148666341Y-121294832D01*
X148690500Y-121204671D01*
X148690500Y-121111329D01*
X148666341Y-121021168D01*
X148619671Y-120940332D01*
X148553668Y-120874329D01*
X148472832Y-120827659D01*
X148472833Y-120827659D01*
X148442778Y-120819606D01*
X148382671Y-120803500D01*
X148289329Y-120803500D01*
X148229221Y-120819606D01*
X148199167Y-120827659D01*
X148118333Y-120874328D01*
X148118330Y-120874330D01*
X148052330Y-120940330D01*
X148052328Y-120940333D01*
X148005659Y-121021167D01*
X148005659Y-121021168D01*
X147981500Y-121111329D01*
X129127500Y-121111329D01*
X129127500Y-119537442D01*
X129120102Y-119500252D01*
X129093427Y-119460330D01*
X129093426Y-119460329D01*
X139980500Y-119460329D01*
X139980500Y-119553671D01*
X140004659Y-119643832D01*
X140051329Y-119724668D01*
X140117332Y-119790671D01*
X140198168Y-119837341D01*
X140288329Y-119861500D01*
X140288331Y-119861500D01*
X140381669Y-119861500D01*
X140381671Y-119861500D01*
X140471832Y-119837341D01*
X140552668Y-119790671D01*
X140618671Y-119724668D01*
X140665341Y-119643832D01*
X140689500Y-119553671D01*
X140689500Y-119460329D01*
X140665341Y-119370168D01*
X140618671Y-119289332D01*
X140552668Y-119223329D01*
X140471832Y-119176659D01*
X140471833Y-119176659D01*
X140441778Y-119168606D01*
X140381671Y-119152500D01*
X140288329Y-119152500D01*
X140228221Y-119168606D01*
X140198167Y-119176659D01*
X140117333Y-119223328D01*
X140117330Y-119223330D01*
X140051330Y-119289330D01*
X140051328Y-119289333D01*
X140004659Y-119370167D01*
X140004659Y-119370168D01*
X139980500Y-119460329D01*
X129093426Y-119460329D01*
X129091922Y-119458077D01*
X129049749Y-119429898D01*
X129012559Y-119422500D01*
X129012558Y-119422500D01*
X127287442Y-119422500D01*
X127287441Y-119422500D01*
X127250250Y-119429898D01*
X127208077Y-119458077D01*
X127179898Y-119500250D01*
X127172500Y-119537441D01*
X126300500Y-119537441D01*
X126300500Y-117763720D01*
X127172500Y-117763720D01*
X127172500Y-117956279D01*
X127210062Y-118145118D01*
X127210066Y-118145132D01*
X127283746Y-118323013D01*
X127283753Y-118323026D01*
X127390725Y-118483119D01*
X127390728Y-118483123D01*
X127526876Y-118619271D01*
X127526880Y-118619274D01*
X127686973Y-118726246D01*
X127686986Y-118726253D01*
X127835806Y-118787896D01*
X127864874Y-118799936D01*
X128053720Y-118837499D01*
X128053724Y-118837500D01*
X128053725Y-118837500D01*
X128246276Y-118837500D01*
X128246277Y-118837499D01*
X128435126Y-118799936D01*
X128613020Y-118726250D01*
X128773120Y-118619274D01*
X128909274Y-118483120D01*
X129016250Y-118323020D01*
X129089936Y-118145126D01*
X129127500Y-117956275D01*
X129127500Y-117763725D01*
X129089936Y-117574874D01*
X129077896Y-117545806D01*
X129016253Y-117396986D01*
X129016246Y-117396973D01*
X128909274Y-117236880D01*
X128909271Y-117236876D01*
X128773123Y-117100728D01*
X128773119Y-117100725D01*
X128613026Y-116993753D01*
X128613019Y-116993749D01*
X128605968Y-116990829D01*
X128603393Y-116989762D01*
X128603392Y-116989762D01*
X128435126Y-116920064D01*
X128435122Y-116920063D01*
X128435118Y-116920062D01*
X128250447Y-116883329D01*
X139890500Y-116883329D01*
X139890500Y-116976671D01*
X139914659Y-117066832D01*
X139961329Y-117147668D01*
X140027332Y-117213671D01*
X140108168Y-117260341D01*
X140198329Y-117284500D01*
X140198331Y-117284500D01*
X140291669Y-117284500D01*
X140291671Y-117284500D01*
X140381832Y-117260341D01*
X140443042Y-117225002D01*
X142417500Y-117225002D01*
X142417500Y-120272997D01*
X142418802Y-120301183D01*
X142418804Y-120301192D01*
X142449526Y-120409169D01*
X142449527Y-120409171D01*
X142449528Y-120409173D01*
X142502118Y-120478814D01*
X142517186Y-120498767D01*
X142612639Y-120557869D01*
X142612641Y-120557870D01*
X142723000Y-120578500D01*
X142723002Y-120578500D01*
X145770998Y-120578500D01*
X145771000Y-120578500D01*
X145799188Y-120577197D01*
X145907173Y-120546472D01*
X145996767Y-120478814D01*
X146055870Y-120383359D01*
X146076500Y-120273000D01*
X146076500Y-119333329D01*
X164110500Y-119333329D01*
X164110500Y-119426671D01*
X164134659Y-119516832D01*
X164181329Y-119597668D01*
X164247332Y-119663671D01*
X164328168Y-119710341D01*
X164418329Y-119734500D01*
X164418331Y-119734500D01*
X164511669Y-119734500D01*
X164511671Y-119734500D01*
X164601832Y-119710341D01*
X164682668Y-119663671D01*
X164748671Y-119597668D01*
X164795341Y-119516832D01*
X164819500Y-119426671D01*
X164819500Y-119333329D01*
X164795341Y-119243168D01*
X164748671Y-119162332D01*
X164682668Y-119096329D01*
X164601832Y-119049659D01*
X164601833Y-119049659D01*
X164571778Y-119041606D01*
X164511671Y-119025500D01*
X164418329Y-119025500D01*
X164358221Y-119041606D01*
X164328167Y-119049659D01*
X164247333Y-119096328D01*
X164247330Y-119096330D01*
X164181330Y-119162330D01*
X164181328Y-119162333D01*
X164134659Y-119243167D01*
X164134659Y-119243168D01*
X164110500Y-119333329D01*
X146076500Y-119333329D01*
X146076500Y-117225000D01*
X146075197Y-117196812D01*
X146044472Y-117088827D01*
X145976814Y-116999233D01*
X145976813Y-116999232D01*
X145976814Y-116999232D01*
X145881360Y-116940130D01*
X145881361Y-116940130D01*
X145826179Y-116929815D01*
X145773691Y-116920003D01*
X152172500Y-116920003D01*
X152172500Y-117013345D01*
X152196659Y-117103506D01*
X152243329Y-117184342D01*
X152309332Y-117250345D01*
X152390168Y-117297015D01*
X152480329Y-117321174D01*
X152480331Y-117321174D01*
X152573669Y-117321174D01*
X152573671Y-117321174D01*
X152663832Y-117297015D01*
X152744668Y-117250345D01*
X152810671Y-117184342D01*
X152857341Y-117103506D01*
X152881500Y-117013345D01*
X152881500Y-116920003D01*
X152857341Y-116829842D01*
X152810671Y-116749006D01*
X152744668Y-116683003D01*
X152663832Y-116636333D01*
X152663833Y-116636333D01*
X152633778Y-116628280D01*
X152573671Y-116612174D01*
X152480329Y-116612174D01*
X152420221Y-116628280D01*
X152390167Y-116636333D01*
X152309333Y-116683002D01*
X152309330Y-116683004D01*
X152243330Y-116749004D01*
X152243328Y-116749007D01*
X152196659Y-116829841D01*
X152196659Y-116829842D01*
X152172500Y-116920003D01*
X145773691Y-116920003D01*
X145771000Y-116919500D01*
X142723000Y-116919500D01*
X142720130Y-116919632D01*
X142694816Y-116920802D01*
X142694807Y-116920804D01*
X142586830Y-116951526D01*
X142586825Y-116951529D01*
X142497232Y-117019186D01*
X142438130Y-117114639D01*
X142438130Y-117114641D01*
X142422770Y-117196812D01*
X142417500Y-117225002D01*
X140443042Y-117225002D01*
X140462668Y-117213671D01*
X140528671Y-117147668D01*
X140575341Y-117066832D01*
X140599500Y-116976671D01*
X140599500Y-116883329D01*
X140575341Y-116793168D01*
X140528671Y-116712332D01*
X140462668Y-116646329D01*
X140381832Y-116599659D01*
X140381833Y-116599659D01*
X140351778Y-116591606D01*
X140291671Y-116575500D01*
X140198329Y-116575500D01*
X140138221Y-116591606D01*
X140108167Y-116599659D01*
X140027333Y-116646328D01*
X140027330Y-116646330D01*
X139961330Y-116712330D01*
X139961328Y-116712333D01*
X139914659Y-116793167D01*
X139914659Y-116793168D01*
X139890500Y-116883329D01*
X128250447Y-116883329D01*
X128246279Y-116882500D01*
X128246275Y-116882500D01*
X128053725Y-116882500D01*
X128053720Y-116882500D01*
X127864881Y-116920062D01*
X127864867Y-116920066D01*
X127686986Y-116993746D01*
X127686973Y-116993753D01*
X127526880Y-117100725D01*
X127526876Y-117100728D01*
X127390728Y-117236876D01*
X127390725Y-117236880D01*
X127283753Y-117396973D01*
X127283746Y-117396986D01*
X127210066Y-117574867D01*
X127210062Y-117574881D01*
X127172500Y-117763720D01*
X126300500Y-117763720D01*
X126300500Y-115223720D01*
X127172500Y-115223720D01*
X127172500Y-115416279D01*
X127210062Y-115605118D01*
X127210066Y-115605132D01*
X127283746Y-115783013D01*
X127283753Y-115783026D01*
X127390725Y-115943119D01*
X127390728Y-115943123D01*
X127526876Y-116079271D01*
X127526880Y-116079274D01*
X127686973Y-116186246D01*
X127686986Y-116186253D01*
X127803874Y-116234669D01*
X127864874Y-116259936D01*
X128053720Y-116297499D01*
X128053724Y-116297500D01*
X128053725Y-116297500D01*
X128246276Y-116297500D01*
X128246277Y-116297499D01*
X128435126Y-116259936D01*
X128613020Y-116186250D01*
X128773120Y-116079274D01*
X128909274Y-115943120D01*
X128935192Y-115904329D01*
X145314500Y-115904329D01*
X145314500Y-115997671D01*
X145338659Y-116087832D01*
X145385329Y-116168668D01*
X145451332Y-116234671D01*
X145532168Y-116281341D01*
X145622329Y-116305500D01*
X145622331Y-116305500D01*
X145715669Y-116305500D01*
X145715671Y-116305500D01*
X145805832Y-116281341D01*
X145886668Y-116234671D01*
X145952671Y-116168668D01*
X145999341Y-116087832D01*
X146023500Y-115997671D01*
X146023500Y-115904329D01*
X151283500Y-115904329D01*
X151283500Y-115997671D01*
X151307659Y-116087832D01*
X151354329Y-116168668D01*
X151420332Y-116234671D01*
X151501168Y-116281341D01*
X151591329Y-116305500D01*
X151591331Y-116305500D01*
X151684669Y-116305500D01*
X151684671Y-116305500D01*
X151774832Y-116281341D01*
X151855668Y-116234671D01*
X151921671Y-116168668D01*
X151968341Y-116087832D01*
X151992500Y-115997671D01*
X151992500Y-115904329D01*
X151968341Y-115814168D01*
X151921671Y-115733332D01*
X151855668Y-115667329D01*
X151774832Y-115620659D01*
X151774833Y-115620659D01*
X151716885Y-115605132D01*
X151684671Y-115596500D01*
X151591329Y-115596500D01*
X151559115Y-115605132D01*
X151501167Y-115620659D01*
X151420333Y-115667328D01*
X151420330Y-115667330D01*
X151354330Y-115733330D01*
X151354328Y-115733333D01*
X151307659Y-115814167D01*
X151295579Y-115859248D01*
X151283500Y-115904329D01*
X146023500Y-115904329D01*
X145999341Y-115814168D01*
X145952671Y-115733332D01*
X145886668Y-115667329D01*
X145805832Y-115620659D01*
X145805833Y-115620659D01*
X145747885Y-115605132D01*
X145715671Y-115596500D01*
X145622329Y-115596500D01*
X145590115Y-115605132D01*
X145532167Y-115620659D01*
X145451333Y-115667328D01*
X145451330Y-115667330D01*
X145385330Y-115733330D01*
X145385328Y-115733333D01*
X145338659Y-115814167D01*
X145326579Y-115859248D01*
X145314500Y-115904329D01*
X128935192Y-115904329D01*
X128944542Y-115890336D01*
X128986657Y-115827310D01*
X129016246Y-115783026D01*
X129016246Y-115783025D01*
X129016250Y-115783020D01*
X129089936Y-115605126D01*
X129127500Y-115416275D01*
X129127500Y-115223725D01*
X129089936Y-115034874D01*
X129077896Y-115005806D01*
X129016253Y-114856986D01*
X129016246Y-114856973D01*
X128909274Y-114696880D01*
X128909271Y-114696876D01*
X128773123Y-114560728D01*
X128773119Y-114560725D01*
X128645277Y-114475303D01*
X128613026Y-114453753D01*
X128613013Y-114453746D01*
X128435767Y-114380329D01*
X139980500Y-114380329D01*
X139980500Y-114473671D01*
X140004659Y-114563832D01*
X140051329Y-114644668D01*
X140117332Y-114710671D01*
X140198168Y-114757341D01*
X140288329Y-114781500D01*
X140288331Y-114781500D01*
X140381669Y-114781500D01*
X140381671Y-114781500D01*
X140471832Y-114757341D01*
X140552668Y-114710671D01*
X140618671Y-114644668D01*
X140665341Y-114563832D01*
X140689500Y-114473671D01*
X140689500Y-114380329D01*
X140689413Y-114380003D01*
X152172500Y-114380003D01*
X152172500Y-114473345D01*
X152196659Y-114563506D01*
X152243329Y-114644342D01*
X152309332Y-114710345D01*
X152390168Y-114757015D01*
X152480329Y-114781174D01*
X152480331Y-114781174D01*
X152573669Y-114781174D01*
X152573671Y-114781174D01*
X152663832Y-114757015D01*
X152744668Y-114710345D01*
X152810671Y-114644342D01*
X152857341Y-114563506D01*
X152881500Y-114473345D01*
X152881500Y-114380003D01*
X152857341Y-114289842D01*
X152810671Y-114209006D01*
X152744668Y-114143003D01*
X152663832Y-114096333D01*
X152663833Y-114096333D01*
X152633778Y-114088280D01*
X152573671Y-114072174D01*
X152480329Y-114072174D01*
X152420221Y-114088280D01*
X152390167Y-114096333D01*
X152309333Y-114143002D01*
X152309330Y-114143004D01*
X152243330Y-114209004D01*
X152243328Y-114209007D01*
X152196659Y-114289841D01*
X152184579Y-114334922D01*
X152172500Y-114380003D01*
X140689413Y-114380003D01*
X140665341Y-114290168D01*
X140618671Y-114209332D01*
X140552668Y-114143329D01*
X140471832Y-114096659D01*
X140471833Y-114096659D01*
X140441778Y-114088606D01*
X140381671Y-114072500D01*
X140288329Y-114072500D01*
X140228221Y-114088606D01*
X140198167Y-114096659D01*
X140117333Y-114143328D01*
X140117330Y-114143330D01*
X140051330Y-114209330D01*
X140051328Y-114209333D01*
X140004659Y-114290167D01*
X140004659Y-114290168D01*
X139980500Y-114380329D01*
X128435767Y-114380329D01*
X128435132Y-114380066D01*
X128435128Y-114380064D01*
X128435126Y-114380064D01*
X128435122Y-114380063D01*
X128435118Y-114380062D01*
X128246279Y-114342500D01*
X128246275Y-114342500D01*
X128053725Y-114342500D01*
X128053720Y-114342500D01*
X127864881Y-114380062D01*
X127864867Y-114380066D01*
X127686986Y-114453746D01*
X127686973Y-114453753D01*
X127526880Y-114560725D01*
X127526876Y-114560728D01*
X127390728Y-114696876D01*
X127390725Y-114696880D01*
X127283753Y-114856973D01*
X127283746Y-114856986D01*
X127210066Y-115034867D01*
X127210062Y-115034881D01*
X127172500Y-115223720D01*
X126300500Y-115223720D01*
X126300500Y-112683720D01*
X127172500Y-112683720D01*
X127172500Y-112876279D01*
X127210062Y-113065118D01*
X127210066Y-113065132D01*
X127283746Y-113243013D01*
X127283753Y-113243026D01*
X127390725Y-113403119D01*
X127390728Y-113403123D01*
X127526876Y-113539271D01*
X127526880Y-113539274D01*
X127686973Y-113646246D01*
X127686986Y-113646253D01*
X127803874Y-113694669D01*
X127864874Y-113719936D01*
X128053720Y-113757499D01*
X128053724Y-113757500D01*
X128053725Y-113757500D01*
X128246276Y-113757500D01*
X128246277Y-113757499D01*
X128435126Y-113719936D01*
X128613020Y-113646250D01*
X128773120Y-113539274D01*
X128909274Y-113403120D01*
X129016250Y-113243020D01*
X129018607Y-113237329D01*
X140615500Y-113237329D01*
X140615500Y-113330671D01*
X140639659Y-113420832D01*
X140686329Y-113501668D01*
X140752332Y-113567671D01*
X140833168Y-113614341D01*
X140923329Y-113638500D01*
X140923331Y-113638500D01*
X141016669Y-113638500D01*
X141016671Y-113638500D01*
X141106832Y-113614341D01*
X141187668Y-113567671D01*
X141253671Y-113501668D01*
X141300341Y-113420832D01*
X141315481Y-113364329D01*
X151156500Y-113364329D01*
X151156500Y-113457671D01*
X151180659Y-113547832D01*
X151227329Y-113628668D01*
X151293332Y-113694671D01*
X151374168Y-113741341D01*
X151464329Y-113765500D01*
X151464331Y-113765500D01*
X151557669Y-113765500D01*
X151557671Y-113765500D01*
X151647832Y-113741341D01*
X151728668Y-113694671D01*
X151794671Y-113628668D01*
X151841341Y-113547832D01*
X151865500Y-113457671D01*
X151865500Y-113364329D01*
X151841341Y-113274168D01*
X151820072Y-113237329D01*
X161316500Y-113237329D01*
X161316500Y-113330671D01*
X161340659Y-113420832D01*
X161387329Y-113501668D01*
X161453332Y-113567671D01*
X161534168Y-113614341D01*
X161624329Y-113638500D01*
X161624331Y-113638500D01*
X161717669Y-113638500D01*
X161717671Y-113638500D01*
X161807832Y-113614341D01*
X161888668Y-113567671D01*
X161954671Y-113501668D01*
X162001341Y-113420832D01*
X162025500Y-113330671D01*
X162025500Y-113237329D01*
X162001341Y-113147168D01*
X161954671Y-113066332D01*
X161888668Y-113000329D01*
X161807832Y-112953659D01*
X161807833Y-112953659D01*
X161777778Y-112945606D01*
X161717671Y-112929500D01*
X161624329Y-112929500D01*
X161564221Y-112945606D01*
X161534167Y-112953659D01*
X161453333Y-113000328D01*
X161453330Y-113000330D01*
X161387330Y-113066330D01*
X161387328Y-113066333D01*
X161340659Y-113147167D01*
X161340659Y-113147168D01*
X161316500Y-113237329D01*
X151820072Y-113237329D01*
X151794671Y-113193332D01*
X151728668Y-113127329D01*
X151647832Y-113080659D01*
X151647833Y-113080659D01*
X151617778Y-113072606D01*
X151557671Y-113056500D01*
X151464329Y-113056500D01*
X151404221Y-113072606D01*
X151374167Y-113080659D01*
X151293333Y-113127328D01*
X151293330Y-113127330D01*
X151227330Y-113193330D01*
X151227328Y-113193333D01*
X151180659Y-113274167D01*
X151180659Y-113274168D01*
X151156500Y-113364329D01*
X141315481Y-113364329D01*
X141324500Y-113330671D01*
X141324500Y-113237329D01*
X141300341Y-113147168D01*
X141253671Y-113066332D01*
X141187668Y-113000329D01*
X141106832Y-112953659D01*
X141106833Y-112953659D01*
X141076778Y-112945606D01*
X141016671Y-112929500D01*
X140923329Y-112929500D01*
X140863221Y-112945606D01*
X140833167Y-112953659D01*
X140752333Y-113000328D01*
X140752330Y-113000330D01*
X140686330Y-113066330D01*
X140686328Y-113066333D01*
X140639659Y-113147167D01*
X140639659Y-113147168D01*
X140615500Y-113237329D01*
X129018607Y-113237329D01*
X129036831Y-113193333D01*
X129041630Y-113181748D01*
X129041630Y-113181746D01*
X129055953Y-113147168D01*
X129089936Y-113065126D01*
X129127500Y-112876275D01*
X129127500Y-112729329D01*
X163983500Y-112729329D01*
X163983500Y-112822671D01*
X164007659Y-112912832D01*
X164054329Y-112993668D01*
X164120332Y-113059671D01*
X164201168Y-113106341D01*
X164291329Y-113130500D01*
X164291331Y-113130500D01*
X164384669Y-113130500D01*
X164384671Y-113130500D01*
X164474832Y-113106341D01*
X164555668Y-113059671D01*
X164621671Y-112993668D01*
X164668341Y-112912832D01*
X164692500Y-112822671D01*
X164692500Y-112729329D01*
X164668341Y-112639168D01*
X164621671Y-112558332D01*
X164555668Y-112492329D01*
X164474832Y-112445659D01*
X164474833Y-112445659D01*
X164444778Y-112437606D01*
X164384671Y-112421500D01*
X164291329Y-112421500D01*
X164231221Y-112437606D01*
X164201167Y-112445659D01*
X164120333Y-112492328D01*
X164120330Y-112492330D01*
X164054330Y-112558330D01*
X164054328Y-112558333D01*
X164007659Y-112639167D01*
X164007659Y-112639168D01*
X163983500Y-112729329D01*
X129127500Y-112729329D01*
X129127500Y-112683725D01*
X129089936Y-112494874D01*
X129058289Y-112418472D01*
X129016253Y-112316986D01*
X129016246Y-112316973D01*
X128909274Y-112156880D01*
X128909271Y-112156876D01*
X128773123Y-112020728D01*
X128773119Y-112020725D01*
X128613026Y-111913753D01*
X128613013Y-111913746D01*
X128435132Y-111840066D01*
X128435128Y-111840064D01*
X128435126Y-111840064D01*
X128435122Y-111840063D01*
X128435118Y-111840062D01*
X128246279Y-111802500D01*
X128246275Y-111802500D01*
X128053725Y-111802500D01*
X128053720Y-111802500D01*
X127864881Y-111840062D01*
X127864867Y-111840066D01*
X127686986Y-111913746D01*
X127686973Y-111913753D01*
X127526880Y-112020725D01*
X127526876Y-112020728D01*
X127390728Y-112156876D01*
X127390725Y-112156880D01*
X127283753Y-112316973D01*
X127283746Y-112316986D01*
X127210066Y-112494867D01*
X127210062Y-112494881D01*
X127172500Y-112683720D01*
X126300500Y-112683720D01*
X126300500Y-110443329D01*
X138202500Y-110443329D01*
X138202500Y-110536671D01*
X138226659Y-110626832D01*
X138273329Y-110707668D01*
X138339332Y-110773671D01*
X138420168Y-110820341D01*
X138510329Y-110844500D01*
X138510331Y-110844500D01*
X138603669Y-110844500D01*
X138603671Y-110844500D01*
X138693832Y-110820341D01*
X138774668Y-110773671D01*
X138840671Y-110707668D01*
X138887341Y-110626832D01*
X138911500Y-110536671D01*
X138911500Y-110443329D01*
X138887341Y-110353168D01*
X138840671Y-110272332D01*
X138774668Y-110206329D01*
X138693832Y-110159659D01*
X138693833Y-110159659D01*
X138663778Y-110151606D01*
X138603671Y-110135500D01*
X138510329Y-110135500D01*
X138450221Y-110151606D01*
X138420167Y-110159659D01*
X138339333Y-110206328D01*
X138339330Y-110206330D01*
X138273330Y-110272330D01*
X138273328Y-110272333D01*
X138226659Y-110353167D01*
X138226659Y-110353168D01*
X138202500Y-110443329D01*
X126300500Y-110443329D01*
X126300500Y-107603720D01*
X127172500Y-107603720D01*
X127172500Y-107796279D01*
X127210062Y-107985118D01*
X127210066Y-107985132D01*
X127283746Y-108163013D01*
X127283753Y-108163026D01*
X127390725Y-108323119D01*
X127390728Y-108323123D01*
X127526876Y-108459271D01*
X127526880Y-108459274D01*
X127686973Y-108566246D01*
X127686986Y-108566253D01*
X127787986Y-108608088D01*
X127864874Y-108639936D01*
X128013058Y-108669411D01*
X128053720Y-108677499D01*
X128053724Y-108677500D01*
X128053725Y-108677500D01*
X128246276Y-108677500D01*
X128246277Y-108677499D01*
X128435126Y-108639936D01*
X128613020Y-108566250D01*
X128773120Y-108459274D01*
X128909274Y-108323120D01*
X129016250Y-108163020D01*
X129089936Y-107985126D01*
X129122184Y-107823000D01*
X136715500Y-107823000D01*
X136715500Y-107845255D01*
X136715500Y-108711999D01*
X136719158Y-108749158D01*
X136719161Y-108749167D01*
X136747602Y-108817831D01*
X136747604Y-108817835D01*
X136771300Y-108846709D01*
X137152290Y-109227699D01*
X137181164Y-109251395D01*
X137181168Y-109251397D01*
X137193085Y-109256333D01*
X137249835Y-109279840D01*
X137249839Y-109279840D01*
X137249841Y-109279841D01*
X137279791Y-109282790D01*
X137287000Y-109283500D01*
X137287001Y-109283500D01*
X143108240Y-109283500D01*
X143175279Y-109303185D01*
X143221034Y-109355989D01*
X143230978Y-109425147D01*
X143213667Y-109472777D01*
X143200130Y-109494638D01*
X143179500Y-109605002D01*
X143179500Y-112144997D01*
X143180802Y-112173183D01*
X143180804Y-112173192D01*
X143211526Y-112281169D01*
X143211527Y-112281171D01*
X143211528Y-112281173D01*
X143264118Y-112350814D01*
X143279186Y-112370767D01*
X143374639Y-112429869D01*
X143374641Y-112429870D01*
X143485000Y-112450500D01*
X143485002Y-112450500D01*
X149199998Y-112450500D01*
X149200000Y-112450500D01*
X149228188Y-112449197D01*
X149336173Y-112418472D01*
X149425767Y-112350814D01*
X149484870Y-112255359D01*
X149505500Y-112145000D01*
X149505500Y-109935329D01*
X150902500Y-109935329D01*
X150902500Y-110028671D01*
X150926659Y-110118832D01*
X150973329Y-110199668D01*
X151039332Y-110265671D01*
X151120168Y-110312341D01*
X151210329Y-110336500D01*
X151210331Y-110336500D01*
X151303669Y-110336500D01*
X151303671Y-110336500D01*
X151393832Y-110312341D01*
X151474668Y-110265671D01*
X151540671Y-110199668D01*
X151587341Y-110118832D01*
X151611500Y-110028671D01*
X151611500Y-109935329D01*
X151587341Y-109845168D01*
X151540671Y-109764332D01*
X151474668Y-109698329D01*
X151393832Y-109651659D01*
X151393833Y-109651659D01*
X151363778Y-109643606D01*
X151303671Y-109627500D01*
X151210329Y-109627500D01*
X151150221Y-109643606D01*
X151120167Y-109651659D01*
X151039333Y-109698328D01*
X151039330Y-109698330D01*
X150973330Y-109764330D01*
X150973328Y-109764333D01*
X150926659Y-109845167D01*
X150926659Y-109845168D01*
X150902500Y-109935329D01*
X149505500Y-109935329D01*
X149505500Y-109793201D01*
X149525185Y-109726162D01*
X149577989Y-109680407D01*
X149647147Y-109670463D01*
X149710703Y-109699488D01*
X149717181Y-109705520D01*
X149769332Y-109757671D01*
X149850168Y-109804341D01*
X149940329Y-109828500D01*
X149940331Y-109828500D01*
X150033669Y-109828500D01*
X150033671Y-109828500D01*
X150123832Y-109804341D01*
X150204668Y-109757671D01*
X150270671Y-109691668D01*
X150317341Y-109610832D01*
X150341500Y-109520671D01*
X150341500Y-109427329D01*
X150317341Y-109337168D01*
X150270671Y-109256332D01*
X150204668Y-109190329D01*
X150123832Y-109143659D01*
X150123833Y-109143659D01*
X150093778Y-109135606D01*
X150033671Y-109119500D01*
X149940329Y-109119500D01*
X149880221Y-109135606D01*
X149850167Y-109143659D01*
X149769333Y-109190328D01*
X149769330Y-109190330D01*
X149703330Y-109256330D01*
X149703328Y-109256333D01*
X149656659Y-109337167D01*
X149656658Y-109337170D01*
X149648359Y-109368141D01*
X149611993Y-109427801D01*
X149549145Y-109458329D01*
X149479770Y-109450032D01*
X149429631Y-109410771D01*
X149405815Y-109379233D01*
X149310360Y-109320130D01*
X149310361Y-109320130D01*
X149255179Y-109309815D01*
X149200000Y-109299500D01*
X143872271Y-109299500D01*
X143805232Y-109279815D01*
X143759477Y-109227011D01*
X143749533Y-109157853D01*
X143778558Y-109094297D01*
X143784590Y-109087819D01*
X144969080Y-107903329D01*
X151283500Y-107903329D01*
X151283500Y-107996671D01*
X151307659Y-108086832D01*
X151354329Y-108167668D01*
X151420332Y-108233671D01*
X151501168Y-108280341D01*
X151591329Y-108304500D01*
X151591331Y-108304500D01*
X151684669Y-108304500D01*
X151684671Y-108304500D01*
X151759949Y-108284329D01*
X158014500Y-108284329D01*
X158014500Y-108377671D01*
X158038659Y-108467832D01*
X158085329Y-108548668D01*
X158151332Y-108614671D01*
X158232168Y-108661341D01*
X158322329Y-108685500D01*
X158322331Y-108685500D01*
X158415669Y-108685500D01*
X158415671Y-108685500D01*
X158505832Y-108661341D01*
X158586668Y-108614671D01*
X158652671Y-108548668D01*
X158699341Y-108467832D01*
X158723500Y-108377671D01*
X158723500Y-108284329D01*
X158699341Y-108194168D01*
X158652671Y-108113332D01*
X158586668Y-108047329D01*
X158505832Y-108000659D01*
X158505833Y-108000659D01*
X158447885Y-107985132D01*
X158415671Y-107976500D01*
X158322329Y-107976500D01*
X158290115Y-107985132D01*
X158232167Y-108000659D01*
X158151333Y-108047328D01*
X158151330Y-108047330D01*
X158085330Y-108113330D01*
X158085328Y-108113333D01*
X158038659Y-108194167D01*
X158038659Y-108194168D01*
X158014500Y-108284329D01*
X151759949Y-108284329D01*
X151774832Y-108280341D01*
X151855668Y-108233671D01*
X151921671Y-108167668D01*
X151968341Y-108086832D01*
X151992500Y-107996671D01*
X151992500Y-107903329D01*
X151968341Y-107813168D01*
X151921671Y-107732332D01*
X151921667Y-107732328D01*
X151916725Y-107725887D01*
X151918654Y-107724406D01*
X151891073Y-107673896D01*
X151896057Y-107604204D01*
X151937929Y-107548271D01*
X152003393Y-107523854D01*
X152044329Y-107527762D01*
X152099329Y-107542500D01*
X152099331Y-107542500D01*
X152192669Y-107542500D01*
X152192671Y-107542500D01*
X152282832Y-107518341D01*
X152363668Y-107471671D01*
X152429671Y-107405668D01*
X152476341Y-107324832D01*
X152500500Y-107234671D01*
X152500500Y-107141329D01*
X152476341Y-107051168D01*
X152455072Y-107014329D01*
X157379500Y-107014329D01*
X157379500Y-107107671D01*
X157403659Y-107197832D01*
X157450329Y-107278668D01*
X157516332Y-107344671D01*
X157597168Y-107391341D01*
X157687329Y-107415500D01*
X157687331Y-107415500D01*
X157780669Y-107415500D01*
X157780671Y-107415500D01*
X157870832Y-107391341D01*
X157951668Y-107344671D01*
X158017671Y-107278668D01*
X158064341Y-107197832D01*
X158088500Y-107107671D01*
X158088500Y-107014329D01*
X158064341Y-106924168D01*
X158017671Y-106843332D01*
X157951668Y-106777329D01*
X157870832Y-106730659D01*
X157870833Y-106730659D01*
X157840383Y-106722500D01*
X157780671Y-106706500D01*
X157687329Y-106706500D01*
X157627617Y-106722500D01*
X157597167Y-106730659D01*
X157516333Y-106777328D01*
X157516330Y-106777330D01*
X157450330Y-106843330D01*
X157450328Y-106843333D01*
X157403659Y-106924167D01*
X157403659Y-106924168D01*
X157379500Y-107014329D01*
X152455072Y-107014329D01*
X152429671Y-106970332D01*
X152363668Y-106904329D01*
X152282832Y-106857659D01*
X152282833Y-106857659D01*
X152252778Y-106849606D01*
X152192671Y-106833500D01*
X152099329Y-106833500D01*
X152039221Y-106849606D01*
X152009167Y-106857659D01*
X151928333Y-106904328D01*
X151928330Y-106904330D01*
X151862330Y-106970330D01*
X151862328Y-106970333D01*
X151815659Y-107051167D01*
X151815659Y-107051168D01*
X151791500Y-107141329D01*
X151791500Y-107234671D01*
X151815659Y-107324832D01*
X151862329Y-107405668D01*
X151862330Y-107405669D01*
X151867275Y-107412113D01*
X151865345Y-107413593D01*
X151892926Y-107464103D01*
X151887942Y-107533795D01*
X151846070Y-107589728D01*
X151780606Y-107614145D01*
X151739667Y-107610236D01*
X151684671Y-107595500D01*
X151591329Y-107595500D01*
X151531221Y-107611606D01*
X151501167Y-107619659D01*
X151420333Y-107666328D01*
X151420330Y-107666330D01*
X151354330Y-107732330D01*
X151354328Y-107732333D01*
X151307659Y-107813167D01*
X151307659Y-107813168D01*
X151283500Y-107903329D01*
X144969080Y-107903329D01*
X145064889Y-107807520D01*
X146366079Y-106506329D01*
X150521500Y-106506329D01*
X150521500Y-106599671D01*
X150545659Y-106689832D01*
X150592329Y-106770668D01*
X150658332Y-106836671D01*
X150739168Y-106883341D01*
X150829329Y-106907500D01*
X150829331Y-106907500D01*
X150922669Y-106907500D01*
X150922671Y-106907500D01*
X151012832Y-106883341D01*
X151093668Y-106836671D01*
X151159671Y-106770668D01*
X151206341Y-106689832D01*
X151230500Y-106599671D01*
X151230500Y-106506329D01*
X151206341Y-106416168D01*
X151159671Y-106335332D01*
X151093668Y-106269329D01*
X151093667Y-106269328D01*
X151059060Y-106249348D01*
X151012832Y-106222659D01*
X150922671Y-106198500D01*
X150829329Y-106198500D01*
X150769221Y-106214606D01*
X150739167Y-106222659D01*
X150658333Y-106269328D01*
X150658330Y-106269330D01*
X150592330Y-106335330D01*
X150592328Y-106335333D01*
X150545659Y-106416167D01*
X150545659Y-106416168D01*
X150521500Y-106506329D01*
X146366079Y-106506329D01*
X146819699Y-106052709D01*
X146819704Y-106052704D01*
X146843395Y-106023836D01*
X146871840Y-105955165D01*
X146871923Y-105954330D01*
X146874619Y-105926943D01*
X146875500Y-105918000D01*
X146875500Y-105236329D01*
X149378500Y-105236329D01*
X149378500Y-105329671D01*
X149402659Y-105419832D01*
X149449329Y-105500668D01*
X149515332Y-105566671D01*
X149515333Y-105566672D01*
X149515335Y-105566673D01*
X149579305Y-105603606D01*
X149627520Y-105654173D01*
X149640744Y-105722780D01*
X149614776Y-105787644D01*
X149604988Y-105798673D01*
X149576328Y-105827333D01*
X149529659Y-105908167D01*
X149529659Y-105908168D01*
X149505500Y-105998329D01*
X149505500Y-106091671D01*
X149529659Y-106181832D01*
X149576329Y-106262668D01*
X149642332Y-106328671D01*
X149723168Y-106375341D01*
X149813329Y-106399500D01*
X149813331Y-106399500D01*
X149906669Y-106399500D01*
X149906671Y-106399500D01*
X149996832Y-106375341D01*
X150077668Y-106328671D01*
X150143671Y-106262668D01*
X150190341Y-106181832D01*
X150205481Y-106125329D01*
X155601500Y-106125329D01*
X155601500Y-106218671D01*
X155625659Y-106308832D01*
X155672329Y-106389668D01*
X155738332Y-106455671D01*
X155819168Y-106502341D01*
X155909329Y-106526500D01*
X155909331Y-106526500D01*
X156002669Y-106526500D01*
X156002671Y-106526500D01*
X156092832Y-106502341D01*
X156173668Y-106455671D01*
X156239671Y-106389668D01*
X156286341Y-106308832D01*
X156310500Y-106218671D01*
X156310500Y-106125329D01*
X156286341Y-106035168D01*
X156239671Y-105954332D01*
X156173668Y-105888329D01*
X156092832Y-105841659D01*
X156092833Y-105841659D01*
X156062778Y-105833606D01*
X156002671Y-105817500D01*
X155909329Y-105817500D01*
X155849221Y-105833606D01*
X155819167Y-105841659D01*
X155738333Y-105888328D01*
X155738330Y-105888330D01*
X155672330Y-105954330D01*
X155672328Y-105954333D01*
X155625659Y-106035167D01*
X155625659Y-106035168D01*
X155601500Y-106125329D01*
X150205481Y-106125329D01*
X150214500Y-106091671D01*
X150214500Y-105998329D01*
X150190341Y-105908168D01*
X150143671Y-105827332D01*
X150077668Y-105761329D01*
X150077667Y-105761328D01*
X150077664Y-105761326D01*
X150013694Y-105724393D01*
X149965478Y-105673826D01*
X149952256Y-105605219D01*
X149978224Y-105540354D01*
X149987998Y-105529340D01*
X150016671Y-105500668D01*
X150063341Y-105419832D01*
X150087500Y-105329671D01*
X150087500Y-105236329D01*
X150063341Y-105146168D01*
X150016671Y-105065332D01*
X149950668Y-104999329D01*
X149869832Y-104952659D01*
X149869833Y-104952659D01*
X149829015Y-104941722D01*
X149779671Y-104928500D01*
X149686329Y-104928500D01*
X149636985Y-104941722D01*
X149596167Y-104952659D01*
X149515333Y-104999328D01*
X149515330Y-104999330D01*
X149449330Y-105065330D01*
X149449328Y-105065333D01*
X149402659Y-105146167D01*
X149402659Y-105146168D01*
X149378500Y-105236329D01*
X146875500Y-105236329D01*
X146875500Y-105072770D01*
X146895185Y-105005731D01*
X146911819Y-104985089D01*
X147758089Y-104138819D01*
X147819412Y-104105334D01*
X147845770Y-104102500D01*
X148452999Y-104102500D01*
X148453000Y-104102500D01*
X148461943Y-104101619D01*
X148490158Y-104098841D01*
X148490159Y-104098840D01*
X148490165Y-104098840D01*
X148558836Y-104070395D01*
X148611395Y-104017836D01*
X148639840Y-103949165D01*
X148639840Y-103874835D01*
X148611395Y-103806164D01*
X148611393Y-103806162D01*
X148611393Y-103806161D01*
X148558837Y-103753605D01*
X148524500Y-103739382D01*
X148490165Y-103725160D01*
X148490163Y-103725159D01*
X148490158Y-103725158D01*
X148455595Y-103721755D01*
X148453000Y-103721500D01*
X147715501Y-103721500D01*
X147711842Y-103721860D01*
X147678337Y-103725159D01*
X147678334Y-103725160D01*
X147629777Y-103745272D01*
X147629777Y-103745273D01*
X147621446Y-103748724D01*
X147609665Y-103753604D01*
X147580793Y-103777300D01*
X146772680Y-104585411D01*
X146711357Y-104618896D01*
X146641665Y-104613912D01*
X146597318Y-104585411D01*
X146403819Y-104391912D01*
X146370334Y-104330589D01*
X146367500Y-104304231D01*
X146367500Y-103712329D01*
X152172500Y-103712329D01*
X152172500Y-103805671D01*
X152196659Y-103895832D01*
X152243329Y-103976668D01*
X152309332Y-104042671D01*
X152390168Y-104089341D01*
X152457853Y-104107477D01*
X152517511Y-104143841D01*
X152548040Y-104206688D01*
X152539745Y-104276064D01*
X152495260Y-104329942D01*
X152487758Y-104334638D01*
X152436332Y-104364328D01*
X152370330Y-104430330D01*
X152370328Y-104430333D01*
X152323659Y-104511167D01*
X152323659Y-104511168D01*
X152299500Y-104601329D01*
X152299500Y-104694671D01*
X152323659Y-104784832D01*
X152370329Y-104865668D01*
X152436332Y-104931671D01*
X152517168Y-104978341D01*
X152607329Y-105002500D01*
X152607331Y-105002500D01*
X152700669Y-105002500D01*
X152700671Y-105002500D01*
X152790832Y-104978341D01*
X152871668Y-104931671D01*
X152937671Y-104865668D01*
X152984341Y-104784832D01*
X153008500Y-104694671D01*
X153008500Y-104601329D01*
X152984341Y-104511168D01*
X152963072Y-104474329D01*
X157633500Y-104474329D01*
X157633500Y-104567671D01*
X157657659Y-104657832D01*
X157704329Y-104738668D01*
X157770332Y-104804671D01*
X157851168Y-104851341D01*
X157941329Y-104875500D01*
X157941331Y-104875500D01*
X158034669Y-104875500D01*
X158034671Y-104875500D01*
X158124832Y-104851341D01*
X158205668Y-104804671D01*
X158271671Y-104738668D01*
X158318341Y-104657832D01*
X158342500Y-104567671D01*
X158342500Y-104474329D01*
X158318341Y-104384168D01*
X158271671Y-104303332D01*
X158205668Y-104237329D01*
X158124832Y-104190659D01*
X158124833Y-104190659D01*
X158094383Y-104182500D01*
X158034671Y-104166500D01*
X157941329Y-104166500D01*
X157881617Y-104182500D01*
X157851167Y-104190659D01*
X157770333Y-104237328D01*
X157770330Y-104237330D01*
X157704330Y-104303330D01*
X157704328Y-104303333D01*
X157657659Y-104384167D01*
X157657659Y-104384168D01*
X157633500Y-104474329D01*
X152963072Y-104474329D01*
X152937671Y-104430332D01*
X152871668Y-104364329D01*
X152790832Y-104317659D01*
X152723145Y-104299522D01*
X152663487Y-104263157D01*
X152632959Y-104200310D01*
X152641254Y-104130934D01*
X152685740Y-104077057D01*
X152693244Y-104072360D01*
X152696648Y-104070395D01*
X152744668Y-104042671D01*
X152810671Y-103976668D01*
X152857341Y-103895832D01*
X152881500Y-103805671D01*
X152881500Y-103712329D01*
X152857341Y-103622168D01*
X152810671Y-103541332D01*
X152744668Y-103475329D01*
X152663832Y-103428659D01*
X152663833Y-103428659D01*
X152633778Y-103420606D01*
X152573671Y-103404500D01*
X152480329Y-103404500D01*
X152420221Y-103420606D01*
X152390167Y-103428659D01*
X152309333Y-103475328D01*
X152309330Y-103475330D01*
X152243330Y-103541330D01*
X152243328Y-103541333D01*
X152196659Y-103622167D01*
X152196659Y-103622168D01*
X152172500Y-103712329D01*
X146367500Y-103712329D01*
X146367500Y-102569329D01*
X155347500Y-102569329D01*
X155347500Y-102662671D01*
X155371659Y-102752832D01*
X155418329Y-102833668D01*
X155484332Y-102899671D01*
X155565168Y-102946341D01*
X155655329Y-102970500D01*
X155655331Y-102970500D01*
X155748669Y-102970500D01*
X155748671Y-102970500D01*
X155838832Y-102946341D01*
X155919668Y-102899671D01*
X155985671Y-102833668D01*
X156032341Y-102752832D01*
X156056500Y-102662671D01*
X156056500Y-102569329D01*
X156032341Y-102479168D01*
X155985671Y-102398332D01*
X155919668Y-102332329D01*
X155838832Y-102285659D01*
X155838833Y-102285659D01*
X155808778Y-102277606D01*
X155748671Y-102261500D01*
X155655329Y-102261500D01*
X155595221Y-102277606D01*
X155565167Y-102285659D01*
X155484333Y-102332328D01*
X155484330Y-102332330D01*
X155418330Y-102398330D01*
X155418328Y-102398333D01*
X155371659Y-102479167D01*
X155359579Y-102524248D01*
X155347500Y-102569329D01*
X146367500Y-102569329D01*
X146367500Y-102061329D01*
X152553500Y-102061329D01*
X152553500Y-102154671D01*
X152577659Y-102244832D01*
X152624329Y-102325668D01*
X152690332Y-102391671D01*
X152771168Y-102438341D01*
X152861329Y-102462500D01*
X152861331Y-102462500D01*
X152954669Y-102462500D01*
X152954671Y-102462500D01*
X153044832Y-102438341D01*
X153125668Y-102391671D01*
X153191671Y-102325668D01*
X153238341Y-102244832D01*
X153262500Y-102154671D01*
X153262500Y-102061329D01*
X153238341Y-101971168D01*
X153191671Y-101890332D01*
X153125668Y-101824329D01*
X153044832Y-101777659D01*
X153044833Y-101777659D01*
X153014778Y-101769606D01*
X152954671Y-101753500D01*
X152861329Y-101753500D01*
X152801221Y-101769606D01*
X152771167Y-101777659D01*
X152690333Y-101824328D01*
X152690330Y-101824330D01*
X152624330Y-101890330D01*
X152624328Y-101890333D01*
X152577659Y-101971167D01*
X152577659Y-101971168D01*
X152553500Y-102061329D01*
X146367500Y-102061329D01*
X146367500Y-101426329D01*
X151791500Y-101426329D01*
X151791500Y-101519671D01*
X151815659Y-101609832D01*
X151862329Y-101690668D01*
X151928332Y-101756671D01*
X152009168Y-101803341D01*
X152099329Y-101827500D01*
X152099331Y-101827500D01*
X152192669Y-101827500D01*
X152192671Y-101827500D01*
X152282832Y-101803341D01*
X152363668Y-101756671D01*
X152429671Y-101690668D01*
X152476341Y-101609832D01*
X152500500Y-101519671D01*
X152500500Y-101426329D01*
X152476341Y-101336168D01*
X152476340Y-101336166D01*
X152473230Y-101328658D01*
X152475523Y-101327707D01*
X152461999Y-101271960D01*
X152484851Y-101205933D01*
X152539772Y-101162742D01*
X152609325Y-101156100D01*
X152636276Y-101166151D01*
X152636658Y-101165230D01*
X152644166Y-101168340D01*
X152644168Y-101168341D01*
X152734329Y-101192500D01*
X152734331Y-101192500D01*
X152827669Y-101192500D01*
X152827671Y-101192500D01*
X152917832Y-101168341D01*
X152998668Y-101121671D01*
X153064671Y-101055668D01*
X153111341Y-100974832D01*
X153135500Y-100884671D01*
X153135500Y-100791329D01*
X153111341Y-100701168D01*
X153090072Y-100664329D01*
X157506500Y-100664329D01*
X157506500Y-100757671D01*
X157530659Y-100847832D01*
X157577329Y-100928668D01*
X157643332Y-100994671D01*
X157724168Y-101041341D01*
X157814329Y-101065500D01*
X157814331Y-101065500D01*
X157907669Y-101065500D01*
X157907671Y-101065500D01*
X157997832Y-101041341D01*
X158078668Y-100994671D01*
X158144671Y-100928668D01*
X158191341Y-100847832D01*
X158215500Y-100757671D01*
X158215500Y-100664329D01*
X158191341Y-100574168D01*
X158144671Y-100493332D01*
X158078668Y-100427329D01*
X157997832Y-100380659D01*
X157997833Y-100380659D01*
X157967778Y-100372606D01*
X157907671Y-100356500D01*
X157814329Y-100356500D01*
X157754221Y-100372606D01*
X157724167Y-100380659D01*
X157643333Y-100427328D01*
X157643330Y-100427330D01*
X157577330Y-100493330D01*
X157577328Y-100493333D01*
X157530659Y-100574167D01*
X157530659Y-100574168D01*
X157506500Y-100664329D01*
X153090072Y-100664329D01*
X153064671Y-100620332D01*
X152998668Y-100554329D01*
X152917832Y-100507659D01*
X152917833Y-100507659D01*
X152887778Y-100499606D01*
X152827671Y-100483500D01*
X152734329Y-100483500D01*
X152674221Y-100499606D01*
X152644167Y-100507659D01*
X152563333Y-100554328D01*
X152563330Y-100554330D01*
X152497330Y-100620330D01*
X152497328Y-100620333D01*
X152450659Y-100701167D01*
X152450659Y-100701168D01*
X152426500Y-100791329D01*
X152426500Y-100884671D01*
X152442606Y-100944778D01*
X152450659Y-100974833D01*
X152453770Y-100982342D01*
X152451477Y-100983291D01*
X152464999Y-101039051D01*
X152442141Y-101105076D01*
X152387216Y-101148262D01*
X152317662Y-101154897D01*
X152290723Y-101144849D01*
X152290342Y-101145770D01*
X152282833Y-101142659D01*
X152252778Y-101134606D01*
X152192671Y-101118500D01*
X152099329Y-101118500D01*
X152039221Y-101134606D01*
X152009167Y-101142659D01*
X151928333Y-101189328D01*
X151928330Y-101189330D01*
X151862330Y-101255330D01*
X151862328Y-101255333D01*
X151815659Y-101336167D01*
X151815659Y-101336168D01*
X151791500Y-101426329D01*
X146367500Y-101426329D01*
X146367500Y-101095270D01*
X146387185Y-101028231D01*
X146403819Y-101007589D01*
X147037589Y-100373819D01*
X147098912Y-100340334D01*
X147125270Y-100337500D01*
X148542443Y-100337500D01*
X148542444Y-100337500D01*
X148551387Y-100336619D01*
X148579602Y-100333841D01*
X148579603Y-100333840D01*
X148579609Y-100333840D01*
X148648280Y-100305395D01*
X148700839Y-100252836D01*
X148729284Y-100184165D01*
X148729284Y-100109835D01*
X148700839Y-100041164D01*
X148700837Y-100041162D01*
X148700837Y-100041161D01*
X148648281Y-99988605D01*
X148613944Y-99974382D01*
X148579609Y-99960160D01*
X148579607Y-99960159D01*
X148579602Y-99960158D01*
X148545039Y-99956755D01*
X148542444Y-99956500D01*
X146995000Y-99956500D01*
X146990941Y-99956899D01*
X146957837Y-99960159D01*
X146957832Y-99960160D01*
X146889170Y-99988600D01*
X146889165Y-99988603D01*
X146860290Y-100012301D01*
X146134411Y-100738181D01*
X146073088Y-100771666D01*
X146046730Y-100774500D01*
X144275270Y-100774500D01*
X144208231Y-100754815D01*
X144187589Y-100738181D01*
X142720819Y-99271411D01*
X142706115Y-99244483D01*
X142689523Y-99218665D01*
X142688631Y-99212464D01*
X142687334Y-99210088D01*
X142684500Y-99183730D01*
X142684500Y-99013329D01*
X149505500Y-99013329D01*
X149505500Y-99106671D01*
X149529659Y-99196832D01*
X149576329Y-99277668D01*
X149642332Y-99343671D01*
X149723168Y-99390341D01*
X149813329Y-99414500D01*
X149813331Y-99414500D01*
X149906669Y-99414500D01*
X149906671Y-99414500D01*
X149996832Y-99390341D01*
X150077668Y-99343671D01*
X150143671Y-99277668D01*
X150155188Y-99257719D01*
X151591500Y-99257719D01*
X151591500Y-99370280D01*
X151620633Y-99479010D01*
X151638075Y-99509219D01*
X151676915Y-99576491D01*
X151756509Y-99656085D01*
X151853991Y-99712367D01*
X151962719Y-99741500D01*
X151962721Y-99741500D01*
X152075279Y-99741500D01*
X152075281Y-99741500D01*
X152184009Y-99712367D01*
X152281491Y-99656085D01*
X152361085Y-99576491D01*
X152417367Y-99479009D01*
X152446500Y-99370281D01*
X152446500Y-99257719D01*
X152417367Y-99148991D01*
X152361085Y-99051509D01*
X152322905Y-99013329D01*
X156236500Y-99013329D01*
X156236500Y-99106671D01*
X156260659Y-99196832D01*
X156307329Y-99277668D01*
X156373332Y-99343671D01*
X156454168Y-99390341D01*
X156544329Y-99414500D01*
X156544331Y-99414500D01*
X156637669Y-99414500D01*
X156637671Y-99414500D01*
X156727832Y-99390341D01*
X156808668Y-99343671D01*
X156874671Y-99277668D01*
X156921341Y-99196832D01*
X156945500Y-99106671D01*
X156945500Y-99013329D01*
X156943892Y-99007329D01*
X163196441Y-99007329D01*
X163196441Y-99100671D01*
X163220600Y-99190832D01*
X163267270Y-99271668D01*
X163333273Y-99337671D01*
X163414109Y-99384341D01*
X163504270Y-99408500D01*
X163504272Y-99408500D01*
X163597610Y-99408500D01*
X163597612Y-99408500D01*
X163687773Y-99384341D01*
X163768609Y-99337671D01*
X163834612Y-99271668D01*
X163881282Y-99190832D01*
X163905441Y-99100671D01*
X163905441Y-99007329D01*
X163881282Y-98917168D01*
X163834612Y-98836332D01*
X163768609Y-98770329D01*
X163687773Y-98723659D01*
X163687774Y-98723659D01*
X163657719Y-98715606D01*
X163597612Y-98699500D01*
X163504270Y-98699500D01*
X163444162Y-98715606D01*
X163414108Y-98723659D01*
X163333274Y-98770328D01*
X163333271Y-98770330D01*
X163267271Y-98836330D01*
X163267269Y-98836333D01*
X163220600Y-98917167D01*
X163218992Y-98923168D01*
X163196441Y-99007329D01*
X156943892Y-99007329D01*
X156921341Y-98923168D01*
X156874671Y-98842332D01*
X156808668Y-98776329D01*
X156727832Y-98729659D01*
X156727833Y-98729659D01*
X156697778Y-98721606D01*
X156637671Y-98705500D01*
X156544329Y-98705500D01*
X156484221Y-98721606D01*
X156454167Y-98729659D01*
X156373333Y-98776328D01*
X156373330Y-98776330D01*
X156307330Y-98842330D01*
X156307328Y-98842333D01*
X156260659Y-98923167D01*
X156260659Y-98923168D01*
X156236500Y-99013329D01*
X152322905Y-99013329D01*
X152281491Y-98971915D01*
X152232750Y-98943774D01*
X152184010Y-98915633D01*
X152129645Y-98901066D01*
X152075281Y-98886500D01*
X151962719Y-98886500D01*
X151853989Y-98915633D01*
X151756509Y-98971915D01*
X151756506Y-98971917D01*
X151676917Y-99051506D01*
X151676915Y-99051509D01*
X151620633Y-99148989D01*
X151591500Y-99257719D01*
X150155188Y-99257719D01*
X150190341Y-99196832D01*
X150214500Y-99106671D01*
X150214500Y-99013329D01*
X150190341Y-98923168D01*
X150143671Y-98842332D01*
X150077668Y-98776329D01*
X149996832Y-98729659D01*
X149996833Y-98729659D01*
X149966778Y-98721606D01*
X149906671Y-98705500D01*
X149813329Y-98705500D01*
X149753221Y-98721606D01*
X149723167Y-98729659D01*
X149642333Y-98776328D01*
X149642330Y-98776330D01*
X149576330Y-98842330D01*
X149576328Y-98842333D01*
X149529659Y-98923167D01*
X149529659Y-98923168D01*
X149505500Y-99013329D01*
X142684500Y-99013329D01*
X142684500Y-97830101D01*
X142704185Y-97763062D01*
X142756989Y-97717307D01*
X142808500Y-97706101D01*
X145326943Y-97706101D01*
X145326944Y-97706101D01*
X145335887Y-97705220D01*
X145364102Y-97702442D01*
X145364103Y-97702441D01*
X145364109Y-97702441D01*
X145432780Y-97673996D01*
X145485339Y-97621437D01*
X145513784Y-97552766D01*
X145513784Y-97478436D01*
X145485339Y-97409765D01*
X145485337Y-97409763D01*
X145485337Y-97409762D01*
X145432781Y-97357206D01*
X145398444Y-97342983D01*
X145364109Y-97328761D01*
X145364107Y-97328760D01*
X145364102Y-97328759D01*
X145329539Y-97325356D01*
X145326944Y-97325101D01*
X145326943Y-97325101D01*
X142808500Y-97325101D01*
X142741461Y-97305416D01*
X142695706Y-97252612D01*
X142684500Y-97201101D01*
X142684500Y-96273719D01*
X146132500Y-96273719D01*
X146132500Y-96386281D01*
X146144035Y-96429330D01*
X146161633Y-96495010D01*
X146170385Y-96510168D01*
X146217915Y-96592491D01*
X146297509Y-96672085D01*
X146381928Y-96720825D01*
X146393487Y-96727499D01*
X146394991Y-96728367D01*
X146503719Y-96757500D01*
X146503721Y-96757500D01*
X146616279Y-96757500D01*
X146616281Y-96757500D01*
X146725009Y-96728367D01*
X146822491Y-96672085D01*
X146902085Y-96592491D01*
X146958367Y-96495009D01*
X146987500Y-96386281D01*
X146987500Y-96273719D01*
X146958367Y-96164991D01*
X146902085Y-96067509D01*
X146822491Y-95987915D01*
X146770530Y-95957915D01*
X146725010Y-95931633D01*
X146670645Y-95917066D01*
X146616281Y-95902500D01*
X146503719Y-95902500D01*
X146394989Y-95931633D01*
X146297509Y-95987915D01*
X146297506Y-95987917D01*
X146217917Y-96067506D01*
X146217915Y-96067509D01*
X146161633Y-96164989D01*
X146148142Y-96215340D01*
X146132500Y-96273719D01*
X142684500Y-96273719D01*
X142684500Y-95880101D01*
X142704185Y-95813062D01*
X142756989Y-95767307D01*
X142808500Y-95756101D01*
X145326943Y-95756101D01*
X145326944Y-95756101D01*
X145335887Y-95755220D01*
X145364102Y-95752442D01*
X145364103Y-95752441D01*
X145364109Y-95752441D01*
X145432780Y-95723996D01*
X145445447Y-95711329D01*
X150648500Y-95711329D01*
X150648500Y-95804671D01*
X150672659Y-95894832D01*
X150719329Y-95975668D01*
X150785332Y-96041671D01*
X150866168Y-96088341D01*
X150956329Y-96112500D01*
X150956331Y-96112500D01*
X151049669Y-96112500D01*
X151049671Y-96112500D01*
X151139832Y-96088341D01*
X151220668Y-96041671D01*
X151286671Y-95975668D01*
X151333341Y-95894832D01*
X151348481Y-95838329D01*
X159030500Y-95838329D01*
X159030500Y-95931671D01*
X159054659Y-96021832D01*
X159101329Y-96102668D01*
X159167332Y-96168671D01*
X159248168Y-96215341D01*
X159338329Y-96239500D01*
X159338331Y-96239500D01*
X159431669Y-96239500D01*
X159431671Y-96239500D01*
X159521832Y-96215341D01*
X159602668Y-96168671D01*
X159668671Y-96102668D01*
X159715341Y-96021832D01*
X159739500Y-95931671D01*
X159739500Y-95838329D01*
X159715341Y-95748168D01*
X159668671Y-95667332D01*
X159602668Y-95601329D01*
X159521832Y-95554659D01*
X159521833Y-95554659D01*
X159491778Y-95546606D01*
X159431671Y-95530500D01*
X159338329Y-95530500D01*
X159278221Y-95546606D01*
X159248167Y-95554659D01*
X159167333Y-95601328D01*
X159167330Y-95601330D01*
X159101330Y-95667330D01*
X159101328Y-95667333D01*
X159054659Y-95748167D01*
X159044924Y-95784500D01*
X159030500Y-95838329D01*
X151348481Y-95838329D01*
X151357500Y-95804671D01*
X151357500Y-95711329D01*
X151333341Y-95621168D01*
X151286671Y-95540332D01*
X151220668Y-95474329D01*
X151139832Y-95427659D01*
X151139833Y-95427659D01*
X151109778Y-95419606D01*
X151049671Y-95403500D01*
X150956329Y-95403500D01*
X150896221Y-95419606D01*
X150866167Y-95427659D01*
X150785333Y-95474328D01*
X150785330Y-95474330D01*
X150719330Y-95540330D01*
X150719328Y-95540333D01*
X150672659Y-95621167D01*
X150660579Y-95666248D01*
X150648500Y-95711329D01*
X145445447Y-95711329D01*
X145485339Y-95671437D01*
X145487039Y-95667333D01*
X145491836Y-95655754D01*
X145491838Y-95655747D01*
X145506161Y-95621168D01*
X145513784Y-95602766D01*
X145513784Y-95528436D01*
X145485339Y-95459765D01*
X145485337Y-95459763D01*
X145485337Y-95459762D01*
X145432781Y-95407206D01*
X145398444Y-95392983D01*
X145364109Y-95378761D01*
X145364107Y-95378760D01*
X145364102Y-95378759D01*
X145329539Y-95375356D01*
X145326944Y-95375101D01*
X145326943Y-95375101D01*
X142808500Y-95375101D01*
X142741461Y-95355416D01*
X142695706Y-95302612D01*
X142684500Y-95251101D01*
X142684500Y-93933329D01*
X163094500Y-93933329D01*
X163094500Y-94026671D01*
X163118659Y-94116832D01*
X163165329Y-94197668D01*
X163231332Y-94263671D01*
X163312168Y-94310341D01*
X163402329Y-94334500D01*
X163402331Y-94334500D01*
X163495669Y-94334500D01*
X163495671Y-94334500D01*
X163585832Y-94310341D01*
X163666668Y-94263671D01*
X163732671Y-94197668D01*
X163779341Y-94116832D01*
X163803500Y-94026671D01*
X163803500Y-93933329D01*
X163779341Y-93843168D01*
X163732671Y-93762332D01*
X163666668Y-93696329D01*
X163585832Y-93649659D01*
X163585833Y-93649659D01*
X163534472Y-93635897D01*
X163495671Y-93625500D01*
X163402329Y-93625500D01*
X163363528Y-93635897D01*
X163312167Y-93649659D01*
X163231333Y-93696328D01*
X163231330Y-93696330D01*
X163165330Y-93762330D01*
X163165328Y-93762333D01*
X163118659Y-93843167D01*
X163118659Y-93843168D01*
X163094500Y-93933329D01*
X142684500Y-93933329D01*
X142684500Y-93091000D01*
X142680841Y-93053841D01*
X142680840Y-93053839D01*
X142680840Y-93053835D01*
X142658701Y-93000388D01*
X142652397Y-92985168D01*
X142652395Y-92985164D01*
X142628699Y-92956290D01*
X142466819Y-92794410D01*
X142433334Y-92733087D01*
X142430500Y-92706729D01*
X142430500Y-91189270D01*
X142450185Y-91122231D01*
X142466819Y-91101589D01*
X142755699Y-90812709D01*
X142755704Y-90812704D01*
X142779395Y-90783836D01*
X142807840Y-90715165D01*
X142807922Y-90714332D01*
X142808748Y-90705949D01*
X142834907Y-90641162D01*
X142848802Y-90631329D01*
X147727500Y-90631329D01*
X147727500Y-90724671D01*
X147751659Y-90814832D01*
X147798329Y-90895668D01*
X147864332Y-90961671D01*
X147945168Y-91008341D01*
X148035329Y-91032500D01*
X148035331Y-91032500D01*
X148128669Y-91032500D01*
X148128671Y-91032500D01*
X148218832Y-91008341D01*
X148299668Y-90961671D01*
X148365671Y-90895668D01*
X148412341Y-90814832D01*
X148436500Y-90724671D01*
X148436500Y-90631329D01*
X148412341Y-90541168D01*
X148365671Y-90460332D01*
X148299668Y-90394329D01*
X148218832Y-90347659D01*
X148218833Y-90347659D01*
X148188778Y-90339606D01*
X148128671Y-90323500D01*
X148035329Y-90323500D01*
X147975221Y-90339606D01*
X147945167Y-90347659D01*
X147864333Y-90394328D01*
X147864330Y-90394330D01*
X147798330Y-90460330D01*
X147798328Y-90460333D01*
X147751659Y-90541167D01*
X147746078Y-90561995D01*
X147727500Y-90631329D01*
X142848802Y-90631329D01*
X142891941Y-90600802D01*
X142932151Y-90594101D01*
X145326943Y-90594101D01*
X145326944Y-90594101D01*
X145335887Y-90593220D01*
X145364102Y-90590442D01*
X145364103Y-90590441D01*
X145364109Y-90590441D01*
X145432780Y-90561996D01*
X145433944Y-90560832D01*
X145459257Y-90535520D01*
X145485337Y-90509439D01*
X145485339Y-90509437D01*
X145513784Y-90440766D01*
X145513784Y-90366436D01*
X145485339Y-90297765D01*
X145485337Y-90297763D01*
X145485337Y-90297762D01*
X145432781Y-90245206D01*
X145398444Y-90230983D01*
X145364109Y-90216761D01*
X145364107Y-90216760D01*
X145364102Y-90216759D01*
X145329539Y-90213356D01*
X145326944Y-90213101D01*
X145326943Y-90213101D01*
X142984871Y-90213101D01*
X142955430Y-90204456D01*
X142925444Y-90197933D01*
X142920428Y-90194178D01*
X142917832Y-90193416D01*
X142897190Y-90176782D01*
X142847819Y-90127411D01*
X142814334Y-90066088D01*
X142811500Y-90039730D01*
X142811500Y-88768101D01*
X142831185Y-88701062D01*
X142883989Y-88655307D01*
X142935500Y-88644101D01*
X145326943Y-88644101D01*
X145326944Y-88644101D01*
X145335887Y-88643220D01*
X145364102Y-88640442D01*
X145364103Y-88640441D01*
X145364109Y-88640441D01*
X145432780Y-88611996D01*
X145485339Y-88559437D01*
X145513784Y-88490766D01*
X145513784Y-88416436D01*
X145485339Y-88347765D01*
X145485337Y-88347763D01*
X145485337Y-88347762D01*
X145432781Y-88295206D01*
X145398444Y-88280983D01*
X145364109Y-88266761D01*
X145364107Y-88266760D01*
X145364102Y-88266759D01*
X145329539Y-88263356D01*
X145326944Y-88263101D01*
X145326943Y-88263101D01*
X142935500Y-88263101D01*
X142868461Y-88243416D01*
X142822706Y-88190612D01*
X142811500Y-88139101D01*
X142811500Y-86693719D01*
X146447500Y-86693719D01*
X146447500Y-86806280D01*
X146476633Y-86915010D01*
X146496468Y-86949364D01*
X146532915Y-87012491D01*
X146612509Y-87092085D01*
X146709991Y-87148367D01*
X146818719Y-87177500D01*
X146818721Y-87177500D01*
X146931279Y-87177500D01*
X146931281Y-87177500D01*
X147040009Y-87148367D01*
X147137491Y-87092085D01*
X147217085Y-87012491D01*
X147273367Y-86915009D01*
X147302500Y-86806281D01*
X147302500Y-86693719D01*
X147273367Y-86584991D01*
X147217085Y-86487509D01*
X147137491Y-86407915D01*
X147088750Y-86379774D01*
X147040010Y-86351633D01*
X146985645Y-86337066D01*
X146931281Y-86322500D01*
X146818719Y-86322500D01*
X146709989Y-86351633D01*
X146612509Y-86407915D01*
X146612506Y-86407917D01*
X146532917Y-86487506D01*
X146532915Y-86487509D01*
X146476633Y-86584989D01*
X146447500Y-86693719D01*
X142811500Y-86693719D01*
X142811500Y-86360000D01*
X142807841Y-86322841D01*
X142807840Y-86322839D01*
X142807840Y-86322835D01*
X142779395Y-86254164D01*
X142755704Y-86225296D01*
X142755703Y-86225295D01*
X142755699Y-86225290D01*
X142593819Y-86063410D01*
X142560334Y-86002087D01*
X142557500Y-85975729D01*
X142557500Y-84789329D01*
X148108500Y-84789329D01*
X148108500Y-84882671D01*
X148132659Y-84972832D01*
X148179329Y-85053668D01*
X148245332Y-85119671D01*
X148326168Y-85166341D01*
X148416329Y-85190500D01*
X148416331Y-85190500D01*
X148509669Y-85190500D01*
X148509671Y-85190500D01*
X148599832Y-85166341D01*
X148680668Y-85119671D01*
X148746671Y-85053668D01*
X148793341Y-84972832D01*
X148817500Y-84882671D01*
X148817500Y-84789329D01*
X148793341Y-84699168D01*
X148746671Y-84618332D01*
X148680668Y-84552329D01*
X148599832Y-84505659D01*
X148599833Y-84505659D01*
X148569778Y-84497606D01*
X148509671Y-84481500D01*
X148416329Y-84481500D01*
X148356221Y-84497606D01*
X148326167Y-84505659D01*
X148245333Y-84552328D01*
X148245330Y-84552330D01*
X148179330Y-84618330D01*
X148179328Y-84618333D01*
X148132659Y-84699167D01*
X148132659Y-84699168D01*
X148108500Y-84789329D01*
X142557500Y-84789329D01*
X142557500Y-84331270D01*
X142577185Y-84264231D01*
X142593819Y-84243589D01*
X142882699Y-83954709D01*
X142882704Y-83954704D01*
X142906395Y-83925836D01*
X142934840Y-83857165D01*
X142938500Y-83820000D01*
X142938500Y-83479101D01*
X142958185Y-83412062D01*
X143010989Y-83366307D01*
X143062500Y-83355101D01*
X144951000Y-83355101D01*
X145018039Y-83374786D01*
X145063794Y-83427590D01*
X145075000Y-83479101D01*
X145075000Y-83550000D01*
X147074996Y-83550000D01*
X147075000Y-83550000D01*
X148689730Y-83276738D01*
X148710420Y-83275000D01*
X148791500Y-83275000D01*
X148858539Y-83294685D01*
X148904294Y-83347489D01*
X148915500Y-83399000D01*
X148915500Y-83566000D01*
X148917907Y-83614997D01*
X148917908Y-83615018D01*
X148921562Y-83652121D01*
X148922025Y-83656618D01*
X148957219Y-83794502D01*
X148957221Y-83794508D01*
X148957222Y-83794510D01*
X148985667Y-83863181D01*
X149008766Y-83911460D01*
X149008767Y-83911461D01*
X149008769Y-83911465D01*
X149057581Y-83976669D01*
X149094052Y-84025389D01*
X149094056Y-84025393D01*
X149094061Y-84025399D01*
X149146594Y-84077932D01*
X149146603Y-84077940D01*
X149146611Y-84077948D01*
X149186427Y-84113714D01*
X149308819Y-84186333D01*
X149377490Y-84214778D01*
X149381629Y-84216471D01*
X149519832Y-84250433D01*
X149556997Y-84254093D01*
X149606000Y-84256500D01*
X150801000Y-84256500D01*
X150868039Y-84276185D01*
X150913794Y-84328989D01*
X150925000Y-84380500D01*
X150925000Y-85351000D01*
X150905315Y-85418039D01*
X150852511Y-85463794D01*
X150801000Y-85475000D01*
X150650000Y-85475000D01*
X150699999Y-88699999D01*
X150700000Y-88700000D01*
X151625000Y-88700000D01*
X151625000Y-88699999D01*
X151617343Y-88206140D01*
X151611625Y-87837329D01*
X157887500Y-87837329D01*
X157887500Y-87930671D01*
X157911659Y-88020832D01*
X157958329Y-88101668D01*
X158024332Y-88167671D01*
X158105168Y-88214341D01*
X158195329Y-88238500D01*
X158195331Y-88238500D01*
X158288669Y-88238500D01*
X158288671Y-88238500D01*
X158378832Y-88214341D01*
X158459668Y-88167671D01*
X158525671Y-88101668D01*
X158572341Y-88020832D01*
X158596500Y-87930671D01*
X158596500Y-87837329D01*
X158572341Y-87747168D01*
X158525671Y-87666332D01*
X158459668Y-87600329D01*
X158378832Y-87553659D01*
X158378833Y-87553659D01*
X158348778Y-87545606D01*
X158288671Y-87529500D01*
X158195329Y-87529500D01*
X158135221Y-87545606D01*
X158105167Y-87553659D01*
X158024333Y-87600328D01*
X158024330Y-87600330D01*
X157958330Y-87666330D01*
X157958328Y-87666333D01*
X157911659Y-87747167D01*
X157911659Y-87747168D01*
X157887500Y-87837329D01*
X151611625Y-87837329D01*
X151589631Y-86418719D01*
X155997500Y-86418719D01*
X155997500Y-86531280D01*
X156026633Y-86640010D01*
X156050331Y-86681054D01*
X156082915Y-86737491D01*
X156162509Y-86817085D01*
X156259991Y-86873367D01*
X156368719Y-86902500D01*
X156368721Y-86902500D01*
X156481279Y-86902500D01*
X156481281Y-86902500D01*
X156590009Y-86873367D01*
X156687491Y-86817085D01*
X156767085Y-86737491D01*
X156823367Y-86640009D01*
X156852500Y-86531281D01*
X156852500Y-86418719D01*
X156823367Y-86309991D01*
X156767085Y-86212509D01*
X156687491Y-86132915D01*
X156623844Y-86096168D01*
X156590010Y-86076633D01*
X156504946Y-86053841D01*
X156481281Y-86047500D01*
X156368719Y-86047500D01*
X156259989Y-86076633D01*
X156162509Y-86132915D01*
X156162506Y-86132917D01*
X156082917Y-86212506D01*
X156082915Y-86212509D01*
X156026633Y-86309989D01*
X155997500Y-86418719D01*
X151589631Y-86418719D01*
X151580121Y-85805329D01*
X158395500Y-85805329D01*
X158395500Y-85898671D01*
X158419659Y-85988832D01*
X158466329Y-86069668D01*
X158532332Y-86135671D01*
X158613168Y-86182341D01*
X158703329Y-86206500D01*
X158703331Y-86206500D01*
X158796669Y-86206500D01*
X158796671Y-86206500D01*
X158886832Y-86182341D01*
X158967668Y-86135671D01*
X159033671Y-86069668D01*
X159080341Y-85988832D01*
X159104500Y-85898671D01*
X159104500Y-85805329D01*
X159919500Y-85805329D01*
X159919500Y-85898671D01*
X159943659Y-85988832D01*
X159990329Y-86069668D01*
X160056332Y-86135671D01*
X160137168Y-86182341D01*
X160227329Y-86206500D01*
X160227331Y-86206500D01*
X160320669Y-86206500D01*
X160320671Y-86206500D01*
X160410832Y-86182341D01*
X160491668Y-86135671D01*
X160557671Y-86069668D01*
X160604341Y-85988832D01*
X160628500Y-85898671D01*
X160628500Y-85805329D01*
X160604341Y-85715168D01*
X160557671Y-85634332D01*
X160491668Y-85568329D01*
X160410832Y-85521659D01*
X160410833Y-85521659D01*
X160380778Y-85513606D01*
X160320671Y-85497500D01*
X160227329Y-85497500D01*
X160167221Y-85513606D01*
X160137167Y-85521659D01*
X160056333Y-85568328D01*
X160056330Y-85568330D01*
X159990330Y-85634330D01*
X159990328Y-85634333D01*
X159943659Y-85715167D01*
X159940169Y-85728192D01*
X159919500Y-85805329D01*
X159104500Y-85805329D01*
X159080341Y-85715168D01*
X159033671Y-85634332D01*
X158967668Y-85568329D01*
X158886832Y-85521659D01*
X158886833Y-85521659D01*
X158856778Y-85513606D01*
X158796671Y-85497500D01*
X158703329Y-85497500D01*
X158643221Y-85513606D01*
X158613167Y-85521659D01*
X158532333Y-85568328D01*
X158532330Y-85568330D01*
X158466330Y-85634330D01*
X158466328Y-85634333D01*
X158419659Y-85715167D01*
X158416169Y-85728192D01*
X158395500Y-85805329D01*
X151580121Y-85805329D01*
X151575000Y-85475000D01*
X151349000Y-85475000D01*
X151281961Y-85455315D01*
X151236206Y-85402511D01*
X151225000Y-85351000D01*
X151225000Y-84380500D01*
X151244685Y-84313461D01*
X151297489Y-84267706D01*
X151349000Y-84256500D01*
X160848000Y-84256500D01*
X160915039Y-84276185D01*
X160960794Y-84328989D01*
X160972000Y-84380500D01*
X160972000Y-84415986D01*
X160973072Y-84448731D01*
X160975637Y-84487865D01*
X160991602Y-84584561D01*
X160991604Y-84584569D01*
X161011873Y-84660213D01*
X161011877Y-84660226D01*
X161061819Y-84780798D01*
X161061824Y-84780807D01*
X161100982Y-84848630D01*
X161138335Y-84900756D01*
X161158074Y-84928302D01*
X161158076Y-84928304D01*
X161183941Y-84957798D01*
X161183946Y-84957803D01*
X161206315Y-84981685D01*
X161206324Y-84981694D01*
X161891449Y-85666819D01*
X161924934Y-85728142D01*
X161919950Y-85797834D01*
X161878078Y-85853767D01*
X161812614Y-85878184D01*
X161803768Y-85878500D01*
X161751329Y-85878500D01*
X161691221Y-85894606D01*
X161661167Y-85902659D01*
X161580333Y-85949328D01*
X161580330Y-85949330D01*
X161514330Y-86015330D01*
X161514328Y-86015333D01*
X161467659Y-86096167D01*
X161467659Y-86096168D01*
X161443500Y-86186329D01*
X161443500Y-86279671D01*
X161467659Y-86369832D01*
X161514329Y-86450668D01*
X161580332Y-86516671D01*
X161661168Y-86563341D01*
X161751329Y-86587500D01*
X161751331Y-86587500D01*
X161844669Y-86587500D01*
X161844671Y-86587500D01*
X161934832Y-86563341D01*
X162015668Y-86516671D01*
X162081671Y-86450668D01*
X162128341Y-86369832D01*
X162152500Y-86279671D01*
X162152500Y-86227232D01*
X162172185Y-86160193D01*
X162224989Y-86114438D01*
X162294147Y-86104494D01*
X162357703Y-86133519D01*
X162364181Y-86139551D01*
X162883315Y-86658685D01*
X162900373Y-86674662D01*
X162907201Y-86681058D01*
X162936695Y-86706923D01*
X162936697Y-86706925D01*
X163018844Y-86765791D01*
X163018347Y-86766483D01*
X163061695Y-86816683D01*
X163071519Y-86885859D01*
X163042385Y-86949364D01*
X163018646Y-86969933D01*
X163018844Y-86970209D01*
X162936697Y-87029074D01*
X162936695Y-87029076D01*
X162907201Y-87054941D01*
X162883305Y-87077324D01*
X161206324Y-88754305D01*
X161183941Y-88778201D01*
X161158076Y-88807695D01*
X161158074Y-88807697D01*
X161100983Y-88887368D01*
X161061824Y-88955192D01*
X161061819Y-88955201D01*
X161011877Y-89075773D01*
X161011873Y-89075786D01*
X160991604Y-89151430D01*
X160991602Y-89151438D01*
X160975637Y-89248134D01*
X160973072Y-89287268D01*
X160973071Y-89287287D01*
X160973071Y-89287293D01*
X160972410Y-89307500D01*
X160972000Y-89320013D01*
X160972000Y-90029984D01*
X160973072Y-90062729D01*
X160975637Y-90101863D01*
X160991602Y-90198559D01*
X160991604Y-90198567D01*
X161011873Y-90274211D01*
X161011877Y-90274224D01*
X161061817Y-90394790D01*
X161061825Y-90394807D01*
X161064885Y-90400106D01*
X161081500Y-90462109D01*
X161081500Y-90752500D01*
X161061815Y-90819539D01*
X161009011Y-90865294D01*
X160957500Y-90876500D01*
X149606000Y-90876500D01*
X149556997Y-90878907D01*
X149556992Y-90878907D01*
X149556981Y-90878908D01*
X149519873Y-90882562D01*
X149515381Y-90883025D01*
X149377497Y-90918219D01*
X149377490Y-90918222D01*
X149308819Y-90946667D01*
X149308809Y-90946671D01*
X149308806Y-90946673D01*
X149260538Y-90969767D01*
X149260534Y-90969769D01*
X149146612Y-91055051D01*
X149146600Y-91055061D01*
X149094067Y-91107594D01*
X149058285Y-91147428D01*
X149033459Y-91189270D01*
X148985667Y-91269819D01*
X148978757Y-91286500D01*
X148957198Y-91338547D01*
X148955528Y-91342629D01*
X148955528Y-91342630D01*
X148921567Y-91480828D01*
X148921566Y-91480832D01*
X148917908Y-91517981D01*
X148917907Y-91517992D01*
X148917907Y-91517997D01*
X148915500Y-91567000D01*
X148915500Y-93077998D01*
X148917596Y-93120669D01*
X148917907Y-93126995D01*
X148917908Y-93127016D01*
X148921562Y-93164119D01*
X148922025Y-93168616D01*
X148957219Y-93306500D01*
X148957223Y-93306510D01*
X148985641Y-93375118D01*
X148987387Y-93379282D01*
X148987389Y-93379286D01*
X148987390Y-93379287D01*
X149061097Y-93501028D01*
X149075576Y-93518671D01*
X149084796Y-93529906D01*
X149117744Y-93566256D01*
X149117751Y-93566264D01*
X149130740Y-93579253D01*
X149148420Y-93595277D01*
X149167096Y-93612205D01*
X149167109Y-93612216D01*
X149167130Y-93612234D01*
X149195961Y-93635895D01*
X149199429Y-93638715D01*
X149199434Y-93638719D01*
X149321827Y-93711337D01*
X149390498Y-93739781D01*
X149394631Y-93741471D01*
X149532834Y-93775433D01*
X149569999Y-93779093D01*
X149619002Y-93781500D01*
X149619014Y-93781500D01*
X161771988Y-93781500D01*
X161772000Y-93781500D01*
X161821003Y-93779093D01*
X161858168Y-93775433D01*
X161862616Y-93774975D01*
X162000510Y-93739778D01*
X162069181Y-93711333D01*
X162117460Y-93688234D01*
X162231389Y-93602948D01*
X162283948Y-93550389D01*
X162319714Y-93510573D01*
X162392333Y-93388181D01*
X162420778Y-93319510D01*
X162438586Y-93269031D01*
X162458840Y-93128165D01*
X162458840Y-93053835D01*
X162455975Y-93000384D01*
X162420778Y-92862490D01*
X162392333Y-92793819D01*
X162369234Y-92745540D01*
X162283948Y-92631611D01*
X162283943Y-92631606D01*
X162283938Y-92631600D01*
X162231405Y-92579067D01*
X162231395Y-92579058D01*
X162231389Y-92579052D01*
X162191573Y-92543286D01*
X162069181Y-92470667D01*
X162069174Y-92470664D01*
X162003740Y-92443559D01*
X161949338Y-92399717D01*
X161927274Y-92333423D01*
X161944554Y-92265724D01*
X161995692Y-92218114D01*
X162003712Y-92214451D01*
X162069181Y-92187333D01*
X162117460Y-92164234D01*
X162231389Y-92078948D01*
X162283948Y-92026389D01*
X162319714Y-91986573D01*
X162392333Y-91864181D01*
X162420778Y-91795510D01*
X162422471Y-91791371D01*
X162456433Y-91653168D01*
X162460093Y-91616003D01*
X162462500Y-91567000D01*
X162462500Y-91520329D01*
X163856500Y-91520329D01*
X163856500Y-91613671D01*
X163880659Y-91703832D01*
X163927329Y-91784668D01*
X163993332Y-91850671D01*
X164074168Y-91897341D01*
X164164329Y-91921500D01*
X164164331Y-91921500D01*
X164257669Y-91921500D01*
X164257671Y-91921500D01*
X164347832Y-91897341D01*
X164428668Y-91850671D01*
X164494671Y-91784668D01*
X164541341Y-91703832D01*
X164565500Y-91613671D01*
X164565500Y-91520329D01*
X164541341Y-91430168D01*
X164494671Y-91349332D01*
X164428668Y-91283329D01*
X164347832Y-91236659D01*
X164347833Y-91236659D01*
X164317778Y-91228606D01*
X164257671Y-91212500D01*
X164164329Y-91212500D01*
X164104221Y-91228606D01*
X164074167Y-91236659D01*
X163993333Y-91283328D01*
X163993330Y-91283330D01*
X163927330Y-91349330D01*
X163927328Y-91349333D01*
X163880659Y-91430167D01*
X163880659Y-91430168D01*
X163856500Y-91520329D01*
X162462500Y-91520329D01*
X162462500Y-90462109D01*
X162479115Y-90400106D01*
X162482176Y-90394805D01*
X162532128Y-90274209D01*
X162552397Y-90198562D01*
X162568362Y-90101863D01*
X162570929Y-90062705D01*
X162572000Y-90029998D01*
X162572000Y-89702732D01*
X162591685Y-89635693D01*
X162608319Y-89615051D01*
X163296870Y-88926500D01*
X164014685Y-88208685D01*
X164037054Y-88184803D01*
X164062928Y-88155299D01*
X164120018Y-88075630D01*
X164159176Y-88007807D01*
X164191127Y-87930671D01*
X164209122Y-87887226D01*
X164209122Y-87887223D01*
X164209128Y-87887211D01*
X164229397Y-87811564D01*
X164246433Y-87682158D01*
X164246433Y-87603842D01*
X164245970Y-87600328D01*
X164243388Y-87580716D01*
X164229397Y-87474436D01*
X164209128Y-87398789D01*
X164209123Y-87398778D01*
X164209122Y-87398773D01*
X164159180Y-87278201D01*
X164159176Y-87278193D01*
X164120018Y-87210370D01*
X164120015Y-87210366D01*
X164040565Y-87106826D01*
X164040557Y-87106817D01*
X163985182Y-87051442D01*
X163985173Y-87051434D01*
X163881640Y-86971989D01*
X163880319Y-86971107D01*
X163880013Y-86970741D01*
X163878410Y-86969511D01*
X163878685Y-86969152D01*
X163835510Y-86917497D01*
X163826798Y-86848173D01*
X163856949Y-86785143D01*
X163878436Y-86766523D01*
X163878410Y-86766489D01*
X163878996Y-86766039D01*
X163880319Y-86764893D01*
X163881615Y-86764026D01*
X163881630Y-86764018D01*
X163985181Y-86684559D01*
X164040559Y-86629181D01*
X164120018Y-86525630D01*
X164159176Y-86457807D01*
X164159375Y-86457328D01*
X164209122Y-86337226D01*
X164209122Y-86337223D01*
X164209128Y-86337211D01*
X164229397Y-86261564D01*
X164246433Y-86132158D01*
X164246433Y-86053842D01*
X164229397Y-85924436D01*
X164209128Y-85848789D01*
X164209123Y-85848778D01*
X164209122Y-85848773D01*
X164159180Y-85728201D01*
X164159175Y-85728192D01*
X164120018Y-85660370D01*
X164062928Y-85580701D01*
X164062927Y-85580700D01*
X164062925Y-85580697D01*
X164062923Y-85580695D01*
X164037058Y-85551201D01*
X164030662Y-85544373D01*
X164014685Y-85527315D01*
X162608319Y-84120949D01*
X162574834Y-84059626D01*
X162572000Y-84033268D01*
X162572000Y-83646329D01*
X163856500Y-83646329D01*
X163856500Y-83739671D01*
X163880659Y-83829832D01*
X163927329Y-83910668D01*
X163993332Y-83976671D01*
X164074168Y-84023341D01*
X164164329Y-84047500D01*
X164164331Y-84047500D01*
X164257669Y-84047500D01*
X164257671Y-84047500D01*
X164347832Y-84023341D01*
X164428668Y-83976671D01*
X164494671Y-83910668D01*
X164541341Y-83829832D01*
X164565500Y-83739671D01*
X164565500Y-83646329D01*
X164541341Y-83556168D01*
X164494671Y-83475332D01*
X164428668Y-83409329D01*
X164347832Y-83362659D01*
X164347833Y-83362659D01*
X164317778Y-83354606D01*
X164257671Y-83338500D01*
X164164329Y-83338500D01*
X164104221Y-83354606D01*
X164074167Y-83362659D01*
X163993333Y-83409328D01*
X163993330Y-83409330D01*
X163927330Y-83475330D01*
X163927328Y-83475333D01*
X163880659Y-83556167D01*
X163874537Y-83579015D01*
X163856500Y-83646329D01*
X162572000Y-83646329D01*
X162572000Y-83579015D01*
X162571574Y-83566000D01*
X162570929Y-83546295D01*
X162568362Y-83507137D01*
X162552397Y-83410438D01*
X162532128Y-83334791D01*
X162532123Y-83334780D01*
X162532122Y-83334775D01*
X162482180Y-83214203D01*
X162482176Y-83214195D01*
X162444344Y-83148669D01*
X162443018Y-83146372D01*
X162382751Y-83067832D01*
X162363565Y-83042828D01*
X162363557Y-83042819D01*
X162308182Y-82987444D01*
X162308173Y-82987436D01*
X162204633Y-82907986D01*
X162136806Y-82868825D01*
X162133167Y-82867031D01*
X162133899Y-82865545D01*
X162084807Y-82825945D01*
X162062773Y-82759641D01*
X162080084Y-82691949D01*
X162114032Y-82657823D01*
X162112583Y-82655887D01*
X162146724Y-82630329D01*
X162231389Y-82566950D01*
X162283948Y-82514391D01*
X162319714Y-82474575D01*
X162392333Y-82352183D01*
X162420778Y-82283512D01*
X162438586Y-82233033D01*
X162458840Y-82092167D01*
X162458840Y-82017837D01*
X162458206Y-82006004D01*
X162457634Y-81995329D01*
X163983500Y-81995329D01*
X163983500Y-82088671D01*
X164007659Y-82178832D01*
X164054329Y-82259668D01*
X164120332Y-82325671D01*
X164201168Y-82372341D01*
X164291329Y-82396500D01*
X164291331Y-82396500D01*
X164384669Y-82396500D01*
X164384671Y-82396500D01*
X164474832Y-82372341D01*
X164555668Y-82325671D01*
X164621671Y-82259668D01*
X164668341Y-82178832D01*
X164692500Y-82088671D01*
X164692500Y-81995329D01*
X164668341Y-81905168D01*
X164621671Y-81824332D01*
X164555668Y-81758329D01*
X164474832Y-81711659D01*
X164474833Y-81711659D01*
X164444778Y-81703606D01*
X164384671Y-81687500D01*
X164291329Y-81687500D01*
X164231221Y-81703606D01*
X164201167Y-81711659D01*
X164120333Y-81758328D01*
X164120330Y-81758330D01*
X164054330Y-81824330D01*
X164054328Y-81824333D01*
X164007659Y-81905167D01*
X164007659Y-81905168D01*
X163983500Y-81995329D01*
X162457634Y-81995329D01*
X162457554Y-81993837D01*
X162455975Y-81964390D01*
X162455975Y-81964386D01*
X162420778Y-81826492D01*
X162392333Y-81757821D01*
X162369234Y-81709542D01*
X162367833Y-81707671D01*
X162335427Y-81664381D01*
X162283948Y-81595613D01*
X162283943Y-81595608D01*
X162283938Y-81595602D01*
X162231405Y-81543069D01*
X162231395Y-81543060D01*
X162231389Y-81543054D01*
X162191573Y-81507288D01*
X162069181Y-81434669D01*
X162000510Y-81406224D01*
X162000503Y-81406221D01*
X162000452Y-81406200D01*
X161996370Y-81404530D01*
X161858171Y-81370569D01*
X161858167Y-81370568D01*
X161821018Y-81366910D01*
X161821008Y-81366909D01*
X161821003Y-81366909D01*
X161772000Y-81364502D01*
X149606000Y-81364502D01*
X149556997Y-81366909D01*
X149556992Y-81366909D01*
X149556981Y-81366910D01*
X149519873Y-81370564D01*
X149515381Y-81371027D01*
X149377497Y-81406221D01*
X149377490Y-81406224D01*
X149308819Y-81434669D01*
X149308809Y-81434673D01*
X149308806Y-81434675D01*
X149260538Y-81457769D01*
X149260534Y-81457771D01*
X149146612Y-81543053D01*
X149146600Y-81543063D01*
X149094067Y-81595596D01*
X149094052Y-81595613D01*
X149058286Y-81635429D01*
X148985667Y-81757821D01*
X148985666Y-81757824D01*
X148957198Y-81826549D01*
X148955528Y-81830631D01*
X148955528Y-81830632D01*
X148921567Y-81968830D01*
X148921566Y-81968834D01*
X148917908Y-82005983D01*
X148917907Y-82005994D01*
X148917907Y-82005999D01*
X148915500Y-82055002D01*
X148915500Y-82055014D01*
X148915500Y-82701000D01*
X148912949Y-82709685D01*
X148914238Y-82718647D01*
X148903259Y-82742687D01*
X148895815Y-82768039D01*
X148888974Y-82773966D01*
X148885213Y-82782203D01*
X148862978Y-82796492D01*
X148843011Y-82813794D01*
X148832496Y-82816081D01*
X148826435Y-82819977D01*
X148791500Y-82825000D01*
X148659937Y-82825000D01*
X148640192Y-82823418D01*
X147100003Y-82575000D01*
X147100007Y-82575000D01*
X145075000Y-82550000D01*
X145075000Y-82850101D01*
X145055315Y-82917140D01*
X145002511Y-82962895D01*
X144951000Y-82974101D01*
X143062500Y-82974101D01*
X142995461Y-82954416D01*
X142949706Y-82901612D01*
X142938500Y-82850101D01*
X142938500Y-81529101D01*
X142958185Y-81462062D01*
X143010989Y-81416307D01*
X143062500Y-81405101D01*
X145318943Y-81405101D01*
X145318944Y-81405101D01*
X145327887Y-81404220D01*
X145356102Y-81401442D01*
X145356103Y-81401441D01*
X145356109Y-81401441D01*
X145424780Y-81372996D01*
X145477339Y-81320437D01*
X145505784Y-81251766D01*
X145505784Y-81177436D01*
X145477339Y-81108765D01*
X145477337Y-81108763D01*
X145477337Y-81108762D01*
X145424781Y-81056206D01*
X145384343Y-81039456D01*
X145356109Y-81027761D01*
X145356107Y-81027760D01*
X145356102Y-81027759D01*
X145321539Y-81024356D01*
X145318944Y-81024101D01*
X142813399Y-81024101D01*
X142807377Y-81024693D01*
X142767129Y-81028657D01*
X142766994Y-81027285D01*
X142729006Y-81027285D01*
X142728871Y-81028657D01*
X142688622Y-81024693D01*
X142682601Y-81024101D01*
X139593944Y-81024101D01*
X139591517Y-81024339D01*
X139556785Y-81027759D01*
X139556779Y-81027761D01*
X139488106Y-81056206D01*
X139435550Y-81108762D01*
X139407104Y-81177435D01*
X139407104Y-81251766D01*
X139435550Y-81320439D01*
X139488106Y-81372995D01*
X139488107Y-81372995D01*
X139488108Y-81372996D01*
X139556779Y-81401441D01*
X139556783Y-81401441D01*
X139556785Y-81401442D01*
X139586735Y-81404391D01*
X139593944Y-81405101D01*
X142433500Y-81405101D01*
X142500539Y-81424786D01*
X142546294Y-81477590D01*
X142557500Y-81529101D01*
X142557500Y-83689729D01*
X142537815Y-83756768D01*
X142521181Y-83777410D01*
X142232300Y-84066290D01*
X142208604Y-84095164D01*
X142208602Y-84095168D01*
X142180161Y-84163832D01*
X142180158Y-84163841D01*
X142176500Y-84201000D01*
X142176500Y-86105999D01*
X142180158Y-86143158D01*
X142180161Y-86143167D01*
X142208602Y-86211831D01*
X142208604Y-86211835D01*
X142208605Y-86211836D01*
X142232296Y-86240704D01*
X142394182Y-86402590D01*
X142427666Y-86463912D01*
X142430500Y-86490270D01*
X142430500Y-88139101D01*
X142410815Y-88206140D01*
X142358011Y-88251895D01*
X142306500Y-88263101D01*
X139601944Y-88263101D01*
X139599517Y-88263339D01*
X139564785Y-88266759D01*
X139564779Y-88266761D01*
X139496106Y-88295206D01*
X139443550Y-88347762D01*
X139415104Y-88416435D01*
X139415104Y-88490766D01*
X139443550Y-88559439D01*
X139496106Y-88611995D01*
X139496107Y-88611995D01*
X139496108Y-88611996D01*
X139564779Y-88640441D01*
X139564783Y-88640441D01*
X139564785Y-88640442D01*
X139594735Y-88643391D01*
X139601944Y-88644101D01*
X142306500Y-88644101D01*
X142373539Y-88663786D01*
X142419294Y-88716590D01*
X142430500Y-88768101D01*
X142430500Y-90547729D01*
X142410815Y-90614768D01*
X142394181Y-90635410D01*
X142105300Y-90924290D01*
X142081604Y-90953164D01*
X142081602Y-90953168D01*
X142053161Y-91021832D01*
X142053158Y-91021841D01*
X142049500Y-91059000D01*
X142049500Y-92522500D01*
X142029815Y-92589539D01*
X141977011Y-92635294D01*
X141925500Y-92646500D01*
X141224000Y-92646500D01*
X141221573Y-92646738D01*
X141186841Y-92650158D01*
X141186832Y-92650161D01*
X141118168Y-92678602D01*
X141118164Y-92678604D01*
X141089290Y-92702300D01*
X140708300Y-93083290D01*
X140684604Y-93112164D01*
X140684602Y-93112168D01*
X140656161Y-93180832D01*
X140656158Y-93180841D01*
X140652500Y-93218000D01*
X140652500Y-95139395D01*
X140643855Y-95168835D01*
X140637332Y-95198822D01*
X140633577Y-95203837D01*
X140632815Y-95206434D01*
X140616181Y-95227076D01*
X140504475Y-95338782D01*
X140443152Y-95372267D01*
X140416794Y-95375101D01*
X139601944Y-95375101D01*
X139599517Y-95375339D01*
X139564785Y-95378759D01*
X139564779Y-95378761D01*
X139496106Y-95407206D01*
X139443550Y-95459762D01*
X139415104Y-95528435D01*
X139415104Y-95602766D01*
X139443550Y-95671439D01*
X139496106Y-95723995D01*
X139496107Y-95723995D01*
X139496108Y-95723996D01*
X139564779Y-95752441D01*
X139564783Y-95752441D01*
X139564785Y-95752442D01*
X139594735Y-95755391D01*
X139601944Y-95756101D01*
X139601945Y-95756101D01*
X140547063Y-95756101D01*
X140547064Y-95756101D01*
X140556007Y-95755220D01*
X140584222Y-95752442D01*
X140584223Y-95752441D01*
X140584229Y-95752441D01*
X140652900Y-95723996D01*
X140681768Y-95700305D01*
X140977704Y-95404369D01*
X141001396Y-95375501D01*
X141029840Y-95306830D01*
X141033500Y-95269665D01*
X141033500Y-93348270D01*
X141053185Y-93281231D01*
X141069819Y-93260589D01*
X141266589Y-93063819D01*
X141293516Y-93049115D01*
X141319335Y-93032523D01*
X141325535Y-93031631D01*
X141327912Y-93030334D01*
X141354270Y-93027500D01*
X141502799Y-93027500D01*
X141569838Y-93047185D01*
X141615593Y-93099989D01*
X141625537Y-93169147D01*
X141596512Y-93232703D01*
X141590480Y-93239181D01*
X141575330Y-93254330D01*
X141575328Y-93254333D01*
X141528659Y-93335167D01*
X141528659Y-93335168D01*
X141504500Y-93425329D01*
X141504500Y-93518671D01*
X141528659Y-93608832D01*
X141575329Y-93689668D01*
X141641332Y-93755671D01*
X141722168Y-93802341D01*
X141812329Y-93826500D01*
X141812331Y-93826500D01*
X141905669Y-93826500D01*
X141905671Y-93826500D01*
X141995832Y-93802341D01*
X142076668Y-93755671D01*
X142091819Y-93740520D01*
X142153142Y-93707035D01*
X142222834Y-93712019D01*
X142278767Y-93753891D01*
X142303184Y-93819355D01*
X142303500Y-93828201D01*
X142303500Y-99313999D01*
X142307158Y-99351158D01*
X142307161Y-99351167D01*
X142335602Y-99419831D01*
X142335604Y-99419835D01*
X142359300Y-99448709D01*
X143189932Y-100279340D01*
X144010296Y-101099704D01*
X144039164Y-101123396D01*
X144039167Y-101123397D01*
X144039170Y-101123399D01*
X144107832Y-101151839D01*
X144107833Y-101151839D01*
X144107835Y-101151840D01*
X144145000Y-101155500D01*
X145862500Y-101155500D01*
X145929539Y-101175185D01*
X145975294Y-101227989D01*
X145986500Y-101279500D01*
X145986500Y-104434500D01*
X145990158Y-104471659D01*
X145990159Y-104471664D01*
X145990160Y-104471666D01*
X145994594Y-104482372D01*
X146018602Y-104540332D01*
X146018604Y-104540336D01*
X146042300Y-104569210D01*
X146458181Y-104985089D01*
X146491666Y-105046412D01*
X146494500Y-105072770D01*
X146494500Y-105787730D01*
X146474815Y-105854769D01*
X146458181Y-105875411D01*
X143467411Y-108866181D01*
X143406088Y-108899666D01*
X143379730Y-108902500D01*
X137417270Y-108902500D01*
X137350231Y-108882815D01*
X137329589Y-108866181D01*
X137132819Y-108669411D01*
X137099334Y-108608088D01*
X137096500Y-108581730D01*
X137096500Y-108030329D01*
X138837500Y-108030329D01*
X138837500Y-108123671D01*
X138861659Y-108213832D01*
X138908329Y-108294668D01*
X138974332Y-108360671D01*
X139055168Y-108407341D01*
X139145329Y-108431500D01*
X139145331Y-108431500D01*
X139238669Y-108431500D01*
X139238671Y-108431500D01*
X139328832Y-108407341D01*
X139409668Y-108360671D01*
X139475671Y-108294668D01*
X139522341Y-108213832D01*
X139546500Y-108123671D01*
X139546500Y-108030329D01*
X141123500Y-108030329D01*
X141123500Y-108123671D01*
X141147659Y-108213832D01*
X141194329Y-108294668D01*
X141260332Y-108360671D01*
X141341168Y-108407341D01*
X141431329Y-108431500D01*
X141431331Y-108431500D01*
X141524669Y-108431500D01*
X141524671Y-108431500D01*
X141614832Y-108407341D01*
X141695668Y-108360671D01*
X141761671Y-108294668D01*
X141808341Y-108213832D01*
X141832500Y-108123671D01*
X141832500Y-108030329D01*
X141808341Y-107940168D01*
X141761671Y-107859332D01*
X141695668Y-107793329D01*
X141614832Y-107746659D01*
X141614833Y-107746659D01*
X141584778Y-107738606D01*
X141524671Y-107722500D01*
X141431329Y-107722500D01*
X141371221Y-107738606D01*
X141341167Y-107746659D01*
X141260333Y-107793328D01*
X141260330Y-107793330D01*
X141194330Y-107859330D01*
X141194328Y-107859333D01*
X141147659Y-107940167D01*
X141147659Y-107940168D01*
X141123500Y-108030329D01*
X139546500Y-108030329D01*
X139522341Y-107940168D01*
X139475671Y-107859332D01*
X139409668Y-107793329D01*
X139328832Y-107746659D01*
X139328833Y-107746659D01*
X139298778Y-107738606D01*
X139238671Y-107722500D01*
X139145329Y-107722500D01*
X139085221Y-107738606D01*
X139055167Y-107746659D01*
X138974333Y-107793328D01*
X138974330Y-107793330D01*
X138908330Y-107859330D01*
X138908328Y-107859333D01*
X138861659Y-107940167D01*
X138861659Y-107940168D01*
X138837500Y-108030329D01*
X137096500Y-108030329D01*
X137096500Y-107823000D01*
X137092841Y-107785841D01*
X137092840Y-107785839D01*
X137092840Y-107785835D01*
X137064395Y-107717164D01*
X137064394Y-107717163D01*
X137064394Y-107717162D01*
X137042319Y-107695087D01*
X137027615Y-107668159D01*
X137011023Y-107642341D01*
X137010131Y-107636140D01*
X137008834Y-107633764D01*
X137006000Y-107607406D01*
X137006000Y-107407784D01*
X137025685Y-107340745D01*
X137042319Y-107320103D01*
X137146074Y-107216348D01*
X137207397Y-107182863D01*
X137233755Y-107180029D01*
X138403642Y-107180029D01*
X138407542Y-107179644D01*
X138423150Y-107178108D01*
X138459198Y-107163176D01*
X138486788Y-107135586D01*
X138501720Y-107099538D01*
X138501720Y-107060520D01*
X138497845Y-107051165D01*
X138486789Y-107024473D01*
X138486786Y-107024469D01*
X138459199Y-106996882D01*
X138445256Y-106991107D01*
X138423150Y-106981950D01*
X138423147Y-106981949D01*
X138423146Y-106981949D01*
X138403642Y-106980029D01*
X138403641Y-106980029D01*
X137140971Y-106980029D01*
X137140970Y-106980029D01*
X137121467Y-106981949D01*
X137121464Y-106981949D01*
X137121462Y-106981950D01*
X137095971Y-106992508D01*
X137095964Y-106992510D01*
X137085413Y-106996881D01*
X137085410Y-106996883D01*
X137070275Y-107009303D01*
X137070258Y-107009319D01*
X136835286Y-107244291D01*
X136822853Y-107259442D01*
X136822851Y-107259445D01*
X136807921Y-107295490D01*
X136807920Y-107295494D01*
X136806000Y-107314999D01*
X136806000Y-107607406D01*
X136803904Y-107614541D01*
X136805153Y-107621873D01*
X136796089Y-107655983D01*
X136786674Y-107678094D01*
X136747605Y-107717164D01*
X136719160Y-107785835D01*
X136715500Y-107823000D01*
X129122184Y-107823000D01*
X129127500Y-107796275D01*
X129127500Y-107603725D01*
X129089936Y-107414874D01*
X129077896Y-107385806D01*
X129016253Y-107236986D01*
X129016246Y-107236973D01*
X128909274Y-107076880D01*
X128909271Y-107076876D01*
X128773123Y-106940728D01*
X128773119Y-106940725D01*
X128613026Y-106833753D01*
X128613013Y-106833746D01*
X128435132Y-106760066D01*
X128435128Y-106760064D01*
X128435126Y-106760064D01*
X128435122Y-106760063D01*
X128435118Y-106760062D01*
X128246279Y-106722500D01*
X128246275Y-106722500D01*
X128053725Y-106722500D01*
X128053720Y-106722500D01*
X127864881Y-106760062D01*
X127864867Y-106760066D01*
X127686986Y-106833746D01*
X127686973Y-106833753D01*
X127526880Y-106940725D01*
X127526876Y-106940728D01*
X127390728Y-107076876D01*
X127390725Y-107076880D01*
X127283753Y-107236973D01*
X127283746Y-107236986D01*
X127210066Y-107414867D01*
X127210062Y-107414881D01*
X127172500Y-107603720D01*
X126300500Y-107603720D01*
X126300500Y-105063720D01*
X127172500Y-105063720D01*
X127172500Y-105256279D01*
X127210062Y-105445118D01*
X127210066Y-105445132D01*
X127283746Y-105623013D01*
X127283753Y-105623026D01*
X127390725Y-105783119D01*
X127390728Y-105783123D01*
X127526876Y-105919271D01*
X127526880Y-105919274D01*
X127686973Y-106026246D01*
X127686986Y-106026253D01*
X127835806Y-106087896D01*
X127864874Y-106099936D01*
X128053720Y-106137499D01*
X128053724Y-106137500D01*
X128053725Y-106137500D01*
X128246276Y-106137500D01*
X128246277Y-106137499D01*
X128435126Y-106099936D01*
X128613020Y-106026250D01*
X128773120Y-105919274D01*
X128909274Y-105783120D01*
X129016250Y-105623020D01*
X129039591Y-105566671D01*
X129071213Y-105490329D01*
X132614500Y-105490329D01*
X132614500Y-105583671D01*
X132638659Y-105673832D01*
X132685329Y-105754668D01*
X132751332Y-105820671D01*
X132832168Y-105867341D01*
X132922329Y-105891500D01*
X132922331Y-105891500D01*
X133015669Y-105891500D01*
X133015671Y-105891500D01*
X133105832Y-105867341D01*
X133186668Y-105820671D01*
X133252671Y-105754668D01*
X133299341Y-105673832D01*
X133323500Y-105583671D01*
X133323500Y-105490329D01*
X133299341Y-105400168D01*
X133252671Y-105319332D01*
X133186668Y-105253329D01*
X133105832Y-105206659D01*
X133105833Y-105206659D01*
X133075778Y-105198606D01*
X133015671Y-105182500D01*
X132922329Y-105182500D01*
X132862221Y-105198606D01*
X132832167Y-105206659D01*
X132751333Y-105253328D01*
X132751330Y-105253330D01*
X132685330Y-105319330D01*
X132685328Y-105319333D01*
X132638659Y-105400167D01*
X132638659Y-105400168D01*
X132614500Y-105490329D01*
X129071213Y-105490329D01*
X129089936Y-105445126D01*
X129089936Y-105445125D01*
X129127500Y-105256275D01*
X129127500Y-105063725D01*
X129126210Y-105057238D01*
X136805500Y-105057238D01*
X136805500Y-105150580D01*
X136829659Y-105240741D01*
X136876329Y-105321577D01*
X136942332Y-105387580D01*
X137023168Y-105434250D01*
X137113329Y-105458409D01*
X137113331Y-105458409D01*
X137206669Y-105458409D01*
X137206671Y-105458409D01*
X137296832Y-105434250D01*
X137377668Y-105387580D01*
X137443671Y-105321577D01*
X137490341Y-105240741D01*
X137514500Y-105150580D01*
X137514500Y-105109329D01*
X144933500Y-105109329D01*
X144933500Y-105202671D01*
X144957659Y-105292832D01*
X145004329Y-105373668D01*
X145070332Y-105439671D01*
X145151168Y-105486341D01*
X145241329Y-105510500D01*
X145241331Y-105510500D01*
X145334669Y-105510500D01*
X145334671Y-105510500D01*
X145424832Y-105486341D01*
X145505668Y-105439671D01*
X145571671Y-105373668D01*
X145618341Y-105292832D01*
X145642500Y-105202671D01*
X145642500Y-105109329D01*
X145618341Y-105019168D01*
X145571671Y-104938332D01*
X145505668Y-104872329D01*
X145424832Y-104825659D01*
X145424833Y-104825659D01*
X145394778Y-104817606D01*
X145334671Y-104801500D01*
X145241329Y-104801500D01*
X145181221Y-104817606D01*
X145151167Y-104825659D01*
X145070333Y-104872328D01*
X145070330Y-104872330D01*
X145004330Y-104938330D01*
X145004328Y-104938333D01*
X144957659Y-105019167D01*
X144957659Y-105019168D01*
X144933500Y-105109329D01*
X137514500Y-105109329D01*
X137514500Y-105057238D01*
X137490341Y-104967077D01*
X137443671Y-104886241D01*
X137377668Y-104820238D01*
X137296832Y-104773568D01*
X137296833Y-104773568D01*
X137266778Y-104765515D01*
X137206671Y-104749409D01*
X137113329Y-104749409D01*
X137053221Y-104765515D01*
X137023167Y-104773568D01*
X136942333Y-104820237D01*
X136942330Y-104820239D01*
X136876330Y-104886239D01*
X136876328Y-104886242D01*
X136829659Y-104967076D01*
X136817579Y-105012157D01*
X136805500Y-105057238D01*
X129126210Y-105057238D01*
X129089936Y-104874874D01*
X129069551Y-104825659D01*
X129016253Y-104696986D01*
X129016246Y-104696973D01*
X128992939Y-104662092D01*
X128952338Y-104601329D01*
X133249500Y-104601329D01*
X133249500Y-104694671D01*
X133273659Y-104784832D01*
X133320329Y-104865668D01*
X133386332Y-104931671D01*
X133467168Y-104978341D01*
X133557329Y-105002500D01*
X133557331Y-105002500D01*
X133650669Y-105002500D01*
X133650671Y-105002500D01*
X133740832Y-104978341D01*
X133821668Y-104931671D01*
X133887671Y-104865668D01*
X133934341Y-104784832D01*
X133958500Y-104694671D01*
X133958500Y-104601329D01*
X133934341Y-104511168D01*
X133887671Y-104430332D01*
X133821668Y-104364329D01*
X133740832Y-104317659D01*
X133740833Y-104317659D01*
X133710778Y-104309606D01*
X133650671Y-104293500D01*
X133557329Y-104293500D01*
X133497221Y-104309606D01*
X133467167Y-104317659D01*
X133386333Y-104364328D01*
X133386330Y-104364330D01*
X133320330Y-104430330D01*
X133320328Y-104430333D01*
X133273659Y-104511167D01*
X133273659Y-104511168D01*
X133249500Y-104601329D01*
X128952338Y-104601329D01*
X128909274Y-104536880D01*
X128909271Y-104536876D01*
X128773123Y-104400728D01*
X128773119Y-104400725D01*
X128613026Y-104293753D01*
X128613013Y-104293746D01*
X128435132Y-104220066D01*
X128435128Y-104220064D01*
X128435126Y-104220064D01*
X128435122Y-104220063D01*
X128435118Y-104220062D01*
X128246279Y-104182500D01*
X128246275Y-104182500D01*
X128053725Y-104182500D01*
X128053720Y-104182500D01*
X127864881Y-104220062D01*
X127864867Y-104220066D01*
X127686986Y-104293746D01*
X127686973Y-104293753D01*
X127526880Y-104400725D01*
X127526876Y-104400728D01*
X127390728Y-104536876D01*
X127390725Y-104536880D01*
X127283753Y-104696973D01*
X127283746Y-104696986D01*
X127210066Y-104874867D01*
X127210062Y-104874881D01*
X127172500Y-105063720D01*
X126300500Y-105063720D01*
X126300500Y-102054747D01*
X136374500Y-102054747D01*
X136374500Y-102161253D01*
X136402066Y-102264131D01*
X136455320Y-102356369D01*
X136530631Y-102431680D01*
X136622869Y-102484934D01*
X136725747Y-102512500D01*
X136725749Y-102512500D01*
X136832251Y-102512500D01*
X136832253Y-102512500D01*
X136935131Y-102484934D01*
X137027369Y-102431680D01*
X137102680Y-102356369D01*
X137155934Y-102264131D01*
X137183500Y-102161253D01*
X137183500Y-102054747D01*
X137155934Y-101951869D01*
X137102680Y-101859631D01*
X137027369Y-101784320D01*
X136935131Y-101731066D01*
X136832253Y-101703500D01*
X136725747Y-101703500D01*
X136622868Y-101731066D01*
X136530631Y-101784320D01*
X136530628Y-101784322D01*
X136455322Y-101859628D01*
X136455320Y-101859631D01*
X136402066Y-101951868D01*
X136402066Y-101951869D01*
X136374500Y-102054747D01*
X126300500Y-102054747D01*
X126300500Y-99140329D01*
X129439500Y-99140329D01*
X129439500Y-99233671D01*
X129463659Y-99323832D01*
X129510329Y-99404668D01*
X129576332Y-99470671D01*
X129657168Y-99517341D01*
X129747329Y-99541500D01*
X129747331Y-99541500D01*
X129840669Y-99541500D01*
X129840671Y-99541500D01*
X129930832Y-99517341D01*
X130011668Y-99470671D01*
X130077671Y-99404668D01*
X130124341Y-99323832D01*
X130148500Y-99233671D01*
X130148500Y-99140329D01*
X138329500Y-99140329D01*
X138329500Y-99233671D01*
X138353659Y-99323832D01*
X138400329Y-99404668D01*
X138466332Y-99470671D01*
X138466333Y-99470672D01*
X138466335Y-99470673D01*
X138530305Y-99507606D01*
X138578520Y-99558173D01*
X138591744Y-99626780D01*
X138565776Y-99691644D01*
X138555988Y-99702673D01*
X138527328Y-99731333D01*
X138480659Y-99812167D01*
X138480659Y-99812168D01*
X138456500Y-99902329D01*
X138456500Y-99995671D01*
X138480659Y-100085832D01*
X138527329Y-100166668D01*
X138593332Y-100232671D01*
X138674168Y-100279341D01*
X138764329Y-100303500D01*
X138764331Y-100303500D01*
X138857669Y-100303500D01*
X138857671Y-100303500D01*
X138947832Y-100279341D01*
X139028668Y-100232671D01*
X139094671Y-100166668D01*
X139141341Y-100085832D01*
X139165500Y-99995671D01*
X139165500Y-99902329D01*
X139141341Y-99812168D01*
X139094671Y-99731332D01*
X139028668Y-99665329D01*
X139028667Y-99665328D01*
X139028664Y-99665326D01*
X138964694Y-99628393D01*
X138916478Y-99577826D01*
X138903256Y-99509219D01*
X138929224Y-99444354D01*
X138938998Y-99433340D01*
X138967671Y-99404668D01*
X139014341Y-99323832D01*
X139038500Y-99233671D01*
X139038500Y-99140329D01*
X139014341Y-99050168D01*
X138967671Y-98969332D01*
X138901668Y-98903329D01*
X138820832Y-98856659D01*
X138820833Y-98856659D01*
X138790778Y-98848606D01*
X138730671Y-98832500D01*
X138637329Y-98832500D01*
X138577221Y-98848606D01*
X138547167Y-98856659D01*
X138466333Y-98903328D01*
X138466330Y-98903330D01*
X138400330Y-98969330D01*
X138400328Y-98969333D01*
X138353659Y-99050167D01*
X138349095Y-99067202D01*
X138329500Y-99140329D01*
X130148500Y-99140329D01*
X130124341Y-99050168D01*
X130077671Y-98969332D01*
X130011668Y-98903329D01*
X129930832Y-98856659D01*
X129930833Y-98856659D01*
X129900778Y-98848606D01*
X129840671Y-98832500D01*
X129747329Y-98832500D01*
X129687221Y-98848606D01*
X129657167Y-98856659D01*
X129576333Y-98903328D01*
X129576330Y-98903330D01*
X129510330Y-98969330D01*
X129510328Y-98969333D01*
X129463659Y-99050167D01*
X129459095Y-99067202D01*
X129439500Y-99140329D01*
X126300500Y-99140329D01*
X126300500Y-96243719D01*
X127322500Y-96243719D01*
X127322500Y-96356281D01*
X127324389Y-96363330D01*
X127351633Y-96465010D01*
X127368954Y-96495009D01*
X127407915Y-96562491D01*
X127487509Y-96642085D01*
X127584991Y-96698367D01*
X127693719Y-96727500D01*
X127693721Y-96727500D01*
X127806279Y-96727500D01*
X127806281Y-96727500D01*
X127915009Y-96698367D01*
X128012491Y-96642085D01*
X128054247Y-96600329D01*
X133122500Y-96600329D01*
X133122500Y-96693671D01*
X133146659Y-96783832D01*
X133193329Y-96864668D01*
X133259332Y-96930671D01*
X133340168Y-96977341D01*
X133430329Y-97001500D01*
X133430331Y-97001500D01*
X133523669Y-97001500D01*
X133523671Y-97001500D01*
X133613832Y-96977341D01*
X133694668Y-96930671D01*
X133760671Y-96864668D01*
X133807341Y-96783832D01*
X133822481Y-96727329D01*
X140361500Y-96727329D01*
X140361500Y-96820671D01*
X140385659Y-96910832D01*
X140424057Y-96977341D01*
X140432328Y-96991666D01*
X140432330Y-96991669D01*
X140504079Y-97063418D01*
X140502837Y-97064659D01*
X140538174Y-97113062D01*
X140542323Y-97182808D01*
X140508105Y-97243726D01*
X140499342Y-97251318D01*
X140432330Y-97318330D01*
X140432328Y-97318333D01*
X140385659Y-97399167D01*
X140385659Y-97399168D01*
X140361500Y-97489329D01*
X140361500Y-97582671D01*
X140385659Y-97672832D01*
X140432329Y-97753668D01*
X140498332Y-97819671D01*
X140579168Y-97866341D01*
X140669329Y-97890500D01*
X140669331Y-97890500D01*
X140762669Y-97890500D01*
X140762671Y-97890500D01*
X140852832Y-97866341D01*
X140933668Y-97819671D01*
X140999671Y-97753668D01*
X141046341Y-97672832D01*
X141070500Y-97582671D01*
X141070500Y-97489329D01*
X141046341Y-97399168D01*
X140999671Y-97318332D01*
X140933668Y-97252329D01*
X140927921Y-97246582D01*
X140929163Y-97245339D01*
X140893829Y-97196949D01*
X140889674Y-97127203D01*
X140923885Y-97066283D01*
X140932658Y-97058680D01*
X140933665Y-97057672D01*
X140933668Y-97057671D01*
X140999671Y-96991668D01*
X141046341Y-96910832D01*
X141070500Y-96820671D01*
X141070500Y-96727329D01*
X141046341Y-96637168D01*
X140999671Y-96556332D01*
X140933668Y-96490329D01*
X140852832Y-96443659D01*
X140852833Y-96443659D01*
X140822778Y-96435606D01*
X140762671Y-96419500D01*
X140669329Y-96419500D01*
X140609221Y-96435606D01*
X140579167Y-96443659D01*
X140498333Y-96490328D01*
X140498330Y-96490330D01*
X140432330Y-96556330D01*
X140432328Y-96556333D01*
X140385659Y-96637167D01*
X140384341Y-96642085D01*
X140361500Y-96727329D01*
X133822481Y-96727329D01*
X133831500Y-96693671D01*
X133831500Y-96600329D01*
X133807341Y-96510168D01*
X133760671Y-96429332D01*
X133694668Y-96363329D01*
X133613832Y-96316659D01*
X133613833Y-96316659D01*
X133583778Y-96308606D01*
X133523671Y-96292500D01*
X133430329Y-96292500D01*
X133370221Y-96308606D01*
X133340167Y-96316659D01*
X133259333Y-96363328D01*
X133259330Y-96363330D01*
X133193330Y-96429330D01*
X133193328Y-96429333D01*
X133146659Y-96510167D01*
X133146659Y-96510168D01*
X133122500Y-96600329D01*
X128054247Y-96600329D01*
X128092085Y-96562491D01*
X128148367Y-96465009D01*
X128177500Y-96356281D01*
X128177500Y-96243719D01*
X128148367Y-96134991D01*
X128123736Y-96092329D01*
X134519500Y-96092329D01*
X134519500Y-96185671D01*
X134543659Y-96275832D01*
X134590329Y-96356668D01*
X134656332Y-96422671D01*
X134737168Y-96469341D01*
X134827329Y-96493500D01*
X134827331Y-96493500D01*
X134920669Y-96493500D01*
X134920671Y-96493500D01*
X135010832Y-96469341D01*
X135091668Y-96422671D01*
X135157671Y-96356668D01*
X135204341Y-96275832D01*
X135228500Y-96185671D01*
X135228500Y-96092329D01*
X135204341Y-96002168D01*
X135157671Y-95921332D01*
X135091668Y-95855329D01*
X135010832Y-95808659D01*
X135010833Y-95808659D01*
X134980778Y-95800606D01*
X134920671Y-95784500D01*
X134827329Y-95784500D01*
X134767221Y-95800606D01*
X134737167Y-95808659D01*
X134656333Y-95855328D01*
X134656330Y-95855330D01*
X134590330Y-95921330D01*
X134590328Y-95921333D01*
X134543659Y-96002167D01*
X134543659Y-96002168D01*
X134519500Y-96092329D01*
X128123736Y-96092329D01*
X128092085Y-96037509D01*
X128012491Y-95957915D01*
X127949130Y-95921333D01*
X127915010Y-95901633D01*
X127860645Y-95887066D01*
X127806281Y-95872500D01*
X127693719Y-95872500D01*
X127584989Y-95901633D01*
X127487509Y-95957915D01*
X127487506Y-95957917D01*
X127407917Y-96037506D01*
X127407915Y-96037509D01*
X127351633Y-96134989D01*
X127330104Y-96215340D01*
X127322500Y-96243719D01*
X126300500Y-96243719D01*
X126300500Y-94060329D01*
X132995500Y-94060329D01*
X132995500Y-94153671D01*
X133019659Y-94243832D01*
X133066329Y-94324668D01*
X133132332Y-94390671D01*
X133213168Y-94437341D01*
X133303329Y-94461500D01*
X133303331Y-94461500D01*
X133396669Y-94461500D01*
X133396671Y-94461500D01*
X133486832Y-94437341D01*
X133567668Y-94390671D01*
X133633671Y-94324668D01*
X133680341Y-94243832D01*
X133704500Y-94153671D01*
X133704500Y-94060329D01*
X133680341Y-93970168D01*
X133633671Y-93889332D01*
X133567668Y-93823329D01*
X133486832Y-93776659D01*
X133486833Y-93776659D01*
X133456778Y-93768606D01*
X133396671Y-93752500D01*
X133303329Y-93752500D01*
X133243221Y-93768606D01*
X133213167Y-93776659D01*
X133132333Y-93823328D01*
X133132330Y-93823330D01*
X133066330Y-93889330D01*
X133066328Y-93889333D01*
X133019659Y-93970167D01*
X133019659Y-93970168D01*
X132995500Y-94060329D01*
X126300500Y-94060329D01*
X126300500Y-93293719D01*
X128372500Y-93293719D01*
X128372500Y-93406280D01*
X128401633Y-93515010D01*
X128420877Y-93548340D01*
X128457915Y-93612491D01*
X128537509Y-93692085D01*
X128634991Y-93748367D01*
X128743719Y-93777500D01*
X128743721Y-93777500D01*
X128856279Y-93777500D01*
X128856281Y-93777500D01*
X128965009Y-93748367D01*
X129062491Y-93692085D01*
X129142085Y-93612491D01*
X129198367Y-93515009D01*
X129227500Y-93406281D01*
X129227500Y-93293719D01*
X129198367Y-93184991D01*
X129190479Y-93171329D01*
X130074500Y-93171329D01*
X130074500Y-93264671D01*
X130098659Y-93354832D01*
X130145329Y-93435668D01*
X130211332Y-93501671D01*
X130292168Y-93548341D01*
X130382329Y-93572500D01*
X130382331Y-93572500D01*
X130475669Y-93572500D01*
X130475671Y-93572500D01*
X130565832Y-93548341D01*
X130646668Y-93501671D01*
X130712671Y-93435668D01*
X130759341Y-93354832D01*
X130783500Y-93264671D01*
X130783500Y-93171329D01*
X130759341Y-93081168D01*
X130712671Y-93000332D01*
X130646668Y-92934329D01*
X130646667Y-92934328D01*
X130612060Y-92914348D01*
X130565832Y-92887659D01*
X130475671Y-92863500D01*
X130382329Y-92863500D01*
X130322221Y-92879606D01*
X130292167Y-92887659D01*
X130211333Y-92934328D01*
X130211330Y-92934330D01*
X130145330Y-93000330D01*
X130145328Y-93000333D01*
X130098659Y-93081167D01*
X130096960Y-93087509D01*
X130074500Y-93171329D01*
X129190479Y-93171329D01*
X129142085Y-93087509D01*
X129062491Y-93007915D01*
X129013750Y-92979774D01*
X128965010Y-92951633D01*
X128900428Y-92934329D01*
X128856281Y-92922500D01*
X128743719Y-92922500D01*
X128634989Y-92951633D01*
X128537509Y-93007915D01*
X128537506Y-93007917D01*
X128457917Y-93087506D01*
X128457915Y-93087509D01*
X128401633Y-93184989D01*
X128372500Y-93293719D01*
X126300500Y-93293719D01*
X126300500Y-92790329D01*
X139218500Y-92790329D01*
X139218500Y-92883671D01*
X139242659Y-92973832D01*
X139289329Y-93054668D01*
X139355332Y-93120671D01*
X139436168Y-93167341D01*
X139526329Y-93191500D01*
X139526331Y-93191500D01*
X139619669Y-93191500D01*
X139619671Y-93191500D01*
X139709832Y-93167341D01*
X139790668Y-93120671D01*
X139856671Y-93054668D01*
X139903341Y-92973832D01*
X139927500Y-92883671D01*
X139927500Y-92790329D01*
X139903341Y-92700168D01*
X139856671Y-92619332D01*
X139790668Y-92553329D01*
X139709832Y-92506659D01*
X139709833Y-92506659D01*
X139679778Y-92498606D01*
X139619671Y-92482500D01*
X139526329Y-92482500D01*
X139466221Y-92498606D01*
X139436167Y-92506659D01*
X139355333Y-92553328D01*
X139355330Y-92553330D01*
X139289330Y-92619330D01*
X139289328Y-92619333D01*
X139242659Y-92700167D01*
X139240901Y-92706729D01*
X139218500Y-92790329D01*
X126300500Y-92790329D01*
X126300500Y-90885329D01*
X130709500Y-90885329D01*
X130709500Y-90978671D01*
X130733659Y-91068832D01*
X130780329Y-91149668D01*
X130846332Y-91215671D01*
X130927168Y-91262341D01*
X131017329Y-91286500D01*
X131017331Y-91286500D01*
X131110669Y-91286500D01*
X131110671Y-91286500D01*
X131200832Y-91262341D01*
X131281668Y-91215671D01*
X131347671Y-91149668D01*
X131394341Y-91068832D01*
X131418500Y-90978671D01*
X131418500Y-90885329D01*
X134900500Y-90885329D01*
X134900500Y-90978671D01*
X134924659Y-91068832D01*
X134971329Y-91149668D01*
X135037332Y-91215671D01*
X135118168Y-91262341D01*
X135208329Y-91286500D01*
X135208331Y-91286500D01*
X135301669Y-91286500D01*
X135301671Y-91286500D01*
X135391832Y-91262341D01*
X135472668Y-91215671D01*
X135538671Y-91149668D01*
X135585341Y-91068832D01*
X135609500Y-90978671D01*
X135609500Y-90885329D01*
X135585341Y-90795168D01*
X135538671Y-90714332D01*
X135472668Y-90648329D01*
X135391832Y-90601659D01*
X135391833Y-90601659D01*
X135349970Y-90590442D01*
X135301671Y-90577500D01*
X135208329Y-90577500D01*
X135160030Y-90590442D01*
X135118167Y-90601659D01*
X135037333Y-90648328D01*
X135037330Y-90648330D01*
X134971330Y-90714330D01*
X134971328Y-90714333D01*
X134924659Y-90795167D01*
X134924659Y-90795168D01*
X134900500Y-90885329D01*
X131418500Y-90885329D01*
X131394341Y-90795168D01*
X131347671Y-90714332D01*
X131281668Y-90648329D01*
X131200832Y-90601659D01*
X131200833Y-90601659D01*
X131158970Y-90590442D01*
X131110671Y-90577500D01*
X131017329Y-90577500D01*
X130969030Y-90590442D01*
X130927167Y-90601659D01*
X130846333Y-90648328D01*
X130846330Y-90648330D01*
X130780330Y-90714330D01*
X130780328Y-90714333D01*
X130733659Y-90795167D01*
X130733659Y-90795168D01*
X130709500Y-90885329D01*
X126300500Y-90885329D01*
X126300500Y-90377329D01*
X140361500Y-90377329D01*
X140361500Y-90470671D01*
X140385659Y-90560832D01*
X140432329Y-90641668D01*
X140498332Y-90707671D01*
X140579168Y-90754341D01*
X140669329Y-90778500D01*
X140669331Y-90778500D01*
X140762669Y-90778500D01*
X140762671Y-90778500D01*
X140852832Y-90754341D01*
X140933668Y-90707671D01*
X140999671Y-90641668D01*
X141046341Y-90560832D01*
X141070500Y-90470671D01*
X141070500Y-90377329D01*
X141046341Y-90287168D01*
X140999671Y-90206332D01*
X140971013Y-90177674D01*
X140937528Y-90116351D01*
X140942512Y-90046659D01*
X140984384Y-89990726D01*
X140996695Y-89982605D01*
X141060668Y-89945671D01*
X141126671Y-89879668D01*
X141173341Y-89798832D01*
X141197500Y-89708671D01*
X141197500Y-89615329D01*
X141173341Y-89525168D01*
X141126671Y-89444332D01*
X141060668Y-89378329D01*
X140979832Y-89331659D01*
X140979833Y-89331659D01*
X140936369Y-89320013D01*
X140889671Y-89307500D01*
X140796329Y-89307500D01*
X140749631Y-89320013D01*
X140706167Y-89331659D01*
X140625333Y-89378328D01*
X140625330Y-89378330D01*
X140559330Y-89444330D01*
X140559328Y-89444333D01*
X140512659Y-89525167D01*
X140512659Y-89525168D01*
X140488500Y-89615329D01*
X140488500Y-89708671D01*
X140512659Y-89798832D01*
X140559328Y-89879666D01*
X140559330Y-89879669D01*
X140587986Y-89908325D01*
X140621471Y-89969648D01*
X140616487Y-90039340D01*
X140574615Y-90095273D01*
X140562306Y-90103393D01*
X140498333Y-90140328D01*
X140498330Y-90140330D01*
X140432330Y-90206330D01*
X140432328Y-90206333D01*
X140385659Y-90287167D01*
X140385659Y-90287168D01*
X140361500Y-90377329D01*
X126300500Y-90377329D01*
X126300500Y-89234329D01*
X130074500Y-89234329D01*
X130074500Y-89327671D01*
X130098659Y-89417832D01*
X130145329Y-89498668D01*
X130211332Y-89564671D01*
X130292168Y-89611341D01*
X130382329Y-89635500D01*
X130382331Y-89635500D01*
X130475669Y-89635500D01*
X130475671Y-89635500D01*
X130565832Y-89611341D01*
X130646668Y-89564671D01*
X130712671Y-89498668D01*
X130759341Y-89417832D01*
X130783500Y-89327671D01*
X130783500Y-89234329D01*
X130759341Y-89144168D01*
X130712671Y-89063332D01*
X130646668Y-88997329D01*
X130565832Y-88950659D01*
X130565833Y-88950659D01*
X130535778Y-88942606D01*
X130475671Y-88926500D01*
X130382329Y-88926500D01*
X130322221Y-88942606D01*
X130292167Y-88950659D01*
X130211333Y-88997328D01*
X130211330Y-88997330D01*
X130145330Y-89063330D01*
X130145328Y-89063333D01*
X130098659Y-89144167D01*
X130096711Y-89151438D01*
X130074500Y-89234329D01*
X126300500Y-89234329D01*
X126300500Y-87964329D01*
X129947500Y-87964329D01*
X129947500Y-88057671D01*
X129971659Y-88147832D01*
X130018329Y-88228668D01*
X130084332Y-88294671D01*
X130165168Y-88341341D01*
X130255329Y-88365500D01*
X130255331Y-88365500D01*
X130348669Y-88365500D01*
X130348671Y-88365500D01*
X130438832Y-88341341D01*
X130519668Y-88294671D01*
X130585671Y-88228668D01*
X130632341Y-88147832D01*
X130656500Y-88057671D01*
X130656500Y-87964329D01*
X131979500Y-87964329D01*
X131979500Y-88057671D01*
X132003659Y-88147832D01*
X132050329Y-88228668D01*
X132116332Y-88294671D01*
X132197168Y-88341341D01*
X132287329Y-88365500D01*
X132287331Y-88365500D01*
X132380669Y-88365500D01*
X132380671Y-88365500D01*
X132470832Y-88341341D01*
X132551668Y-88294671D01*
X132617671Y-88228668D01*
X132664341Y-88147832D01*
X132688500Y-88057671D01*
X132688500Y-87964329D01*
X132664341Y-87874168D01*
X132617671Y-87793332D01*
X132551668Y-87727329D01*
X132470832Y-87680659D01*
X132470833Y-87680659D01*
X132440778Y-87672606D01*
X132380671Y-87656500D01*
X132287329Y-87656500D01*
X132227221Y-87672606D01*
X132197167Y-87680659D01*
X132116333Y-87727328D01*
X132116330Y-87727330D01*
X132050330Y-87793330D01*
X132050328Y-87793333D01*
X132003659Y-87874167D01*
X132000160Y-87887226D01*
X131979500Y-87964329D01*
X130656500Y-87964329D01*
X130632341Y-87874168D01*
X130585671Y-87793332D01*
X130519668Y-87727329D01*
X130438832Y-87680659D01*
X130438833Y-87680659D01*
X130408778Y-87672606D01*
X130348671Y-87656500D01*
X130255329Y-87656500D01*
X130195221Y-87672606D01*
X130165167Y-87680659D01*
X130084333Y-87727328D01*
X130084330Y-87727330D01*
X130018330Y-87793330D01*
X130018328Y-87793333D01*
X129971659Y-87874167D01*
X129968160Y-87887226D01*
X129947500Y-87964329D01*
X126300500Y-87964329D01*
X126300500Y-86694329D01*
X130963500Y-86694329D01*
X130963500Y-86787671D01*
X130987659Y-86877832D01*
X131034329Y-86958668D01*
X131100332Y-87024671D01*
X131181168Y-87071341D01*
X131271329Y-87095500D01*
X131271331Y-87095500D01*
X131364669Y-87095500D01*
X131364671Y-87095500D01*
X131454832Y-87071341D01*
X131535668Y-87024671D01*
X131601671Y-86958668D01*
X131648341Y-86877832D01*
X131672500Y-86787671D01*
X131672500Y-86694329D01*
X131979500Y-86694329D01*
X131979500Y-86787671D01*
X132003659Y-86877832D01*
X132050329Y-86958668D01*
X132116332Y-87024671D01*
X132197168Y-87071341D01*
X132287329Y-87095500D01*
X132287331Y-87095500D01*
X132380669Y-87095500D01*
X132380671Y-87095500D01*
X132470832Y-87071341D01*
X132551668Y-87024671D01*
X132617671Y-86958668D01*
X132664341Y-86877832D01*
X132688500Y-86787671D01*
X132688500Y-86694329D01*
X132664341Y-86604168D01*
X132617671Y-86523332D01*
X132551668Y-86457329D01*
X132470832Y-86410659D01*
X132470833Y-86410659D01*
X132440711Y-86402588D01*
X132380671Y-86386500D01*
X132287329Y-86386500D01*
X132227289Y-86402588D01*
X132197167Y-86410659D01*
X132116333Y-86457328D01*
X132116330Y-86457330D01*
X132050330Y-86523330D01*
X132050328Y-86523333D01*
X132003659Y-86604167D01*
X132003659Y-86604168D01*
X131979500Y-86694329D01*
X131672500Y-86694329D01*
X131648341Y-86604168D01*
X131601671Y-86523332D01*
X131535668Y-86457329D01*
X131454832Y-86410659D01*
X131454833Y-86410659D01*
X131424711Y-86402588D01*
X131364671Y-86386500D01*
X131271329Y-86386500D01*
X131211289Y-86402588D01*
X131181167Y-86410659D01*
X131100333Y-86457328D01*
X131100330Y-86457330D01*
X131034330Y-86523330D01*
X131034328Y-86523333D01*
X130987659Y-86604167D01*
X130987659Y-86604168D01*
X130963500Y-86694329D01*
X126300500Y-86694329D01*
X126300500Y-85424329D01*
X129947500Y-85424329D01*
X129947500Y-85517671D01*
X129971659Y-85607832D01*
X130018329Y-85688668D01*
X130084332Y-85754671D01*
X130165168Y-85801341D01*
X130255329Y-85825500D01*
X130255331Y-85825500D01*
X130348669Y-85825500D01*
X130348671Y-85825500D01*
X130438832Y-85801341D01*
X130519668Y-85754671D01*
X130585671Y-85688668D01*
X130632341Y-85607832D01*
X130656500Y-85517671D01*
X130656500Y-85424329D01*
X139218500Y-85424329D01*
X139218500Y-85517671D01*
X139242659Y-85607832D01*
X139289329Y-85688668D01*
X139355332Y-85754671D01*
X139436168Y-85801341D01*
X139526329Y-85825500D01*
X139526331Y-85825500D01*
X139619669Y-85825500D01*
X139619671Y-85825500D01*
X139709832Y-85801341D01*
X139790668Y-85754671D01*
X139856671Y-85688668D01*
X139903341Y-85607832D01*
X139927500Y-85517671D01*
X139927500Y-85424329D01*
X139903341Y-85334168D01*
X139856671Y-85253332D01*
X139790668Y-85187329D01*
X139709832Y-85140659D01*
X139709833Y-85140659D01*
X139679778Y-85132606D01*
X139619671Y-85116500D01*
X139526329Y-85116500D01*
X139466221Y-85132606D01*
X139436167Y-85140659D01*
X139355333Y-85187328D01*
X139355330Y-85187330D01*
X139289330Y-85253330D01*
X139289328Y-85253333D01*
X139242659Y-85334167D01*
X139242659Y-85334168D01*
X139218500Y-85424329D01*
X130656500Y-85424329D01*
X130632341Y-85334168D01*
X130585671Y-85253332D01*
X130519668Y-85187329D01*
X130438832Y-85140659D01*
X130438833Y-85140659D01*
X130408778Y-85132606D01*
X130348671Y-85116500D01*
X130255329Y-85116500D01*
X130195221Y-85132606D01*
X130165167Y-85140659D01*
X130084333Y-85187328D01*
X130084330Y-85187330D01*
X130018330Y-85253330D01*
X130018328Y-85253333D01*
X129971659Y-85334167D01*
X129971659Y-85334168D01*
X129947500Y-85424329D01*
X126300500Y-85424329D01*
X126300500Y-83519329D01*
X131725500Y-83519329D01*
X131725500Y-83612671D01*
X131749659Y-83702832D01*
X131796329Y-83783668D01*
X131862332Y-83849671D01*
X131943168Y-83896341D01*
X132033329Y-83920500D01*
X132033331Y-83920500D01*
X132126669Y-83920500D01*
X132126671Y-83920500D01*
X132216832Y-83896341D01*
X132297668Y-83849671D01*
X132363671Y-83783668D01*
X132410341Y-83702832D01*
X132434500Y-83612671D01*
X132434500Y-83519329D01*
X132410341Y-83429168D01*
X132363671Y-83348332D01*
X132297668Y-83282329D01*
X132216832Y-83235659D01*
X132216833Y-83235659D01*
X132186778Y-83227606D01*
X132126671Y-83211500D01*
X132033329Y-83211500D01*
X131973221Y-83227606D01*
X131943167Y-83235659D01*
X131862333Y-83282328D01*
X131862330Y-83282330D01*
X131796330Y-83348330D01*
X131796328Y-83348333D01*
X131749659Y-83429167D01*
X131749659Y-83429168D01*
X131725500Y-83519329D01*
X126300500Y-83519329D01*
X126300500Y-82630329D01*
X129947500Y-82630329D01*
X129947500Y-82723671D01*
X129971659Y-82813832D01*
X130018329Y-82894668D01*
X130084332Y-82960671D01*
X130165168Y-83007341D01*
X130255329Y-83031500D01*
X130255331Y-83031500D01*
X130348669Y-83031500D01*
X130348671Y-83031500D01*
X130438832Y-83007341D01*
X130519668Y-82960671D01*
X130585671Y-82894668D01*
X130591640Y-82884329D01*
X130836500Y-82884329D01*
X130836500Y-82977671D01*
X130860659Y-83067832D01*
X130907329Y-83148668D01*
X130973332Y-83214671D01*
X131054168Y-83261341D01*
X131144329Y-83285500D01*
X131144331Y-83285500D01*
X131237669Y-83285500D01*
X131237671Y-83285500D01*
X131327832Y-83261341D01*
X131408668Y-83214671D01*
X131474671Y-83148668D01*
X131521341Y-83067832D01*
X131545500Y-82977671D01*
X131545500Y-82884329D01*
X131521341Y-82794168D01*
X131474671Y-82713332D01*
X131408668Y-82647329D01*
X131327832Y-82600659D01*
X131327833Y-82600659D01*
X131297778Y-82592606D01*
X131237671Y-82576500D01*
X131144329Y-82576500D01*
X131084221Y-82592606D01*
X131054167Y-82600659D01*
X130973333Y-82647328D01*
X130973330Y-82647330D01*
X130907330Y-82713330D01*
X130907326Y-82713335D01*
X130895528Y-82733770D01*
X130895526Y-82733774D01*
X130860659Y-82794168D01*
X130836500Y-82884329D01*
X130591640Y-82884329D01*
X130632341Y-82813832D01*
X130656500Y-82723671D01*
X130656500Y-82630329D01*
X130632341Y-82540168D01*
X130585671Y-82459332D01*
X130519668Y-82393329D01*
X130490223Y-82376329D01*
X140361500Y-82376329D01*
X140361500Y-82469671D01*
X140385659Y-82559832D01*
X140426360Y-82630330D01*
X140432328Y-82640666D01*
X140432330Y-82640669D01*
X140504079Y-82712418D01*
X140502837Y-82713659D01*
X140538174Y-82762062D01*
X140542323Y-82831808D01*
X140508105Y-82892726D01*
X140499342Y-82900318D01*
X140432330Y-82967330D01*
X140432328Y-82967333D01*
X140385659Y-83048167D01*
X140385659Y-83048168D01*
X140361500Y-83138329D01*
X140361500Y-83231671D01*
X140385659Y-83321832D01*
X140432329Y-83402668D01*
X140498332Y-83468671D01*
X140579168Y-83515341D01*
X140669329Y-83539500D01*
X140669331Y-83539500D01*
X140762669Y-83539500D01*
X140762671Y-83539500D01*
X140852832Y-83515341D01*
X140933668Y-83468671D01*
X140999671Y-83402668D01*
X141046341Y-83321832D01*
X141070500Y-83231671D01*
X141070500Y-83138329D01*
X141046341Y-83048168D01*
X140999671Y-82967332D01*
X140933668Y-82901329D01*
X140927921Y-82895582D01*
X140929163Y-82894339D01*
X140893829Y-82845949D01*
X140889674Y-82776203D01*
X140923885Y-82715283D01*
X140932658Y-82707680D01*
X140933665Y-82706672D01*
X140933668Y-82706671D01*
X140999671Y-82640668D01*
X141046341Y-82559832D01*
X141070500Y-82469671D01*
X141070500Y-82376329D01*
X141046341Y-82286168D01*
X140999671Y-82205332D01*
X140933668Y-82139329D01*
X140852832Y-82092659D01*
X140852833Y-82092659D01*
X140822778Y-82084606D01*
X140762671Y-82068500D01*
X140669329Y-82068500D01*
X140609221Y-82084606D01*
X140579167Y-82092659D01*
X140498333Y-82139328D01*
X140498330Y-82139330D01*
X140432330Y-82205330D01*
X140432328Y-82205333D01*
X140385659Y-82286167D01*
X140385659Y-82286168D01*
X140361500Y-82376329D01*
X130490223Y-82376329D01*
X130438832Y-82346659D01*
X130438833Y-82346659D01*
X130408778Y-82338606D01*
X130348671Y-82322500D01*
X130255329Y-82322500D01*
X130195221Y-82338606D01*
X130165167Y-82346659D01*
X130084333Y-82393328D01*
X130084330Y-82393330D01*
X130018330Y-82459330D01*
X130018328Y-82459333D01*
X129971659Y-82540167D01*
X129971659Y-82540168D01*
X129947500Y-82630329D01*
X126300500Y-82630329D01*
X126300500Y-81614329D01*
X130074500Y-81614329D01*
X130074500Y-81707671D01*
X130098659Y-81797832D01*
X130145329Y-81878668D01*
X130211332Y-81944671D01*
X130292168Y-81991341D01*
X130382329Y-82015500D01*
X130382331Y-82015500D01*
X130475669Y-82015500D01*
X130475671Y-82015500D01*
X130565832Y-81991341D01*
X130646668Y-81944671D01*
X130712671Y-81878668D01*
X130759341Y-81797832D01*
X130783500Y-81707671D01*
X130783500Y-81614329D01*
X130759341Y-81524168D01*
X130712671Y-81443332D01*
X130646668Y-81377329D01*
X130565832Y-81330659D01*
X130565833Y-81330659D01*
X130527691Y-81320439D01*
X130475671Y-81306500D01*
X130382329Y-81306500D01*
X130330309Y-81320439D01*
X130292167Y-81330659D01*
X130211333Y-81377328D01*
X130211330Y-81377330D01*
X130145330Y-81443330D01*
X130145328Y-81443333D01*
X130098659Y-81524167D01*
X130098659Y-81524168D01*
X130074500Y-81614329D01*
X126300500Y-81614329D01*
X126300500Y-80725329D01*
X130582500Y-80725329D01*
X130582500Y-80818671D01*
X130606659Y-80908832D01*
X130653329Y-80989668D01*
X130719332Y-81055671D01*
X130800168Y-81102341D01*
X130890329Y-81126500D01*
X130890331Y-81126500D01*
X130983669Y-81126500D01*
X130983671Y-81126500D01*
X131073832Y-81102341D01*
X131154668Y-81055671D01*
X131220671Y-80989668D01*
X131267341Y-80908832D01*
X131267341Y-80908830D01*
X131271404Y-80901794D01*
X131272761Y-80902577D01*
X131310778Y-80855400D01*
X131377072Y-80833334D01*
X131444772Y-80850612D01*
X131492383Y-80901749D01*
X131495461Y-80908489D01*
X131495658Y-80908831D01*
X131495659Y-80908832D01*
X131542329Y-80989668D01*
X131608332Y-81055671D01*
X131689168Y-81102341D01*
X131779329Y-81126500D01*
X131779331Y-81126500D01*
X131872669Y-81126500D01*
X131872671Y-81126500D01*
X131962832Y-81102341D01*
X132043668Y-81055671D01*
X132109671Y-80989668D01*
X132156341Y-80908832D01*
X132180500Y-80818671D01*
X132180500Y-80725329D01*
X132156341Y-80635168D01*
X132109671Y-80554332D01*
X132043668Y-80488329D01*
X131962832Y-80441659D01*
X131962833Y-80441659D01*
X131932778Y-80433606D01*
X131872671Y-80417500D01*
X131779329Y-80417500D01*
X131719221Y-80433606D01*
X131689167Y-80441659D01*
X131608333Y-80488328D01*
X131608330Y-80488330D01*
X131542330Y-80554330D01*
X131542328Y-80554333D01*
X131491596Y-80642206D01*
X131490239Y-80641422D01*
X131452216Y-80688603D01*
X131385921Y-80710665D01*
X131318223Y-80693383D01*
X131270614Y-80642244D01*
X131267541Y-80635515D01*
X131267340Y-80635167D01*
X131220671Y-80554332D01*
X131154668Y-80488329D01*
X131073832Y-80441659D01*
X131073833Y-80441659D01*
X131043778Y-80433606D01*
X130983671Y-80417500D01*
X130890329Y-80417500D01*
X130830221Y-80433606D01*
X130800167Y-80441659D01*
X130719333Y-80488328D01*
X130719330Y-80488330D01*
X130653330Y-80554330D01*
X130653328Y-80554333D01*
X130606659Y-80635167D01*
X130606659Y-80635168D01*
X130582500Y-80725329D01*
X126300500Y-80725329D01*
X126300500Y-79709329D01*
X126772500Y-79709329D01*
X126772500Y-79802671D01*
X126796659Y-79892832D01*
X126843329Y-79973668D01*
X126909332Y-80039671D01*
X126990168Y-80086341D01*
X127080329Y-80110500D01*
X127080331Y-80110500D01*
X127173669Y-80110500D01*
X127173671Y-80110500D01*
X127263832Y-80086341D01*
X127344668Y-80039671D01*
X127410671Y-79973668D01*
X127457341Y-79892832D01*
X127481500Y-79802671D01*
X127481500Y-79709329D01*
X127457341Y-79619168D01*
X127436072Y-79582329D01*
X149251500Y-79582329D01*
X149251500Y-79675671D01*
X149275659Y-79765832D01*
X149322329Y-79846668D01*
X149388332Y-79912671D01*
X149469168Y-79959341D01*
X149559329Y-79983500D01*
X149559331Y-79983500D01*
X149652669Y-79983500D01*
X149652671Y-79983500D01*
X149742832Y-79959341D01*
X149823668Y-79912671D01*
X149889671Y-79846668D01*
X149936341Y-79765832D01*
X149960500Y-79675671D01*
X149960500Y-79582329D01*
X149936341Y-79492168D01*
X149889671Y-79411332D01*
X149823668Y-79345329D01*
X149742832Y-79298659D01*
X149742833Y-79298659D01*
X149712778Y-79290606D01*
X149652671Y-79274500D01*
X149559329Y-79274500D01*
X149499221Y-79290606D01*
X149469167Y-79298659D01*
X149388333Y-79345328D01*
X149388330Y-79345330D01*
X149322330Y-79411330D01*
X149322328Y-79411333D01*
X149275659Y-79492167D01*
X149275659Y-79492168D01*
X149251500Y-79582329D01*
X127436072Y-79582329D01*
X127410671Y-79538332D01*
X127344668Y-79472329D01*
X127263832Y-79425659D01*
X127263833Y-79425659D01*
X127233778Y-79417606D01*
X127173671Y-79401500D01*
X127080329Y-79401500D01*
X127020221Y-79417606D01*
X126990167Y-79425659D01*
X126909333Y-79472328D01*
X126909330Y-79472330D01*
X126843330Y-79538330D01*
X126843328Y-79538333D01*
X126796659Y-79619167D01*
X126796659Y-79619168D01*
X126772500Y-79709329D01*
X126300500Y-79709329D01*
X126300500Y-78202706D01*
X126300618Y-78197297D01*
X126302227Y-78160438D01*
X126318147Y-77795795D01*
X126319087Y-77785064D01*
X126371189Y-77389302D01*
X126373063Y-77378672D01*
X126459463Y-76988950D01*
X126462261Y-76978512D01*
X126582291Y-76597823D01*
X126585979Y-76587691D01*
X126738742Y-76218888D01*
X126743300Y-76209114D01*
X126927617Y-75855045D01*
X126930921Y-75849322D01*
X144348499Y-75849322D01*
X144382374Y-76019618D01*
X144382377Y-76019628D01*
X144448821Y-76180040D01*
X144448828Y-76180053D01*
X144545293Y-76324422D01*
X144545296Y-76324426D01*
X144668073Y-76447203D01*
X144668077Y-76447206D01*
X144812446Y-76543671D01*
X144812459Y-76543678D01*
X144972871Y-76610122D01*
X144972876Y-76610124D01*
X144972880Y-76610124D01*
X144972881Y-76610125D01*
X145143177Y-76644000D01*
X145143180Y-76644000D01*
X145316822Y-76644000D01*
X145431394Y-76621209D01*
X145487124Y-76610124D01*
X145647547Y-76543675D01*
X145791923Y-76447206D01*
X145914706Y-76324423D01*
X146011175Y-76180047D01*
X146077624Y-76019624D01*
X146111500Y-75849322D01*
X146888499Y-75849322D01*
X146922374Y-76019618D01*
X146922377Y-76019628D01*
X146988821Y-76180040D01*
X146988828Y-76180053D01*
X147085293Y-76324422D01*
X147085296Y-76324426D01*
X147208073Y-76447203D01*
X147208077Y-76447206D01*
X147352446Y-76543671D01*
X147352459Y-76543678D01*
X147512871Y-76610122D01*
X147512876Y-76610124D01*
X147512880Y-76610124D01*
X147512881Y-76610125D01*
X147683177Y-76644000D01*
X147683180Y-76644000D01*
X147856822Y-76644000D01*
X147971394Y-76621209D01*
X148027124Y-76610124D01*
X148187547Y-76543675D01*
X148331923Y-76447206D01*
X148454706Y-76324423D01*
X148551175Y-76180047D01*
X148617624Y-76019624D01*
X148651500Y-75849322D01*
X149428499Y-75849322D01*
X149462374Y-76019618D01*
X149462377Y-76019628D01*
X149528821Y-76180040D01*
X149528828Y-76180053D01*
X149625293Y-76324422D01*
X149625296Y-76324426D01*
X149748073Y-76447203D01*
X149748077Y-76447206D01*
X149892446Y-76543671D01*
X149892459Y-76543678D01*
X150052871Y-76610122D01*
X150052876Y-76610124D01*
X150052880Y-76610124D01*
X150052881Y-76610125D01*
X150223177Y-76644000D01*
X150223180Y-76644000D01*
X150396822Y-76644000D01*
X150511394Y-76621209D01*
X150567124Y-76610124D01*
X150727547Y-76543675D01*
X150871923Y-76447206D01*
X150994706Y-76324423D01*
X151091175Y-76180047D01*
X151157624Y-76019624D01*
X151191500Y-75849320D01*
X151191500Y-75675680D01*
X151191500Y-75675677D01*
X151157625Y-75505381D01*
X151157624Y-75505380D01*
X151157624Y-75505376D01*
X151148949Y-75484433D01*
X151091178Y-75344959D01*
X151091171Y-75344946D01*
X150994706Y-75200577D01*
X150994703Y-75200573D01*
X150871926Y-75077796D01*
X150871922Y-75077793D01*
X150727553Y-74981328D01*
X150727540Y-74981321D01*
X150567128Y-74914877D01*
X150567118Y-74914874D01*
X150396822Y-74881000D01*
X150396820Y-74881000D01*
X150223180Y-74881000D01*
X150223178Y-74881000D01*
X150052881Y-74914874D01*
X150052871Y-74914877D01*
X149892459Y-74981321D01*
X149892446Y-74981328D01*
X149748077Y-75077793D01*
X149748073Y-75077796D01*
X149625296Y-75200573D01*
X149625293Y-75200577D01*
X149528828Y-75344946D01*
X149528821Y-75344959D01*
X149462377Y-75505371D01*
X149462374Y-75505381D01*
X149428500Y-75675677D01*
X149428500Y-75675680D01*
X149428500Y-75849320D01*
X149428500Y-75849322D01*
X149428499Y-75849322D01*
X148651500Y-75849322D01*
X148651500Y-75849320D01*
X148651500Y-75675680D01*
X148651500Y-75675677D01*
X148617625Y-75505381D01*
X148617624Y-75505380D01*
X148617624Y-75505376D01*
X148608949Y-75484433D01*
X148551178Y-75344959D01*
X148551171Y-75344946D01*
X148454706Y-75200577D01*
X148454703Y-75200573D01*
X148331926Y-75077796D01*
X148331922Y-75077793D01*
X148187553Y-74981328D01*
X148187540Y-74981321D01*
X148027128Y-74914877D01*
X148027118Y-74914874D01*
X147856822Y-74881000D01*
X147856820Y-74881000D01*
X147683180Y-74881000D01*
X147683178Y-74881000D01*
X147512881Y-74914874D01*
X147512871Y-74914877D01*
X147352459Y-74981321D01*
X147352446Y-74981328D01*
X147208077Y-75077793D01*
X147208073Y-75077796D01*
X147085296Y-75200573D01*
X147085293Y-75200577D01*
X146988828Y-75344946D01*
X146988821Y-75344959D01*
X146922377Y-75505371D01*
X146922374Y-75505381D01*
X146888500Y-75675677D01*
X146888500Y-75675680D01*
X146888500Y-75849320D01*
X146888500Y-75849322D01*
X146888499Y-75849322D01*
X146111500Y-75849322D01*
X146111500Y-75849320D01*
X146111500Y-75675680D01*
X146111500Y-75675677D01*
X146077625Y-75505381D01*
X146077624Y-75505380D01*
X146077624Y-75505376D01*
X146068949Y-75484433D01*
X146011178Y-75344959D01*
X146011171Y-75344946D01*
X145914706Y-75200577D01*
X145914703Y-75200573D01*
X145791926Y-75077796D01*
X145791922Y-75077793D01*
X145647553Y-74981328D01*
X145647540Y-74981321D01*
X145487128Y-74914877D01*
X145487118Y-74914874D01*
X145316822Y-74881000D01*
X145316820Y-74881000D01*
X145143180Y-74881000D01*
X145143178Y-74881000D01*
X144972881Y-74914874D01*
X144972871Y-74914877D01*
X144812459Y-74981321D01*
X144812446Y-74981328D01*
X144668077Y-75077793D01*
X144668073Y-75077796D01*
X144545296Y-75200573D01*
X144545293Y-75200577D01*
X144448828Y-75344946D01*
X144448821Y-75344959D01*
X144382377Y-75505371D01*
X144382374Y-75505381D01*
X144348500Y-75675677D01*
X144348500Y-75675680D01*
X144348500Y-75849320D01*
X144348500Y-75849322D01*
X144348499Y-75849322D01*
X126930921Y-75849322D01*
X126933012Y-75845700D01*
X127147492Y-75509033D01*
X127153685Y-75500189D01*
X127396687Y-75183503D01*
X127403625Y-75175234D01*
X127673304Y-74880932D01*
X127680932Y-74873304D01*
X127975234Y-74603625D01*
X127983503Y-74596687D01*
X128300189Y-74353685D01*
X128309029Y-74347495D01*
X128645700Y-74133012D01*
X128655045Y-74127617D01*
X129009114Y-73943300D01*
X129018888Y-73938742D01*
X129387691Y-73785979D01*
X129397823Y-73782291D01*
X129778521Y-73662258D01*
X129788950Y-73659463D01*
X130178672Y-73573063D01*
X130189302Y-73571189D01*
X130585064Y-73519087D01*
X130595795Y-73518147D01*
X130997297Y-73500617D01*
X131002706Y-73500500D01*
X131047595Y-73500500D01*
X161242405Y-73500500D01*
X161287294Y-73500500D01*
X161292702Y-73500617D01*
G37*
%TD.AperFunction*%
%TD*%
M02*
