%TF.GenerationSoftware,KiCad,Pcbnew,9.0.7*%
%TF.CreationDate,2026-04-24T04:27:01-07:00*%
%TF.ProjectId,Primary_Board,5072696d-6172-4795-9f42-6f6172642e6b,rev?*%
%TF.SameCoordinates,Original*%
%TF.FileFunction,Legend,Bot*%
%TF.FilePolarity,Positive*%
%FSLAX46Y46*%
G04 Gerber Fmt 4.6, Leading zero omitted, Abs format (unit mm)*
G04 Created by KiCad (PCBNEW 9.0.7) date 2026-04-24 04:27:01*
%MOMM*%
%LPD*%
G01*
G04 APERTURE LIST*
%ADD10C,0.160000*%
%ADD11C,0.150000*%
%ADD12C,0.152400*%
%ADD13C,0.120000*%
G04 APERTURE END LIST*
D10*
X131368359Y-102075500D02*
X131444549Y-102037405D01*
X131444549Y-102037405D02*
X131558835Y-102037405D01*
X131558835Y-102037405D02*
X131673121Y-102075500D01*
X131673121Y-102075500D02*
X131749311Y-102151690D01*
X131749311Y-102151690D02*
X131787406Y-102227881D01*
X131787406Y-102227881D02*
X131825502Y-102380262D01*
X131825502Y-102380262D02*
X131825502Y-102494548D01*
X131825502Y-102494548D02*
X131787406Y-102646929D01*
X131787406Y-102646929D02*
X131749311Y-102723119D01*
X131749311Y-102723119D02*
X131673121Y-102799310D01*
X131673121Y-102799310D02*
X131558835Y-102837405D01*
X131558835Y-102837405D02*
X131482644Y-102837405D01*
X131482644Y-102837405D02*
X131368359Y-102799310D01*
X131368359Y-102799310D02*
X131330263Y-102761214D01*
X131330263Y-102761214D02*
X131330263Y-102494548D01*
X131330263Y-102494548D02*
X131482644Y-102494548D01*
X130987406Y-102304071D02*
X130987406Y-102837405D01*
X130987406Y-102380262D02*
X130949311Y-102342167D01*
X130949311Y-102342167D02*
X130873121Y-102304071D01*
X130873121Y-102304071D02*
X130758835Y-102304071D01*
X130758835Y-102304071D02*
X130682644Y-102342167D01*
X130682644Y-102342167D02*
X130644549Y-102418357D01*
X130644549Y-102418357D02*
X130644549Y-102837405D01*
X129920739Y-102837405D02*
X129920739Y-102037405D01*
X129920739Y-102799310D02*
X129996930Y-102837405D01*
X129996930Y-102837405D02*
X130149311Y-102837405D01*
X130149311Y-102837405D02*
X130225501Y-102799310D01*
X130225501Y-102799310D02*
X130263596Y-102761214D01*
X130263596Y-102761214D02*
X130301692Y-102685024D01*
X130301692Y-102685024D02*
X130301692Y-102456452D01*
X130301692Y-102456452D02*
X130263596Y-102380262D01*
X130263596Y-102380262D02*
X130225501Y-102342167D01*
X130225501Y-102342167D02*
X130149311Y-102304071D01*
X130149311Y-102304071D02*
X129996930Y-102304071D01*
X129996930Y-102304071D02*
X129920739Y-102342167D01*
X135406456Y-104613315D02*
X135139789Y-105413315D01*
X135139789Y-105413315D02*
X134873123Y-104613315D01*
X134606456Y-105413315D02*
X134606456Y-104613315D01*
X134606456Y-104918077D02*
X134530266Y-104879981D01*
X134530266Y-104879981D02*
X134377885Y-104879981D01*
X134377885Y-104879981D02*
X134301694Y-104918077D01*
X134301694Y-104918077D02*
X134263599Y-104956172D01*
X134263599Y-104956172D02*
X134225504Y-105032362D01*
X134225504Y-105032362D02*
X134225504Y-105260934D01*
X134225504Y-105260934D02*
X134263599Y-105337124D01*
X134263599Y-105337124D02*
X134301694Y-105375220D01*
X134301694Y-105375220D02*
X134377885Y-105413315D01*
X134377885Y-105413315D02*
X134530266Y-105413315D01*
X134530266Y-105413315D02*
X134606456Y-105375220D01*
X133539789Y-105413315D02*
X133539789Y-104994267D01*
X133539789Y-104994267D02*
X133577884Y-104918077D01*
X133577884Y-104918077D02*
X133654075Y-104879981D01*
X133654075Y-104879981D02*
X133806456Y-104879981D01*
X133806456Y-104879981D02*
X133882646Y-104918077D01*
X133539789Y-105375220D02*
X133615980Y-105413315D01*
X133615980Y-105413315D02*
X133806456Y-105413315D01*
X133806456Y-105413315D02*
X133882646Y-105375220D01*
X133882646Y-105375220D02*
X133920742Y-105299029D01*
X133920742Y-105299029D02*
X133920742Y-105222839D01*
X133920742Y-105222839D02*
X133882646Y-105146648D01*
X133882646Y-105146648D02*
X133806456Y-105108553D01*
X133806456Y-105108553D02*
X133615980Y-105108553D01*
X133615980Y-105108553D02*
X133539789Y-105070458D01*
X133158836Y-104879981D02*
X133158836Y-105413315D01*
X133158836Y-104956172D02*
X133120741Y-104918077D01*
X133120741Y-104918077D02*
X133044551Y-104879981D01*
X133044551Y-104879981D02*
X132930265Y-104879981D01*
X132930265Y-104879981D02*
X132854074Y-104918077D01*
X132854074Y-104918077D02*
X132815979Y-104994267D01*
X132815979Y-104994267D02*
X132815979Y-105413315D01*
X132092169Y-105413315D02*
X132092169Y-104613315D01*
X132092169Y-105375220D02*
X132168360Y-105413315D01*
X132168360Y-105413315D02*
X132320741Y-105413315D01*
X132320741Y-105413315D02*
X132396931Y-105375220D01*
X132396931Y-105375220D02*
X132435026Y-105337124D01*
X132435026Y-105337124D02*
X132473122Y-105260934D01*
X132473122Y-105260934D02*
X132473122Y-105032362D01*
X132473122Y-105032362D02*
X132435026Y-104956172D01*
X132435026Y-104956172D02*
X132396931Y-104918077D01*
X132396931Y-104918077D02*
X132320741Y-104879981D01*
X132320741Y-104879981D02*
X132168360Y-104879981D01*
X132168360Y-104879981D02*
X132092169Y-104918077D01*
X131368359Y-104879981D02*
X131368359Y-105527600D01*
X131368359Y-105527600D02*
X131406454Y-105603791D01*
X131406454Y-105603791D02*
X131444550Y-105641886D01*
X131444550Y-105641886D02*
X131520740Y-105679981D01*
X131520740Y-105679981D02*
X131635026Y-105679981D01*
X131635026Y-105679981D02*
X131711216Y-105641886D01*
X131368359Y-105375220D02*
X131444550Y-105413315D01*
X131444550Y-105413315D02*
X131596931Y-105413315D01*
X131596931Y-105413315D02*
X131673121Y-105375220D01*
X131673121Y-105375220D02*
X131711216Y-105337124D01*
X131711216Y-105337124D02*
X131749312Y-105260934D01*
X131749312Y-105260934D02*
X131749312Y-105032362D01*
X131749312Y-105032362D02*
X131711216Y-104956172D01*
X131711216Y-104956172D02*
X131673121Y-104918077D01*
X131673121Y-104918077D02*
X131596931Y-104879981D01*
X131596931Y-104879981D02*
X131444550Y-104879981D01*
X131444550Y-104879981D02*
X131368359Y-104918077D01*
X130644549Y-105413315D02*
X130644549Y-104994267D01*
X130644549Y-104994267D02*
X130682644Y-104918077D01*
X130682644Y-104918077D02*
X130758835Y-104879981D01*
X130758835Y-104879981D02*
X130911216Y-104879981D01*
X130911216Y-104879981D02*
X130987406Y-104918077D01*
X130644549Y-105375220D02*
X130720740Y-105413315D01*
X130720740Y-105413315D02*
X130911216Y-105413315D01*
X130911216Y-105413315D02*
X130987406Y-105375220D01*
X130987406Y-105375220D02*
X131025502Y-105299029D01*
X131025502Y-105299029D02*
X131025502Y-105222839D01*
X131025502Y-105222839D02*
X130987406Y-105146648D01*
X130987406Y-105146648D02*
X130911216Y-105108553D01*
X130911216Y-105108553D02*
X130720740Y-105108553D01*
X130720740Y-105108553D02*
X130644549Y-105070458D01*
X130263596Y-104879981D02*
X130263596Y-105679981D01*
X130263596Y-104918077D02*
X130187406Y-104879981D01*
X130187406Y-104879981D02*
X130035025Y-104879981D01*
X130035025Y-104879981D02*
X129958834Y-104918077D01*
X129958834Y-104918077D02*
X129920739Y-104956172D01*
X129920739Y-104956172D02*
X129882644Y-105032362D01*
X129882644Y-105032362D02*
X129882644Y-105260934D01*
X129882644Y-105260934D02*
X129920739Y-105337124D01*
X129920739Y-105337124D02*
X129958834Y-105375220D01*
X129958834Y-105375220D02*
X130035025Y-105413315D01*
X130035025Y-105413315D02*
X130187406Y-105413315D01*
X130187406Y-105413315D02*
X130263596Y-105375220D01*
X132701692Y-107189225D02*
X132435025Y-107989225D01*
X132435025Y-107989225D02*
X132168359Y-107189225D01*
X131901692Y-107455891D02*
X131901692Y-108255891D01*
X131901692Y-107493987D02*
X131825502Y-107455891D01*
X131825502Y-107455891D02*
X131673121Y-107455891D01*
X131673121Y-107455891D02*
X131596930Y-107493987D01*
X131596930Y-107493987D02*
X131558835Y-107532082D01*
X131558835Y-107532082D02*
X131520740Y-107608272D01*
X131520740Y-107608272D02*
X131520740Y-107836844D01*
X131520740Y-107836844D02*
X131558835Y-107913034D01*
X131558835Y-107913034D02*
X131596930Y-107951130D01*
X131596930Y-107951130D02*
X131673121Y-107989225D01*
X131673121Y-107989225D02*
X131825502Y-107989225D01*
X131825502Y-107989225D02*
X131901692Y-107951130D01*
X131292168Y-107455891D02*
X130987406Y-107455891D01*
X131177882Y-107189225D02*
X131177882Y-107874939D01*
X131177882Y-107874939D02*
X131139787Y-107951130D01*
X131139787Y-107951130D02*
X131063597Y-107989225D01*
X131063597Y-107989225D02*
X130987406Y-107989225D01*
X130377882Y-107989225D02*
X130377882Y-107570177D01*
X130377882Y-107570177D02*
X130415977Y-107493987D01*
X130415977Y-107493987D02*
X130492168Y-107455891D01*
X130492168Y-107455891D02*
X130644549Y-107455891D01*
X130644549Y-107455891D02*
X130720739Y-107493987D01*
X130377882Y-107951130D02*
X130454073Y-107989225D01*
X130454073Y-107989225D02*
X130644549Y-107989225D01*
X130644549Y-107989225D02*
X130720739Y-107951130D01*
X130720739Y-107951130D02*
X130758835Y-107874939D01*
X130758835Y-107874939D02*
X130758835Y-107798749D01*
X130758835Y-107798749D02*
X130720739Y-107722558D01*
X130720739Y-107722558D02*
X130644549Y-107684463D01*
X130644549Y-107684463D02*
X130454073Y-107684463D01*
X130454073Y-107684463D02*
X130377882Y-107646368D01*
X130111215Y-107455891D02*
X129806453Y-107455891D01*
X129996929Y-107189225D02*
X129996929Y-107874939D01*
X129996929Y-107874939D02*
X129958834Y-107951130D01*
X129958834Y-107951130D02*
X129882644Y-107989225D01*
X129882644Y-107989225D02*
X129806453Y-107989225D01*
X131368359Y-109803230D02*
X131444549Y-109765135D01*
X131444549Y-109765135D02*
X131558835Y-109765135D01*
X131558835Y-109765135D02*
X131673121Y-109803230D01*
X131673121Y-109803230D02*
X131749311Y-109879420D01*
X131749311Y-109879420D02*
X131787406Y-109955611D01*
X131787406Y-109955611D02*
X131825502Y-110107992D01*
X131825502Y-110107992D02*
X131825502Y-110222278D01*
X131825502Y-110222278D02*
X131787406Y-110374659D01*
X131787406Y-110374659D02*
X131749311Y-110450849D01*
X131749311Y-110450849D02*
X131673121Y-110527040D01*
X131673121Y-110527040D02*
X131558835Y-110565135D01*
X131558835Y-110565135D02*
X131482644Y-110565135D01*
X131482644Y-110565135D02*
X131368359Y-110527040D01*
X131368359Y-110527040D02*
X131330263Y-110488944D01*
X131330263Y-110488944D02*
X131330263Y-110222278D01*
X131330263Y-110222278D02*
X131482644Y-110222278D01*
X130987406Y-110031801D02*
X130987406Y-110565135D01*
X130987406Y-110107992D02*
X130949311Y-110069897D01*
X130949311Y-110069897D02*
X130873121Y-110031801D01*
X130873121Y-110031801D02*
X130758835Y-110031801D01*
X130758835Y-110031801D02*
X130682644Y-110069897D01*
X130682644Y-110069897D02*
X130644549Y-110146087D01*
X130644549Y-110146087D02*
X130644549Y-110565135D01*
X129920739Y-110565135D02*
X129920739Y-109765135D01*
X129920739Y-110527040D02*
X129996930Y-110565135D01*
X129996930Y-110565135D02*
X130149311Y-110565135D01*
X130149311Y-110565135D02*
X130225501Y-110527040D01*
X130225501Y-110527040D02*
X130263596Y-110488944D01*
X130263596Y-110488944D02*
X130301692Y-110412754D01*
X130301692Y-110412754D02*
X130301692Y-110184182D01*
X130301692Y-110184182D02*
X130263596Y-110107992D01*
X130263596Y-110107992D02*
X130225501Y-110069897D01*
X130225501Y-110069897D02*
X130149311Y-110031801D01*
X130149311Y-110031801D02*
X129996930Y-110031801D01*
X129996930Y-110031801D02*
X129920739Y-110069897D01*
X133425500Y-113141045D02*
X133425500Y-112341045D01*
X133425500Y-112341045D02*
X133120738Y-112341045D01*
X133120738Y-112341045D02*
X133044548Y-112379140D01*
X133044548Y-112379140D02*
X133006453Y-112417235D01*
X133006453Y-112417235D02*
X132968357Y-112493426D01*
X132968357Y-112493426D02*
X132968357Y-112607711D01*
X132968357Y-112607711D02*
X133006453Y-112683902D01*
X133006453Y-112683902D02*
X133044548Y-112721997D01*
X133044548Y-112721997D02*
X133120738Y-112760092D01*
X133120738Y-112760092D02*
X133425500Y-112760092D01*
X132701691Y-112607711D02*
X132549310Y-113141045D01*
X132549310Y-113141045D02*
X132396929Y-112760092D01*
X132396929Y-112760092D02*
X132244548Y-113141045D01*
X132244548Y-113141045D02*
X132092167Y-112607711D01*
X131787405Y-113141045D02*
X131787405Y-112607711D01*
X131787405Y-112683902D02*
X131749310Y-112645807D01*
X131749310Y-112645807D02*
X131673120Y-112607711D01*
X131673120Y-112607711D02*
X131558834Y-112607711D01*
X131558834Y-112607711D02*
X131482643Y-112645807D01*
X131482643Y-112645807D02*
X131444548Y-112721997D01*
X131444548Y-112721997D02*
X131444548Y-113141045D01*
X131444548Y-112721997D02*
X131406453Y-112645807D01*
X131406453Y-112645807D02*
X131330262Y-112607711D01*
X131330262Y-112607711D02*
X131215977Y-112607711D01*
X131215977Y-112607711D02*
X131139786Y-112645807D01*
X131139786Y-112645807D02*
X131101691Y-112721997D01*
X131101691Y-112721997D02*
X131101691Y-113141045D01*
X130720738Y-113141045D02*
X130720738Y-112341045D01*
X129882643Y-113141045D02*
X130149310Y-112760092D01*
X130339786Y-113141045D02*
X130339786Y-112341045D01*
X130339786Y-112341045D02*
X130035024Y-112341045D01*
X130035024Y-112341045D02*
X129958834Y-112379140D01*
X129958834Y-112379140D02*
X129920739Y-112417235D01*
X129920739Y-112417235D02*
X129882643Y-112493426D01*
X129882643Y-112493426D02*
X129882643Y-112607711D01*
X129882643Y-112607711D02*
X129920739Y-112683902D01*
X129920739Y-112683902D02*
X129958834Y-112721997D01*
X129958834Y-112721997D02*
X130035024Y-112760092D01*
X130035024Y-112760092D02*
X130339786Y-112760092D01*
X134454072Y-115716955D02*
X134454072Y-114916955D01*
X134454072Y-114916955D02*
X134149310Y-114916955D01*
X134149310Y-114916955D02*
X134073120Y-114955050D01*
X134073120Y-114955050D02*
X134035025Y-114993145D01*
X134035025Y-114993145D02*
X133996929Y-115069336D01*
X133996929Y-115069336D02*
X133996929Y-115183621D01*
X133996929Y-115183621D02*
X134035025Y-115259812D01*
X134035025Y-115259812D02*
X134073120Y-115297907D01*
X134073120Y-115297907D02*
X134149310Y-115336002D01*
X134149310Y-115336002D02*
X134454072Y-115336002D01*
X133730263Y-115183621D02*
X133577882Y-115716955D01*
X133577882Y-115716955D02*
X133425501Y-115336002D01*
X133425501Y-115336002D02*
X133273120Y-115716955D01*
X133273120Y-115716955D02*
X133120739Y-115183621D01*
X132815977Y-115716955D02*
X132815977Y-115183621D01*
X132815977Y-115259812D02*
X132777882Y-115221717D01*
X132777882Y-115221717D02*
X132701692Y-115183621D01*
X132701692Y-115183621D02*
X132587406Y-115183621D01*
X132587406Y-115183621D02*
X132511215Y-115221717D01*
X132511215Y-115221717D02*
X132473120Y-115297907D01*
X132473120Y-115297907D02*
X132473120Y-115716955D01*
X132473120Y-115297907D02*
X132435025Y-115221717D01*
X132435025Y-115221717D02*
X132358834Y-115183621D01*
X132358834Y-115183621D02*
X132244549Y-115183621D01*
X132244549Y-115183621D02*
X132168358Y-115221717D01*
X132168358Y-115221717D02*
X132130263Y-115297907D01*
X132130263Y-115297907D02*
X132130263Y-115716955D01*
X131292167Y-115716955D02*
X131558834Y-115336002D01*
X131749310Y-115716955D02*
X131749310Y-114916955D01*
X131749310Y-114916955D02*
X131444548Y-114916955D01*
X131444548Y-114916955D02*
X131368358Y-114955050D01*
X131368358Y-114955050D02*
X131330263Y-114993145D01*
X131330263Y-114993145D02*
X131292167Y-115069336D01*
X131292167Y-115069336D02*
X131292167Y-115183621D01*
X131292167Y-115183621D02*
X131330263Y-115259812D01*
X131330263Y-115259812D02*
X131368358Y-115297907D01*
X131368358Y-115297907D02*
X131444548Y-115336002D01*
X131444548Y-115336002D02*
X131749310Y-115336002D01*
X130644548Y-115678860D02*
X130720739Y-115716955D01*
X130720739Y-115716955D02*
X130873120Y-115716955D01*
X130873120Y-115716955D02*
X130949310Y-115678860D01*
X130949310Y-115678860D02*
X130987406Y-115602669D01*
X130987406Y-115602669D02*
X130987406Y-115297907D01*
X130987406Y-115297907D02*
X130949310Y-115221717D01*
X130949310Y-115221717D02*
X130873120Y-115183621D01*
X130873120Y-115183621D02*
X130720739Y-115183621D01*
X130720739Y-115183621D02*
X130644548Y-115221717D01*
X130644548Y-115221717D02*
X130606453Y-115297907D01*
X130606453Y-115297907D02*
X130606453Y-115374098D01*
X130606453Y-115374098D02*
X130987406Y-115450288D01*
X129920739Y-115716955D02*
X129920739Y-114916955D01*
X129920739Y-115678860D02*
X129996930Y-115716955D01*
X129996930Y-115716955D02*
X130149311Y-115716955D01*
X130149311Y-115716955D02*
X130225501Y-115678860D01*
X130225501Y-115678860D02*
X130263596Y-115640764D01*
X130263596Y-115640764D02*
X130301692Y-115564574D01*
X130301692Y-115564574D02*
X130301692Y-115336002D01*
X130301692Y-115336002D02*
X130263596Y-115259812D01*
X130263596Y-115259812D02*
X130225501Y-115221717D01*
X130225501Y-115221717D02*
X130149311Y-115183621D01*
X130149311Y-115183621D02*
X129996930Y-115183621D01*
X129996930Y-115183621D02*
X129920739Y-115221717D01*
X130606453Y-117492865D02*
X130987405Y-117492865D01*
X130987405Y-117492865D02*
X131025501Y-117873817D01*
X131025501Y-117873817D02*
X130987405Y-117835722D01*
X130987405Y-117835722D02*
X130911215Y-117797627D01*
X130911215Y-117797627D02*
X130720739Y-117797627D01*
X130720739Y-117797627D02*
X130644548Y-117835722D01*
X130644548Y-117835722D02*
X130606453Y-117873817D01*
X130606453Y-117873817D02*
X130568358Y-117950008D01*
X130568358Y-117950008D02*
X130568358Y-118140484D01*
X130568358Y-118140484D02*
X130606453Y-118216674D01*
X130606453Y-118216674D02*
X130644548Y-118254770D01*
X130644548Y-118254770D02*
X130720739Y-118292865D01*
X130720739Y-118292865D02*
X130911215Y-118292865D01*
X130911215Y-118292865D02*
X130987405Y-118254770D01*
X130987405Y-118254770D02*
X131025501Y-118216674D01*
X130339786Y-117492865D02*
X130073119Y-118292865D01*
X130073119Y-118292865D02*
X129806453Y-117492865D01*
X131749311Y-120068775D02*
X131254073Y-120068775D01*
X131254073Y-120068775D02*
X131520739Y-120373537D01*
X131520739Y-120373537D02*
X131406454Y-120373537D01*
X131406454Y-120373537D02*
X131330263Y-120411632D01*
X131330263Y-120411632D02*
X131292168Y-120449727D01*
X131292168Y-120449727D02*
X131254073Y-120525918D01*
X131254073Y-120525918D02*
X131254073Y-120716394D01*
X131254073Y-120716394D02*
X131292168Y-120792584D01*
X131292168Y-120792584D02*
X131330263Y-120830680D01*
X131330263Y-120830680D02*
X131406454Y-120868775D01*
X131406454Y-120868775D02*
X131635025Y-120868775D01*
X131635025Y-120868775D02*
X131711216Y-120830680D01*
X131711216Y-120830680D02*
X131749311Y-120792584D01*
X130987406Y-120335441D02*
X130796930Y-120868775D01*
X130796930Y-120868775D02*
X130606453Y-120335441D01*
X130377882Y-120068775D02*
X129882644Y-120068775D01*
X129882644Y-120068775D02*
X130149310Y-120373537D01*
X130149310Y-120373537D02*
X130035025Y-120373537D01*
X130035025Y-120373537D02*
X129958834Y-120411632D01*
X129958834Y-120411632D02*
X129920739Y-120449727D01*
X129920739Y-120449727D02*
X129882644Y-120525918D01*
X129882644Y-120525918D02*
X129882644Y-120716394D01*
X129882644Y-120716394D02*
X129920739Y-120792584D01*
X129920739Y-120792584D02*
X129958834Y-120830680D01*
X129958834Y-120830680D02*
X130035025Y-120868775D01*
X130035025Y-120868775D02*
X130263596Y-120868775D01*
X130263596Y-120868775D02*
X130339787Y-120830680D01*
X130339787Y-120830680D02*
X130377882Y-120792584D01*
D11*
X157383332Y-99862295D02*
X157649999Y-99481342D01*
X157840475Y-99862295D02*
X157840475Y-99062295D01*
X157840475Y-99062295D02*
X157535713Y-99062295D01*
X157535713Y-99062295D02*
X157459523Y-99100390D01*
X157459523Y-99100390D02*
X157421428Y-99138485D01*
X157421428Y-99138485D02*
X157383332Y-99214676D01*
X157383332Y-99214676D02*
X157383332Y-99328961D01*
X157383332Y-99328961D02*
X157421428Y-99405152D01*
X157421428Y-99405152D02*
X157459523Y-99443247D01*
X157459523Y-99443247D02*
X157535713Y-99481342D01*
X157535713Y-99481342D02*
X157840475Y-99481342D01*
X157002380Y-99862295D02*
X156849999Y-99862295D01*
X156849999Y-99862295D02*
X156773809Y-99824200D01*
X156773809Y-99824200D02*
X156735713Y-99786104D01*
X156735713Y-99786104D02*
X156659523Y-99671819D01*
X156659523Y-99671819D02*
X156621428Y-99519438D01*
X156621428Y-99519438D02*
X156621428Y-99214676D01*
X156621428Y-99214676D02*
X156659523Y-99138485D01*
X156659523Y-99138485D02*
X156697618Y-99100390D01*
X156697618Y-99100390D02*
X156773809Y-99062295D01*
X156773809Y-99062295D02*
X156926190Y-99062295D01*
X156926190Y-99062295D02*
X157002380Y-99100390D01*
X157002380Y-99100390D02*
X157040475Y-99138485D01*
X157040475Y-99138485D02*
X157078571Y-99214676D01*
X157078571Y-99214676D02*
X157078571Y-99405152D01*
X157078571Y-99405152D02*
X157040475Y-99481342D01*
X157040475Y-99481342D02*
X157002380Y-99519438D01*
X157002380Y-99519438D02*
X156926190Y-99557533D01*
X156926190Y-99557533D02*
X156773809Y-99557533D01*
X156773809Y-99557533D02*
X156697618Y-99519438D01*
X156697618Y-99519438D02*
X156659523Y-99481342D01*
X156659523Y-99481342D02*
X156621428Y-99405152D01*
X147833332Y-94987295D02*
X148099999Y-94606342D01*
X148290475Y-94987295D02*
X148290475Y-94187295D01*
X148290475Y-94187295D02*
X147985713Y-94187295D01*
X147985713Y-94187295D02*
X147909523Y-94225390D01*
X147909523Y-94225390D02*
X147871428Y-94263485D01*
X147871428Y-94263485D02*
X147833332Y-94339676D01*
X147833332Y-94339676D02*
X147833332Y-94453961D01*
X147833332Y-94453961D02*
X147871428Y-94530152D01*
X147871428Y-94530152D02*
X147909523Y-94568247D01*
X147909523Y-94568247D02*
X147985713Y-94606342D01*
X147985713Y-94606342D02*
X148290475Y-94606342D01*
X147109523Y-94187295D02*
X147490475Y-94187295D01*
X147490475Y-94187295D02*
X147528571Y-94568247D01*
X147528571Y-94568247D02*
X147490475Y-94530152D01*
X147490475Y-94530152D02*
X147414285Y-94492057D01*
X147414285Y-94492057D02*
X147223809Y-94492057D01*
X147223809Y-94492057D02*
X147147618Y-94530152D01*
X147147618Y-94530152D02*
X147109523Y-94568247D01*
X147109523Y-94568247D02*
X147071428Y-94644438D01*
X147071428Y-94644438D02*
X147071428Y-94834914D01*
X147071428Y-94834914D02*
X147109523Y-94911104D01*
X147109523Y-94911104D02*
X147147618Y-94949200D01*
X147147618Y-94949200D02*
X147223809Y-94987295D01*
X147223809Y-94987295D02*
X147414285Y-94987295D01*
X147414285Y-94987295D02*
X147490475Y-94949200D01*
X147490475Y-94949200D02*
X147528571Y-94911104D01*
X146845238Y-79915895D02*
X147226190Y-79915895D01*
X147226190Y-79915895D02*
X147226190Y-79115895D01*
X146578571Y-79496847D02*
X146311905Y-79496847D01*
X146197619Y-79915895D02*
X146578571Y-79915895D01*
X146578571Y-79915895D02*
X146578571Y-79115895D01*
X146578571Y-79115895D02*
X146197619Y-79115895D01*
X145854761Y-79915895D02*
X145854761Y-79115895D01*
X145854761Y-79115895D02*
X145664285Y-79115895D01*
X145664285Y-79115895D02*
X145549999Y-79153990D01*
X145549999Y-79153990D02*
X145473809Y-79230180D01*
X145473809Y-79230180D02*
X145435714Y-79306371D01*
X145435714Y-79306371D02*
X145397618Y-79458752D01*
X145397618Y-79458752D02*
X145397618Y-79573038D01*
X145397618Y-79573038D02*
X145435714Y-79725419D01*
X145435714Y-79725419D02*
X145473809Y-79801609D01*
X145473809Y-79801609D02*
X145549999Y-79877800D01*
X145549999Y-79877800D02*
X145664285Y-79915895D01*
X145664285Y-79915895D02*
X145854761Y-79915895D01*
X144635714Y-79915895D02*
X145092857Y-79915895D01*
X144864285Y-79915895D02*
X144864285Y-79115895D01*
X144864285Y-79115895D02*
X144940476Y-79230180D01*
X144940476Y-79230180D02*
X145016666Y-79306371D01*
X145016666Y-79306371D02*
X145092857Y-79344466D01*
X152383332Y-90589288D02*
X152649999Y-90208335D01*
X152840475Y-90589288D02*
X152840475Y-89789288D01*
X152840475Y-89789288D02*
X152535713Y-89789288D01*
X152535713Y-89789288D02*
X152459523Y-89827383D01*
X152459523Y-89827383D02*
X152421428Y-89865478D01*
X152421428Y-89865478D02*
X152383332Y-89941669D01*
X152383332Y-89941669D02*
X152383332Y-90055954D01*
X152383332Y-90055954D02*
X152421428Y-90132145D01*
X152421428Y-90132145D02*
X152459523Y-90170240D01*
X152459523Y-90170240D02*
X152535713Y-90208335D01*
X152535713Y-90208335D02*
X152840475Y-90208335D01*
X151697618Y-90055954D02*
X151697618Y-90589288D01*
X151888094Y-89751193D02*
X152078571Y-90322621D01*
X152078571Y-90322621D02*
X151583332Y-90322621D01*
X157464285Y-95237295D02*
X157730952Y-94856342D01*
X157921428Y-95237295D02*
X157921428Y-94437295D01*
X157921428Y-94437295D02*
X157616666Y-94437295D01*
X157616666Y-94437295D02*
X157540476Y-94475390D01*
X157540476Y-94475390D02*
X157502381Y-94513485D01*
X157502381Y-94513485D02*
X157464285Y-94589676D01*
X157464285Y-94589676D02*
X157464285Y-94703961D01*
X157464285Y-94703961D02*
X157502381Y-94780152D01*
X157502381Y-94780152D02*
X157540476Y-94818247D01*
X157540476Y-94818247D02*
X157616666Y-94856342D01*
X157616666Y-94856342D02*
X157921428Y-94856342D01*
X156702381Y-95237295D02*
X157159524Y-95237295D01*
X156930952Y-95237295D02*
X156930952Y-94437295D01*
X156930952Y-94437295D02*
X157007143Y-94551580D01*
X157007143Y-94551580D02*
X157083333Y-94627771D01*
X157083333Y-94627771D02*
X157159524Y-94665866D01*
X156435714Y-94437295D02*
X155902380Y-94437295D01*
X155902380Y-94437295D02*
X156245238Y-95237295D01*
X154907182Y-99655402D02*
X155173849Y-99274449D01*
X155364325Y-99655402D02*
X155364325Y-98855402D01*
X155364325Y-98855402D02*
X155059563Y-98855402D01*
X155059563Y-98855402D02*
X154983373Y-98893497D01*
X154983373Y-98893497D02*
X154945278Y-98931592D01*
X154945278Y-98931592D02*
X154907182Y-99007783D01*
X154907182Y-99007783D02*
X154907182Y-99122068D01*
X154907182Y-99122068D02*
X154945278Y-99198259D01*
X154945278Y-99198259D02*
X154983373Y-99236354D01*
X154983373Y-99236354D02*
X155059563Y-99274449D01*
X155059563Y-99274449D02*
X155364325Y-99274449D01*
X154450040Y-99198259D02*
X154526230Y-99160164D01*
X154526230Y-99160164D02*
X154564325Y-99122068D01*
X154564325Y-99122068D02*
X154602421Y-99045878D01*
X154602421Y-99045878D02*
X154602421Y-99007783D01*
X154602421Y-99007783D02*
X154564325Y-98931592D01*
X154564325Y-98931592D02*
X154526230Y-98893497D01*
X154526230Y-98893497D02*
X154450040Y-98855402D01*
X154450040Y-98855402D02*
X154297659Y-98855402D01*
X154297659Y-98855402D02*
X154221468Y-98893497D01*
X154221468Y-98893497D02*
X154183373Y-98931592D01*
X154183373Y-98931592D02*
X154145278Y-99007783D01*
X154145278Y-99007783D02*
X154145278Y-99045878D01*
X154145278Y-99045878D02*
X154183373Y-99122068D01*
X154183373Y-99122068D02*
X154221468Y-99160164D01*
X154221468Y-99160164D02*
X154297659Y-99198259D01*
X154297659Y-99198259D02*
X154450040Y-99198259D01*
X154450040Y-99198259D02*
X154526230Y-99236354D01*
X154526230Y-99236354D02*
X154564325Y-99274449D01*
X154564325Y-99274449D02*
X154602421Y-99350640D01*
X154602421Y-99350640D02*
X154602421Y-99503021D01*
X154602421Y-99503021D02*
X154564325Y-99579211D01*
X154564325Y-99579211D02*
X154526230Y-99617307D01*
X154526230Y-99617307D02*
X154450040Y-99655402D01*
X154450040Y-99655402D02*
X154297659Y-99655402D01*
X154297659Y-99655402D02*
X154221468Y-99617307D01*
X154221468Y-99617307D02*
X154183373Y-99579211D01*
X154183373Y-99579211D02*
X154145278Y-99503021D01*
X154145278Y-99503021D02*
X154145278Y-99350640D01*
X154145278Y-99350640D02*
X154183373Y-99274449D01*
X154183373Y-99274449D02*
X154221468Y-99236354D01*
X154221468Y-99236354D02*
X154297659Y-99198259D01*
X136899428Y-120075485D02*
X136699428Y-120075485D01*
X136613714Y-120389771D02*
X136899428Y-120389771D01*
X136899428Y-120389771D02*
X136899428Y-119789771D01*
X136899428Y-119789771D02*
X136613714Y-119789771D01*
X136385143Y-120361200D02*
X136299429Y-120389771D01*
X136299429Y-120389771D02*
X136156571Y-120389771D01*
X136156571Y-120389771D02*
X136099429Y-120361200D01*
X136099429Y-120361200D02*
X136070857Y-120332628D01*
X136070857Y-120332628D02*
X136042286Y-120275485D01*
X136042286Y-120275485D02*
X136042286Y-120218342D01*
X136042286Y-120218342D02*
X136070857Y-120161200D01*
X136070857Y-120161200D02*
X136099429Y-120132628D01*
X136099429Y-120132628D02*
X136156571Y-120104057D01*
X136156571Y-120104057D02*
X136270857Y-120075485D01*
X136270857Y-120075485D02*
X136328000Y-120046914D01*
X136328000Y-120046914D02*
X136356571Y-120018342D01*
X136356571Y-120018342D02*
X136385143Y-119961200D01*
X136385143Y-119961200D02*
X136385143Y-119904057D01*
X136385143Y-119904057D02*
X136356571Y-119846914D01*
X136356571Y-119846914D02*
X136328000Y-119818342D01*
X136328000Y-119818342D02*
X136270857Y-119789771D01*
X136270857Y-119789771D02*
X136128000Y-119789771D01*
X136128000Y-119789771D02*
X136042286Y-119818342D01*
X135785142Y-120389771D02*
X135785142Y-119789771D01*
X135785142Y-119789771D02*
X135556571Y-119789771D01*
X135556571Y-119789771D02*
X135499428Y-119818342D01*
X135499428Y-119818342D02*
X135470857Y-119846914D01*
X135470857Y-119846914D02*
X135442285Y-119904057D01*
X135442285Y-119904057D02*
X135442285Y-119989771D01*
X135442285Y-119989771D02*
X135470857Y-120046914D01*
X135470857Y-120046914D02*
X135499428Y-120075485D01*
X135499428Y-120075485D02*
X135556571Y-120104057D01*
X135556571Y-120104057D02*
X135785142Y-120104057D01*
X135328000Y-120446914D02*
X134870857Y-120446914D01*
X134785142Y-119789771D02*
X134413714Y-119789771D01*
X134413714Y-119789771D02*
X134613714Y-120018342D01*
X134613714Y-120018342D02*
X134527999Y-120018342D01*
X134527999Y-120018342D02*
X134470857Y-120046914D01*
X134470857Y-120046914D02*
X134442285Y-120075485D01*
X134442285Y-120075485D02*
X134413714Y-120132628D01*
X134413714Y-120132628D02*
X134413714Y-120275485D01*
X134413714Y-120275485D02*
X134442285Y-120332628D01*
X134442285Y-120332628D02*
X134470857Y-120361200D01*
X134470857Y-120361200D02*
X134527999Y-120389771D01*
X134527999Y-120389771D02*
X134699428Y-120389771D01*
X134699428Y-120389771D02*
X134756571Y-120361200D01*
X134756571Y-120361200D02*
X134785142Y-120332628D01*
X134242285Y-119789771D02*
X134042285Y-120389771D01*
X134042285Y-120389771D02*
X133842285Y-119789771D01*
X133699427Y-119789771D02*
X133327999Y-119789771D01*
X133327999Y-119789771D02*
X133527999Y-120018342D01*
X133527999Y-120018342D02*
X133442284Y-120018342D01*
X133442284Y-120018342D02*
X133385142Y-120046914D01*
X133385142Y-120046914D02*
X133356570Y-120075485D01*
X133356570Y-120075485D02*
X133327999Y-120132628D01*
X133327999Y-120132628D02*
X133327999Y-120275485D01*
X133327999Y-120275485D02*
X133356570Y-120332628D01*
X133356570Y-120332628D02*
X133385142Y-120361200D01*
X133385142Y-120361200D02*
X133442284Y-120389771D01*
X133442284Y-120389771D02*
X133613713Y-120389771D01*
X133613713Y-120389771D02*
X133670856Y-120361200D01*
X133670856Y-120361200D02*
X133699427Y-120332628D01*
X150496625Y-113028960D02*
X150210911Y-112828960D01*
X150496625Y-112686103D02*
X149896625Y-112686103D01*
X149896625Y-112686103D02*
X149896625Y-112914674D01*
X149896625Y-112914674D02*
X149925196Y-112971817D01*
X149925196Y-112971817D02*
X149953768Y-113000388D01*
X149953768Y-113000388D02*
X150010911Y-113028960D01*
X150010911Y-113028960D02*
X150096625Y-113028960D01*
X150096625Y-113028960D02*
X150153768Y-113000388D01*
X150153768Y-113000388D02*
X150182339Y-112971817D01*
X150182339Y-112971817D02*
X150210911Y-112914674D01*
X150210911Y-112914674D02*
X150210911Y-112686103D01*
X150496625Y-113600388D02*
X150496625Y-113257531D01*
X150496625Y-113428960D02*
X149896625Y-113428960D01*
X149896625Y-113428960D02*
X149982339Y-113371817D01*
X149982339Y-113371817D02*
X150039482Y-113314674D01*
X150039482Y-113314674D02*
X150068054Y-113257531D01*
X150153768Y-113943246D02*
X150125196Y-113886103D01*
X150125196Y-113886103D02*
X150096625Y-113857532D01*
X150096625Y-113857532D02*
X150039482Y-113828960D01*
X150039482Y-113828960D02*
X150010911Y-113828960D01*
X150010911Y-113828960D02*
X149953768Y-113857532D01*
X149953768Y-113857532D02*
X149925196Y-113886103D01*
X149925196Y-113886103D02*
X149896625Y-113943246D01*
X149896625Y-113943246D02*
X149896625Y-114057532D01*
X149896625Y-114057532D02*
X149925196Y-114114675D01*
X149925196Y-114114675D02*
X149953768Y-114143246D01*
X149953768Y-114143246D02*
X150010911Y-114171817D01*
X150010911Y-114171817D02*
X150039482Y-114171817D01*
X150039482Y-114171817D02*
X150096625Y-114143246D01*
X150096625Y-114143246D02*
X150125196Y-114114675D01*
X150125196Y-114114675D02*
X150153768Y-114057532D01*
X150153768Y-114057532D02*
X150153768Y-113943246D01*
X150153768Y-113943246D02*
X150182339Y-113886103D01*
X150182339Y-113886103D02*
X150210911Y-113857532D01*
X150210911Y-113857532D02*
X150268054Y-113828960D01*
X150268054Y-113828960D02*
X150382339Y-113828960D01*
X150382339Y-113828960D02*
X150439482Y-113857532D01*
X150439482Y-113857532D02*
X150468054Y-113886103D01*
X150468054Y-113886103D02*
X150496625Y-113943246D01*
X150496625Y-113943246D02*
X150496625Y-114057532D01*
X150496625Y-114057532D02*
X150468054Y-114114675D01*
X150468054Y-114114675D02*
X150439482Y-114143246D01*
X150439482Y-114143246D02*
X150382339Y-114171817D01*
X150382339Y-114171817D02*
X150268054Y-114171817D01*
X150268054Y-114171817D02*
X150210911Y-114143246D01*
X150210911Y-114143246D02*
X150182339Y-114114675D01*
X150182339Y-114114675D02*
X150153768Y-114057532D01*
X156183332Y-82236104D02*
X156221428Y-82274200D01*
X156221428Y-82274200D02*
X156335713Y-82312295D01*
X156335713Y-82312295D02*
X156411904Y-82312295D01*
X156411904Y-82312295D02*
X156526190Y-82274200D01*
X156526190Y-82274200D02*
X156602380Y-82198009D01*
X156602380Y-82198009D02*
X156640475Y-82121819D01*
X156640475Y-82121819D02*
X156678571Y-81969438D01*
X156678571Y-81969438D02*
X156678571Y-81855152D01*
X156678571Y-81855152D02*
X156640475Y-81702771D01*
X156640475Y-81702771D02*
X156602380Y-81626580D01*
X156602380Y-81626580D02*
X156526190Y-81550390D01*
X156526190Y-81550390D02*
X156411904Y-81512295D01*
X156411904Y-81512295D02*
X156335713Y-81512295D01*
X156335713Y-81512295D02*
X156221428Y-81550390D01*
X156221428Y-81550390D02*
X156183332Y-81588485D01*
X155916666Y-81512295D02*
X155421428Y-81512295D01*
X155421428Y-81512295D02*
X155688094Y-81817057D01*
X155688094Y-81817057D02*
X155573809Y-81817057D01*
X155573809Y-81817057D02*
X155497618Y-81855152D01*
X155497618Y-81855152D02*
X155459523Y-81893247D01*
X155459523Y-81893247D02*
X155421428Y-81969438D01*
X155421428Y-81969438D02*
X155421428Y-82159914D01*
X155421428Y-82159914D02*
X155459523Y-82236104D01*
X155459523Y-82236104D02*
X155497618Y-82274200D01*
X155497618Y-82274200D02*
X155573809Y-82312295D01*
X155573809Y-82312295D02*
X155802380Y-82312295D01*
X155802380Y-82312295D02*
X155878571Y-82274200D01*
X155878571Y-82274200D02*
X155916666Y-82236104D01*
X141814285Y-99362295D02*
X142080952Y-98981342D01*
X142271428Y-99362295D02*
X142271428Y-98562295D01*
X142271428Y-98562295D02*
X141966666Y-98562295D01*
X141966666Y-98562295D02*
X141890476Y-98600390D01*
X141890476Y-98600390D02*
X141852381Y-98638485D01*
X141852381Y-98638485D02*
X141814285Y-98714676D01*
X141814285Y-98714676D02*
X141814285Y-98828961D01*
X141814285Y-98828961D02*
X141852381Y-98905152D01*
X141852381Y-98905152D02*
X141890476Y-98943247D01*
X141890476Y-98943247D02*
X141966666Y-98981342D01*
X141966666Y-98981342D02*
X142271428Y-98981342D01*
X141052381Y-99362295D02*
X141509524Y-99362295D01*
X141280952Y-99362295D02*
X141280952Y-98562295D01*
X141280952Y-98562295D02*
X141357143Y-98676580D01*
X141357143Y-98676580D02*
X141433333Y-98752771D01*
X141433333Y-98752771D02*
X141509524Y-98790866D01*
X140557142Y-98562295D02*
X140480952Y-98562295D01*
X140480952Y-98562295D02*
X140404761Y-98600390D01*
X140404761Y-98600390D02*
X140366666Y-98638485D01*
X140366666Y-98638485D02*
X140328571Y-98714676D01*
X140328571Y-98714676D02*
X140290476Y-98867057D01*
X140290476Y-98867057D02*
X140290476Y-99057533D01*
X140290476Y-99057533D02*
X140328571Y-99209914D01*
X140328571Y-99209914D02*
X140366666Y-99286104D01*
X140366666Y-99286104D02*
X140404761Y-99324200D01*
X140404761Y-99324200D02*
X140480952Y-99362295D01*
X140480952Y-99362295D02*
X140557142Y-99362295D01*
X140557142Y-99362295D02*
X140633333Y-99324200D01*
X140633333Y-99324200D02*
X140671428Y-99286104D01*
X140671428Y-99286104D02*
X140709523Y-99209914D01*
X140709523Y-99209914D02*
X140747619Y-99057533D01*
X140747619Y-99057533D02*
X140747619Y-98867057D01*
X140747619Y-98867057D02*
X140709523Y-98714676D01*
X140709523Y-98714676D02*
X140671428Y-98638485D01*
X140671428Y-98638485D02*
X140633333Y-98600390D01*
X140633333Y-98600390D02*
X140557142Y-98562295D01*
X159783332Y-95162295D02*
X160049999Y-94781342D01*
X160240475Y-95162295D02*
X160240475Y-94362295D01*
X160240475Y-94362295D02*
X159935713Y-94362295D01*
X159935713Y-94362295D02*
X159859523Y-94400390D01*
X159859523Y-94400390D02*
X159821428Y-94438485D01*
X159821428Y-94438485D02*
X159783332Y-94514676D01*
X159783332Y-94514676D02*
X159783332Y-94628961D01*
X159783332Y-94628961D02*
X159821428Y-94705152D01*
X159821428Y-94705152D02*
X159859523Y-94743247D01*
X159859523Y-94743247D02*
X159935713Y-94781342D01*
X159935713Y-94781342D02*
X160240475Y-94781342D01*
X159516666Y-94362295D02*
X159021428Y-94362295D01*
X159021428Y-94362295D02*
X159288094Y-94667057D01*
X159288094Y-94667057D02*
X159173809Y-94667057D01*
X159173809Y-94667057D02*
X159097618Y-94705152D01*
X159097618Y-94705152D02*
X159059523Y-94743247D01*
X159059523Y-94743247D02*
X159021428Y-94819438D01*
X159021428Y-94819438D02*
X159021428Y-95009914D01*
X159021428Y-95009914D02*
X159059523Y-95086104D01*
X159059523Y-95086104D02*
X159097618Y-95124200D01*
X159097618Y-95124200D02*
X159173809Y-95162295D01*
X159173809Y-95162295D02*
X159402380Y-95162295D01*
X159402380Y-95162295D02*
X159478571Y-95124200D01*
X159478571Y-95124200D02*
X159516666Y-95086104D01*
X141708332Y-92387295D02*
X141974999Y-92006342D01*
X142165475Y-92387295D02*
X142165475Y-91587295D01*
X142165475Y-91587295D02*
X141860713Y-91587295D01*
X141860713Y-91587295D02*
X141784523Y-91625390D01*
X141784523Y-91625390D02*
X141746428Y-91663485D01*
X141746428Y-91663485D02*
X141708332Y-91739676D01*
X141708332Y-91739676D02*
X141708332Y-91853961D01*
X141708332Y-91853961D02*
X141746428Y-91930152D01*
X141746428Y-91930152D02*
X141784523Y-91968247D01*
X141784523Y-91968247D02*
X141860713Y-92006342D01*
X141860713Y-92006342D02*
X142165475Y-92006342D01*
X141022618Y-91587295D02*
X141174999Y-91587295D01*
X141174999Y-91587295D02*
X141251190Y-91625390D01*
X141251190Y-91625390D02*
X141289285Y-91663485D01*
X141289285Y-91663485D02*
X141365475Y-91777771D01*
X141365475Y-91777771D02*
X141403571Y-91930152D01*
X141403571Y-91930152D02*
X141403571Y-92234914D01*
X141403571Y-92234914D02*
X141365475Y-92311104D01*
X141365475Y-92311104D02*
X141327380Y-92349200D01*
X141327380Y-92349200D02*
X141251190Y-92387295D01*
X141251190Y-92387295D02*
X141098809Y-92387295D01*
X141098809Y-92387295D02*
X141022618Y-92349200D01*
X141022618Y-92349200D02*
X140984523Y-92311104D01*
X140984523Y-92311104D02*
X140946428Y-92234914D01*
X140946428Y-92234914D02*
X140946428Y-92044438D01*
X140946428Y-92044438D02*
X140984523Y-91968247D01*
X140984523Y-91968247D02*
X141022618Y-91930152D01*
X141022618Y-91930152D02*
X141098809Y-91892057D01*
X141098809Y-91892057D02*
X141251190Y-91892057D01*
X141251190Y-91892057D02*
X141327380Y-91930152D01*
X141327380Y-91930152D02*
X141365475Y-91968247D01*
X141365475Y-91968247D02*
X141403571Y-92044438D01*
X150537295Y-95940476D02*
X151184914Y-95940476D01*
X151184914Y-95940476D02*
X151261104Y-95978571D01*
X151261104Y-95978571D02*
X151299200Y-96016666D01*
X151299200Y-96016666D02*
X151337295Y-96092857D01*
X151337295Y-96092857D02*
X151337295Y-96245238D01*
X151337295Y-96245238D02*
X151299200Y-96321428D01*
X151299200Y-96321428D02*
X151261104Y-96359523D01*
X151261104Y-96359523D02*
X151184914Y-96397619D01*
X151184914Y-96397619D02*
X150537295Y-96397619D01*
X150803961Y-97121428D02*
X151337295Y-97121428D01*
X150499200Y-96930952D02*
X151070628Y-96740475D01*
X151070628Y-96740475D02*
X151070628Y-97235714D01*
X152500499Y-94479812D02*
X152500499Y-94717907D01*
X152738594Y-94622669D02*
X152500499Y-94717907D01*
X152500499Y-94717907D02*
X152262404Y-94622669D01*
X152643356Y-94908383D02*
X152500499Y-94717907D01*
X152500499Y-94717907D02*
X152357642Y-94908383D01*
X130424143Y-100998200D02*
X130338429Y-101026771D01*
X130338429Y-101026771D02*
X130195571Y-101026771D01*
X130195571Y-101026771D02*
X130138429Y-100998200D01*
X130138429Y-100998200D02*
X130109857Y-100969628D01*
X130109857Y-100969628D02*
X130081286Y-100912485D01*
X130081286Y-100912485D02*
X130081286Y-100855342D01*
X130081286Y-100855342D02*
X130109857Y-100798200D01*
X130109857Y-100798200D02*
X130138429Y-100769628D01*
X130138429Y-100769628D02*
X130195571Y-100741057D01*
X130195571Y-100741057D02*
X130309857Y-100712485D01*
X130309857Y-100712485D02*
X130367000Y-100683914D01*
X130367000Y-100683914D02*
X130395571Y-100655342D01*
X130395571Y-100655342D02*
X130424143Y-100598200D01*
X130424143Y-100598200D02*
X130424143Y-100541057D01*
X130424143Y-100541057D02*
X130395571Y-100483914D01*
X130395571Y-100483914D02*
X130367000Y-100455342D01*
X130367000Y-100455342D02*
X130309857Y-100426771D01*
X130309857Y-100426771D02*
X130167000Y-100426771D01*
X130167000Y-100426771D02*
X130081286Y-100455342D01*
X129481285Y-101026771D02*
X129681285Y-100741057D01*
X129824142Y-101026771D02*
X129824142Y-100426771D01*
X129824142Y-100426771D02*
X129595571Y-100426771D01*
X129595571Y-100426771D02*
X129538428Y-100455342D01*
X129538428Y-100455342D02*
X129509857Y-100483914D01*
X129509857Y-100483914D02*
X129481285Y-100541057D01*
X129481285Y-100541057D02*
X129481285Y-100626771D01*
X129481285Y-100626771D02*
X129509857Y-100683914D01*
X129509857Y-100683914D02*
X129538428Y-100712485D01*
X129538428Y-100712485D02*
X129595571Y-100741057D01*
X129595571Y-100741057D02*
X129824142Y-100741057D01*
X129252714Y-100483914D02*
X129224142Y-100455342D01*
X129224142Y-100455342D02*
X129167000Y-100426771D01*
X129167000Y-100426771D02*
X129024142Y-100426771D01*
X129024142Y-100426771D02*
X128967000Y-100455342D01*
X128967000Y-100455342D02*
X128938428Y-100483914D01*
X128938428Y-100483914D02*
X128909857Y-100541057D01*
X128909857Y-100541057D02*
X128909857Y-100598200D01*
X128909857Y-100598200D02*
X128938428Y-100683914D01*
X128938428Y-100683914D02*
X129281285Y-101026771D01*
X129281285Y-101026771D02*
X128909857Y-101026771D01*
X151653771Y-116835285D02*
X151368057Y-116635285D01*
X151653771Y-116492428D02*
X151053771Y-116492428D01*
X151053771Y-116492428D02*
X151053771Y-116720999D01*
X151053771Y-116720999D02*
X151082342Y-116778142D01*
X151082342Y-116778142D02*
X151110914Y-116806713D01*
X151110914Y-116806713D02*
X151168057Y-116835285D01*
X151168057Y-116835285D02*
X151253771Y-116835285D01*
X151253771Y-116835285D02*
X151310914Y-116806713D01*
X151310914Y-116806713D02*
X151339485Y-116778142D01*
X151339485Y-116778142D02*
X151368057Y-116720999D01*
X151368057Y-116720999D02*
X151368057Y-116492428D01*
X151110914Y-117063856D02*
X151082342Y-117092428D01*
X151082342Y-117092428D02*
X151053771Y-117149571D01*
X151053771Y-117149571D02*
X151053771Y-117292428D01*
X151053771Y-117292428D02*
X151082342Y-117349571D01*
X151082342Y-117349571D02*
X151110914Y-117378142D01*
X151110914Y-117378142D02*
X151168057Y-117406713D01*
X151168057Y-117406713D02*
X151225200Y-117406713D01*
X151225200Y-117406713D02*
X151310914Y-117378142D01*
X151310914Y-117378142D02*
X151653771Y-117035285D01*
X151653771Y-117035285D02*
X151653771Y-117406713D01*
X151053771Y-117606714D02*
X151053771Y-117978142D01*
X151053771Y-117978142D02*
X151282342Y-117778142D01*
X151282342Y-117778142D02*
X151282342Y-117863857D01*
X151282342Y-117863857D02*
X151310914Y-117921000D01*
X151310914Y-117921000D02*
X151339485Y-117949571D01*
X151339485Y-117949571D02*
X151396628Y-117978142D01*
X151396628Y-117978142D02*
X151539485Y-117978142D01*
X151539485Y-117978142D02*
X151596628Y-117949571D01*
X151596628Y-117949571D02*
X151625200Y-117921000D01*
X151625200Y-117921000D02*
X151653771Y-117863857D01*
X151653771Y-117863857D02*
X151653771Y-117692428D01*
X151653771Y-117692428D02*
X151625200Y-117635285D01*
X151625200Y-117635285D02*
X151596628Y-117606714D01*
X150839568Y-116167303D02*
X150868140Y-116195875D01*
X150868140Y-116195875D02*
X150953854Y-116224446D01*
X150953854Y-116224446D02*
X151010997Y-116224446D01*
X151010997Y-116224446D02*
X151096711Y-116195875D01*
X151096711Y-116195875D02*
X151153854Y-116138732D01*
X151153854Y-116138732D02*
X151182425Y-116081589D01*
X151182425Y-116081589D02*
X151210997Y-115967303D01*
X151210997Y-115967303D02*
X151210997Y-115881589D01*
X151210997Y-115881589D02*
X151182425Y-115767303D01*
X151182425Y-115767303D02*
X151153854Y-115710160D01*
X151153854Y-115710160D02*
X151096711Y-115653017D01*
X151096711Y-115653017D02*
X151010997Y-115624446D01*
X151010997Y-115624446D02*
X150953854Y-115624446D01*
X150953854Y-115624446D02*
X150868140Y-115653017D01*
X150868140Y-115653017D02*
X150839568Y-115681589D01*
X150639568Y-115624446D02*
X150239568Y-115624446D01*
X150239568Y-115624446D02*
X150496711Y-116224446D01*
X149696711Y-116224446D02*
X150039568Y-116224446D01*
X149868139Y-116224446D02*
X149868139Y-115624446D01*
X149868139Y-115624446D02*
X149925282Y-115710160D01*
X149925282Y-115710160D02*
X149982425Y-115767303D01*
X149982425Y-115767303D02*
X150039568Y-115795875D01*
X144614285Y-99387295D02*
X144880952Y-99006342D01*
X145071428Y-99387295D02*
X145071428Y-98587295D01*
X145071428Y-98587295D02*
X144766666Y-98587295D01*
X144766666Y-98587295D02*
X144690476Y-98625390D01*
X144690476Y-98625390D02*
X144652381Y-98663485D01*
X144652381Y-98663485D02*
X144614285Y-98739676D01*
X144614285Y-98739676D02*
X144614285Y-98853961D01*
X144614285Y-98853961D02*
X144652381Y-98930152D01*
X144652381Y-98930152D02*
X144690476Y-98968247D01*
X144690476Y-98968247D02*
X144766666Y-99006342D01*
X144766666Y-99006342D02*
X145071428Y-99006342D01*
X143852381Y-99387295D02*
X144309524Y-99387295D01*
X144080952Y-99387295D02*
X144080952Y-98587295D01*
X144080952Y-98587295D02*
X144157143Y-98701580D01*
X144157143Y-98701580D02*
X144233333Y-98777771D01*
X144233333Y-98777771D02*
X144309524Y-98815866D01*
X143090476Y-99387295D02*
X143547619Y-99387295D01*
X143319047Y-99387295D02*
X143319047Y-98587295D01*
X143319047Y-98587295D02*
X143395238Y-98701580D01*
X143395238Y-98701580D02*
X143471428Y-98777771D01*
X143471428Y-98777771D02*
X143547619Y-98815866D01*
X144517482Y-84670111D02*
X144555578Y-84708207D01*
X144555578Y-84708207D02*
X144669863Y-84746302D01*
X144669863Y-84746302D02*
X144746054Y-84746302D01*
X144746054Y-84746302D02*
X144860340Y-84708207D01*
X144860340Y-84708207D02*
X144936530Y-84632016D01*
X144936530Y-84632016D02*
X144974625Y-84555826D01*
X144974625Y-84555826D02*
X145012721Y-84403445D01*
X145012721Y-84403445D02*
X145012721Y-84289159D01*
X145012721Y-84289159D02*
X144974625Y-84136778D01*
X144974625Y-84136778D02*
X144936530Y-84060587D01*
X144936530Y-84060587D02*
X144860340Y-83984397D01*
X144860340Y-83984397D02*
X144746054Y-83946302D01*
X144746054Y-83946302D02*
X144669863Y-83946302D01*
X144669863Y-83946302D02*
X144555578Y-83984397D01*
X144555578Y-83984397D02*
X144517482Y-84022492D01*
X144060340Y-84289159D02*
X144136530Y-84251064D01*
X144136530Y-84251064D02*
X144174625Y-84212968D01*
X144174625Y-84212968D02*
X144212721Y-84136778D01*
X144212721Y-84136778D02*
X144212721Y-84098683D01*
X144212721Y-84098683D02*
X144174625Y-84022492D01*
X144174625Y-84022492D02*
X144136530Y-83984397D01*
X144136530Y-83984397D02*
X144060340Y-83946302D01*
X144060340Y-83946302D02*
X143907959Y-83946302D01*
X143907959Y-83946302D02*
X143831768Y-83984397D01*
X143831768Y-83984397D02*
X143793673Y-84022492D01*
X143793673Y-84022492D02*
X143755578Y-84098683D01*
X143755578Y-84098683D02*
X143755578Y-84136778D01*
X143755578Y-84136778D02*
X143793673Y-84212968D01*
X143793673Y-84212968D02*
X143831768Y-84251064D01*
X143831768Y-84251064D02*
X143907959Y-84289159D01*
X143907959Y-84289159D02*
X144060340Y-84289159D01*
X144060340Y-84289159D02*
X144136530Y-84327254D01*
X144136530Y-84327254D02*
X144174625Y-84365349D01*
X144174625Y-84365349D02*
X144212721Y-84441540D01*
X144212721Y-84441540D02*
X144212721Y-84593921D01*
X144212721Y-84593921D02*
X144174625Y-84670111D01*
X144174625Y-84670111D02*
X144136530Y-84708207D01*
X144136530Y-84708207D02*
X144060340Y-84746302D01*
X144060340Y-84746302D02*
X143907959Y-84746302D01*
X143907959Y-84746302D02*
X143831768Y-84708207D01*
X143831768Y-84708207D02*
X143793673Y-84670111D01*
X143793673Y-84670111D02*
X143755578Y-84593921D01*
X143755578Y-84593921D02*
X143755578Y-84441540D01*
X143755578Y-84441540D02*
X143793673Y-84365349D01*
X143793673Y-84365349D02*
X143831768Y-84327254D01*
X143831768Y-84327254D02*
X143907959Y-84289159D01*
X159258332Y-86611104D02*
X159296428Y-86649200D01*
X159296428Y-86649200D02*
X159410713Y-86687295D01*
X159410713Y-86687295D02*
X159486904Y-86687295D01*
X159486904Y-86687295D02*
X159601190Y-86649200D01*
X159601190Y-86649200D02*
X159677380Y-86573009D01*
X159677380Y-86573009D02*
X159715475Y-86496819D01*
X159715475Y-86496819D02*
X159753571Y-86344438D01*
X159753571Y-86344438D02*
X159753571Y-86230152D01*
X159753571Y-86230152D02*
X159715475Y-86077771D01*
X159715475Y-86077771D02*
X159677380Y-86001580D01*
X159677380Y-86001580D02*
X159601190Y-85925390D01*
X159601190Y-85925390D02*
X159486904Y-85887295D01*
X159486904Y-85887295D02*
X159410713Y-85887295D01*
X159410713Y-85887295D02*
X159296428Y-85925390D01*
X159296428Y-85925390D02*
X159258332Y-85963485D01*
X158496428Y-86687295D02*
X158953571Y-86687295D01*
X158724999Y-86687295D02*
X158724999Y-85887295D01*
X158724999Y-85887295D02*
X158801190Y-86001580D01*
X158801190Y-86001580D02*
X158877380Y-86077771D01*
X158877380Y-86077771D02*
X158953571Y-86115866D01*
X152275752Y-82837295D02*
X152275752Y-83484914D01*
X152275752Y-83484914D02*
X152237657Y-83561104D01*
X152237657Y-83561104D02*
X152199562Y-83599200D01*
X152199562Y-83599200D02*
X152123371Y-83637295D01*
X152123371Y-83637295D02*
X151970990Y-83637295D01*
X151970990Y-83637295D02*
X151894800Y-83599200D01*
X151894800Y-83599200D02*
X151856705Y-83561104D01*
X151856705Y-83561104D02*
X151818609Y-83484914D01*
X151818609Y-83484914D02*
X151818609Y-82837295D01*
X151018610Y-83637295D02*
X151475753Y-83637295D01*
X151247181Y-83637295D02*
X151247181Y-82837295D01*
X151247181Y-82837295D02*
X151323372Y-82951580D01*
X151323372Y-82951580D02*
X151399562Y-83027771D01*
X151399562Y-83027771D02*
X151475753Y-83065866D01*
X149082649Y-83957819D02*
X149082649Y-84195914D01*
X149320744Y-84100676D02*
X149082649Y-84195914D01*
X149082649Y-84195914D02*
X148844554Y-84100676D01*
X149225506Y-84386390D02*
X149082649Y-84195914D01*
X149082649Y-84195914D02*
X148939792Y-84386390D01*
X151653771Y-113530959D02*
X151368057Y-113330959D01*
X151653771Y-113188102D02*
X151053771Y-113188102D01*
X151053771Y-113188102D02*
X151053771Y-113416673D01*
X151053771Y-113416673D02*
X151082342Y-113473816D01*
X151082342Y-113473816D02*
X151110914Y-113502387D01*
X151110914Y-113502387D02*
X151168057Y-113530959D01*
X151168057Y-113530959D02*
X151253771Y-113530959D01*
X151253771Y-113530959D02*
X151310914Y-113502387D01*
X151310914Y-113502387D02*
X151339485Y-113473816D01*
X151339485Y-113473816D02*
X151368057Y-113416673D01*
X151368057Y-113416673D02*
X151368057Y-113188102D01*
X151110914Y-113759530D02*
X151082342Y-113788102D01*
X151082342Y-113788102D02*
X151053771Y-113845245D01*
X151053771Y-113845245D02*
X151053771Y-113988102D01*
X151053771Y-113988102D02*
X151082342Y-114045245D01*
X151082342Y-114045245D02*
X151110914Y-114073816D01*
X151110914Y-114073816D02*
X151168057Y-114102387D01*
X151168057Y-114102387D02*
X151225200Y-114102387D01*
X151225200Y-114102387D02*
X151310914Y-114073816D01*
X151310914Y-114073816D02*
X151653771Y-113730959D01*
X151653771Y-113730959D02*
X151653771Y-114102387D01*
X151110914Y-114330959D02*
X151082342Y-114359531D01*
X151082342Y-114359531D02*
X151053771Y-114416674D01*
X151053771Y-114416674D02*
X151053771Y-114559531D01*
X151053771Y-114559531D02*
X151082342Y-114616674D01*
X151082342Y-114616674D02*
X151110914Y-114645245D01*
X151110914Y-114645245D02*
X151168057Y-114673816D01*
X151168057Y-114673816D02*
X151225200Y-114673816D01*
X151225200Y-114673816D02*
X151310914Y-114645245D01*
X151310914Y-114645245D02*
X151653771Y-114302388D01*
X151653771Y-114302388D02*
X151653771Y-114673816D01*
X147262295Y-88615476D02*
X147909914Y-88615476D01*
X147909914Y-88615476D02*
X147986104Y-88653571D01*
X147986104Y-88653571D02*
X148024200Y-88691666D01*
X148024200Y-88691666D02*
X148062295Y-88767857D01*
X148062295Y-88767857D02*
X148062295Y-88920238D01*
X148062295Y-88920238D02*
X148024200Y-88996428D01*
X148024200Y-88996428D02*
X147986104Y-89034523D01*
X147986104Y-89034523D02*
X147909914Y-89072619D01*
X147909914Y-89072619D02*
X147262295Y-89072619D01*
X147338485Y-89415475D02*
X147300390Y-89453571D01*
X147300390Y-89453571D02*
X147262295Y-89529761D01*
X147262295Y-89529761D02*
X147262295Y-89720237D01*
X147262295Y-89720237D02*
X147300390Y-89796428D01*
X147300390Y-89796428D02*
X147338485Y-89834523D01*
X147338485Y-89834523D02*
X147414676Y-89872618D01*
X147414676Y-89872618D02*
X147490866Y-89872618D01*
X147490866Y-89872618D02*
X147605152Y-89834523D01*
X147605152Y-89834523D02*
X148062295Y-89377380D01*
X148062295Y-89377380D02*
X148062295Y-89872618D01*
X149288149Y-86573819D02*
X149288149Y-86811914D01*
X149526244Y-86716676D02*
X149288149Y-86811914D01*
X149288149Y-86811914D02*
X149050054Y-86716676D01*
X149431006Y-87002390D02*
X149288149Y-86811914D01*
X149288149Y-86811914D02*
X149145292Y-87002390D01*
X128274714Y-91144628D02*
X128303286Y-91173200D01*
X128303286Y-91173200D02*
X128389000Y-91201771D01*
X128389000Y-91201771D02*
X128446143Y-91201771D01*
X128446143Y-91201771D02*
X128531857Y-91173200D01*
X128531857Y-91173200D02*
X128589000Y-91116057D01*
X128589000Y-91116057D02*
X128617571Y-91058914D01*
X128617571Y-91058914D02*
X128646143Y-90944628D01*
X128646143Y-90944628D02*
X128646143Y-90858914D01*
X128646143Y-90858914D02*
X128617571Y-90744628D01*
X128617571Y-90744628D02*
X128589000Y-90687485D01*
X128589000Y-90687485D02*
X128531857Y-90630342D01*
X128531857Y-90630342D02*
X128446143Y-90601771D01*
X128446143Y-90601771D02*
X128389000Y-90601771D01*
X128389000Y-90601771D02*
X128303286Y-90630342D01*
X128303286Y-90630342D02*
X128274714Y-90658914D01*
X127731857Y-90601771D02*
X128017571Y-90601771D01*
X128017571Y-90601771D02*
X128046143Y-90887485D01*
X128046143Y-90887485D02*
X128017571Y-90858914D01*
X128017571Y-90858914D02*
X127960429Y-90830342D01*
X127960429Y-90830342D02*
X127817571Y-90830342D01*
X127817571Y-90830342D02*
X127760429Y-90858914D01*
X127760429Y-90858914D02*
X127731857Y-90887485D01*
X127731857Y-90887485D02*
X127703286Y-90944628D01*
X127703286Y-90944628D02*
X127703286Y-91087485D01*
X127703286Y-91087485D02*
X127731857Y-91144628D01*
X127731857Y-91144628D02*
X127760429Y-91173200D01*
X127760429Y-91173200D02*
X127817571Y-91201771D01*
X127817571Y-91201771D02*
X127960429Y-91201771D01*
X127960429Y-91201771D02*
X128017571Y-91173200D01*
X128017571Y-91173200D02*
X128046143Y-91144628D01*
X127189000Y-90801771D02*
X127189000Y-91201771D01*
X127331857Y-90573200D02*
X127474714Y-91001771D01*
X127474714Y-91001771D02*
X127103285Y-91001771D01*
X147682182Y-98754211D02*
X147720278Y-98792307D01*
X147720278Y-98792307D02*
X147834563Y-98830402D01*
X147834563Y-98830402D02*
X147910754Y-98830402D01*
X147910754Y-98830402D02*
X148025040Y-98792307D01*
X148025040Y-98792307D02*
X148101230Y-98716116D01*
X148101230Y-98716116D02*
X148139325Y-98639926D01*
X148139325Y-98639926D02*
X148177421Y-98487545D01*
X148177421Y-98487545D02*
X148177421Y-98373259D01*
X148177421Y-98373259D02*
X148139325Y-98220878D01*
X148139325Y-98220878D02*
X148101230Y-98144687D01*
X148101230Y-98144687D02*
X148025040Y-98068497D01*
X148025040Y-98068497D02*
X147910754Y-98030402D01*
X147910754Y-98030402D02*
X147834563Y-98030402D01*
X147834563Y-98030402D02*
X147720278Y-98068497D01*
X147720278Y-98068497D02*
X147682182Y-98106592D01*
X147301230Y-98830402D02*
X147148849Y-98830402D01*
X147148849Y-98830402D02*
X147072659Y-98792307D01*
X147072659Y-98792307D02*
X147034563Y-98754211D01*
X147034563Y-98754211D02*
X146958373Y-98639926D01*
X146958373Y-98639926D02*
X146920278Y-98487545D01*
X146920278Y-98487545D02*
X146920278Y-98182783D01*
X146920278Y-98182783D02*
X146958373Y-98106592D01*
X146958373Y-98106592D02*
X146996468Y-98068497D01*
X146996468Y-98068497D02*
X147072659Y-98030402D01*
X147072659Y-98030402D02*
X147225040Y-98030402D01*
X147225040Y-98030402D02*
X147301230Y-98068497D01*
X147301230Y-98068497D02*
X147339325Y-98106592D01*
X147339325Y-98106592D02*
X147377421Y-98182783D01*
X147377421Y-98182783D02*
X147377421Y-98373259D01*
X147377421Y-98373259D02*
X147339325Y-98449449D01*
X147339325Y-98449449D02*
X147301230Y-98487545D01*
X147301230Y-98487545D02*
X147225040Y-98525640D01*
X147225040Y-98525640D02*
X147072659Y-98525640D01*
X147072659Y-98525640D02*
X146996468Y-98487545D01*
X146996468Y-98487545D02*
X146958373Y-98449449D01*
X146958373Y-98449449D02*
X146920278Y-98373259D01*
X154258332Y-88961104D02*
X154296428Y-88999200D01*
X154296428Y-88999200D02*
X154410713Y-89037295D01*
X154410713Y-89037295D02*
X154486904Y-89037295D01*
X154486904Y-89037295D02*
X154601190Y-88999200D01*
X154601190Y-88999200D02*
X154677380Y-88923009D01*
X154677380Y-88923009D02*
X154715475Y-88846819D01*
X154715475Y-88846819D02*
X154753571Y-88694438D01*
X154753571Y-88694438D02*
X154753571Y-88580152D01*
X154753571Y-88580152D02*
X154715475Y-88427771D01*
X154715475Y-88427771D02*
X154677380Y-88351580D01*
X154677380Y-88351580D02*
X154601190Y-88275390D01*
X154601190Y-88275390D02*
X154486904Y-88237295D01*
X154486904Y-88237295D02*
X154410713Y-88237295D01*
X154410713Y-88237295D02*
X154296428Y-88275390D01*
X154296428Y-88275390D02*
X154258332Y-88313485D01*
X153953571Y-88313485D02*
X153915475Y-88275390D01*
X153915475Y-88275390D02*
X153839285Y-88237295D01*
X153839285Y-88237295D02*
X153648809Y-88237295D01*
X153648809Y-88237295D02*
X153572618Y-88275390D01*
X153572618Y-88275390D02*
X153534523Y-88313485D01*
X153534523Y-88313485D02*
X153496428Y-88389676D01*
X153496428Y-88389676D02*
X153496428Y-88465866D01*
X153496428Y-88465866D02*
X153534523Y-88580152D01*
X153534523Y-88580152D02*
X153991666Y-89037295D01*
X153991666Y-89037295D02*
X153496428Y-89037295D01*
X127339628Y-82291285D02*
X127368200Y-82262713D01*
X127368200Y-82262713D02*
X127396771Y-82176999D01*
X127396771Y-82176999D02*
X127396771Y-82119856D01*
X127396771Y-82119856D02*
X127368200Y-82034142D01*
X127368200Y-82034142D02*
X127311057Y-81976999D01*
X127311057Y-81976999D02*
X127253914Y-81948428D01*
X127253914Y-81948428D02*
X127139628Y-81919856D01*
X127139628Y-81919856D02*
X127053914Y-81919856D01*
X127053914Y-81919856D02*
X126939628Y-81948428D01*
X126939628Y-81948428D02*
X126882485Y-81976999D01*
X126882485Y-81976999D02*
X126825342Y-82034142D01*
X126825342Y-82034142D02*
X126796771Y-82119856D01*
X126796771Y-82119856D02*
X126796771Y-82176999D01*
X126796771Y-82176999D02*
X126825342Y-82262713D01*
X126825342Y-82262713D02*
X126853914Y-82291285D01*
X126996771Y-82805571D02*
X127396771Y-82805571D01*
X126768200Y-82662713D02*
X127196771Y-82519856D01*
X127196771Y-82519856D02*
X127196771Y-82891285D01*
X127053914Y-83205571D02*
X127025342Y-83148428D01*
X127025342Y-83148428D02*
X126996771Y-83119857D01*
X126996771Y-83119857D02*
X126939628Y-83091285D01*
X126939628Y-83091285D02*
X126911057Y-83091285D01*
X126911057Y-83091285D02*
X126853914Y-83119857D01*
X126853914Y-83119857D02*
X126825342Y-83148428D01*
X126825342Y-83148428D02*
X126796771Y-83205571D01*
X126796771Y-83205571D02*
X126796771Y-83319857D01*
X126796771Y-83319857D02*
X126825342Y-83377000D01*
X126825342Y-83377000D02*
X126853914Y-83405571D01*
X126853914Y-83405571D02*
X126911057Y-83434142D01*
X126911057Y-83434142D02*
X126939628Y-83434142D01*
X126939628Y-83434142D02*
X126996771Y-83405571D01*
X126996771Y-83405571D02*
X127025342Y-83377000D01*
X127025342Y-83377000D02*
X127053914Y-83319857D01*
X127053914Y-83319857D02*
X127053914Y-83205571D01*
X127053914Y-83205571D02*
X127082485Y-83148428D01*
X127082485Y-83148428D02*
X127111057Y-83119857D01*
X127111057Y-83119857D02*
X127168200Y-83091285D01*
X127168200Y-83091285D02*
X127282485Y-83091285D01*
X127282485Y-83091285D02*
X127339628Y-83119857D01*
X127339628Y-83119857D02*
X127368200Y-83148428D01*
X127368200Y-83148428D02*
X127396771Y-83205571D01*
X127396771Y-83205571D02*
X127396771Y-83319857D01*
X127396771Y-83319857D02*
X127368200Y-83377000D01*
X127368200Y-83377000D02*
X127339628Y-83405571D01*
X127339628Y-83405571D02*
X127282485Y-83434142D01*
X127282485Y-83434142D02*
X127168200Y-83434142D01*
X127168200Y-83434142D02*
X127111057Y-83405571D01*
X127111057Y-83405571D02*
X127082485Y-83377000D01*
X127082485Y-83377000D02*
X127053914Y-83319857D01*
X150058332Y-94861104D02*
X150096428Y-94899200D01*
X150096428Y-94899200D02*
X150210713Y-94937295D01*
X150210713Y-94937295D02*
X150286904Y-94937295D01*
X150286904Y-94937295D02*
X150401190Y-94899200D01*
X150401190Y-94899200D02*
X150477380Y-94823009D01*
X150477380Y-94823009D02*
X150515475Y-94746819D01*
X150515475Y-94746819D02*
X150553571Y-94594438D01*
X150553571Y-94594438D02*
X150553571Y-94480152D01*
X150553571Y-94480152D02*
X150515475Y-94327771D01*
X150515475Y-94327771D02*
X150477380Y-94251580D01*
X150477380Y-94251580D02*
X150401190Y-94175390D01*
X150401190Y-94175390D02*
X150286904Y-94137295D01*
X150286904Y-94137295D02*
X150210713Y-94137295D01*
X150210713Y-94137295D02*
X150096428Y-94175390D01*
X150096428Y-94175390D02*
X150058332Y-94213485D01*
X149372618Y-94137295D02*
X149524999Y-94137295D01*
X149524999Y-94137295D02*
X149601190Y-94175390D01*
X149601190Y-94175390D02*
X149639285Y-94213485D01*
X149639285Y-94213485D02*
X149715475Y-94327771D01*
X149715475Y-94327771D02*
X149753571Y-94480152D01*
X149753571Y-94480152D02*
X149753571Y-94784914D01*
X149753571Y-94784914D02*
X149715475Y-94861104D01*
X149715475Y-94861104D02*
X149677380Y-94899200D01*
X149677380Y-94899200D02*
X149601190Y-94937295D01*
X149601190Y-94937295D02*
X149448809Y-94937295D01*
X149448809Y-94937295D02*
X149372618Y-94899200D01*
X149372618Y-94899200D02*
X149334523Y-94861104D01*
X149334523Y-94861104D02*
X149296428Y-94784914D01*
X149296428Y-94784914D02*
X149296428Y-94594438D01*
X149296428Y-94594438D02*
X149334523Y-94518247D01*
X149334523Y-94518247D02*
X149372618Y-94480152D01*
X149372618Y-94480152D02*
X149448809Y-94442057D01*
X149448809Y-94442057D02*
X149601190Y-94442057D01*
X149601190Y-94442057D02*
X149677380Y-94480152D01*
X149677380Y-94480152D02*
X149715475Y-94518247D01*
X149715475Y-94518247D02*
X149753571Y-94594438D01*
X159190332Y-81317524D02*
X159456999Y-80936571D01*
X159647475Y-81317524D02*
X159647475Y-80517524D01*
X159647475Y-80517524D02*
X159342713Y-80517524D01*
X159342713Y-80517524D02*
X159266523Y-80555619D01*
X159266523Y-80555619D02*
X159228428Y-80593714D01*
X159228428Y-80593714D02*
X159190332Y-80669905D01*
X159190332Y-80669905D02*
X159190332Y-80784190D01*
X159190332Y-80784190D02*
X159228428Y-80860381D01*
X159228428Y-80860381D02*
X159266523Y-80898476D01*
X159266523Y-80898476D02*
X159342713Y-80936571D01*
X159342713Y-80936571D02*
X159647475Y-80936571D01*
X158428428Y-81317524D02*
X158885571Y-81317524D01*
X158656999Y-81317524D02*
X158656999Y-80517524D01*
X158656999Y-80517524D02*
X158733190Y-80631809D01*
X158733190Y-80631809D02*
X158809380Y-80708000D01*
X158809380Y-80708000D02*
X158885571Y-80746095D01*
X142273482Y-86950302D02*
X142540149Y-86569349D01*
X142730625Y-86950302D02*
X142730625Y-86150302D01*
X142730625Y-86150302D02*
X142425863Y-86150302D01*
X142425863Y-86150302D02*
X142349673Y-86188397D01*
X142349673Y-86188397D02*
X142311578Y-86226492D01*
X142311578Y-86226492D02*
X142273482Y-86302683D01*
X142273482Y-86302683D02*
X142273482Y-86416968D01*
X142273482Y-86416968D02*
X142311578Y-86493159D01*
X142311578Y-86493159D02*
X142349673Y-86531254D01*
X142349673Y-86531254D02*
X142425863Y-86569349D01*
X142425863Y-86569349D02*
X142730625Y-86569349D01*
X142006816Y-86150302D02*
X141473482Y-86150302D01*
X141473482Y-86150302D02*
X141816340Y-86950302D01*
X146936502Y-114151683D02*
X146965074Y-114180255D01*
X146965074Y-114180255D02*
X147050788Y-114208826D01*
X147050788Y-114208826D02*
X147107931Y-114208826D01*
X147107931Y-114208826D02*
X147193645Y-114180255D01*
X147193645Y-114180255D02*
X147250788Y-114123112D01*
X147250788Y-114123112D02*
X147279359Y-114065969D01*
X147279359Y-114065969D02*
X147307931Y-113951683D01*
X147307931Y-113951683D02*
X147307931Y-113865969D01*
X147307931Y-113865969D02*
X147279359Y-113751683D01*
X147279359Y-113751683D02*
X147250788Y-113694540D01*
X147250788Y-113694540D02*
X147193645Y-113637397D01*
X147193645Y-113637397D02*
X147107931Y-113608826D01*
X147107931Y-113608826D02*
X147050788Y-113608826D01*
X147050788Y-113608826D02*
X146965074Y-113637397D01*
X146965074Y-113637397D02*
X146936502Y-113665969D01*
X146422217Y-113608826D02*
X146536502Y-113608826D01*
X146536502Y-113608826D02*
X146593645Y-113637397D01*
X146593645Y-113637397D02*
X146622217Y-113665969D01*
X146622217Y-113665969D02*
X146679359Y-113751683D01*
X146679359Y-113751683D02*
X146707931Y-113865969D01*
X146707931Y-113865969D02*
X146707931Y-114094540D01*
X146707931Y-114094540D02*
X146679359Y-114151683D01*
X146679359Y-114151683D02*
X146650788Y-114180255D01*
X146650788Y-114180255D02*
X146593645Y-114208826D01*
X146593645Y-114208826D02*
X146479359Y-114208826D01*
X146479359Y-114208826D02*
X146422217Y-114180255D01*
X146422217Y-114180255D02*
X146393645Y-114151683D01*
X146393645Y-114151683D02*
X146365074Y-114094540D01*
X146365074Y-114094540D02*
X146365074Y-113951683D01*
X146365074Y-113951683D02*
X146393645Y-113894540D01*
X146393645Y-113894540D02*
X146422217Y-113865969D01*
X146422217Y-113865969D02*
X146479359Y-113837397D01*
X146479359Y-113837397D02*
X146593645Y-113837397D01*
X146593645Y-113837397D02*
X146650788Y-113865969D01*
X146650788Y-113865969D02*
X146679359Y-113894540D01*
X146679359Y-113894540D02*
X146707931Y-113951683D01*
X145850788Y-113808826D02*
X145850788Y-114208826D01*
X145993645Y-113580255D02*
X146136502Y-114008826D01*
X146136502Y-114008826D02*
X145765073Y-114008826D01*
X127682143Y-90116200D02*
X127596429Y-90144771D01*
X127596429Y-90144771D02*
X127453571Y-90144771D01*
X127453571Y-90144771D02*
X127396429Y-90116200D01*
X127396429Y-90116200D02*
X127367857Y-90087628D01*
X127367857Y-90087628D02*
X127339286Y-90030485D01*
X127339286Y-90030485D02*
X127339286Y-89973342D01*
X127339286Y-89973342D02*
X127367857Y-89916200D01*
X127367857Y-89916200D02*
X127396429Y-89887628D01*
X127396429Y-89887628D02*
X127453571Y-89859057D01*
X127453571Y-89859057D02*
X127567857Y-89830485D01*
X127567857Y-89830485D02*
X127625000Y-89801914D01*
X127625000Y-89801914D02*
X127653571Y-89773342D01*
X127653571Y-89773342D02*
X127682143Y-89716200D01*
X127682143Y-89716200D02*
X127682143Y-89659057D01*
X127682143Y-89659057D02*
X127653571Y-89601914D01*
X127653571Y-89601914D02*
X127625000Y-89573342D01*
X127625000Y-89573342D02*
X127567857Y-89544771D01*
X127567857Y-89544771D02*
X127425000Y-89544771D01*
X127425000Y-89544771D02*
X127339286Y-89573342D01*
X126739285Y-90144771D02*
X126939285Y-89859057D01*
X127082142Y-90144771D02*
X127082142Y-89544771D01*
X127082142Y-89544771D02*
X126853571Y-89544771D01*
X126853571Y-89544771D02*
X126796428Y-89573342D01*
X126796428Y-89573342D02*
X126767857Y-89601914D01*
X126767857Y-89601914D02*
X126739285Y-89659057D01*
X126739285Y-89659057D02*
X126739285Y-89744771D01*
X126739285Y-89744771D02*
X126767857Y-89801914D01*
X126767857Y-89801914D02*
X126796428Y-89830485D01*
X126796428Y-89830485D02*
X126853571Y-89859057D01*
X126853571Y-89859057D02*
X127082142Y-89859057D01*
X126167857Y-90144771D02*
X126510714Y-90144771D01*
X126339285Y-90144771D02*
X126339285Y-89544771D01*
X126339285Y-89544771D02*
X126396428Y-89630485D01*
X126396428Y-89630485D02*
X126453571Y-89687628D01*
X126453571Y-89687628D02*
X126510714Y-89716200D01*
X154864285Y-95136104D02*
X154902381Y-95174200D01*
X154902381Y-95174200D02*
X155016666Y-95212295D01*
X155016666Y-95212295D02*
X155092857Y-95212295D01*
X155092857Y-95212295D02*
X155207143Y-95174200D01*
X155207143Y-95174200D02*
X155283333Y-95098009D01*
X155283333Y-95098009D02*
X155321428Y-95021819D01*
X155321428Y-95021819D02*
X155359524Y-94869438D01*
X155359524Y-94869438D02*
X155359524Y-94755152D01*
X155359524Y-94755152D02*
X155321428Y-94602771D01*
X155321428Y-94602771D02*
X155283333Y-94526580D01*
X155283333Y-94526580D02*
X155207143Y-94450390D01*
X155207143Y-94450390D02*
X155092857Y-94412295D01*
X155092857Y-94412295D02*
X155016666Y-94412295D01*
X155016666Y-94412295D02*
X154902381Y-94450390D01*
X154902381Y-94450390D02*
X154864285Y-94488485D01*
X154178571Y-94412295D02*
X154330952Y-94412295D01*
X154330952Y-94412295D02*
X154407143Y-94450390D01*
X154407143Y-94450390D02*
X154445238Y-94488485D01*
X154445238Y-94488485D02*
X154521428Y-94602771D01*
X154521428Y-94602771D02*
X154559524Y-94755152D01*
X154559524Y-94755152D02*
X154559524Y-95059914D01*
X154559524Y-95059914D02*
X154521428Y-95136104D01*
X154521428Y-95136104D02*
X154483333Y-95174200D01*
X154483333Y-95174200D02*
X154407143Y-95212295D01*
X154407143Y-95212295D02*
X154254762Y-95212295D01*
X154254762Y-95212295D02*
X154178571Y-95174200D01*
X154178571Y-95174200D02*
X154140476Y-95136104D01*
X154140476Y-95136104D02*
X154102381Y-95059914D01*
X154102381Y-95059914D02*
X154102381Y-94869438D01*
X154102381Y-94869438D02*
X154140476Y-94793247D01*
X154140476Y-94793247D02*
X154178571Y-94755152D01*
X154178571Y-94755152D02*
X154254762Y-94717057D01*
X154254762Y-94717057D02*
X154407143Y-94717057D01*
X154407143Y-94717057D02*
X154483333Y-94755152D01*
X154483333Y-94755152D02*
X154521428Y-94793247D01*
X154521428Y-94793247D02*
X154559524Y-94869438D01*
X153645238Y-94755152D02*
X153721428Y-94717057D01*
X153721428Y-94717057D02*
X153759523Y-94678961D01*
X153759523Y-94678961D02*
X153797619Y-94602771D01*
X153797619Y-94602771D02*
X153797619Y-94564676D01*
X153797619Y-94564676D02*
X153759523Y-94488485D01*
X153759523Y-94488485D02*
X153721428Y-94450390D01*
X153721428Y-94450390D02*
X153645238Y-94412295D01*
X153645238Y-94412295D02*
X153492857Y-94412295D01*
X153492857Y-94412295D02*
X153416666Y-94450390D01*
X153416666Y-94450390D02*
X153378571Y-94488485D01*
X153378571Y-94488485D02*
X153340476Y-94564676D01*
X153340476Y-94564676D02*
X153340476Y-94602771D01*
X153340476Y-94602771D02*
X153378571Y-94678961D01*
X153378571Y-94678961D02*
X153416666Y-94717057D01*
X153416666Y-94717057D02*
X153492857Y-94755152D01*
X153492857Y-94755152D02*
X153645238Y-94755152D01*
X153645238Y-94755152D02*
X153721428Y-94793247D01*
X153721428Y-94793247D02*
X153759523Y-94831342D01*
X153759523Y-94831342D02*
X153797619Y-94907533D01*
X153797619Y-94907533D02*
X153797619Y-95059914D01*
X153797619Y-95059914D02*
X153759523Y-95136104D01*
X153759523Y-95136104D02*
X153721428Y-95174200D01*
X153721428Y-95174200D02*
X153645238Y-95212295D01*
X153645238Y-95212295D02*
X153492857Y-95212295D01*
X153492857Y-95212295D02*
X153416666Y-95174200D01*
X153416666Y-95174200D02*
X153378571Y-95136104D01*
X153378571Y-95136104D02*
X153340476Y-95059914D01*
X153340476Y-95059914D02*
X153340476Y-94907533D01*
X153340476Y-94907533D02*
X153378571Y-94831342D01*
X153378571Y-94831342D02*
X153416666Y-94793247D01*
X153416666Y-94793247D02*
X153492857Y-94755152D01*
X145533332Y-94861104D02*
X145571428Y-94899200D01*
X145571428Y-94899200D02*
X145685713Y-94937295D01*
X145685713Y-94937295D02*
X145761904Y-94937295D01*
X145761904Y-94937295D02*
X145876190Y-94899200D01*
X145876190Y-94899200D02*
X145952380Y-94823009D01*
X145952380Y-94823009D02*
X145990475Y-94746819D01*
X145990475Y-94746819D02*
X146028571Y-94594438D01*
X146028571Y-94594438D02*
X146028571Y-94480152D01*
X146028571Y-94480152D02*
X145990475Y-94327771D01*
X145990475Y-94327771D02*
X145952380Y-94251580D01*
X145952380Y-94251580D02*
X145876190Y-94175390D01*
X145876190Y-94175390D02*
X145761904Y-94137295D01*
X145761904Y-94137295D02*
X145685713Y-94137295D01*
X145685713Y-94137295D02*
X145571428Y-94175390D01*
X145571428Y-94175390D02*
X145533332Y-94213485D01*
X145266666Y-94137295D02*
X144733332Y-94137295D01*
X144733332Y-94137295D02*
X145076190Y-94937295D01*
X154458332Y-85912295D02*
X154724999Y-85531342D01*
X154915475Y-85912295D02*
X154915475Y-85112295D01*
X154915475Y-85112295D02*
X154610713Y-85112295D01*
X154610713Y-85112295D02*
X154534523Y-85150390D01*
X154534523Y-85150390D02*
X154496428Y-85188485D01*
X154496428Y-85188485D02*
X154458332Y-85264676D01*
X154458332Y-85264676D02*
X154458332Y-85378961D01*
X154458332Y-85378961D02*
X154496428Y-85455152D01*
X154496428Y-85455152D02*
X154534523Y-85493247D01*
X154534523Y-85493247D02*
X154610713Y-85531342D01*
X154610713Y-85531342D02*
X154915475Y-85531342D01*
X154153571Y-85188485D02*
X154115475Y-85150390D01*
X154115475Y-85150390D02*
X154039285Y-85112295D01*
X154039285Y-85112295D02*
X153848809Y-85112295D01*
X153848809Y-85112295D02*
X153772618Y-85150390D01*
X153772618Y-85150390D02*
X153734523Y-85188485D01*
X153734523Y-85188485D02*
X153696428Y-85264676D01*
X153696428Y-85264676D02*
X153696428Y-85340866D01*
X153696428Y-85340866D02*
X153734523Y-85455152D01*
X153734523Y-85455152D02*
X154191666Y-85912295D01*
X154191666Y-85912295D02*
X153696428Y-85912295D01*
X158017482Y-89120111D02*
X158055578Y-89158207D01*
X158055578Y-89158207D02*
X158169863Y-89196302D01*
X158169863Y-89196302D02*
X158246054Y-89196302D01*
X158246054Y-89196302D02*
X158360340Y-89158207D01*
X158360340Y-89158207D02*
X158436530Y-89082016D01*
X158436530Y-89082016D02*
X158474625Y-89005826D01*
X158474625Y-89005826D02*
X158512721Y-88853445D01*
X158512721Y-88853445D02*
X158512721Y-88739159D01*
X158512721Y-88739159D02*
X158474625Y-88586778D01*
X158474625Y-88586778D02*
X158436530Y-88510587D01*
X158436530Y-88510587D02*
X158360340Y-88434397D01*
X158360340Y-88434397D02*
X158246054Y-88396302D01*
X158246054Y-88396302D02*
X158169863Y-88396302D01*
X158169863Y-88396302D02*
X158055578Y-88434397D01*
X158055578Y-88434397D02*
X158017482Y-88472492D01*
X157293673Y-88396302D02*
X157674625Y-88396302D01*
X157674625Y-88396302D02*
X157712721Y-88777254D01*
X157712721Y-88777254D02*
X157674625Y-88739159D01*
X157674625Y-88739159D02*
X157598435Y-88701064D01*
X157598435Y-88701064D02*
X157407959Y-88701064D01*
X157407959Y-88701064D02*
X157331768Y-88739159D01*
X157331768Y-88739159D02*
X157293673Y-88777254D01*
X157293673Y-88777254D02*
X157255578Y-88853445D01*
X157255578Y-88853445D02*
X157255578Y-89043921D01*
X157255578Y-89043921D02*
X157293673Y-89120111D01*
X157293673Y-89120111D02*
X157331768Y-89158207D01*
X157331768Y-89158207D02*
X157407959Y-89196302D01*
X157407959Y-89196302D02*
X157598435Y-89196302D01*
X157598435Y-89196302D02*
X157674625Y-89158207D01*
X157674625Y-89158207D02*
X157712721Y-89120111D01*
X149787625Y-116608818D02*
X150273339Y-116608818D01*
X150273339Y-116608818D02*
X150330482Y-116637389D01*
X150330482Y-116637389D02*
X150359054Y-116665961D01*
X150359054Y-116665961D02*
X150387625Y-116723103D01*
X150387625Y-116723103D02*
X150387625Y-116837389D01*
X150387625Y-116837389D02*
X150359054Y-116894532D01*
X150359054Y-116894532D02*
X150330482Y-116923103D01*
X150330482Y-116923103D02*
X150273339Y-116951675D01*
X150273339Y-116951675D02*
X149787625Y-116951675D01*
X150387625Y-117551674D02*
X150387625Y-117208817D01*
X150387625Y-117380246D02*
X149787625Y-117380246D01*
X149787625Y-117380246D02*
X149873339Y-117323103D01*
X149873339Y-117323103D02*
X149930482Y-117265960D01*
X149930482Y-117265960D02*
X149959054Y-117208817D01*
X149987625Y-118065961D02*
X150387625Y-118065961D01*
X149759054Y-117923103D02*
X150187625Y-117780246D01*
X150187625Y-117780246D02*
X150187625Y-118151675D01*
D12*
%TO.C,LED1*%
X144969700Y-82299719D02*
X144969700Y-81900281D01*
X147230300Y-81900281D02*
X147230300Y-82299719D01*
X146176200Y-84389900D02*
G75*
G02*
X146023800Y-84389900I-76200J0D01*
G01*
X146023800Y-84389900D02*
G75*
G02*
X146176200Y-84389900I76200J0D01*
G01*
D13*
%TO.C,ESP_3V3*%
X136528000Y-122920000D02*
X136528000Y-120920000D01*
X136528000Y-120920000D02*
X133728000Y-120920000D01*
X133728000Y-122920000D02*
X136528000Y-122920000D01*
X133728000Y-120920000D02*
X133728000Y-122920000D01*
%TO.C,R18*%
X148676854Y-113568316D02*
X148676854Y-113261034D01*
X149436854Y-113568316D02*
X149436854Y-113261034D01*
D12*
%TO.C,U4*%
X149972500Y-95099800D02*
X151877500Y-95099800D01*
X151877500Y-98300200D02*
X149972500Y-98300200D01*
D13*
%TO.C,SR2*%
X132433000Y-90952000D02*
X132433000Y-91007000D01*
X132433000Y-101017000D02*
X132433000Y-101072000D01*
X132433000Y-101072000D02*
X136553000Y-101072000D01*
X136553000Y-90952000D02*
X132433000Y-90952000D01*
X136553000Y-91007000D02*
X136553000Y-90952000D01*
X136553000Y-101072000D02*
X136553000Y-101017000D01*
X137093000Y-91002000D02*
X136853000Y-90672000D01*
X137333000Y-90672000D01*
X137093000Y-91002000D01*
G36*
X137093000Y-91002000D02*
G01*
X136853000Y-90672000D01*
X137333000Y-90672000D01*
X137093000Y-91002000D01*
G37*
%TO.C,R23*%
X152147000Y-116610315D02*
X152147000Y-116303033D01*
X152907000Y-116610315D02*
X152907000Y-116303033D01*
%TO.C,C71*%
X149485018Y-114580175D02*
X149700690Y-114580175D01*
X149485018Y-115300175D02*
X149700690Y-115300175D01*
D12*
%TO.C,U1*%
X149873600Y-81048600D02*
X153226400Y-81048600D01*
X153226400Y-84401400D02*
X149873600Y-84401400D01*
D13*
%TO.C,R22*%
X152147000Y-114070315D02*
X152147000Y-113763033D01*
X152907000Y-114070315D02*
X152907000Y-113763033D01*
D12*
%TO.C,U2*%
X146754500Y-87208800D02*
X148659500Y-87208800D01*
X148659500Y-90409200D02*
X146754500Y-90409200D01*
D13*
%TO.C,C54*%
X129901836Y-90572000D02*
X129686164Y-90572000D01*
X129901836Y-91292000D02*
X129686164Y-91292000D01*
%TO.C,C48*%
X126767000Y-80664164D02*
X126767000Y-80879836D01*
X127487000Y-80664164D02*
X127487000Y-80879836D01*
%TO.C,C64*%
X146156854Y-115584011D02*
X146156854Y-115368339D01*
X146876854Y-115584011D02*
X146876854Y-115368339D01*
%TO.C,SR1*%
X129320000Y-79776000D02*
X129320000Y-79831000D01*
X129320000Y-89841000D02*
X129320000Y-89896000D01*
X129320000Y-89896000D02*
X133440000Y-89896000D01*
X133440000Y-79776000D02*
X129320000Y-79776000D01*
X133440000Y-79831000D02*
X133440000Y-79776000D01*
X133440000Y-89896000D02*
X133440000Y-89841000D01*
X133980000Y-79826000D02*
X133740000Y-79496000D01*
X134220000Y-79496000D01*
X133980000Y-79826000D01*
G36*
X133980000Y-79826000D02*
G01*
X133740000Y-79496000D01*
X134220000Y-79496000D01*
X133980000Y-79826000D01*
G37*
%TO.C,U14*%
X147057854Y-116616675D02*
X147057854Y-118086675D01*
X149277854Y-117950927D02*
X149277854Y-116616675D01*
X149477854Y-118381675D02*
X149287854Y-118241675D01*
X149477854Y-118101675D01*
X149477854Y-118381675D01*
G36*
X149477854Y-118381675D02*
G01*
X149287854Y-118241675D01*
X149477854Y-118101675D01*
X149477854Y-118381675D01*
G37*
%TD*%
%LPC*%
G36*
X129770672Y-125186508D02*
G01*
X130010735Y-125250833D01*
X130240349Y-125345942D01*
X130455583Y-125470208D01*
X130652757Y-125621504D01*
X130828496Y-125797243D01*
X130979792Y-125994417D01*
X131104058Y-126209651D01*
X131199167Y-126439265D01*
X131263492Y-126679328D01*
X131295932Y-126925734D01*
X131295932Y-127174266D01*
X131263492Y-127420672D01*
X131199167Y-127660735D01*
X131104058Y-127890349D01*
X130979792Y-128105583D01*
X130828496Y-128302757D01*
X130652757Y-128478496D01*
X130455583Y-128629792D01*
X130240349Y-128754058D01*
X130010735Y-128849167D01*
X129770672Y-128913492D01*
X129524266Y-128945932D01*
X129275734Y-128945932D01*
X129029328Y-128913492D01*
X128789265Y-128849167D01*
X128559651Y-128754058D01*
X128344417Y-128629792D01*
X128147243Y-128478496D01*
X127971504Y-128302757D01*
X127820208Y-128105583D01*
X127695942Y-127890349D01*
X127600833Y-127660735D01*
X127536508Y-127420672D01*
X127504068Y-127174266D01*
X127504068Y-126925734D01*
X127536508Y-126679328D01*
X127600833Y-126439265D01*
X127695942Y-126209651D01*
X127820208Y-125994417D01*
X127971504Y-125797243D01*
X128147243Y-125621504D01*
X128344417Y-125470208D01*
X128559651Y-125345942D01*
X128789265Y-125250833D01*
X129029328Y-125186508D01*
X129275734Y-125154068D01*
X129524266Y-125154068D01*
X129770672Y-125186508D01*
G37*
G36*
X163270672Y-125186508D02*
G01*
X163510735Y-125250833D01*
X163740349Y-125345942D01*
X163955583Y-125470208D01*
X164152757Y-125621504D01*
X164328496Y-125797243D01*
X164479792Y-125994417D01*
X164604058Y-126209651D01*
X164699167Y-126439265D01*
X164763492Y-126679328D01*
X164795932Y-126925734D01*
X164795932Y-127174266D01*
X164763492Y-127420672D01*
X164699167Y-127660735D01*
X164604058Y-127890349D01*
X164479792Y-128105583D01*
X164328496Y-128302757D01*
X164152757Y-128478496D01*
X163955583Y-128629792D01*
X163740349Y-128754058D01*
X163510735Y-128849167D01*
X163270672Y-128913492D01*
X163024266Y-128945932D01*
X162775734Y-128945932D01*
X162529328Y-128913492D01*
X162289265Y-128849167D01*
X162059651Y-128754058D01*
X161844417Y-128629792D01*
X161647243Y-128478496D01*
X161471504Y-128302757D01*
X161320208Y-128105583D01*
X161195942Y-127890349D01*
X161100833Y-127660735D01*
X161036508Y-127420672D01*
X161004068Y-127174266D01*
X161004068Y-126925734D01*
X161036508Y-126679328D01*
X161100833Y-126439265D01*
X161195942Y-126209651D01*
X161320208Y-125994417D01*
X161471504Y-125797243D01*
X161647243Y-125621504D01*
X161844417Y-125470208D01*
X162059651Y-125345942D01*
X162289265Y-125250833D01*
X162529328Y-125186508D01*
X162775734Y-125154068D01*
X163024266Y-125154068D01*
X163270672Y-125186508D01*
G37*
G36*
X136278000Y-122670000D02*
G01*
X135278000Y-122670000D01*
X134980105Y-122670000D01*
X134978000Y-122670000D01*
X133978000Y-122670000D01*
X133978000Y-121170000D01*
X134978000Y-121170000D01*
X136272996Y-121170000D01*
X136278000Y-121170000D01*
X136278000Y-122670000D01*
G37*
G36*
X129000000Y-121250000D02*
G01*
X127300000Y-121250000D01*
X127300000Y-119550000D01*
X129000000Y-119550000D01*
X129000000Y-121250000D01*
G37*
G36*
X147656122Y-117584287D02*
G01*
X147688565Y-117605964D01*
X147710242Y-117638407D01*
X147717854Y-117676675D01*
X147717854Y-118801675D01*
X147710242Y-118839943D01*
X147688565Y-118872386D01*
X147656122Y-118894063D01*
X147617854Y-118901675D01*
X147417854Y-118901675D01*
X147379586Y-118894063D01*
X147347143Y-118872386D01*
X147325466Y-118839943D01*
X147317854Y-118801675D01*
X147317854Y-117676675D01*
X147325466Y-117638407D01*
X147347143Y-117605964D01*
X147379586Y-117584287D01*
X147417854Y-117576675D01*
X147617854Y-117576675D01*
X147656122Y-117584287D01*
G37*
G36*
X148306122Y-117584287D02*
G01*
X148338565Y-117605964D01*
X148360242Y-117638407D01*
X148367854Y-117676675D01*
X148367854Y-118801675D01*
X148360242Y-118839943D01*
X148338565Y-118872386D01*
X148306122Y-118894063D01*
X148267854Y-118901675D01*
X148067854Y-118901675D01*
X148029586Y-118894063D01*
X147997143Y-118872386D01*
X147975466Y-118839943D01*
X147967854Y-118801675D01*
X147967854Y-117676675D01*
X147975466Y-117638407D01*
X147997143Y-117605964D01*
X148029586Y-117584287D01*
X148067854Y-117576675D01*
X148267854Y-117576675D01*
X148306122Y-117584287D01*
G37*
G36*
X148956122Y-117584287D02*
G01*
X148988565Y-117605964D01*
X149010242Y-117638407D01*
X149017854Y-117676675D01*
X149017854Y-118801675D01*
X149010242Y-118839943D01*
X148988565Y-118872386D01*
X148956122Y-118894063D01*
X148917854Y-118901675D01*
X148717854Y-118901675D01*
X148679586Y-118894063D01*
X148647143Y-118872386D01*
X148625466Y-118839943D01*
X148617854Y-118801675D01*
X148617854Y-117676675D01*
X148625466Y-117638407D01*
X148647143Y-117605964D01*
X148679586Y-117584287D01*
X148717854Y-117576675D01*
X148917854Y-117576675D01*
X148956122Y-117584287D01*
G37*
G36*
X128396742Y-117046601D02*
G01*
X128550687Y-117110367D01*
X128689234Y-117202941D01*
X128807059Y-117320766D01*
X128899633Y-117459313D01*
X128963399Y-117613258D01*
X128995907Y-117776685D01*
X128995907Y-117943315D01*
X128963399Y-118106742D01*
X128899633Y-118260687D01*
X128807059Y-118399234D01*
X128689234Y-118517059D01*
X128550687Y-118609633D01*
X128396742Y-118673399D01*
X128233315Y-118705907D01*
X128066685Y-118705907D01*
X127903258Y-118673399D01*
X127749313Y-118609633D01*
X127610766Y-118517059D01*
X127492941Y-118399234D01*
X127400367Y-118260687D01*
X127336601Y-118106742D01*
X127304093Y-117943315D01*
X127304093Y-117776685D01*
X127336601Y-117613258D01*
X127400367Y-117459313D01*
X127492941Y-117320766D01*
X127610766Y-117202941D01*
X127749313Y-117110367D01*
X127903258Y-117046601D01*
X128066685Y-117014093D01*
X128233315Y-117014093D01*
X128396742Y-117046601D01*
G37*
G36*
X152763662Y-116706950D02*
G01*
X152807459Y-116736215D01*
X152836724Y-116780012D01*
X152847000Y-116831674D01*
X152847000Y-117101674D01*
X152836724Y-117153336D01*
X152807459Y-117197133D01*
X152763662Y-117226398D01*
X152712000Y-117236674D01*
X152342000Y-117236674D01*
X152290338Y-117226398D01*
X152246541Y-117197133D01*
X152217276Y-117153336D01*
X152207000Y-117101674D01*
X152207000Y-116831674D01*
X152217276Y-116780012D01*
X152246541Y-116736215D01*
X152290338Y-116706950D01*
X152342000Y-116696674D01*
X152712000Y-116696674D01*
X152763662Y-116706950D01*
G37*
G36*
X147656122Y-115809287D02*
G01*
X147688565Y-115830964D01*
X147710242Y-115863407D01*
X147717854Y-115901675D01*
X147717854Y-117026675D01*
X147710242Y-117064943D01*
X147688565Y-117097386D01*
X147656122Y-117119063D01*
X147617854Y-117126675D01*
X147417854Y-117126675D01*
X147379586Y-117119063D01*
X147347143Y-117097386D01*
X147325466Y-117064943D01*
X147317854Y-117026675D01*
X147317854Y-115901675D01*
X147325466Y-115863407D01*
X147347143Y-115830964D01*
X147379586Y-115809287D01*
X147417854Y-115801675D01*
X147617854Y-115801675D01*
X147656122Y-115809287D01*
G37*
G36*
X148306122Y-115809287D02*
G01*
X148338565Y-115830964D01*
X148360242Y-115863407D01*
X148367854Y-115901675D01*
X148367854Y-117026675D01*
X148360242Y-117064943D01*
X148338565Y-117097386D01*
X148306122Y-117119063D01*
X148267854Y-117126675D01*
X148067854Y-117126675D01*
X148029586Y-117119063D01*
X147997143Y-117097386D01*
X147975466Y-117064943D01*
X147967854Y-117026675D01*
X147967854Y-115901675D01*
X147975466Y-115863407D01*
X147997143Y-115830964D01*
X148029586Y-115809287D01*
X148067854Y-115801675D01*
X148267854Y-115801675D01*
X148306122Y-115809287D01*
G37*
G36*
X148956122Y-115809287D02*
G01*
X148988565Y-115830964D01*
X149010242Y-115863407D01*
X149017854Y-115901675D01*
X149017854Y-117026675D01*
X149010242Y-117064943D01*
X148988565Y-117097386D01*
X148956122Y-117119063D01*
X148917854Y-117126675D01*
X148717854Y-117126675D01*
X148679586Y-117119063D01*
X148647143Y-117097386D01*
X148625466Y-117064943D01*
X148617854Y-117026675D01*
X148617854Y-115901675D01*
X148625466Y-115863407D01*
X148647143Y-115830964D01*
X148679586Y-115809287D01*
X148717854Y-115801675D01*
X148917854Y-115801675D01*
X148956122Y-115809287D01*
G37*
G36*
X146740430Y-115686832D02*
G01*
X146785849Y-115717180D01*
X146816197Y-115762599D01*
X146826854Y-115816175D01*
X146826854Y-116096175D01*
X146816197Y-116149751D01*
X146785849Y-116195170D01*
X146740430Y-116225518D01*
X146686854Y-116236175D01*
X146346854Y-116236175D01*
X146293278Y-116225518D01*
X146247859Y-116195170D01*
X146217511Y-116149751D01*
X146206854Y-116096175D01*
X146206854Y-115816175D01*
X146217511Y-115762599D01*
X146247859Y-115717180D01*
X146293278Y-115686832D01*
X146346854Y-115676175D01*
X146686854Y-115676175D01*
X146740430Y-115686832D01*
G37*
G36*
X152763662Y-115686950D02*
G01*
X152807459Y-115716215D01*
X152836724Y-115760012D01*
X152847000Y-115811674D01*
X152847000Y-116081674D01*
X152836724Y-116133336D01*
X152807459Y-116177133D01*
X152763662Y-116206398D01*
X152712000Y-116216674D01*
X152342000Y-116216674D01*
X152290338Y-116206398D01*
X152246541Y-116177133D01*
X152217276Y-116133336D01*
X152207000Y-116081674D01*
X152207000Y-115811674D01*
X152217276Y-115760012D01*
X152246541Y-115716215D01*
X152290338Y-115686950D01*
X152342000Y-115676674D01*
X152712000Y-115676674D01*
X152763662Y-115686950D01*
G37*
G36*
X128396742Y-114506601D02*
G01*
X128550687Y-114570367D01*
X128689234Y-114662941D01*
X128807059Y-114780766D01*
X128899633Y-114919313D01*
X128963399Y-115073258D01*
X128995907Y-115236685D01*
X128995907Y-115403315D01*
X128963399Y-115566742D01*
X128899633Y-115720687D01*
X128807059Y-115859234D01*
X128689234Y-115977059D01*
X128550687Y-116069633D01*
X128396742Y-116133399D01*
X128233315Y-116165907D01*
X128066685Y-116165907D01*
X127903258Y-116133399D01*
X127749313Y-116069633D01*
X127610766Y-115977059D01*
X127492941Y-115859234D01*
X127400367Y-115720687D01*
X127336601Y-115566742D01*
X127304093Y-115403315D01*
X127304093Y-115236685D01*
X127336601Y-115073258D01*
X127400367Y-114919313D01*
X127492941Y-114780766D01*
X127610766Y-114662941D01*
X127749313Y-114570367D01*
X127903258Y-114506601D01*
X128066685Y-114474093D01*
X128233315Y-114474093D01*
X128396742Y-114506601D01*
G37*
G36*
X146740430Y-114726832D02*
G01*
X146785849Y-114757180D01*
X146816197Y-114802599D01*
X146826854Y-114856175D01*
X146826854Y-115136175D01*
X146816197Y-115189751D01*
X146785849Y-115235170D01*
X146740430Y-115265518D01*
X146686854Y-115276175D01*
X146346854Y-115276175D01*
X146293278Y-115265518D01*
X146247859Y-115235170D01*
X146217511Y-115189751D01*
X146206854Y-115136175D01*
X146206854Y-114856175D01*
X146217511Y-114802599D01*
X146247859Y-114757180D01*
X146293278Y-114726832D01*
X146346854Y-114716175D01*
X146686854Y-114716175D01*
X146740430Y-114726832D01*
G37*
G36*
X149306430Y-114640832D02*
G01*
X149351849Y-114671180D01*
X149382197Y-114716599D01*
X149392854Y-114770175D01*
X149392854Y-115110175D01*
X149382197Y-115163751D01*
X149351849Y-115209170D01*
X149306430Y-115239518D01*
X149252854Y-115250175D01*
X148972854Y-115250175D01*
X148919278Y-115239518D01*
X148873859Y-115209170D01*
X148843511Y-115163751D01*
X148832854Y-115110175D01*
X148832854Y-114770175D01*
X148843511Y-114716599D01*
X148873859Y-114671180D01*
X148919278Y-114640832D01*
X148972854Y-114630175D01*
X149252854Y-114630175D01*
X149306430Y-114640832D01*
G37*
G36*
X150266430Y-114640832D02*
G01*
X150311849Y-114671180D01*
X150342197Y-114716599D01*
X150352854Y-114770175D01*
X150352854Y-115110175D01*
X150342197Y-115163751D01*
X150311849Y-115209170D01*
X150266430Y-115239518D01*
X150212854Y-115250175D01*
X149932854Y-115250175D01*
X149879278Y-115239518D01*
X149833859Y-115209170D01*
X149803511Y-115163751D01*
X149792854Y-115110175D01*
X149792854Y-114770175D01*
X149803511Y-114716599D01*
X149833859Y-114671180D01*
X149879278Y-114640832D01*
X149932854Y-114630175D01*
X150212854Y-114630175D01*
X150266430Y-114640832D01*
G37*
G36*
X152763662Y-114166950D02*
G01*
X152807459Y-114196215D01*
X152836724Y-114240012D01*
X152847000Y-114291674D01*
X152847000Y-114561674D01*
X152836724Y-114613336D01*
X152807459Y-114657133D01*
X152763662Y-114686398D01*
X152712000Y-114696674D01*
X152342000Y-114696674D01*
X152290338Y-114686398D01*
X152246541Y-114657133D01*
X152217276Y-114613336D01*
X152207000Y-114561674D01*
X152207000Y-114291674D01*
X152217276Y-114240012D01*
X152246541Y-114196215D01*
X152290338Y-114166950D01*
X152342000Y-114156674D01*
X152712000Y-114156674D01*
X152763662Y-114166950D01*
G37*
G36*
X149293516Y-113664951D02*
G01*
X149337313Y-113694216D01*
X149366578Y-113738013D01*
X149376854Y-113789675D01*
X149376854Y-114059675D01*
X149366578Y-114111337D01*
X149337313Y-114155134D01*
X149293516Y-114184399D01*
X149241854Y-114194675D01*
X148871854Y-114194675D01*
X148820192Y-114184399D01*
X148776395Y-114155134D01*
X148747130Y-114111337D01*
X148736854Y-114059675D01*
X148736854Y-113789675D01*
X148747130Y-113738013D01*
X148776395Y-113694216D01*
X148820192Y-113664951D01*
X148871854Y-113654675D01*
X149241854Y-113654675D01*
X149293516Y-113664951D01*
G37*
G36*
X152763662Y-113146950D02*
G01*
X152807459Y-113176215D01*
X152836724Y-113220012D01*
X152847000Y-113271674D01*
X152847000Y-113541674D01*
X152836724Y-113593336D01*
X152807459Y-113637133D01*
X152763662Y-113666398D01*
X152712000Y-113676674D01*
X152342000Y-113676674D01*
X152290338Y-113666398D01*
X152246541Y-113637133D01*
X152217276Y-113593336D01*
X152207000Y-113541674D01*
X152207000Y-113271674D01*
X152217276Y-113220012D01*
X152246541Y-113176215D01*
X152290338Y-113146950D01*
X152342000Y-113136674D01*
X152712000Y-113136674D01*
X152763662Y-113146950D01*
G37*
G36*
X128396742Y-111966601D02*
G01*
X128550687Y-112030367D01*
X128689234Y-112122941D01*
X128807059Y-112240766D01*
X128899633Y-112379313D01*
X128963399Y-112533258D01*
X128995907Y-112696685D01*
X128995907Y-112863315D01*
X128963399Y-113026742D01*
X128899633Y-113180687D01*
X128807059Y-113319234D01*
X128689234Y-113437059D01*
X128550687Y-113529633D01*
X128396742Y-113593399D01*
X128233315Y-113625907D01*
X128066685Y-113625907D01*
X127903258Y-113593399D01*
X127749313Y-113529633D01*
X127610766Y-113437059D01*
X127492941Y-113319234D01*
X127400367Y-113180687D01*
X127336601Y-113026742D01*
X127304093Y-112863315D01*
X127304093Y-112696685D01*
X127336601Y-112533258D01*
X127400367Y-112379313D01*
X127492941Y-112240766D01*
X127610766Y-112122941D01*
X127749313Y-112030367D01*
X127903258Y-111966601D01*
X128066685Y-111934093D01*
X128233315Y-111934093D01*
X128396742Y-111966601D01*
G37*
G36*
X149293516Y-112644951D02*
G01*
X149337313Y-112674216D01*
X149366578Y-112718013D01*
X149376854Y-112769675D01*
X149376854Y-113039675D01*
X149366578Y-113091337D01*
X149337313Y-113135134D01*
X149293516Y-113164399D01*
X149241854Y-113174675D01*
X148871854Y-113174675D01*
X148820192Y-113164399D01*
X148776395Y-113135134D01*
X148747130Y-113091337D01*
X148736854Y-113039675D01*
X148736854Y-112769675D01*
X148747130Y-112718013D01*
X148776395Y-112674216D01*
X148820192Y-112644951D01*
X148871854Y-112634675D01*
X149241854Y-112634675D01*
X149293516Y-112644951D01*
G37*
G36*
X128396742Y-109426601D02*
G01*
X128550687Y-109490367D01*
X128689234Y-109582941D01*
X128807059Y-109700766D01*
X128899633Y-109839313D01*
X128963399Y-109993258D01*
X128995907Y-110156685D01*
X128995907Y-110323315D01*
X128963399Y-110486742D01*
X128899633Y-110640687D01*
X128807059Y-110779234D01*
X128689234Y-110897059D01*
X128550687Y-110989633D01*
X128396742Y-111053399D01*
X128233315Y-111085907D01*
X128066685Y-111085907D01*
X127903258Y-111053399D01*
X127749313Y-110989633D01*
X127610766Y-110897059D01*
X127492941Y-110779234D01*
X127400367Y-110640687D01*
X127336601Y-110486742D01*
X127304093Y-110323315D01*
X127304093Y-110156685D01*
X127336601Y-109993258D01*
X127400367Y-109839313D01*
X127492941Y-109700766D01*
X127610766Y-109582941D01*
X127749313Y-109490367D01*
X127903258Y-109426601D01*
X128066685Y-109394093D01*
X128233315Y-109394093D01*
X128396742Y-109426601D01*
G37*
G36*
X128396742Y-106886601D02*
G01*
X128550687Y-106950367D01*
X128689234Y-107042941D01*
X128807059Y-107160766D01*
X128899633Y-107299313D01*
X128963399Y-107453258D01*
X128995907Y-107616685D01*
X128995907Y-107783315D01*
X128963399Y-107946742D01*
X128899633Y-108100687D01*
X128807059Y-108239234D01*
X128689234Y-108357059D01*
X128550687Y-108449633D01*
X128396742Y-108513399D01*
X128233315Y-108545907D01*
X128066685Y-108545907D01*
X127903258Y-108513399D01*
X127749313Y-108449633D01*
X127610766Y-108357059D01*
X127492941Y-108239234D01*
X127400367Y-108100687D01*
X127336601Y-107946742D01*
X127304093Y-107783315D01*
X127304093Y-107616685D01*
X127336601Y-107453258D01*
X127400367Y-107299313D01*
X127492941Y-107160766D01*
X127610766Y-107042941D01*
X127749313Y-106950367D01*
X127903258Y-106886601D01*
X128066685Y-106854093D01*
X128233315Y-106854093D01*
X128396742Y-106886601D01*
G37*
G36*
X128396742Y-104346601D02*
G01*
X128550687Y-104410367D01*
X128689234Y-104502941D01*
X128807059Y-104620766D01*
X128899633Y-104759313D01*
X128963399Y-104913258D01*
X128995907Y-105076685D01*
X128995907Y-105243315D01*
X128963399Y-105406742D01*
X128899633Y-105560687D01*
X128807059Y-105699234D01*
X128689234Y-105817059D01*
X128550687Y-105909633D01*
X128396742Y-105973399D01*
X128233315Y-106005907D01*
X128066685Y-106005907D01*
X127903258Y-105973399D01*
X127749313Y-105909633D01*
X127610766Y-105817059D01*
X127492941Y-105699234D01*
X127400367Y-105560687D01*
X127336601Y-105406742D01*
X127304093Y-105243315D01*
X127304093Y-105076685D01*
X127336601Y-104913258D01*
X127400367Y-104759313D01*
X127492941Y-104620766D01*
X127610766Y-104502941D01*
X127749313Y-104410367D01*
X127903258Y-104346601D01*
X128066685Y-104314093D01*
X128233315Y-104314093D01*
X128396742Y-104346601D01*
G37*
G36*
X128396742Y-101806601D02*
G01*
X128550687Y-101870367D01*
X128689234Y-101962941D01*
X128807059Y-102080766D01*
X128899633Y-102219313D01*
X128963399Y-102373258D01*
X128995907Y-102536685D01*
X128995907Y-102703315D01*
X128963399Y-102866742D01*
X128899633Y-103020687D01*
X128807059Y-103159234D01*
X128689234Y-103277059D01*
X128550687Y-103369633D01*
X128396742Y-103433399D01*
X128233315Y-103465907D01*
X128066685Y-103465907D01*
X127903258Y-103433399D01*
X127749313Y-103369633D01*
X127610766Y-103277059D01*
X127492941Y-103159234D01*
X127400367Y-103020687D01*
X127336601Y-102866742D01*
X127304093Y-102703315D01*
X127304093Y-102536685D01*
X127336601Y-102373258D01*
X127400367Y-102219313D01*
X127492941Y-102080766D01*
X127610766Y-101962941D01*
X127749313Y-101870367D01*
X127903258Y-101806601D01*
X128066685Y-101774093D01*
X128233315Y-101774093D01*
X128396742Y-101806601D01*
G37*
G36*
X132900403Y-100168418D02*
G01*
X132949066Y-100200934D01*
X132981582Y-100249597D01*
X132993000Y-100307000D01*
X132993000Y-100607000D01*
X132981582Y-100664403D01*
X132949066Y-100713066D01*
X132900403Y-100745582D01*
X132843000Y-100757000D01*
X131193000Y-100757000D01*
X131135597Y-100745582D01*
X131086934Y-100713066D01*
X131054418Y-100664403D01*
X131043000Y-100607000D01*
X131043000Y-100307000D01*
X131054418Y-100249597D01*
X131086934Y-100200934D01*
X131135597Y-100168418D01*
X131193000Y-100157000D01*
X132843000Y-100157000D01*
X132900403Y-100168418D01*
G37*
G36*
X137850403Y-100168418D02*
G01*
X137899066Y-100200934D01*
X137931582Y-100249597D01*
X137943000Y-100307000D01*
X137943000Y-100607000D01*
X137931582Y-100664403D01*
X137899066Y-100713066D01*
X137850403Y-100745582D01*
X137793000Y-100757000D01*
X136143000Y-100757000D01*
X136085597Y-100745582D01*
X136036934Y-100713066D01*
X136004418Y-100664403D01*
X135993000Y-100607000D01*
X135993000Y-100307000D01*
X136004418Y-100249597D01*
X136036934Y-100200934D01*
X136085597Y-100168418D01*
X136143000Y-100157000D01*
X137793000Y-100157000D01*
X137850403Y-100168418D01*
G37*
G36*
X132900403Y-98898418D02*
G01*
X132949066Y-98930934D01*
X132981582Y-98979597D01*
X132993000Y-99037000D01*
X132993000Y-99337000D01*
X132981582Y-99394403D01*
X132949066Y-99443066D01*
X132900403Y-99475582D01*
X132843000Y-99487000D01*
X131193000Y-99487000D01*
X131135597Y-99475582D01*
X131086934Y-99443066D01*
X131054418Y-99394403D01*
X131043000Y-99337000D01*
X131043000Y-99037000D01*
X131054418Y-98979597D01*
X131086934Y-98930934D01*
X131135597Y-98898418D01*
X131193000Y-98887000D01*
X132843000Y-98887000D01*
X132900403Y-98898418D01*
G37*
G36*
X137850403Y-98898418D02*
G01*
X137899066Y-98930934D01*
X137931582Y-98979597D01*
X137943000Y-99037000D01*
X137943000Y-99337000D01*
X137931582Y-99394403D01*
X137899066Y-99443066D01*
X137850403Y-99475582D01*
X137793000Y-99487000D01*
X136143000Y-99487000D01*
X136085597Y-99475582D01*
X136036934Y-99443066D01*
X136004418Y-99394403D01*
X135993000Y-99337000D01*
X135993000Y-99037000D01*
X136004418Y-98979597D01*
X136036934Y-98930934D01*
X136085597Y-98898418D01*
X136143000Y-98887000D01*
X137793000Y-98887000D01*
X137850403Y-98898418D01*
G37*
G36*
X157869900Y-98300900D02*
G01*
X156880100Y-98300900D01*
X156880100Y-97492900D01*
X157869900Y-97492900D01*
X157869900Y-98300900D01*
G37*
G36*
X155269900Y-98275900D02*
G01*
X154280100Y-98275900D01*
X154280100Y-97467900D01*
X155269900Y-97467900D01*
X155269900Y-98275900D01*
G37*
G36*
X132900403Y-97628418D02*
G01*
X132949066Y-97660934D01*
X132981582Y-97709597D01*
X132993000Y-97767000D01*
X132993000Y-98067000D01*
X132981582Y-98124403D01*
X132949066Y-98173066D01*
X132900403Y-98205582D01*
X132843000Y-98217000D01*
X131193000Y-98217000D01*
X131135597Y-98205582D01*
X131086934Y-98173066D01*
X131054418Y-98124403D01*
X131043000Y-98067000D01*
X131043000Y-97767000D01*
X131054418Y-97709597D01*
X131086934Y-97660934D01*
X131135597Y-97628418D01*
X131193000Y-97617000D01*
X132843000Y-97617000D01*
X132900403Y-97628418D01*
G37*
G36*
X137850403Y-97628418D02*
G01*
X137899066Y-97660934D01*
X137931582Y-97709597D01*
X137943000Y-97767000D01*
X137943000Y-98067000D01*
X137931582Y-98124403D01*
X137899066Y-98173066D01*
X137850403Y-98205582D01*
X137793000Y-98217000D01*
X136143000Y-98217000D01*
X136085597Y-98205582D01*
X136036934Y-98173066D01*
X136004418Y-98124403D01*
X135993000Y-98067000D01*
X135993000Y-97767000D01*
X136004418Y-97709597D01*
X136036934Y-97660934D01*
X136085597Y-97628418D01*
X136143000Y-97617000D01*
X137793000Y-97617000D01*
X137850403Y-97628418D01*
G37*
G36*
X150099500Y-97903579D02*
G01*
X149096200Y-97903579D01*
X149096200Y-97446379D01*
X150099500Y-97446379D01*
X150099500Y-97903579D01*
G37*
G36*
X152753800Y-97903579D02*
G01*
X151750500Y-97903579D01*
X151750500Y-97446379D01*
X152753800Y-97446379D01*
X152753800Y-97903579D01*
G37*
G36*
X143044900Y-97825900D02*
G01*
X142055100Y-97825900D01*
X142055100Y-97017900D01*
X143044900Y-97017900D01*
X143044900Y-97825900D01*
G37*
G36*
X145569900Y-97775900D02*
G01*
X144580100Y-97775900D01*
X144580100Y-96967900D01*
X145569900Y-96967900D01*
X145569900Y-97775900D01*
G37*
G36*
X148030000Y-97625000D02*
G01*
X147070000Y-97625000D01*
X147070000Y-96775000D01*
X148030000Y-96775000D01*
X148030000Y-97625000D01*
G37*
G36*
X150099500Y-97253593D02*
G01*
X149096200Y-97253593D01*
X149096200Y-96796393D01*
X150099500Y-96796393D01*
X150099500Y-97253593D01*
G37*
G36*
X152753800Y-97253593D02*
G01*
X151750500Y-97253593D01*
X151750500Y-96796393D01*
X152753800Y-96796393D01*
X152753800Y-97253593D01*
G37*
G36*
X132900403Y-96358418D02*
G01*
X132949066Y-96390934D01*
X132981582Y-96439597D01*
X132993000Y-96497000D01*
X132993000Y-96797000D01*
X132981582Y-96854403D01*
X132949066Y-96903066D01*
X132900403Y-96935582D01*
X132843000Y-96947000D01*
X131193000Y-96947000D01*
X131135597Y-96935582D01*
X131086934Y-96903066D01*
X131054418Y-96854403D01*
X131043000Y-96797000D01*
X131043000Y-96497000D01*
X131054418Y-96439597D01*
X131086934Y-96390934D01*
X131135597Y-96358418D01*
X131193000Y-96347000D01*
X132843000Y-96347000D01*
X132900403Y-96358418D01*
G37*
G36*
X137850403Y-96358418D02*
G01*
X137899066Y-96390934D01*
X137931582Y-96439597D01*
X137943000Y-96497000D01*
X137943000Y-96797000D01*
X137931582Y-96854403D01*
X137899066Y-96903066D01*
X137850403Y-96935582D01*
X137793000Y-96947000D01*
X136143000Y-96947000D01*
X136085597Y-96935582D01*
X136036934Y-96903066D01*
X136004418Y-96854403D01*
X135993000Y-96797000D01*
X135993000Y-96497000D01*
X136004418Y-96439597D01*
X136036934Y-96390934D01*
X136085597Y-96358418D01*
X136143000Y-96347000D01*
X137793000Y-96347000D01*
X137850403Y-96358418D01*
G37*
G36*
X157869900Y-96807100D02*
G01*
X156880100Y-96807100D01*
X156880100Y-95999100D01*
X157869900Y-95999100D01*
X157869900Y-96807100D01*
G37*
G36*
X155269900Y-96782100D02*
G01*
X154280100Y-96782100D01*
X154280100Y-95974100D01*
X155269900Y-95974100D01*
X155269900Y-96782100D01*
G37*
G36*
X150099500Y-96603607D02*
G01*
X149096200Y-96603607D01*
X149096200Y-96146407D01*
X150099500Y-96146407D01*
X150099500Y-96603607D01*
G37*
G36*
X152753800Y-96603607D02*
G01*
X151750500Y-96603607D01*
X151750500Y-96146407D01*
X152753800Y-96146407D01*
X152753800Y-96603607D01*
G37*
G36*
X143044900Y-96332100D02*
G01*
X142055100Y-96332100D01*
X142055100Y-95524100D01*
X143044900Y-95524100D01*
X143044900Y-96332100D01*
G37*
G36*
X145569900Y-96282100D02*
G01*
X144580100Y-96282100D01*
X144580100Y-95474100D01*
X145569900Y-95474100D01*
X145569900Y-96282100D01*
G37*
G36*
X148030000Y-96025000D02*
G01*
X147070000Y-96025000D01*
X147070000Y-95175000D01*
X148030000Y-95175000D01*
X148030000Y-96025000D01*
G37*
G36*
X150099500Y-95953621D02*
G01*
X149096200Y-95953621D01*
X149096200Y-95496421D01*
X150099500Y-95496421D01*
X150099500Y-95953621D01*
G37*
G36*
X152753800Y-95953621D02*
G01*
X151750500Y-95953621D01*
X151750500Y-95496421D01*
X152753800Y-95496421D01*
X152753800Y-95953621D01*
G37*
G36*
X132900403Y-95088418D02*
G01*
X132949066Y-95120934D01*
X132981582Y-95169597D01*
X132993000Y-95227000D01*
X132993000Y-95527000D01*
X132981582Y-95584403D01*
X132949066Y-95633066D01*
X132900403Y-95665582D01*
X132843000Y-95677000D01*
X131193000Y-95677000D01*
X131135597Y-95665582D01*
X131086934Y-95633066D01*
X131054418Y-95584403D01*
X131043000Y-95527000D01*
X131043000Y-95227000D01*
X131054418Y-95169597D01*
X131086934Y-95120934D01*
X131135597Y-95088418D01*
X131193000Y-95077000D01*
X132843000Y-95077000D01*
X132900403Y-95088418D01*
G37*
G36*
X137850403Y-95088418D02*
G01*
X137899066Y-95120934D01*
X137931582Y-95169597D01*
X137943000Y-95227000D01*
X137943000Y-95527000D01*
X137931582Y-95584403D01*
X137899066Y-95633066D01*
X137850403Y-95665582D01*
X137793000Y-95677000D01*
X136143000Y-95677000D01*
X136085597Y-95665582D01*
X136036934Y-95633066D01*
X136004418Y-95584403D01*
X135993000Y-95527000D01*
X135993000Y-95227000D01*
X136004418Y-95169597D01*
X136036934Y-95120934D01*
X136085597Y-95088418D01*
X136143000Y-95077000D01*
X137793000Y-95077000D01*
X137850403Y-95088418D01*
G37*
G36*
X132900403Y-93818418D02*
G01*
X132949066Y-93850934D01*
X132981582Y-93899597D01*
X132993000Y-93957000D01*
X132993000Y-94257000D01*
X132981582Y-94314403D01*
X132949066Y-94363066D01*
X132900403Y-94395582D01*
X132843000Y-94407000D01*
X131193000Y-94407000D01*
X131135597Y-94395582D01*
X131086934Y-94363066D01*
X131054418Y-94314403D01*
X131043000Y-94257000D01*
X131043000Y-93957000D01*
X131054418Y-93899597D01*
X131086934Y-93850934D01*
X131135597Y-93818418D01*
X131193000Y-93807000D01*
X132843000Y-93807000D01*
X132900403Y-93818418D01*
G37*
G36*
X137850403Y-93818418D02*
G01*
X137899066Y-93850934D01*
X137931582Y-93899597D01*
X137943000Y-93957000D01*
X137943000Y-94257000D01*
X137931582Y-94314403D01*
X137899066Y-94363066D01*
X137850403Y-94395582D01*
X137793000Y-94407000D01*
X136143000Y-94407000D01*
X136085597Y-94395582D01*
X136036934Y-94363066D01*
X136004418Y-94314403D01*
X135993000Y-94257000D01*
X135993000Y-93957000D01*
X136004418Y-93899597D01*
X136036934Y-93850934D01*
X136085597Y-93818418D01*
X136143000Y-93807000D01*
X137793000Y-93807000D01*
X137850403Y-93818418D01*
G37*
G36*
X150405000Y-93825000D02*
G01*
X149445000Y-93825000D01*
X149445000Y-92975000D01*
X150405000Y-92975000D01*
X150405000Y-93825000D01*
G37*
G36*
X154955000Y-93800000D02*
G01*
X153995000Y-93800000D01*
X153995000Y-92950000D01*
X154955000Y-92950000D01*
X154955000Y-93800000D01*
G37*
G36*
X143594900Y-93775900D02*
G01*
X142605100Y-93775900D01*
X142605100Y-92967900D01*
X143594900Y-92967900D01*
X143594900Y-93775900D01*
G37*
G36*
X145930000Y-93725000D02*
G01*
X144970000Y-93725000D01*
X144970000Y-92875000D01*
X145930000Y-92875000D01*
X145930000Y-93725000D01*
G37*
G36*
X148169900Y-93675900D02*
G01*
X147180100Y-93675900D01*
X147180100Y-92867900D01*
X148169900Y-92867900D01*
X148169900Y-93675900D01*
G37*
G36*
X152744900Y-93650900D02*
G01*
X151755100Y-93650900D01*
X151755100Y-92842900D01*
X152744900Y-92842900D01*
X152744900Y-93650900D01*
G37*
G36*
X157169900Y-93625900D02*
G01*
X156180100Y-93625900D01*
X156180100Y-92817900D01*
X157169900Y-92817900D01*
X157169900Y-93625900D01*
G37*
G36*
X159694900Y-93550900D02*
G01*
X158705100Y-93550900D01*
X158705100Y-92742900D01*
X159694900Y-92742900D01*
X159694900Y-93550900D01*
G37*
G36*
X132900403Y-92548418D02*
G01*
X132949066Y-92580934D01*
X132981582Y-92629597D01*
X132993000Y-92687000D01*
X132993000Y-92987000D01*
X132981582Y-93044403D01*
X132949066Y-93093066D01*
X132900403Y-93125582D01*
X132843000Y-93137000D01*
X131193000Y-93137000D01*
X131135597Y-93125582D01*
X131086934Y-93093066D01*
X131054418Y-93044403D01*
X131043000Y-92987000D01*
X131043000Y-92687000D01*
X131054418Y-92629597D01*
X131086934Y-92580934D01*
X131135597Y-92548418D01*
X131193000Y-92537000D01*
X132843000Y-92537000D01*
X132900403Y-92548418D01*
G37*
G36*
X137850403Y-92548418D02*
G01*
X137899066Y-92580934D01*
X137931582Y-92629597D01*
X137943000Y-92687000D01*
X137943000Y-92987000D01*
X137931582Y-93044403D01*
X137899066Y-93093066D01*
X137850403Y-93125582D01*
X137793000Y-93137000D01*
X136143000Y-93137000D01*
X136085597Y-93125582D01*
X136036934Y-93093066D01*
X136004418Y-93044403D01*
X135993000Y-92987000D01*
X135993000Y-92687000D01*
X136004418Y-92629597D01*
X136036934Y-92580934D01*
X136085597Y-92548418D01*
X136143000Y-92537000D01*
X137793000Y-92537000D01*
X137850403Y-92548418D01*
G37*
G36*
X143594900Y-92282100D02*
G01*
X142605100Y-92282100D01*
X142605100Y-91474100D01*
X143594900Y-91474100D01*
X143594900Y-92282100D01*
G37*
G36*
X150405000Y-92225000D02*
G01*
X149445000Y-92225000D01*
X149445000Y-91375000D01*
X150405000Y-91375000D01*
X150405000Y-92225000D01*
G37*
G36*
X154955000Y-92200000D02*
G01*
X153995000Y-92200000D01*
X153995000Y-91350000D01*
X154955000Y-91350000D01*
X154955000Y-92200000D01*
G37*
G36*
X148169900Y-92182100D02*
G01*
X147180100Y-92182100D01*
X147180100Y-91374100D01*
X148169900Y-91374100D01*
X148169900Y-92182100D01*
G37*
G36*
X152744900Y-92157100D02*
G01*
X151755100Y-92157100D01*
X151755100Y-91349100D01*
X152744900Y-91349100D01*
X152744900Y-92157100D01*
G37*
G36*
X157169900Y-92132100D02*
G01*
X156180100Y-92132100D01*
X156180100Y-91324100D01*
X157169900Y-91324100D01*
X157169900Y-92132100D01*
G37*
G36*
X145930000Y-92125000D02*
G01*
X144970000Y-92125000D01*
X144970000Y-91275000D01*
X145930000Y-91275000D01*
X145930000Y-92125000D01*
G37*
G36*
X159694900Y-92057100D02*
G01*
X158705100Y-92057100D01*
X158705100Y-91249100D01*
X159694900Y-91249100D01*
X159694900Y-92057100D01*
G37*
G36*
X132900403Y-91278418D02*
G01*
X132949066Y-91310934D01*
X132981582Y-91359597D01*
X132993000Y-91417000D01*
X132993000Y-91717000D01*
X132981582Y-91774403D01*
X132949066Y-91823066D01*
X132900403Y-91855582D01*
X132843000Y-91867000D01*
X131193000Y-91867000D01*
X131135597Y-91855582D01*
X131086934Y-91823066D01*
X131054418Y-91774403D01*
X131043000Y-91717000D01*
X131043000Y-91417000D01*
X131054418Y-91359597D01*
X131086934Y-91310934D01*
X131135597Y-91278418D01*
X131193000Y-91267000D01*
X132843000Y-91267000D01*
X132900403Y-91278418D01*
G37*
G36*
X137850403Y-91278418D02*
G01*
X137899066Y-91310934D01*
X137931582Y-91359597D01*
X137943000Y-91417000D01*
X137943000Y-91717000D01*
X137931582Y-91774403D01*
X137899066Y-91823066D01*
X137850403Y-91855582D01*
X137793000Y-91867000D01*
X136143000Y-91867000D01*
X136085597Y-91855582D01*
X136036934Y-91823066D01*
X136004418Y-91774403D01*
X135993000Y-91717000D01*
X135993000Y-91417000D01*
X136004418Y-91359597D01*
X136036934Y-91310934D01*
X136085597Y-91278418D01*
X136143000Y-91267000D01*
X137793000Y-91267000D01*
X137850403Y-91278418D01*
G37*
G36*
X129507576Y-90632657D02*
G01*
X129552995Y-90663005D01*
X129583343Y-90708424D01*
X129594000Y-90762000D01*
X129594000Y-91102000D01*
X129583343Y-91155576D01*
X129552995Y-91200995D01*
X129507576Y-91231343D01*
X129454000Y-91242000D01*
X129174000Y-91242000D01*
X129120424Y-91231343D01*
X129075005Y-91200995D01*
X129044657Y-91155576D01*
X129034000Y-91102000D01*
X129034000Y-90762000D01*
X129044657Y-90708424D01*
X129075005Y-90663005D01*
X129120424Y-90632657D01*
X129174000Y-90622000D01*
X129454000Y-90622000D01*
X129507576Y-90632657D01*
G37*
G36*
X130467576Y-90632657D02*
G01*
X130512995Y-90663005D01*
X130543343Y-90708424D01*
X130554000Y-90762000D01*
X130554000Y-91102000D01*
X130543343Y-91155576D01*
X130512995Y-91200995D01*
X130467576Y-91231343D01*
X130414000Y-91242000D01*
X130134000Y-91242000D01*
X130080424Y-91231343D01*
X130035005Y-91200995D01*
X130004657Y-91155576D01*
X129994000Y-91102000D01*
X129994000Y-90762000D01*
X130004657Y-90708424D01*
X130035005Y-90663005D01*
X130080424Y-90632657D01*
X130134000Y-90622000D01*
X130414000Y-90622000D01*
X130467576Y-90632657D01*
G37*
G36*
X146881500Y-90012579D02*
G01*
X145878200Y-90012579D01*
X145878200Y-89555379D01*
X146881500Y-89555379D01*
X146881500Y-90012579D01*
G37*
G36*
X149535800Y-90012579D02*
G01*
X148532500Y-90012579D01*
X148532500Y-89555379D01*
X149535800Y-89555379D01*
X149535800Y-90012579D01*
G37*
G36*
X156792150Y-89976778D02*
G01*
X155832150Y-89976778D01*
X155832150Y-89126778D01*
X156792150Y-89126778D01*
X156792150Y-89976778D01*
G37*
G36*
X142769900Y-89975900D02*
G01*
X141780100Y-89975900D01*
X141780100Y-89167900D01*
X142769900Y-89167900D01*
X142769900Y-89975900D01*
G37*
G36*
X129787403Y-88992418D02*
G01*
X129836066Y-89024934D01*
X129868582Y-89073597D01*
X129880000Y-89131000D01*
X129880000Y-89431000D01*
X129868582Y-89488403D01*
X129836066Y-89537066D01*
X129787403Y-89569582D01*
X129730000Y-89581000D01*
X128080000Y-89581000D01*
X128022597Y-89569582D01*
X127973934Y-89537066D01*
X127941418Y-89488403D01*
X127930000Y-89431000D01*
X127930000Y-89131000D01*
X127941418Y-89073597D01*
X127973934Y-89024934D01*
X128022597Y-88992418D01*
X128080000Y-88981000D01*
X129730000Y-88981000D01*
X129787403Y-88992418D01*
G37*
G36*
X134737403Y-88992418D02*
G01*
X134786066Y-89024934D01*
X134818582Y-89073597D01*
X134830000Y-89131000D01*
X134830000Y-89431000D01*
X134818582Y-89488403D01*
X134786066Y-89537066D01*
X134737403Y-89569582D01*
X134680000Y-89581000D01*
X133030000Y-89581000D01*
X132972597Y-89569582D01*
X132923934Y-89537066D01*
X132891418Y-89488403D01*
X132880000Y-89431000D01*
X132880000Y-89131000D01*
X132891418Y-89073597D01*
X132923934Y-89024934D01*
X132972597Y-88992418D01*
X133030000Y-88981000D01*
X134680000Y-88981000D01*
X134737403Y-88992418D01*
G37*
G36*
X146881500Y-89362593D02*
G01*
X145878200Y-89362593D01*
X145878200Y-88905393D01*
X146881500Y-88905393D01*
X146881500Y-89362593D01*
G37*
G36*
X149535800Y-89362593D02*
G01*
X148532500Y-89362593D01*
X148532500Y-88905393D01*
X149535800Y-88905393D01*
X149535800Y-89362593D01*
G37*
G36*
X146881500Y-88712607D02*
G01*
X145878200Y-88712607D01*
X145878200Y-88255407D01*
X146881500Y-88255407D01*
X146881500Y-88712607D01*
G37*
G36*
X149535800Y-88712607D02*
G01*
X148532500Y-88712607D01*
X148532500Y-88255407D01*
X149535800Y-88255407D01*
X149535800Y-88712607D01*
G37*
G36*
X151600000Y-88655000D02*
G01*
X150750000Y-88655000D01*
X150750000Y-87695000D01*
X151600000Y-87695000D01*
X151600000Y-88655000D01*
G37*
G36*
X153200000Y-88655000D02*
G01*
X152350000Y-88655000D01*
X152350000Y-87695000D01*
X153200000Y-87695000D01*
X153200000Y-88655000D01*
G37*
G36*
X142769900Y-88482100D02*
G01*
X141780100Y-88482100D01*
X141780100Y-87674100D01*
X142769900Y-87674100D01*
X142769900Y-88482100D01*
G37*
G36*
X156792150Y-88376778D02*
G01*
X155832150Y-88376778D01*
X155832150Y-87526778D01*
X156792150Y-87526778D01*
X156792150Y-88376778D01*
G37*
G36*
X129787403Y-87722418D02*
G01*
X129836066Y-87754934D01*
X129868582Y-87803597D01*
X129880000Y-87861000D01*
X129880000Y-88161000D01*
X129868582Y-88218403D01*
X129836066Y-88267066D01*
X129787403Y-88299582D01*
X129730000Y-88311000D01*
X128080000Y-88311000D01*
X128022597Y-88299582D01*
X127973934Y-88267066D01*
X127941418Y-88218403D01*
X127930000Y-88161000D01*
X127930000Y-87861000D01*
X127941418Y-87803597D01*
X127973934Y-87754934D01*
X128022597Y-87722418D01*
X128080000Y-87711000D01*
X129730000Y-87711000D01*
X129787403Y-87722418D01*
G37*
G36*
X134737403Y-87722418D02*
G01*
X134786066Y-87754934D01*
X134818582Y-87803597D01*
X134830000Y-87861000D01*
X134830000Y-88161000D01*
X134818582Y-88218403D01*
X134786066Y-88267066D01*
X134737403Y-88299582D01*
X134680000Y-88311000D01*
X133030000Y-88311000D01*
X132972597Y-88299582D01*
X132923934Y-88267066D01*
X132891418Y-88218403D01*
X132880000Y-88161000D01*
X132880000Y-87861000D01*
X132891418Y-87803597D01*
X132923934Y-87754934D01*
X132972597Y-87722418D01*
X133030000Y-87711000D01*
X134680000Y-87711000D01*
X134737403Y-87722418D01*
G37*
G36*
X146881500Y-88062621D02*
G01*
X145878200Y-88062621D01*
X145878200Y-87605421D01*
X146881500Y-87605421D01*
X146881500Y-88062621D01*
G37*
G36*
X149535800Y-88062621D02*
G01*
X148532500Y-88062621D01*
X148532500Y-87605421D01*
X149535800Y-87605421D01*
X149535800Y-88062621D01*
G37*
G36*
X144885000Y-87844000D02*
G01*
X143925000Y-87844000D01*
X143925000Y-86994000D01*
X144885000Y-86994000D01*
X144885000Y-87844000D01*
G37*
G36*
X129787403Y-86452418D02*
G01*
X129836066Y-86484934D01*
X129868582Y-86533597D01*
X129880000Y-86591000D01*
X129880000Y-86891000D01*
X129868582Y-86948403D01*
X129836066Y-86997066D01*
X129787403Y-87029582D01*
X129730000Y-87041000D01*
X128080000Y-87041000D01*
X128022597Y-87029582D01*
X127973934Y-86997066D01*
X127941418Y-86948403D01*
X127930000Y-86891000D01*
X127930000Y-86591000D01*
X127941418Y-86533597D01*
X127973934Y-86484934D01*
X128022597Y-86452418D01*
X128080000Y-86441000D01*
X129730000Y-86441000D01*
X129787403Y-86452418D01*
G37*
G36*
X134737403Y-86452418D02*
G01*
X134786066Y-86484934D01*
X134818582Y-86533597D01*
X134830000Y-86591000D01*
X134830000Y-86891000D01*
X134818582Y-86948403D01*
X134786066Y-86997066D01*
X134737403Y-87029582D01*
X134680000Y-87041000D01*
X133030000Y-87041000D01*
X132972597Y-87029582D01*
X132923934Y-86997066D01*
X132891418Y-86948403D01*
X132880000Y-86891000D01*
X132880000Y-86591000D01*
X132891418Y-86533597D01*
X132923934Y-86484934D01*
X132972597Y-86452418D01*
X133030000Y-86441000D01*
X134680000Y-86441000D01*
X134737403Y-86452418D01*
G37*
G36*
X151482100Y-86519900D02*
G01*
X150674100Y-86519900D01*
X150674100Y-85530100D01*
X151482100Y-85530100D01*
X151482100Y-86519900D01*
G37*
G36*
X152975900Y-86519900D02*
G01*
X152167900Y-86519900D01*
X152167900Y-85530100D01*
X152975900Y-85530100D01*
X152975900Y-86519900D01*
G37*
G36*
X144885000Y-86244000D02*
G01*
X143925000Y-86244000D01*
X143925000Y-85394000D01*
X144885000Y-85394000D01*
X144885000Y-86244000D01*
G37*
G36*
X129787403Y-85182418D02*
G01*
X129836066Y-85214934D01*
X129868582Y-85263597D01*
X129880000Y-85321000D01*
X129880000Y-85621000D01*
X129868582Y-85678403D01*
X129836066Y-85727066D01*
X129787403Y-85759582D01*
X129730000Y-85771000D01*
X128080000Y-85771000D01*
X128022597Y-85759582D01*
X127973934Y-85727066D01*
X127941418Y-85678403D01*
X127930000Y-85621000D01*
X127930000Y-85321000D01*
X127941418Y-85263597D01*
X127973934Y-85214934D01*
X128022597Y-85182418D01*
X128080000Y-85171000D01*
X129730000Y-85171000D01*
X129787403Y-85182418D01*
G37*
G36*
X134737403Y-85182418D02*
G01*
X134786066Y-85214934D01*
X134818582Y-85263597D01*
X134830000Y-85321000D01*
X134830000Y-85621000D01*
X134818582Y-85678403D01*
X134786066Y-85727066D01*
X134737403Y-85759582D01*
X134680000Y-85771000D01*
X133030000Y-85771000D01*
X132972597Y-85759582D01*
X132923934Y-85727066D01*
X132891418Y-85678403D01*
X132880000Y-85621000D01*
X132880000Y-85321000D01*
X132891418Y-85263597D01*
X132923934Y-85214934D01*
X132972597Y-85182418D01*
X133030000Y-85171000D01*
X134680000Y-85171000D01*
X134737403Y-85182418D01*
G37*
G36*
X158725000Y-85330000D02*
G01*
X157875000Y-85330000D01*
X157875000Y-84370000D01*
X158725000Y-84370000D01*
X158725000Y-85330000D01*
G37*
G36*
X160325000Y-85330000D02*
G01*
X159475000Y-85330000D01*
X159475000Y-84370000D01*
X160325000Y-84370000D01*
X160325000Y-85330000D01*
G37*
G36*
X156330000Y-85250000D02*
G01*
X155370000Y-85250000D01*
X155370000Y-84400000D01*
X156330000Y-84400000D01*
X156330000Y-85250000D01*
G37*
G36*
X129787403Y-83912418D02*
G01*
X129836066Y-83944934D01*
X129868582Y-83993597D01*
X129880000Y-84051000D01*
X129880000Y-84351000D01*
X129868582Y-84408403D01*
X129836066Y-84457066D01*
X129787403Y-84489582D01*
X129730000Y-84501000D01*
X128080000Y-84501000D01*
X128022597Y-84489582D01*
X127973934Y-84457066D01*
X127941418Y-84408403D01*
X127930000Y-84351000D01*
X127930000Y-84051000D01*
X127941418Y-83993597D01*
X127973934Y-83944934D01*
X128022597Y-83912418D01*
X128080000Y-83901000D01*
X129730000Y-83901000D01*
X129787403Y-83912418D01*
G37*
G36*
X134737403Y-83912418D02*
G01*
X134786066Y-83944934D01*
X134818582Y-83993597D01*
X134830000Y-84051000D01*
X134830000Y-84351000D01*
X134818582Y-84408403D01*
X134786066Y-84457066D01*
X134737403Y-84489582D01*
X134680000Y-84501000D01*
X133030000Y-84501000D01*
X132972597Y-84489582D01*
X132923934Y-84457066D01*
X132891418Y-84408403D01*
X132880000Y-84351000D01*
X132880000Y-84051000D01*
X132891418Y-83993597D01*
X132923934Y-83944934D01*
X132972597Y-83912418D01*
X133030000Y-83901000D01*
X134680000Y-83901000D01*
X134737403Y-83912418D01*
G37*
G36*
X150000602Y-83915499D02*
G01*
X148672702Y-83915499D01*
X148672702Y-83484499D01*
X150000602Y-83484499D01*
X150000602Y-83915499D01*
G37*
G36*
X154427298Y-83915499D02*
G01*
X153099398Y-83915499D01*
X153099398Y-83484499D01*
X154427298Y-83484499D01*
X154427298Y-83915499D01*
G37*
G36*
X156330000Y-83650000D02*
G01*
X155370000Y-83650000D01*
X155370000Y-82800000D01*
X156330000Y-82800000D01*
X156330000Y-83650000D01*
G37*
G36*
X147077500Y-83500900D02*
G01*
X145122500Y-83500900D01*
X145122500Y-82595300D01*
X147077500Y-82595300D01*
X147077500Y-83500900D01*
G37*
G36*
X150000602Y-83265501D02*
G01*
X148672702Y-83265501D01*
X148672702Y-82834501D01*
X150000602Y-82834501D01*
X150000602Y-83265501D01*
G37*
G36*
X154427298Y-83265501D02*
G01*
X153099398Y-83265501D01*
X153099398Y-82834501D01*
X154427298Y-82834501D01*
X154427298Y-83265501D01*
G37*
G36*
X129787403Y-82642418D02*
G01*
X129836066Y-82674934D01*
X129868582Y-82723597D01*
X129880000Y-82781000D01*
X129880000Y-83081000D01*
X129868582Y-83138403D01*
X129836066Y-83187066D01*
X129787403Y-83219582D01*
X129730000Y-83231000D01*
X128080000Y-83231000D01*
X128022597Y-83219582D01*
X127973934Y-83187066D01*
X127941418Y-83138403D01*
X127930000Y-83081000D01*
X127930000Y-82781000D01*
X127941418Y-82723597D01*
X127973934Y-82674934D01*
X128022597Y-82642418D01*
X128080000Y-82631000D01*
X129730000Y-82631000D01*
X129787403Y-82642418D01*
G37*
G36*
X134737403Y-82642418D02*
G01*
X134786066Y-82674934D01*
X134818582Y-82723597D01*
X134830000Y-82781000D01*
X134830000Y-83081000D01*
X134818582Y-83138403D01*
X134786066Y-83187066D01*
X134737403Y-83219582D01*
X134680000Y-83231000D01*
X133030000Y-83231000D01*
X132972597Y-83219582D01*
X132923934Y-83187066D01*
X132891418Y-83138403D01*
X132880000Y-83081000D01*
X132880000Y-82781000D01*
X132891418Y-82723597D01*
X132923934Y-82674934D01*
X132972597Y-82642418D01*
X133030000Y-82631000D01*
X134680000Y-82631000D01*
X134737403Y-82642418D01*
G37*
G36*
X158732100Y-83119900D02*
G01*
X157924100Y-83119900D01*
X157924100Y-82130100D01*
X158732100Y-82130100D01*
X158732100Y-83119900D01*
G37*
G36*
X160225900Y-83119900D02*
G01*
X159417900Y-83119900D01*
X159417900Y-82130100D01*
X160225900Y-82130100D01*
X160225900Y-83119900D01*
G37*
G36*
X150000602Y-82615499D02*
G01*
X148672702Y-82615499D01*
X148672702Y-82184499D01*
X150000602Y-82184499D01*
X150000602Y-82615499D01*
G37*
G36*
X154427298Y-82615499D02*
G01*
X153099398Y-82615499D01*
X153099398Y-82184499D01*
X154427298Y-82184499D01*
X154427298Y-82615499D01*
G37*
G36*
X150000602Y-81965501D02*
G01*
X148672702Y-81965501D01*
X148672702Y-81534501D01*
X150000602Y-81534501D01*
X150000602Y-81965501D01*
G37*
G36*
X154427298Y-81965501D02*
G01*
X153099398Y-81965501D01*
X153099398Y-81534501D01*
X154427298Y-81534501D01*
X154427298Y-81965501D01*
G37*
G36*
X129787403Y-81372418D02*
G01*
X129836066Y-81404934D01*
X129868582Y-81453597D01*
X129880000Y-81511000D01*
X129880000Y-81811000D01*
X129868582Y-81868403D01*
X129836066Y-81917066D01*
X129787403Y-81949582D01*
X129730000Y-81961000D01*
X128080000Y-81961000D01*
X128022597Y-81949582D01*
X127973934Y-81917066D01*
X127941418Y-81868403D01*
X127930000Y-81811000D01*
X127930000Y-81511000D01*
X127941418Y-81453597D01*
X127973934Y-81404934D01*
X128022597Y-81372418D01*
X128080000Y-81361000D01*
X129730000Y-81361000D01*
X129787403Y-81372418D01*
G37*
G36*
X134737403Y-81372418D02*
G01*
X134786066Y-81404934D01*
X134818582Y-81453597D01*
X134830000Y-81511000D01*
X134830000Y-81811000D01*
X134818582Y-81868403D01*
X134786066Y-81917066D01*
X134737403Y-81949582D01*
X134680000Y-81961000D01*
X133030000Y-81961000D01*
X132972597Y-81949582D01*
X132923934Y-81917066D01*
X132891418Y-81868403D01*
X132880000Y-81811000D01*
X132880000Y-81511000D01*
X132891418Y-81453597D01*
X132923934Y-81404934D01*
X132972597Y-81372418D01*
X133030000Y-81361000D01*
X134680000Y-81361000D01*
X134737403Y-81372418D01*
G37*
G36*
X147077500Y-81604700D02*
G01*
X145122500Y-81604700D01*
X145122500Y-80699100D01*
X147077500Y-80699100D01*
X147077500Y-81604700D01*
G37*
G36*
X127350576Y-80982657D02*
G01*
X127395995Y-81013005D01*
X127426343Y-81058424D01*
X127437000Y-81112000D01*
X127437000Y-81392000D01*
X127426343Y-81445576D01*
X127395995Y-81490995D01*
X127350576Y-81521343D01*
X127297000Y-81532000D01*
X126957000Y-81532000D01*
X126903424Y-81521343D01*
X126858005Y-81490995D01*
X126827657Y-81445576D01*
X126817000Y-81392000D01*
X126817000Y-81112000D01*
X126827657Y-81058424D01*
X126858005Y-81013005D01*
X126903424Y-80982657D01*
X126957000Y-80972000D01*
X127297000Y-80972000D01*
X127350576Y-80982657D01*
G37*
G36*
X129787403Y-80102418D02*
G01*
X129836066Y-80134934D01*
X129868582Y-80183597D01*
X129880000Y-80241000D01*
X129880000Y-80541000D01*
X129868582Y-80598403D01*
X129836066Y-80647066D01*
X129787403Y-80679582D01*
X129730000Y-80691000D01*
X128080000Y-80691000D01*
X128022597Y-80679582D01*
X127973934Y-80647066D01*
X127941418Y-80598403D01*
X127930000Y-80541000D01*
X127930000Y-80241000D01*
X127941418Y-80183597D01*
X127973934Y-80134934D01*
X128022597Y-80102418D01*
X128080000Y-80091000D01*
X129730000Y-80091000D01*
X129787403Y-80102418D01*
G37*
G36*
X134737403Y-80102418D02*
G01*
X134786066Y-80134934D01*
X134818582Y-80183597D01*
X134830000Y-80241000D01*
X134830000Y-80541000D01*
X134818582Y-80598403D01*
X134786066Y-80647066D01*
X134737403Y-80679582D01*
X134680000Y-80691000D01*
X133030000Y-80691000D01*
X132972597Y-80679582D01*
X132923934Y-80647066D01*
X132891418Y-80598403D01*
X132880000Y-80541000D01*
X132880000Y-80241000D01*
X132891418Y-80183597D01*
X132923934Y-80134934D01*
X132972597Y-80102418D01*
X133030000Y-80091000D01*
X134680000Y-80091000D01*
X134737403Y-80102418D01*
G37*
G36*
X127350576Y-80022657D02*
G01*
X127395995Y-80053005D01*
X127426343Y-80098424D01*
X127437000Y-80152000D01*
X127437000Y-80432000D01*
X127426343Y-80485576D01*
X127395995Y-80530995D01*
X127350576Y-80561343D01*
X127297000Y-80572000D01*
X126957000Y-80572000D01*
X126903424Y-80561343D01*
X126858005Y-80530995D01*
X126827657Y-80485576D01*
X126817000Y-80432000D01*
X126817000Y-80152000D01*
X126827657Y-80098424D01*
X126858005Y-80053005D01*
X126903424Y-80022657D01*
X126957000Y-80012000D01*
X127297000Y-80012000D01*
X127350576Y-80022657D01*
G37*
G36*
X129770672Y-74886508D02*
G01*
X130010735Y-74950833D01*
X130240349Y-75045942D01*
X130455583Y-75170208D01*
X130652757Y-75321504D01*
X130828496Y-75497243D01*
X130979792Y-75694417D01*
X131104058Y-75909651D01*
X131199167Y-76139265D01*
X131263492Y-76379328D01*
X131295932Y-76625734D01*
X131295932Y-76874266D01*
X131263492Y-77120672D01*
X131199167Y-77360735D01*
X131104058Y-77590349D01*
X130979792Y-77805583D01*
X130828496Y-78002757D01*
X130652757Y-78178496D01*
X130455583Y-78329792D01*
X130240349Y-78454058D01*
X130010735Y-78549167D01*
X129770672Y-78613492D01*
X129524266Y-78645932D01*
X129275734Y-78645932D01*
X129029328Y-78613492D01*
X128789265Y-78549167D01*
X128559651Y-78454058D01*
X128344417Y-78329792D01*
X128147243Y-78178496D01*
X127971504Y-78002757D01*
X127820208Y-77805583D01*
X127695942Y-77590349D01*
X127600833Y-77360735D01*
X127536508Y-77120672D01*
X127504068Y-76874266D01*
X127504068Y-76625734D01*
X127536508Y-76379328D01*
X127600833Y-76139265D01*
X127695942Y-75909651D01*
X127820208Y-75694417D01*
X127971504Y-75497243D01*
X128147243Y-75321504D01*
X128344417Y-75170208D01*
X128559651Y-75045942D01*
X128789265Y-74950833D01*
X129029328Y-74886508D01*
X129275734Y-74854068D01*
X129524266Y-74854068D01*
X129770672Y-74886508D01*
G37*
G36*
X163270672Y-74886508D02*
G01*
X163510735Y-74950833D01*
X163740349Y-75045942D01*
X163955583Y-75170208D01*
X164152757Y-75321504D01*
X164328496Y-75497243D01*
X164479792Y-75694417D01*
X164604058Y-75909651D01*
X164699167Y-76139265D01*
X164763492Y-76379328D01*
X164795932Y-76625734D01*
X164795932Y-76874266D01*
X164763492Y-77120672D01*
X164699167Y-77360735D01*
X164604058Y-77590349D01*
X164479792Y-77805583D01*
X164328496Y-78002757D01*
X164152757Y-78178496D01*
X163955583Y-78329792D01*
X163740349Y-78454058D01*
X163510735Y-78549167D01*
X163270672Y-78613492D01*
X163024266Y-78645932D01*
X162775734Y-78645932D01*
X162529328Y-78613492D01*
X162289265Y-78549167D01*
X162059651Y-78454058D01*
X161844417Y-78329792D01*
X161647243Y-78178496D01*
X161471504Y-78002757D01*
X161320208Y-77805583D01*
X161195942Y-77590349D01*
X161100833Y-77360735D01*
X161036508Y-77120672D01*
X161004068Y-76874266D01*
X161004068Y-76625734D01*
X161036508Y-76379328D01*
X161100833Y-76139265D01*
X161195942Y-75909651D01*
X161320208Y-75694417D01*
X161471504Y-75497243D01*
X161647243Y-75321504D01*
X161844417Y-75170208D01*
X162059651Y-75045942D01*
X162289265Y-74950833D01*
X162529328Y-74886508D01*
X162775734Y-74854068D01*
X163024266Y-74854068D01*
X163270672Y-74886508D01*
G37*
G36*
X143483034Y-74914264D02*
G01*
X143516125Y-74936375D01*
X143538236Y-74969466D01*
X143546000Y-75008500D01*
X143546000Y-76516500D01*
X143538236Y-76555534D01*
X143516125Y-76588625D01*
X143483034Y-76610736D01*
X143444000Y-76618500D01*
X141936000Y-76618500D01*
X141896966Y-76610736D01*
X141863875Y-76588625D01*
X141841764Y-76555534D01*
X141834000Y-76516500D01*
X141834000Y-75008500D01*
X141841764Y-74969466D01*
X141863875Y-74936375D01*
X141896966Y-74914264D01*
X141936000Y-74906500D01*
X143444000Y-74906500D01*
X143483034Y-74914264D01*
G37*
G36*
X145478484Y-74943359D02*
G01*
X145633516Y-75007575D01*
X145773041Y-75100803D01*
X145891697Y-75219459D01*
X145984925Y-75358984D01*
X146049141Y-75514016D01*
X146081878Y-75678597D01*
X146081878Y-75846403D01*
X146049141Y-76010984D01*
X145984925Y-76166016D01*
X145891697Y-76305541D01*
X145773041Y-76424197D01*
X145633516Y-76517425D01*
X145478484Y-76581641D01*
X145313903Y-76614378D01*
X145146097Y-76614378D01*
X144981516Y-76581641D01*
X144826484Y-76517425D01*
X144686959Y-76424197D01*
X144568303Y-76305541D01*
X144475075Y-76166016D01*
X144410859Y-76010984D01*
X144378122Y-75846403D01*
X144378122Y-75678597D01*
X144410859Y-75514016D01*
X144475075Y-75358984D01*
X144568303Y-75219459D01*
X144686959Y-75100803D01*
X144826484Y-75007575D01*
X144981516Y-74943359D01*
X145146097Y-74910622D01*
X145313903Y-74910622D01*
X145478484Y-74943359D01*
G37*
G36*
X148018484Y-74943359D02*
G01*
X148173516Y-75007575D01*
X148313041Y-75100803D01*
X148431697Y-75219459D01*
X148524925Y-75358984D01*
X148589141Y-75514016D01*
X148621878Y-75678597D01*
X148621878Y-75846403D01*
X148589141Y-76010984D01*
X148524925Y-76166016D01*
X148431697Y-76305541D01*
X148313041Y-76424197D01*
X148173516Y-76517425D01*
X148018484Y-76581641D01*
X147853903Y-76614378D01*
X147686097Y-76614378D01*
X147521516Y-76581641D01*
X147366484Y-76517425D01*
X147226959Y-76424197D01*
X147108303Y-76305541D01*
X147015075Y-76166016D01*
X146950859Y-76010984D01*
X146918122Y-75846403D01*
X146918122Y-75678597D01*
X146950859Y-75514016D01*
X147015075Y-75358984D01*
X147108303Y-75219459D01*
X147226959Y-75100803D01*
X147366484Y-75007575D01*
X147521516Y-74943359D01*
X147686097Y-74910622D01*
X147853903Y-74910622D01*
X148018484Y-74943359D01*
G37*
G36*
X150558484Y-74943359D02*
G01*
X150713516Y-75007575D01*
X150853041Y-75100803D01*
X150971697Y-75219459D01*
X151064925Y-75358984D01*
X151129141Y-75514016D01*
X151161878Y-75678597D01*
X151161878Y-75846403D01*
X151129141Y-76010984D01*
X151064925Y-76166016D01*
X150971697Y-76305541D01*
X150853041Y-76424197D01*
X150713516Y-76517425D01*
X150558484Y-76581641D01*
X150393903Y-76614378D01*
X150226097Y-76614378D01*
X150061516Y-76581641D01*
X149906484Y-76517425D01*
X149766959Y-76424197D01*
X149648303Y-76305541D01*
X149555075Y-76166016D01*
X149490859Y-76010984D01*
X149458122Y-75846403D01*
X149458122Y-75678597D01*
X149490859Y-75514016D01*
X149555075Y-75358984D01*
X149648303Y-75219459D01*
X149766959Y-75100803D01*
X149906484Y-75007575D01*
X150061516Y-74943359D01*
X150226097Y-74910622D01*
X150393903Y-74910622D01*
X150558484Y-74943359D01*
G37*
%LPD*%
M02*
