%TF.GenerationSoftware,KiCad,Pcbnew,9.0.7*%
%TF.CreationDate,2026-04-24T04:27:01-07:00*%
%TF.ProjectId,Primary_Board,5072696d-6172-4795-9f42-6f6172642e6b,rev?*%
%TF.SameCoordinates,Original*%
%TF.FileFunction,Soldermask,Bot*%
%TF.FilePolarity,Negative*%
%FSLAX46Y46*%
G04 Gerber Fmt 4.6, Leading zero omitted, Abs format (unit mm)*
G04 Created by KiCad (PCBNEW 9.0.7) date 2026-04-24 04:27:01*
%MOMM*%
%LPD*%
G01*
G04 APERTURE LIST*
G04 APERTURE END LIST*
G36*
X129770672Y-125186508D02*
G01*
X130010735Y-125250833D01*
X130240349Y-125345942D01*
X130455583Y-125470208D01*
X130652757Y-125621504D01*
X130828496Y-125797243D01*
X130979792Y-125994417D01*
X131104058Y-126209651D01*
X131199167Y-126439265D01*
X131263492Y-126679328D01*
X131295932Y-126925734D01*
X131295932Y-127174266D01*
X131263492Y-127420672D01*
X131199167Y-127660735D01*
X131104058Y-127890349D01*
X130979792Y-128105583D01*
X130828496Y-128302757D01*
X130652757Y-128478496D01*
X130455583Y-128629792D01*
X130240349Y-128754058D01*
X130010735Y-128849167D01*
X129770672Y-128913492D01*
X129524266Y-128945932D01*
X129275734Y-128945932D01*
X129029328Y-128913492D01*
X128789265Y-128849167D01*
X128559651Y-128754058D01*
X128344417Y-128629792D01*
X128147243Y-128478496D01*
X127971504Y-128302757D01*
X127820208Y-128105583D01*
X127695942Y-127890349D01*
X127600833Y-127660735D01*
X127536508Y-127420672D01*
X127504068Y-127174266D01*
X127504068Y-126925734D01*
X127536508Y-126679328D01*
X127600833Y-126439265D01*
X127695942Y-126209651D01*
X127820208Y-125994417D01*
X127971504Y-125797243D01*
X128147243Y-125621504D01*
X128344417Y-125470208D01*
X128559651Y-125345942D01*
X128789265Y-125250833D01*
X129029328Y-125186508D01*
X129275734Y-125154068D01*
X129524266Y-125154068D01*
X129770672Y-125186508D01*
G37*
G36*
X163270672Y-125186508D02*
G01*
X163510735Y-125250833D01*
X163740349Y-125345942D01*
X163955583Y-125470208D01*
X164152757Y-125621504D01*
X164328496Y-125797243D01*
X164479792Y-125994417D01*
X164604058Y-126209651D01*
X164699167Y-126439265D01*
X164763492Y-126679328D01*
X164795932Y-126925734D01*
X164795932Y-127174266D01*
X164763492Y-127420672D01*
X164699167Y-127660735D01*
X164604058Y-127890349D01*
X164479792Y-128105583D01*
X164328496Y-128302757D01*
X164152757Y-128478496D01*
X163955583Y-128629792D01*
X163740349Y-128754058D01*
X163510735Y-128849167D01*
X163270672Y-128913492D01*
X163024266Y-128945932D01*
X162775734Y-128945932D01*
X162529328Y-128913492D01*
X162289265Y-128849167D01*
X162059651Y-128754058D01*
X161844417Y-128629792D01*
X161647243Y-128478496D01*
X161471504Y-128302757D01*
X161320208Y-128105583D01*
X161195942Y-127890349D01*
X161100833Y-127660735D01*
X161036508Y-127420672D01*
X161004068Y-127174266D01*
X161004068Y-126925734D01*
X161036508Y-126679328D01*
X161100833Y-126439265D01*
X161195942Y-126209651D01*
X161320208Y-125994417D01*
X161471504Y-125797243D01*
X161647243Y-125621504D01*
X161844417Y-125470208D01*
X162059651Y-125345942D01*
X162289265Y-125250833D01*
X162529328Y-125186508D01*
X162775734Y-125154068D01*
X163024266Y-125154068D01*
X163270672Y-125186508D01*
G37*
G36*
X136278000Y-122670000D02*
G01*
X135278000Y-122670000D01*
X134980105Y-122670000D01*
X134978000Y-122670000D01*
X133978000Y-122670000D01*
X133978000Y-121170000D01*
X134978000Y-121170000D01*
X136272996Y-121170000D01*
X136278000Y-121170000D01*
X136278000Y-122670000D01*
G37*
G36*
X129000000Y-121250000D02*
G01*
X127300000Y-121250000D01*
X127300000Y-119550000D01*
X129000000Y-119550000D01*
X129000000Y-121250000D01*
G37*
G36*
X147656122Y-117584287D02*
G01*
X147688565Y-117605964D01*
X147710242Y-117638407D01*
X147717854Y-117676675D01*
X147717854Y-118801675D01*
X147710242Y-118839943D01*
X147688565Y-118872386D01*
X147656122Y-118894063D01*
X147617854Y-118901675D01*
X147417854Y-118901675D01*
X147379586Y-118894063D01*
X147347143Y-118872386D01*
X147325466Y-118839943D01*
X147317854Y-118801675D01*
X147317854Y-117676675D01*
X147325466Y-117638407D01*
X147347143Y-117605964D01*
X147379586Y-117584287D01*
X147417854Y-117576675D01*
X147617854Y-117576675D01*
X147656122Y-117584287D01*
G37*
G36*
X148306122Y-117584287D02*
G01*
X148338565Y-117605964D01*
X148360242Y-117638407D01*
X148367854Y-117676675D01*
X148367854Y-118801675D01*
X148360242Y-118839943D01*
X148338565Y-118872386D01*
X148306122Y-118894063D01*
X148267854Y-118901675D01*
X148067854Y-118901675D01*
X148029586Y-118894063D01*
X147997143Y-118872386D01*
X147975466Y-118839943D01*
X147967854Y-118801675D01*
X147967854Y-117676675D01*
X147975466Y-117638407D01*
X147997143Y-117605964D01*
X148029586Y-117584287D01*
X148067854Y-117576675D01*
X148267854Y-117576675D01*
X148306122Y-117584287D01*
G37*
G36*
X148956122Y-117584287D02*
G01*
X148988565Y-117605964D01*
X149010242Y-117638407D01*
X149017854Y-117676675D01*
X149017854Y-118801675D01*
X149010242Y-118839943D01*
X148988565Y-118872386D01*
X148956122Y-118894063D01*
X148917854Y-118901675D01*
X148717854Y-118901675D01*
X148679586Y-118894063D01*
X148647143Y-118872386D01*
X148625466Y-118839943D01*
X148617854Y-118801675D01*
X148617854Y-117676675D01*
X148625466Y-117638407D01*
X148647143Y-117605964D01*
X148679586Y-117584287D01*
X148717854Y-117576675D01*
X148917854Y-117576675D01*
X148956122Y-117584287D01*
G37*
G36*
X128396742Y-117046601D02*
G01*
X128550687Y-117110367D01*
X128689234Y-117202941D01*
X128807059Y-117320766D01*
X128899633Y-117459313D01*
X128963399Y-117613258D01*
X128995907Y-117776685D01*
X128995907Y-117943315D01*
X128963399Y-118106742D01*
X128899633Y-118260687D01*
X128807059Y-118399234D01*
X128689234Y-118517059D01*
X128550687Y-118609633D01*
X128396742Y-118673399D01*
X128233315Y-118705907D01*
X128066685Y-118705907D01*
X127903258Y-118673399D01*
X127749313Y-118609633D01*
X127610766Y-118517059D01*
X127492941Y-118399234D01*
X127400367Y-118260687D01*
X127336601Y-118106742D01*
X127304093Y-117943315D01*
X127304093Y-117776685D01*
X127336601Y-117613258D01*
X127400367Y-117459313D01*
X127492941Y-117320766D01*
X127610766Y-117202941D01*
X127749313Y-117110367D01*
X127903258Y-117046601D01*
X128066685Y-117014093D01*
X128233315Y-117014093D01*
X128396742Y-117046601D01*
G37*
G36*
X152763662Y-116706950D02*
G01*
X152807459Y-116736215D01*
X152836724Y-116780012D01*
X152847000Y-116831674D01*
X152847000Y-117101674D01*
X152836724Y-117153336D01*
X152807459Y-117197133D01*
X152763662Y-117226398D01*
X152712000Y-117236674D01*
X152342000Y-117236674D01*
X152290338Y-117226398D01*
X152246541Y-117197133D01*
X152217276Y-117153336D01*
X152207000Y-117101674D01*
X152207000Y-116831674D01*
X152217276Y-116780012D01*
X152246541Y-116736215D01*
X152290338Y-116706950D01*
X152342000Y-116696674D01*
X152712000Y-116696674D01*
X152763662Y-116706950D01*
G37*
G36*
X147656122Y-115809287D02*
G01*
X147688565Y-115830964D01*
X147710242Y-115863407D01*
X147717854Y-115901675D01*
X147717854Y-117026675D01*
X147710242Y-117064943D01*
X147688565Y-117097386D01*
X147656122Y-117119063D01*
X147617854Y-117126675D01*
X147417854Y-117126675D01*
X147379586Y-117119063D01*
X147347143Y-117097386D01*
X147325466Y-117064943D01*
X147317854Y-117026675D01*
X147317854Y-115901675D01*
X147325466Y-115863407D01*
X147347143Y-115830964D01*
X147379586Y-115809287D01*
X147417854Y-115801675D01*
X147617854Y-115801675D01*
X147656122Y-115809287D01*
G37*
G36*
X148306122Y-115809287D02*
G01*
X148338565Y-115830964D01*
X148360242Y-115863407D01*
X148367854Y-115901675D01*
X148367854Y-117026675D01*
X148360242Y-117064943D01*
X148338565Y-117097386D01*
X148306122Y-117119063D01*
X148267854Y-117126675D01*
X148067854Y-117126675D01*
X148029586Y-117119063D01*
X147997143Y-117097386D01*
X147975466Y-117064943D01*
X147967854Y-117026675D01*
X147967854Y-115901675D01*
X147975466Y-115863407D01*
X147997143Y-115830964D01*
X148029586Y-115809287D01*
X148067854Y-115801675D01*
X148267854Y-115801675D01*
X148306122Y-115809287D01*
G37*
G36*
X148956122Y-115809287D02*
G01*
X148988565Y-115830964D01*
X149010242Y-115863407D01*
X149017854Y-115901675D01*
X149017854Y-117026675D01*
X149010242Y-117064943D01*
X148988565Y-117097386D01*
X148956122Y-117119063D01*
X148917854Y-117126675D01*
X148717854Y-117126675D01*
X148679586Y-117119063D01*
X148647143Y-117097386D01*
X148625466Y-117064943D01*
X148617854Y-117026675D01*
X148617854Y-115901675D01*
X148625466Y-115863407D01*
X148647143Y-115830964D01*
X148679586Y-115809287D01*
X148717854Y-115801675D01*
X148917854Y-115801675D01*
X148956122Y-115809287D01*
G37*
G36*
X146740430Y-115686832D02*
G01*
X146785849Y-115717180D01*
X146816197Y-115762599D01*
X146826854Y-115816175D01*
X146826854Y-116096175D01*
X146816197Y-116149751D01*
X146785849Y-116195170D01*
X146740430Y-116225518D01*
X146686854Y-116236175D01*
X146346854Y-116236175D01*
X146293278Y-116225518D01*
X146247859Y-116195170D01*
X146217511Y-116149751D01*
X146206854Y-116096175D01*
X146206854Y-115816175D01*
X146217511Y-115762599D01*
X146247859Y-115717180D01*
X146293278Y-115686832D01*
X146346854Y-115676175D01*
X146686854Y-115676175D01*
X146740430Y-115686832D01*
G37*
G36*
X152763662Y-115686950D02*
G01*
X152807459Y-115716215D01*
X152836724Y-115760012D01*
X152847000Y-115811674D01*
X152847000Y-116081674D01*
X152836724Y-116133336D01*
X152807459Y-116177133D01*
X152763662Y-116206398D01*
X152712000Y-116216674D01*
X152342000Y-116216674D01*
X152290338Y-116206398D01*
X152246541Y-116177133D01*
X152217276Y-116133336D01*
X152207000Y-116081674D01*
X152207000Y-115811674D01*
X152217276Y-115760012D01*
X152246541Y-115716215D01*
X152290338Y-115686950D01*
X152342000Y-115676674D01*
X152712000Y-115676674D01*
X152763662Y-115686950D01*
G37*
G36*
X128396742Y-114506601D02*
G01*
X128550687Y-114570367D01*
X128689234Y-114662941D01*
X128807059Y-114780766D01*
X128899633Y-114919313D01*
X128963399Y-115073258D01*
X128995907Y-115236685D01*
X128995907Y-115403315D01*
X128963399Y-115566742D01*
X128899633Y-115720687D01*
X128807059Y-115859234D01*
X128689234Y-115977059D01*
X128550687Y-116069633D01*
X128396742Y-116133399D01*
X128233315Y-116165907D01*
X128066685Y-116165907D01*
X127903258Y-116133399D01*
X127749313Y-116069633D01*
X127610766Y-115977059D01*
X127492941Y-115859234D01*
X127400367Y-115720687D01*
X127336601Y-115566742D01*
X127304093Y-115403315D01*
X127304093Y-115236685D01*
X127336601Y-115073258D01*
X127400367Y-114919313D01*
X127492941Y-114780766D01*
X127610766Y-114662941D01*
X127749313Y-114570367D01*
X127903258Y-114506601D01*
X128066685Y-114474093D01*
X128233315Y-114474093D01*
X128396742Y-114506601D01*
G37*
G36*
X146740430Y-114726832D02*
G01*
X146785849Y-114757180D01*
X146816197Y-114802599D01*
X146826854Y-114856175D01*
X146826854Y-115136175D01*
X146816197Y-115189751D01*
X146785849Y-115235170D01*
X146740430Y-115265518D01*
X146686854Y-115276175D01*
X146346854Y-115276175D01*
X146293278Y-115265518D01*
X146247859Y-115235170D01*
X146217511Y-115189751D01*
X146206854Y-115136175D01*
X146206854Y-114856175D01*
X146217511Y-114802599D01*
X146247859Y-114757180D01*
X146293278Y-114726832D01*
X146346854Y-114716175D01*
X146686854Y-114716175D01*
X146740430Y-114726832D01*
G37*
G36*
X149306430Y-114640832D02*
G01*
X149351849Y-114671180D01*
X149382197Y-114716599D01*
X149392854Y-114770175D01*
X149392854Y-115110175D01*
X149382197Y-115163751D01*
X149351849Y-115209170D01*
X149306430Y-115239518D01*
X149252854Y-115250175D01*
X148972854Y-115250175D01*
X148919278Y-115239518D01*
X148873859Y-115209170D01*
X148843511Y-115163751D01*
X148832854Y-115110175D01*
X148832854Y-114770175D01*
X148843511Y-114716599D01*
X148873859Y-114671180D01*
X148919278Y-114640832D01*
X148972854Y-114630175D01*
X149252854Y-114630175D01*
X149306430Y-114640832D01*
G37*
G36*
X150266430Y-114640832D02*
G01*
X150311849Y-114671180D01*
X150342197Y-114716599D01*
X150352854Y-114770175D01*
X150352854Y-115110175D01*
X150342197Y-115163751D01*
X150311849Y-115209170D01*
X150266430Y-115239518D01*
X150212854Y-115250175D01*
X149932854Y-115250175D01*
X149879278Y-115239518D01*
X149833859Y-115209170D01*
X149803511Y-115163751D01*
X149792854Y-115110175D01*
X149792854Y-114770175D01*
X149803511Y-114716599D01*
X149833859Y-114671180D01*
X149879278Y-114640832D01*
X149932854Y-114630175D01*
X150212854Y-114630175D01*
X150266430Y-114640832D01*
G37*
G36*
X152763662Y-114166950D02*
G01*
X152807459Y-114196215D01*
X152836724Y-114240012D01*
X152847000Y-114291674D01*
X152847000Y-114561674D01*
X152836724Y-114613336D01*
X152807459Y-114657133D01*
X152763662Y-114686398D01*
X152712000Y-114696674D01*
X152342000Y-114696674D01*
X152290338Y-114686398D01*
X152246541Y-114657133D01*
X152217276Y-114613336D01*
X152207000Y-114561674D01*
X152207000Y-114291674D01*
X152217276Y-114240012D01*
X152246541Y-114196215D01*
X152290338Y-114166950D01*
X152342000Y-114156674D01*
X152712000Y-114156674D01*
X152763662Y-114166950D01*
G37*
G36*
X149293516Y-113664951D02*
G01*
X149337313Y-113694216D01*
X149366578Y-113738013D01*
X149376854Y-113789675D01*
X149376854Y-114059675D01*
X149366578Y-114111337D01*
X149337313Y-114155134D01*
X149293516Y-114184399D01*
X149241854Y-114194675D01*
X148871854Y-114194675D01*
X148820192Y-114184399D01*
X148776395Y-114155134D01*
X148747130Y-114111337D01*
X148736854Y-114059675D01*
X148736854Y-113789675D01*
X148747130Y-113738013D01*
X148776395Y-113694216D01*
X148820192Y-113664951D01*
X148871854Y-113654675D01*
X149241854Y-113654675D01*
X149293516Y-113664951D01*
G37*
G36*
X152763662Y-113146950D02*
G01*
X152807459Y-113176215D01*
X152836724Y-113220012D01*
X152847000Y-113271674D01*
X152847000Y-113541674D01*
X152836724Y-113593336D01*
X152807459Y-113637133D01*
X152763662Y-113666398D01*
X152712000Y-113676674D01*
X152342000Y-113676674D01*
X152290338Y-113666398D01*
X152246541Y-113637133D01*
X152217276Y-113593336D01*
X152207000Y-113541674D01*
X152207000Y-113271674D01*
X152217276Y-113220012D01*
X152246541Y-113176215D01*
X152290338Y-113146950D01*
X152342000Y-113136674D01*
X152712000Y-113136674D01*
X152763662Y-113146950D01*
G37*
G36*
X128396742Y-111966601D02*
G01*
X128550687Y-112030367D01*
X128689234Y-112122941D01*
X128807059Y-112240766D01*
X128899633Y-112379313D01*
X128963399Y-112533258D01*
X128995907Y-112696685D01*
X128995907Y-112863315D01*
X128963399Y-113026742D01*
X128899633Y-113180687D01*
X128807059Y-113319234D01*
X128689234Y-113437059D01*
X128550687Y-113529633D01*
X128396742Y-113593399D01*
X128233315Y-113625907D01*
X128066685Y-113625907D01*
X127903258Y-113593399D01*
X127749313Y-113529633D01*
X127610766Y-113437059D01*
X127492941Y-113319234D01*
X127400367Y-113180687D01*
X127336601Y-113026742D01*
X127304093Y-112863315D01*
X127304093Y-112696685D01*
X127336601Y-112533258D01*
X127400367Y-112379313D01*
X127492941Y-112240766D01*
X127610766Y-112122941D01*
X127749313Y-112030367D01*
X127903258Y-111966601D01*
X128066685Y-111934093D01*
X128233315Y-111934093D01*
X128396742Y-111966601D01*
G37*
G36*
X149293516Y-112644951D02*
G01*
X149337313Y-112674216D01*
X149366578Y-112718013D01*
X149376854Y-112769675D01*
X149376854Y-113039675D01*
X149366578Y-113091337D01*
X149337313Y-113135134D01*
X149293516Y-113164399D01*
X149241854Y-113174675D01*
X148871854Y-113174675D01*
X148820192Y-113164399D01*
X148776395Y-113135134D01*
X148747130Y-113091337D01*
X148736854Y-113039675D01*
X148736854Y-112769675D01*
X148747130Y-112718013D01*
X148776395Y-112674216D01*
X148820192Y-112644951D01*
X148871854Y-112634675D01*
X149241854Y-112634675D01*
X149293516Y-112644951D01*
G37*
G36*
X128396742Y-109426601D02*
G01*
X128550687Y-109490367D01*
X128689234Y-109582941D01*
X128807059Y-109700766D01*
X128899633Y-109839313D01*
X128963399Y-109993258D01*
X128995907Y-110156685D01*
X128995907Y-110323315D01*
X128963399Y-110486742D01*
X128899633Y-110640687D01*
X128807059Y-110779234D01*
X128689234Y-110897059D01*
X128550687Y-110989633D01*
X128396742Y-111053399D01*
X128233315Y-111085907D01*
X128066685Y-111085907D01*
X127903258Y-111053399D01*
X127749313Y-110989633D01*
X127610766Y-110897059D01*
X127492941Y-110779234D01*
X127400367Y-110640687D01*
X127336601Y-110486742D01*
X127304093Y-110323315D01*
X127304093Y-110156685D01*
X127336601Y-109993258D01*
X127400367Y-109839313D01*
X127492941Y-109700766D01*
X127610766Y-109582941D01*
X127749313Y-109490367D01*
X127903258Y-109426601D01*
X128066685Y-109394093D01*
X128233315Y-109394093D01*
X128396742Y-109426601D01*
G37*
G36*
X128396742Y-106886601D02*
G01*
X128550687Y-106950367D01*
X128689234Y-107042941D01*
X128807059Y-107160766D01*
X128899633Y-107299313D01*
X128963399Y-107453258D01*
X128995907Y-107616685D01*
X128995907Y-107783315D01*
X128963399Y-107946742D01*
X128899633Y-108100687D01*
X128807059Y-108239234D01*
X128689234Y-108357059D01*
X128550687Y-108449633D01*
X128396742Y-108513399D01*
X128233315Y-108545907D01*
X128066685Y-108545907D01*
X127903258Y-108513399D01*
X127749313Y-108449633D01*
X127610766Y-108357059D01*
X127492941Y-108239234D01*
X127400367Y-108100687D01*
X127336601Y-107946742D01*
X127304093Y-107783315D01*
X127304093Y-107616685D01*
X127336601Y-107453258D01*
X127400367Y-107299313D01*
X127492941Y-107160766D01*
X127610766Y-107042941D01*
X127749313Y-106950367D01*
X127903258Y-106886601D01*
X128066685Y-106854093D01*
X128233315Y-106854093D01*
X128396742Y-106886601D01*
G37*
G36*
X128396742Y-104346601D02*
G01*
X128550687Y-104410367D01*
X128689234Y-104502941D01*
X128807059Y-104620766D01*
X128899633Y-104759313D01*
X128963399Y-104913258D01*
X128995907Y-105076685D01*
X128995907Y-105243315D01*
X128963399Y-105406742D01*
X128899633Y-105560687D01*
X128807059Y-105699234D01*
X128689234Y-105817059D01*
X128550687Y-105909633D01*
X128396742Y-105973399D01*
X128233315Y-106005907D01*
X128066685Y-106005907D01*
X127903258Y-105973399D01*
X127749313Y-105909633D01*
X127610766Y-105817059D01*
X127492941Y-105699234D01*
X127400367Y-105560687D01*
X127336601Y-105406742D01*
X127304093Y-105243315D01*
X127304093Y-105076685D01*
X127336601Y-104913258D01*
X127400367Y-104759313D01*
X127492941Y-104620766D01*
X127610766Y-104502941D01*
X127749313Y-104410367D01*
X127903258Y-104346601D01*
X128066685Y-104314093D01*
X128233315Y-104314093D01*
X128396742Y-104346601D01*
G37*
G36*
X128396742Y-101806601D02*
G01*
X128550687Y-101870367D01*
X128689234Y-101962941D01*
X128807059Y-102080766D01*
X128899633Y-102219313D01*
X128963399Y-102373258D01*
X128995907Y-102536685D01*
X128995907Y-102703315D01*
X128963399Y-102866742D01*
X128899633Y-103020687D01*
X128807059Y-103159234D01*
X128689234Y-103277059D01*
X128550687Y-103369633D01*
X128396742Y-103433399D01*
X128233315Y-103465907D01*
X128066685Y-103465907D01*
X127903258Y-103433399D01*
X127749313Y-103369633D01*
X127610766Y-103277059D01*
X127492941Y-103159234D01*
X127400367Y-103020687D01*
X127336601Y-102866742D01*
X127304093Y-102703315D01*
X127304093Y-102536685D01*
X127336601Y-102373258D01*
X127400367Y-102219313D01*
X127492941Y-102080766D01*
X127610766Y-101962941D01*
X127749313Y-101870367D01*
X127903258Y-101806601D01*
X128066685Y-101774093D01*
X128233315Y-101774093D01*
X128396742Y-101806601D01*
G37*
G36*
X132900403Y-100168418D02*
G01*
X132949066Y-100200934D01*
X132981582Y-100249597D01*
X132993000Y-100307000D01*
X132993000Y-100607000D01*
X132981582Y-100664403D01*
X132949066Y-100713066D01*
X132900403Y-100745582D01*
X132843000Y-100757000D01*
X131193000Y-100757000D01*
X131135597Y-100745582D01*
X131086934Y-100713066D01*
X131054418Y-100664403D01*
X131043000Y-100607000D01*
X131043000Y-100307000D01*
X131054418Y-100249597D01*
X131086934Y-100200934D01*
X131135597Y-100168418D01*
X131193000Y-100157000D01*
X132843000Y-100157000D01*
X132900403Y-100168418D01*
G37*
G36*
X137850403Y-100168418D02*
G01*
X137899066Y-100200934D01*
X137931582Y-100249597D01*
X137943000Y-100307000D01*
X137943000Y-100607000D01*
X137931582Y-100664403D01*
X137899066Y-100713066D01*
X137850403Y-100745582D01*
X137793000Y-100757000D01*
X136143000Y-100757000D01*
X136085597Y-100745582D01*
X136036934Y-100713066D01*
X136004418Y-100664403D01*
X135993000Y-100607000D01*
X135993000Y-100307000D01*
X136004418Y-100249597D01*
X136036934Y-100200934D01*
X136085597Y-100168418D01*
X136143000Y-100157000D01*
X137793000Y-100157000D01*
X137850403Y-100168418D01*
G37*
G36*
X132900403Y-98898418D02*
G01*
X132949066Y-98930934D01*
X132981582Y-98979597D01*
X132993000Y-99037000D01*
X132993000Y-99337000D01*
X132981582Y-99394403D01*
X132949066Y-99443066D01*
X132900403Y-99475582D01*
X132843000Y-99487000D01*
X131193000Y-99487000D01*
X131135597Y-99475582D01*
X131086934Y-99443066D01*
X131054418Y-99394403D01*
X131043000Y-99337000D01*
X131043000Y-99037000D01*
X131054418Y-98979597D01*
X131086934Y-98930934D01*
X131135597Y-98898418D01*
X131193000Y-98887000D01*
X132843000Y-98887000D01*
X132900403Y-98898418D01*
G37*
G36*
X137850403Y-98898418D02*
G01*
X137899066Y-98930934D01*
X137931582Y-98979597D01*
X137943000Y-99037000D01*
X137943000Y-99337000D01*
X137931582Y-99394403D01*
X137899066Y-99443066D01*
X137850403Y-99475582D01*
X137793000Y-99487000D01*
X136143000Y-99487000D01*
X136085597Y-99475582D01*
X136036934Y-99443066D01*
X136004418Y-99394403D01*
X135993000Y-99337000D01*
X135993000Y-99037000D01*
X136004418Y-98979597D01*
X136036934Y-98930934D01*
X136085597Y-98898418D01*
X136143000Y-98887000D01*
X137793000Y-98887000D01*
X137850403Y-98898418D01*
G37*
G36*
X157869900Y-98300900D02*
G01*
X156880100Y-98300900D01*
X156880100Y-97492900D01*
X157869900Y-97492900D01*
X157869900Y-98300900D01*
G37*
G36*
X155269900Y-98275900D02*
G01*
X154280100Y-98275900D01*
X154280100Y-97467900D01*
X155269900Y-97467900D01*
X155269900Y-98275900D01*
G37*
G36*
X132900403Y-97628418D02*
G01*
X132949066Y-97660934D01*
X132981582Y-97709597D01*
X132993000Y-97767000D01*
X132993000Y-98067000D01*
X132981582Y-98124403D01*
X132949066Y-98173066D01*
X132900403Y-98205582D01*
X132843000Y-98217000D01*
X131193000Y-98217000D01*
X131135597Y-98205582D01*
X131086934Y-98173066D01*
X131054418Y-98124403D01*
X131043000Y-98067000D01*
X131043000Y-97767000D01*
X131054418Y-97709597D01*
X131086934Y-97660934D01*
X131135597Y-97628418D01*
X131193000Y-97617000D01*
X132843000Y-97617000D01*
X132900403Y-97628418D01*
G37*
G36*
X137850403Y-97628418D02*
G01*
X137899066Y-97660934D01*
X137931582Y-97709597D01*
X137943000Y-97767000D01*
X137943000Y-98067000D01*
X137931582Y-98124403D01*
X137899066Y-98173066D01*
X137850403Y-98205582D01*
X137793000Y-98217000D01*
X136143000Y-98217000D01*
X136085597Y-98205582D01*
X136036934Y-98173066D01*
X136004418Y-98124403D01*
X135993000Y-98067000D01*
X135993000Y-97767000D01*
X136004418Y-97709597D01*
X136036934Y-97660934D01*
X136085597Y-97628418D01*
X136143000Y-97617000D01*
X137793000Y-97617000D01*
X137850403Y-97628418D01*
G37*
G36*
X150099500Y-97903579D02*
G01*
X149096200Y-97903579D01*
X149096200Y-97446379D01*
X150099500Y-97446379D01*
X150099500Y-97903579D01*
G37*
G36*
X152753800Y-97903579D02*
G01*
X151750500Y-97903579D01*
X151750500Y-97446379D01*
X152753800Y-97446379D01*
X152753800Y-97903579D01*
G37*
G36*
X143044900Y-97825900D02*
G01*
X142055100Y-97825900D01*
X142055100Y-97017900D01*
X143044900Y-97017900D01*
X143044900Y-97825900D01*
G37*
G36*
X145569900Y-97775900D02*
G01*
X144580100Y-97775900D01*
X144580100Y-96967900D01*
X145569900Y-96967900D01*
X145569900Y-97775900D01*
G37*
G36*
X148030000Y-97625000D02*
G01*
X147070000Y-97625000D01*
X147070000Y-96775000D01*
X148030000Y-96775000D01*
X148030000Y-97625000D01*
G37*
G36*
X150099500Y-97253593D02*
G01*
X149096200Y-97253593D01*
X149096200Y-96796393D01*
X150099500Y-96796393D01*
X150099500Y-97253593D01*
G37*
G36*
X152753800Y-97253593D02*
G01*
X151750500Y-97253593D01*
X151750500Y-96796393D01*
X152753800Y-96796393D01*
X152753800Y-97253593D01*
G37*
G36*
X132900403Y-96358418D02*
G01*
X132949066Y-96390934D01*
X132981582Y-96439597D01*
X132993000Y-96497000D01*
X132993000Y-96797000D01*
X132981582Y-96854403D01*
X132949066Y-96903066D01*
X132900403Y-96935582D01*
X132843000Y-96947000D01*
X131193000Y-96947000D01*
X131135597Y-96935582D01*
X131086934Y-96903066D01*
X131054418Y-96854403D01*
X131043000Y-96797000D01*
X131043000Y-96497000D01*
X131054418Y-96439597D01*
X131086934Y-96390934D01*
X131135597Y-96358418D01*
X131193000Y-96347000D01*
X132843000Y-96347000D01*
X132900403Y-96358418D01*
G37*
G36*
X137850403Y-96358418D02*
G01*
X137899066Y-96390934D01*
X137931582Y-96439597D01*
X137943000Y-96497000D01*
X137943000Y-96797000D01*
X137931582Y-96854403D01*
X137899066Y-96903066D01*
X137850403Y-96935582D01*
X137793000Y-96947000D01*
X136143000Y-96947000D01*
X136085597Y-96935582D01*
X136036934Y-96903066D01*
X136004418Y-96854403D01*
X135993000Y-96797000D01*
X135993000Y-96497000D01*
X136004418Y-96439597D01*
X136036934Y-96390934D01*
X136085597Y-96358418D01*
X136143000Y-96347000D01*
X137793000Y-96347000D01*
X137850403Y-96358418D01*
G37*
G36*
X157869900Y-96807100D02*
G01*
X156880100Y-96807100D01*
X156880100Y-95999100D01*
X157869900Y-95999100D01*
X157869900Y-96807100D01*
G37*
G36*
X155269900Y-96782100D02*
G01*
X154280100Y-96782100D01*
X154280100Y-95974100D01*
X155269900Y-95974100D01*
X155269900Y-96782100D01*
G37*
G36*
X150099500Y-96603607D02*
G01*
X149096200Y-96603607D01*
X149096200Y-96146407D01*
X150099500Y-96146407D01*
X150099500Y-96603607D01*
G37*
G36*
X152753800Y-96603607D02*
G01*
X151750500Y-96603607D01*
X151750500Y-96146407D01*
X152753800Y-96146407D01*
X152753800Y-96603607D01*
G37*
G36*
X143044900Y-96332100D02*
G01*
X142055100Y-96332100D01*
X142055100Y-95524100D01*
X143044900Y-95524100D01*
X143044900Y-96332100D01*
G37*
G36*
X145569900Y-96282100D02*
G01*
X144580100Y-96282100D01*
X144580100Y-95474100D01*
X145569900Y-95474100D01*
X145569900Y-96282100D01*
G37*
G36*
X148030000Y-96025000D02*
G01*
X147070000Y-96025000D01*
X147070000Y-95175000D01*
X148030000Y-95175000D01*
X148030000Y-96025000D01*
G37*
G36*
X150099500Y-95953621D02*
G01*
X149096200Y-95953621D01*
X149096200Y-95496421D01*
X150099500Y-95496421D01*
X150099500Y-95953621D01*
G37*
G36*
X152753800Y-95953621D02*
G01*
X151750500Y-95953621D01*
X151750500Y-95496421D01*
X152753800Y-95496421D01*
X152753800Y-95953621D01*
G37*
G36*
X132900403Y-95088418D02*
G01*
X132949066Y-95120934D01*
X132981582Y-95169597D01*
X132993000Y-95227000D01*
X132993000Y-95527000D01*
X132981582Y-95584403D01*
X132949066Y-95633066D01*
X132900403Y-95665582D01*
X132843000Y-95677000D01*
X131193000Y-95677000D01*
X131135597Y-95665582D01*
X131086934Y-95633066D01*
X131054418Y-95584403D01*
X131043000Y-95527000D01*
X131043000Y-95227000D01*
X131054418Y-95169597D01*
X131086934Y-95120934D01*
X131135597Y-95088418D01*
X131193000Y-95077000D01*
X132843000Y-95077000D01*
X132900403Y-95088418D01*
G37*
G36*
X137850403Y-95088418D02*
G01*
X137899066Y-95120934D01*
X137931582Y-95169597D01*
X137943000Y-95227000D01*
X137943000Y-95527000D01*
X137931582Y-95584403D01*
X137899066Y-95633066D01*
X137850403Y-95665582D01*
X137793000Y-95677000D01*
X136143000Y-95677000D01*
X136085597Y-95665582D01*
X136036934Y-95633066D01*
X136004418Y-95584403D01*
X135993000Y-95527000D01*
X135993000Y-95227000D01*
X136004418Y-95169597D01*
X136036934Y-95120934D01*
X136085597Y-95088418D01*
X136143000Y-95077000D01*
X137793000Y-95077000D01*
X137850403Y-95088418D01*
G37*
G36*
X132900403Y-93818418D02*
G01*
X132949066Y-93850934D01*
X132981582Y-93899597D01*
X132993000Y-93957000D01*
X132993000Y-94257000D01*
X132981582Y-94314403D01*
X132949066Y-94363066D01*
X132900403Y-94395582D01*
X132843000Y-94407000D01*
X131193000Y-94407000D01*
X131135597Y-94395582D01*
X131086934Y-94363066D01*
X131054418Y-94314403D01*
X131043000Y-94257000D01*
X131043000Y-93957000D01*
X131054418Y-93899597D01*
X131086934Y-93850934D01*
X131135597Y-93818418D01*
X131193000Y-93807000D01*
X132843000Y-93807000D01*
X132900403Y-93818418D01*
G37*
G36*
X137850403Y-93818418D02*
G01*
X137899066Y-93850934D01*
X137931582Y-93899597D01*
X137943000Y-93957000D01*
X137943000Y-94257000D01*
X137931582Y-94314403D01*
X137899066Y-94363066D01*
X137850403Y-94395582D01*
X137793000Y-94407000D01*
X136143000Y-94407000D01*
X136085597Y-94395582D01*
X136036934Y-94363066D01*
X136004418Y-94314403D01*
X135993000Y-94257000D01*
X135993000Y-93957000D01*
X136004418Y-93899597D01*
X136036934Y-93850934D01*
X136085597Y-93818418D01*
X136143000Y-93807000D01*
X137793000Y-93807000D01*
X137850403Y-93818418D01*
G37*
G36*
X150405000Y-93825000D02*
G01*
X149445000Y-93825000D01*
X149445000Y-92975000D01*
X150405000Y-92975000D01*
X150405000Y-93825000D01*
G37*
G36*
X154955000Y-93800000D02*
G01*
X153995000Y-93800000D01*
X153995000Y-92950000D01*
X154955000Y-92950000D01*
X154955000Y-93800000D01*
G37*
G36*
X143594900Y-93775900D02*
G01*
X142605100Y-93775900D01*
X142605100Y-92967900D01*
X143594900Y-92967900D01*
X143594900Y-93775900D01*
G37*
G36*
X145930000Y-93725000D02*
G01*
X144970000Y-93725000D01*
X144970000Y-92875000D01*
X145930000Y-92875000D01*
X145930000Y-93725000D01*
G37*
G36*
X148169900Y-93675900D02*
G01*
X147180100Y-93675900D01*
X147180100Y-92867900D01*
X148169900Y-92867900D01*
X148169900Y-93675900D01*
G37*
G36*
X152744900Y-93650900D02*
G01*
X151755100Y-93650900D01*
X151755100Y-92842900D01*
X152744900Y-92842900D01*
X152744900Y-93650900D01*
G37*
G36*
X157169900Y-93625900D02*
G01*
X156180100Y-93625900D01*
X156180100Y-92817900D01*
X157169900Y-92817900D01*
X157169900Y-93625900D01*
G37*
G36*
X159694900Y-93550900D02*
G01*
X158705100Y-93550900D01*
X158705100Y-92742900D01*
X159694900Y-92742900D01*
X159694900Y-93550900D01*
G37*
G36*
X132900403Y-92548418D02*
G01*
X132949066Y-92580934D01*
X132981582Y-92629597D01*
X132993000Y-92687000D01*
X132993000Y-92987000D01*
X132981582Y-93044403D01*
X132949066Y-93093066D01*
X132900403Y-93125582D01*
X132843000Y-93137000D01*
X131193000Y-93137000D01*
X131135597Y-93125582D01*
X131086934Y-93093066D01*
X131054418Y-93044403D01*
X131043000Y-92987000D01*
X131043000Y-92687000D01*
X131054418Y-92629597D01*
X131086934Y-92580934D01*
X131135597Y-92548418D01*
X131193000Y-92537000D01*
X132843000Y-92537000D01*
X132900403Y-92548418D01*
G37*
G36*
X137850403Y-92548418D02*
G01*
X137899066Y-92580934D01*
X137931582Y-92629597D01*
X137943000Y-92687000D01*
X137943000Y-92987000D01*
X137931582Y-93044403D01*
X137899066Y-93093066D01*
X137850403Y-93125582D01*
X137793000Y-93137000D01*
X136143000Y-93137000D01*
X136085597Y-93125582D01*
X136036934Y-93093066D01*
X136004418Y-93044403D01*
X135993000Y-92987000D01*
X135993000Y-92687000D01*
X136004418Y-92629597D01*
X136036934Y-92580934D01*
X136085597Y-92548418D01*
X136143000Y-92537000D01*
X137793000Y-92537000D01*
X137850403Y-92548418D01*
G37*
G36*
X143594900Y-92282100D02*
G01*
X142605100Y-92282100D01*
X142605100Y-91474100D01*
X143594900Y-91474100D01*
X143594900Y-92282100D01*
G37*
G36*
X150405000Y-92225000D02*
G01*
X149445000Y-92225000D01*
X149445000Y-91375000D01*
X150405000Y-91375000D01*
X150405000Y-92225000D01*
G37*
G36*
X154955000Y-92200000D02*
G01*
X153995000Y-92200000D01*
X153995000Y-91350000D01*
X154955000Y-91350000D01*
X154955000Y-92200000D01*
G37*
G36*
X148169900Y-92182100D02*
G01*
X147180100Y-92182100D01*
X147180100Y-91374100D01*
X148169900Y-91374100D01*
X148169900Y-92182100D01*
G37*
G36*
X152744900Y-92157100D02*
G01*
X151755100Y-92157100D01*
X151755100Y-91349100D01*
X152744900Y-91349100D01*
X152744900Y-92157100D01*
G37*
G36*
X157169900Y-92132100D02*
G01*
X156180100Y-92132100D01*
X156180100Y-91324100D01*
X157169900Y-91324100D01*
X157169900Y-92132100D01*
G37*
G36*
X145930000Y-92125000D02*
G01*
X144970000Y-92125000D01*
X144970000Y-91275000D01*
X145930000Y-91275000D01*
X145930000Y-92125000D01*
G37*
G36*
X159694900Y-92057100D02*
G01*
X158705100Y-92057100D01*
X158705100Y-91249100D01*
X159694900Y-91249100D01*
X159694900Y-92057100D01*
G37*
G36*
X132900403Y-91278418D02*
G01*
X132949066Y-91310934D01*
X132981582Y-91359597D01*
X132993000Y-91417000D01*
X132993000Y-91717000D01*
X132981582Y-91774403D01*
X132949066Y-91823066D01*
X132900403Y-91855582D01*
X132843000Y-91867000D01*
X131193000Y-91867000D01*
X131135597Y-91855582D01*
X131086934Y-91823066D01*
X131054418Y-91774403D01*
X131043000Y-91717000D01*
X131043000Y-91417000D01*
X131054418Y-91359597D01*
X131086934Y-91310934D01*
X131135597Y-91278418D01*
X131193000Y-91267000D01*
X132843000Y-91267000D01*
X132900403Y-91278418D01*
G37*
G36*
X137850403Y-91278418D02*
G01*
X137899066Y-91310934D01*
X137931582Y-91359597D01*
X137943000Y-91417000D01*
X137943000Y-91717000D01*
X137931582Y-91774403D01*
X137899066Y-91823066D01*
X137850403Y-91855582D01*
X137793000Y-91867000D01*
X136143000Y-91867000D01*
X136085597Y-91855582D01*
X136036934Y-91823066D01*
X136004418Y-91774403D01*
X135993000Y-91717000D01*
X135993000Y-91417000D01*
X136004418Y-91359597D01*
X136036934Y-91310934D01*
X136085597Y-91278418D01*
X136143000Y-91267000D01*
X137793000Y-91267000D01*
X137850403Y-91278418D01*
G37*
G36*
X129507576Y-90632657D02*
G01*
X129552995Y-90663005D01*
X129583343Y-90708424D01*
X129594000Y-90762000D01*
X129594000Y-91102000D01*
X129583343Y-91155576D01*
X129552995Y-91200995D01*
X129507576Y-91231343D01*
X129454000Y-91242000D01*
X129174000Y-91242000D01*
X129120424Y-91231343D01*
X129075005Y-91200995D01*
X129044657Y-91155576D01*
X129034000Y-91102000D01*
X129034000Y-90762000D01*
X129044657Y-90708424D01*
X129075005Y-90663005D01*
X129120424Y-90632657D01*
X129174000Y-90622000D01*
X129454000Y-90622000D01*
X129507576Y-90632657D01*
G37*
G36*
X130467576Y-90632657D02*
G01*
X130512995Y-90663005D01*
X130543343Y-90708424D01*
X130554000Y-90762000D01*
X130554000Y-91102000D01*
X130543343Y-91155576D01*
X130512995Y-91200995D01*
X130467576Y-91231343D01*
X130414000Y-91242000D01*
X130134000Y-91242000D01*
X130080424Y-91231343D01*
X130035005Y-91200995D01*
X130004657Y-91155576D01*
X129994000Y-91102000D01*
X129994000Y-90762000D01*
X130004657Y-90708424D01*
X130035005Y-90663005D01*
X130080424Y-90632657D01*
X130134000Y-90622000D01*
X130414000Y-90622000D01*
X130467576Y-90632657D01*
G37*
G36*
X146881500Y-90012579D02*
G01*
X145878200Y-90012579D01*
X145878200Y-89555379D01*
X146881500Y-89555379D01*
X146881500Y-90012579D01*
G37*
G36*
X149535800Y-90012579D02*
G01*
X148532500Y-90012579D01*
X148532500Y-89555379D01*
X149535800Y-89555379D01*
X149535800Y-90012579D01*
G37*
G36*
X156792150Y-89976778D02*
G01*
X155832150Y-89976778D01*
X155832150Y-89126778D01*
X156792150Y-89126778D01*
X156792150Y-89976778D01*
G37*
G36*
X142769900Y-89975900D02*
G01*
X141780100Y-89975900D01*
X141780100Y-89167900D01*
X142769900Y-89167900D01*
X142769900Y-89975900D01*
G37*
G36*
X129787403Y-88992418D02*
G01*
X129836066Y-89024934D01*
X129868582Y-89073597D01*
X129880000Y-89131000D01*
X129880000Y-89431000D01*
X129868582Y-89488403D01*
X129836066Y-89537066D01*
X129787403Y-89569582D01*
X129730000Y-89581000D01*
X128080000Y-89581000D01*
X128022597Y-89569582D01*
X127973934Y-89537066D01*
X127941418Y-89488403D01*
X127930000Y-89431000D01*
X127930000Y-89131000D01*
X127941418Y-89073597D01*
X127973934Y-89024934D01*
X128022597Y-88992418D01*
X128080000Y-88981000D01*
X129730000Y-88981000D01*
X129787403Y-88992418D01*
G37*
G36*
X134737403Y-88992418D02*
G01*
X134786066Y-89024934D01*
X134818582Y-89073597D01*
X134830000Y-89131000D01*
X134830000Y-89431000D01*
X134818582Y-89488403D01*
X134786066Y-89537066D01*
X134737403Y-89569582D01*
X134680000Y-89581000D01*
X133030000Y-89581000D01*
X132972597Y-89569582D01*
X132923934Y-89537066D01*
X132891418Y-89488403D01*
X132880000Y-89431000D01*
X132880000Y-89131000D01*
X132891418Y-89073597D01*
X132923934Y-89024934D01*
X132972597Y-88992418D01*
X133030000Y-88981000D01*
X134680000Y-88981000D01*
X134737403Y-88992418D01*
G37*
G36*
X146881500Y-89362593D02*
G01*
X145878200Y-89362593D01*
X145878200Y-88905393D01*
X146881500Y-88905393D01*
X146881500Y-89362593D01*
G37*
G36*
X149535800Y-89362593D02*
G01*
X148532500Y-89362593D01*
X148532500Y-88905393D01*
X149535800Y-88905393D01*
X149535800Y-89362593D01*
G37*
G36*
X146881500Y-88712607D02*
G01*
X145878200Y-88712607D01*
X145878200Y-88255407D01*
X146881500Y-88255407D01*
X146881500Y-88712607D01*
G37*
G36*
X149535800Y-88712607D02*
G01*
X148532500Y-88712607D01*
X148532500Y-88255407D01*
X149535800Y-88255407D01*
X149535800Y-88712607D01*
G37*
G36*
X151600000Y-88655000D02*
G01*
X150750000Y-88655000D01*
X150750000Y-87695000D01*
X151600000Y-87695000D01*
X151600000Y-88655000D01*
G37*
G36*
X153200000Y-88655000D02*
G01*
X152350000Y-88655000D01*
X152350000Y-87695000D01*
X153200000Y-87695000D01*
X153200000Y-88655000D01*
G37*
G36*
X142769900Y-88482100D02*
G01*
X141780100Y-88482100D01*
X141780100Y-87674100D01*
X142769900Y-87674100D01*
X142769900Y-88482100D01*
G37*
G36*
X156792150Y-88376778D02*
G01*
X155832150Y-88376778D01*
X155832150Y-87526778D01*
X156792150Y-87526778D01*
X156792150Y-88376778D01*
G37*
G36*
X129787403Y-87722418D02*
G01*
X129836066Y-87754934D01*
X129868582Y-87803597D01*
X129880000Y-87861000D01*
X129880000Y-88161000D01*
X129868582Y-88218403D01*
X129836066Y-88267066D01*
X129787403Y-88299582D01*
X129730000Y-88311000D01*
X128080000Y-88311000D01*
X128022597Y-88299582D01*
X127973934Y-88267066D01*
X127941418Y-88218403D01*
X127930000Y-88161000D01*
X127930000Y-87861000D01*
X127941418Y-87803597D01*
X127973934Y-87754934D01*
X128022597Y-87722418D01*
X128080000Y-87711000D01*
X129730000Y-87711000D01*
X129787403Y-87722418D01*
G37*
G36*
X134737403Y-87722418D02*
G01*
X134786066Y-87754934D01*
X134818582Y-87803597D01*
X134830000Y-87861000D01*
X134830000Y-88161000D01*
X134818582Y-88218403D01*
X134786066Y-88267066D01*
X134737403Y-88299582D01*
X134680000Y-88311000D01*
X133030000Y-88311000D01*
X132972597Y-88299582D01*
X132923934Y-88267066D01*
X132891418Y-88218403D01*
X132880000Y-88161000D01*
X132880000Y-87861000D01*
X132891418Y-87803597D01*
X132923934Y-87754934D01*
X132972597Y-87722418D01*
X133030000Y-87711000D01*
X134680000Y-87711000D01*
X134737403Y-87722418D01*
G37*
G36*
X146881500Y-88062621D02*
G01*
X145878200Y-88062621D01*
X145878200Y-87605421D01*
X146881500Y-87605421D01*
X146881500Y-88062621D01*
G37*
G36*
X149535800Y-88062621D02*
G01*
X148532500Y-88062621D01*
X148532500Y-87605421D01*
X149535800Y-87605421D01*
X149535800Y-88062621D01*
G37*
G36*
X144885000Y-87844000D02*
G01*
X143925000Y-87844000D01*
X143925000Y-86994000D01*
X144885000Y-86994000D01*
X144885000Y-87844000D01*
G37*
G36*
X129787403Y-86452418D02*
G01*
X129836066Y-86484934D01*
X129868582Y-86533597D01*
X129880000Y-86591000D01*
X129880000Y-86891000D01*
X129868582Y-86948403D01*
X129836066Y-86997066D01*
X129787403Y-87029582D01*
X129730000Y-87041000D01*
X128080000Y-87041000D01*
X128022597Y-87029582D01*
X127973934Y-86997066D01*
X127941418Y-86948403D01*
X127930000Y-86891000D01*
X127930000Y-86591000D01*
X127941418Y-86533597D01*
X127973934Y-86484934D01*
X128022597Y-86452418D01*
X128080000Y-86441000D01*
X129730000Y-86441000D01*
X129787403Y-86452418D01*
G37*
G36*
X134737403Y-86452418D02*
G01*
X134786066Y-86484934D01*
X134818582Y-86533597D01*
X134830000Y-86591000D01*
X134830000Y-86891000D01*
X134818582Y-86948403D01*
X134786066Y-86997066D01*
X134737403Y-87029582D01*
X134680000Y-87041000D01*
X133030000Y-87041000D01*
X132972597Y-87029582D01*
X132923934Y-86997066D01*
X132891418Y-86948403D01*
X132880000Y-86891000D01*
X132880000Y-86591000D01*
X132891418Y-86533597D01*
X132923934Y-86484934D01*
X132972597Y-86452418D01*
X133030000Y-86441000D01*
X134680000Y-86441000D01*
X134737403Y-86452418D01*
G37*
G36*
X151482100Y-86519900D02*
G01*
X150674100Y-86519900D01*
X150674100Y-85530100D01*
X151482100Y-85530100D01*
X151482100Y-86519900D01*
G37*
G36*
X152975900Y-86519900D02*
G01*
X152167900Y-86519900D01*
X152167900Y-85530100D01*
X152975900Y-85530100D01*
X152975900Y-86519900D01*
G37*
G36*
X144885000Y-86244000D02*
G01*
X143925000Y-86244000D01*
X143925000Y-85394000D01*
X144885000Y-85394000D01*
X144885000Y-86244000D01*
G37*
G36*
X129787403Y-85182418D02*
G01*
X129836066Y-85214934D01*
X129868582Y-85263597D01*
X129880000Y-85321000D01*
X129880000Y-85621000D01*
X129868582Y-85678403D01*
X129836066Y-85727066D01*
X129787403Y-85759582D01*
X129730000Y-85771000D01*
X128080000Y-85771000D01*
X128022597Y-85759582D01*
X127973934Y-85727066D01*
X127941418Y-85678403D01*
X127930000Y-85621000D01*
X127930000Y-85321000D01*
X127941418Y-85263597D01*
X127973934Y-85214934D01*
X128022597Y-85182418D01*
X128080000Y-85171000D01*
X129730000Y-85171000D01*
X129787403Y-85182418D01*
G37*
G36*
X134737403Y-85182418D02*
G01*
X134786066Y-85214934D01*
X134818582Y-85263597D01*
X134830000Y-85321000D01*
X134830000Y-85621000D01*
X134818582Y-85678403D01*
X134786066Y-85727066D01*
X134737403Y-85759582D01*
X134680000Y-85771000D01*
X133030000Y-85771000D01*
X132972597Y-85759582D01*
X132923934Y-85727066D01*
X132891418Y-85678403D01*
X132880000Y-85621000D01*
X132880000Y-85321000D01*
X132891418Y-85263597D01*
X132923934Y-85214934D01*
X132972597Y-85182418D01*
X133030000Y-85171000D01*
X134680000Y-85171000D01*
X134737403Y-85182418D01*
G37*
G36*
X158725000Y-85330000D02*
G01*
X157875000Y-85330000D01*
X157875000Y-84370000D01*
X158725000Y-84370000D01*
X158725000Y-85330000D01*
G37*
G36*
X160325000Y-85330000D02*
G01*
X159475000Y-85330000D01*
X159475000Y-84370000D01*
X160325000Y-84370000D01*
X160325000Y-85330000D01*
G37*
G36*
X156330000Y-85250000D02*
G01*
X155370000Y-85250000D01*
X155370000Y-84400000D01*
X156330000Y-84400000D01*
X156330000Y-85250000D01*
G37*
G36*
X129787403Y-83912418D02*
G01*
X129836066Y-83944934D01*
X129868582Y-83993597D01*
X129880000Y-84051000D01*
X129880000Y-84351000D01*
X129868582Y-84408403D01*
X129836066Y-84457066D01*
X129787403Y-84489582D01*
X129730000Y-84501000D01*
X128080000Y-84501000D01*
X128022597Y-84489582D01*
X127973934Y-84457066D01*
X127941418Y-84408403D01*
X127930000Y-84351000D01*
X127930000Y-84051000D01*
X127941418Y-83993597D01*
X127973934Y-83944934D01*
X128022597Y-83912418D01*
X128080000Y-83901000D01*
X129730000Y-83901000D01*
X129787403Y-83912418D01*
G37*
G36*
X134737403Y-83912418D02*
G01*
X134786066Y-83944934D01*
X134818582Y-83993597D01*
X134830000Y-84051000D01*
X134830000Y-84351000D01*
X134818582Y-84408403D01*
X134786066Y-84457066D01*
X134737403Y-84489582D01*
X134680000Y-84501000D01*
X133030000Y-84501000D01*
X132972597Y-84489582D01*
X132923934Y-84457066D01*
X132891418Y-84408403D01*
X132880000Y-84351000D01*
X132880000Y-84051000D01*
X132891418Y-83993597D01*
X132923934Y-83944934D01*
X132972597Y-83912418D01*
X133030000Y-83901000D01*
X134680000Y-83901000D01*
X134737403Y-83912418D01*
G37*
G36*
X150000602Y-83915499D02*
G01*
X148672702Y-83915499D01*
X148672702Y-83484499D01*
X150000602Y-83484499D01*
X150000602Y-83915499D01*
G37*
G36*
X154427298Y-83915499D02*
G01*
X153099398Y-83915499D01*
X153099398Y-83484499D01*
X154427298Y-83484499D01*
X154427298Y-83915499D01*
G37*
G36*
X156330000Y-83650000D02*
G01*
X155370000Y-83650000D01*
X155370000Y-82800000D01*
X156330000Y-82800000D01*
X156330000Y-83650000D01*
G37*
G36*
X147077500Y-83500900D02*
G01*
X145122500Y-83500900D01*
X145122500Y-82595300D01*
X147077500Y-82595300D01*
X147077500Y-83500900D01*
G37*
G36*
X150000602Y-83265501D02*
G01*
X148672702Y-83265501D01*
X148672702Y-82834501D01*
X150000602Y-82834501D01*
X150000602Y-83265501D01*
G37*
G36*
X154427298Y-83265501D02*
G01*
X153099398Y-83265501D01*
X153099398Y-82834501D01*
X154427298Y-82834501D01*
X154427298Y-83265501D01*
G37*
G36*
X129787403Y-82642418D02*
G01*
X129836066Y-82674934D01*
X129868582Y-82723597D01*
X129880000Y-82781000D01*
X129880000Y-83081000D01*
X129868582Y-83138403D01*
X129836066Y-83187066D01*
X129787403Y-83219582D01*
X129730000Y-83231000D01*
X128080000Y-83231000D01*
X128022597Y-83219582D01*
X127973934Y-83187066D01*
X127941418Y-83138403D01*
X127930000Y-83081000D01*
X127930000Y-82781000D01*
X127941418Y-82723597D01*
X127973934Y-82674934D01*
X128022597Y-82642418D01*
X128080000Y-82631000D01*
X129730000Y-82631000D01*
X129787403Y-82642418D01*
G37*
G36*
X134737403Y-82642418D02*
G01*
X134786066Y-82674934D01*
X134818582Y-82723597D01*
X134830000Y-82781000D01*
X134830000Y-83081000D01*
X134818582Y-83138403D01*
X134786066Y-83187066D01*
X134737403Y-83219582D01*
X134680000Y-83231000D01*
X133030000Y-83231000D01*
X132972597Y-83219582D01*
X132923934Y-83187066D01*
X132891418Y-83138403D01*
X132880000Y-83081000D01*
X132880000Y-82781000D01*
X132891418Y-82723597D01*
X132923934Y-82674934D01*
X132972597Y-82642418D01*
X133030000Y-82631000D01*
X134680000Y-82631000D01*
X134737403Y-82642418D01*
G37*
G36*
X158732100Y-83119900D02*
G01*
X157924100Y-83119900D01*
X157924100Y-82130100D01*
X158732100Y-82130100D01*
X158732100Y-83119900D01*
G37*
G36*
X160225900Y-83119900D02*
G01*
X159417900Y-83119900D01*
X159417900Y-82130100D01*
X160225900Y-82130100D01*
X160225900Y-83119900D01*
G37*
G36*
X150000602Y-82615499D02*
G01*
X148672702Y-82615499D01*
X148672702Y-82184499D01*
X150000602Y-82184499D01*
X150000602Y-82615499D01*
G37*
G36*
X154427298Y-82615499D02*
G01*
X153099398Y-82615499D01*
X153099398Y-82184499D01*
X154427298Y-82184499D01*
X154427298Y-82615499D01*
G37*
G36*
X150000602Y-81965501D02*
G01*
X148672702Y-81965501D01*
X148672702Y-81534501D01*
X150000602Y-81534501D01*
X150000602Y-81965501D01*
G37*
G36*
X154427298Y-81965501D02*
G01*
X153099398Y-81965501D01*
X153099398Y-81534501D01*
X154427298Y-81534501D01*
X154427298Y-81965501D01*
G37*
G36*
X129787403Y-81372418D02*
G01*
X129836066Y-81404934D01*
X129868582Y-81453597D01*
X129880000Y-81511000D01*
X129880000Y-81811000D01*
X129868582Y-81868403D01*
X129836066Y-81917066D01*
X129787403Y-81949582D01*
X129730000Y-81961000D01*
X128080000Y-81961000D01*
X128022597Y-81949582D01*
X127973934Y-81917066D01*
X127941418Y-81868403D01*
X127930000Y-81811000D01*
X127930000Y-81511000D01*
X127941418Y-81453597D01*
X127973934Y-81404934D01*
X128022597Y-81372418D01*
X128080000Y-81361000D01*
X129730000Y-81361000D01*
X129787403Y-81372418D01*
G37*
G36*
X134737403Y-81372418D02*
G01*
X134786066Y-81404934D01*
X134818582Y-81453597D01*
X134830000Y-81511000D01*
X134830000Y-81811000D01*
X134818582Y-81868403D01*
X134786066Y-81917066D01*
X134737403Y-81949582D01*
X134680000Y-81961000D01*
X133030000Y-81961000D01*
X132972597Y-81949582D01*
X132923934Y-81917066D01*
X132891418Y-81868403D01*
X132880000Y-81811000D01*
X132880000Y-81511000D01*
X132891418Y-81453597D01*
X132923934Y-81404934D01*
X132972597Y-81372418D01*
X133030000Y-81361000D01*
X134680000Y-81361000D01*
X134737403Y-81372418D01*
G37*
G36*
X147077500Y-81604700D02*
G01*
X145122500Y-81604700D01*
X145122500Y-80699100D01*
X147077500Y-80699100D01*
X147077500Y-81604700D01*
G37*
G36*
X127350576Y-80982657D02*
G01*
X127395995Y-81013005D01*
X127426343Y-81058424D01*
X127437000Y-81112000D01*
X127437000Y-81392000D01*
X127426343Y-81445576D01*
X127395995Y-81490995D01*
X127350576Y-81521343D01*
X127297000Y-81532000D01*
X126957000Y-81532000D01*
X126903424Y-81521343D01*
X126858005Y-81490995D01*
X126827657Y-81445576D01*
X126817000Y-81392000D01*
X126817000Y-81112000D01*
X126827657Y-81058424D01*
X126858005Y-81013005D01*
X126903424Y-80982657D01*
X126957000Y-80972000D01*
X127297000Y-80972000D01*
X127350576Y-80982657D01*
G37*
G36*
X129787403Y-80102418D02*
G01*
X129836066Y-80134934D01*
X129868582Y-80183597D01*
X129880000Y-80241000D01*
X129880000Y-80541000D01*
X129868582Y-80598403D01*
X129836066Y-80647066D01*
X129787403Y-80679582D01*
X129730000Y-80691000D01*
X128080000Y-80691000D01*
X128022597Y-80679582D01*
X127973934Y-80647066D01*
X127941418Y-80598403D01*
X127930000Y-80541000D01*
X127930000Y-80241000D01*
X127941418Y-80183597D01*
X127973934Y-80134934D01*
X128022597Y-80102418D01*
X128080000Y-80091000D01*
X129730000Y-80091000D01*
X129787403Y-80102418D01*
G37*
G36*
X134737403Y-80102418D02*
G01*
X134786066Y-80134934D01*
X134818582Y-80183597D01*
X134830000Y-80241000D01*
X134830000Y-80541000D01*
X134818582Y-80598403D01*
X134786066Y-80647066D01*
X134737403Y-80679582D01*
X134680000Y-80691000D01*
X133030000Y-80691000D01*
X132972597Y-80679582D01*
X132923934Y-80647066D01*
X132891418Y-80598403D01*
X132880000Y-80541000D01*
X132880000Y-80241000D01*
X132891418Y-80183597D01*
X132923934Y-80134934D01*
X132972597Y-80102418D01*
X133030000Y-80091000D01*
X134680000Y-80091000D01*
X134737403Y-80102418D01*
G37*
G36*
X127350576Y-80022657D02*
G01*
X127395995Y-80053005D01*
X127426343Y-80098424D01*
X127437000Y-80152000D01*
X127437000Y-80432000D01*
X127426343Y-80485576D01*
X127395995Y-80530995D01*
X127350576Y-80561343D01*
X127297000Y-80572000D01*
X126957000Y-80572000D01*
X126903424Y-80561343D01*
X126858005Y-80530995D01*
X126827657Y-80485576D01*
X126817000Y-80432000D01*
X126817000Y-80152000D01*
X126827657Y-80098424D01*
X126858005Y-80053005D01*
X126903424Y-80022657D01*
X126957000Y-80012000D01*
X127297000Y-80012000D01*
X127350576Y-80022657D01*
G37*
G36*
X129770672Y-74886508D02*
G01*
X130010735Y-74950833D01*
X130240349Y-75045942D01*
X130455583Y-75170208D01*
X130652757Y-75321504D01*
X130828496Y-75497243D01*
X130979792Y-75694417D01*
X131104058Y-75909651D01*
X131199167Y-76139265D01*
X131263492Y-76379328D01*
X131295932Y-76625734D01*
X131295932Y-76874266D01*
X131263492Y-77120672D01*
X131199167Y-77360735D01*
X131104058Y-77590349D01*
X130979792Y-77805583D01*
X130828496Y-78002757D01*
X130652757Y-78178496D01*
X130455583Y-78329792D01*
X130240349Y-78454058D01*
X130010735Y-78549167D01*
X129770672Y-78613492D01*
X129524266Y-78645932D01*
X129275734Y-78645932D01*
X129029328Y-78613492D01*
X128789265Y-78549167D01*
X128559651Y-78454058D01*
X128344417Y-78329792D01*
X128147243Y-78178496D01*
X127971504Y-78002757D01*
X127820208Y-77805583D01*
X127695942Y-77590349D01*
X127600833Y-77360735D01*
X127536508Y-77120672D01*
X127504068Y-76874266D01*
X127504068Y-76625734D01*
X127536508Y-76379328D01*
X127600833Y-76139265D01*
X127695942Y-75909651D01*
X127820208Y-75694417D01*
X127971504Y-75497243D01*
X128147243Y-75321504D01*
X128344417Y-75170208D01*
X128559651Y-75045942D01*
X128789265Y-74950833D01*
X129029328Y-74886508D01*
X129275734Y-74854068D01*
X129524266Y-74854068D01*
X129770672Y-74886508D01*
G37*
G36*
X163270672Y-74886508D02*
G01*
X163510735Y-74950833D01*
X163740349Y-75045942D01*
X163955583Y-75170208D01*
X164152757Y-75321504D01*
X164328496Y-75497243D01*
X164479792Y-75694417D01*
X164604058Y-75909651D01*
X164699167Y-76139265D01*
X164763492Y-76379328D01*
X164795932Y-76625734D01*
X164795932Y-76874266D01*
X164763492Y-77120672D01*
X164699167Y-77360735D01*
X164604058Y-77590349D01*
X164479792Y-77805583D01*
X164328496Y-78002757D01*
X164152757Y-78178496D01*
X163955583Y-78329792D01*
X163740349Y-78454058D01*
X163510735Y-78549167D01*
X163270672Y-78613492D01*
X163024266Y-78645932D01*
X162775734Y-78645932D01*
X162529328Y-78613492D01*
X162289265Y-78549167D01*
X162059651Y-78454058D01*
X161844417Y-78329792D01*
X161647243Y-78178496D01*
X161471504Y-78002757D01*
X161320208Y-77805583D01*
X161195942Y-77590349D01*
X161100833Y-77360735D01*
X161036508Y-77120672D01*
X161004068Y-76874266D01*
X161004068Y-76625734D01*
X161036508Y-76379328D01*
X161100833Y-76139265D01*
X161195942Y-75909651D01*
X161320208Y-75694417D01*
X161471504Y-75497243D01*
X161647243Y-75321504D01*
X161844417Y-75170208D01*
X162059651Y-75045942D01*
X162289265Y-74950833D01*
X162529328Y-74886508D01*
X162775734Y-74854068D01*
X163024266Y-74854068D01*
X163270672Y-74886508D01*
G37*
G36*
X143483034Y-74914264D02*
G01*
X143516125Y-74936375D01*
X143538236Y-74969466D01*
X143546000Y-75008500D01*
X143546000Y-76516500D01*
X143538236Y-76555534D01*
X143516125Y-76588625D01*
X143483034Y-76610736D01*
X143444000Y-76618500D01*
X141936000Y-76618500D01*
X141896966Y-76610736D01*
X141863875Y-76588625D01*
X141841764Y-76555534D01*
X141834000Y-76516500D01*
X141834000Y-75008500D01*
X141841764Y-74969466D01*
X141863875Y-74936375D01*
X141896966Y-74914264D01*
X141936000Y-74906500D01*
X143444000Y-74906500D01*
X143483034Y-74914264D01*
G37*
G36*
X145478484Y-74943359D02*
G01*
X145633516Y-75007575D01*
X145773041Y-75100803D01*
X145891697Y-75219459D01*
X145984925Y-75358984D01*
X146049141Y-75514016D01*
X146081878Y-75678597D01*
X146081878Y-75846403D01*
X146049141Y-76010984D01*
X145984925Y-76166016D01*
X145891697Y-76305541D01*
X145773041Y-76424197D01*
X145633516Y-76517425D01*
X145478484Y-76581641D01*
X145313903Y-76614378D01*
X145146097Y-76614378D01*
X144981516Y-76581641D01*
X144826484Y-76517425D01*
X144686959Y-76424197D01*
X144568303Y-76305541D01*
X144475075Y-76166016D01*
X144410859Y-76010984D01*
X144378122Y-75846403D01*
X144378122Y-75678597D01*
X144410859Y-75514016D01*
X144475075Y-75358984D01*
X144568303Y-75219459D01*
X144686959Y-75100803D01*
X144826484Y-75007575D01*
X144981516Y-74943359D01*
X145146097Y-74910622D01*
X145313903Y-74910622D01*
X145478484Y-74943359D01*
G37*
G36*
X148018484Y-74943359D02*
G01*
X148173516Y-75007575D01*
X148313041Y-75100803D01*
X148431697Y-75219459D01*
X148524925Y-75358984D01*
X148589141Y-75514016D01*
X148621878Y-75678597D01*
X148621878Y-75846403D01*
X148589141Y-76010984D01*
X148524925Y-76166016D01*
X148431697Y-76305541D01*
X148313041Y-76424197D01*
X148173516Y-76517425D01*
X148018484Y-76581641D01*
X147853903Y-76614378D01*
X147686097Y-76614378D01*
X147521516Y-76581641D01*
X147366484Y-76517425D01*
X147226959Y-76424197D01*
X147108303Y-76305541D01*
X147015075Y-76166016D01*
X146950859Y-76010984D01*
X146918122Y-75846403D01*
X146918122Y-75678597D01*
X146950859Y-75514016D01*
X147015075Y-75358984D01*
X147108303Y-75219459D01*
X147226959Y-75100803D01*
X147366484Y-75007575D01*
X147521516Y-74943359D01*
X147686097Y-74910622D01*
X147853903Y-74910622D01*
X148018484Y-74943359D01*
G37*
G36*
X150558484Y-74943359D02*
G01*
X150713516Y-75007575D01*
X150853041Y-75100803D01*
X150971697Y-75219459D01*
X151064925Y-75358984D01*
X151129141Y-75514016D01*
X151161878Y-75678597D01*
X151161878Y-75846403D01*
X151129141Y-76010984D01*
X151064925Y-76166016D01*
X150971697Y-76305541D01*
X150853041Y-76424197D01*
X150713516Y-76517425D01*
X150558484Y-76581641D01*
X150393903Y-76614378D01*
X150226097Y-76614378D01*
X150061516Y-76581641D01*
X149906484Y-76517425D01*
X149766959Y-76424197D01*
X149648303Y-76305541D01*
X149555075Y-76166016D01*
X149490859Y-76010984D01*
X149458122Y-75846403D01*
X149458122Y-75678597D01*
X149490859Y-75514016D01*
X149555075Y-75358984D01*
X149648303Y-75219459D01*
X149766959Y-75100803D01*
X149906484Y-75007575D01*
X150061516Y-74943359D01*
X150226097Y-74910622D01*
X150393903Y-74910622D01*
X150558484Y-74943359D01*
G37*
M02*
